<svg width="25" height="25" viewBox="0 0 25 25" fill="none" xmlns="http://www.w3.org/2000/svg">
<circle cx="12.5" cy="12.5" r="12" fill="url(#paint0_linear_28_2408)" stroke="#FAFAFA"/>
<path d="M12.0176 7.89746V13.7754H13.3696V15.0005H12.0176V17H10.5894V15.0005H6.46973V13.7627C6.84212 13.3438 7.22298 12.891 7.6123 12.4043C8.00586 11.9134 8.38249 11.4141 8.74219 10.9062C9.10612 10.3942 9.44255 9.88216 9.75146 9.37012C10.0604 8.85807 10.3206 8.36719 10.5322 7.89746H12.0176ZM10.5894 13.7754V9.9541C10.1281 10.7835 9.67106 11.5072 9.21826 12.125C8.76969 12.7428 8.34863 13.293 7.95508 13.7754H10.5894ZM17.5337 7.69434V17H16.061V9.49707C15.7944 9.6875 15.5067 9.85042 15.1978 9.98584C14.8931 10.117 14.5439 10.2334 14.1504 10.335V9.07812C14.3958 8.99772 14.6328 8.91309 14.8613 8.82422C15.0898 8.73535 15.3141 8.6359 15.5342 8.52588C15.7585 8.41585 15.9827 8.29313 16.207 8.15771C16.4355 8.0223 16.6704 7.86784 16.9116 7.69434H17.5337Z" fill="white"/>
<defs>
<linearGradient id="paint0_linear_28_2408" x1="0" y1="0" x2="25" y2="25" gradientUnits="userSpaceOnUse">
<stop stop-color="#209782"/>
<stop offset="1" stop-color="#0C695A"/>
</linearGradient>
</defs>
</svg>
