<svg width="91" height="101" viewBox="0 0 91 101" fill="none" xmlns="http://www.w3.org/2000/svg">
<path d="M35.8303 46.3468C35.8303 52.0341 31.23 56.6436 25.5542 56.6436C19.8783 56.6436 15.2781 52.0341 15.2781 46.3468C15.2781 40.6596 19.8783 36.05 25.5542 36.05C31.23 36.05 35.8303 40.6596 35.8303 46.3468Z" fill="url(#paint0_linear_39_484)"/>
<path d="M73.5086 96V85.7033C73.5509 84.0729 72.7802 82.5284 71.4534 81.5845C68.4962 79.2643 65.0652 77.6249 61.4057 76.7794C58.662 75.9534 55.8212 75.4912 52.9565 75.4065C50.0849 75.4156 47.2338 75.879 44.5072 76.7794C40.8992 77.769 37.4967 79.3959 34.4595 81.5845C33.1716 82.5616 32.4111 84.0844 32.4043 85.7033V96H73.5086Z" fill="url(#paint1_linear_39_484)"/>
<path d="M63.2324 62.3641C63.2324 68.0514 58.6321 72.6609 52.9563 72.6609C47.2804 72.6609 42.6802 68.0514 42.6802 62.3641C42.6802 56.6769 47.2804 52.0674 52.9563 52.0674C58.6321 52.0674 63.2324 56.6769 63.2324 62.3641Z" fill="url(#paint2_linear_39_484)"/>
<path d="M31.7195 77.9233C34.9256 75.6306 38.4697 73.855 42.2239 72.6606C39.6275 69.9491 38.158 66.3498 38.1135 62.5926V62.135C36.7799 61.5744 35.4052 61.1156 34.0031 60.7621C31.2594 59.936 28.4186 59.4738 25.5538 59.3892C22.6822 59.3983 19.8312 59.8617 17.1046 60.7621C13.5331 61.849 10.1454 63.4678 7.05685 65.5672C5.7301 66.5111 4.9594 68.0556 5.00165 69.6859V79.9827H29.6642C30.2306 79.1864 30.9248 78.4908 31.7195 77.9233Z" fill="url(#paint3_linear_39_484)"/>
<path fill-rule="evenodd" clip-rule="evenodd" d="M40.4882 5H83.6134C84.9356 5.01266 85.9998 6.09575 85.9998 7.42863V37.1018C85.9998 38.4347 84.9356 39.5178 83.6134 39.5305H56.8043L47.3389 49.245V39.5305H40.4882H40.4653C39.1408 39.5051 38.0881 38.4024 38.1132 37.0673V7.42863C38.1064 6.09805 39.1683 5.01266 40.4882 5ZM42 7.97033C41.4477 7.97033 41 8.41805 41 8.97033V35.6838C41 36.2361 41.4477 36.6838 42 36.6838H82C82.5523 36.6838 83 36.2361 83 35.6838V8.97033C83 8.41805 82.5523 7.97033 82 7.97033H42Z" fill="url(#paint4_linear_39_484)"/>
<path d="M59.7754 26.9209C59.6777 26.667 59.5996 26.3838 59.541 26.0713C59.4922 25.749 59.4678 25.4463 59.4678 25.1631C59.4678 24.7139 59.5117 24.3037 59.5996 23.9326C59.6875 23.5615 59.8193 23.2148 59.9951 22.8926C60.1709 22.5605 60.3906 22.248 60.6543 21.9551C60.918 21.6523 61.2256 21.3545 61.5771 21.0615C61.9482 20.749 62.2705 20.4609 62.5439 20.1973C62.8271 19.9238 63.0664 19.6553 63.2617 19.3916C63.457 19.1182 63.6035 18.8398 63.7012 18.5566C63.7988 18.2637 63.8477 17.9414 63.8477 17.5898C63.8477 17.2871 63.7939 17.0088 63.6865 16.7549C63.5791 16.4912 63.4229 16.2666 63.2178 16.0811C63.0225 15.8955 62.7783 15.749 62.4854 15.6416C62.2021 15.5342 61.8848 15.4805 61.5332 15.4805C60.7715 15.4805 59.9805 15.6416 59.1602 15.9639C58.3398 16.2764 57.5635 16.7549 56.8311 17.3994V12.9902C57.583 12.541 58.4033 12.2041 59.292 11.9795C60.1807 11.7549 61.0986 11.6426 62.0459 11.6426C62.9541 11.6426 63.7988 11.7451 64.5801 11.9502C65.3613 12.1455 66.04 12.458 66.6162 12.8877C67.2021 13.3174 67.6562 13.8691 67.9785 14.543C68.3105 15.207 68.4766 16.0078 68.4766 16.9453C68.4766 17.541 68.4082 18.083 68.2715 18.5713C68.1348 19.0498 67.9346 19.5039 67.6709 19.9336C67.4072 20.3633 67.0801 20.7783 66.6895 21.1787C66.2988 21.5693 65.8496 21.9746 65.3418 22.3945C65 22.6777 64.6973 22.9414 64.4336 23.1855C64.1797 23.4297 63.9648 23.6738 63.7891 23.918C63.623 24.1523 63.4961 24.4062 63.4082 24.6797C63.3203 24.9434 63.2764 25.2461 63.2764 25.5879C63.2764 25.8223 63.3057 26.0615 63.3643 26.3057C63.4326 26.5498 63.5205 26.7549 63.6279 26.9209H59.7754ZM61.9141 33.3369C61.1328 33.3369 60.4834 33.1025 59.9658 32.6338C59.4482 32.1455 59.1895 31.5693 59.1895 30.9053C59.1895 30.2217 59.4482 29.6504 59.9658 29.1914C60.4834 28.7324 61.1328 28.5029 61.9141 28.5029C62.6855 28.5029 63.3252 28.7324 63.833 29.1914C64.3408 29.6406 64.5947 30.2119 64.5947 30.9053C64.5947 31.6084 64.3457 32.1895 63.8477 32.6484C63.3398 33.1074 62.6953 33.3369 61.9141 33.3369Z" fill="url(#paint5_linear_39_484)"/>
<defs>
<linearGradient id="paint0_linear_39_484" x1="15.2781" y1="36.05" x2="35.8716" y2="56.6022" gradientUnits="userSpaceOnUse">
<stop stop-color="#209782"/>
<stop offset="1" stop-color="#0C695A"/>
</linearGradient>
<linearGradient id="paint1_linear_39_484" x1="32.4043" y1="75.4065" x2="48.8986" y2="108.33" gradientUnits="userSpaceOnUse">
<stop stop-color="#209782"/>
<stop offset="1" stop-color="#0C695A"/>
</linearGradient>
<linearGradient id="paint2_linear_39_484" x1="42.6802" y1="52.0674" x2="63.2737" y2="72.6195" gradientUnits="userSpaceOnUse">
<stop stop-color="#209782"/>
<stop offset="1" stop-color="#0C695A"/>
</linearGradient>
<linearGradient id="paint3_linear_39_484" x1="5" y1="59.3892" x2="22.4463" y2="90.9243" gradientUnits="userSpaceOnUse">
<stop stop-color="#209782"/>
<stop offset="1" stop-color="#0C695A"/>
</linearGradient>
<linearGradient id="paint4_linear_39_484" x1="38.1128" y1="5" x2="82.2197" y2="52.7376" gradientUnits="userSpaceOnUse">
<stop stop-color="#209782"/>
<stop offset="1" stop-color="#0C695A"/>
</linearGradient>
<linearGradient id="paint5_linear_39_484" x1="51" y1="8" x2="75.9133" y2="30.9203" gradientUnits="userSpaceOnUse">
<stop stop-color="#125247"/>
<stop offset="1" stop-color="#013129"/>
</linearGradient>
</defs>
</svg>
