<svg id="Layer_1" data-name="Layer 1" xmlns="http://www.w3.org/2000/svg" viewBox="0 0 140 140"><defs><style>.cls-1,.cls-4,.cls-5{fill:#fff;}.cls-1,.cls-2,.cls-3,.cls-4,.cls-6{stroke:#000;}.cls-1,.cls-2,.cls-3,.cls-4,.cls-5,.cls-6,.cls-7{stroke-miterlimit:10;}.cls-1,.cls-3,.cls-4,.cls-5,.cls-6,.cls-7{stroke-width:2px;}.cls-2,.cls-3,.cls-6,.cls-7{fill:none;}.cls-3,.cls-4{stroke-linecap:round;}.cls-5,.cls-7{stroke:#f2c811;}</style></defs><title>PowerBI_documentation-illustrations (002)</title><rect class="cls-1" x="11" y="23" width="80" height="60"/><path class="cls-2" d="M20.54,44.74c6.22,0,6.22,17.78,12.44,17.78S39.2,44.74,45.41,44.74s6.23,17.78,12.45,17.78,6.23-17.78,12.46-17.78,6.23,17.78,12.45,17.78"/><path class="cls-3" d="M20.54,44.74c6.22,0,6.22,17.78,12.44,17.78S39.2,44.74,45.41,44.74s6.23,17.78,12.45,17.78,6.23-17.78,12.46-17.78,6.23,17.78,12.45,17.78"/><rect class="cls-1" x="23" y="73" width="62" height="46"/><rect class="cls-4" x="37" y="95" width="14" height="16"/><rect class="cls-5" x="57" y="83" width="14" height="28"/><line class="cls-1" x1="30" y1="111" x2="77.92" y2="111"/><polygon class="cls-1" points="129 97.1 75 97 75 57 129 57.06 129 97.1"/><path class="cls-6" d="M103.09,62.1a15,15,0,0,0,0,30"/><path class="cls-6" d="M103.09,92.06a15,15,0,0,0,15-15"/><path class="cls-7" d="M103.09,62.1a15,15,0,0,1,15,15h-15Z"/></svg>