<svg id="Layer_1" data-name="Layer 1" xmlns="http://www.w3.org/2000/svg" viewBox="0 0 140 140"><defs><style>.cls-1,.cls-2,.cls-3,.cls-4{fill:#fff;}.cls-2,.cls-4{stroke:#000;}.cls-2,.cls-3,.cls-4,.cls-5{stroke-miterlimit:10;stroke-width:2px;}.cls-3,.cls-5{stroke:#f2c811;}.cls-4{stroke-linecap:round;}.cls-5{fill:none;}</style></defs><title>PowerBI_documentation-illustrations (002)</title><path class="cls-1" d="M85.73,93.65l20.5-20.51A15,15,0,0,1,117,68.76V35H19V98H82.72A14.65,14.65,0,0,1,85.73,93.65Z"/><path d="M83.81,96H20V36h96V68.79a16.68,16.68,0,0,1,2,0V34H18V98H82.72A14.37,14.37,0,0,1,83.81,96Z"/><path class="cls-1" d="M83.27,96.91H10.79c-.57,0-.87.57-.48.93l3.62,3.35A7.23,7.23,0,0,0,18.8,103H81.4A15,15,0,0,1,83.27,96.91Z"/><path d="M81.53,102H18.8a6.17,6.17,0,0,1-4.19-1.55l-2.75-2.54h70.9A13.55,13.55,0,0,1,83.87,96H10.79a1.56,1.56,0,0,0-1.55.93,1.48,1.48,0,0,0,.39,1.64l3.62,3.35A8.23,8.23,0,0,0,18.8,104H81.35A16.7,16.7,0,0,1,81.53,102Z"/><polygon class="cls-2" points="63 71 25 71 25 43 63.12 43 63 71"/><circle class="cls-2" cx="46.98" cy="57" r="10"/><circle class="cls-2" cx="32.03" cy="50.46" r="2.51"/><circle class="cls-3" cx="36.2" cy="63.15" r="4.18"/><path class="cls-2" d="M111,69.94V43H73V71h36A15.2,15.2,0,0,1,111,69.94Z"/><rect class="cls-4" x="81" y="57" width="8" height="8"/><rect class="cls-3" x="95" y="49" width="8" height="16"/><line class="cls-2" x1="76" y1="65" x2="107" y2="65"/><polygon points="91.38 88 26 88 26 78 101.38 78 103.38 76 24 76 24 90 89.38 90 91.38 88"/><line class="cls-2" x1="32" y1="81" x2="96" y2="81"/><line class="cls-5" x1="32" y1="85" x2="78" y2="85"/><path class="cls-1" d="M96,118.59a14,14,0,0,1-9.9-23.88l6.37-6.37.5-.48a18,18,0,0,0,.84,7.63L90.33,99a8,8,0,0,0,11.31,11.31L108,103.9a8,8,0,0,0,0-11.31,4,4,0,0,1,0-5.66l1-1a14,14,0,0,1,3.26,22.2l-6.37,6.37A13.91,13.91,0,0,1,96,118.59Z"/><path d="M109.16,87.19a12.7,12.7,0,0,1,2.38,1.86,13,13,0,0,1,0,18.39l-6.37,6.36A13,13,0,0,1,86.79,95.41l5.07-5.07a18.77,18.77,0,0,0,.79,4.87l-3,3A9,9,0,0,0,102.35,111l6.36-6.36a9,9,0,0,0,0-12.73,3,3,0,0,1,0-4.24l.45-.45m-.37-2.47-1.49,1.5a5,5,0,0,0,0,7.07,7,7,0,0,1,0,9.9l-6.37,6.37a7,7,0,0,1-9.9-9.9l3.91-3.91a17.1,17.1,0,0,1-.56-10.2,14.44,14.44,0,0,0-2.64,2.09L85.38,94a15,15,0,0,0,21.21,21.21l6.36-6.36a15,15,0,0,0-4.16-24.13Z"/><path class="cls-1" d="M104.19,102.06a14,14,0,0,1-3.26-22.2l6.37-6.37a14,14,0,0,1,19.79,19.8l-6.36,6.37-.51.48a17.83,17.83,0,0,0-.83-7.63l3.46-3.46a8,8,0,0,0-11.31-11.31l-6.37,6.36a8,8,0,0,0,0,11.31l.25.23a1.07,1.07,0,0,0,.13.21,4,4,0,0,1-.38,5.22Z"/><path d="M117.2,70.41a13,13,0,0,1,9.19,22.18l-5.07,5.07a19.21,19.21,0,0,0-.79-4.87l3-3A9,9,0,0,0,110.83,77l-6.36,6.36a9,9,0,0,0,0,12.73,1.29,1.29,0,0,0,.17.16l.11.17a3,3,0,0,1-.28,3.91l-.45.45A12.38,12.38,0,0,1,101.64,99a13,13,0,0,1,0-18.39L108,74.2a12.94,12.94,0,0,1,9.2-3.79m0-2a15,15,0,0,0-10.61,4.38l-6.37,6.36a15,15,0,0,0,4.16,24.13l1.5-1.5a5,5,0,0,0,.47-6.53,1.41,1.41,0,0,1-.13-.24l-.34-.3a7,7,0,0,1,0-9.9l6.37-6.37a7,7,0,0,1,9.89,9.9l-3.9,3.91a17,17,0,0,1,.55,10.2,14.5,14.5,0,0,0,2.65-2.09L127.8,94a15,15,0,0,0-10.6-25.59Z"/></svg>