<svg id="Layer_1" data-name="Layer 1" xmlns="http://www.w3.org/2000/svg" viewBox="0 0 140 140"><defs><style>.cls-1{fill:#fff;}.cls-1,.cls-2,.cls-3{stroke:#000;}.cls-1,.cls-3{stroke-linecap:round;}.cls-1,.cls-2,.cls-3,.cls-4{stroke-miterlimit:10;stroke-width:2px;}.cls-2,.cls-3,.cls-4{fill:none;}.cls-4{stroke:#f4ca00;}</style></defs><title>PowerBI_documentation-illustrations (002)</title><rect class="cls-1" x="21" y="39" width="96" height="62"/><rect class="cls-1" x="25" y="43" width="88" height="48"/><rect class="cls-2" x="29" y="49" width="52" height="36"/><rect class="cls-2" x="85" y="49" width="24" height="14"/><rect class="cls-2" x="85" y="67" width="24" height="18"/><path class="cls-3" d="M88.84,82S89.47,69.94,106,71.85"/><path d="M102.69,56.82c-.54,1.15-1,2-1.47,2s-1.13-1.9-1.44-2.82c-.66-1.95-1.42-4.17-3.33-4.17s-2.65,1.93-3.3,3.48c-.41,1-.93,2.24-1.46,2.24s-.9-.44-1.53-1.44A4.87,4.87,0,0,0,88,53.91v2.53c.14.2.29.42.47.7.62,1,1.48,2.38,3.22,2.38s2.66-1.93,3.31-3.47c.41-1,.93-2.25,1.45-2.25s1.13,1.91,1.44,2.82c.66,2,1.42,4.17,3.33,4.17s2.63-1.73,3.28-3.12c.54-1.15,1-2,1.48-2v-2C104.15,53.71,103.34,55.44,102.69,56.82Z"/><polyline class="cls-2" points="34.59 65.87 39.87 72.04 46.2 63.81 52.19 69.4 61.69 57.35 68.02 62.05 73.65 57.05"/><path class="cls-4" d="M36.35,75c.71.59,3.87,3.53,3.87,3.53l7.39-6.76,7,6.76,7-11.46,6,3.52L74,63.81"/><polygon class="cls-1" points="80.67 109.45 79.08 122 91.28 120.06 130.17 81.17 119.56 70.56 80.67 109.45"/><line class="cls-1" x1="90.98" y1="119.76" x2="81.08" y2="109.86"/><rect class="cls-1" x="117.72" y="72.01" width="15" height="7" transform="translate(160.37 217.45) rotate(-135)"/></svg>