<svg id="Layer_1" data-name="Layer 1" xmlns="http://www.w3.org/2000/svg" viewBox="0 0 140 140"><defs><style>.cls-1{fill:#fff;stroke:#000;}.cls-1,.cls-2{stroke-miterlimit:10;stroke-width:2px;}.cls-2{fill:none;stroke:#f2c811;}</style></defs><title>PowerBI_documentation-illustrations (002)</title><path d="M59,93.75c-.55,0-1-.15-1-.34V85.65c0-.19.45-.34,1-.34s1,.15,1,.34v7.76C60,93.6,59.55,93.75,59,93.75Z"/><path d="M72.46,94H45.54a1,1,0,1,1,0-2H72.46a1,1,0,1,1,0,2Z"/><rect class="cls-1" x="15" y="25" width="88" height="60"/><rect class="cls-1" x="85" y="49" width="42" height="66"/><rect class="cls-1" x="89" y="53" width="34" height="52"/><line class="cls-1" x1="100" y1="110" x2="111" y2="110"/><line class="cls-2" x1="106" y1="65" x2="84" y2="65"/><line class="cls-2" x1="78" y1="65" x2="66" y2="65"/><line class="cls-2" x1="44" y1="65" x2="32" y2="65"/><line class="cls-2" x1="60" y1="65" x2="50" y2="65"/><line class="cls-2" x1="106" y1="75" x2="70.01" y2="75"/><line class="cls-2" x1="64" y1="75" x2="56" y2="75"/><line class="cls-2" x1="48" y1="75" x2="32.06" y2="75"/></svg>