<svg id="Layer_1" data-name="Layer 1" xmlns="http://www.w3.org/2000/svg" xmlns:xlink="http://www.w3.org/1999/xlink" viewBox="0 0 140 140"><defs><style>.cls-1{fill:none;}.cls-2,.cls-4,.cls-5{fill:#fff;stroke-width:2px;}.cls-2,.cls-4{stroke:#000;}.cls-2{stroke-miterlimit:10;}.cls-3{clip-path:url(#clip-path);}.cls-4,.cls-5{stroke-linecap:round;stroke-linejoin:round;}.cls-5{stroke:#f2c811;}</style><clipPath id="clip-path"><path class="cls-1" d="M102,112H40V36h62Z"/></clipPath></defs><title>PowerBI_documentation-illustrations (002)</title><path class="cls-2" d="M78.29,25h27.34A3.37,3.37,0,0,1,109,28.38v87.24a3.37,3.37,0,0,1-3.37,3.38H36.37A3.37,3.37,0,0,1,33,115.62V28.38A3.37,3.37,0,0,1,36.37,25H78.29Z"/><polyline class="cls-2" points="95 33 103 33 103 113 39 113 39 33 47 33"/><path class="cls-2" d="M91.73,29H79c0-.12,0-.19,0-.32a7.92,7.92,0,0,0-15.84,0c0,.13,0,.2,0,.32H50.51A3.52,3.52,0,0,0,47,32.41V37H95V32.41A3.32,3.32,0,0,0,91.73,29ZM71.12,31.32a2.64,2.64,0,1,1,2.67-2.64A2.66,2.66,0,0,1,71.12,31.32Z"/><g class="cls-3"><path class="cls-4" d="M83.71,61.55c0-.12,0-.23,0-.35l-5.15-1.12.84-7.31,5.4.36A16.82,16.82,0,0,1,87.12,49l-3-4.65,5.73-4.61L93.57,44a16.75,16.75,0,0,1,4.61-1.29l.24,0,1.15-5,7.3.92-.39,5.16a16.79,16.79,0,0,1,4.26,2.43l4.6-2.9L119.85,49l-4.1,3.51A16.79,16.79,0,0,1,117,57.09l5.46,1.73L121,66l-4.86-.78a17,17,0,0,1-2.64,4.63l2.57,4.26-5.89,4.41-3.11-3.76A17.07,17.07,0,0,1,102.58,76l-.54.06L100.81,81l-7.28-1.06.48-5a16.94,16.94,0,0,1-4.29-2.56l-4.59,2.9-4.52-5.8,4.24-3.66A16.58,16.58,0,0,1,83.71,61.55Z"/><circle class="cls-5" cx="100.49" cy="59.26" r="7.15"/><path class="cls-4" d="M21.93,77.88c0-.16,0-.32,0-.49L15,74.9l2.51-10,7.42,1.48a23.35,23.35,0,0,1,4-5.28l-3.36-7,8.79-5.34,4.44,6.54a23.34,23.34,0,0,1,6.62-1h.35l2.52-6.79,10,2.62L56.8,57.26a23.63,23.63,0,0,1,5.46,4.16l6.91-3.17,5.19,8.89L68,71.26A23.57,23.57,0,0,1,69,77.81l7.26,3.39-3.42,9.71-6.6-2a23.8,23.8,0,0,1-4.51,5.93l2.79,6.38-9,5-3.63-5.79a23.63,23.63,0,0,1-6.44.9l-.76,0L42.1,108l-9.91-2.81,1.59-6.89A23.48,23.48,0,0,1,28.3,94l-6.91,3.19-5.2-8.88L22.73,84A23.56,23.56,0,0,1,21.93,77.88Z"/><circle class="cls-5" cx="45.63" cy="77.78" r="10"/></g></svg>