<svg id="Layer_1" data-name="Layer 1" xmlns="http://www.w3.org/2000/svg" viewBox="0 0 140 140"><defs><style>.cls-1{fill:#fff;}.cls-1,.cls-4{stroke:#000;}.cls-1,.cls-3,.cls-4{stroke-miterlimit:10;stroke-width:2px;}.cls-2{fill:#f4ca00;}.cls-3,.cls-4{fill:none;}.cls-3{stroke:#f4ca00;}</style></defs><title>PowerBI_documentation-illustrations (002)</title><path d="M70,113.67c-.55,0-1-.2-1-.44V103.11c0-.25.45-.45,1-.45s1,.2,1,.45v10.12C71,113.47,70.55,113.67,70,113.67Z"/><path d="M87,114H55a1,1,0,0,1,0-2H87a1,1,0,0,1,0,2Z"/><rect class="cls-1" x="11" y="25" width="118" height="78"/><rect class="cls-1" x="15" y="29" width="34" height="32"/><rect x="18" y="52" width="2" height="6"/><rect class="cls-2" x="24" y="45" width="2" height="13"/><rect x="30" y="39" width="2" height="19"/><rect class="cls-2" x="36" y="48" width="2" height="10"/><rect x="42" y="32" width="2" height="26"/><rect class="cls-1" x="53" y="29" width="34" height="32"/><path class="cls-2" d="M80,39.87V54H59.61l1.88-7,2.85,1.89,1.88,1.26,1-2,2.84-5.69,3.74,3,1.74,1.39L76.76,45,80,39.87M82,33,75.07,43.9,69.4,39.36l-4,7.91-5.16-3.44L57,56H82V33Z"/><rect class="cls-1" x="15" y="65" width="34" height="34"/><path class="cls-3" d="M38.09,74.91a2.7,2.7,0,1,1,2.7-2.7A2.7,2.7,0,0,1,38.09,74.91Z"/><path class="cls-4" d="M42.3,89A2.7,2.7,0,1,1,45,86.3,2.7,2.7,0,0,1,42.3,89Z"/><path class="cls-3" d="M29.94,94a4.95,4.95,0,1,1,4.95-4.94A5,5,0,0,1,29.94,94Z"/><path class="cls-4" d="M25.19,87a7.19,7.19,0,1,1,7.19-7.19A7.2,7.2,0,0,1,25.19,87Z"/><rect class="cls-1" x="53" y="85" width="34" height="14"/><path class="cls-3" d="M61.6,95.75a11.7,11.7,0,0,1,17.3-5.14"/><rect class="cls-1" x="53" y="65" width="34" height="16"/><path class="cls-4" d="M56.51,72.77c.24-.06,2.34-.6,3.5.37a7.71,7.71,0,0,1,1.6,2.21c.34.59.78,1.4,1,1.35.92-.17,1.72-2,2.43-3.7.92-2.17,1.79-4.23,3.35-4.17s2.2,2.07,3,4.21c.59,1.68,1.26,3.58,2.12,3.65.65,0,1.47-1.4,2.11-2.57.88-1.58,1.72-3.09,2.93-3.05S81,74,81.49,75H84"/><rect class="cls-1" x="91" y="65" width="34" height="34"/><rect x="94" y="88" width="2" height="4"/><rect x="98" y="88" width="2" height="6"/><rect x="108" y="88" width="2" height="4"/><rect x="112" y="88" width="2" height="8"/><rect class="cls-2" x="100" y="83" width="2" height="5"/><rect class="cls-2" x="104" y="79" width="2" height="9"/><rect class="cls-2" x="114" y="74" width="2" height="14"/><rect class="cls-2" x="118" y="70" width="2" height="18"/><rect class="cls-1" x="91" y="29" width="34" height="32"/><polygon class="cls-2" points="117.25 43.98 116.92 42.01 106 43.81 106 45.12 113.93 52 115.24 50.49 109.26 45.3 117.25 43.98"/><path class="cls-4" d="M107,55a10,10,0,1,1,10-10A10,10,0,0,1,107,55Z"/><rect x="106" y="35.32" width="2" height="19.68"/></svg>