<svg id="Layer_1" data-name="Layer 1" xmlns="http://www.w3.org/2000/svg" viewBox="0 0 140 140"><defs><style>.cls-1,.cls-2,.cls-4{fill:#fff;}.cls-1,.cls-4{stroke:#000;stroke-miterlimit:10;stroke-width:2px;}.cls-1{stroke-linecap:round;}.cls-3{fill:#f2c811;}.cls-5{font-size:22px;font-family:SegoeUI-Semibold, Segoe UI;font-weight:700;}</style></defs><title>PowerBI_documentation-illustrations (002)</title><rect class="cls-1" x="21" y="35" width="98" height="63"/><path class="cls-1" d="M119.33,103H20.8a7.23,7.23,0,0,1-4.87-1.81l-3.62-3.35c-.39-.36-.09-.93.48-.93H127.34c.57,0,.87.57.49.93l-3.63,3.35A7.19,7.19,0,0,1,119.33,103Z"/><path class="cls-2" d="M30.67,87C28.61,87,27,85.72,27,84.09V77.91C27,76.28,28.61,75,30.67,75h78.66c2.06,0,3.67,1.28,3.67,2.91v6.18c0,1.63-1.61,2.91-3.67,2.91Z"/><path class="cls-3" d="M109.33,76c1.47,0,2.67.86,2.67,1.91v6.18c0,1-1.2,1.91-2.67,1.91H30.67C29.2,86,28,85.14,28,84.09V77.91c0-1,1.2-1.91,2.67-1.91h78.66m0-2H30.67C28.05,74,26,75.72,26,77.91v6.18C26,86.28,28.05,88,30.67,88h78.66C112,88,114,86.28,114,84.09V77.91c0-2.19-2-3.91-4.67-3.91Z"/><path class="cls-4" d="M50.5,69.46,37.27,56.23a7.75,7.75,0,0,1,11-11l2.27,2.27,2.27-2.27a7.75,7.75,0,0,1,11,11Z"/><circle class="cls-4" cx="91" cy="57" r="14"/><text class="cls-5" transform="translate(85 65)">$</text><polygon class="cls-4" points="97.73 93.34 65 81 77.61 114 83.22 101.67 93.13 111.15 95.89 108.26 85.79 98.59 97.73 93.34"/></svg>