<svg width="808" height="482" viewBox="0 0 808 482" fill="none" xmlns="http://www.w3.org/2000/svg">
<g clip-path="url(#clip0_54_3080)">
<rect width="808" height="482" fill="white"/>
<rect width="808" height="482" fill="url(#paint0_radial_54_3080)" fill-opacity="0.075"/>
<g filter="url(#filter0_d_54_3080)">
<rect x="50" y="50" width="708" height="61" rx="16" fill="white" shape-rendering="crispEdges"/>
<path d="M204.875 66.5C203.425 66.5 202.25 67.6753 202.25 69.125V77.875C202.25 79.3247 203.425 80.5 204.875 80.5H208.375V87.5C208.375 87.9832 207.983 88.375 207.5 88.375H200.5V83.125C200.5 81.6753 199.325 80.5 197.875 80.5H189.125C187.675 80.5 186.5 81.6753 186.5 83.125V91.875C186.5 93.3247 187.675 94.5 189.125 94.5H197.875C199.325 94.5 200.5 93.3247 200.5 91.875V90.125H207.5C208.95 90.125 210.125 88.9497 210.125 87.5V80.5H213.625C215.075 80.5 216.25 79.3247 216.25 77.875V69.125C216.25 67.6753 215.075 66.5 213.625 66.5H204.875ZM214.5 77.875C214.5 78.3582 214.108 78.75 213.625 78.75H204.875C204.392 78.75 204 78.3582 204 77.875V71.75H214.5V77.875ZM204 69.125C204 68.6418 204.392 68.25 204.875 68.25H213.625C214.108 68.25 214.5 68.6418 214.5 69.125V70H204V69.125ZM198.75 91.875C198.75 92.3582 198.358 92.75 197.875 92.75H189.125C188.642 92.75 188.25 92.3582 188.25 91.875V85.75H198.75V91.875ZM188.25 83.125C188.25 82.6418 188.642 82.25 189.125 82.25H197.875C198.358 82.25 198.75 82.6418 198.75 83.125V84H188.25V83.125Z" fill="url(#paint1_linear_54_3080)"/>
<path d="M232.301 89.832V86.9609C232.559 87.1953 232.863 87.4062 233.215 87.5938C233.574 87.7812 233.953 87.9414 234.352 88.0742C234.75 88.1992 235.148 88.2969 235.547 88.3672C235.945 88.4375 236.312 88.4727 236.648 88.4727C237.82 88.4727 238.691 88.2773 239.262 87.8867C239.84 87.4961 240.129 86.9297 240.129 86.1875C240.129 85.7891 240.031 85.4453 239.836 85.1562C239.648 84.8594 239.383 84.5898 239.039 84.3477C238.695 84.1055 238.289 83.875 237.82 83.6562C237.359 83.4297 236.863 83.1953 236.332 82.9531C235.762 82.6484 235.23 82.3398 234.738 82.0273C234.246 81.7148 233.816 81.3711 233.449 80.9961C233.09 80.6133 232.805 80.1836 232.594 79.707C232.391 79.2305 232.289 78.6719 232.289 78.0312C232.289 77.2422 232.465 76.5586 232.816 75.9805C233.176 75.3945 233.645 74.9141 234.223 74.5391C234.809 74.1562 235.473 73.875 236.215 73.6953C236.957 73.5078 237.715 73.4141 238.488 73.4141C240.246 73.4141 241.527 73.6133 242.332 74.0117V76.7656C241.379 76.0781 240.152 75.7344 238.652 75.7344C238.238 75.7344 237.824 75.7734 237.41 75.8516C237.004 75.9297 236.637 76.0586 236.309 76.2383C235.988 76.418 235.727 76.6484 235.523 76.9297C235.32 77.2109 235.219 77.5508 235.219 77.9492C235.219 78.3242 235.297 78.6484 235.453 78.9219C235.609 79.1953 235.836 79.4453 236.133 79.6719C236.438 79.8984 236.805 80.1211 237.234 80.3398C237.672 80.5508 238.176 80.7812 238.746 81.0312C239.332 81.3359 239.883 81.6562 240.398 81.9922C240.922 82.3281 241.379 82.6992 241.77 83.1055C242.168 83.5117 242.48 83.9648 242.707 84.4648C242.941 84.957 243.059 85.5195 243.059 86.1523C243.059 87.0039 242.887 87.7227 242.543 88.3086C242.199 88.8945 241.734 89.3711 241.148 89.7383C240.57 90.1055 239.902 90.3711 239.145 90.5352C238.387 90.6992 237.586 90.7812 236.742 90.7812C236.461 90.7812 236.113 90.7578 235.699 90.7109C235.293 90.6719 234.875 90.6094 234.445 90.5234C234.016 90.4453 233.609 90.3477 233.227 90.2305C232.844 90.1133 232.535 89.9805 232.301 89.832ZM254.438 89.9492C253.477 90.5039 252.34 90.7812 251.027 90.7812C249.246 90.7812 247.809 90.2266 246.715 89.1172C245.621 88 245.074 86.5547 245.074 84.7812C245.074 82.8047 245.66 81.2188 246.832 80.0234C248.012 78.8203 249.586 78.2188 251.555 78.2188C252.648 78.2188 253.613 78.4102 254.449 78.793V81.3242C253.613 80.6992 252.723 80.3867 251.777 80.3867C250.629 80.3867 249.688 80.7773 248.953 81.5586C248.219 82.332 247.852 83.3477 247.852 84.6055C247.852 85.8477 248.195 86.8281 248.883 87.5469C249.578 88.2656 250.508 88.625 251.672 88.625C252.648 88.625 253.57 88.2773 254.438 87.582V89.9492ZM267.305 85.2383H259.125C259.156 86.3477 259.496 87.2031 260.145 87.8047C260.801 88.4062 261.699 88.707 262.84 88.707C264.121 88.707 265.297 88.3242 266.367 87.5586V89.75C265.273 90.4375 263.828 90.7812 262.031 90.7812C260.266 90.7812 258.879 90.2383 257.871 89.1523C256.871 88.0586 256.371 86.5234 256.371 84.5469C256.371 82.6797 256.922 81.1602 258.023 79.9883C259.133 78.8086 260.508 78.2188 262.148 78.2188C263.789 78.2188 265.059 78.7461 265.957 79.8008C266.855 80.8555 267.305 82.3203 267.305 84.1953V85.2383ZM264.68 83.3164C264.672 82.3398 264.441 81.582 263.988 81.043C263.535 80.4961 262.91 80.2227 262.113 80.2227C261.332 80.2227 260.668 80.5078 260.121 81.0781C259.582 81.6484 259.25 82.3945 259.125 83.3164H264.68ZM280.582 90.5H277.863V83.7383C277.863 81.4961 277.07 80.375 275.484 80.375C274.656 80.375 273.973 80.6875 273.434 81.3125C272.895 81.9297 272.625 82.7109 272.625 83.6562V90.5H269.895V78.5H272.625V80.4922H272.672C273.57 78.9766 274.867 78.2188 276.562 78.2188C277.867 78.2188 278.863 78.6445 279.551 79.4961C280.238 80.3398 280.582 81.5625 280.582 83.1641V90.5ZM293.121 90.5H290.484V88.625H290.438C289.609 90.0625 288.395 90.7812 286.793 90.7812C285.613 90.7812 284.688 90.4609 284.016 89.8203C283.352 89.1797 283.02 88.332 283.02 87.2773C283.02 85.0117 284.324 83.6914 286.934 83.3164L290.496 82.8125C290.496 81.1016 289.684 80.2461 288.059 80.2461C286.629 80.2461 285.34 80.7383 284.191 81.7227V79.3438C285.457 78.5938 286.918 78.2188 288.574 78.2188C291.605 78.2188 293.121 79.7109 293.121 82.6953V90.5ZM290.496 84.6055L287.977 84.957C287.195 85.0586 286.605 85.25 286.207 85.5312C285.816 85.8047 285.621 86.2891 285.621 86.9844C285.621 87.4922 285.801 87.9102 286.16 88.2383C286.527 88.5586 287.016 88.7188 287.625 88.7188C288.453 88.7188 289.137 88.4297 289.676 87.8516C290.223 87.2656 290.496 86.5312 290.496 85.6484V84.6055ZM303.41 81.0898C303.082 80.832 302.609 80.7031 301.992 80.7031C301.188 80.7031 300.516 81.0664 299.977 81.793C299.438 82.5195 299.168 83.5078 299.168 84.7578V90.5H296.449V78.5H299.168V80.9727H299.215C299.48 80.1289 299.887 79.4727 300.434 79.0039C300.988 78.5273 301.605 78.2891 302.285 78.2891C302.777 78.2891 303.152 78.3633 303.41 78.5117V81.0898ZM306.703 75.9805C306.258 75.9805 305.875 75.8359 305.555 75.5469C305.242 75.2578 305.086 74.8906 305.086 74.4453C305.086 74 305.242 73.6289 305.555 73.332C305.875 73.0352 306.258 72.8867 306.703 72.8867C307.164 72.8867 307.555 73.0352 307.875 73.332C308.195 73.6289 308.355 74 308.355 74.4453C308.355 74.8672 308.195 75.2305 307.875 75.5352C307.555 75.832 307.164 75.9805 306.703 75.9805ZM308.051 90.5H305.332V78.5H308.051V90.5ZM316.934 90.7812C315.082 90.7812 313.602 90.2227 312.492 89.1055C311.391 87.9805 310.84 86.4922 310.84 84.6406C310.84 82.625 311.414 81.0508 312.562 79.918C313.719 78.7852 315.273 78.2188 317.227 78.2188C319.102 78.2188 320.562 78.7695 321.609 79.8711C322.656 80.9727 323.18 82.5 323.18 84.4531C323.18 86.3672 322.613 87.9023 321.48 89.0586C320.355 90.207 318.84 90.7812 316.934 90.7812ZM317.062 80.3867C316 80.3867 315.16 80.7578 314.543 81.5C313.926 82.2422 313.617 83.2656 313.617 84.5703C313.617 85.8281 313.93 86.8203 314.555 87.5469C315.18 88.2656 316.016 88.625 317.062 88.625C318.133 88.625 318.953 88.2695 319.523 87.5586C320.102 86.8477 320.391 85.8359 320.391 84.5234C320.391 83.2031 320.102 82.1836 319.523 81.4648C318.953 80.7461 318.133 80.3867 317.062 80.3867ZM350.508 90.5H347.789V83.9609C347.789 82.7031 347.609 81.793 347.25 81.2305C346.898 80.668 346.301 80.3867 345.457 80.3867C344.746 80.3867 344.141 80.7422 343.641 81.4531C343.148 82.1641 342.902 83.0156 342.902 84.0078V90.5H340.172V83.7383C340.172 81.5039 339.383 80.3867 337.805 80.3867C337.07 80.3867 336.465 80.7227 335.988 81.3945C335.52 82.0664 335.285 82.9375 335.285 84.0078V90.5H332.566V78.5H335.285V80.3984H335.332C336.199 78.9453 337.461 78.2188 339.117 78.2188C339.945 78.2188 340.668 78.4492 341.285 78.9102C341.91 79.3633 342.336 79.9609 342.562 80.7031C343.453 79.0469 344.781 78.2188 346.547 78.2188C349.188 78.2188 350.508 79.8477 350.508 83.1055V90.5ZM359.145 90.7812C357.293 90.7812 355.812 90.2227 354.703 89.1055C353.602 87.9805 353.051 86.4922 353.051 84.6406C353.051 82.625 353.625 81.0508 354.773 79.918C355.93 78.7852 357.484 78.2188 359.438 78.2188C361.312 78.2188 362.773 78.7695 363.82 79.8711C364.867 80.9727 365.391 82.5 365.391 84.4531C365.391 86.3672 364.824 87.9023 363.691 89.0586C362.566 90.207 361.051 90.7812 359.145 90.7812ZM359.273 80.3867C358.211 80.3867 357.371 80.7578 356.754 81.5C356.137 82.2422 355.828 83.2656 355.828 84.5703C355.828 85.8281 356.141 86.8203 356.766 87.5469C357.391 88.2656 358.227 88.625 359.273 88.625C360.344 88.625 361.164 88.2695 361.734 87.5586C362.312 86.8477 362.602 85.8359 362.602 84.5234C362.602 83.2031 362.312 82.1836 361.734 81.4648C361.164 80.7461 360.344 80.3867 359.273 80.3867ZM379.078 90.5H376.359V88.4609H376.312C375.438 90.0078 374.09 90.7812 372.27 90.7812C370.793 90.7812 369.609 90.2461 368.719 89.1758C367.836 88.0977 367.395 86.6328 367.395 84.7812C367.395 82.7969 367.883 81.207 368.859 80.0117C369.844 78.8164 371.152 78.2188 372.785 78.2188C374.402 78.2188 375.578 78.8672 376.312 80.1641H376.359V72.7344H379.078V90.5ZM376.395 85.0156V83.4453C376.395 82.5938 376.117 81.8711 375.562 81.2773C375.008 80.6836 374.301 80.3867 373.441 80.3867C372.426 80.3867 371.625 80.7656 371.039 81.5234C370.461 82.2812 370.172 83.332 370.172 84.6758C370.172 85.8945 370.449 86.8594 371.004 87.5703C371.566 88.2734 372.32 88.625 373.266 88.625C374.195 88.625 374.949 88.2852 375.527 87.6055C376.105 86.918 376.395 86.0547 376.395 85.0156ZM392.789 85.2383H384.609C384.641 86.3477 384.98 87.2031 385.629 87.8047C386.285 88.4062 387.184 88.707 388.324 88.707C389.605 88.707 390.781 88.3242 391.852 87.5586V89.75C390.758 90.4375 389.312 90.7812 387.516 90.7812C385.75 90.7812 384.363 90.2383 383.355 89.1523C382.355 88.0586 381.855 86.5234 381.855 84.5469C381.855 82.6797 382.406 81.1602 383.508 79.9883C384.617 78.8086 385.992 78.2188 387.633 78.2188C389.273 78.2188 390.543 78.7461 391.441 79.8008C392.34 80.8555 392.789 82.3203 392.789 84.1953V85.2383ZM390.164 83.3164C390.156 82.3398 389.926 81.582 389.473 81.043C389.02 80.4961 388.395 80.2227 387.598 80.2227C386.816 80.2227 386.152 80.5078 385.605 81.0781C385.066 81.6484 384.734 82.3945 384.609 83.3164H390.164ZM398.109 90.5H395.379V72.7344H398.109V90.5ZM419.18 90.5H416.461V88.4609H416.414C415.539 90.0078 414.191 90.7812 412.371 90.7812C410.895 90.7812 409.711 90.2461 408.82 89.1758C407.938 88.0977 407.496 86.6328 407.496 84.7812C407.496 82.7969 407.984 81.207 408.961 80.0117C409.945 78.8164 411.254 78.2188 412.887 78.2188C414.504 78.2188 415.68 78.8672 416.414 80.1641H416.461V72.7344H419.18V90.5ZM416.496 85.0156V83.4453C416.496 82.5938 416.219 81.8711 415.664 81.2773C415.109 80.6836 414.402 80.3867 413.543 80.3867C412.527 80.3867 411.727 80.7656 411.141 81.5234C410.562 82.2812 410.273 83.332 410.273 84.6758C410.273 85.8945 410.551 86.8594 411.105 87.5703C411.668 88.2734 412.422 88.625 413.367 88.625C414.297 88.625 415.051 88.2852 415.629 87.6055C416.207 86.918 416.496 86.0547 416.496 85.0156ZM424.102 75.9805C423.656 75.9805 423.273 75.8359 422.953 75.5469C422.641 75.2578 422.484 74.8906 422.484 74.4453C422.484 74 422.641 73.6289 422.953 73.332C423.273 73.0352 423.656 72.8867 424.102 72.8867C424.562 72.8867 424.953 73.0352 425.273 73.332C425.594 73.6289 425.754 74 425.754 74.4453C425.754 74.8672 425.594 75.2305 425.273 75.5352C424.953 75.832 424.562 75.9805 424.102 75.9805ZM425.449 90.5H422.73V78.5H425.449V90.5ZM438.223 90.5H435.586V88.625H435.539C434.711 90.0625 433.496 90.7812 431.895 90.7812C430.715 90.7812 429.789 90.4609 429.117 89.8203C428.453 89.1797 428.121 88.332 428.121 87.2773C428.121 85.0117 429.426 83.6914 432.035 83.3164L435.598 82.8125C435.598 81.1016 434.785 80.2461 433.16 80.2461C431.73 80.2461 430.441 80.7383 429.293 81.7227V79.3438C430.559 78.5938 432.02 78.2188 433.676 78.2188C436.707 78.2188 438.223 79.7109 438.223 82.6953V90.5ZM435.598 84.6055L433.078 84.957C432.297 85.0586 431.707 85.25 431.309 85.5312C430.918 85.8047 430.723 86.2891 430.723 86.9844C430.723 87.4922 430.902 87.9102 431.262 88.2383C431.629 88.5586 432.117 88.7188 432.727 88.7188C433.555 88.7188 434.238 88.4297 434.777 87.8516C435.324 87.2656 435.598 86.5312 435.598 85.6484V84.6055ZM452.473 89.5391C452.473 93.9453 450.258 96.1484 445.828 96.1484C444.266 96.1484 442.902 95.8867 441.738 95.3633V92.8789C443.051 93.6289 444.297 94.0039 445.477 94.0039C448.328 94.0039 449.754 92.6016 449.754 89.7969V88.4844H449.707C448.809 90.0156 447.457 90.7812 445.652 90.7812C444.191 90.7812 443.012 90.25 442.113 89.1875C441.223 88.1172 440.777 86.6836 440.777 84.8867C440.777 82.8477 441.258 81.2266 442.219 80.0234C443.18 78.8203 444.5 78.2188 446.18 78.2188C447.766 78.2188 448.941 78.8672 449.707 80.1641H449.754V78.5H452.473V89.5391ZM449.777 85.0039V83.4453C449.777 82.6016 449.496 81.8828 448.934 81.2891C448.379 80.6875 447.684 80.3867 446.848 80.3867C445.816 80.3867 445.008 80.7695 444.422 81.5352C443.844 82.293 443.555 83.3555 443.555 84.7227C443.555 85.9023 443.832 86.8477 444.387 87.5586C444.949 88.2617 445.691 88.6133 446.613 88.6133C447.551 88.6133 448.312 88.2773 448.898 87.6055C449.484 86.9258 449.777 86.0586 449.777 85.0039ZM462.973 81.0898C462.645 80.832 462.172 80.7031 461.555 80.7031C460.75 80.7031 460.078 81.0664 459.539 81.793C459 82.5195 458.73 83.5078 458.73 84.7578V90.5H456.012V78.5H458.73V80.9727H458.777C459.043 80.1289 459.449 79.4727 459.996 79.0039C460.551 78.5273 461.168 78.2891 461.848 78.2891C462.34 78.2891 462.715 78.3633 462.973 78.5117V81.0898ZM474.105 90.5H471.469V88.625H471.422C470.594 90.0625 469.379 90.7812 467.777 90.7812C466.598 90.7812 465.672 90.4609 465 89.8203C464.336 89.1797 464.004 88.332 464.004 87.2773C464.004 85.0117 465.309 83.6914 467.918 83.3164L471.48 82.8125C471.48 81.1016 470.668 80.2461 469.043 80.2461C467.613 80.2461 466.324 80.7383 465.176 81.7227V79.3438C466.441 78.5938 467.902 78.2188 469.559 78.2188C472.59 78.2188 474.105 79.7109 474.105 82.6953V90.5ZM471.48 84.6055L468.961 84.957C468.18 85.0586 467.59 85.25 467.191 85.5312C466.801 85.8047 466.605 86.2891 466.605 86.9844C466.605 87.4922 466.785 87.9102 467.145 88.2383C467.512 88.5586 468 88.7188 468.609 88.7188C469.438 88.7188 470.121 88.4297 470.66 87.8516C471.207 87.2656 471.48 86.5312 471.48 85.6484V84.6055ZM495.375 90.5H492.656V83.9609C492.656 82.7031 492.477 81.793 492.117 81.2305C491.766 80.668 491.168 80.3867 490.324 80.3867C489.613 80.3867 489.008 80.7422 488.508 81.4531C488.016 82.1641 487.77 83.0156 487.77 84.0078V90.5H485.039V83.7383C485.039 81.5039 484.25 80.3867 482.672 80.3867C481.938 80.3867 481.332 80.7227 480.855 81.3945C480.387 82.0664 480.152 82.9375 480.152 84.0078V90.5H477.434V78.5H480.152V80.3984H480.199C481.066 78.9453 482.328 78.2188 483.984 78.2188C484.812 78.2188 485.535 78.4492 486.152 78.9102C486.777 79.3633 487.203 79.9609 487.43 80.7031C488.32 79.0469 489.648 78.2188 491.414 78.2188C494.055 78.2188 495.375 79.8477 495.375 83.1055V90.5ZM511.266 94.3203H508.969C506.5 91.5547 505.266 88.1445 505.266 84.0898C505.266 80.0195 506.5 76.5547 508.969 73.6953H511.277C508.855 76.6641 507.645 80.1211 507.645 84.0664C507.645 87.9805 508.852 91.3984 511.266 94.3203ZM529.406 78.5L525.867 90.5H523.02L520.84 82.3672C520.754 82.0547 520.699 81.7031 520.676 81.3125H520.629C520.613 81.5781 520.543 81.9219 520.418 82.3438L518.051 90.5H515.262L511.734 78.5H514.547L516.727 87.1484C516.797 87.4062 516.844 87.75 516.867 88.1797H516.949C516.973 87.8516 517.035 87.5 517.137 87.125L519.562 78.5H522.117L524.273 87.1836C524.344 87.457 524.395 87.8008 524.426 88.2148H524.508C524.523 87.9258 524.582 87.582 524.684 87.1836L526.816 78.5H529.406ZM532.805 75.9805C532.359 75.9805 531.977 75.8359 531.656 75.5469C531.344 75.2578 531.188 74.8906 531.188 74.4453C531.188 74 531.344 73.6289 531.656 73.332C531.977 73.0352 532.359 72.8867 532.805 72.8867C533.266 72.8867 533.656 73.0352 533.977 73.332C534.297 73.6289 534.457 74 534.457 74.4453C534.457 74.8672 534.297 75.2305 533.977 75.5352C533.656 75.832 533.266 75.9805 532.805 75.9805ZM534.152 90.5H531.434V78.5H534.152V90.5ZM544.043 90.3711C543.512 90.6367 542.812 90.7695 541.945 90.7695C539.617 90.7695 538.453 89.6523 538.453 87.418V80.6328H536.449V78.5H538.453V75.7227L541.172 74.9492V78.5H544.043V80.6328H541.172V86.6328C541.172 87.3438 541.301 87.8516 541.559 88.1562C541.816 88.4609 542.246 88.6133 542.848 88.6133C543.309 88.6133 543.707 88.4805 544.043 88.2148V90.3711ZM557.051 90.5H554.332V83.9375C554.332 81.5625 553.539 80.375 551.953 80.375C551.156 80.375 550.484 80.7188 549.938 81.4062C549.391 82.0938 549.117 82.9727 549.117 84.043V90.5H546.387V72.7344H549.117V80.4922H549.164C550.07 78.9766 551.367 78.2188 553.055 78.2188C555.719 78.2188 557.051 79.8477 557.051 83.1055V90.5ZM573.926 81.0898C573.598 80.832 573.125 80.7031 572.508 80.7031C571.703 80.7031 571.031 81.0664 570.492 81.793C569.953 82.5195 569.684 83.5078 569.684 84.7578V90.5H566.965V78.5H569.684V80.9727H569.73C569.996 80.1289 570.402 79.4727 570.949 79.0039C571.504 78.5273 572.121 78.2891 572.801 78.2891C573.293 78.2891 573.668 78.3633 573.926 78.5117V81.0898ZM580.957 90.7812C579.105 90.7812 577.625 90.2227 576.516 89.1055C575.414 87.9805 574.863 86.4922 574.863 84.6406C574.863 82.625 575.438 81.0508 576.586 79.918C577.742 78.7852 579.297 78.2188 581.25 78.2188C583.125 78.2188 584.586 78.7695 585.633 79.8711C586.68 80.9727 587.203 82.5 587.203 84.4531C587.203 86.3672 586.637 87.9023 585.504 89.0586C584.379 90.207 582.863 90.7812 580.957 90.7812ZM581.086 80.3867C580.023 80.3867 579.184 80.7578 578.566 81.5C577.949 82.2422 577.641 83.2656 577.641 84.5703C577.641 85.8281 577.953 86.8203 578.578 87.5469C579.203 88.2656 580.039 88.625 581.086 88.625C582.156 88.625 582.977 88.2695 583.547 87.5586C584.125 86.8477 584.414 85.8359 584.414 84.5234C584.414 83.2031 584.125 82.1836 583.547 81.4648C582.977 80.7461 582.156 80.3867 581.086 80.3867ZM606.117 78.5L602.578 90.5H599.73L597.551 82.3672C597.465 82.0547 597.41 81.7031 597.387 81.3125H597.34C597.324 81.5781 597.254 81.9219 597.129 82.3438L594.762 90.5H591.973L588.445 78.5H591.258L593.438 87.1484C593.508 87.4062 593.555 87.75 593.578 88.1797H593.66C593.684 87.8516 593.746 87.5 593.848 87.125L596.273 78.5H598.828L600.984 87.1836C601.055 87.457 601.105 87.8008 601.137 88.2148H601.219C601.234 87.9258 601.293 87.582 601.395 87.1836L603.527 78.5H606.117ZM607.395 90.125V87.6055C608.41 88.3789 609.531 88.7656 610.758 88.7656C612.398 88.7656 613.219 88.2812 613.219 87.3125C613.219 87.0391 613.148 86.8086 613.008 86.6211C612.867 86.4258 612.676 86.2539 612.434 86.1055C612.199 85.957 611.918 85.8242 611.59 85.707C611.27 85.5898 610.91 85.457 610.512 85.3086C610.02 85.1133 609.574 84.9062 609.176 84.6875C608.785 84.4688 608.457 84.2227 608.191 83.9492C607.934 83.668 607.738 83.3516 607.605 83C607.473 82.6484 607.406 82.2383 607.406 81.7695C607.406 81.1914 607.543 80.6836 607.816 80.2461C608.09 79.8008 608.457 79.4297 608.918 79.1328C609.379 78.8281 609.902 78.6016 610.488 78.4531C611.074 78.2969 611.68 78.2188 612.305 78.2188C613.414 78.2188 614.406 78.3867 615.281 78.7227V81.1016C614.438 80.5234 613.469 80.2344 612.375 80.2344C612.031 80.2344 611.719 80.2695 611.438 80.3398C611.164 80.4102 610.93 80.5078 610.734 80.6328C610.539 80.7578 610.387 80.9102 610.277 81.0898C610.168 81.2617 610.113 81.4531 610.113 81.6641C610.113 81.9219 610.168 82.1406 610.277 82.3203C610.387 82.5 610.547 82.6602 610.758 82.8008C610.977 82.9336 611.234 83.0586 611.531 83.1758C611.836 83.2852 612.184 83.4062 612.574 83.5391C613.09 83.75 613.551 83.9648 613.957 84.1836C614.371 84.4023 614.723 84.6523 615.012 84.9336C615.301 85.207 615.523 85.5273 615.68 85.8945C615.836 86.2539 615.914 86.6836 615.914 87.1836C615.914 87.793 615.773 88.3242 615.492 88.7773C615.211 89.2305 614.836 89.6055 614.367 89.9023C613.898 90.1992 613.355 90.418 612.738 90.5586C612.129 90.707 611.484 90.7812 610.805 90.7812C609.492 90.7812 608.355 90.5625 607.395 90.125ZM619.277 94.3203H616.98C619.402 91.3984 620.613 87.9805 620.613 84.0664C620.613 80.1211 619.398 76.6641 616.969 73.6953H619.289C621.766 76.5547 623.004 80.0195 623.004 84.0898C623.004 88.1445 621.762 91.5547 619.277 94.3203Z" fill="#333333"/>
</g>
</g>
<rect x="0.5" y="0.5" width="807" height="481" stroke="#5A409C"/>
<defs>
<filter id="filter0_d_54_3080" x="45" y="45" width="718" height="71" filterUnits="userSpaceOnUse" color-interpolation-filters="sRGB">
<feFlood flood-opacity="0" result="BackgroundImageFix"/>
<feColorMatrix in="SourceAlpha" type="matrix" values="0 0 0 0 0 0 0 0 0 0 0 0 0 0 0 0 0 0 127 0" result="hardAlpha"/>
<feOffset/>
<feGaussianBlur stdDeviation="2.5"/>
<feComposite in2="hardAlpha" operator="out"/>
<feColorMatrix type="matrix" values="0 0 0 0 0 0 0 0 0 0 0 0 0 0 0 0 0 0 0.25 0"/>
<feBlend mode="normal" in2="BackgroundImageFix" result="effect1_dropShadow_54_3080"/>
<feBlend mode="normal" in="SourceGraphic" in2="effect1_dropShadow_54_3080" result="shape"/>
</filter>
<radialGradient id="paint0_radial_54_3080" cx="0" cy="0" r="1" gradientUnits="userSpaceOnUse" gradientTransform="translate(121.394 52.7772) rotate(25.9988) scale(862.912 536.606)">
<stop offset="0.198869" stop-color="#CFAF47"/>
<stop offset="1" stop-color="#5A409C"/>
</radialGradient>
<linearGradient id="paint1_linear_54_3080" x1="133.375" y1="66.5" x2="203.298" y2="185.369" gradientUnits="userSpaceOnUse">
<stop stop-color="#7751B8"/>
<stop offset="1" stop-color="#5A409C"/>
</linearGradient>
<clipPath id="clip0_54_3080">
<rect width="808" height="482" fill="white"/>
</clipPath>
</defs>
</svg>
