<svg width="884" height="419" viewBox="0 0 884 419" fill="none" xmlns="http://www.w3.org/2000/svg">
<rect width="884" height="419" fill="white"/>
<rect width="884" height="419" fill="url(#paint0_radial_34_13116)" fill-opacity="0.075"/>
<rect x="0.5" y="0.5" width="883" height="418" stroke="#333333" stroke-opacity="0.2"/>
<g filter="url(#filter0_f_34_13116)">
<rect x="325" y="50" width="234" height="319" rx="16" fill="#CCCCCC" fill-opacity="0.8"/>
</g>
<rect x="325" y="50" width="234" height="319" rx="16" fill="white"/>
<rect x="325" y="50" width="234" height="319" rx="16" fill="url(#paint1_linear_34_13116)" fill-opacity="0.33"/>
<rect x="335.5" y="129.5" width="213" height="45" rx="9.5" fill="#EEF2F5" stroke="url(#paint2_linear_34_13116)" stroke-dasharray="2 2"/>
<path d="M389.867 86.5547V84.6406C390.039 84.7969 390.242 84.9375 390.477 85.0625C390.716 85.1875 390.969 85.2943 391.234 85.3828C391.5 85.4661 391.766 85.5312 392.031 85.5781C392.297 85.625 392.542 85.6484 392.766 85.6484C393.547 85.6484 394.128 85.5182 394.508 85.2578C394.893 84.9974 395.086 84.6198 395.086 84.125C395.086 83.8594 395.021 83.6302 394.891 83.4375C394.766 83.2396 394.589 83.0599 394.359 82.8984C394.13 82.737 393.859 82.5833 393.547 82.4375C393.24 82.2865 392.909 82.1302 392.555 81.9688C392.174 81.7656 391.82 81.5599 391.492 81.3516C391.164 81.1432 390.878 80.9141 390.633 80.6641C390.393 80.4089 390.203 80.1224 390.062 79.8047C389.927 79.487 389.859 79.1146 389.859 78.6875C389.859 78.1615 389.977 77.7057 390.211 77.3203C390.451 76.9297 390.763 76.6094 391.148 76.3594C391.539 76.1042 391.982 75.9167 392.477 75.7969C392.971 75.6719 393.477 75.6094 393.992 75.6094C395.164 75.6094 396.018 75.7422 396.555 76.0078V77.8438C395.919 77.3854 395.102 77.1562 394.102 77.1562C393.826 77.1562 393.549 77.1823 393.273 77.2344C393.003 77.2865 392.758 77.3724 392.539 77.4922C392.326 77.612 392.151 77.7656 392.016 77.9531C391.88 78.1406 391.812 78.3672 391.812 78.6328C391.812 78.8828 391.865 79.099 391.969 79.2812C392.073 79.4635 392.224 79.6302 392.422 79.7812C392.625 79.9323 392.87 80.0807 393.156 80.2266C393.448 80.3672 393.784 80.5208 394.164 80.6875C394.555 80.8906 394.922 81.1042 395.266 81.3281C395.615 81.5521 395.919 81.7995 396.18 82.0703C396.445 82.3411 396.654 82.6432 396.805 82.9766C396.961 83.3047 397.039 83.6797 397.039 84.1016C397.039 84.6693 396.924 85.1484 396.695 85.5391C396.466 85.9297 396.156 86.2474 395.766 86.4922C395.38 86.737 394.935 86.9141 394.43 87.0234C393.924 87.1328 393.391 87.1875 392.828 87.1875C392.641 87.1875 392.409 87.1719 392.133 87.1406C391.862 87.1146 391.583 87.0729 391.297 87.0156C391.01 86.9635 390.74 86.8984 390.484 86.8203C390.229 86.7422 390.023 86.6536 389.867 86.5547ZM402.648 86.9141C402.294 87.0911 401.828 87.1797 401.25 87.1797C399.698 87.1797 398.922 86.4349 398.922 84.9453V80.4219H397.586V79H398.922V77.1484L400.734 76.6328V79H402.648V80.4219H400.734V84.4219C400.734 84.8958 400.82 85.2344 400.992 85.4375C401.164 85.6406 401.451 85.7422 401.852 85.7422C402.159 85.7422 402.424 85.6536 402.648 85.4766V86.9141ZM408.852 80.7266C408.633 80.5547 408.318 80.4688 407.906 80.4688C407.37 80.4688 406.922 80.7109 406.562 81.1953C406.203 81.6797 406.023 82.3385 406.023 83.1719V87H404.211V79H406.023V80.6484H406.055C406.232 80.0859 406.503 79.6484 406.867 79.3359C407.237 79.0182 407.648 78.8594 408.102 78.8594C408.43 78.8594 408.68 78.9089 408.852 79.0078V80.7266ZM416.273 87H414.516V85.75H414.484C413.932 86.7083 413.122 87.1875 412.055 87.1875C411.268 87.1875 410.651 86.974 410.203 86.5469C409.76 86.1198 409.539 85.5547 409.539 84.8516C409.539 83.3411 410.409 82.4609 412.148 82.2109L414.523 81.875C414.523 80.7344 413.982 80.1641 412.898 80.1641C411.945 80.1641 411.086 80.4922 410.32 81.1484V79.5625C411.164 79.0625 412.138 78.8125 413.242 78.8125C415.263 78.8125 416.273 79.8073 416.273 81.7969V87ZM414.523 83.0703L412.844 83.3047C412.323 83.3724 411.93 83.5 411.664 83.6875C411.404 83.8698 411.273 84.1927 411.273 84.6562C411.273 84.9948 411.393 85.2734 411.633 85.4922C411.878 85.7057 412.203 85.8125 412.609 85.8125C413.161 85.8125 413.617 85.6198 413.977 85.2344C414.341 84.8438 414.523 84.3542 414.523 83.7656V83.0703ZM422.711 86.9141C422.357 87.0911 421.891 87.1797 421.312 87.1797C419.76 87.1797 418.984 86.4349 418.984 84.9453V80.4219H417.648V79H418.984V77.1484L420.797 76.6328V79H422.711V80.4219H420.797V84.4219C420.797 84.8958 420.883 85.2344 421.055 85.4375C421.227 85.6406 421.513 85.7422 421.914 85.7422C422.221 85.7422 422.487 85.6536 422.711 85.4766V86.9141ZM430.953 83.4922H425.5C425.521 84.2318 425.747 84.8021 426.18 85.2031C426.617 85.6042 427.216 85.8047 427.977 85.8047C428.831 85.8047 429.615 85.5495 430.328 85.0391V86.5C429.599 86.9583 428.635 87.1875 427.438 87.1875C426.26 87.1875 425.336 86.8255 424.664 86.1016C423.997 85.3724 423.664 84.349 423.664 83.0312C423.664 81.7865 424.031 80.7734 424.766 79.9922C425.505 79.2057 426.422 78.8125 427.516 78.8125C428.609 78.8125 429.456 79.1641 430.055 79.8672C430.654 80.5703 430.953 81.5469 430.953 82.7969V83.4922ZM429.203 82.2109C429.198 81.5599 429.044 81.0547 428.742 80.6953C428.44 80.3307 428.023 80.1484 427.492 80.1484C426.971 80.1484 426.529 80.3385 426.164 80.7188C425.805 81.099 425.583 81.5964 425.5 82.2109H429.203ZM439.961 86.3594C439.961 89.2969 438.484 90.7656 435.531 90.7656C434.49 90.7656 433.581 90.5911 432.805 90.2422V88.5859C433.68 89.0859 434.51 89.3359 435.297 89.3359C437.198 89.3359 438.148 88.401 438.148 86.5312V85.6562H438.117C437.518 86.6771 436.617 87.1875 435.414 87.1875C434.44 87.1875 433.654 86.8333 433.055 86.125C432.461 85.4115 432.164 84.4557 432.164 83.2578C432.164 81.8984 432.484 80.8177 433.125 80.0156C433.766 79.2135 434.646 78.8125 435.766 78.8125C436.823 78.8125 437.607 79.2448 438.117 80.1094H438.148V79H439.961V86.3594ZM438.164 83.3359V82.2969C438.164 81.7344 437.977 81.2552 437.602 80.8594C437.232 80.4583 436.768 80.2578 436.211 80.2578C435.523 80.2578 434.984 80.513 434.594 81.0234C434.208 81.5286 434.016 82.237 434.016 83.1484C434.016 83.9349 434.201 84.5651 434.57 85.0391C434.945 85.5078 435.44 85.7422 436.055 85.7422C436.68 85.7422 437.188 85.5182 437.578 85.0703C437.969 84.6172 438.164 84.0391 438.164 83.3359ZM443.234 77.3203C442.938 77.3203 442.682 77.224 442.469 77.0312C442.26 76.8385 442.156 76.5938 442.156 76.2969C442.156 76 442.26 75.7526 442.469 75.5547C442.682 75.3568 442.938 75.2578 443.234 75.2578C443.542 75.2578 443.802 75.3568 444.016 75.5547C444.229 75.7526 444.336 76 444.336 76.2969C444.336 76.5781 444.229 76.8203 444.016 77.0234C443.802 77.2214 443.542 77.3203 443.234 77.3203ZM444.133 87H442.32V79H444.133V87ZM452.234 86.6328C451.594 87.0026 450.836 87.1875 449.961 87.1875C448.773 87.1875 447.815 86.8177 447.086 86.0781C446.357 85.3333 445.992 84.3698 445.992 83.1875C445.992 81.8698 446.383 80.8125 447.164 80.0156C447.951 79.2135 449 78.8125 450.312 78.8125C451.042 78.8125 451.685 78.9401 452.242 79.1953V80.8828C451.685 80.4661 451.091 80.2578 450.461 80.2578C449.695 80.2578 449.068 80.5182 448.578 81.0391C448.089 81.5547 447.844 82.2318 447.844 83.0703C447.844 83.8984 448.073 84.5521 448.531 85.0312C448.995 85.5104 449.615 85.75 450.391 85.75C451.042 85.75 451.656 85.5182 452.234 85.0547V86.6328ZM460.289 85.8203H460.258V90.6797H458.445V79H460.258V80.4062H460.289C460.909 79.3438 461.815 78.8125 463.008 78.8125C464.023 78.8125 464.815 79.1693 465.383 79.8828C465.951 80.5964 466.234 81.5547 466.234 82.7578C466.234 84.0911 465.914 85.1589 465.273 85.9609C464.633 86.763 463.758 87.1641 462.648 87.1641C461.628 87.1641 460.841 86.7161 460.289 85.8203ZM460.242 82.6641V83.6562C460.242 84.2396 460.427 84.7344 460.797 85.1406C461.172 85.5469 461.646 85.75 462.219 85.75C462.891 85.75 463.417 85.4896 463.797 84.9688C464.182 84.4427 464.375 83.7109 464.375 82.7734C464.375 81.987 464.195 81.3724 463.836 80.9297C463.482 80.4818 463 80.2578 462.391 80.2578C461.745 80.2578 461.224 80.487 460.828 80.9453C460.438 81.4036 460.242 81.9766 460.242 82.6641ZM469.906 87H468.086V75.1562H469.906V87ZM478.414 87H476.656V85.75H476.625C476.073 86.7083 475.263 87.1875 474.195 87.1875C473.409 87.1875 472.792 86.974 472.344 86.5469C471.901 86.1198 471.68 85.5547 471.68 84.8516C471.68 83.3411 472.549 82.4609 474.289 82.2109L476.664 81.875C476.664 80.7344 476.122 80.1641 475.039 80.1641C474.086 80.1641 473.227 80.4922 472.461 81.1484V79.5625C473.305 79.0625 474.279 78.8125 475.383 78.8125C477.404 78.8125 478.414 79.8073 478.414 81.7969V87ZM476.664 83.0703L474.984 83.3047C474.464 83.3724 474.07 83.5 473.805 83.6875C473.544 83.8698 473.414 84.1927 473.414 84.6562C473.414 84.9948 473.534 85.2734 473.773 85.4922C474.018 85.7057 474.344 85.8125 474.75 85.8125C475.302 85.8125 475.758 85.6198 476.117 85.2344C476.482 84.8438 476.664 84.3542 476.664 83.7656V83.0703ZM487.758 87H485.945V82.4922C485.945 80.9974 485.417 80.25 484.359 80.25C483.807 80.25 483.352 80.4583 482.992 80.875C482.633 81.2865 482.453 81.8073 482.453 82.4375V87H480.633V79H482.453V80.3281H482.484C483.083 79.3177 483.948 78.8125 485.078 78.8125C485.948 78.8125 486.612 79.0964 487.07 79.6641C487.529 80.2266 487.758 81.0417 487.758 82.1094V87ZM497.102 87H495.289V82.4922C495.289 80.9974 494.76 80.25 493.703 80.25C493.151 80.25 492.695 80.4583 492.336 80.875C491.977 81.2865 491.797 81.8073 491.797 82.4375V87H489.977V79H491.797V80.3281H491.828C492.427 79.3177 493.292 78.8125 494.422 78.8125C495.292 78.8125 495.956 79.0964 496.414 79.6641C496.872 80.2266 497.102 81.0417 497.102 82.1094V87ZM500.234 77.3203C499.938 77.3203 499.682 77.224 499.469 77.0312C499.26 76.8385 499.156 76.5938 499.156 76.2969C499.156 76 499.26 75.7526 499.469 75.5547C499.682 75.3568 499.938 75.2578 500.234 75.2578C500.542 75.2578 500.802 75.3568 501.016 75.5547C501.229 75.7526 501.336 76 501.336 76.2969C501.336 76.5781 501.229 76.8203 501.016 77.0234C500.802 77.2214 500.542 77.3203 500.234 77.3203ZM501.133 87H499.32V79H501.133V87ZM510.633 87H508.82V82.4922C508.82 80.9974 508.292 80.25 507.234 80.25C506.682 80.25 506.227 80.4583 505.867 80.875C505.508 81.2865 505.328 81.8073 505.328 82.4375V87H503.508V79H505.328V80.3281H505.359C505.958 79.3177 506.823 78.8125 507.953 78.8125C508.823 78.8125 509.487 79.0964 509.945 79.6641C510.404 80.2266 510.633 81.0417 510.633 82.1094V87ZM520.133 86.3594C520.133 89.2969 518.656 90.7656 515.703 90.7656C514.661 90.7656 513.753 90.5911 512.977 90.2422V88.5859C513.852 89.0859 514.682 89.3359 515.469 89.3359C517.37 89.3359 518.32 88.401 518.32 86.5312V85.6562H518.289C517.69 86.6771 516.789 87.1875 515.586 87.1875C514.612 87.1875 513.826 86.8333 513.227 86.125C512.633 85.4115 512.336 84.4557 512.336 83.2578C512.336 81.8984 512.656 80.8177 513.297 80.0156C513.938 79.2135 514.818 78.8125 515.938 78.8125C516.995 78.8125 517.779 79.2448 518.289 80.1094H518.32V79H520.133V86.3594ZM518.336 83.3359V82.2969C518.336 81.7344 518.148 81.2552 517.773 80.8594C517.404 80.4583 516.94 80.2578 516.383 80.2578C515.695 80.2578 515.156 80.513 514.766 81.0234C514.38 81.5286 514.188 82.237 514.188 83.1484C514.188 83.9349 514.372 84.5651 514.742 85.0391C515.117 85.5078 515.612 85.7422 516.227 85.7422C516.852 85.7422 517.359 85.5182 517.75 85.0703C518.141 84.6172 518.336 84.0391 518.336 83.3359Z" fill="url(#paint3_linear_34_13116)"/>
<path d="M331 111L554 111" stroke="#3F6384" stroke-opacity="0.66" stroke-width="2" stroke-linecap="round"/>
<path d="M397.873 157H396.602L395.562 154.252H391.406L390.429 157H389.15L392.91 147.197H394.1L397.873 157ZM395.187 153.22L393.648 149.043C393.598 148.906 393.548 148.688 393.498 148.387H393.471C393.425 148.665 393.373 148.883 393.313 149.043L391.789 153.22H395.187ZM398.748 156.747V155.544C399.359 155.995 400.031 156.221 400.765 156.221C401.749 156.221 402.241 155.893 402.241 155.236C402.241 155.049 402.198 154.892 402.111 154.765C402.029 154.632 401.915 154.516 401.77 154.416C401.628 154.316 401.46 154.227 401.264 154.149C401.072 154.067 400.865 153.983 400.642 153.896C400.332 153.773 400.058 153.65 399.821 153.527C399.589 153.4 399.393 153.258 399.233 153.104C399.078 152.944 398.96 152.764 398.878 152.563C398.8 152.363 398.762 152.128 398.762 151.859C398.762 151.531 398.837 151.242 398.987 150.991C399.138 150.736 399.338 150.524 399.589 150.355C399.84 150.182 400.124 150.052 400.443 149.966C400.767 149.879 401.1 149.836 401.441 149.836C402.048 149.836 402.59 149.941 403.068 150.15V151.285C402.553 150.948 401.961 150.779 401.291 150.779C401.081 150.779 400.892 150.804 400.724 150.854C400.555 150.9 400.409 150.966 400.286 151.053C400.168 151.139 400.074 151.244 400.006 151.367C399.942 151.486 399.91 151.618 399.91 151.764C399.91 151.946 399.942 152.099 400.006 152.222C400.074 152.345 400.172 152.454 400.3 152.55C400.427 152.646 400.582 152.732 400.765 152.81C400.947 152.887 401.154 152.971 401.387 153.062C401.697 153.181 401.975 153.304 402.221 153.432C402.467 153.555 402.676 153.696 402.85 153.855C403.023 154.01 403.155 154.19 403.246 154.396C403.342 154.601 403.39 154.844 403.39 155.127C403.39 155.473 403.312 155.774 403.157 156.029C403.007 156.285 402.804 156.496 402.549 156.665C402.294 156.834 402 156.959 401.667 157.041C401.334 157.123 400.986 157.164 400.621 157.164C399.901 157.164 399.277 157.025 398.748 156.747ZM404.695 156.747V155.544C405.306 155.995 405.978 156.221 406.712 156.221C407.696 156.221 408.188 155.893 408.188 155.236C408.188 155.049 408.145 154.892 408.059 154.765C407.977 154.632 407.863 154.516 407.717 154.416C407.576 154.316 407.407 154.227 407.211 154.149C407.02 154.067 406.812 153.983 406.589 153.896C406.279 153.773 406.006 153.65 405.769 153.527C405.536 153.4 405.34 153.258 405.181 153.104C405.026 152.944 404.907 152.764 404.825 152.563C404.748 152.363 404.709 152.128 404.709 151.859C404.709 151.531 404.784 151.242 404.935 150.991C405.085 150.736 405.285 150.524 405.536 150.355C405.787 150.182 406.072 150.052 406.391 149.966C406.714 149.879 407.047 149.836 407.389 149.836C407.995 149.836 408.537 149.941 409.016 150.15V151.285C408.501 150.948 407.908 150.779 407.238 150.779C407.029 150.779 406.84 150.804 406.671 150.854C406.502 150.9 406.356 150.966 406.233 151.053C406.115 151.139 406.021 151.244 405.953 151.367C405.889 151.486 405.857 151.618 405.857 151.764C405.857 151.946 405.889 152.099 405.953 152.222C406.021 152.345 406.119 152.454 406.247 152.55C406.375 152.646 406.53 152.732 406.712 152.81C406.894 152.887 407.102 152.971 407.334 153.062C407.644 153.181 407.922 153.304 408.168 153.432C408.414 153.555 408.624 153.696 408.797 153.855C408.97 154.01 409.102 154.19 409.193 154.396C409.289 154.601 409.337 154.844 409.337 155.127C409.337 155.473 409.259 155.774 409.104 156.029C408.954 156.285 408.751 156.496 408.496 156.665C408.241 156.834 407.947 156.959 407.614 157.041C407.282 157.123 406.933 157.164 406.568 157.164C405.848 157.164 405.224 157.025 404.695 156.747ZM416.692 153.78H411.75C411.768 154.56 411.978 155.161 412.379 155.585C412.78 156.009 413.331 156.221 414.033 156.221C414.822 156.221 415.546 155.961 416.207 155.441V156.494C415.592 156.941 414.778 157.164 413.767 157.164C412.778 157.164 412.001 156.847 411.436 156.214C410.87 155.576 410.588 154.68 410.588 153.527C410.588 152.438 410.896 151.552 411.511 150.868C412.131 150.18 412.898 149.836 413.814 149.836C414.73 149.836 415.439 150.132 415.94 150.725C416.442 151.317 416.692 152.14 416.692 153.192V153.78ZM415.544 152.83C415.539 152.183 415.382 151.679 415.072 151.319C414.767 150.959 414.341 150.779 413.794 150.779C413.265 150.779 412.816 150.968 412.447 151.347C412.078 151.725 411.85 152.219 411.764 152.83H415.544ZM428.334 157H427.213V152.98C427.213 152.206 427.092 151.645 426.851 151.299C426.614 150.952 426.213 150.779 425.647 150.779C425.169 150.779 424.761 150.998 424.424 151.436C424.091 151.873 423.925 152.397 423.925 153.008V157H422.804V152.844C422.804 151.467 422.273 150.779 421.211 150.779C420.719 150.779 420.313 150.987 419.994 151.401C419.675 151.812 419.516 152.347 419.516 153.008V157H418.395V150H419.516V151.107H419.543C420.04 150.26 420.764 149.836 421.717 149.836C422.195 149.836 422.612 149.97 422.968 150.239C423.323 150.504 423.567 150.852 423.699 151.285C424.219 150.319 424.993 149.836 426.023 149.836C427.564 149.836 428.334 150.786 428.334 152.687V157ZM431.602 155.988H431.574V157H430.453V146.637H431.574V151.23H431.602C432.153 150.301 432.96 149.836 434.021 149.836C434.919 149.836 435.621 150.15 436.127 150.779C436.637 151.404 436.893 152.242 436.893 153.295C436.893 154.466 436.608 155.405 436.038 156.111C435.468 156.813 434.689 157.164 433.7 157.164C432.775 157.164 432.076 156.772 431.602 155.988ZM431.574 153.165V154.143C431.574 154.721 431.761 155.214 432.135 155.619C432.513 156.02 432.992 156.221 433.57 156.221C434.249 156.221 434.78 155.961 435.163 155.441C435.55 154.922 435.744 154.2 435.744 153.274C435.744 152.495 435.564 151.884 435.204 151.442C434.844 151 434.356 150.779 433.741 150.779C433.09 150.779 432.565 151.007 432.169 151.463C431.772 151.914 431.574 152.481 431.574 153.165ZM439.805 157H438.684V146.637H439.805V157ZM447.7 153.78H442.758C442.776 154.56 442.986 155.161 443.387 155.585C443.788 156.009 444.339 156.221 445.041 156.221C445.829 156.221 446.554 155.961 447.215 155.441V156.494C446.6 156.941 445.786 157.164 444.774 157.164C443.785 157.164 443.008 156.847 442.443 156.214C441.878 155.576 441.596 154.68 441.596 153.527C441.596 152.438 441.903 151.552 442.519 150.868C443.138 150.18 443.906 149.836 444.822 149.836C445.738 149.836 446.447 150.132 446.948 150.725C447.45 151.317 447.7 152.14 447.7 153.192V153.78ZM446.552 152.83C446.547 152.183 446.39 151.679 446.08 151.319C445.775 150.959 445.349 150.779 444.802 150.779C444.273 150.779 443.824 150.968 443.455 151.347C443.086 151.725 442.858 152.219 442.771 152.83H446.552ZM462.062 150L459.964 157H458.802L457.359 151.989C457.305 151.798 457.268 151.581 457.25 151.34H457.223C457.209 151.504 457.161 151.716 457.079 151.976L455.514 157H454.393L452.273 150H453.449L454.898 155.264C454.944 155.423 454.976 155.633 454.994 155.893H455.049C455.062 155.692 455.104 155.478 455.172 155.25L456.785 150H457.811L459.26 155.277C459.305 155.446 459.34 155.656 459.362 155.906H459.417C459.426 155.729 459.465 155.519 459.533 155.277L460.955 150H462.062ZM466.287 157.164C465.253 157.164 464.425 156.838 463.806 156.187C463.19 155.53 462.883 154.662 462.883 153.582C462.883 152.406 463.204 151.488 463.847 150.827C464.489 150.166 465.357 149.836 466.451 149.836C467.495 149.836 468.308 150.157 468.892 150.8C469.479 151.442 469.773 152.333 469.773 153.473C469.773 154.589 469.457 155.485 468.823 156.159C468.194 156.829 467.349 157.164 466.287 157.164ZM466.369 150.779C465.649 150.779 465.079 151.025 464.66 151.518C464.241 152.005 464.031 152.68 464.031 153.541C464.031 154.37 464.243 155.024 464.667 155.503C465.091 155.981 465.658 156.221 466.369 156.221C467.094 156.221 467.65 155.986 468.037 155.517C468.429 155.047 468.625 154.38 468.625 153.514C468.625 152.639 468.429 151.964 468.037 151.49C467.65 151.016 467.094 150.779 466.369 150.779ZM475.215 151.135C475.019 150.984 474.736 150.909 474.367 150.909C473.889 150.909 473.488 151.135 473.164 151.586C472.845 152.037 472.686 152.652 472.686 153.432V157H471.564V150H472.686V151.442H472.713C472.872 150.95 473.116 150.567 473.444 150.294C473.772 150.016 474.139 149.877 474.545 149.877C474.837 149.877 475.06 149.909 475.215 149.973V151.135ZM482.242 157H480.67L477.58 153.637H477.553V157H476.432V146.637H477.553V153.206H477.58L480.52 150H481.989L478.742 153.377L482.242 157ZM483.965 148.223C483.764 148.223 483.593 148.154 483.452 148.018C483.311 147.881 483.24 147.708 483.24 147.498C483.24 147.288 483.311 147.115 483.452 146.979C483.593 146.837 483.764 146.767 483.965 146.767C484.17 146.767 484.343 146.837 484.484 146.979C484.63 147.115 484.703 147.288 484.703 147.498C484.703 147.699 484.63 147.869 484.484 148.011C484.343 148.152 484.17 148.223 483.965 148.223ZM484.512 157H483.391V150H484.512V157ZM492.592 157H491.471V153.008C491.471 151.522 490.928 150.779 489.844 150.779C489.283 150.779 488.818 150.991 488.449 151.415C488.085 151.834 487.902 152.365 487.902 153.008V157H486.781V150H487.902V151.162H487.93C488.458 150.278 489.224 149.836 490.227 149.836C490.992 149.836 491.578 150.084 491.983 150.581C492.389 151.073 492.592 151.786 492.592 152.721V157ZM500.686 156.439C500.686 159.01 499.455 160.295 496.994 160.295C496.128 160.295 495.372 160.131 494.725 159.803V158.682C495.513 159.119 496.265 159.338 496.98 159.338C498.703 159.338 499.564 158.422 499.564 156.59V155.824H499.537C499.004 156.717 498.202 157.164 497.131 157.164C496.26 157.164 495.559 156.854 495.025 156.234C494.497 155.61 494.232 154.774 494.232 153.726C494.232 152.536 494.517 151.59 495.087 150.889C495.661 150.187 496.445 149.836 497.438 149.836C498.382 149.836 499.081 150.214 499.537 150.971H499.564V150H500.686V156.439ZM499.564 153.835V152.803C499.564 152.247 499.375 151.771 498.997 151.374C498.623 150.978 498.156 150.779 497.596 150.779C496.903 150.779 496.361 151.032 495.969 151.538C495.577 152.039 495.381 152.743 495.381 153.65C495.381 154.43 495.568 155.054 495.941 155.523C496.32 155.988 496.819 156.221 497.438 156.221C498.067 156.221 498.578 155.997 498.97 155.551C499.366 155.104 499.564 154.532 499.564 153.835ZM510.044 156.932C509.78 157.077 509.431 157.15 508.998 157.15C507.772 157.15 507.159 156.467 507.159 155.1V150.957H505.956V150H507.159V148.291L508.28 147.929V150H510.044V150.957H508.28V154.901C508.28 155.371 508.36 155.706 508.52 155.906C508.679 156.107 508.943 156.207 509.312 156.207C509.595 156.207 509.839 156.13 510.044 155.975V156.932ZM517.167 153.78H512.225C512.243 154.56 512.452 155.161 512.854 155.585C513.255 156.009 513.806 156.221 514.508 156.221C515.296 156.221 516.021 155.961 516.682 155.441V156.494C516.066 156.941 515.253 157.164 514.241 157.164C513.252 157.164 512.475 156.847 511.91 156.214C511.345 155.576 511.062 154.68 511.062 153.527C511.062 152.438 511.37 151.552 511.985 150.868C512.605 150.18 513.373 149.836 514.289 149.836C515.205 149.836 515.914 150.132 516.415 150.725C516.916 151.317 517.167 152.14 517.167 153.192V153.78ZM516.019 152.83C516.014 152.183 515.857 151.679 515.547 151.319C515.242 150.959 514.815 150.779 514.269 150.779C513.74 150.779 513.291 150.968 512.922 151.347C512.553 151.725 512.325 152.219 512.238 152.83H516.019ZM523.88 157H522.759V155.906H522.731C522.244 156.745 521.526 157.164 520.578 157.164C519.881 157.164 519.334 156.979 518.938 156.61C518.546 156.241 518.35 155.751 518.35 155.141C518.35 153.833 519.12 153.072 520.66 152.857L522.759 152.563C522.759 151.374 522.278 150.779 521.316 150.779C520.473 150.779 519.712 151.066 519.033 151.641V150.492C519.721 150.055 520.514 149.836 521.412 149.836C523.057 149.836 523.88 150.706 523.88 152.447V157ZM522.759 153.459L521.07 153.691C520.551 153.764 520.159 153.894 519.895 154.081C519.63 154.263 519.498 154.589 519.498 155.059C519.498 155.4 519.619 155.681 519.86 155.899C520.106 156.114 520.432 156.221 520.838 156.221C521.394 156.221 521.852 156.027 522.212 155.64C522.576 155.248 522.759 154.753 522.759 154.156V153.459ZM535.932 157H534.811V152.98C534.811 152.206 534.69 151.645 534.448 151.299C534.211 150.952 533.81 150.779 533.245 150.779C532.767 150.779 532.359 150.998 532.021 151.436C531.689 151.873 531.522 152.397 531.522 153.008V157H530.401V152.844C530.401 151.467 529.87 150.779 528.809 150.779C528.316 150.779 527.911 150.987 527.592 151.401C527.273 151.812 527.113 152.347 527.113 153.008V157H525.992V150H527.113V151.107H527.141C527.637 150.26 528.362 149.836 529.314 149.836C529.793 149.836 530.21 149.97 530.565 150.239C530.921 150.504 531.165 150.852 531.297 151.285C531.816 150.319 532.591 149.836 533.621 149.836C535.161 149.836 535.932 150.786 535.932 152.687V157Z" fill="url(#paint4_linear_34_13116)"/>
<path d="M396.957 243.59C396.232 243.973 395.33 244.164 394.25 244.164C392.855 244.164 391.739 243.715 390.9 242.817C390.062 241.92 389.643 240.742 389.643 239.283C389.643 237.715 390.114 236.449 391.058 235.482C392.001 234.516 393.197 234.033 394.646 234.033C395.576 234.033 396.346 234.168 396.957 234.437V235.66C396.255 235.268 395.48 235.072 394.633 235.072C393.507 235.072 392.593 235.448 391.892 236.2C391.194 236.952 390.846 237.957 390.846 239.215C390.846 240.409 391.172 241.361 391.823 242.072C392.479 242.779 393.339 243.132 394.4 243.132C395.385 243.132 396.237 242.913 396.957 242.476V243.59ZM401.729 244.164C400.694 244.164 399.867 243.838 399.247 243.187C398.632 242.53 398.324 241.662 398.324 240.582C398.324 239.406 398.646 238.488 399.288 237.827C399.931 237.166 400.799 236.836 401.893 236.836C402.936 236.836 403.75 237.157 404.333 237.8C404.921 238.442 405.215 239.333 405.215 240.473C405.215 241.589 404.898 242.485 404.265 243.159C403.636 243.829 402.79 244.164 401.729 244.164ZM401.811 237.779C401.09 237.779 400.521 238.025 400.102 238.518C399.682 239.005 399.473 239.68 399.473 240.541C399.473 241.37 399.685 242.024 400.108 242.503C400.532 242.981 401.1 243.221 401.811 243.221C402.535 243.221 403.091 242.986 403.479 242.517C403.87 242.047 404.066 241.38 404.066 240.514C404.066 239.639 403.87 238.964 403.479 238.49C403.091 238.016 402.535 237.779 401.811 237.779ZM416.945 244H415.824V239.98C415.824 239.206 415.703 238.645 415.462 238.299C415.225 237.952 414.824 237.779 414.259 237.779C413.78 237.779 413.372 237.998 413.035 238.436C412.702 238.873 412.536 239.397 412.536 240.008V244H411.415V239.844C411.415 238.467 410.884 237.779 409.822 237.779C409.33 237.779 408.924 237.987 408.605 238.401C408.286 238.812 408.127 239.347 408.127 240.008V244H407.006V237H408.127V238.107H408.154C408.651 237.26 409.376 236.836 410.328 236.836C410.807 236.836 411.224 236.97 411.579 237.239C411.935 237.504 412.178 237.852 412.311 238.285C412.83 237.319 413.605 236.836 414.635 236.836C416.175 236.836 416.945 237.786 416.945 239.687V244ZM420.213 242.988H420.186V247.22H419.064V237H420.186V238.23H420.213C420.764 237.301 421.571 236.836 422.633 236.836C423.535 236.836 424.239 237.15 424.745 237.779C425.251 238.404 425.504 239.242 425.504 240.295C425.504 241.466 425.219 242.405 424.649 243.111C424.08 243.813 423.3 244.164 422.312 244.164C421.405 244.164 420.705 243.772 420.213 242.988ZM420.186 240.165V241.143C420.186 241.721 420.372 242.214 420.746 242.619C421.124 243.02 421.603 243.221 422.182 243.221C422.861 243.221 423.392 242.961 423.774 242.441C424.162 241.922 424.355 241.2 424.355 240.274C424.355 239.495 424.175 238.884 423.815 238.442C423.455 238 422.968 237.779 422.353 237.779C421.701 237.779 421.177 238.007 420.78 238.463C420.384 238.914 420.186 239.481 420.186 240.165ZM428.416 244H427.295V233.637H428.416V244ZM436.312 240.78H431.369C431.387 241.56 431.597 242.161 431.998 242.585C432.399 243.009 432.951 243.221 433.652 243.221C434.441 243.221 435.165 242.961 435.826 242.441V243.494C435.211 243.941 434.397 244.164 433.386 244.164C432.397 244.164 431.62 243.847 431.055 243.214C430.49 242.576 430.207 241.68 430.207 240.527C430.207 239.438 430.515 238.552 431.13 237.868C431.75 237.18 432.518 236.836 433.434 236.836C434.35 236.836 435.058 237.132 435.56 237.725C436.061 238.317 436.312 239.14 436.312 240.192V240.78ZM435.163 239.83C435.159 239.183 435.001 238.679 434.691 238.319C434.386 237.959 433.96 237.779 433.413 237.779C432.884 237.779 432.436 237.968 432.066 238.347C431.697 238.725 431.469 239.219 431.383 239.83H435.163ZM441.261 243.932C440.996 244.077 440.648 244.15 440.215 244.15C438.989 244.15 438.376 243.467 438.376 242.1V237.957H437.173V237H438.376V235.291L439.497 234.929V237H441.261V237.957H439.497V241.901C439.497 242.371 439.577 242.706 439.736 242.906C439.896 243.107 440.16 243.207 440.529 243.207C440.812 243.207 441.056 243.13 441.261 242.975V243.932ZM448.384 240.78H443.441C443.46 241.56 443.669 242.161 444.07 242.585C444.471 243.009 445.023 243.221 445.725 243.221C446.513 243.221 447.238 242.961 447.898 242.441V243.494C447.283 243.941 446.47 244.164 445.458 244.164C444.469 244.164 443.692 243.847 443.127 243.214C442.562 242.576 442.279 241.68 442.279 240.527C442.279 239.438 442.587 238.552 443.202 237.868C443.822 237.18 444.59 236.836 445.506 236.836C446.422 236.836 447.131 237.132 447.632 237.725C448.133 238.317 448.384 239.14 448.384 240.192V240.78ZM447.235 239.83C447.231 239.183 447.074 238.679 446.764 238.319C446.458 237.959 446.032 237.779 445.485 237.779C444.957 237.779 444.508 237.968 444.139 238.347C443.77 238.725 443.542 239.219 443.455 239.83H447.235ZM458.938 244H457.817V242.906H457.79C457.302 243.745 456.585 244.164 455.637 244.164C454.939 244.164 454.393 243.979 453.996 243.61C453.604 243.241 453.408 242.751 453.408 242.141C453.408 240.833 454.178 240.072 455.719 239.857L457.817 239.563C457.817 238.374 457.337 237.779 456.375 237.779C455.532 237.779 454.771 238.066 454.092 238.641V237.492C454.78 237.055 455.573 236.836 456.471 236.836C458.116 236.836 458.938 237.706 458.938 239.447V244ZM457.817 240.459L456.129 240.691C455.609 240.764 455.217 240.894 454.953 241.081C454.689 241.263 454.557 241.589 454.557 242.059C454.557 242.4 454.677 242.681 454.919 242.899C455.165 243.114 455.491 243.221 455.896 243.221C456.452 243.221 456.91 243.027 457.271 242.64C457.635 242.248 457.817 241.753 457.817 241.156V240.459ZM460.627 243.747V242.544C461.238 242.995 461.91 243.221 462.644 243.221C463.628 243.221 464.12 242.893 464.12 242.236C464.12 242.049 464.077 241.892 463.99 241.765C463.908 241.632 463.794 241.516 463.648 241.416C463.507 241.316 463.339 241.227 463.143 241.149C462.951 241.067 462.744 240.983 462.521 240.896C462.211 240.773 461.937 240.65 461.7 240.527C461.468 240.4 461.272 240.258 461.112 240.104C460.957 239.944 460.839 239.764 460.757 239.563C460.679 239.363 460.641 239.128 460.641 238.859C460.641 238.531 460.716 238.242 460.866 237.991C461.017 237.736 461.217 237.524 461.468 237.355C461.718 237.182 462.003 237.052 462.322 236.966C462.646 236.879 462.979 236.836 463.32 236.836C463.926 236.836 464.469 236.941 464.947 237.15V238.285C464.432 237.948 463.84 237.779 463.17 237.779C462.96 237.779 462.771 237.804 462.603 237.854C462.434 237.9 462.288 237.966 462.165 238.053C462.047 238.139 461.953 238.244 461.885 238.367C461.821 238.486 461.789 238.618 461.789 238.764C461.789 238.946 461.821 239.099 461.885 239.222C461.953 239.345 462.051 239.454 462.179 239.55C462.306 239.646 462.461 239.732 462.644 239.81C462.826 239.887 463.033 239.971 463.266 240.062C463.576 240.181 463.854 240.304 464.1 240.432C464.346 240.555 464.555 240.696 464.729 240.855C464.902 241.01 465.034 241.19 465.125 241.396C465.221 241.601 465.269 241.844 465.269 242.127C465.269 242.473 465.191 242.774 465.036 243.029C464.886 243.285 464.683 243.496 464.428 243.665C464.173 243.834 463.879 243.959 463.546 244.041C463.213 244.123 462.865 244.164 462.5 244.164C461.78 244.164 461.156 244.025 460.627 243.747ZM466.574 243.747V242.544C467.185 242.995 467.857 243.221 468.591 243.221C469.575 243.221 470.067 242.893 470.067 242.236C470.067 242.049 470.024 241.892 469.938 241.765C469.855 241.632 469.742 241.516 469.596 241.416C469.454 241.316 469.286 241.227 469.09 241.149C468.898 241.067 468.691 240.983 468.468 240.896C468.158 240.773 467.884 240.65 467.647 240.527C467.415 240.4 467.219 240.258 467.06 240.104C466.905 239.944 466.786 239.764 466.704 239.563C466.627 239.363 466.588 239.128 466.588 238.859C466.588 238.531 466.663 238.242 466.813 237.991C466.964 237.736 467.164 237.524 467.415 237.355C467.666 237.182 467.951 237.052 468.27 236.966C468.593 236.879 468.926 236.836 469.268 236.836C469.874 236.836 470.416 236.941 470.895 237.15V238.285C470.38 237.948 469.787 237.779 469.117 237.779C468.908 237.779 468.718 237.804 468.55 237.854C468.381 237.9 468.235 237.966 468.112 238.053C467.994 238.139 467.9 238.244 467.832 238.367C467.768 238.486 467.736 238.618 467.736 238.764C467.736 238.946 467.768 239.099 467.832 239.222C467.9 239.345 467.998 239.454 468.126 239.55C468.254 239.646 468.409 239.732 468.591 239.81C468.773 239.887 468.98 239.971 469.213 240.062C469.523 240.181 469.801 240.304 470.047 240.432C470.293 240.555 470.503 240.696 470.676 240.855C470.849 241.01 470.981 241.19 471.072 241.396C471.168 241.601 471.216 241.844 471.216 242.127C471.216 242.473 471.138 242.774 470.983 243.029C470.833 243.285 470.63 243.496 470.375 243.665C470.12 243.834 469.826 243.959 469.493 244.041C469.16 244.123 468.812 244.164 468.447 244.164C467.727 244.164 467.103 244.025 466.574 243.747ZM478.571 240.78H473.629C473.647 241.56 473.857 242.161 474.258 242.585C474.659 243.009 475.21 243.221 475.912 243.221C476.701 243.221 477.425 242.961 478.086 242.441V243.494C477.471 243.941 476.657 244.164 475.646 244.164C474.657 244.164 473.88 243.847 473.314 243.214C472.749 242.576 472.467 241.68 472.467 240.527C472.467 239.438 472.774 238.552 473.39 237.868C474.009 237.18 474.777 236.836 475.693 236.836C476.609 236.836 477.318 237.132 477.819 237.725C478.321 238.317 478.571 239.14 478.571 240.192V240.78ZM477.423 239.83C477.418 239.183 477.261 238.679 476.951 238.319C476.646 237.959 476.22 237.779 475.673 237.779C475.144 237.779 474.695 237.968 474.326 238.347C473.957 238.725 473.729 239.219 473.643 239.83H477.423ZM479.85 243.747V242.544C480.46 242.995 481.132 243.221 481.866 243.221C482.851 243.221 483.343 242.893 483.343 242.236C483.343 242.049 483.299 241.892 483.213 241.765C483.131 241.632 483.017 241.516 482.871 241.416C482.73 241.316 482.561 241.227 482.365 241.149C482.174 241.067 481.966 240.983 481.743 240.896C481.433 240.773 481.16 240.65 480.923 240.527C480.69 240.4 480.494 240.258 480.335 240.104C480.18 239.944 480.062 239.764 479.979 239.563C479.902 239.363 479.863 239.128 479.863 238.859C479.863 238.531 479.938 238.242 480.089 237.991C480.239 237.736 480.44 237.524 480.69 237.355C480.941 237.182 481.226 237.052 481.545 236.966C481.868 236.879 482.201 236.836 482.543 236.836C483.149 236.836 483.691 236.941 484.17 237.15V238.285C483.655 237.948 483.062 237.779 482.393 237.779C482.183 237.779 481.994 237.804 481.825 237.854C481.657 237.9 481.511 237.966 481.388 238.053C481.269 238.139 481.176 238.244 481.107 238.367C481.044 238.486 481.012 238.618 481.012 238.764C481.012 238.946 481.044 239.099 481.107 239.222C481.176 239.345 481.274 239.454 481.401 239.55C481.529 239.646 481.684 239.732 481.866 239.81C482.049 239.887 482.256 239.971 482.488 240.062C482.798 240.181 483.076 240.304 483.322 240.432C483.568 240.555 483.778 240.696 483.951 240.855C484.124 241.01 484.257 241.19 484.348 241.396C484.443 241.601 484.491 241.844 484.491 242.127C484.491 242.473 484.414 242.774 484.259 243.029C484.108 243.285 483.906 243.496 483.65 243.665C483.395 243.834 483.101 243.959 482.769 244.041C482.436 244.123 482.087 244.164 481.723 244.164C481.003 244.164 480.378 244.025 479.85 243.747ZM485.797 243.747V242.544C486.408 242.995 487.08 243.221 487.813 243.221C488.798 243.221 489.29 242.893 489.29 242.236C489.29 242.049 489.247 241.892 489.16 241.765C489.078 241.632 488.964 241.516 488.818 241.416C488.677 241.316 488.508 241.227 488.312 241.149C488.121 241.067 487.914 240.983 487.69 240.896C487.381 240.773 487.107 240.65 486.87 240.527C486.638 240.4 486.442 240.258 486.282 240.104C486.127 239.944 486.009 239.764 485.927 239.563C485.849 239.363 485.811 239.128 485.811 238.859C485.811 238.531 485.886 238.242 486.036 237.991C486.187 237.736 486.387 237.524 486.638 237.355C486.888 237.182 487.173 237.052 487.492 236.966C487.816 236.879 488.148 236.836 488.49 236.836C489.096 236.836 489.639 236.941 490.117 237.15V238.285C489.602 237.948 489.01 237.779 488.34 237.779C488.13 237.779 487.941 237.804 487.772 237.854C487.604 237.9 487.458 237.966 487.335 238.053C487.216 238.139 487.123 238.244 487.055 238.367C486.991 238.486 486.959 238.618 486.959 238.764C486.959 238.946 486.991 239.099 487.055 239.222C487.123 239.345 487.221 239.454 487.349 239.55C487.476 239.646 487.631 239.732 487.813 239.81C487.996 239.887 488.203 239.971 488.436 240.062C488.745 240.181 489.023 240.304 489.27 240.432C489.516 240.555 489.725 240.696 489.898 240.855C490.072 241.01 490.204 241.19 490.295 241.396C490.391 241.601 490.438 241.844 490.438 242.127C490.438 242.473 490.361 242.774 490.206 243.029C490.056 243.285 489.853 243.496 489.598 243.665C489.342 243.834 489.049 243.959 488.716 244.041C488.383 244.123 488.035 244.164 487.67 244.164C486.95 244.164 486.326 244.025 485.797 243.747ZM502.107 244H500.986V239.98C500.986 239.206 500.866 238.645 500.624 238.299C500.387 237.952 499.986 237.779 499.421 237.779C498.942 237.779 498.535 237.998 498.197 238.436C497.865 238.873 497.698 239.397 497.698 240.008V244H496.577V239.844C496.577 238.467 496.046 237.779 494.984 237.779C494.492 237.779 494.087 237.987 493.768 238.401C493.449 238.812 493.289 239.347 493.289 240.008V244H492.168V237H493.289V238.107H493.316C493.813 237.26 494.538 236.836 495.49 236.836C495.969 236.836 496.386 236.97 496.741 237.239C497.097 237.504 497.34 237.852 497.473 238.285C497.992 237.319 498.767 236.836 499.797 236.836C501.337 236.836 502.107 237.786 502.107 239.687V244ZM509.853 240.78H504.91C504.928 241.56 505.138 242.161 505.539 242.585C505.94 243.009 506.492 243.221 507.193 243.221C507.982 243.221 508.706 242.961 509.367 242.441V243.494C508.752 243.941 507.938 244.164 506.927 244.164C505.938 244.164 505.161 243.847 504.596 243.214C504.031 242.576 503.748 241.68 503.748 240.527C503.748 239.438 504.056 238.552 504.671 237.868C505.291 237.18 506.059 236.836 506.975 236.836C507.891 236.836 508.599 237.132 509.101 237.725C509.602 238.317 509.853 239.14 509.853 240.192V240.78ZM508.704 239.83C508.7 239.183 508.542 238.679 508.232 238.319C507.927 237.959 507.501 237.779 506.954 237.779C506.425 237.779 505.977 237.968 505.607 238.347C505.238 238.725 505.01 239.219 504.924 239.83H508.704ZM517.365 244H516.244V240.008C516.244 238.522 515.702 237.779 514.617 237.779C514.057 237.779 513.592 237.991 513.223 238.415C512.858 238.834 512.676 239.365 512.676 240.008V244H511.555V237H512.676V238.162H512.703C513.232 237.278 513.997 236.836 515 236.836C515.766 236.836 516.351 237.084 516.757 237.581C517.162 238.073 517.365 238.786 517.365 239.721V244ZM522.731 243.932C522.467 244.077 522.118 244.15 521.686 244.15C520.46 244.15 519.847 243.467 519.847 242.1V237.957H518.644V237H519.847V235.291L520.968 234.929V237H522.731V237.957H520.968V241.901C520.968 242.371 521.048 242.706 521.207 242.906C521.367 243.107 521.631 243.207 522 243.207C522.283 243.207 522.526 243.13 522.731 242.975V243.932ZM523.805 243.747V242.544C524.415 242.995 525.088 243.221 525.821 243.221C526.806 243.221 527.298 242.893 527.298 242.236C527.298 242.049 527.255 241.892 527.168 241.765C527.086 241.632 526.972 241.516 526.826 241.416C526.685 241.316 526.516 241.227 526.32 241.149C526.129 241.067 525.922 240.983 525.698 240.896C525.388 240.773 525.115 240.65 524.878 240.527C524.646 240.4 524.45 240.258 524.29 240.104C524.135 239.944 524.017 239.764 523.935 239.563C523.857 239.363 523.818 239.128 523.818 238.859C523.818 238.531 523.894 238.242 524.044 237.991C524.194 237.736 524.395 237.524 524.646 237.355C524.896 237.182 525.181 237.052 525.5 236.966C525.824 236.879 526.156 236.836 526.498 236.836C527.104 236.836 527.646 236.941 528.125 237.15V238.285C527.61 237.948 527.018 237.779 526.348 237.779C526.138 237.779 525.949 237.804 525.78 237.854C525.612 237.9 525.466 237.966 525.343 238.053C525.224 238.139 525.131 238.244 525.062 238.367C524.999 238.486 524.967 238.618 524.967 238.764C524.967 238.946 524.999 239.099 525.062 239.222C525.131 239.345 525.229 239.454 525.356 239.55C525.484 239.646 525.639 239.732 525.821 239.81C526.004 239.887 526.211 239.971 526.443 240.062C526.753 240.181 527.031 240.304 527.277 240.432C527.523 240.555 527.733 240.696 527.906 240.855C528.079 241.01 528.212 241.19 528.303 241.396C528.398 241.601 528.446 241.844 528.446 242.127C528.446 242.473 528.369 242.774 528.214 243.029C528.063 243.285 527.861 243.496 527.605 243.665C527.35 243.834 527.056 243.959 526.724 244.041C526.391 244.123 526.042 244.164 525.678 244.164C524.958 244.164 524.333 244.025 523.805 243.747Z" fill="url(#paint5_linear_34_13116)"/>
<path d="M391.434 197.295V201H390.285V191.197H392.979C394.027 191.197 394.838 191.452 395.412 191.963C395.991 192.473 396.28 193.193 396.28 194.123C396.28 195.053 395.959 195.814 395.316 196.406C394.678 196.999 393.815 197.295 392.726 197.295H391.434ZM391.434 192.236V196.256H392.637C393.43 196.256 394.034 196.076 394.448 195.716C394.868 195.351 395.077 194.839 395.077 194.178C395.077 192.883 394.312 192.236 392.78 192.236H391.434ZM401.633 195.135C401.437 194.984 401.154 194.909 400.785 194.909C400.307 194.909 399.906 195.135 399.582 195.586C399.263 196.037 399.104 196.652 399.104 197.432V201H397.982V194H399.104V195.442H399.131C399.29 194.95 399.534 194.567 399.862 194.294C400.19 194.016 400.557 193.877 400.963 193.877C401.255 193.877 401.478 193.909 401.633 193.973V195.135ZM408.476 197.78H403.533C403.551 198.56 403.761 199.161 404.162 199.585C404.563 200.009 405.115 200.221 405.816 200.221C406.605 200.221 407.329 199.961 407.99 199.441V200.494C407.375 200.941 406.562 201.164 405.55 201.164C404.561 201.164 403.784 200.847 403.219 200.214C402.654 199.576 402.371 198.68 402.371 197.527C402.371 196.438 402.679 195.552 403.294 194.868C403.914 194.18 404.682 193.836 405.598 193.836C406.514 193.836 407.222 194.132 407.724 194.725C408.225 195.317 408.476 196.14 408.476 197.192V197.78ZM407.327 196.83C407.323 196.183 407.165 195.679 406.855 195.319C406.55 194.959 406.124 194.779 405.577 194.779C405.049 194.779 404.6 194.968 404.23 195.347C403.861 195.725 403.633 196.219 403.547 196.83H407.327ZM411.326 199.988H411.299V204.22H410.178V194H411.299V195.23H411.326C411.878 194.301 412.684 193.836 413.746 193.836C414.648 193.836 415.353 194.15 415.858 194.779C416.364 195.404 416.617 196.242 416.617 197.295C416.617 198.466 416.332 199.405 415.763 200.111C415.193 200.813 414.414 201.164 413.425 201.164C412.518 201.164 411.818 200.772 411.326 199.988ZM411.299 197.165V198.143C411.299 198.721 411.486 199.214 411.859 199.619C412.238 200.02 412.716 200.221 413.295 200.221C413.974 200.221 414.505 199.961 414.888 199.441C415.275 198.922 415.469 198.2 415.469 197.274C415.469 196.495 415.289 195.884 414.929 195.442C414.569 195 414.081 194.779 413.466 194.779C412.814 194.779 412.29 195.007 411.894 195.463C411.497 195.914 411.299 196.481 411.299 197.165ZM423.419 201H422.298V199.906H422.271C421.783 200.745 421.065 201.164 420.117 201.164C419.42 201.164 418.873 200.979 418.477 200.61C418.085 200.241 417.889 199.751 417.889 199.141C417.889 197.833 418.659 197.072 420.199 196.857L422.298 196.563C422.298 195.374 421.817 194.779 420.855 194.779C420.012 194.779 419.251 195.066 418.572 195.641V194.492C419.26 194.055 420.053 193.836 420.951 193.836C422.596 193.836 423.419 194.706 423.419 196.447V201ZM422.298 197.459L420.609 197.691C420.09 197.764 419.698 197.894 419.434 198.081C419.169 198.263 419.037 198.589 419.037 199.059C419.037 199.4 419.158 199.681 419.399 199.899C419.646 200.114 419.971 200.221 420.377 200.221C420.933 200.221 421.391 200.027 421.751 199.64C422.116 199.248 422.298 198.753 422.298 198.156V197.459ZM429.182 195.135C428.986 194.984 428.703 194.909 428.334 194.909C427.855 194.909 427.454 195.135 427.131 195.586C426.812 196.037 426.652 196.652 426.652 197.432V201H425.531V194H426.652V195.442H426.68C426.839 194.95 427.083 194.567 427.411 194.294C427.739 194.016 428.106 193.877 428.512 193.877C428.803 193.877 429.027 193.909 429.182 193.973V195.135ZM436.024 197.78H431.082C431.1 198.56 431.31 199.161 431.711 199.585C432.112 200.009 432.663 200.221 433.365 200.221C434.154 200.221 434.878 199.961 435.539 199.441V200.494C434.924 200.941 434.11 201.164 433.099 201.164C432.11 201.164 431.333 200.847 430.768 200.214C430.202 199.576 429.92 198.68 429.92 197.527C429.92 196.438 430.228 195.552 430.843 194.868C431.463 194.18 432.23 193.836 433.146 193.836C434.062 193.836 434.771 194.132 435.272 194.725C435.774 195.317 436.024 196.14 436.024 197.192V197.78ZM434.876 196.83C434.871 196.183 434.714 195.679 434.404 195.319C434.099 194.959 433.673 194.779 433.126 194.779C432.597 194.779 432.148 194.968 431.779 195.347C431.41 195.725 431.182 196.219 431.096 196.83H434.876ZM450.387 194L448.288 201H447.126L445.684 195.989C445.629 195.798 445.592 195.581 445.574 195.34H445.547C445.533 195.504 445.485 195.716 445.403 195.976L443.838 201H442.717L440.598 194H441.773L443.223 199.264C443.268 199.423 443.3 199.633 443.318 199.893H443.373C443.387 199.692 443.428 199.478 443.496 199.25L445.109 194H446.135L447.584 199.277C447.63 199.446 447.664 199.656 447.687 199.906H447.741C447.75 199.729 447.789 199.519 447.857 199.277L449.279 194H450.387ZM454.611 201.164C453.577 201.164 452.75 200.838 452.13 200.187C451.515 199.53 451.207 198.662 451.207 197.582C451.207 196.406 451.528 195.488 452.171 194.827C452.813 194.166 453.682 193.836 454.775 193.836C455.819 193.836 456.632 194.157 457.216 194.8C457.804 195.442 458.098 196.333 458.098 197.473C458.098 198.589 457.781 199.485 457.147 200.159C456.519 200.829 455.673 201.164 454.611 201.164ZM454.693 194.779C453.973 194.779 453.404 195.025 452.984 195.518C452.565 196.005 452.355 196.68 452.355 197.541C452.355 198.37 452.567 199.024 452.991 199.503C453.415 199.981 453.982 200.221 454.693 200.221C455.418 200.221 455.974 199.986 456.361 199.517C456.753 199.047 456.949 198.38 456.949 197.514C456.949 196.639 456.753 195.964 456.361 195.49C455.974 195.016 455.418 194.779 454.693 194.779ZM463.539 195.135C463.343 194.984 463.061 194.909 462.691 194.909C462.213 194.909 461.812 195.135 461.488 195.586C461.169 196.037 461.01 196.652 461.01 197.432V201H459.889V194H461.01V195.442H461.037C461.197 194.95 461.44 194.567 461.769 194.294C462.097 194.016 462.464 193.877 462.869 193.877C463.161 193.877 463.384 193.909 463.539 193.973V195.135ZM470.566 201H468.994L465.904 197.637H465.877V201H464.756V190.637H465.877V197.206H465.904L468.844 194H470.313L467.066 197.377L470.566 201ZM471.291 200.747V199.544C471.902 199.995 472.574 200.221 473.308 200.221C474.292 200.221 474.784 199.893 474.784 199.236C474.784 199.049 474.741 198.892 474.654 198.765C474.572 198.632 474.458 198.516 474.312 198.416C474.171 198.316 474.003 198.227 473.807 198.149C473.615 198.067 473.408 197.983 473.185 197.896C472.875 197.773 472.601 197.65 472.364 197.527C472.132 197.4 471.936 197.258 471.776 197.104C471.621 196.944 471.503 196.764 471.421 196.563C471.343 196.363 471.305 196.128 471.305 195.859C471.305 195.531 471.38 195.242 471.53 194.991C471.681 194.736 471.881 194.524 472.132 194.355C472.382 194.182 472.667 194.052 472.986 193.966C473.31 193.879 473.643 193.836 473.984 193.836C474.59 193.836 475.133 193.941 475.611 194.15V195.285C475.096 194.948 474.504 194.779 473.834 194.779C473.624 194.779 473.435 194.804 473.267 194.854C473.098 194.9 472.952 194.966 472.829 195.053C472.711 195.139 472.617 195.244 472.549 195.367C472.485 195.486 472.453 195.618 472.453 195.764C472.453 195.946 472.485 196.099 472.549 196.222C472.617 196.345 472.715 196.454 472.843 196.55C472.97 196.646 473.125 196.732 473.308 196.81C473.49 196.887 473.697 196.971 473.93 197.062C474.24 197.181 474.518 197.304 474.764 197.432C475.01 197.555 475.219 197.696 475.393 197.855C475.566 198.01 475.698 198.19 475.789 198.396C475.885 198.601 475.933 198.844 475.933 199.127C475.933 199.473 475.855 199.774 475.7 200.029C475.55 200.285 475.347 200.496 475.092 200.665C474.837 200.834 474.543 200.959 474.21 201.041C473.877 201.123 473.529 201.164 473.164 201.164C472.444 201.164 471.82 201.025 471.291 200.747ZM483.473 201H482.352V196.967C482.352 195.508 481.809 194.779 480.725 194.779C480.178 194.779 479.717 194.991 479.344 195.415C478.97 195.834 478.783 196.374 478.783 197.035V201H477.662V190.637H478.783V195.162H478.811C479.348 194.278 480.114 193.836 481.107 193.836C482.684 193.836 483.473 194.786 483.473 196.687V201ZM488.518 201.164C487.483 201.164 486.656 200.838 486.036 200.187C485.421 199.53 485.113 198.662 485.113 197.582C485.113 196.406 485.435 195.488 486.077 194.827C486.72 194.166 487.588 193.836 488.682 193.836C489.725 193.836 490.539 194.157 491.122 194.8C491.71 195.442 492.004 196.333 492.004 197.473C492.004 198.589 491.687 199.485 491.054 200.159C490.425 200.829 489.579 201.164 488.518 201.164ZM488.6 194.779C487.88 194.779 487.31 195.025 486.891 195.518C486.471 196.005 486.262 196.68 486.262 197.541C486.262 198.37 486.474 199.024 486.897 199.503C487.321 199.981 487.889 200.221 488.6 200.221C489.324 200.221 489.88 199.986 490.268 199.517C490.66 199.047 490.855 198.38 490.855 197.514C490.855 196.639 490.66 195.964 490.268 195.49C489.88 195.016 489.324 194.779 488.6 194.779ZM494.943 199.988H494.916V204.22H493.795V194H494.916V195.23H494.943C495.495 194.301 496.301 193.836 497.363 193.836C498.266 193.836 498.97 194.15 499.476 194.779C499.981 195.404 500.234 196.242 500.234 197.295C500.234 198.466 499.95 199.405 499.38 200.111C498.81 200.813 498.031 201.164 497.042 201.164C496.135 201.164 495.436 200.772 494.943 199.988ZM494.916 197.165V198.143C494.916 198.721 495.103 199.214 495.477 199.619C495.855 200.02 496.333 200.221 496.912 200.221C497.591 200.221 498.122 199.961 498.505 199.441C498.892 198.922 499.086 198.2 499.086 197.274C499.086 196.495 498.906 195.884 498.546 195.442C498.186 195 497.698 194.779 497.083 194.779C496.431 194.779 495.907 195.007 495.511 195.463C495.114 195.914 494.916 196.481 494.916 197.165ZM501.602 200.747V199.544C502.212 199.995 502.884 200.221 503.618 200.221C504.603 200.221 505.095 199.893 505.095 199.236C505.095 199.049 505.051 198.892 504.965 198.765C504.883 198.632 504.769 198.516 504.623 198.416C504.482 198.316 504.313 198.227 504.117 198.149C503.926 198.067 503.718 197.983 503.495 197.896C503.185 197.773 502.912 197.65 502.675 197.527C502.442 197.4 502.246 197.258 502.087 197.104C501.932 196.944 501.813 196.764 501.731 196.563C501.654 196.363 501.615 196.128 501.615 195.859C501.615 195.531 501.69 195.242 501.841 194.991C501.991 194.736 502.192 194.524 502.442 194.355C502.693 194.182 502.978 194.052 503.297 193.966C503.62 193.879 503.953 193.836 504.295 193.836C504.901 193.836 505.443 193.941 505.922 194.15V195.285C505.407 194.948 504.814 194.779 504.145 194.779C503.935 194.779 503.746 194.804 503.577 194.854C503.409 194.9 503.263 194.966 503.14 195.053C503.021 195.139 502.928 195.244 502.859 195.367C502.796 195.486 502.764 195.618 502.764 195.764C502.764 195.946 502.796 196.099 502.859 196.222C502.928 196.345 503.026 196.454 503.153 196.55C503.281 196.646 503.436 196.732 503.618 196.81C503.8 196.887 504.008 196.971 504.24 197.062C504.55 197.181 504.828 197.304 505.074 197.432C505.32 197.555 505.53 197.696 505.703 197.855C505.876 198.01 506.008 198.19 506.1 198.396C506.195 198.601 506.243 198.844 506.243 199.127C506.243 199.473 506.166 199.774 506.011 200.029C505.86 200.285 505.658 200.496 505.402 200.665C505.147 200.834 504.853 200.959 504.521 201.041C504.188 201.123 503.839 201.164 503.475 201.164C502.755 201.164 502.13 201.025 501.602 200.747Z" fill="url(#paint6_linear_34_13116)"/>
<path d="M352 142.5C352 140.567 353.567 139 355.5 139H374.5C376.433 139 378 140.567 378 142.5V161.5C378 163.433 376.433 165 374.5 165H355.5C353.567 165 352 163.433 352 161.5V142.5Z" fill="url(#paint7_linear_34_13116)"/>
<path d="M352 142.5C352 140.567 353.567 139 355.5 139H374.5C376.433 139 378 140.567 378 142.5V161.5C378 163.433 376.433 165 374.5 165H355.5C353.567 165 352 163.433 352 161.5V142.5Z" fill="url(#paint8_radial_34_13116)" fill-opacity="0.2"/>
<path fill-rule="evenodd" clip-rule="evenodd" d="M374.5 140H355.5C354.119 140 353 141.119 353 142.5V161.5C353 162.881 354.119 164 355.5 164H374.5C375.881 164 377 162.881 377 161.5V142.5C377 141.119 375.881 140 374.5 140ZM355.5 139C353.567 139 352 140.567 352 142.5V161.5C352 163.433 353.567 165 355.5 165H374.5C376.433 165 378 163.433 378 161.5V142.5C378 140.567 376.433 139 374.5 139H355.5Z" fill="url(#paint9_linear_34_13116)"/>
<path d="M357.025 151.256L358.025 148.439C358.061 148.322 358.134 148.224 358.206 148.146L358.734 147.579L358.461 147.266C358.315 147.109 358.315 146.835 358.461 146.679L359.024 146.072C359.17 145.916 359.424 145.916 359.57 146.072L359.86 146.366L361.478 144.625C361.623 144.468 361.878 144.468 362.023 144.625L363.786 146.542C363.932 146.698 363.932 146.972 363.786 147.129L362.223 148.83L371.274 158.142C371.42 158.298 371.42 158.572 371.274 158.729L370.202 159.883C370.057 160.039 369.802 160.039 369.657 159.883L361.005 150.141L360.551 150.63C360.46 150.728 360.351 150.787 360.242 150.826L357.516 151.784C357.37 151.823 357.225 151.784 357.116 151.667C357.007 151.569 356.971 151.393 357.025 151.256Z" fill="url(#paint10_linear_34_13116)"/>
<path d="M367.93 148.165L365.567 146.483C365.477 146.405 365.422 146.307 365.404 146.19C365.404 146.072 365.44 145.955 365.513 145.857L367.149 144.116C367.276 143.979 367.494 143.96 367.639 144.077L370.42 146.072C370.438 146.072 370.457 146.092 370.457 146.111L370.475 146.131L371.002 146.698L371.038 146.737L371.056 146.757V146.777L372.928 149.711C373.037 149.867 373.019 150.102 372.892 150.239L371.256 151.98C371.184 152.058 371.056 152.117 370.947 152.097C370.838 152.078 370.729 152.019 370.656 151.921L369.13 149.456L366.658 152.234L365.313 150.845L367.93 148.165Z" fill="url(#paint11_linear_34_13116)"/>
<path d="M359.86 159.883C359.715 160.039 359.46 160.039 359.315 159.883L358.224 158.709C358.079 158.552 358.079 158.279 358.224 158.122L362.823 153.408L364.222 154.973L359.86 159.883Z" fill="url(#paint12_linear_34_13116)"/>
<path d="M352 186.5C352 184.567 353.567 183 355.5 183H374.5C376.433 183 378 184.567 378 186.5V205.5C378 207.433 376.433 209 374.5 209H355.5C353.567 209 352 207.433 352 205.5V186.5Z" fill="url(#paint13_linear_34_13116)"/>
<path d="M352 186.5C352 184.567 353.567 183 355.5 183H374.5C376.433 183 378 184.567 378 186.5V205.5C378 207.433 376.433 209 374.5 209H355.5C353.567 209 352 207.433 352 205.5V186.5Z" fill="url(#paint14_radial_34_13116)" fill-opacity="0.2"/>
<path fill-rule="evenodd" clip-rule="evenodd" d="M374.5 184H355.5C354.119 184 353 185.119 353 186.5V205.5C353 206.881 354.119 208 355.5 208H374.5C375.881 208 377 206.881 377 205.5V186.5C377 185.119 375.881 184 374.5 184ZM355.5 183C353.567 183 352 184.567 352 186.5V205.5C352 207.433 353.567 209 355.5 209H374.5C376.433 209 378 207.433 378 205.5V186.5C378 184.567 376.433 183 374.5 183H355.5Z" fill="url(#paint15_linear_34_13116)"/>
<path d="M366.792 191.458C366.792 192.271 366.146 192.917 365.333 192.917C364.521 192.917 363.875 192.271 363.875 191.458C363.875 190.646 364.521 190 365.333 190C366.146 190 366.792 190.667 366.792 191.458Z" fill="url(#paint16_linear_34_13116)"/>
<path d="M372.625 192.292C372.625 193.104 371.979 193.75 371.167 193.75C370.354 193.75 369.708 193.104 369.708 192.292C369.708 191.479 370.354 190.833 371.167 190.833C371.979 190.833 372.625 191.479 372.625 192.292Z" fill="url(#paint17_linear_34_13116)"/>
<path d="M360.958 192.292C360.958 193.104 360.312 193.75 359.5 193.75C358.687 193.75 358.042 193.104 358.042 192.292C358.042 191.479 358.687 190.833 359.5 190.833C360.312 190.833 360.958 191.479 360.958 192.292Z" fill="url(#paint18_linear_34_13116)"/>
<path d="M357.125 201.708C357.125 198.667 360.792 196.208 365.333 196.208C369.854 196.208 373.542 198.667 373.542 201.708H357.125Z" fill="url(#paint19_linear_34_13116)"/>
<path d="M359 196.979C359.875 196.396 360.896 195.937 362 195.646V195.417C362 195.187 361.896 194.958 361.75 194.812C361.687 194.75 361.542 194.667 361.354 194.583C360.208 194.042 358.854 194.042 357.687 194.562C357.479 194.646 357.312 194.75 357.229 194.812C357.104 194.958 357 195.187 357 195.417V198.958C357.479 198.229 358.146 197.542 359 196.979Z" fill="url(#paint20_linear_34_13116)"/>
<path d="M367.833 195.438V194.583C367.833 194.354 367.729 194.125 367.583 193.979C367.521 193.917 367.375 193.833 367.188 193.75C366.042 193.208 364.687 193.208 363.521 193.729C363.312 193.813 363.146 193.917 363.062 193.979C362.896 194.125 362.812 194.354 362.812 194.583V195.438C363.625 195.271 364.458 195.188 365.312 195.188C366.167 195.188 367.021 195.292 367.833 195.438Z" fill="url(#paint21_linear_34_13116)"/>
<path d="M373.667 198.958V195.417C373.667 195.187 373.563 194.958 373.417 194.812C373.354 194.75 373.208 194.667 373.021 194.583C371.875 194.042 370.521 194.042 369.354 194.562C369.146 194.646 368.979 194.75 368.896 194.812C368.729 194.958 368.646 195.187 368.646 195.417V195.646C369.75 195.937 370.771 196.396 371.646 196.979C372.521 197.542 373.188 198.229 373.667 198.958Z" fill="url(#paint22_linear_34_13116)"/>
<path d="M352 229.5C352 227.567 353.567 226 355.5 226H374.5C376.433 226 378 227.567 378 229.5V248.5C378 250.433 376.433 252 374.5 252H355.5C353.567 252 352 250.433 352 248.5V229.5Z" fill="url(#paint23_linear_34_13116)"/>
<path d="M352 229.5C352 227.567 353.567 226 355.5 226H374.5C376.433 226 378 227.567 378 229.5V248.5C378 250.433 376.433 252 374.5 252H355.5C353.567 252 352 250.433 352 248.5V229.5Z" fill="url(#paint24_radial_34_13116)" fill-opacity="0.2"/>
<path fill-rule="evenodd" clip-rule="evenodd" d="M374.5 227H355.5C354.119 227 353 228.119 353 229.5V248.5C353 249.881 354.119 251 355.5 251H374.5C375.881 251 377 249.881 377 248.5V229.5C377 228.119 375.881 227 374.5 227ZM355.5 226C353.567 226 352 227.567 352 229.5V248.5C352 250.433 353.567 252 355.5 252H374.5C376.433 252 378 250.433 378 248.5V229.5C378 227.567 376.433 226 374.5 226H355.5Z" fill="url(#paint25_linear_34_13116)"/>
<path d="M370.209 245.083H359.792V232.167H362.084V233.417H367.917V232.167H370.209V245.083ZM365 230.5C365.346 230.5 365.625 230.78 365.625 231.125C365.625 231.47 365.346 231.75 365 231.75C364.655 231.75 364.375 231.47 364.375 231.125C364.37 230.785 364.64 230.506 364.98 230.5C364.987 230.5 364.993 230.5 365 230.5ZM370.625 230.917H367.084V230.5C367.084 230.04 366.711 229.667 366.25 229.667H363.75C363.29 229.667 362.917 230.04 362.917 230.5V230.917H359.375C358.915 230.917 358.542 231.29 358.542 231.75V245.5C358.542 245.96 358.915 246.333 359.375 246.333H370.625C371.086 246.333 371.459 245.96 371.459 245.5V231.75C371.459 231.29 371.086 230.917 370.625 230.917Z" fill="url(#paint26_linear_34_13116)"/>
<path d="M363.555 239.888L363.112 239.446L362.5 240.058L361.888 239.446L361.446 239.888L362.058 240.5L361.446 241.112L361.888 241.554L362.5 240.942L363.112 241.554L363.555 241.112L362.942 240.5L363.555 239.888Z" fill="url(#paint27_linear_34_13116)"/>
<path d="M363.112 241.946L362.5 242.558L361.888 241.946L361.446 242.388L362.058 243L361.446 243.612L361.888 244.054L362.5 243.442L363.112 244.054L363.555 243.612L362.942 243L363.555 242.388L363.112 241.946Z" fill="url(#paint28_linear_34_13116)"/>
<path d="M365.417 240.083H368.959V240.917H365.417V240.083Z" fill="url(#paint29_linear_34_13116)"/>
<path d="M365.417 242.583H368.959V243.417H365.417V242.583Z" fill="url(#paint30_linear_34_13116)"/>
<path d="M365.417 235.083H368.959V235.917H365.417V235.083Z" fill="url(#paint31_linear_34_13116)"/>
<path d="M365.417 237.583H368.959V238.417H365.417V237.583Z" fill="url(#paint32_linear_34_13116)"/>
<path d="M361.189 235.458L361.625 235.022L362.167 235.564L363.542 234.189L363.978 234.625L362.167 236.436L361.189 235.458Z" fill="url(#paint33_linear_34_13116)"/>
<path d="M361.189 237.958L361.625 237.522L362.167 238.064L363.542 236.689L363.978 237.125L362.167 238.936L361.189 237.958Z" fill="url(#paint34_linear_34_13116)"/>
<path d="M343.75 241.998C343.751 242.412 343.416 242.749 343.002 242.75L336.252 242.766C335.838 242.767 335.501 242.432 335.5 242.017C335.499 241.603 335.834 241.267 336.248 241.266L342.248 241.252L342.234 235.252C342.233 234.838 342.568 234.501 342.983 234.5C343.397 234.499 343.733 234.834 343.734 235.248L343.75 241.998ZM342.451 198.489C342.733 198.186 343.208 198.169 343.511 198.451C343.814 198.733 343.831 199.208 343.549 199.511L342.451 198.489ZM342.471 242.532C330.166 230.283 330.194 211.665 342.451 198.489L343.549 199.511C331.806 212.135 331.834 229.828 343.529 241.468L342.471 242.532Z" fill="#8198AE"/>
<path d="M343.75 194C343.75 194.414 343.414 194.75 343 194.75H336.25C335.836 194.75 335.5 194.414 335.5 194C335.5 193.586 335.836 193.25 336.25 193.25H342.25V187.25C342.25 186.836 342.586 186.5 343 186.5C343.414 186.5 343.75 186.836 343.75 187.25V194ZM342.459 148.48C342.746 148.182 343.221 148.172 343.52 148.459C343.818 148.746 343.828 149.221 343.541 149.52L342.459 148.48ZM342.47 194.53C329.671 181.732 329.686 161.765 342.459 148.48L343.541 149.52C331.314 162.235 331.329 181.268 343.53 193.47L342.47 194.53Z" fill="#8198AE"/>
<path d="M390.285 284V274.197H392.992C396.447 274.197 398.174 275.79 398.174 278.976C398.174 280.489 397.693 281.705 396.731 282.626C395.774 283.542 394.492 284 392.883 284H390.285ZM391.434 275.236V282.961H392.896C394.182 282.961 395.182 282.617 395.897 281.929C396.613 281.241 396.971 280.265 396.971 279.003C396.971 276.492 395.635 275.236 392.965 275.236H391.434ZM405.577 280.78H400.635C400.653 281.56 400.863 282.161 401.264 282.585C401.665 283.009 402.216 283.221 402.918 283.221C403.706 283.221 404.431 282.961 405.092 282.441V283.494C404.477 283.941 403.663 284.164 402.651 284.164C401.662 284.164 400.885 283.847 400.32 283.214C399.755 282.576 399.473 281.68 399.473 280.527C399.473 279.438 399.78 278.552 400.396 277.868C401.015 277.18 401.783 276.836 402.699 276.836C403.615 276.836 404.324 277.132 404.825 277.725C405.326 278.317 405.577 279.14 405.577 280.192V280.78ZM404.429 279.83C404.424 279.183 404.267 278.679 403.957 278.319C403.652 277.959 403.226 277.779 402.679 277.779C402.15 277.779 401.701 277.968 401.332 278.347C400.963 278.725 400.735 279.219 400.648 279.83H404.429ZM412.051 283.679C411.513 284.002 410.875 284.164 410.137 284.164C409.139 284.164 408.332 283.84 407.717 283.193C407.106 282.542 406.801 281.699 406.801 280.664C406.801 279.511 407.131 278.586 407.792 277.889C408.453 277.187 409.335 276.836 410.438 276.836C411.053 276.836 411.595 276.95 412.064 277.178V278.326C411.545 277.962 410.989 277.779 410.396 277.779C409.681 277.779 409.093 278.037 408.633 278.552C408.177 279.062 407.949 279.734 407.949 280.568C407.949 281.389 408.163 282.036 408.592 282.51C409.025 282.984 409.604 283.221 410.328 283.221C410.939 283.221 411.513 283.018 412.051 282.612V283.679ZM414.32 275.223C414.12 275.223 413.949 275.154 413.808 275.018C413.666 274.881 413.596 274.708 413.596 274.498C413.596 274.288 413.666 274.115 413.808 273.979C413.949 273.837 414.12 273.767 414.32 273.767C414.525 273.767 414.699 273.837 414.84 273.979C414.986 274.115 415.059 274.288 415.059 274.498C415.059 274.699 414.986 274.869 414.84 275.011C414.699 275.152 414.525 275.223 414.32 275.223ZM414.867 284H413.746V277H414.867V284ZM423.111 284H421.99V282.811H421.963C421.443 283.713 420.641 284.164 419.557 284.164C418.677 284.164 417.973 283.852 417.444 283.228C416.92 282.599 416.658 281.744 416.658 280.664C416.658 279.507 416.95 278.579 417.533 277.882C418.117 277.185 418.894 276.836 419.864 276.836C420.826 276.836 421.525 277.214 421.963 277.971H421.99V273.637H423.111V284ZM421.99 280.835V279.803C421.99 279.238 421.803 278.759 421.43 278.367C421.056 277.975 420.582 277.779 420.008 277.779C419.324 277.779 418.786 278.03 418.395 278.531C418.003 279.033 417.807 279.725 417.807 280.609C417.807 281.416 417.993 282.054 418.367 282.523C418.745 282.988 419.251 283.221 419.885 283.221C420.509 283.221 421.015 282.995 421.402 282.544C421.794 282.093 421.99 281.523 421.99 280.835ZM431.007 280.78H426.064C426.083 281.56 426.292 282.161 426.693 282.585C427.094 283.009 427.646 283.221 428.348 283.221C429.136 283.221 429.861 282.961 430.521 282.441V283.494C429.906 283.941 429.093 284.164 428.081 284.164C427.092 284.164 426.315 283.847 425.75 283.214C425.185 282.576 424.902 281.68 424.902 280.527C424.902 279.438 425.21 278.552 425.825 277.868C426.445 277.18 427.213 276.836 428.129 276.836C429.045 276.836 429.754 277.132 430.255 277.725C430.756 278.317 431.007 279.14 431.007 280.192V280.78ZM429.858 279.83C429.854 279.183 429.697 278.679 429.387 278.319C429.081 277.959 428.655 277.779 428.108 277.779C427.58 277.779 427.131 277.968 426.762 278.347C426.393 278.725 426.165 279.219 426.078 279.83H429.858ZM439.798 283.932C439.534 284.077 439.185 284.15 438.752 284.15C437.526 284.15 436.913 283.467 436.913 282.1V277.957H435.71V277H436.913V275.291L438.034 274.929V277H439.798V277.957H438.034V281.901C438.034 282.371 438.114 282.706 438.273 282.906C438.433 283.107 438.697 283.207 439.066 283.207C439.349 283.207 439.593 283.13 439.798 282.975V283.932ZM447.105 284H445.984V279.967C445.984 278.508 445.442 277.779 444.357 277.779C443.811 277.779 443.35 277.991 442.977 278.415C442.603 278.834 442.416 279.374 442.416 280.035V284H441.295V273.637H442.416V278.162H442.443C442.981 277.278 443.747 276.836 444.74 276.836C446.317 276.836 447.105 277.786 447.105 279.687V284ZM454.851 280.78H449.908C449.926 281.56 450.136 282.161 450.537 282.585C450.938 283.009 451.49 283.221 452.191 283.221C452.98 283.221 453.704 282.961 454.365 282.441V283.494C453.75 283.941 452.937 284.164 451.925 284.164C450.936 284.164 450.159 283.847 449.594 283.214C449.029 282.576 448.746 281.68 448.746 280.527C448.746 279.438 449.054 278.552 449.669 277.868C450.289 277.18 451.057 276.836 451.973 276.836C452.889 276.836 453.597 277.132 454.099 277.725C454.6 278.317 454.851 279.14 454.851 280.192V280.78ZM453.702 279.83C453.698 279.183 453.54 278.679 453.23 278.319C452.925 277.959 452.499 277.779 451.952 277.779C451.424 277.779 450.975 277.968 450.605 278.347C450.236 278.725 450.008 279.219 449.922 279.83H453.702ZM460.545 284V274.197H463.334C464.182 274.197 464.854 274.405 465.351 274.819C465.847 275.234 466.096 275.774 466.096 276.439C466.096 276.995 465.945 277.479 465.645 277.889C465.344 278.299 464.929 278.59 464.4 278.764V278.791C465.061 278.868 465.59 279.119 465.986 279.543C466.383 279.962 466.581 280.509 466.581 281.184C466.581 282.022 466.28 282.701 465.679 283.221C465.077 283.74 464.318 284 463.402 284H460.545ZM461.693 275.236V278.401H462.869C463.498 278.401 463.993 278.251 464.353 277.95C464.713 277.645 464.893 277.216 464.893 276.665C464.893 275.713 464.266 275.236 463.013 275.236H461.693ZM461.693 279.434V282.961H463.252C463.926 282.961 464.448 282.801 464.817 282.482C465.191 282.163 465.378 281.726 465.378 281.17C465.378 280.012 464.59 279.434 463.013 279.434H461.693ZM469.719 284H468.57V274.197H469.719V284ZM481.969 283.439C481.969 286.01 480.738 287.295 478.277 287.295C477.411 287.295 476.655 287.131 476.008 286.803V285.682C476.796 286.119 477.548 286.338 478.264 286.338C479.986 286.338 480.848 285.422 480.848 283.59V282.824H480.82C480.287 283.717 479.485 284.164 478.414 284.164C477.544 284.164 476.842 283.854 476.309 283.234C475.78 282.61 475.516 281.774 475.516 280.726C475.516 279.536 475.8 278.59 476.37 277.889C476.944 277.187 477.728 276.836 478.722 276.836C479.665 276.836 480.365 277.214 480.82 277.971H480.848V277H481.969V283.439ZM480.848 280.835V279.803C480.848 279.247 480.659 278.771 480.28 278.374C479.907 277.978 479.439 277.779 478.879 277.779C478.186 277.779 477.644 278.032 477.252 278.538C476.86 279.039 476.664 279.743 476.664 280.65C476.664 281.43 476.851 282.054 477.225 282.523C477.603 282.988 478.102 283.221 478.722 283.221C479.351 283.221 479.861 282.997 480.253 282.551C480.649 282.104 480.848 281.532 480.848 280.835ZM487.164 284.164C486.13 284.164 485.302 283.838 484.683 283.187C484.067 282.53 483.76 281.662 483.76 280.582C483.76 279.406 484.081 278.488 484.724 277.827C485.366 277.166 486.234 276.836 487.328 276.836C488.372 276.836 489.185 277.157 489.769 277.8C490.356 278.442 490.65 279.333 490.65 280.473C490.65 281.589 490.334 282.485 489.7 283.159C489.071 283.829 488.226 284.164 487.164 284.164ZM487.246 277.779C486.526 277.779 485.956 278.025 485.537 278.518C485.118 279.005 484.908 279.68 484.908 280.541C484.908 281.37 485.12 282.024 485.544 282.503C485.968 282.981 486.535 283.221 487.246 283.221C487.971 283.221 488.527 282.986 488.914 282.517C489.306 282.047 489.502 281.38 489.502 280.514C489.502 279.639 489.306 278.964 488.914 278.49C488.527 278.016 487.971 277.779 487.246 277.779ZM497.452 284H496.331V282.906H496.304C495.816 283.745 495.098 284.164 494.15 284.164C493.453 284.164 492.906 283.979 492.51 283.61C492.118 283.241 491.922 282.751 491.922 282.141C491.922 280.833 492.692 280.072 494.232 279.857L496.331 279.563C496.331 278.374 495.85 277.779 494.889 277.779C494.046 277.779 493.285 278.066 492.605 278.641V277.492C493.294 277.055 494.087 276.836 494.984 276.836C496.63 276.836 497.452 277.706 497.452 279.447V284ZM496.331 280.459L494.643 280.691C494.123 280.764 493.731 280.894 493.467 281.081C493.202 281.263 493.07 281.589 493.07 282.059C493.07 282.4 493.191 282.681 493.433 282.899C493.679 283.114 494.005 283.221 494.41 283.221C494.966 283.221 495.424 283.027 495.784 282.64C496.149 282.248 496.331 281.753 496.331 281.156V280.459ZM500.686 284H499.564V273.637H500.686V284ZM502.531 283.747V282.544C503.142 282.995 503.814 283.221 504.548 283.221C505.532 283.221 506.024 282.893 506.024 282.236C506.024 282.049 505.981 281.892 505.895 281.765C505.812 281.632 505.699 281.516 505.553 281.416C505.411 281.316 505.243 281.227 505.047 281.149C504.855 281.067 504.648 280.983 504.425 280.896C504.115 280.773 503.841 280.65 503.604 280.527C503.372 280.4 503.176 280.258 503.017 280.104C502.862 279.944 502.743 279.764 502.661 279.563C502.584 279.363 502.545 279.128 502.545 278.859C502.545 278.531 502.62 278.242 502.771 277.991C502.921 277.736 503.121 277.524 503.372 277.355C503.623 277.182 503.908 277.052 504.227 276.966C504.55 276.879 504.883 276.836 505.225 276.836C505.831 276.836 506.373 276.941 506.852 277.15V278.285C506.337 277.948 505.744 277.779 505.074 277.779C504.865 277.779 504.675 277.804 504.507 277.854C504.338 277.9 504.192 277.966 504.069 278.053C503.951 278.139 503.857 278.244 503.789 278.367C503.725 278.486 503.693 278.618 503.693 278.764C503.693 278.946 503.725 279.099 503.789 279.222C503.857 279.345 503.955 279.454 504.083 279.55C504.211 279.646 504.366 279.732 504.548 279.81C504.73 279.887 504.938 279.971 505.17 280.062C505.48 280.181 505.758 280.304 506.004 280.432C506.25 280.555 506.46 280.696 506.633 280.855C506.806 281.01 506.938 281.19 507.029 281.396C507.125 281.601 507.173 281.844 507.173 282.127C507.173 282.473 507.095 282.774 506.94 283.029C506.79 283.285 506.587 283.496 506.332 283.665C506.077 283.834 505.783 283.959 505.45 284.041C505.118 284.123 504.769 284.164 504.404 284.164C503.684 284.164 503.06 284.025 502.531 283.747ZM395.146 303H394.024V301.906H393.997C393.509 302.745 392.792 303.164 391.844 303.164C391.146 303.164 390.6 302.979 390.203 302.61C389.811 302.241 389.615 301.751 389.615 301.141C389.615 299.833 390.385 299.072 391.926 298.857L394.024 298.563C394.024 297.374 393.544 296.779 392.582 296.779C391.739 296.779 390.978 297.066 390.299 297.641V296.492C390.987 296.055 391.78 295.836 392.678 295.836C394.323 295.836 395.146 296.706 395.146 298.447V303ZM394.024 299.459L392.336 299.691C391.816 299.764 391.424 299.894 391.16 300.081C390.896 300.263 390.764 300.589 390.764 301.059C390.764 301.4 390.884 301.681 391.126 301.899C391.372 302.114 391.698 302.221 392.104 302.221C392.66 302.221 393.118 302.027 393.478 301.64C393.842 301.248 394.024 300.753 394.024 300.156V299.459ZM403.068 303H401.947V299.008C401.947 297.522 401.405 296.779 400.32 296.779C399.76 296.779 399.295 296.991 398.926 297.415C398.561 297.834 398.379 298.365 398.379 299.008V303H397.258V296H398.379V297.162H398.406C398.935 296.278 399.701 295.836 400.703 295.836C401.469 295.836 402.054 296.084 402.46 296.581C402.866 297.073 403.068 297.786 403.068 298.721V303ZM411.162 303H410.041V301.811H410.014C409.494 302.713 408.692 303.164 407.607 303.164C406.728 303.164 406.024 302.852 405.495 302.228C404.971 301.599 404.709 300.744 404.709 299.664C404.709 298.507 405.001 297.579 405.584 296.882C406.167 296.185 406.944 295.836 407.915 295.836C408.877 295.836 409.576 296.214 410.014 296.971H410.041V292.637H411.162V303ZM410.041 299.835V298.803C410.041 298.238 409.854 297.759 409.48 297.367C409.107 296.975 408.633 296.779 408.059 296.779C407.375 296.779 406.837 297.03 406.445 297.531C406.053 298.033 405.857 298.725 405.857 299.609C405.857 300.416 406.044 301.054 406.418 301.523C406.796 301.988 407.302 302.221 407.936 302.221C408.56 302.221 409.066 301.995 409.453 301.544C409.845 301.093 410.041 300.523 410.041 299.835ZM418.422 301.988H418.395V306.22H417.273V296H418.395V297.23H418.422C418.973 296.301 419.78 295.836 420.842 295.836C421.744 295.836 422.448 296.15 422.954 296.779C423.46 297.404 423.713 298.242 423.713 299.295C423.713 300.466 423.428 301.405 422.858 302.111C422.289 302.813 421.509 303.164 420.521 303.164C419.614 303.164 418.914 302.772 418.422 301.988ZM418.395 299.165V300.143C418.395 300.721 418.581 301.214 418.955 301.619C419.333 302.02 419.812 302.221 420.391 302.221C421.07 302.221 421.601 301.961 421.983 301.441C422.371 300.922 422.564 300.2 422.564 299.274C422.564 298.495 422.384 297.884 422.024 297.442C421.664 297 421.177 296.779 420.562 296.779C419.91 296.779 419.386 297.007 418.989 297.463C418.593 297.914 418.395 298.481 418.395 299.165ZM429.154 297.135C428.958 296.984 428.676 296.909 428.307 296.909C427.828 296.909 427.427 297.135 427.104 297.586C426.785 298.037 426.625 298.652 426.625 299.432V303H425.504V296H426.625V297.442H426.652C426.812 296.95 427.056 296.567 427.384 296.294C427.712 296.016 428.079 295.877 428.484 295.877C428.776 295.877 428.999 295.909 429.154 295.973V297.135ZM430.945 294.223C430.745 294.223 430.574 294.154 430.433 294.018C430.291 293.881 430.221 293.708 430.221 293.498C430.221 293.288 430.291 293.115 430.433 292.979C430.574 292.837 430.745 292.767 430.945 292.767C431.15 292.767 431.324 292.837 431.465 292.979C431.611 293.115 431.684 293.288 431.684 293.498C431.684 293.699 431.611 293.869 431.465 294.011C431.324 294.152 431.15 294.223 430.945 294.223ZM431.492 303H430.371V296H431.492V303ZM436.688 303.164C435.653 303.164 434.826 302.838 434.206 302.187C433.591 301.53 433.283 300.662 433.283 299.582C433.283 298.406 433.604 297.488 434.247 296.827C434.89 296.166 435.758 295.836 436.852 295.836C437.895 295.836 438.709 296.157 439.292 296.8C439.88 297.442 440.174 298.333 440.174 299.473C440.174 300.589 439.857 301.485 439.224 302.159C438.595 302.829 437.749 303.164 436.688 303.164ZM436.77 296.779C436.049 296.779 435.48 297.025 435.061 297.518C434.641 298.005 434.432 298.68 434.432 299.541C434.432 300.37 434.644 301.024 435.067 301.503C435.491 301.981 436.059 302.221 436.77 302.221C437.494 302.221 438.05 301.986 438.438 301.517C438.829 301.047 439.025 300.38 439.025 299.514C439.025 298.639 438.829 297.964 438.438 297.49C438.05 297.016 437.494 296.779 436.77 296.779ZM445.615 297.135C445.419 296.984 445.137 296.909 444.768 296.909C444.289 296.909 443.888 297.135 443.564 297.586C443.245 298.037 443.086 298.652 443.086 299.432V303H441.965V296H443.086V297.442H443.113C443.273 296.95 443.517 296.567 443.845 296.294C444.173 296.016 444.54 295.877 444.945 295.877C445.237 295.877 445.46 295.909 445.615 295.973V297.135ZM447.406 294.223C447.206 294.223 447.035 294.154 446.894 294.018C446.752 293.881 446.682 293.708 446.682 293.498C446.682 293.288 446.752 293.115 446.894 292.979C447.035 292.837 447.206 292.767 447.406 292.767C447.611 292.767 447.785 292.837 447.926 292.979C448.072 293.115 448.145 293.288 448.145 293.498C448.145 293.699 448.072 293.869 447.926 294.011C447.785 294.152 447.611 294.223 447.406 294.223ZM447.953 303H446.832V296H447.953V303ZM453.47 302.932C453.205 303.077 452.857 303.15 452.424 303.15C451.198 303.15 450.585 302.467 450.585 301.1V296.957H449.382V296H450.585V294.291L451.706 293.929V296H453.47V296.957H451.706V300.901C451.706 301.371 451.786 301.706 451.945 301.906C452.105 302.107 452.369 302.207 452.738 302.207C453.021 302.207 453.265 302.13 453.47 301.975V302.932ZM455.541 294.223C455.34 294.223 455.17 294.154 455.028 294.018C454.887 293.881 454.816 293.708 454.816 293.498C454.816 293.288 454.887 293.115 455.028 292.979C455.17 292.837 455.34 292.767 455.541 292.767C455.746 292.767 455.919 292.837 456.061 292.979C456.206 293.115 456.279 293.288 456.279 293.498C456.279 293.699 456.206 293.869 456.061 294.011C455.919 294.152 455.746 294.223 455.541 294.223ZM456.088 303H454.967V296H456.088V303ZM463.983 299.78H459.041C459.059 300.56 459.269 301.161 459.67 301.585C460.071 302.009 460.622 302.221 461.324 302.221C462.113 302.221 462.837 301.961 463.498 301.441V302.494C462.883 302.941 462.069 303.164 461.058 303.164C460.069 303.164 459.292 302.847 458.727 302.214C458.161 301.576 457.879 300.68 457.879 299.527C457.879 298.438 458.187 297.552 458.802 296.868C459.422 296.18 460.189 295.836 461.105 295.836C462.021 295.836 462.73 296.132 463.231 296.725C463.733 297.317 463.983 298.14 463.983 299.192V299.78ZM462.835 298.83C462.83 298.183 462.673 297.679 462.363 297.319C462.058 296.959 461.632 296.779 461.085 296.779C460.556 296.779 460.107 296.968 459.738 297.347C459.369 297.725 459.141 298.219 459.055 298.83H462.835ZM465.262 302.747V301.544C465.872 301.995 466.545 302.221 467.278 302.221C468.263 302.221 468.755 301.893 468.755 301.236C468.755 301.049 468.712 300.892 468.625 300.765C468.543 300.632 468.429 300.516 468.283 300.416C468.142 300.316 467.973 300.227 467.777 300.149C467.586 300.067 467.379 299.983 467.155 299.896C466.845 299.773 466.572 299.65 466.335 299.527C466.103 299.4 465.907 299.258 465.747 299.104C465.592 298.944 465.474 298.764 465.392 298.563C465.314 298.363 465.275 298.128 465.275 297.859C465.275 297.531 465.351 297.242 465.501 296.991C465.651 296.736 465.852 296.524 466.103 296.355C466.353 296.182 466.638 296.052 466.957 295.966C467.281 295.879 467.613 295.836 467.955 295.836C468.561 295.836 469.104 295.941 469.582 296.15V297.285C469.067 296.948 468.475 296.779 467.805 296.779C467.595 296.779 467.406 296.804 467.237 296.854C467.069 296.9 466.923 296.966 466.8 297.053C466.681 297.139 466.588 297.244 466.52 297.367C466.456 297.486 466.424 297.618 466.424 297.764C466.424 297.946 466.456 298.099 466.52 298.222C466.588 298.345 466.686 298.454 466.813 298.55C466.941 298.646 467.096 298.732 467.278 298.81C467.461 298.887 467.668 298.971 467.9 299.062C468.21 299.181 468.488 299.304 468.734 299.432C468.98 299.555 469.19 299.696 469.363 299.855C469.536 300.01 469.669 300.19 469.76 300.396C469.855 300.601 469.903 300.844 469.903 301.127C469.903 301.473 469.826 301.774 469.671 302.029C469.521 302.285 469.318 302.496 469.062 302.665C468.807 302.834 468.513 302.959 468.181 303.041C467.848 303.123 467.499 303.164 467.135 303.164C466.415 303.164 465.79 303.025 465.262 302.747Z" fill="url(#paint35_linear_34_13116)"/>
<path d="M352 275.5C352 273.567 353.567 272 355.5 272H374.5C376.433 272 378 273.567 378 275.5V294.5C378 296.433 376.433 298 374.5 298H355.5C353.567 298 352 296.433 352 294.5V275.5Z" fill="url(#paint36_linear_34_13116)"/>
<path d="M352 275.5C352 273.567 353.567 272 355.5 272H374.5C376.433 272 378 273.567 378 275.5V294.5C378 296.433 376.433 298 374.5 298H355.5C353.567 298 352 296.433 352 294.5V275.5Z" fill="url(#paint37_radial_34_13116)" fill-opacity="0.2"/>
<path fill-rule="evenodd" clip-rule="evenodd" d="M374.5 273H355.5C354.119 273 353 274.119 353 275.5V294.5C353 295.881 354.119 297 355.5 297H374.5C375.881 297 377 295.881 377 294.5V275.5C377 274.119 375.881 273 374.5 273ZM355.5 272C353.567 272 352 273.567 352 275.5V294.5C352 296.433 353.567 298 355.5 298H374.5C376.433 298 378 296.433 378 294.5V275.5C378 273.567 376.433 272 374.5 272H355.5Z" fill="url(#paint38_linear_34_13116)"/>
<path d="M372.148 278.051L371.921 276L369.414 278.506L369.551 279.691L365.905 283.337C365.586 283.177 365.222 283.063 364.834 283.063C363.581 283.063 362.556 284.089 362.556 285.342C362.556 286.595 363.581 287.62 364.834 287.62C366.088 287.62 367.113 286.595 367.113 285.342C367.113 284.955 367.022 284.613 366.862 284.294L370.508 280.648L371.693 280.785L374.199 278.278L372.148 278.051Z" fill="url(#paint39_linear_34_13116)"/>
<path d="M372.33 281.423L372.035 281.742L371.601 281.696L371.123 281.628C371.761 282.722 372.148 283.974 372.148 285.342C372.148 289.352 368.867 292.633 364.857 292.633C360.847 292.633 357.566 289.352 357.566 285.342C357.566 281.332 360.847 278.051 364.857 278.051C366.201 278.051 367.477 278.415 368.571 279.076L368.525 278.62L368.457 278.164L368.776 277.846L368.935 277.686C367.705 277.048 366.338 276.683 364.857 276.683C360.072 276.683 356.199 280.557 356.199 285.342C356.199 290.127 360.072 294 364.857 294C369.642 294 373.515 290.127 373.515 285.342C373.515 283.861 373.151 282.494 372.49 281.286L372.33 281.423Z" fill="url(#paint40_linear_34_13116)"/>
<path d="M368.662 283.792C368.867 284.271 368.959 284.795 368.959 285.342C368.959 287.597 367.113 289.443 364.857 289.443C362.602 289.443 360.756 287.597 360.756 285.342C360.756 283.086 362.602 281.24 364.857 281.24C365.404 281.24 365.928 281.354 366.407 281.537L367.432 280.511C366.657 280.101 365.791 279.873 364.857 279.873C361.85 279.873 359.389 282.334 359.389 285.342C359.389 288.349 361.85 290.81 364.857 290.81C367.865 290.81 370.326 288.349 370.326 285.342C370.326 284.408 370.098 283.542 369.688 282.767L368.662 283.792Z" fill="url(#paint41_linear_34_13116)"/>
<path d="M343.748 283.952C343.775 284.365 343.461 284.722 343.048 284.748L336.312 285.18C335.898 285.206 335.542 284.893 335.515 284.479C335.489 284.066 335.803 283.709 336.216 283.683L342.204 283.299L341.82 277.312C341.794 276.898 342.107 276.542 342.521 276.515C342.934 276.489 343.291 276.803 343.317 277.216L343.748 283.952ZM342.483 245.456C342.784 245.171 343.258 245.183 343.544 245.483C343.829 245.784 343.817 246.258 343.517 246.544L342.483 245.456ZM342.505 284.563C336.358 279.156 333.25 272.307 333.25 265.317C333.25 258.33 336.354 251.279 342.483 245.456L343.517 246.544C337.646 252.121 334.75 258.792 334.75 265.317C334.75 271.838 337.642 278.288 343.495 283.437L342.505 284.563Z" fill="#8198AE"/>
<path d="M359.32 75.3255L364.501 66.5335L369.682 75.3255H359.32ZM375.644 85.4387H353.358L358.008 77.787H370.994L375.644 85.4387ZM375.674 85.4873C375.674 85.4873 375.674 85.4872 375.674 85.4869L375.674 85.4873ZM347.544 95.4933L352.168 87.8417H376.874L381.417 95.4046L347.544 95.4933Z" fill="white"/>
<path d="M359.32 75.3255L364.501 66.5335L369.682 75.3255H359.32ZM375.644 85.4387H353.358L358.008 77.787H370.994L375.644 85.4387ZM375.674 85.4873C375.674 85.4873 375.674 85.4872 375.674 85.4869L375.674 85.4873ZM347.544 95.4933L352.168 87.8417H376.874L381.417 95.4046L347.544 95.4933Z" fill="url(#paint42_linear_34_13116)" fill-opacity="0.33"/>
<path d="M359.32 75.3255L364.501 66.5335L369.682 75.3255H359.32ZM375.644 85.4387H353.358L358.008 77.787H370.994L375.644 85.4387ZM375.674 85.4873C375.674 85.4873 375.674 85.4872 375.674 85.4869L375.674 85.4873ZM347.544 95.4933L352.168 87.8417H376.874L381.417 95.4046L347.544 95.4933Z" stroke="url(#paint43_linear_34_13116)"/>
<path d="M364.1 66.2297C364.28 65.9234 364.722 65.9234 364.902 66.2297L370.142 75.1199C370.325 75.4316 370.101 75.8255 369.74 75.8255H359.262C358.901 75.8255 358.677 75.4316 358.861 75.1199L364.1 66.2297Z" fill="url(#paint44_linear_34_13116)"/>
<defs>
<filter id="filter0_f_34_13116" x="320" y="45" width="244" height="329" filterUnits="userSpaceOnUse" color-interpolation-filters="sRGB">
<feFlood flood-opacity="0" result="BackgroundImageFix"/>
<feBlend mode="normal" in="SourceGraphic" in2="BackgroundImageFix" result="shape"/>
<feGaussianBlur stdDeviation="2.5" result="effect1_foregroundBlur_34_13116"/>
</filter>
<radialGradient id="paint0_radial_34_13116" cx="0" cy="0" r="1" gradientUnits="userSpaceOnUse" gradientTransform="translate(132.812 45.8789) rotate(21.1819) scale(910.022 483.925)">
<stop offset="0.198869" stop-color="#8EE3E8"/>
<stop offset="1" stop-color="#19177E"/>
</radialGradient>
<linearGradient id="paint1_linear_34_13116" x1="357.933" y1="208.224" x2="459.175" y2="223.538" gradientUnits="userSpaceOnUse">
<stop stop-color="white"/>
<stop offset="1" stop-color="#FAFAFA"/>
</linearGradient>
<linearGradient id="paint2_linear_34_13116" x1="335" y1="129" x2="353.902" y2="216.937" gradientUnits="userSpaceOnUse">
<stop stop-color="#416587"/>
<stop offset="1" stop-color="#1A3052"/>
</linearGradient>
<linearGradient id="paint3_linear_34_13116" x1="389" y1="70" x2="394.387" y2="111.297" gradientUnits="userSpaceOnUse">
<stop stop-color="#416587"/>
<stop offset="1" stop-color="#1A3052"/>
</linearGradient>
<linearGradient id="paint4_linear_34_13116" x1="389" y1="135" x2="401.598" y2="196.416" gradientUnits="userSpaceOnUse">
<stop stop-color="#416587"/>
<stop offset="1" stop-color="#1A3052"/>
</linearGradient>
<linearGradient id="paint5_linear_34_13116" x1="389" y1="222" x2="401.598" y2="283.416" gradientUnits="userSpaceOnUse">
<stop stop-color="#416587"/>
<stop offset="1" stop-color="#1A3052"/>
</linearGradient>
<linearGradient id="paint6_linear_34_13116" x1="389" y1="179" x2="401.598" y2="240.416" gradientUnits="userSpaceOnUse">
<stop stop-color="#416587"/>
<stop offset="1" stop-color="#1A3052"/>
</linearGradient>
<linearGradient id="paint7_linear_34_13116" x1="359.222" y1="139" x2="362.511" y2="165.311" gradientUnits="userSpaceOnUse">
<stop stop-color="white"/>
<stop offset="1" stop-color="#EBEBEB"/>
</linearGradient>
<radialGradient id="paint8_radial_34_13116" cx="0" cy="0" r="1" gradientUnits="userSpaceOnUse" gradientTransform="translate(360.306 145.771) rotate(56.3099) scale(24.7381 21.408)">
<stop offset="0.177083" stop-color="white"/>
<stop offset="1" stop-color="#B8B8B8"/>
</radialGradient>
<linearGradient id="paint9_linear_34_13116" x1="360.396" y1="139" x2="363.897" y2="165.256" gradientUnits="userSpaceOnUse">
<stop stop-color="#BBBBBB"/>
<stop offset="1" stop-color="#888888"/>
</linearGradient>
<linearGradient id="paint10_linear_34_13116" x1="357" y1="144.507" x2="372.45" y2="158.851" gradientUnits="userSpaceOnUse">
<stop stop-color="#416587"/>
<stop offset="1" stop-color="#1A3052"/>
</linearGradient>
<linearGradient id="paint11_linear_34_13116" x1="365.313" y1="144" x2="373.528" y2="151.669" gradientUnits="userSpaceOnUse">
<stop stop-color="#416587"/>
<stop offset="1" stop-color="#1A3052"/>
</linearGradient>
<linearGradient id="paint12_linear_34_13116" x1="358.115" y1="153.408" x2="364.688" y2="159.497" gradientUnits="userSpaceOnUse">
<stop stop-color="#416587"/>
<stop offset="1" stop-color="#1A3052"/>
</linearGradient>
<linearGradient id="paint13_linear_34_13116" x1="359.222" y1="183" x2="362.511" y2="209.311" gradientUnits="userSpaceOnUse">
<stop stop-color="white"/>
<stop offset="1" stop-color="#EBEBEB"/>
</linearGradient>
<radialGradient id="paint14_radial_34_13116" cx="0" cy="0" r="1" gradientUnits="userSpaceOnUse" gradientTransform="translate(360.306 189.771) rotate(56.3099) scale(24.7381 21.408)">
<stop offset="0.177083" stop-color="white"/>
<stop offset="1" stop-color="#B8B8B8"/>
</radialGradient>
<linearGradient id="paint15_linear_34_13116" x1="360.396" y1="183" x2="363.897" y2="209.256" gradientUnits="userSpaceOnUse">
<stop stop-color="#BBBBBB"/>
<stop offset="1" stop-color="#888888"/>
</linearGradient>
<linearGradient id="paint16_linear_34_13116" x1="363.875" y1="190" x2="366.792" y2="192.917" gradientUnits="userSpaceOnUse">
<stop stop-color="#416587"/>
<stop offset="1" stop-color="#1A3052"/>
</linearGradient>
<linearGradient id="paint17_linear_34_13116" x1="369.708" y1="190.833" x2="372.625" y2="193.75" gradientUnits="userSpaceOnUse">
<stop stop-color="#416587"/>
<stop offset="1" stop-color="#1A3052"/>
</linearGradient>
<linearGradient id="paint18_linear_34_13116" x1="358.042" y1="190.833" x2="360.958" y2="193.75" gradientUnits="userSpaceOnUse">
<stop stop-color="#416587"/>
<stop offset="1" stop-color="#1A3052"/>
</linearGradient>
<linearGradient id="paint19_linear_34_13116" x1="357.125" y1="196.208" x2="360.438" y2="206.098" gradientUnits="userSpaceOnUse">
<stop stop-color="#416587"/>
<stop offset="1" stop-color="#1A3052"/>
</linearGradient>
<linearGradient id="paint20_linear_34_13116" x1="357" y1="194.174" x2="361.779" y2="199.17" gradientUnits="userSpaceOnUse">
<stop stop-color="#416587"/>
<stop offset="1" stop-color="#1A3052"/>
</linearGradient>
<linearGradient id="paint21_linear_34_13116" x1="362.812" y1="193.341" x2="364.303" y2="196.911" gradientUnits="userSpaceOnUse">
<stop stop-color="#416587"/>
<stop offset="1" stop-color="#1A3052"/>
</linearGradient>
<linearGradient id="paint22_linear_34_13116" x1="368.646" y1="194.174" x2="373.424" y2="199.189" gradientUnits="userSpaceOnUse">
<stop stop-color="#416587"/>
<stop offset="1" stop-color="#1A3052"/>
</linearGradient>
<linearGradient id="paint23_linear_34_13116" x1="359.222" y1="226" x2="362.511" y2="252.311" gradientUnits="userSpaceOnUse">
<stop stop-color="white"/>
<stop offset="1" stop-color="#EBEBEB"/>
</linearGradient>
<radialGradient id="paint24_radial_34_13116" cx="0" cy="0" r="1" gradientUnits="userSpaceOnUse" gradientTransform="translate(360.306 232.771) rotate(56.3099) scale(24.7381 21.408)">
<stop offset="0.177083" stop-color="white"/>
<stop offset="1" stop-color="#B8B8B8"/>
</radialGradient>
<linearGradient id="paint25_linear_34_13116" x1="360.396" y1="226" x2="363.897" y2="252.256" gradientUnits="userSpaceOnUse">
<stop stop-color="#BBBBBB"/>
<stop offset="1" stop-color="#888888"/>
</linearGradient>
<linearGradient id="paint26_linear_34_13116" x1="358.542" y1="229.667" x2="374.682" y2="242.175" gradientUnits="userSpaceOnUse">
<stop stop-color="#416587"/>
<stop offset="1" stop-color="#1A3052"/>
</linearGradient>
<linearGradient id="paint27_linear_34_13116" x1="361.446" y1="239.446" x2="363.555" y2="241.554" gradientUnits="userSpaceOnUse">
<stop stop-color="#416587"/>
<stop offset="1" stop-color="#1A3052"/>
</linearGradient>
<linearGradient id="paint28_linear_34_13116" x1="361.446" y1="241.946" x2="363.555" y2="244.054" gradientUnits="userSpaceOnUse">
<stop stop-color="#416587"/>
<stop offset="1" stop-color="#1A3052"/>
</linearGradient>
<linearGradient id="paint29_linear_34_13116" x1="365.417" y1="240.083" x2="365.789" y2="241.663" gradientUnits="userSpaceOnUse">
<stop stop-color="#416587"/>
<stop offset="1" stop-color="#1A3052"/>
</linearGradient>
<linearGradient id="paint30_linear_34_13116" x1="365.417" y1="242.583" x2="365.789" y2="244.163" gradientUnits="userSpaceOnUse">
<stop stop-color="#416587"/>
<stop offset="1" stop-color="#1A3052"/>
</linearGradient>
<linearGradient id="paint31_linear_34_13116" x1="365.417" y1="235.083" x2="365.789" y2="236.663" gradientUnits="userSpaceOnUse">
<stop stop-color="#416587"/>
<stop offset="1" stop-color="#1A3052"/>
</linearGradient>
<linearGradient id="paint32_linear_34_13116" x1="365.417" y1="237.583" x2="365.789" y2="239.163" gradientUnits="userSpaceOnUse">
<stop stop-color="#416587"/>
<stop offset="1" stop-color="#1A3052"/>
</linearGradient>
<linearGradient id="paint33_linear_34_13116" x1="361.189" y1="234.189" x2="363.385" y2="236.914" gradientUnits="userSpaceOnUse">
<stop stop-color="#416587"/>
<stop offset="1" stop-color="#1A3052"/>
</linearGradient>
<linearGradient id="paint34_linear_34_13116" x1="361.189" y1="236.689" x2="363.385" y2="239.414" gradientUnits="userSpaceOnUse">
<stop stop-color="#416587"/>
<stop offset="1" stop-color="#1A3052"/>
</linearGradient>
<linearGradient id="paint35_linear_34_13116" x1="389" y1="272" x2="401.598" y2="333.416" gradientUnits="userSpaceOnUse">
<stop stop-color="#416587"/>
<stop offset="1" stop-color="#1A3052"/>
</linearGradient>
<linearGradient id="paint36_linear_34_13116" x1="359.222" y1="272" x2="362.511" y2="298.311" gradientUnits="userSpaceOnUse">
<stop stop-color="white"/>
<stop offset="1" stop-color="#EBEBEB"/>
</linearGradient>
<radialGradient id="paint37_radial_34_13116" cx="0" cy="0" r="1" gradientUnits="userSpaceOnUse" gradientTransform="translate(360.306 278.771) rotate(56.3099) scale(24.7381 21.408)">
<stop offset="0.177083" stop-color="white"/>
<stop offset="1" stop-color="#B8B8B8"/>
</radialGradient>
<linearGradient id="paint38_linear_34_13116" x1="360.396" y1="272" x2="363.897" y2="298.256" gradientUnits="userSpaceOnUse">
<stop stop-color="#BBBBBB"/>
<stop offset="1" stop-color="#888888"/>
</linearGradient>
<linearGradient id="paint39_linear_34_13116" x1="362.556" y1="276" x2="374.176" y2="287.643" gradientUnits="userSpaceOnUse">
<stop stop-color="#416587"/>
<stop offset="1" stop-color="#1A3052"/>
</linearGradient>
<linearGradient id="paint40_linear_34_13116" x1="356.199" y1="276.683" x2="373.515" y2="294" gradientUnits="userSpaceOnUse">
<stop stop-color="#416587"/>
<stop offset="1" stop-color="#1A3052"/>
</linearGradient>
<linearGradient id="paint41_linear_34_13116" x1="359.389" y1="279.873" x2="370.326" y2="290.81" gradientUnits="userSpaceOnUse">
<stop stop-color="#416587"/>
<stop offset="1" stop-color="#1A3052"/>
</linearGradient>
<linearGradient id="paint42_linear_34_13116" x1="351.934" y1="80.8768" x2="366.547" y2="84.3855" gradientUnits="userSpaceOnUse">
<stop stop-color="white"/>
<stop offset="1" stop-color="#FAFAFA"/>
</linearGradient>
<linearGradient id="paint43_linear_34_13116" x1="347.019" y1="66" x2="376.668" y2="100.523" gradientUnits="userSpaceOnUse">
<stop stop-color="#416587"/>
<stop offset="1" stop-color="#1A3052"/>
</linearGradient>
<linearGradient id="paint44_linear_34_13116" x1="358.795" y1="66" x2="368.511" y2="77.2857" gradientUnits="userSpaceOnUse">
<stop stop-color="#416587"/>
<stop offset="1" stop-color="#1A3052"/>
</linearGradient>
</defs>
</svg>
