<svg width="666" height="419" viewBox="0 0 666 419" fill="none" xmlns="http://www.w3.org/2000/svg">
<rect width="666" height="419" fill="white"/>
<rect width="666" height="419" fill="url(#paint0_radial_34_13297)" fill-opacity="0.075"/>
<rect x="0.5" y="0.5" width="665" height="418" stroke="#333333" stroke-opacity="0.2"/>
<g filter="url(#filter0_f_34_13297)">
<rect x="241" y="50" width="234" height="319" rx="16" fill="#CCCCCC" fill-opacity="0.8"/>
</g>
<rect x="241" y="50" width="234" height="319" rx="16" fill="white"/>
<rect x="241" y="50" width="234" height="319" rx="16" fill="url(#paint1_linear_34_13297)" fill-opacity="0.33"/>
<rect x="251.5" y="173.5" width="213" height="45" rx="9.5" fill="#EEF2F5" stroke="url(#paint2_linear_34_13297)" stroke-dasharray="2 2"/>
<path d="M305.867 86.5547V84.6406C306.039 84.7969 306.242 84.9375 306.477 85.0625C306.716 85.1875 306.969 85.2943 307.234 85.3828C307.5 85.4661 307.766 85.5312 308.031 85.5781C308.297 85.625 308.542 85.6484 308.766 85.6484C309.547 85.6484 310.128 85.5182 310.508 85.2578C310.893 84.9974 311.086 84.6198 311.086 84.125C311.086 83.8594 311.021 83.6302 310.891 83.4375C310.766 83.2396 310.589 83.0599 310.359 82.8984C310.13 82.737 309.859 82.5833 309.547 82.4375C309.24 82.2865 308.909 82.1302 308.555 81.9688C308.174 81.7656 307.82 81.5599 307.492 81.3516C307.164 81.1432 306.878 80.9141 306.633 80.6641C306.393 80.4089 306.203 80.1224 306.062 79.8047C305.927 79.487 305.859 79.1146 305.859 78.6875C305.859 78.1615 305.977 77.7057 306.211 77.3203C306.451 76.9297 306.763 76.6094 307.148 76.3594C307.539 76.1042 307.982 75.9167 308.477 75.7969C308.971 75.6719 309.477 75.6094 309.992 75.6094C311.164 75.6094 312.018 75.7422 312.555 76.0078V77.8438C311.919 77.3854 311.102 77.1562 310.102 77.1562C309.826 77.1562 309.549 77.1823 309.273 77.2344C309.003 77.2865 308.758 77.3724 308.539 77.4922C308.326 77.612 308.151 77.7656 308.016 77.9531C307.88 78.1406 307.812 78.3672 307.812 78.6328C307.812 78.8828 307.865 79.099 307.969 79.2812C308.073 79.4635 308.224 79.6302 308.422 79.7812C308.625 79.9323 308.87 80.0807 309.156 80.2266C309.448 80.3672 309.784 80.5208 310.164 80.6875C310.555 80.8906 310.922 81.1042 311.266 81.3281C311.615 81.5521 311.919 81.7995 312.18 82.0703C312.445 82.3411 312.654 82.6432 312.805 82.9766C312.961 83.3047 313.039 83.6797 313.039 84.1016C313.039 84.6693 312.924 85.1484 312.695 85.5391C312.466 85.9297 312.156 86.2474 311.766 86.4922C311.38 86.737 310.935 86.9141 310.43 87.0234C309.924 87.1328 309.391 87.1875 308.828 87.1875C308.641 87.1875 308.409 87.1719 308.133 87.1406C307.862 87.1146 307.583 87.0729 307.297 87.0156C307.01 86.9635 306.74 86.8984 306.484 86.8203C306.229 86.7422 306.023 86.6536 305.867 86.5547ZM318.648 86.9141C318.294 87.0911 317.828 87.1797 317.25 87.1797C315.698 87.1797 314.922 86.4349 314.922 84.9453V80.4219H313.586V79H314.922V77.1484L316.734 76.6328V79H318.648V80.4219H316.734V84.4219C316.734 84.8958 316.82 85.2344 316.992 85.4375C317.164 85.6406 317.451 85.7422 317.852 85.7422C318.159 85.7422 318.424 85.6536 318.648 85.4766V86.9141ZM324.852 80.7266C324.633 80.5547 324.318 80.4688 323.906 80.4688C323.37 80.4688 322.922 80.7109 322.562 81.1953C322.203 81.6797 322.023 82.3385 322.023 83.1719V87H320.211V79H322.023V80.6484H322.055C322.232 80.0859 322.503 79.6484 322.867 79.3359C323.237 79.0182 323.648 78.8594 324.102 78.8594C324.43 78.8594 324.68 78.9089 324.852 79.0078V80.7266ZM332.273 87H330.516V85.75H330.484C329.932 86.7083 329.122 87.1875 328.055 87.1875C327.268 87.1875 326.651 86.974 326.203 86.5469C325.76 86.1198 325.539 85.5547 325.539 84.8516C325.539 83.3411 326.409 82.4609 328.148 82.2109L330.523 81.875C330.523 80.7344 329.982 80.1641 328.898 80.1641C327.945 80.1641 327.086 80.4922 326.32 81.1484V79.5625C327.164 79.0625 328.138 78.8125 329.242 78.8125C331.263 78.8125 332.273 79.8073 332.273 81.7969V87ZM330.523 83.0703L328.844 83.3047C328.323 83.3724 327.93 83.5 327.664 83.6875C327.404 83.8698 327.273 84.1927 327.273 84.6562C327.273 84.9948 327.393 85.2734 327.633 85.4922C327.878 85.7057 328.203 85.8125 328.609 85.8125C329.161 85.8125 329.617 85.6198 329.977 85.2344C330.341 84.8438 330.523 84.3542 330.523 83.7656V83.0703ZM338.711 86.9141C338.357 87.0911 337.891 87.1797 337.312 87.1797C335.76 87.1797 334.984 86.4349 334.984 84.9453V80.4219H333.648V79H334.984V77.1484L336.797 76.6328V79H338.711V80.4219H336.797V84.4219C336.797 84.8958 336.883 85.2344 337.055 85.4375C337.227 85.6406 337.513 85.7422 337.914 85.7422C338.221 85.7422 338.487 85.6536 338.711 85.4766V86.9141ZM346.953 83.4922H341.5C341.521 84.2318 341.747 84.8021 342.18 85.2031C342.617 85.6042 343.216 85.8047 343.977 85.8047C344.831 85.8047 345.615 85.5495 346.328 85.0391V86.5C345.599 86.9583 344.635 87.1875 343.438 87.1875C342.26 87.1875 341.336 86.8255 340.664 86.1016C339.997 85.3724 339.664 84.349 339.664 83.0312C339.664 81.7865 340.031 80.7734 340.766 79.9922C341.505 79.2057 342.422 78.8125 343.516 78.8125C344.609 78.8125 345.456 79.1641 346.055 79.8672C346.654 80.5703 346.953 81.5469 346.953 82.7969V83.4922ZM345.203 82.2109C345.198 81.5599 345.044 81.0547 344.742 80.6953C344.44 80.3307 344.023 80.1484 343.492 80.1484C342.971 80.1484 342.529 80.3385 342.164 80.7188C341.805 81.099 341.583 81.5964 341.5 82.2109H345.203ZM355.961 86.3594C355.961 89.2969 354.484 90.7656 351.531 90.7656C350.49 90.7656 349.581 90.5911 348.805 90.2422V88.5859C349.68 89.0859 350.51 89.3359 351.297 89.3359C353.198 89.3359 354.148 88.401 354.148 86.5312V85.6562H354.117C353.518 86.6771 352.617 87.1875 351.414 87.1875C350.44 87.1875 349.654 86.8333 349.055 86.125C348.461 85.4115 348.164 84.4557 348.164 83.2578C348.164 81.8984 348.484 80.8177 349.125 80.0156C349.766 79.2135 350.646 78.8125 351.766 78.8125C352.823 78.8125 353.607 79.2448 354.117 80.1094H354.148V79H355.961V86.3594ZM354.164 83.3359V82.2969C354.164 81.7344 353.977 81.2552 353.602 80.8594C353.232 80.4583 352.768 80.2578 352.211 80.2578C351.523 80.2578 350.984 80.513 350.594 81.0234C350.208 81.5286 350.016 82.237 350.016 83.1484C350.016 83.9349 350.201 84.5651 350.57 85.0391C350.945 85.5078 351.44 85.7422 352.055 85.7422C352.68 85.7422 353.188 85.5182 353.578 85.0703C353.969 84.6172 354.164 84.0391 354.164 83.3359ZM359.234 77.3203C358.938 77.3203 358.682 77.224 358.469 77.0312C358.26 76.8385 358.156 76.5938 358.156 76.2969C358.156 76 358.26 75.7526 358.469 75.5547C358.682 75.3568 358.938 75.2578 359.234 75.2578C359.542 75.2578 359.802 75.3568 360.016 75.5547C360.229 75.7526 360.336 76 360.336 76.2969C360.336 76.5781 360.229 76.8203 360.016 77.0234C359.802 77.2214 359.542 77.3203 359.234 77.3203ZM360.133 87H358.32V79H360.133V87ZM368.234 86.6328C367.594 87.0026 366.836 87.1875 365.961 87.1875C364.773 87.1875 363.815 86.8177 363.086 86.0781C362.357 85.3333 361.992 84.3698 361.992 83.1875C361.992 81.8698 362.383 80.8125 363.164 80.0156C363.951 79.2135 365 78.8125 366.312 78.8125C367.042 78.8125 367.685 78.9401 368.242 79.1953V80.8828C367.685 80.4661 367.091 80.2578 366.461 80.2578C365.695 80.2578 365.068 80.5182 364.578 81.0391C364.089 81.5547 363.844 82.2318 363.844 83.0703C363.844 83.8984 364.073 84.5521 364.531 85.0312C364.995 85.5104 365.615 85.75 366.391 85.75C367.042 85.75 367.656 85.5182 368.234 85.0547V86.6328ZM376.289 85.8203H376.258V90.6797H374.445V79H376.258V80.4062H376.289C376.909 79.3438 377.815 78.8125 379.008 78.8125C380.023 78.8125 380.815 79.1693 381.383 79.8828C381.951 80.5964 382.234 81.5547 382.234 82.7578C382.234 84.0911 381.914 85.1589 381.273 85.9609C380.633 86.763 379.758 87.1641 378.648 87.1641C377.628 87.1641 376.841 86.7161 376.289 85.8203ZM376.242 82.6641V83.6562C376.242 84.2396 376.427 84.7344 376.797 85.1406C377.172 85.5469 377.646 85.75 378.219 85.75C378.891 85.75 379.417 85.4896 379.797 84.9688C380.182 84.4427 380.375 83.7109 380.375 82.7734C380.375 81.987 380.195 81.3724 379.836 80.9297C379.482 80.4818 379 80.2578 378.391 80.2578C377.745 80.2578 377.224 80.487 376.828 80.9453C376.438 81.4036 376.242 81.9766 376.242 82.6641ZM385.906 87H384.086V75.1562H385.906V87ZM394.414 87H392.656V85.75H392.625C392.073 86.7083 391.263 87.1875 390.195 87.1875C389.409 87.1875 388.792 86.974 388.344 86.5469C387.901 86.1198 387.68 85.5547 387.68 84.8516C387.68 83.3411 388.549 82.4609 390.289 82.2109L392.664 81.875C392.664 80.7344 392.122 80.1641 391.039 80.1641C390.086 80.1641 389.227 80.4922 388.461 81.1484V79.5625C389.305 79.0625 390.279 78.8125 391.383 78.8125C393.404 78.8125 394.414 79.8073 394.414 81.7969V87ZM392.664 83.0703L390.984 83.3047C390.464 83.3724 390.07 83.5 389.805 83.6875C389.544 83.8698 389.414 84.1927 389.414 84.6562C389.414 84.9948 389.534 85.2734 389.773 85.4922C390.018 85.7057 390.344 85.8125 390.75 85.8125C391.302 85.8125 391.758 85.6198 392.117 85.2344C392.482 84.8438 392.664 84.3542 392.664 83.7656V83.0703ZM403.758 87H401.945V82.4922C401.945 80.9974 401.417 80.25 400.359 80.25C399.807 80.25 399.352 80.4583 398.992 80.875C398.633 81.2865 398.453 81.8073 398.453 82.4375V87H396.633V79H398.453V80.3281H398.484C399.083 79.3177 399.948 78.8125 401.078 78.8125C401.948 78.8125 402.612 79.0964 403.07 79.6641C403.529 80.2266 403.758 81.0417 403.758 82.1094V87ZM413.102 87H411.289V82.4922C411.289 80.9974 410.76 80.25 409.703 80.25C409.151 80.25 408.695 80.4583 408.336 80.875C407.977 81.2865 407.797 81.8073 407.797 82.4375V87H405.977V79H407.797V80.3281H407.828C408.427 79.3177 409.292 78.8125 410.422 78.8125C411.292 78.8125 411.956 79.0964 412.414 79.6641C412.872 80.2266 413.102 81.0417 413.102 82.1094V87ZM416.234 77.3203C415.938 77.3203 415.682 77.224 415.469 77.0312C415.26 76.8385 415.156 76.5938 415.156 76.2969C415.156 76 415.26 75.7526 415.469 75.5547C415.682 75.3568 415.938 75.2578 416.234 75.2578C416.542 75.2578 416.802 75.3568 417.016 75.5547C417.229 75.7526 417.336 76 417.336 76.2969C417.336 76.5781 417.229 76.8203 417.016 77.0234C416.802 77.2214 416.542 77.3203 416.234 77.3203ZM417.133 87H415.32V79H417.133V87ZM426.633 87H424.82V82.4922C424.82 80.9974 424.292 80.25 423.234 80.25C422.682 80.25 422.227 80.4583 421.867 80.875C421.508 81.2865 421.328 81.8073 421.328 82.4375V87H419.508V79H421.328V80.3281H421.359C421.958 79.3177 422.823 78.8125 423.953 78.8125C424.823 78.8125 425.487 79.0964 425.945 79.6641C426.404 80.2266 426.633 81.0417 426.633 82.1094V87ZM436.133 86.3594C436.133 89.2969 434.656 90.7656 431.703 90.7656C430.661 90.7656 429.753 90.5911 428.977 90.2422V88.5859C429.852 89.0859 430.682 89.3359 431.469 89.3359C433.37 89.3359 434.32 88.401 434.32 86.5312V85.6562H434.289C433.69 86.6771 432.789 87.1875 431.586 87.1875C430.612 87.1875 429.826 86.8333 429.227 86.125C428.633 85.4115 428.336 84.4557 428.336 83.2578C428.336 81.8984 428.656 80.8177 429.297 80.0156C429.938 79.2135 430.818 78.8125 431.938 78.8125C432.995 78.8125 433.779 79.2448 434.289 80.1094H434.32V79H436.133V86.3594ZM434.336 83.3359V82.2969C434.336 81.7344 434.148 81.2552 433.773 80.8594C433.404 80.4583 432.94 80.2578 432.383 80.2578C431.695 80.2578 431.156 80.513 430.766 81.0234C430.38 81.5286 430.188 82.237 430.188 83.1484C430.188 83.9349 430.372 84.5651 430.742 85.0391C431.117 85.5078 431.612 85.7422 432.227 85.7422C432.852 85.7422 433.359 85.5182 433.75 85.0703C434.141 84.6172 434.336 84.0391 434.336 83.3359Z" fill="url(#paint3_linear_34_13297)"/>
<path d="M247 111L470 111" stroke="#3F6384" stroke-opacity="0.66" stroke-width="2" stroke-linecap="round"/>
<path d="M313.873 157H312.602L311.562 154.252H307.406L306.429 157H305.15L308.91 147.197H310.1L313.873 157ZM311.187 153.22L309.648 149.043C309.598 148.906 309.548 148.688 309.498 148.387H309.471C309.425 148.665 309.373 148.883 309.313 149.043L307.789 153.22H311.187ZM314.748 156.747V155.544C315.359 155.995 316.031 156.221 316.765 156.221C317.749 156.221 318.241 155.893 318.241 155.236C318.241 155.049 318.198 154.892 318.111 154.765C318.029 154.632 317.915 154.516 317.77 154.416C317.628 154.316 317.46 154.227 317.264 154.149C317.072 154.067 316.865 153.983 316.642 153.896C316.332 153.773 316.058 153.65 315.821 153.527C315.589 153.4 315.393 153.258 315.233 153.104C315.078 152.944 314.96 152.764 314.878 152.563C314.8 152.363 314.762 152.128 314.762 151.859C314.762 151.531 314.837 151.242 314.987 150.991C315.138 150.736 315.338 150.524 315.589 150.355C315.84 150.182 316.124 150.052 316.443 149.966C316.767 149.879 317.1 149.836 317.441 149.836C318.048 149.836 318.59 149.941 319.068 150.15V151.285C318.553 150.948 317.961 150.779 317.291 150.779C317.081 150.779 316.892 150.804 316.724 150.854C316.555 150.9 316.409 150.966 316.286 151.053C316.168 151.139 316.074 151.244 316.006 151.367C315.942 151.486 315.91 151.618 315.91 151.764C315.91 151.946 315.942 152.099 316.006 152.222C316.074 152.345 316.172 152.454 316.3 152.55C316.427 152.646 316.582 152.732 316.765 152.81C316.947 152.887 317.154 152.971 317.387 153.062C317.697 153.181 317.975 153.304 318.221 153.432C318.467 153.555 318.676 153.696 318.85 153.855C319.023 154.01 319.155 154.19 319.246 154.396C319.342 154.601 319.39 154.844 319.39 155.127C319.39 155.473 319.312 155.774 319.157 156.029C319.007 156.285 318.804 156.496 318.549 156.665C318.294 156.834 318 156.959 317.667 157.041C317.334 157.123 316.986 157.164 316.621 157.164C315.901 157.164 315.277 157.025 314.748 156.747ZM320.695 156.747V155.544C321.306 155.995 321.978 156.221 322.712 156.221C323.696 156.221 324.188 155.893 324.188 155.236C324.188 155.049 324.145 154.892 324.059 154.765C323.977 154.632 323.863 154.516 323.717 154.416C323.576 154.316 323.407 154.227 323.211 154.149C323.02 154.067 322.812 153.983 322.589 153.896C322.279 153.773 322.006 153.65 321.769 153.527C321.536 153.4 321.34 153.258 321.181 153.104C321.026 152.944 320.907 152.764 320.825 152.563C320.748 152.363 320.709 152.128 320.709 151.859C320.709 151.531 320.784 151.242 320.935 150.991C321.085 150.736 321.285 150.524 321.536 150.355C321.787 150.182 322.072 150.052 322.391 149.966C322.714 149.879 323.047 149.836 323.389 149.836C323.995 149.836 324.537 149.941 325.016 150.15V151.285C324.501 150.948 323.908 150.779 323.238 150.779C323.029 150.779 322.84 150.804 322.671 150.854C322.502 150.9 322.356 150.966 322.233 151.053C322.115 151.139 322.021 151.244 321.953 151.367C321.889 151.486 321.857 151.618 321.857 151.764C321.857 151.946 321.889 152.099 321.953 152.222C322.021 152.345 322.119 152.454 322.247 152.55C322.375 152.646 322.53 152.732 322.712 152.81C322.894 152.887 323.102 152.971 323.334 153.062C323.644 153.181 323.922 153.304 324.168 153.432C324.414 153.555 324.624 153.696 324.797 153.855C324.97 154.01 325.102 154.19 325.193 154.396C325.289 154.601 325.337 154.844 325.337 155.127C325.337 155.473 325.259 155.774 325.104 156.029C324.954 156.285 324.751 156.496 324.496 156.665C324.241 156.834 323.947 156.959 323.614 157.041C323.282 157.123 322.933 157.164 322.568 157.164C321.848 157.164 321.224 157.025 320.695 156.747ZM332.692 153.78H327.75C327.768 154.56 327.978 155.161 328.379 155.585C328.78 156.009 329.331 156.221 330.033 156.221C330.822 156.221 331.546 155.961 332.207 155.441V156.494C331.592 156.941 330.778 157.164 329.767 157.164C328.778 157.164 328.001 156.847 327.436 156.214C326.87 155.576 326.588 154.68 326.588 153.527C326.588 152.438 326.896 151.552 327.511 150.868C328.131 150.18 328.898 149.836 329.814 149.836C330.73 149.836 331.439 150.132 331.94 150.725C332.442 151.317 332.692 152.14 332.692 153.192V153.78ZM331.544 152.83C331.539 152.183 331.382 151.679 331.072 151.319C330.767 150.959 330.341 150.779 329.794 150.779C329.265 150.779 328.816 150.968 328.447 151.347C328.078 151.725 327.85 152.219 327.764 152.83H331.544ZM344.334 157H343.213V152.98C343.213 152.206 343.092 151.645 342.851 151.299C342.614 150.952 342.213 150.779 341.647 150.779C341.169 150.779 340.761 150.998 340.424 151.436C340.091 151.873 339.925 152.397 339.925 153.008V157H338.804V152.844C338.804 151.467 338.273 150.779 337.211 150.779C336.719 150.779 336.313 150.987 335.994 151.401C335.675 151.812 335.516 152.347 335.516 153.008V157H334.395V150H335.516V151.107H335.543C336.04 150.26 336.764 149.836 337.717 149.836C338.195 149.836 338.612 149.97 338.968 150.239C339.323 150.504 339.567 150.852 339.699 151.285C340.219 150.319 340.993 149.836 342.023 149.836C343.564 149.836 344.334 150.786 344.334 152.687V157ZM347.602 155.988H347.574V157H346.453V146.637H347.574V151.23H347.602C348.153 150.301 348.96 149.836 350.021 149.836C350.919 149.836 351.621 150.15 352.127 150.779C352.637 151.404 352.893 152.242 352.893 153.295C352.893 154.466 352.608 155.405 352.038 156.111C351.468 156.813 350.689 157.164 349.7 157.164C348.775 157.164 348.076 156.772 347.602 155.988ZM347.574 153.165V154.143C347.574 154.721 347.761 155.214 348.135 155.619C348.513 156.02 348.992 156.221 349.57 156.221C350.249 156.221 350.78 155.961 351.163 155.441C351.55 154.922 351.744 154.2 351.744 153.274C351.744 152.495 351.564 151.884 351.204 151.442C350.844 151 350.356 150.779 349.741 150.779C349.09 150.779 348.565 151.007 348.169 151.463C347.772 151.914 347.574 152.481 347.574 153.165ZM355.805 157H354.684V146.637H355.805V157ZM363.7 153.78H358.758C358.776 154.56 358.986 155.161 359.387 155.585C359.788 156.009 360.339 156.221 361.041 156.221C361.829 156.221 362.554 155.961 363.215 155.441V156.494C362.6 156.941 361.786 157.164 360.774 157.164C359.785 157.164 359.008 156.847 358.443 156.214C357.878 155.576 357.596 154.68 357.596 153.527C357.596 152.438 357.903 151.552 358.519 150.868C359.138 150.18 359.906 149.836 360.822 149.836C361.738 149.836 362.447 150.132 362.948 150.725C363.45 151.317 363.7 152.14 363.7 153.192V153.78ZM362.552 152.83C362.547 152.183 362.39 151.679 362.08 151.319C361.775 150.959 361.349 150.779 360.802 150.779C360.273 150.779 359.824 150.968 359.455 151.347C359.086 151.725 358.858 152.219 358.771 152.83H362.552ZM378.062 150L375.964 157H374.802L373.359 151.989C373.305 151.798 373.268 151.581 373.25 151.34H373.223C373.209 151.504 373.161 151.716 373.079 151.976L371.514 157H370.393L368.273 150H369.449L370.898 155.264C370.944 155.423 370.976 155.633 370.994 155.893H371.049C371.062 155.692 371.104 155.478 371.172 155.25L372.785 150H373.811L375.26 155.277C375.305 155.446 375.34 155.656 375.362 155.906H375.417C375.426 155.729 375.465 155.519 375.533 155.277L376.955 150H378.062ZM382.287 157.164C381.253 157.164 380.425 156.838 379.806 156.187C379.19 155.53 378.883 154.662 378.883 153.582C378.883 152.406 379.204 151.488 379.847 150.827C380.489 150.166 381.357 149.836 382.451 149.836C383.495 149.836 384.308 150.157 384.892 150.8C385.479 151.442 385.773 152.333 385.773 153.473C385.773 154.589 385.457 155.485 384.823 156.159C384.194 156.829 383.349 157.164 382.287 157.164ZM382.369 150.779C381.649 150.779 381.079 151.025 380.66 151.518C380.241 152.005 380.031 152.68 380.031 153.541C380.031 154.37 380.243 155.024 380.667 155.503C381.091 155.981 381.658 156.221 382.369 156.221C383.094 156.221 383.65 155.986 384.037 155.517C384.429 155.047 384.625 154.38 384.625 153.514C384.625 152.639 384.429 151.964 384.037 151.49C383.65 151.016 383.094 150.779 382.369 150.779ZM391.215 151.135C391.019 150.984 390.736 150.909 390.367 150.909C389.889 150.909 389.488 151.135 389.164 151.586C388.845 152.037 388.686 152.652 388.686 153.432V157H387.564V150H388.686V151.442H388.713C388.872 150.95 389.116 150.567 389.444 150.294C389.772 150.016 390.139 149.877 390.545 149.877C390.837 149.877 391.06 149.909 391.215 149.973V151.135ZM398.242 157H396.67L393.58 153.637H393.553V157H392.432V146.637H393.553V153.206H393.58L396.52 150H397.989L394.742 153.377L398.242 157ZM399.965 148.223C399.764 148.223 399.593 148.154 399.452 148.018C399.311 147.881 399.24 147.708 399.24 147.498C399.24 147.288 399.311 147.115 399.452 146.979C399.593 146.837 399.764 146.767 399.965 146.767C400.17 146.767 400.343 146.837 400.484 146.979C400.63 147.115 400.703 147.288 400.703 147.498C400.703 147.699 400.63 147.869 400.484 148.011C400.343 148.152 400.17 148.223 399.965 148.223ZM400.512 157H399.391V150H400.512V157ZM408.592 157H407.471V153.008C407.471 151.522 406.928 150.779 405.844 150.779C405.283 150.779 404.818 150.991 404.449 151.415C404.085 151.834 403.902 152.365 403.902 153.008V157H402.781V150H403.902V151.162H403.93C404.458 150.278 405.224 149.836 406.227 149.836C406.992 149.836 407.578 150.084 407.983 150.581C408.389 151.073 408.592 151.786 408.592 152.721V157ZM416.686 156.439C416.686 159.01 415.455 160.295 412.994 160.295C412.128 160.295 411.372 160.131 410.725 159.803V158.682C411.513 159.119 412.265 159.338 412.98 159.338C414.703 159.338 415.564 158.422 415.564 156.59V155.824H415.537C415.004 156.717 414.202 157.164 413.131 157.164C412.26 157.164 411.559 156.854 411.025 156.234C410.497 155.61 410.232 154.774 410.232 153.726C410.232 152.536 410.517 151.59 411.087 150.889C411.661 150.187 412.445 149.836 413.438 149.836C414.382 149.836 415.081 150.214 415.537 150.971H415.564V150H416.686V156.439ZM415.564 153.835V152.803C415.564 152.247 415.375 151.771 414.997 151.374C414.623 150.978 414.156 150.779 413.596 150.779C412.903 150.779 412.361 151.032 411.969 151.538C411.577 152.039 411.381 152.743 411.381 153.65C411.381 154.43 411.568 155.054 411.941 155.523C412.32 155.988 412.819 156.221 413.438 156.221C414.067 156.221 414.578 155.997 414.97 155.551C415.366 155.104 415.564 154.532 415.564 153.835ZM426.044 156.932C425.78 157.077 425.431 157.15 424.998 157.15C423.772 157.15 423.159 156.467 423.159 155.1V150.957H421.956V150H423.159V148.291L424.28 147.929V150H426.044V150.957H424.28V154.901C424.28 155.371 424.36 155.706 424.52 155.906C424.679 156.107 424.943 156.207 425.312 156.207C425.595 156.207 425.839 156.13 426.044 155.975V156.932ZM433.167 153.78H428.225C428.243 154.56 428.452 155.161 428.854 155.585C429.255 156.009 429.806 156.221 430.508 156.221C431.296 156.221 432.021 155.961 432.682 155.441V156.494C432.066 156.941 431.253 157.164 430.241 157.164C429.252 157.164 428.475 156.847 427.91 156.214C427.345 155.576 427.062 154.68 427.062 153.527C427.062 152.438 427.37 151.552 427.985 150.868C428.605 150.18 429.373 149.836 430.289 149.836C431.205 149.836 431.914 150.132 432.415 150.725C432.916 151.317 433.167 152.14 433.167 153.192V153.78ZM432.019 152.83C432.014 152.183 431.857 151.679 431.547 151.319C431.242 150.959 430.815 150.779 430.269 150.779C429.74 150.779 429.291 150.968 428.922 151.347C428.553 151.725 428.325 152.219 428.238 152.83H432.019ZM439.88 157H438.759V155.906H438.731C438.244 156.745 437.526 157.164 436.578 157.164C435.881 157.164 435.334 156.979 434.938 156.61C434.546 156.241 434.35 155.751 434.35 155.141C434.35 153.833 435.12 153.072 436.66 152.857L438.759 152.563C438.759 151.374 438.278 150.779 437.316 150.779C436.473 150.779 435.712 151.066 435.033 151.641V150.492C435.721 150.055 436.514 149.836 437.412 149.836C439.057 149.836 439.88 150.706 439.88 152.447V157ZM438.759 153.459L437.07 153.691C436.551 153.764 436.159 153.894 435.895 154.081C435.63 154.263 435.498 154.589 435.498 155.059C435.498 155.4 435.619 155.681 435.86 155.899C436.106 156.114 436.432 156.221 436.838 156.221C437.394 156.221 437.852 156.027 438.212 155.64C438.576 155.248 438.759 154.753 438.759 154.156V153.459ZM451.932 157H450.811V152.98C450.811 152.206 450.69 151.645 450.448 151.299C450.211 150.952 449.81 150.779 449.245 150.779C448.767 150.779 448.359 150.998 448.021 151.436C447.689 151.873 447.522 152.397 447.522 153.008V157H446.401V152.844C446.401 151.467 445.87 150.779 444.809 150.779C444.316 150.779 443.911 150.987 443.592 151.401C443.273 151.812 443.113 152.347 443.113 153.008V157H441.992V150H443.113V151.107H443.141C443.637 150.26 444.362 149.836 445.314 149.836C445.793 149.836 446.21 149.97 446.565 150.239C446.921 150.504 447.165 150.852 447.297 151.285C447.816 150.319 448.591 149.836 449.621 149.836C451.161 149.836 451.932 150.786 451.932 152.687V157Z" fill="url(#paint4_linear_34_13297)"/>
<path d="M312.957 243.59C312.232 243.973 311.33 244.164 310.25 244.164C308.855 244.164 307.739 243.715 306.9 242.817C306.062 241.92 305.643 240.742 305.643 239.283C305.643 237.715 306.114 236.449 307.058 235.482C308.001 234.516 309.197 234.033 310.646 234.033C311.576 234.033 312.346 234.168 312.957 234.437V235.66C312.255 235.268 311.48 235.072 310.633 235.072C309.507 235.072 308.593 235.448 307.892 236.2C307.194 236.952 306.846 237.957 306.846 239.215C306.846 240.409 307.172 241.361 307.823 242.072C308.479 242.779 309.339 243.132 310.4 243.132C311.385 243.132 312.237 242.913 312.957 242.476V243.59ZM317.729 244.164C316.694 244.164 315.867 243.838 315.247 243.187C314.632 242.53 314.324 241.662 314.324 240.582C314.324 239.406 314.646 238.488 315.288 237.827C315.931 237.166 316.799 236.836 317.893 236.836C318.936 236.836 319.75 237.157 320.333 237.8C320.921 238.442 321.215 239.333 321.215 240.473C321.215 241.589 320.898 242.485 320.265 243.159C319.636 243.829 318.79 244.164 317.729 244.164ZM317.811 237.779C317.09 237.779 316.521 238.025 316.102 238.518C315.682 239.005 315.473 239.68 315.473 240.541C315.473 241.37 315.685 242.024 316.108 242.503C316.532 242.981 317.1 243.221 317.811 243.221C318.535 243.221 319.091 242.986 319.479 242.517C319.87 242.047 320.066 241.38 320.066 240.514C320.066 239.639 319.87 238.964 319.479 238.49C319.091 238.016 318.535 237.779 317.811 237.779ZM332.945 244H331.824V239.98C331.824 239.206 331.703 238.645 331.462 238.299C331.225 237.952 330.824 237.779 330.259 237.779C329.78 237.779 329.372 237.998 329.035 238.436C328.702 238.873 328.536 239.397 328.536 240.008V244H327.415V239.844C327.415 238.467 326.884 237.779 325.822 237.779C325.33 237.779 324.924 237.987 324.605 238.401C324.286 238.812 324.127 239.347 324.127 240.008V244H323.006V237H324.127V238.107H324.154C324.651 237.26 325.376 236.836 326.328 236.836C326.807 236.836 327.224 236.97 327.579 237.239C327.935 237.504 328.178 237.852 328.311 238.285C328.83 237.319 329.605 236.836 330.635 236.836C332.175 236.836 332.945 237.786 332.945 239.687V244ZM336.213 242.988H336.186V247.22H335.064V237H336.186V238.23H336.213C336.764 237.301 337.571 236.836 338.633 236.836C339.535 236.836 340.239 237.15 340.745 237.779C341.251 238.404 341.504 239.242 341.504 240.295C341.504 241.466 341.219 242.405 340.649 243.111C340.08 243.813 339.3 244.164 338.312 244.164C337.405 244.164 336.705 243.772 336.213 242.988ZM336.186 240.165V241.143C336.186 241.721 336.372 242.214 336.746 242.619C337.124 243.02 337.603 243.221 338.182 243.221C338.861 243.221 339.392 242.961 339.774 242.441C340.162 241.922 340.355 241.2 340.355 240.274C340.355 239.495 340.175 238.884 339.815 238.442C339.455 238 338.968 237.779 338.353 237.779C337.701 237.779 337.177 238.007 336.78 238.463C336.384 238.914 336.186 239.481 336.186 240.165ZM344.416 244H343.295V233.637H344.416V244ZM352.312 240.78H347.369C347.387 241.56 347.597 242.161 347.998 242.585C348.399 243.009 348.951 243.221 349.652 243.221C350.441 243.221 351.165 242.961 351.826 242.441V243.494C351.211 243.941 350.397 244.164 349.386 244.164C348.397 244.164 347.62 243.847 347.055 243.214C346.49 242.576 346.207 241.68 346.207 240.527C346.207 239.438 346.515 238.552 347.13 237.868C347.75 237.18 348.518 236.836 349.434 236.836C350.35 236.836 351.058 237.132 351.56 237.725C352.061 238.317 352.312 239.14 352.312 240.192V240.78ZM351.163 239.83C351.159 239.183 351.001 238.679 350.691 238.319C350.386 237.959 349.96 237.779 349.413 237.779C348.884 237.779 348.436 237.968 348.066 238.347C347.697 238.725 347.469 239.219 347.383 239.83H351.163ZM357.261 243.932C356.996 244.077 356.648 244.15 356.215 244.15C354.989 244.15 354.376 243.467 354.376 242.1V237.957H353.173V237H354.376V235.291L355.497 234.929V237H357.261V237.957H355.497V241.901C355.497 242.371 355.577 242.706 355.736 242.906C355.896 243.107 356.16 243.207 356.529 243.207C356.812 243.207 357.056 243.13 357.261 242.975V243.932ZM364.384 240.78H359.441C359.46 241.56 359.669 242.161 360.07 242.585C360.471 243.009 361.023 243.221 361.725 243.221C362.513 243.221 363.238 242.961 363.898 242.441V243.494C363.283 243.941 362.47 244.164 361.458 244.164C360.469 244.164 359.692 243.847 359.127 243.214C358.562 242.576 358.279 241.68 358.279 240.527C358.279 239.438 358.587 238.552 359.202 237.868C359.822 237.18 360.59 236.836 361.506 236.836C362.422 236.836 363.131 237.132 363.632 237.725C364.133 238.317 364.384 239.14 364.384 240.192V240.78ZM363.235 239.83C363.231 239.183 363.074 238.679 362.764 238.319C362.458 237.959 362.032 237.779 361.485 237.779C360.957 237.779 360.508 237.968 360.139 238.347C359.77 238.725 359.542 239.219 359.455 239.83H363.235ZM374.938 244H373.817V242.906H373.79C373.302 243.745 372.585 244.164 371.637 244.164C370.939 244.164 370.393 243.979 369.996 243.61C369.604 243.241 369.408 242.751 369.408 242.141C369.408 240.833 370.178 240.072 371.719 239.857L373.817 239.563C373.817 238.374 373.337 237.779 372.375 237.779C371.532 237.779 370.771 238.066 370.092 238.641V237.492C370.78 237.055 371.573 236.836 372.471 236.836C374.116 236.836 374.938 237.706 374.938 239.447V244ZM373.817 240.459L372.129 240.691C371.609 240.764 371.217 240.894 370.953 241.081C370.689 241.263 370.557 241.589 370.557 242.059C370.557 242.4 370.677 242.681 370.919 242.899C371.165 243.114 371.491 243.221 371.896 243.221C372.452 243.221 372.91 243.027 373.271 242.64C373.635 242.248 373.817 241.753 373.817 241.156V240.459ZM376.627 243.747V242.544C377.238 242.995 377.91 243.221 378.644 243.221C379.628 243.221 380.12 242.893 380.12 242.236C380.12 242.049 380.077 241.892 379.99 241.765C379.908 241.632 379.794 241.516 379.648 241.416C379.507 241.316 379.339 241.227 379.143 241.149C378.951 241.067 378.744 240.983 378.521 240.896C378.211 240.773 377.937 240.65 377.7 240.527C377.468 240.4 377.272 240.258 377.112 240.104C376.957 239.944 376.839 239.764 376.757 239.563C376.679 239.363 376.641 239.128 376.641 238.859C376.641 238.531 376.716 238.242 376.866 237.991C377.017 237.736 377.217 237.524 377.468 237.355C377.718 237.182 378.003 237.052 378.322 236.966C378.646 236.879 378.979 236.836 379.32 236.836C379.926 236.836 380.469 236.941 380.947 237.15V238.285C380.432 237.948 379.84 237.779 379.17 237.779C378.96 237.779 378.771 237.804 378.603 237.854C378.434 237.9 378.288 237.966 378.165 238.053C378.047 238.139 377.953 238.244 377.885 238.367C377.821 238.486 377.789 238.618 377.789 238.764C377.789 238.946 377.821 239.099 377.885 239.222C377.953 239.345 378.051 239.454 378.179 239.55C378.306 239.646 378.461 239.732 378.644 239.81C378.826 239.887 379.033 239.971 379.266 240.062C379.576 240.181 379.854 240.304 380.1 240.432C380.346 240.555 380.555 240.696 380.729 240.855C380.902 241.01 381.034 241.19 381.125 241.396C381.221 241.601 381.269 241.844 381.269 242.127C381.269 242.473 381.191 242.774 381.036 243.029C380.886 243.285 380.683 243.496 380.428 243.665C380.173 243.834 379.879 243.959 379.546 244.041C379.213 244.123 378.865 244.164 378.5 244.164C377.78 244.164 377.156 244.025 376.627 243.747ZM382.574 243.747V242.544C383.185 242.995 383.857 243.221 384.591 243.221C385.575 243.221 386.067 242.893 386.067 242.236C386.067 242.049 386.024 241.892 385.938 241.765C385.855 241.632 385.742 241.516 385.596 241.416C385.454 241.316 385.286 241.227 385.09 241.149C384.898 241.067 384.691 240.983 384.468 240.896C384.158 240.773 383.884 240.65 383.647 240.527C383.415 240.4 383.219 240.258 383.06 240.104C382.905 239.944 382.786 239.764 382.704 239.563C382.627 239.363 382.588 239.128 382.588 238.859C382.588 238.531 382.663 238.242 382.813 237.991C382.964 237.736 383.164 237.524 383.415 237.355C383.666 237.182 383.951 237.052 384.27 236.966C384.593 236.879 384.926 236.836 385.268 236.836C385.874 236.836 386.416 236.941 386.895 237.15V238.285C386.38 237.948 385.787 237.779 385.117 237.779C384.908 237.779 384.718 237.804 384.55 237.854C384.381 237.9 384.235 237.966 384.112 238.053C383.994 238.139 383.9 238.244 383.832 238.367C383.768 238.486 383.736 238.618 383.736 238.764C383.736 238.946 383.768 239.099 383.832 239.222C383.9 239.345 383.998 239.454 384.126 239.55C384.254 239.646 384.409 239.732 384.591 239.81C384.773 239.887 384.98 239.971 385.213 240.062C385.523 240.181 385.801 240.304 386.047 240.432C386.293 240.555 386.503 240.696 386.676 240.855C386.849 241.01 386.981 241.19 387.072 241.396C387.168 241.601 387.216 241.844 387.216 242.127C387.216 242.473 387.138 242.774 386.983 243.029C386.833 243.285 386.63 243.496 386.375 243.665C386.12 243.834 385.826 243.959 385.493 244.041C385.16 244.123 384.812 244.164 384.447 244.164C383.727 244.164 383.103 244.025 382.574 243.747ZM394.571 240.78H389.629C389.647 241.56 389.857 242.161 390.258 242.585C390.659 243.009 391.21 243.221 391.912 243.221C392.701 243.221 393.425 242.961 394.086 242.441V243.494C393.471 243.941 392.657 244.164 391.646 244.164C390.657 244.164 389.88 243.847 389.314 243.214C388.749 242.576 388.467 241.68 388.467 240.527C388.467 239.438 388.774 238.552 389.39 237.868C390.009 237.18 390.777 236.836 391.693 236.836C392.609 236.836 393.318 237.132 393.819 237.725C394.321 238.317 394.571 239.14 394.571 240.192V240.78ZM393.423 239.83C393.418 239.183 393.261 238.679 392.951 238.319C392.646 237.959 392.22 237.779 391.673 237.779C391.144 237.779 390.695 237.968 390.326 238.347C389.957 238.725 389.729 239.219 389.643 239.83H393.423ZM395.85 243.747V242.544C396.46 242.995 397.132 243.221 397.866 243.221C398.851 243.221 399.343 242.893 399.343 242.236C399.343 242.049 399.299 241.892 399.213 241.765C399.131 241.632 399.017 241.516 398.871 241.416C398.73 241.316 398.561 241.227 398.365 241.149C398.174 241.067 397.966 240.983 397.743 240.896C397.433 240.773 397.16 240.65 396.923 240.527C396.69 240.4 396.494 240.258 396.335 240.104C396.18 239.944 396.062 239.764 395.979 239.563C395.902 239.363 395.863 239.128 395.863 238.859C395.863 238.531 395.938 238.242 396.089 237.991C396.239 237.736 396.44 237.524 396.69 237.355C396.941 237.182 397.226 237.052 397.545 236.966C397.868 236.879 398.201 236.836 398.543 236.836C399.149 236.836 399.691 236.941 400.17 237.15V238.285C399.655 237.948 399.062 237.779 398.393 237.779C398.183 237.779 397.994 237.804 397.825 237.854C397.657 237.9 397.511 237.966 397.388 238.053C397.269 238.139 397.176 238.244 397.107 238.367C397.044 238.486 397.012 238.618 397.012 238.764C397.012 238.946 397.044 239.099 397.107 239.222C397.176 239.345 397.274 239.454 397.401 239.55C397.529 239.646 397.684 239.732 397.866 239.81C398.049 239.887 398.256 239.971 398.488 240.062C398.798 240.181 399.076 240.304 399.322 240.432C399.568 240.555 399.778 240.696 399.951 240.855C400.124 241.01 400.257 241.19 400.348 241.396C400.443 241.601 400.491 241.844 400.491 242.127C400.491 242.473 400.414 242.774 400.259 243.029C400.108 243.285 399.906 243.496 399.65 243.665C399.395 243.834 399.101 243.959 398.769 244.041C398.436 244.123 398.087 244.164 397.723 244.164C397.003 244.164 396.378 244.025 395.85 243.747ZM401.797 243.747V242.544C402.408 242.995 403.08 243.221 403.813 243.221C404.798 243.221 405.29 242.893 405.29 242.236C405.29 242.049 405.247 241.892 405.16 241.765C405.078 241.632 404.964 241.516 404.818 241.416C404.677 241.316 404.508 241.227 404.312 241.149C404.121 241.067 403.914 240.983 403.69 240.896C403.381 240.773 403.107 240.65 402.87 240.527C402.638 240.4 402.442 240.258 402.282 240.104C402.127 239.944 402.009 239.764 401.927 239.563C401.849 239.363 401.811 239.128 401.811 238.859C401.811 238.531 401.886 238.242 402.036 237.991C402.187 237.736 402.387 237.524 402.638 237.355C402.888 237.182 403.173 237.052 403.492 236.966C403.816 236.879 404.148 236.836 404.49 236.836C405.096 236.836 405.639 236.941 406.117 237.15V238.285C405.602 237.948 405.01 237.779 404.34 237.779C404.13 237.779 403.941 237.804 403.772 237.854C403.604 237.9 403.458 237.966 403.335 238.053C403.216 238.139 403.123 238.244 403.055 238.367C402.991 238.486 402.959 238.618 402.959 238.764C402.959 238.946 402.991 239.099 403.055 239.222C403.123 239.345 403.221 239.454 403.349 239.55C403.476 239.646 403.631 239.732 403.813 239.81C403.996 239.887 404.203 239.971 404.436 240.062C404.745 240.181 405.023 240.304 405.27 240.432C405.516 240.555 405.725 240.696 405.898 240.855C406.072 241.01 406.204 241.19 406.295 241.396C406.391 241.601 406.438 241.844 406.438 242.127C406.438 242.473 406.361 242.774 406.206 243.029C406.056 243.285 405.853 243.496 405.598 243.665C405.342 243.834 405.049 243.959 404.716 244.041C404.383 244.123 404.035 244.164 403.67 244.164C402.95 244.164 402.326 244.025 401.797 243.747ZM418.107 244H416.986V239.98C416.986 239.206 416.866 238.645 416.624 238.299C416.387 237.952 415.986 237.779 415.421 237.779C414.942 237.779 414.535 237.998 414.197 238.436C413.865 238.873 413.698 239.397 413.698 240.008V244H412.577V239.844C412.577 238.467 412.046 237.779 410.984 237.779C410.492 237.779 410.087 237.987 409.768 238.401C409.449 238.812 409.289 239.347 409.289 240.008V244H408.168V237H409.289V238.107H409.316C409.813 237.26 410.538 236.836 411.49 236.836C411.969 236.836 412.386 236.97 412.741 237.239C413.097 237.504 413.34 237.852 413.473 238.285C413.992 237.319 414.767 236.836 415.797 236.836C417.337 236.836 418.107 237.786 418.107 239.687V244ZM425.853 240.78H420.91C420.928 241.56 421.138 242.161 421.539 242.585C421.94 243.009 422.492 243.221 423.193 243.221C423.982 243.221 424.706 242.961 425.367 242.441V243.494C424.752 243.941 423.938 244.164 422.927 244.164C421.938 244.164 421.161 243.847 420.596 243.214C420.031 242.576 419.748 241.68 419.748 240.527C419.748 239.438 420.056 238.552 420.671 237.868C421.291 237.18 422.059 236.836 422.975 236.836C423.891 236.836 424.599 237.132 425.101 237.725C425.602 238.317 425.853 239.14 425.853 240.192V240.78ZM424.704 239.83C424.7 239.183 424.542 238.679 424.232 238.319C423.927 237.959 423.501 237.779 422.954 237.779C422.425 237.779 421.977 237.968 421.607 238.347C421.238 238.725 421.01 239.219 420.924 239.83H424.704ZM433.365 244H432.244V240.008C432.244 238.522 431.702 237.779 430.617 237.779C430.057 237.779 429.592 237.991 429.223 238.415C428.858 238.834 428.676 239.365 428.676 240.008V244H427.555V237H428.676V238.162H428.703C429.232 237.278 429.997 236.836 431 236.836C431.766 236.836 432.351 237.084 432.757 237.581C433.162 238.073 433.365 238.786 433.365 239.721V244ZM438.731 243.932C438.467 244.077 438.118 244.15 437.686 244.15C436.46 244.15 435.847 243.467 435.847 242.1V237.957H434.644V237H435.847V235.291L436.968 234.929V237H438.731V237.957H436.968V241.901C436.968 242.371 437.048 242.706 437.207 242.906C437.367 243.107 437.631 243.207 438 243.207C438.283 243.207 438.526 243.13 438.731 242.975V243.932ZM439.805 243.747V242.544C440.415 242.995 441.088 243.221 441.821 243.221C442.806 243.221 443.298 242.893 443.298 242.236C443.298 242.049 443.255 241.892 443.168 241.765C443.086 241.632 442.972 241.516 442.826 241.416C442.685 241.316 442.516 241.227 442.32 241.149C442.129 241.067 441.922 240.983 441.698 240.896C441.388 240.773 441.115 240.65 440.878 240.527C440.646 240.4 440.45 240.258 440.29 240.104C440.135 239.944 440.017 239.764 439.935 239.563C439.857 239.363 439.818 239.128 439.818 238.859C439.818 238.531 439.894 238.242 440.044 237.991C440.194 237.736 440.395 237.524 440.646 237.355C440.896 237.182 441.181 237.052 441.5 236.966C441.824 236.879 442.156 236.836 442.498 236.836C443.104 236.836 443.646 236.941 444.125 237.15V238.285C443.61 237.948 443.018 237.779 442.348 237.779C442.138 237.779 441.949 237.804 441.78 237.854C441.612 237.9 441.466 237.966 441.343 238.053C441.224 238.139 441.131 238.244 441.062 238.367C440.999 238.486 440.967 238.618 440.967 238.764C440.967 238.946 440.999 239.099 441.062 239.222C441.131 239.345 441.229 239.454 441.356 239.55C441.484 239.646 441.639 239.732 441.821 239.81C442.004 239.887 442.211 239.971 442.443 240.062C442.753 240.181 443.031 240.304 443.277 240.432C443.523 240.555 443.733 240.696 443.906 240.855C444.079 241.01 444.212 241.19 444.303 241.396C444.398 241.601 444.446 241.844 444.446 242.127C444.446 242.473 444.369 242.774 444.214 243.029C444.063 243.285 443.861 243.496 443.605 243.665C443.35 243.834 443.056 243.959 442.724 244.041C442.391 244.123 442.042 244.164 441.678 244.164C440.958 244.164 440.333 244.025 439.805 243.747Z" fill="url(#paint5_linear_34_13297)"/>
<path d="M307.434 197.295V201H306.285V191.197H308.979C310.027 191.197 310.838 191.452 311.412 191.963C311.991 192.473 312.28 193.193 312.28 194.123C312.28 195.053 311.959 195.814 311.316 196.406C310.678 196.999 309.815 197.295 308.726 197.295H307.434ZM307.434 192.236V196.256H308.637C309.43 196.256 310.034 196.076 310.448 195.716C310.868 195.351 311.077 194.839 311.077 194.178C311.077 192.883 310.312 192.236 308.78 192.236H307.434ZM317.633 195.135C317.437 194.984 317.154 194.909 316.785 194.909C316.307 194.909 315.906 195.135 315.582 195.586C315.263 196.037 315.104 196.652 315.104 197.432V201H313.982V194H315.104V195.442H315.131C315.29 194.95 315.534 194.567 315.862 194.294C316.19 194.016 316.557 193.877 316.963 193.877C317.255 193.877 317.478 193.909 317.633 193.973V195.135ZM324.476 197.78H319.533C319.551 198.56 319.761 199.161 320.162 199.585C320.563 200.009 321.115 200.221 321.816 200.221C322.605 200.221 323.329 199.961 323.99 199.441V200.494C323.375 200.941 322.562 201.164 321.55 201.164C320.561 201.164 319.784 200.847 319.219 200.214C318.654 199.576 318.371 198.68 318.371 197.527C318.371 196.438 318.679 195.552 319.294 194.868C319.914 194.18 320.682 193.836 321.598 193.836C322.514 193.836 323.222 194.132 323.724 194.725C324.225 195.317 324.476 196.14 324.476 197.192V197.78ZM323.327 196.83C323.323 196.183 323.165 195.679 322.855 195.319C322.55 194.959 322.124 194.779 321.577 194.779C321.049 194.779 320.6 194.968 320.23 195.347C319.861 195.725 319.633 196.219 319.547 196.83H323.327ZM327.326 199.988H327.299V204.22H326.178V194H327.299V195.23H327.326C327.878 194.301 328.684 193.836 329.746 193.836C330.648 193.836 331.353 194.15 331.858 194.779C332.364 195.404 332.617 196.242 332.617 197.295C332.617 198.466 332.332 199.405 331.763 200.111C331.193 200.813 330.414 201.164 329.425 201.164C328.518 201.164 327.818 200.772 327.326 199.988ZM327.299 197.165V198.143C327.299 198.721 327.486 199.214 327.859 199.619C328.238 200.02 328.716 200.221 329.295 200.221C329.974 200.221 330.505 199.961 330.888 199.441C331.275 198.922 331.469 198.2 331.469 197.274C331.469 196.495 331.289 195.884 330.929 195.442C330.569 195 330.081 194.779 329.466 194.779C328.814 194.779 328.29 195.007 327.894 195.463C327.497 195.914 327.299 196.481 327.299 197.165ZM339.419 201H338.298V199.906H338.271C337.783 200.745 337.065 201.164 336.117 201.164C335.42 201.164 334.873 200.979 334.477 200.61C334.085 200.241 333.889 199.751 333.889 199.141C333.889 197.833 334.659 197.072 336.199 196.857L338.298 196.563C338.298 195.374 337.817 194.779 336.855 194.779C336.012 194.779 335.251 195.066 334.572 195.641V194.492C335.26 194.055 336.053 193.836 336.951 193.836C338.596 193.836 339.419 194.706 339.419 196.447V201ZM338.298 197.459L336.609 197.691C336.09 197.764 335.698 197.894 335.434 198.081C335.169 198.263 335.037 198.589 335.037 199.059C335.037 199.4 335.158 199.681 335.399 199.899C335.646 200.114 335.971 200.221 336.377 200.221C336.933 200.221 337.391 200.027 337.751 199.64C338.116 199.248 338.298 198.753 338.298 198.156V197.459ZM345.182 195.135C344.986 194.984 344.703 194.909 344.334 194.909C343.855 194.909 343.454 195.135 343.131 195.586C342.812 196.037 342.652 196.652 342.652 197.432V201H341.531V194H342.652V195.442H342.68C342.839 194.95 343.083 194.567 343.411 194.294C343.739 194.016 344.106 193.877 344.512 193.877C344.803 193.877 345.027 193.909 345.182 193.973V195.135ZM352.024 197.78H347.082C347.1 198.56 347.31 199.161 347.711 199.585C348.112 200.009 348.663 200.221 349.365 200.221C350.154 200.221 350.878 199.961 351.539 199.441V200.494C350.924 200.941 350.11 201.164 349.099 201.164C348.11 201.164 347.333 200.847 346.768 200.214C346.202 199.576 345.92 198.68 345.92 197.527C345.92 196.438 346.228 195.552 346.843 194.868C347.463 194.18 348.23 193.836 349.146 193.836C350.062 193.836 350.771 194.132 351.272 194.725C351.774 195.317 352.024 196.14 352.024 197.192V197.78ZM350.876 196.83C350.871 196.183 350.714 195.679 350.404 195.319C350.099 194.959 349.673 194.779 349.126 194.779C348.597 194.779 348.148 194.968 347.779 195.347C347.41 195.725 347.182 196.219 347.096 196.83H350.876ZM366.387 194L364.288 201H363.126L361.684 195.989C361.629 195.798 361.592 195.581 361.574 195.34H361.547C361.533 195.504 361.485 195.716 361.403 195.976L359.838 201H358.717L356.598 194H357.773L359.223 199.264C359.268 199.423 359.3 199.633 359.318 199.893H359.373C359.387 199.692 359.428 199.478 359.496 199.25L361.109 194H362.135L363.584 199.277C363.63 199.446 363.664 199.656 363.687 199.906H363.741C363.75 199.729 363.789 199.519 363.857 199.277L365.279 194H366.387ZM370.611 201.164C369.577 201.164 368.75 200.838 368.13 200.187C367.515 199.53 367.207 198.662 367.207 197.582C367.207 196.406 367.528 195.488 368.171 194.827C368.813 194.166 369.682 193.836 370.775 193.836C371.819 193.836 372.632 194.157 373.216 194.8C373.804 195.442 374.098 196.333 374.098 197.473C374.098 198.589 373.781 199.485 373.147 200.159C372.519 200.829 371.673 201.164 370.611 201.164ZM370.693 194.779C369.973 194.779 369.404 195.025 368.984 195.518C368.565 196.005 368.355 196.68 368.355 197.541C368.355 198.37 368.567 199.024 368.991 199.503C369.415 199.981 369.982 200.221 370.693 200.221C371.418 200.221 371.974 199.986 372.361 199.517C372.753 199.047 372.949 198.38 372.949 197.514C372.949 196.639 372.753 195.964 372.361 195.49C371.974 195.016 371.418 194.779 370.693 194.779ZM379.539 195.135C379.343 194.984 379.061 194.909 378.691 194.909C378.213 194.909 377.812 195.135 377.488 195.586C377.169 196.037 377.01 196.652 377.01 197.432V201H375.889V194H377.01V195.442H377.037C377.197 194.95 377.44 194.567 377.769 194.294C378.097 194.016 378.464 193.877 378.869 193.877C379.161 193.877 379.384 193.909 379.539 193.973V195.135ZM386.566 201H384.994L381.904 197.637H381.877V201H380.756V190.637H381.877V197.206H381.904L384.844 194H386.313L383.066 197.377L386.566 201ZM387.291 200.747V199.544C387.902 199.995 388.574 200.221 389.308 200.221C390.292 200.221 390.784 199.893 390.784 199.236C390.784 199.049 390.741 198.892 390.654 198.765C390.572 198.632 390.458 198.516 390.312 198.416C390.171 198.316 390.003 198.227 389.807 198.149C389.615 198.067 389.408 197.983 389.185 197.896C388.875 197.773 388.601 197.65 388.364 197.527C388.132 197.4 387.936 197.258 387.776 197.104C387.621 196.944 387.503 196.764 387.421 196.563C387.343 196.363 387.305 196.128 387.305 195.859C387.305 195.531 387.38 195.242 387.53 194.991C387.681 194.736 387.881 194.524 388.132 194.355C388.382 194.182 388.667 194.052 388.986 193.966C389.31 193.879 389.643 193.836 389.984 193.836C390.59 193.836 391.133 193.941 391.611 194.15V195.285C391.096 194.948 390.504 194.779 389.834 194.779C389.624 194.779 389.435 194.804 389.267 194.854C389.098 194.9 388.952 194.966 388.829 195.053C388.711 195.139 388.617 195.244 388.549 195.367C388.485 195.486 388.453 195.618 388.453 195.764C388.453 195.946 388.485 196.099 388.549 196.222C388.617 196.345 388.715 196.454 388.843 196.55C388.97 196.646 389.125 196.732 389.308 196.81C389.49 196.887 389.697 196.971 389.93 197.062C390.24 197.181 390.518 197.304 390.764 197.432C391.01 197.555 391.219 197.696 391.393 197.855C391.566 198.01 391.698 198.19 391.789 198.396C391.885 198.601 391.933 198.844 391.933 199.127C391.933 199.473 391.855 199.774 391.7 200.029C391.55 200.285 391.347 200.496 391.092 200.665C390.837 200.834 390.543 200.959 390.21 201.041C389.877 201.123 389.529 201.164 389.164 201.164C388.444 201.164 387.82 201.025 387.291 200.747ZM399.473 201H398.352V196.967C398.352 195.508 397.809 194.779 396.725 194.779C396.178 194.779 395.717 194.991 395.344 195.415C394.97 195.834 394.783 196.374 394.783 197.035V201H393.662V190.637H394.783V195.162H394.811C395.348 194.278 396.114 193.836 397.107 193.836C398.684 193.836 399.473 194.786 399.473 196.687V201ZM404.518 201.164C403.483 201.164 402.656 200.838 402.036 200.187C401.421 199.53 401.113 198.662 401.113 197.582C401.113 196.406 401.435 195.488 402.077 194.827C402.72 194.166 403.588 193.836 404.682 193.836C405.725 193.836 406.539 194.157 407.122 194.8C407.71 195.442 408.004 196.333 408.004 197.473C408.004 198.589 407.687 199.485 407.054 200.159C406.425 200.829 405.579 201.164 404.518 201.164ZM404.6 194.779C403.88 194.779 403.31 195.025 402.891 195.518C402.471 196.005 402.262 196.68 402.262 197.541C402.262 198.37 402.474 199.024 402.897 199.503C403.321 199.981 403.889 200.221 404.6 200.221C405.324 200.221 405.88 199.986 406.268 199.517C406.66 199.047 406.855 198.38 406.855 197.514C406.855 196.639 406.66 195.964 406.268 195.49C405.88 195.016 405.324 194.779 404.6 194.779ZM410.943 199.988H410.916V204.22H409.795V194H410.916V195.23H410.943C411.495 194.301 412.301 193.836 413.363 193.836C414.266 193.836 414.97 194.15 415.476 194.779C415.981 195.404 416.234 196.242 416.234 197.295C416.234 198.466 415.95 199.405 415.38 200.111C414.81 200.813 414.031 201.164 413.042 201.164C412.135 201.164 411.436 200.772 410.943 199.988ZM410.916 197.165V198.143C410.916 198.721 411.103 199.214 411.477 199.619C411.855 200.02 412.333 200.221 412.912 200.221C413.591 200.221 414.122 199.961 414.505 199.441C414.892 198.922 415.086 198.2 415.086 197.274C415.086 196.495 414.906 195.884 414.546 195.442C414.186 195 413.698 194.779 413.083 194.779C412.431 194.779 411.907 195.007 411.511 195.463C411.114 195.914 410.916 196.481 410.916 197.165ZM417.602 200.747V199.544C418.212 199.995 418.884 200.221 419.618 200.221C420.603 200.221 421.095 199.893 421.095 199.236C421.095 199.049 421.051 198.892 420.965 198.765C420.883 198.632 420.769 198.516 420.623 198.416C420.482 198.316 420.313 198.227 420.117 198.149C419.926 198.067 419.718 197.983 419.495 197.896C419.185 197.773 418.912 197.65 418.675 197.527C418.442 197.4 418.246 197.258 418.087 197.104C417.932 196.944 417.813 196.764 417.731 196.563C417.654 196.363 417.615 196.128 417.615 195.859C417.615 195.531 417.69 195.242 417.841 194.991C417.991 194.736 418.192 194.524 418.442 194.355C418.693 194.182 418.978 194.052 419.297 193.966C419.62 193.879 419.953 193.836 420.295 193.836C420.901 193.836 421.443 193.941 421.922 194.15V195.285C421.407 194.948 420.814 194.779 420.145 194.779C419.935 194.779 419.746 194.804 419.577 194.854C419.409 194.9 419.263 194.966 419.14 195.053C419.021 195.139 418.928 195.244 418.859 195.367C418.796 195.486 418.764 195.618 418.764 195.764C418.764 195.946 418.796 196.099 418.859 196.222C418.928 196.345 419.026 196.454 419.153 196.55C419.281 196.646 419.436 196.732 419.618 196.81C419.8 196.887 420.008 196.971 420.24 197.062C420.55 197.181 420.828 197.304 421.074 197.432C421.32 197.555 421.53 197.696 421.703 197.855C421.876 198.01 422.008 198.19 422.1 198.396C422.195 198.601 422.243 198.844 422.243 199.127C422.243 199.473 422.166 199.774 422.011 200.029C421.86 200.285 421.658 200.496 421.402 200.665C421.147 200.834 420.853 200.959 420.521 201.041C420.188 201.123 419.839 201.164 419.475 201.164C418.755 201.164 418.13 201.025 417.602 200.747Z" fill="url(#paint6_linear_34_13297)"/>
<path d="M268 142.5C268 140.567 269.567 139 271.5 139H290.5C292.433 139 294 140.567 294 142.5V161.5C294 163.433 292.433 165 290.5 165H271.5C269.567 165 268 163.433 268 161.5V142.5Z" fill="url(#paint7_linear_34_13297)"/>
<path d="M268 142.5C268 140.567 269.567 139 271.5 139H290.5C292.433 139 294 140.567 294 142.5V161.5C294 163.433 292.433 165 290.5 165H271.5C269.567 165 268 163.433 268 161.5V142.5Z" fill="url(#paint8_radial_34_13297)" fill-opacity="0.2"/>
<path fill-rule="evenodd" clip-rule="evenodd" d="M290.5 140H271.5C270.119 140 269 141.119 269 142.5V161.5C269 162.881 270.119 164 271.5 164H290.5C291.881 164 293 162.881 293 161.5V142.5C293 141.119 291.881 140 290.5 140ZM271.5 139C269.567 139 268 140.567 268 142.5V161.5C268 163.433 269.567 165 271.5 165H290.5C292.433 165 294 163.433 294 161.5V142.5C294 140.567 292.433 139 290.5 139H271.5Z" fill="url(#paint9_linear_34_13297)"/>
<path d="M273.025 151.256L274.025 148.439C274.061 148.322 274.134 148.224 274.206 148.146L274.734 147.579L274.461 147.266C274.315 147.109 274.315 146.835 274.461 146.679L275.024 146.072C275.17 145.916 275.424 145.916 275.57 146.072L275.86 146.366L277.478 144.625C277.623 144.468 277.878 144.468 278.023 144.625L279.786 146.542C279.932 146.698 279.932 146.972 279.786 147.129L278.223 148.83L287.274 158.142C287.42 158.298 287.42 158.572 287.274 158.729L286.202 159.883C286.057 160.039 285.802 160.039 285.657 159.883L277.005 150.141L276.551 150.63C276.46 150.728 276.351 150.787 276.242 150.826L273.516 151.784C273.37 151.823 273.225 151.784 273.116 151.667C273.007 151.569 272.971 151.393 273.025 151.256Z" fill="url(#paint10_linear_34_13297)"/>
<path d="M283.93 148.165L281.567 146.483C281.477 146.405 281.422 146.307 281.404 146.19C281.404 146.072 281.44 145.955 281.513 145.857L283.149 144.116C283.276 143.979 283.494 143.96 283.639 144.077L286.42 146.072C286.438 146.072 286.457 146.092 286.457 146.111L286.475 146.131L287.002 146.698L287.038 146.737L287.056 146.757V146.777L288.928 149.711C289.037 149.867 289.019 150.102 288.892 150.239L287.256 151.98C287.184 152.058 287.056 152.117 286.947 152.097C286.838 152.078 286.729 152.019 286.656 151.921L285.13 149.456L282.658 152.234L281.313 150.845L283.93 148.165Z" fill="url(#paint11_linear_34_13297)"/>
<path d="M275.86 159.883C275.715 160.039 275.46 160.039 275.315 159.883L274.224 158.709C274.079 158.552 274.079 158.279 274.224 158.122L278.823 153.408L280.222 154.973L275.86 159.883Z" fill="url(#paint12_linear_34_13297)"/>
<path d="M268 186.5C268 184.567 269.567 183 271.5 183H290.5C292.433 183 294 184.567 294 186.5V205.5C294 207.433 292.433 209 290.5 209H271.5C269.567 209 268 207.433 268 205.5V186.5Z" fill="url(#paint13_linear_34_13297)"/>
<path d="M268 186.5C268 184.567 269.567 183 271.5 183H290.5C292.433 183 294 184.567 294 186.5V205.5C294 207.433 292.433 209 290.5 209H271.5C269.567 209 268 207.433 268 205.5V186.5Z" fill="url(#paint14_radial_34_13297)" fill-opacity="0.2"/>
<path fill-rule="evenodd" clip-rule="evenodd" d="M290.5 184H271.5C270.119 184 269 185.119 269 186.5V205.5C269 206.881 270.119 208 271.5 208H290.5C291.881 208 293 206.881 293 205.5V186.5C293 185.119 291.881 184 290.5 184ZM271.5 183C269.567 183 268 184.567 268 186.5V205.5C268 207.433 269.567 209 271.5 209H290.5C292.433 209 294 207.433 294 205.5V186.5C294 184.567 292.433 183 290.5 183H271.5Z" fill="url(#paint15_linear_34_13297)"/>
<path d="M282.792 191.458C282.792 192.271 282.146 192.917 281.333 192.917C280.521 192.917 279.875 192.271 279.875 191.458C279.875 190.646 280.521 190 281.333 190C282.146 190 282.792 190.667 282.792 191.458Z" fill="url(#paint16_linear_34_13297)"/>
<path d="M288.625 192.292C288.625 193.104 287.979 193.75 287.167 193.75C286.354 193.75 285.708 193.104 285.708 192.292C285.708 191.479 286.354 190.833 287.167 190.833C287.979 190.833 288.625 191.479 288.625 192.292Z" fill="url(#paint17_linear_34_13297)"/>
<path d="M276.958 192.292C276.958 193.104 276.312 193.75 275.5 193.75C274.687 193.75 274.042 193.104 274.042 192.292C274.042 191.479 274.687 190.833 275.5 190.833C276.312 190.833 276.958 191.479 276.958 192.292Z" fill="url(#paint18_linear_34_13297)"/>
<path d="M273.125 201.708C273.125 198.667 276.792 196.208 281.333 196.208C285.854 196.208 289.542 198.667 289.542 201.708H273.125Z" fill="url(#paint19_linear_34_13297)"/>
<path d="M275 196.979C275.875 196.396 276.896 195.937 278 195.646V195.417C278 195.187 277.896 194.958 277.75 194.812C277.687 194.75 277.542 194.667 277.354 194.583C276.208 194.042 274.854 194.042 273.687 194.562C273.479 194.646 273.312 194.75 273.229 194.812C273.104 194.958 273 195.187 273 195.417V198.958C273.479 198.229 274.146 197.542 275 196.979Z" fill="url(#paint20_linear_34_13297)"/>
<path d="M283.833 195.438V194.583C283.833 194.354 283.729 194.125 283.583 193.979C283.521 193.917 283.375 193.833 283.188 193.75C282.042 193.208 280.687 193.208 279.521 193.729C279.312 193.813 279.146 193.917 279.062 193.979C278.896 194.125 278.812 194.354 278.812 194.583V195.438C279.625 195.271 280.458 195.188 281.312 195.188C282.167 195.188 283.021 195.292 283.833 195.438Z" fill="url(#paint21_linear_34_13297)"/>
<path d="M289.667 198.958V195.417C289.667 195.187 289.563 194.958 289.417 194.812C289.354 194.75 289.208 194.667 289.021 194.583C287.875 194.042 286.521 194.042 285.354 194.562C285.146 194.646 284.979 194.75 284.896 194.812C284.729 194.958 284.646 195.187 284.646 195.417V195.646C285.75 195.937 286.771 196.396 287.646 196.979C288.521 197.542 289.188 198.229 289.667 198.958Z" fill="url(#paint22_linear_34_13297)"/>
<path d="M268 229.5C268 227.567 269.567 226 271.5 226H290.5C292.433 226 294 227.567 294 229.5V248.5C294 250.433 292.433 252 290.5 252H271.5C269.567 252 268 250.433 268 248.5V229.5Z" fill="url(#paint23_linear_34_13297)"/>
<path d="M268 229.5C268 227.567 269.567 226 271.5 226H290.5C292.433 226 294 227.567 294 229.5V248.5C294 250.433 292.433 252 290.5 252H271.5C269.567 252 268 250.433 268 248.5V229.5Z" fill="url(#paint24_radial_34_13297)" fill-opacity="0.2"/>
<path fill-rule="evenodd" clip-rule="evenodd" d="M290.5 227H271.5C270.119 227 269 228.119 269 229.5V248.5C269 249.881 270.119 251 271.5 251H290.5C291.881 251 293 249.881 293 248.5V229.5C293 228.119 291.881 227 290.5 227ZM271.5 226C269.567 226 268 227.567 268 229.5V248.5C268 250.433 269.567 252 271.5 252H290.5C292.433 252 294 250.433 294 248.5V229.5C294 227.567 292.433 226 290.5 226H271.5Z" fill="url(#paint25_linear_34_13297)"/>
<path d="M286.209 245.083H275.792V232.167H278.084V233.417H283.917V232.167H286.209V245.083ZM281 230.5C281.346 230.5 281.625 230.78 281.625 231.125C281.625 231.47 281.346 231.75 281 231.75C280.655 231.75 280.375 231.47 280.375 231.125C280.37 230.785 280.64 230.506 280.98 230.5C280.987 230.5 280.993 230.5 281 230.5ZM286.625 230.917H283.084V230.5C283.084 230.04 282.711 229.667 282.25 229.667H279.75C279.29 229.667 278.917 230.04 278.917 230.5V230.917H275.375C274.915 230.917 274.542 231.29 274.542 231.75V245.5C274.542 245.96 274.915 246.333 275.375 246.333H286.625C287.086 246.333 287.459 245.96 287.459 245.5V231.75C287.459 231.29 287.086 230.917 286.625 230.917Z" fill="url(#paint26_linear_34_13297)"/>
<path d="M279.555 239.888L279.112 239.446L278.5 240.058L277.888 239.446L277.446 239.888L278.058 240.5L277.446 241.112L277.888 241.554L278.5 240.942L279.112 241.554L279.555 241.112L278.942 240.5L279.555 239.888Z" fill="url(#paint27_linear_34_13297)"/>
<path d="M279.112 241.946L278.5 242.558L277.888 241.946L277.446 242.388L278.058 243L277.446 243.612L277.888 244.054L278.5 243.442L279.112 244.054L279.555 243.612L278.942 243L279.555 242.388L279.112 241.946Z" fill="url(#paint28_linear_34_13297)"/>
<path d="M281.417 240.083H284.959V240.917H281.417V240.083Z" fill="url(#paint29_linear_34_13297)"/>
<path d="M281.417 242.583H284.959V243.417H281.417V242.583Z" fill="url(#paint30_linear_34_13297)"/>
<path d="M281.417 235.083H284.959V235.917H281.417V235.083Z" fill="url(#paint31_linear_34_13297)"/>
<path d="M281.417 237.583H284.959V238.417H281.417V237.583Z" fill="url(#paint32_linear_34_13297)"/>
<path d="M277.189 235.458L277.625 235.022L278.167 235.564L279.542 234.189L279.978 234.625L278.167 236.436L277.189 235.458Z" fill="url(#paint33_linear_34_13297)"/>
<path d="M277.189 237.958L277.625 237.522L278.167 238.064L279.542 236.689L279.978 237.125L278.167 238.936L277.189 237.958Z" fill="url(#paint34_linear_34_13297)"/>
<path d="M259.75 241.998C259.751 242.412 259.416 242.749 259.002 242.75L252.252 242.766C251.838 242.767 251.501 242.432 251.5 242.017C251.499 241.603 251.834 241.267 252.248 241.266L258.248 241.252L258.234 235.252C258.233 234.838 258.568 234.501 258.983 234.5C259.397 234.499 259.733 234.834 259.734 235.248L259.75 241.998ZM258.451 198.489C258.733 198.186 259.208 198.169 259.511 198.451C259.814 198.733 259.831 199.208 259.549 199.511L258.451 198.489ZM258.471 242.532C246.166 230.283 246.194 211.665 258.451 198.489L259.549 199.511C247.806 212.135 247.834 229.828 259.529 241.468L258.471 242.532Z" fill="#8198AE"/>
<path d="M259.75 194C259.75 194.414 259.414 194.75 259 194.75H252.25C251.836 194.75 251.5 194.414 251.5 194C251.5 193.586 251.836 193.25 252.25 193.25H258.25V187.25C258.25 186.836 258.586 186.5 259 186.5C259.414 186.5 259.75 186.836 259.75 187.25V194ZM258.459 148.48C258.746 148.182 259.221 148.172 259.52 148.459C259.818 148.746 259.828 149.221 259.541 149.52L258.459 148.48ZM258.47 194.53C245.671 181.732 245.686 161.765 258.459 148.48L259.541 149.52C247.314 162.235 247.329 181.268 259.53 193.47L258.47 194.53Z" fill="#8198AE"/>
<path d="M306.285 281V271.197H308.992C312.447 271.197 314.174 272.79 314.174 275.976C314.174 277.489 313.693 278.705 312.731 279.626C311.774 280.542 310.492 281 308.883 281H306.285ZM307.434 272.236V279.961H308.896C310.182 279.961 311.182 279.617 311.897 278.929C312.613 278.241 312.971 277.265 312.971 276.003C312.971 273.492 311.635 272.236 308.965 272.236H307.434ZM321.577 277.78H316.635C316.653 278.56 316.863 279.161 317.264 279.585C317.665 280.009 318.216 280.221 318.918 280.221C319.706 280.221 320.431 279.961 321.092 279.441V280.494C320.477 280.941 319.663 281.164 318.651 281.164C317.662 281.164 316.885 280.847 316.32 280.214C315.755 279.576 315.473 278.68 315.473 277.527C315.473 276.438 315.78 275.552 316.396 274.868C317.015 274.18 317.783 273.836 318.699 273.836C319.615 273.836 320.324 274.132 320.825 274.725C321.326 275.317 321.577 276.14 321.577 277.192V277.78ZM320.429 276.83C320.424 276.183 320.267 275.679 319.957 275.319C319.652 274.959 319.226 274.779 318.679 274.779C318.15 274.779 317.701 274.968 317.332 275.347C316.963 275.725 316.735 276.219 316.648 276.83H320.429ZM328.051 280.679C327.513 281.002 326.875 281.164 326.137 281.164C325.139 281.164 324.332 280.84 323.717 280.193C323.106 279.542 322.801 278.699 322.801 277.664C322.801 276.511 323.131 275.586 323.792 274.889C324.453 274.187 325.335 273.836 326.438 273.836C327.053 273.836 327.595 273.95 328.064 274.178V275.326C327.545 274.962 326.989 274.779 326.396 274.779C325.681 274.779 325.093 275.037 324.633 275.552C324.177 276.062 323.949 276.734 323.949 277.568C323.949 278.389 324.163 279.036 324.592 279.51C325.025 279.984 325.604 280.221 326.328 280.221C326.939 280.221 327.513 280.018 328.051 279.612V280.679ZM330.32 272.223C330.12 272.223 329.949 272.154 329.808 272.018C329.666 271.881 329.596 271.708 329.596 271.498C329.596 271.288 329.666 271.115 329.808 270.979C329.949 270.837 330.12 270.767 330.32 270.767C330.525 270.767 330.699 270.837 330.84 270.979C330.986 271.115 331.059 271.288 331.059 271.498C331.059 271.699 330.986 271.869 330.84 272.011C330.699 272.152 330.525 272.223 330.32 272.223ZM330.867 281H329.746V274H330.867V281ZM339.111 281H337.99V279.811H337.963C337.443 280.713 336.641 281.164 335.557 281.164C334.677 281.164 333.973 280.852 333.444 280.228C332.92 279.599 332.658 278.744 332.658 277.664C332.658 276.507 332.95 275.579 333.533 274.882C334.117 274.185 334.894 273.836 335.864 273.836C336.826 273.836 337.525 274.214 337.963 274.971H337.99V270.637H339.111V281ZM337.99 277.835V276.803C337.99 276.238 337.803 275.759 337.43 275.367C337.056 274.975 336.582 274.779 336.008 274.779C335.324 274.779 334.786 275.03 334.395 275.531C334.003 276.033 333.807 276.725 333.807 277.609C333.807 278.416 333.993 279.054 334.367 279.523C334.745 279.988 335.251 280.221 335.885 280.221C336.509 280.221 337.015 279.995 337.402 279.544C337.794 279.093 337.99 278.523 337.99 277.835ZM347.007 277.78H342.064C342.083 278.56 342.292 279.161 342.693 279.585C343.094 280.009 343.646 280.221 344.348 280.221C345.136 280.221 345.861 279.961 346.521 279.441V280.494C345.906 280.941 345.093 281.164 344.081 281.164C343.092 281.164 342.315 280.847 341.75 280.214C341.185 279.576 340.902 278.68 340.902 277.527C340.902 276.438 341.21 275.552 341.825 274.868C342.445 274.18 343.213 273.836 344.129 273.836C345.045 273.836 345.754 274.132 346.255 274.725C346.756 275.317 347.007 276.14 347.007 277.192V277.78ZM345.858 276.83C345.854 276.183 345.697 275.679 345.387 275.319C345.081 274.959 344.655 274.779 344.108 274.779C343.58 274.779 343.131 274.968 342.762 275.347C342.393 275.725 342.165 276.219 342.078 276.83H345.858ZM355.798 280.932C355.534 281.077 355.185 281.15 354.752 281.15C353.526 281.15 352.913 280.467 352.913 279.1V274.957H351.71V274H352.913V272.291L354.034 271.929V274H355.798V274.957H354.034V278.901C354.034 279.371 354.114 279.706 354.273 279.906C354.433 280.107 354.697 280.207 355.066 280.207C355.349 280.207 355.593 280.13 355.798 279.975V280.932ZM363.105 281H361.984V276.967C361.984 275.508 361.442 274.779 360.357 274.779C359.811 274.779 359.35 274.991 358.977 275.415C358.603 275.834 358.416 276.374 358.416 277.035V281H357.295V270.637H358.416V275.162H358.443C358.981 274.278 359.747 273.836 360.74 273.836C362.317 273.836 363.105 274.786 363.105 276.687V281ZM370.851 277.78H365.908C365.926 278.56 366.136 279.161 366.537 279.585C366.938 280.009 367.49 280.221 368.191 280.221C368.98 280.221 369.704 279.961 370.365 279.441V280.494C369.75 280.941 368.937 281.164 367.925 281.164C366.936 281.164 366.159 280.847 365.594 280.214C365.029 279.576 364.746 278.68 364.746 277.527C364.746 276.438 365.054 275.552 365.669 274.868C366.289 274.18 367.057 273.836 367.973 273.836C368.889 273.836 369.597 274.132 370.099 274.725C370.6 275.317 370.851 276.14 370.851 277.192V277.78ZM369.702 276.83C369.698 276.183 369.54 275.679 369.23 275.319C368.925 274.959 368.499 274.779 367.952 274.779C367.424 274.779 366.975 274.968 366.605 275.347C366.236 275.725 366.008 276.219 365.922 276.83H369.702ZM376.545 281V271.197H379.334C380.182 271.197 380.854 271.405 381.351 271.819C381.847 272.234 382.096 272.774 382.096 273.439C382.096 273.995 381.945 274.479 381.645 274.889C381.344 275.299 380.929 275.59 380.4 275.764V275.791C381.061 275.868 381.59 276.119 381.986 276.543C382.383 276.962 382.581 277.509 382.581 278.184C382.581 279.022 382.28 279.701 381.679 280.221C381.077 280.74 380.318 281 379.402 281H376.545ZM377.693 272.236V275.401H378.869C379.498 275.401 379.993 275.251 380.353 274.95C380.713 274.645 380.893 274.216 380.893 273.665C380.893 272.713 380.266 272.236 379.013 272.236H377.693ZM377.693 276.434V279.961H379.252C379.926 279.961 380.448 279.801 380.817 279.482C381.191 279.163 381.378 278.726 381.378 278.17C381.378 277.012 380.59 276.434 379.013 276.434H377.693ZM385.719 281H384.57V271.197H385.719V281ZM395.453 271.621C395.234 271.498 394.986 271.437 394.708 271.437C393.924 271.437 393.532 271.931 393.532 272.92V274H395.173V274.957H393.532V281H392.418V274.957H391.222V274H392.418V272.865C392.418 272.132 392.63 271.553 393.054 271.129C393.478 270.701 394.006 270.486 394.64 270.486C394.981 270.486 395.253 270.527 395.453 270.609V271.621ZM399.309 281.164C398.274 281.164 397.447 280.838 396.827 280.187C396.212 279.53 395.904 278.662 395.904 277.582C395.904 276.406 396.226 275.488 396.868 274.827C397.511 274.166 398.379 273.836 399.473 273.836C400.516 273.836 401.33 274.157 401.913 274.8C402.501 275.442 402.795 276.333 402.795 277.473C402.795 278.589 402.478 279.485 401.845 280.159C401.216 280.829 400.37 281.164 399.309 281.164ZM399.391 274.779C398.671 274.779 398.101 275.025 397.682 275.518C397.262 276.005 397.053 276.68 397.053 277.541C397.053 278.37 397.265 279.024 397.688 279.503C398.112 279.981 398.68 280.221 399.391 280.221C400.115 280.221 400.671 279.986 401.059 279.517C401.451 279.047 401.646 278.38 401.646 277.514C401.646 276.639 401.451 275.964 401.059 275.49C400.671 275.016 400.115 274.779 399.391 274.779ZM409.357 280.679C408.82 281.002 408.182 281.164 407.443 281.164C406.445 281.164 405.639 280.84 405.023 280.193C404.413 279.542 404.107 278.699 404.107 277.664C404.107 276.511 404.438 275.586 405.099 274.889C405.759 274.187 406.641 273.836 407.744 273.836C408.359 273.836 408.902 273.95 409.371 274.178V275.326C408.852 274.962 408.296 274.779 407.703 274.779C406.988 274.779 406.4 275.037 405.939 275.552C405.484 276.062 405.256 276.734 405.256 277.568C405.256 278.389 405.47 279.036 405.898 279.51C406.331 279.984 406.91 280.221 407.635 280.221C408.245 280.221 408.82 280.018 409.357 279.612V280.679ZM416.713 281H415.592V279.893H415.564C415.1 280.74 414.38 281.164 413.404 281.164C411.736 281.164 410.902 280.171 410.902 278.184V274H412.017V278.006C412.017 279.482 412.582 280.221 413.712 280.221C414.259 280.221 414.708 280.02 415.059 279.619C415.414 279.214 415.592 278.685 415.592 278.033V274H416.713V281ZM418.559 280.747V279.544C419.169 279.995 419.841 280.221 420.575 280.221C421.56 280.221 422.052 279.893 422.052 279.236C422.052 279.049 422.008 278.892 421.922 278.765C421.84 278.632 421.726 278.516 421.58 278.416C421.439 278.316 421.27 278.227 421.074 278.149C420.883 278.067 420.675 277.983 420.452 277.896C420.142 277.773 419.869 277.65 419.632 277.527C419.399 277.4 419.203 277.258 419.044 277.104C418.889 276.944 418.771 276.764 418.688 276.563C418.611 276.363 418.572 276.128 418.572 275.859C418.572 275.531 418.647 275.242 418.798 274.991C418.948 274.736 419.149 274.524 419.399 274.355C419.65 274.182 419.935 274.052 420.254 273.966C420.577 273.879 420.91 273.836 421.252 273.836C421.858 273.836 422.4 273.941 422.879 274.15V275.285C422.364 274.948 421.771 274.779 421.102 274.779C420.892 274.779 420.703 274.804 420.534 274.854C420.366 274.9 420.22 274.966 420.097 275.053C419.978 275.139 419.885 275.244 419.816 275.367C419.753 275.486 419.721 275.618 419.721 275.764C419.721 275.946 419.753 276.099 419.816 276.222C419.885 276.345 419.983 276.454 420.11 276.55C420.238 276.646 420.393 276.732 420.575 276.81C420.757 276.887 420.965 276.971 421.197 277.062C421.507 277.181 421.785 277.304 422.031 277.432C422.277 277.555 422.487 277.696 422.66 277.855C422.833 278.01 422.965 278.19 423.057 278.396C423.152 278.601 423.2 278.844 423.2 279.127C423.2 279.473 423.123 279.774 422.968 280.029C422.817 280.285 422.615 280.496 422.359 280.665C422.104 280.834 421.81 280.959 421.478 281.041C421.145 281.123 420.796 281.164 420.432 281.164C419.712 281.164 419.087 281.025 418.559 280.747ZM433.782 281H432.661V279.906H432.634C432.146 280.745 431.428 281.164 430.48 281.164C429.783 281.164 429.236 280.979 428.84 280.61C428.448 280.241 428.252 279.751 428.252 279.141C428.252 277.833 429.022 277.072 430.562 276.857L432.661 276.563C432.661 275.374 432.18 274.779 431.219 274.779C430.376 274.779 429.615 275.066 428.936 275.641V274.492C429.624 274.055 430.417 273.836 431.314 273.836C432.96 273.836 433.782 274.706 433.782 276.447V281ZM432.661 277.459L430.973 277.691C430.453 277.764 430.061 277.894 429.797 278.081C429.533 278.263 429.4 278.589 429.4 279.059C429.4 279.4 429.521 279.681 429.763 279.899C430.009 280.114 430.335 280.221 430.74 280.221C431.296 280.221 431.754 280.027 432.114 279.64C432.479 279.248 432.661 278.753 432.661 278.156V277.459ZM439.545 275.135C439.349 274.984 439.066 274.909 438.697 274.909C438.219 274.909 437.818 275.135 437.494 275.586C437.175 276.037 437.016 276.652 437.016 277.432V281H435.895V274H437.016V275.442H437.043C437.202 274.95 437.446 274.567 437.774 274.294C438.103 274.016 438.469 273.877 438.875 273.877C439.167 273.877 439.39 273.909 439.545 273.973V275.135ZM446.388 277.78H441.445C441.464 278.56 441.673 279.161 442.074 279.585C442.475 280.009 443.027 280.221 443.729 280.221C444.517 280.221 445.242 279.961 445.902 279.441V280.494C445.287 280.941 444.474 281.164 443.462 281.164C442.473 281.164 441.696 280.847 441.131 280.214C440.566 279.576 440.283 278.68 440.283 277.527C440.283 276.438 440.591 275.552 441.206 274.868C441.826 274.18 442.594 273.836 443.51 273.836C444.426 273.836 445.134 274.132 445.636 274.725C446.137 275.317 446.388 276.14 446.388 277.192V277.78ZM445.239 276.83C445.235 276.183 445.077 275.679 444.768 275.319C444.462 274.959 444.036 274.779 443.489 274.779C442.961 274.779 442.512 274.968 442.143 275.347C441.773 275.725 441.546 276.219 441.459 276.83H445.239ZM453.101 281H451.979V279.906H451.952C451.465 280.745 450.747 281.164 449.799 281.164C449.102 281.164 448.555 280.979 448.158 280.61C447.766 280.241 447.57 279.751 447.57 279.141C447.57 277.833 448.34 277.072 449.881 276.857L451.979 276.563C451.979 275.374 451.499 274.779 450.537 274.779C449.694 274.779 448.933 275.066 448.254 275.641V274.492C448.942 274.055 449.735 273.836 450.633 273.836C452.278 273.836 453.101 274.706 453.101 276.447V281ZM451.979 277.459L450.291 277.691C449.771 277.764 449.38 277.894 449.115 278.081C448.851 278.263 448.719 278.589 448.719 279.059C448.719 279.4 448.84 279.681 449.081 279.899C449.327 280.114 449.653 280.221 450.059 280.221C450.615 280.221 451.073 280.027 451.433 279.64C451.797 279.248 451.979 278.753 451.979 278.156V277.459ZM454.789 280.747V279.544C455.4 279.995 456.072 280.221 456.806 280.221C457.79 280.221 458.282 279.893 458.282 279.236C458.282 279.049 458.239 278.892 458.152 278.765C458.07 278.632 457.956 278.516 457.811 278.416C457.669 278.316 457.501 278.227 457.305 278.149C457.113 278.067 456.906 277.983 456.683 277.896C456.373 277.773 456.099 277.65 455.862 277.527C455.63 277.4 455.434 277.258 455.274 277.104C455.119 276.944 455.001 276.764 454.919 276.563C454.841 276.363 454.803 276.128 454.803 275.859C454.803 275.531 454.878 275.242 455.028 274.991C455.179 274.736 455.379 274.524 455.63 274.355C455.881 274.182 456.165 274.052 456.484 273.966C456.808 273.879 457.141 273.836 457.482 273.836C458.089 273.836 458.631 273.941 459.109 274.15V275.285C458.594 274.948 458.002 274.779 457.332 274.779C457.122 274.779 456.933 274.804 456.765 274.854C456.596 274.9 456.45 274.966 456.327 275.053C456.209 275.139 456.115 275.244 456.047 275.367C455.983 275.486 455.951 275.618 455.951 275.764C455.951 275.946 455.983 276.099 456.047 276.222C456.115 276.345 456.213 276.454 456.341 276.55C456.468 276.646 456.623 276.732 456.806 276.81C456.988 276.887 457.195 276.971 457.428 277.062C457.738 277.181 458.016 277.304 458.262 277.432C458.508 277.555 458.717 277.696 458.891 277.855C459.064 278.01 459.196 278.19 459.287 278.396C459.383 278.601 459.431 278.844 459.431 279.127C459.431 279.473 459.353 279.774 459.198 280.029C459.048 280.285 458.845 280.496 458.59 280.665C458.335 280.834 458.041 280.959 457.708 281.041C457.375 281.123 457.027 281.164 456.662 281.164C455.942 281.164 455.318 281.025 454.789 280.747ZM311.146 300H310.024V298.906H309.997C309.509 299.745 308.792 300.164 307.844 300.164C307.146 300.164 306.6 299.979 306.203 299.61C305.811 299.241 305.615 298.751 305.615 298.141C305.615 296.833 306.385 296.072 307.926 295.857L310.024 295.563C310.024 294.374 309.544 293.779 308.582 293.779C307.739 293.779 306.978 294.066 306.299 294.641V293.492C306.987 293.055 307.78 292.836 308.678 292.836C310.323 292.836 311.146 293.706 311.146 295.447V300ZM310.024 296.459L308.336 296.691C307.816 296.764 307.424 296.894 307.16 297.081C306.896 297.263 306.764 297.589 306.764 298.059C306.764 298.4 306.884 298.681 307.126 298.899C307.372 299.114 307.698 299.221 308.104 299.221C308.66 299.221 309.118 299.027 309.478 298.64C309.842 298.248 310.024 297.753 310.024 297.156V296.459ZM319.068 300H317.947V296.008C317.947 294.522 317.405 293.779 316.32 293.779C315.76 293.779 315.295 293.991 314.926 294.415C314.561 294.834 314.379 295.365 314.379 296.008V300H313.258V293H314.379V294.162H314.406C314.935 293.278 315.701 292.836 316.703 292.836C317.469 292.836 318.054 293.084 318.46 293.581C318.866 294.073 319.068 294.786 319.068 295.721V300ZM327.162 300H326.041V298.811H326.014C325.494 299.713 324.692 300.164 323.607 300.164C322.728 300.164 322.024 299.852 321.495 299.228C320.971 298.599 320.709 297.744 320.709 296.664C320.709 295.507 321.001 294.579 321.584 293.882C322.167 293.185 322.944 292.836 323.915 292.836C324.877 292.836 325.576 293.214 326.014 293.971H326.041V289.637H327.162V300ZM326.041 296.835V295.803C326.041 295.238 325.854 294.759 325.48 294.367C325.107 293.975 324.633 293.779 324.059 293.779C323.375 293.779 322.837 294.03 322.445 294.531C322.053 295.033 321.857 295.725 321.857 296.609C321.857 297.416 322.044 298.054 322.418 298.523C322.796 298.988 323.302 299.221 323.936 299.221C324.56 299.221 325.066 298.995 325.453 298.544C325.845 298.093 326.041 297.523 326.041 296.835ZM336.199 300.164C335.165 300.164 334.338 299.838 333.718 299.187C333.103 298.53 332.795 297.662 332.795 296.582C332.795 295.406 333.116 294.488 333.759 293.827C334.401 293.166 335.27 292.836 336.363 292.836C337.407 292.836 338.22 293.157 338.804 293.8C339.392 294.442 339.686 295.333 339.686 296.473C339.686 297.589 339.369 298.485 338.735 299.159C338.106 299.829 337.261 300.164 336.199 300.164ZM336.281 293.779C335.561 293.779 334.992 294.025 334.572 294.518C334.153 295.005 333.943 295.68 333.943 296.541C333.943 297.37 334.155 298.024 334.579 298.503C335.003 298.981 335.57 299.221 336.281 299.221C337.006 299.221 337.562 298.986 337.949 298.517C338.341 298.047 338.537 297.38 338.537 296.514C338.537 295.639 338.341 294.964 337.949 294.49C337.562 294.016 337.006 293.779 336.281 293.779ZM342.625 298.988H342.598V300H341.477V289.637H342.598V294.23H342.625C343.176 293.301 343.983 292.836 345.045 292.836C345.943 292.836 346.645 293.15 347.15 293.779C347.661 294.404 347.916 295.242 347.916 296.295C347.916 297.466 347.631 298.405 347.062 299.111C346.492 299.813 345.713 300.164 344.724 300.164C343.799 300.164 343.099 299.772 342.625 298.988ZM342.598 296.165V297.143C342.598 297.721 342.785 298.214 343.158 298.619C343.536 299.02 344.015 299.221 344.594 299.221C345.273 299.221 345.804 298.961 346.187 298.441C346.574 297.922 346.768 297.2 346.768 296.274C346.768 295.495 346.588 294.884 346.228 294.442C345.868 294 345.38 293.779 344.765 293.779C344.113 293.779 343.589 294.007 343.192 294.463C342.796 294.914 342.598 295.481 342.598 296.165ZM350.828 299.706C350.828 300.854 350.596 301.739 350.131 302.358C349.671 302.983 349.01 303.295 348.148 303.295C347.829 303.295 347.52 303.222 347.219 303.076V302.03C347.556 302.235 347.875 302.338 348.176 302.338C349.197 302.338 349.707 301.522 349.707 299.891V293H350.828V299.706ZM350.281 291.223C350.081 291.223 349.91 291.154 349.769 291.018C349.627 290.881 349.557 290.708 349.557 290.498C349.557 290.288 349.627 290.115 349.769 289.979C349.91 289.837 350.081 289.767 350.281 289.767C350.486 289.767 350.66 289.837 350.801 289.979C350.947 290.115 351.02 290.288 351.02 290.498C351.02 290.699 350.947 290.869 350.801 291.011C350.66 291.152 350.486 291.223 350.281 291.223ZM358.724 296.78H353.781C353.799 297.56 354.009 298.161 354.41 298.585C354.811 299.009 355.363 299.221 356.064 299.221C356.853 299.221 357.577 298.961 358.238 298.441V299.494C357.623 299.941 356.81 300.164 355.798 300.164C354.809 300.164 354.032 299.847 353.467 299.214C352.902 298.576 352.619 297.68 352.619 296.527C352.619 295.438 352.927 294.552 353.542 293.868C354.162 293.18 354.93 292.836 355.846 292.836C356.762 292.836 357.47 293.132 357.972 293.725C358.473 294.317 358.724 295.14 358.724 296.192V296.78ZM357.575 295.83C357.571 295.183 357.413 294.679 357.104 294.319C356.798 293.959 356.372 293.779 355.825 293.779C355.297 293.779 354.848 293.968 354.479 294.347C354.109 294.725 353.882 295.219 353.795 295.83H357.575ZM365.197 299.679C364.66 300.002 364.021 300.164 363.283 300.164C362.285 300.164 361.479 299.84 360.863 299.193C360.253 298.542 359.947 297.699 359.947 296.664C359.947 295.511 360.278 294.586 360.938 293.889C361.599 293.187 362.481 292.836 363.584 292.836C364.199 292.836 364.742 292.95 365.211 293.178V294.326C364.691 293.962 364.135 293.779 363.543 293.779C362.827 293.779 362.24 294.037 361.779 294.552C361.324 295.062 361.096 295.734 361.096 296.568C361.096 297.389 361.31 298.036 361.738 298.51C362.171 298.984 362.75 299.221 363.475 299.221C364.085 299.221 364.66 299.018 365.197 298.612V299.679ZM370.14 299.932C369.875 300.077 369.527 300.15 369.094 300.15C367.868 300.15 367.255 299.467 367.255 298.1V293.957H366.052V293H367.255V291.291L368.376 290.929V293H370.14V293.957H368.376V297.901C368.376 298.371 368.456 298.706 368.615 298.906C368.775 299.107 369.039 299.207 369.408 299.207C369.691 299.207 369.935 299.13 370.14 298.975V299.932ZM372.211 291.223C372.01 291.223 371.84 291.154 371.698 291.018C371.557 290.881 371.486 290.708 371.486 290.498C371.486 290.288 371.557 290.115 371.698 289.979C371.84 289.837 372.01 289.767 372.211 289.767C372.416 289.767 372.589 289.837 372.73 289.979C372.876 290.115 372.949 290.288 372.949 290.498C372.949 290.699 372.876 290.869 372.73 291.011C372.589 291.152 372.416 291.223 372.211 291.223ZM372.758 300H371.637V293H372.758V300ZM380.53 293L377.741 300H376.641L373.988 293H375.219L376.996 298.086C377.128 298.46 377.21 298.785 377.242 299.063H377.27C377.315 298.713 377.388 298.396 377.488 298.113L379.348 293H380.53ZM387.366 296.78H382.424C382.442 297.56 382.652 298.161 383.053 298.585C383.454 299.009 384.005 299.221 384.707 299.221C385.495 299.221 386.22 298.961 386.881 298.441V299.494C386.266 299.941 385.452 300.164 384.44 300.164C383.451 300.164 382.674 299.847 382.109 299.214C381.544 298.576 381.262 297.68 381.262 296.527C381.262 295.438 381.569 294.552 382.185 293.868C382.804 293.18 383.572 292.836 384.488 292.836C385.404 292.836 386.113 293.132 386.614 293.725C387.116 294.317 387.366 295.14 387.366 296.192V296.78ZM386.218 295.83C386.213 295.183 386.056 294.679 385.746 294.319C385.441 293.959 385.015 293.779 384.468 293.779C383.939 293.779 383.49 293.968 383.121 294.347C382.752 294.725 382.524 295.219 382.438 295.83H386.218ZM388.645 299.747V298.544C389.255 298.995 389.927 299.221 390.661 299.221C391.646 299.221 392.138 298.893 392.138 298.236C392.138 298.049 392.094 297.892 392.008 297.765C391.926 297.632 391.812 297.516 391.666 297.416C391.525 297.316 391.356 297.227 391.16 297.149C390.969 297.067 390.761 296.983 390.538 296.896C390.228 296.773 389.955 296.65 389.718 296.527C389.485 296.4 389.289 296.258 389.13 296.104C388.975 295.944 388.856 295.764 388.774 295.563C388.697 295.363 388.658 295.128 388.658 294.859C388.658 294.531 388.733 294.242 388.884 293.991C389.034 293.736 389.235 293.524 389.485 293.355C389.736 293.182 390.021 293.052 390.34 292.966C390.663 292.879 390.996 292.836 391.338 292.836C391.944 292.836 392.486 292.941 392.965 293.15V294.285C392.45 293.948 391.857 293.779 391.188 293.779C390.978 293.779 390.789 293.804 390.62 293.854C390.451 293.9 390.306 293.966 390.183 294.053C390.064 294.139 389.971 294.244 389.902 294.367C389.839 294.486 389.807 294.618 389.807 294.764C389.807 294.946 389.839 295.099 389.902 295.222C389.971 295.345 390.069 295.454 390.196 295.55C390.324 295.646 390.479 295.732 390.661 295.81C390.843 295.887 391.051 295.971 391.283 296.062C391.593 296.181 391.871 296.304 392.117 296.432C392.363 296.555 392.573 296.696 392.746 296.855C392.919 297.01 393.051 297.19 393.143 297.396C393.238 297.601 393.286 297.844 393.286 298.127C393.286 298.473 393.209 298.774 393.054 299.029C392.903 299.285 392.701 299.496 392.445 299.665C392.19 299.834 391.896 299.959 391.563 300.041C391.231 300.123 390.882 300.164 390.518 300.164C389.798 300.164 389.173 300.025 388.645 299.747Z" fill="url(#paint35_linear_34_13297)"/>
<path d="M268 275.5C268 273.567 269.567 272 271.5 272H290.5C292.433 272 294 273.567 294 275.5V294.5C294 296.433 292.433 298 290.5 298H271.5C269.567 298 268 296.433 268 294.5V275.5Z" fill="url(#paint36_linear_34_13297)"/>
<path d="M268 275.5C268 273.567 269.567 272 271.5 272H290.5C292.433 272 294 273.567 294 275.5V294.5C294 296.433 292.433 298 290.5 298H271.5C269.567 298 268 296.433 268 294.5V275.5Z" fill="url(#paint37_radial_34_13297)" fill-opacity="0.2"/>
<path fill-rule="evenodd" clip-rule="evenodd" d="M290.5 273H271.5C270.119 273 269 274.119 269 275.5V294.5C269 295.881 270.119 297 271.5 297H290.5C291.881 297 293 295.881 293 294.5V275.5C293 274.119 291.881 273 290.5 273ZM271.5 272C269.567 272 268 273.567 268 275.5V294.5C268 296.433 269.567 298 271.5 298H290.5C292.433 298 294 296.433 294 294.5V275.5C294 273.567 292.433 272 290.5 272H271.5Z" fill="url(#paint38_linear_34_13297)"/>
<path d="M288.148 278.051L287.921 276L285.414 278.506L285.551 279.691L281.905 283.337C281.586 283.177 281.222 283.063 280.834 283.063C279.581 283.063 278.556 284.089 278.556 285.342C278.556 286.595 279.581 287.62 280.834 287.62C282.088 287.62 283.113 286.595 283.113 285.342C283.113 284.955 283.022 284.613 282.862 284.294L286.508 280.648L287.693 280.785L290.199 278.278L288.148 278.051Z" fill="url(#paint39_linear_34_13297)"/>
<path d="M288.33 281.423L288.035 281.742L287.601 281.696L287.123 281.628C287.761 282.722 288.148 283.974 288.148 285.342C288.148 289.352 284.867 292.633 280.857 292.633C276.847 292.633 273.566 289.352 273.566 285.342C273.566 281.332 276.847 278.051 280.857 278.051C282.201 278.051 283.477 278.415 284.571 279.076L284.525 278.62L284.457 278.164L284.776 277.846L284.935 277.686C283.705 277.048 282.338 276.683 280.857 276.683C276.072 276.683 272.199 280.557 272.199 285.342C272.199 290.127 276.072 294 280.857 294C285.642 294 289.515 290.127 289.515 285.342C289.515 283.861 289.151 282.494 288.49 281.286L288.33 281.423Z" fill="url(#paint40_linear_34_13297)"/>
<path d="M284.662 283.792C284.867 284.271 284.959 284.795 284.959 285.342C284.959 287.597 283.113 289.443 280.857 289.443C278.602 289.443 276.756 287.597 276.756 285.342C276.756 283.086 278.602 281.24 280.857 281.24C281.404 281.24 281.928 281.354 282.407 281.537L283.432 280.511C282.657 280.101 281.791 279.873 280.857 279.873C277.85 279.873 275.389 282.334 275.389 285.342C275.389 288.349 277.85 290.81 280.857 290.81C283.865 290.81 286.326 288.349 286.326 285.342C286.326 284.408 286.098 283.542 285.688 282.767L284.662 283.792Z" fill="url(#paint41_linear_34_13297)"/>
<path d="M259.748 283.952C259.775 284.365 259.461 284.722 259.048 284.748L252.312 285.18C251.898 285.206 251.542 284.893 251.515 284.479C251.489 284.066 251.803 283.709 252.216 283.683L258.204 283.299L257.82 277.312C257.794 276.898 258.107 276.542 258.521 276.515C258.934 276.489 259.291 276.803 259.317 277.216L259.748 283.952ZM258.483 245.456C258.784 245.171 259.258 245.183 259.544 245.483C259.829 245.784 259.817 246.258 259.517 246.544L258.483 245.456ZM258.505 284.563C252.358 279.156 249.25 272.307 249.25 265.317C249.25 258.33 252.354 251.279 258.483 245.456L259.517 246.544C253.646 252.121 250.75 258.792 250.75 265.317C250.75 271.838 253.642 278.288 259.495 283.437L258.505 284.563Z" fill="#8198AE"/>
<path d="M269.32 75.3255L274.501 66.5335L279.682 75.3255H269.32ZM285.644 85.4387H263.358L268.008 77.787H280.994L285.644 85.4387ZM285.674 85.4873C285.674 85.4873 285.674 85.4872 285.674 85.4869L285.674 85.4873ZM257.544 95.4933L262.168 87.8417H286.874L291.417 95.4046L257.544 95.4933Z" fill="white"/>
<path d="M269.32 75.3255L274.501 66.5335L279.682 75.3255H269.32ZM285.644 85.4387H263.358L268.008 77.787H280.994L285.644 85.4387ZM285.674 85.4873C285.674 85.4873 285.674 85.4872 285.674 85.4869L285.674 85.4873ZM257.544 95.4933L262.168 87.8417H286.874L291.417 95.4046L257.544 95.4933Z" fill="url(#paint42_linear_34_13297)" fill-opacity="0.33"/>
<path d="M269.32 75.3255L274.501 66.5335L279.682 75.3255H269.32ZM285.644 85.4387H263.358L268.008 77.787H280.994L285.644 85.4387ZM285.674 85.4873C285.674 85.4873 285.674 85.4872 285.674 85.4869L285.674 85.4873ZM257.544 95.4933L262.168 87.8417H286.874L291.417 95.4046L257.544 95.4933Z" stroke="url(#paint43_linear_34_13297)"/>
<path d="M274.1 66.2297C274.28 65.9234 274.722 65.9234 274.902 66.2297L280.142 75.1199C280.325 75.4316 280.101 75.8255 279.74 75.8255H269.262C268.901 75.8255 268.677 75.4316 268.861 75.1199L274.1 66.2297Z" fill="url(#paint44_linear_34_13297)"/>
<defs>
<filter id="filter0_f_34_13297" x="236" y="45" width="244" height="329" filterUnits="userSpaceOnUse" color-interpolation-filters="sRGB">
<feFlood flood-opacity="0" result="BackgroundImageFix"/>
<feBlend mode="normal" in="SourceGraphic" in2="BackgroundImageFix" result="shape"/>
<feGaussianBlur stdDeviation="2.5" result="effect1_foregroundBlur_34_13297"/>
</filter>
<radialGradient id="paint0_radial_34_13297" cx="0" cy="0" r="1" gradientUnits="userSpaceOnUse" gradientTransform="translate(100.06 45.8789) rotate(27.2192) scale(718.892 461.517)">
<stop offset="0.198869" stop-color="#8EE3E8"/>
<stop offset="1" stop-color="#19177E"/>
</radialGradient>
<linearGradient id="paint1_linear_34_13297" x1="273.933" y1="208.224" x2="375.175" y2="223.538" gradientUnits="userSpaceOnUse">
<stop stop-color="white"/>
<stop offset="1" stop-color="#FAFAFA"/>
</linearGradient>
<linearGradient id="paint2_linear_34_13297" x1="251" y1="173" x2="269.902" y2="260.937" gradientUnits="userSpaceOnUse">
<stop stop-color="#416587"/>
<stop offset="1" stop-color="#1A3052"/>
</linearGradient>
<linearGradient id="paint3_linear_34_13297" x1="305" y1="70" x2="310.387" y2="111.297" gradientUnits="userSpaceOnUse">
<stop stop-color="#416587"/>
<stop offset="1" stop-color="#1A3052"/>
</linearGradient>
<linearGradient id="paint4_linear_34_13297" x1="305" y1="135" x2="317.598" y2="196.416" gradientUnits="userSpaceOnUse">
<stop stop-color="#416587"/>
<stop offset="1" stop-color="#1A3052"/>
</linearGradient>
<linearGradient id="paint5_linear_34_13297" x1="305" y1="222" x2="317.598" y2="283.416" gradientUnits="userSpaceOnUse">
<stop stop-color="#416587"/>
<stop offset="1" stop-color="#1A3052"/>
</linearGradient>
<linearGradient id="paint6_linear_34_13297" x1="305" y1="179" x2="317.598" y2="240.416" gradientUnits="userSpaceOnUse">
<stop stop-color="#416587"/>
<stop offset="1" stop-color="#1A3052"/>
</linearGradient>
<linearGradient id="paint7_linear_34_13297" x1="275.222" y1="139" x2="278.511" y2="165.311" gradientUnits="userSpaceOnUse">
<stop stop-color="white"/>
<stop offset="1" stop-color="#EBEBEB"/>
</linearGradient>
<radialGradient id="paint8_radial_34_13297" cx="0" cy="0" r="1" gradientUnits="userSpaceOnUse" gradientTransform="translate(276.306 145.771) rotate(56.3099) scale(24.7381 21.408)">
<stop offset="0.177083" stop-color="white"/>
<stop offset="1" stop-color="#B8B8B8"/>
</radialGradient>
<linearGradient id="paint9_linear_34_13297" x1="276.396" y1="139" x2="279.897" y2="165.256" gradientUnits="userSpaceOnUse">
<stop stop-color="#BBBBBB"/>
<stop offset="1" stop-color="#888888"/>
</linearGradient>
<linearGradient id="paint10_linear_34_13297" x1="273" y1="144.507" x2="288.45" y2="158.851" gradientUnits="userSpaceOnUse">
<stop stop-color="#416587"/>
<stop offset="1" stop-color="#1A3052"/>
</linearGradient>
<linearGradient id="paint11_linear_34_13297" x1="281.313" y1="144" x2="289.528" y2="151.669" gradientUnits="userSpaceOnUse">
<stop stop-color="#416587"/>
<stop offset="1" stop-color="#1A3052"/>
</linearGradient>
<linearGradient id="paint12_linear_34_13297" x1="274.115" y1="153.408" x2="280.688" y2="159.497" gradientUnits="userSpaceOnUse">
<stop stop-color="#416587"/>
<stop offset="1" stop-color="#1A3052"/>
</linearGradient>
<linearGradient id="paint13_linear_34_13297" x1="275.222" y1="183" x2="278.511" y2="209.311" gradientUnits="userSpaceOnUse">
<stop stop-color="white"/>
<stop offset="1" stop-color="#EBEBEB"/>
</linearGradient>
<radialGradient id="paint14_radial_34_13297" cx="0" cy="0" r="1" gradientUnits="userSpaceOnUse" gradientTransform="translate(276.306 189.771) rotate(56.3099) scale(24.7381 21.408)">
<stop offset="0.177083" stop-color="white"/>
<stop offset="1" stop-color="#B8B8B8"/>
</radialGradient>
<linearGradient id="paint15_linear_34_13297" x1="276.396" y1="183" x2="279.897" y2="209.256" gradientUnits="userSpaceOnUse">
<stop stop-color="#BBBBBB"/>
<stop offset="1" stop-color="#888888"/>
</linearGradient>
<linearGradient id="paint16_linear_34_13297" x1="279.875" y1="190" x2="282.792" y2="192.917" gradientUnits="userSpaceOnUse">
<stop stop-color="#416587"/>
<stop offset="1" stop-color="#1A3052"/>
</linearGradient>
<linearGradient id="paint17_linear_34_13297" x1="285.708" y1="190.833" x2="288.625" y2="193.75" gradientUnits="userSpaceOnUse">
<stop stop-color="#416587"/>
<stop offset="1" stop-color="#1A3052"/>
</linearGradient>
<linearGradient id="paint18_linear_34_13297" x1="274.042" y1="190.833" x2="276.958" y2="193.75" gradientUnits="userSpaceOnUse">
<stop stop-color="#416587"/>
<stop offset="1" stop-color="#1A3052"/>
</linearGradient>
<linearGradient id="paint19_linear_34_13297" x1="273.125" y1="196.208" x2="276.438" y2="206.098" gradientUnits="userSpaceOnUse">
<stop stop-color="#416587"/>
<stop offset="1" stop-color="#1A3052"/>
</linearGradient>
<linearGradient id="paint20_linear_34_13297" x1="273" y1="194.174" x2="277.779" y2="199.17" gradientUnits="userSpaceOnUse">
<stop stop-color="#416587"/>
<stop offset="1" stop-color="#1A3052"/>
</linearGradient>
<linearGradient id="paint21_linear_34_13297" x1="278.812" y1="193.341" x2="280.303" y2="196.911" gradientUnits="userSpaceOnUse">
<stop stop-color="#416587"/>
<stop offset="1" stop-color="#1A3052"/>
</linearGradient>
<linearGradient id="paint22_linear_34_13297" x1="284.646" y1="194.174" x2="289.424" y2="199.189" gradientUnits="userSpaceOnUse">
<stop stop-color="#416587"/>
<stop offset="1" stop-color="#1A3052"/>
</linearGradient>
<linearGradient id="paint23_linear_34_13297" x1="275.222" y1="226" x2="278.511" y2="252.311" gradientUnits="userSpaceOnUse">
<stop stop-color="white"/>
<stop offset="1" stop-color="#EBEBEB"/>
</linearGradient>
<radialGradient id="paint24_radial_34_13297" cx="0" cy="0" r="1" gradientUnits="userSpaceOnUse" gradientTransform="translate(276.306 232.771) rotate(56.3099) scale(24.7381 21.408)">
<stop offset="0.177083" stop-color="white"/>
<stop offset="1" stop-color="#B8B8B8"/>
</radialGradient>
<linearGradient id="paint25_linear_34_13297" x1="276.396" y1="226" x2="279.897" y2="252.256" gradientUnits="userSpaceOnUse">
<stop stop-color="#BBBBBB"/>
<stop offset="1" stop-color="#888888"/>
</linearGradient>
<linearGradient id="paint26_linear_34_13297" x1="274.542" y1="229.667" x2="290.682" y2="242.175" gradientUnits="userSpaceOnUse">
<stop stop-color="#416587"/>
<stop offset="1" stop-color="#1A3052"/>
</linearGradient>
<linearGradient id="paint27_linear_34_13297" x1="277.446" y1="239.446" x2="279.555" y2="241.554" gradientUnits="userSpaceOnUse">
<stop stop-color="#416587"/>
<stop offset="1" stop-color="#1A3052"/>
</linearGradient>
<linearGradient id="paint28_linear_34_13297" x1="277.446" y1="241.946" x2="279.555" y2="244.054" gradientUnits="userSpaceOnUse">
<stop stop-color="#416587"/>
<stop offset="1" stop-color="#1A3052"/>
</linearGradient>
<linearGradient id="paint29_linear_34_13297" x1="281.417" y1="240.083" x2="281.789" y2="241.663" gradientUnits="userSpaceOnUse">
<stop stop-color="#416587"/>
<stop offset="1" stop-color="#1A3052"/>
</linearGradient>
<linearGradient id="paint30_linear_34_13297" x1="281.417" y1="242.583" x2="281.789" y2="244.163" gradientUnits="userSpaceOnUse">
<stop stop-color="#416587"/>
<stop offset="1" stop-color="#1A3052"/>
</linearGradient>
<linearGradient id="paint31_linear_34_13297" x1="281.417" y1="235.083" x2="281.789" y2="236.663" gradientUnits="userSpaceOnUse">
<stop stop-color="#416587"/>
<stop offset="1" stop-color="#1A3052"/>
</linearGradient>
<linearGradient id="paint32_linear_34_13297" x1="281.417" y1="237.583" x2="281.789" y2="239.163" gradientUnits="userSpaceOnUse">
<stop stop-color="#416587"/>
<stop offset="1" stop-color="#1A3052"/>
</linearGradient>
<linearGradient id="paint33_linear_34_13297" x1="277.189" y1="234.189" x2="279.385" y2="236.914" gradientUnits="userSpaceOnUse">
<stop stop-color="#416587"/>
<stop offset="1" stop-color="#1A3052"/>
</linearGradient>
<linearGradient id="paint34_linear_34_13297" x1="277.189" y1="236.689" x2="279.385" y2="239.414" gradientUnits="userSpaceOnUse">
<stop stop-color="#416587"/>
<stop offset="1" stop-color="#1A3052"/>
</linearGradient>
<linearGradient id="paint35_linear_34_13297" x1="305" y1="269" x2="317.598" y2="330.416" gradientUnits="userSpaceOnUse">
<stop stop-color="#416587"/>
<stop offset="1" stop-color="#1A3052"/>
</linearGradient>
<linearGradient id="paint36_linear_34_13297" x1="275.222" y1="272" x2="278.511" y2="298.311" gradientUnits="userSpaceOnUse">
<stop stop-color="white"/>
<stop offset="1" stop-color="#EBEBEB"/>
</linearGradient>
<radialGradient id="paint37_radial_34_13297" cx="0" cy="0" r="1" gradientUnits="userSpaceOnUse" gradientTransform="translate(276.306 278.771) rotate(56.3099) scale(24.7381 21.408)">
<stop offset="0.177083" stop-color="white"/>
<stop offset="1" stop-color="#B8B8B8"/>
</radialGradient>
<linearGradient id="paint38_linear_34_13297" x1="276.396" y1="272" x2="279.897" y2="298.256" gradientUnits="userSpaceOnUse">
<stop stop-color="#BBBBBB"/>
<stop offset="1" stop-color="#888888"/>
</linearGradient>
<linearGradient id="paint39_linear_34_13297" x1="278.556" y1="276" x2="290.176" y2="287.643" gradientUnits="userSpaceOnUse">
<stop stop-color="#416587"/>
<stop offset="1" stop-color="#1A3052"/>
</linearGradient>
<linearGradient id="paint40_linear_34_13297" x1="272.199" y1="276.683" x2="289.515" y2="294" gradientUnits="userSpaceOnUse">
<stop stop-color="#416587"/>
<stop offset="1" stop-color="#1A3052"/>
</linearGradient>
<linearGradient id="paint41_linear_34_13297" x1="275.389" y1="279.873" x2="286.326" y2="290.81" gradientUnits="userSpaceOnUse">
<stop stop-color="#416587"/>
<stop offset="1" stop-color="#1A3052"/>
</linearGradient>
<linearGradient id="paint42_linear_34_13297" x1="261.934" y1="80.8768" x2="276.547" y2="84.3855" gradientUnits="userSpaceOnUse">
<stop stop-color="white"/>
<stop offset="1" stop-color="#FAFAFA"/>
</linearGradient>
<linearGradient id="paint43_linear_34_13297" x1="257.019" y1="66" x2="286.668" y2="100.523" gradientUnits="userSpaceOnUse">
<stop stop-color="#416587"/>
<stop offset="1" stop-color="#1A3052"/>
</linearGradient>
<linearGradient id="paint44_linear_34_13297" x1="268.795" y1="66" x2="278.511" y2="77.2857" gradientUnits="userSpaceOnUse">
<stop stop-color="#416587"/>
<stop offset="1" stop-color="#1A3052"/>
</linearGradient>
</defs>
</svg>
