<svg width="666" height="419" viewBox="0 0 666 419" fill="none" xmlns="http://www.w3.org/2000/svg">
<rect width="666" height="419" fill="white"/>
<rect width="666" height="419" fill="url(#paint0_radial_34_13478)" fill-opacity="0.075"/>
<rect x="0.5" y="0.5" width="665" height="418" stroke="#333333" stroke-opacity="0.2"/>
<g filter="url(#filter0_f_34_13478)">
<rect x="216" y="50" width="234" height="319" rx="16" fill="#CCCCCC" fill-opacity="0.8"/>
</g>
<rect x="216" y="50" width="234" height="319" rx="16" fill="white"/>
<rect x="216" y="50" width="234" height="319" rx="16" fill="url(#paint1_linear_34_13478)" fill-opacity="0.33"/>
<rect x="226.5" y="216.5" width="213" height="45" rx="9.5" fill="#EEF2F5" stroke="url(#paint2_linear_34_13478)" stroke-dasharray="2 2"/>
<path d="M280.867 86.5547V84.6406C281.039 84.7969 281.242 84.9375 281.477 85.0625C281.716 85.1875 281.969 85.2943 282.234 85.3828C282.5 85.4661 282.766 85.5312 283.031 85.5781C283.297 85.625 283.542 85.6484 283.766 85.6484C284.547 85.6484 285.128 85.5182 285.508 85.2578C285.893 84.9974 286.086 84.6198 286.086 84.125C286.086 83.8594 286.021 83.6302 285.891 83.4375C285.766 83.2396 285.589 83.0599 285.359 82.8984C285.13 82.737 284.859 82.5833 284.547 82.4375C284.24 82.2865 283.909 82.1302 283.555 81.9688C283.174 81.7656 282.82 81.5599 282.492 81.3516C282.164 81.1432 281.878 80.9141 281.633 80.6641C281.393 80.4089 281.203 80.1224 281.062 79.8047C280.927 79.487 280.859 79.1146 280.859 78.6875C280.859 78.1615 280.977 77.7057 281.211 77.3203C281.451 76.9297 281.763 76.6094 282.148 76.3594C282.539 76.1042 282.982 75.9167 283.477 75.7969C283.971 75.6719 284.477 75.6094 284.992 75.6094C286.164 75.6094 287.018 75.7422 287.555 76.0078V77.8438C286.919 77.3854 286.102 77.1562 285.102 77.1562C284.826 77.1562 284.549 77.1823 284.273 77.2344C284.003 77.2865 283.758 77.3724 283.539 77.4922C283.326 77.612 283.151 77.7656 283.016 77.9531C282.88 78.1406 282.812 78.3672 282.812 78.6328C282.812 78.8828 282.865 79.099 282.969 79.2812C283.073 79.4635 283.224 79.6302 283.422 79.7812C283.625 79.9323 283.87 80.0807 284.156 80.2266C284.448 80.3672 284.784 80.5208 285.164 80.6875C285.555 80.8906 285.922 81.1042 286.266 81.3281C286.615 81.5521 286.919 81.7995 287.18 82.0703C287.445 82.3411 287.654 82.6432 287.805 82.9766C287.961 83.3047 288.039 83.6797 288.039 84.1016C288.039 84.6693 287.924 85.1484 287.695 85.5391C287.466 85.9297 287.156 86.2474 286.766 86.4922C286.38 86.737 285.935 86.9141 285.43 87.0234C284.924 87.1328 284.391 87.1875 283.828 87.1875C283.641 87.1875 283.409 87.1719 283.133 87.1406C282.862 87.1146 282.583 87.0729 282.297 87.0156C282.01 86.9635 281.74 86.8984 281.484 86.8203C281.229 86.7422 281.023 86.6536 280.867 86.5547ZM293.648 86.9141C293.294 87.0911 292.828 87.1797 292.25 87.1797C290.698 87.1797 289.922 86.4349 289.922 84.9453V80.4219H288.586V79H289.922V77.1484L291.734 76.6328V79H293.648V80.4219H291.734V84.4219C291.734 84.8958 291.82 85.2344 291.992 85.4375C292.164 85.6406 292.451 85.7422 292.852 85.7422C293.159 85.7422 293.424 85.6536 293.648 85.4766V86.9141ZM299.852 80.7266C299.633 80.5547 299.318 80.4688 298.906 80.4688C298.37 80.4688 297.922 80.7109 297.562 81.1953C297.203 81.6797 297.023 82.3385 297.023 83.1719V87H295.211V79H297.023V80.6484H297.055C297.232 80.0859 297.503 79.6484 297.867 79.3359C298.237 79.0182 298.648 78.8594 299.102 78.8594C299.43 78.8594 299.68 78.9089 299.852 79.0078V80.7266ZM307.273 87H305.516V85.75H305.484C304.932 86.7083 304.122 87.1875 303.055 87.1875C302.268 87.1875 301.651 86.974 301.203 86.5469C300.76 86.1198 300.539 85.5547 300.539 84.8516C300.539 83.3411 301.409 82.4609 303.148 82.2109L305.523 81.875C305.523 80.7344 304.982 80.1641 303.898 80.1641C302.945 80.1641 302.086 80.4922 301.32 81.1484V79.5625C302.164 79.0625 303.138 78.8125 304.242 78.8125C306.263 78.8125 307.273 79.8073 307.273 81.7969V87ZM305.523 83.0703L303.844 83.3047C303.323 83.3724 302.93 83.5 302.664 83.6875C302.404 83.8698 302.273 84.1927 302.273 84.6562C302.273 84.9948 302.393 85.2734 302.633 85.4922C302.878 85.7057 303.203 85.8125 303.609 85.8125C304.161 85.8125 304.617 85.6198 304.977 85.2344C305.341 84.8438 305.523 84.3542 305.523 83.7656V83.0703ZM313.711 86.9141C313.357 87.0911 312.891 87.1797 312.312 87.1797C310.76 87.1797 309.984 86.4349 309.984 84.9453V80.4219H308.648V79H309.984V77.1484L311.797 76.6328V79H313.711V80.4219H311.797V84.4219C311.797 84.8958 311.883 85.2344 312.055 85.4375C312.227 85.6406 312.513 85.7422 312.914 85.7422C313.221 85.7422 313.487 85.6536 313.711 85.4766V86.9141ZM321.953 83.4922H316.5C316.521 84.2318 316.747 84.8021 317.18 85.2031C317.617 85.6042 318.216 85.8047 318.977 85.8047C319.831 85.8047 320.615 85.5495 321.328 85.0391V86.5C320.599 86.9583 319.635 87.1875 318.438 87.1875C317.26 87.1875 316.336 86.8255 315.664 86.1016C314.997 85.3724 314.664 84.349 314.664 83.0312C314.664 81.7865 315.031 80.7734 315.766 79.9922C316.505 79.2057 317.422 78.8125 318.516 78.8125C319.609 78.8125 320.456 79.1641 321.055 79.8672C321.654 80.5703 321.953 81.5469 321.953 82.7969V83.4922ZM320.203 82.2109C320.198 81.5599 320.044 81.0547 319.742 80.6953C319.44 80.3307 319.023 80.1484 318.492 80.1484C317.971 80.1484 317.529 80.3385 317.164 80.7188C316.805 81.099 316.583 81.5964 316.5 82.2109H320.203ZM330.961 86.3594C330.961 89.2969 329.484 90.7656 326.531 90.7656C325.49 90.7656 324.581 90.5911 323.805 90.2422V88.5859C324.68 89.0859 325.51 89.3359 326.297 89.3359C328.198 89.3359 329.148 88.401 329.148 86.5312V85.6562H329.117C328.518 86.6771 327.617 87.1875 326.414 87.1875C325.44 87.1875 324.654 86.8333 324.055 86.125C323.461 85.4115 323.164 84.4557 323.164 83.2578C323.164 81.8984 323.484 80.8177 324.125 80.0156C324.766 79.2135 325.646 78.8125 326.766 78.8125C327.823 78.8125 328.607 79.2448 329.117 80.1094H329.148V79H330.961V86.3594ZM329.164 83.3359V82.2969C329.164 81.7344 328.977 81.2552 328.602 80.8594C328.232 80.4583 327.768 80.2578 327.211 80.2578C326.523 80.2578 325.984 80.513 325.594 81.0234C325.208 81.5286 325.016 82.237 325.016 83.1484C325.016 83.9349 325.201 84.5651 325.57 85.0391C325.945 85.5078 326.44 85.7422 327.055 85.7422C327.68 85.7422 328.188 85.5182 328.578 85.0703C328.969 84.6172 329.164 84.0391 329.164 83.3359ZM334.234 77.3203C333.938 77.3203 333.682 77.224 333.469 77.0312C333.26 76.8385 333.156 76.5938 333.156 76.2969C333.156 76 333.26 75.7526 333.469 75.5547C333.682 75.3568 333.938 75.2578 334.234 75.2578C334.542 75.2578 334.802 75.3568 335.016 75.5547C335.229 75.7526 335.336 76 335.336 76.2969C335.336 76.5781 335.229 76.8203 335.016 77.0234C334.802 77.2214 334.542 77.3203 334.234 77.3203ZM335.133 87H333.32V79H335.133V87ZM343.234 86.6328C342.594 87.0026 341.836 87.1875 340.961 87.1875C339.773 87.1875 338.815 86.8177 338.086 86.0781C337.357 85.3333 336.992 84.3698 336.992 83.1875C336.992 81.8698 337.383 80.8125 338.164 80.0156C338.951 79.2135 340 78.8125 341.312 78.8125C342.042 78.8125 342.685 78.9401 343.242 79.1953V80.8828C342.685 80.4661 342.091 80.2578 341.461 80.2578C340.695 80.2578 340.068 80.5182 339.578 81.0391C339.089 81.5547 338.844 82.2318 338.844 83.0703C338.844 83.8984 339.073 84.5521 339.531 85.0312C339.995 85.5104 340.615 85.75 341.391 85.75C342.042 85.75 342.656 85.5182 343.234 85.0547V86.6328ZM351.289 85.8203H351.258V90.6797H349.445V79H351.258V80.4062H351.289C351.909 79.3438 352.815 78.8125 354.008 78.8125C355.023 78.8125 355.815 79.1693 356.383 79.8828C356.951 80.5964 357.234 81.5547 357.234 82.7578C357.234 84.0911 356.914 85.1589 356.273 85.9609C355.633 86.763 354.758 87.1641 353.648 87.1641C352.628 87.1641 351.841 86.7161 351.289 85.8203ZM351.242 82.6641V83.6562C351.242 84.2396 351.427 84.7344 351.797 85.1406C352.172 85.5469 352.646 85.75 353.219 85.75C353.891 85.75 354.417 85.4896 354.797 84.9688C355.182 84.4427 355.375 83.7109 355.375 82.7734C355.375 81.987 355.195 81.3724 354.836 80.9297C354.482 80.4818 354 80.2578 353.391 80.2578C352.745 80.2578 352.224 80.487 351.828 80.9453C351.438 81.4036 351.242 81.9766 351.242 82.6641ZM360.906 87H359.086V75.1562H360.906V87ZM369.414 87H367.656V85.75H367.625C367.073 86.7083 366.263 87.1875 365.195 87.1875C364.409 87.1875 363.792 86.974 363.344 86.5469C362.901 86.1198 362.68 85.5547 362.68 84.8516C362.68 83.3411 363.549 82.4609 365.289 82.2109L367.664 81.875C367.664 80.7344 367.122 80.1641 366.039 80.1641C365.086 80.1641 364.227 80.4922 363.461 81.1484V79.5625C364.305 79.0625 365.279 78.8125 366.383 78.8125C368.404 78.8125 369.414 79.8073 369.414 81.7969V87ZM367.664 83.0703L365.984 83.3047C365.464 83.3724 365.07 83.5 364.805 83.6875C364.544 83.8698 364.414 84.1927 364.414 84.6562C364.414 84.9948 364.534 85.2734 364.773 85.4922C365.018 85.7057 365.344 85.8125 365.75 85.8125C366.302 85.8125 366.758 85.6198 367.117 85.2344C367.482 84.8438 367.664 84.3542 367.664 83.7656V83.0703ZM378.758 87H376.945V82.4922C376.945 80.9974 376.417 80.25 375.359 80.25C374.807 80.25 374.352 80.4583 373.992 80.875C373.633 81.2865 373.453 81.8073 373.453 82.4375V87H371.633V79H373.453V80.3281H373.484C374.083 79.3177 374.948 78.8125 376.078 78.8125C376.948 78.8125 377.612 79.0964 378.07 79.6641C378.529 80.2266 378.758 81.0417 378.758 82.1094V87ZM388.102 87H386.289V82.4922C386.289 80.9974 385.76 80.25 384.703 80.25C384.151 80.25 383.695 80.4583 383.336 80.875C382.977 81.2865 382.797 81.8073 382.797 82.4375V87H380.977V79H382.797V80.3281H382.828C383.427 79.3177 384.292 78.8125 385.422 78.8125C386.292 78.8125 386.956 79.0964 387.414 79.6641C387.872 80.2266 388.102 81.0417 388.102 82.1094V87ZM391.234 77.3203C390.938 77.3203 390.682 77.224 390.469 77.0312C390.26 76.8385 390.156 76.5938 390.156 76.2969C390.156 76 390.26 75.7526 390.469 75.5547C390.682 75.3568 390.938 75.2578 391.234 75.2578C391.542 75.2578 391.802 75.3568 392.016 75.5547C392.229 75.7526 392.336 76 392.336 76.2969C392.336 76.5781 392.229 76.8203 392.016 77.0234C391.802 77.2214 391.542 77.3203 391.234 77.3203ZM392.133 87H390.32V79H392.133V87ZM401.633 87H399.82V82.4922C399.82 80.9974 399.292 80.25 398.234 80.25C397.682 80.25 397.227 80.4583 396.867 80.875C396.508 81.2865 396.328 81.8073 396.328 82.4375V87H394.508V79H396.328V80.3281H396.359C396.958 79.3177 397.823 78.8125 398.953 78.8125C399.823 78.8125 400.487 79.0964 400.945 79.6641C401.404 80.2266 401.633 81.0417 401.633 82.1094V87ZM411.133 86.3594C411.133 89.2969 409.656 90.7656 406.703 90.7656C405.661 90.7656 404.753 90.5911 403.977 90.2422V88.5859C404.852 89.0859 405.682 89.3359 406.469 89.3359C408.37 89.3359 409.32 88.401 409.32 86.5312V85.6562H409.289C408.69 86.6771 407.789 87.1875 406.586 87.1875C405.612 87.1875 404.826 86.8333 404.227 86.125C403.633 85.4115 403.336 84.4557 403.336 83.2578C403.336 81.8984 403.656 80.8177 404.297 80.0156C404.938 79.2135 405.818 78.8125 406.938 78.8125C407.995 78.8125 408.779 79.2448 409.289 80.1094H409.32V79H411.133V86.3594ZM409.336 83.3359V82.2969C409.336 81.7344 409.148 81.2552 408.773 80.8594C408.404 80.4583 407.94 80.2578 407.383 80.2578C406.695 80.2578 406.156 80.513 405.766 81.0234C405.38 81.5286 405.188 82.237 405.188 83.1484C405.188 83.9349 405.372 84.5651 405.742 85.0391C406.117 85.5078 406.612 85.7422 407.227 85.7422C407.852 85.7422 408.359 85.5182 408.75 85.0703C409.141 84.6172 409.336 84.0391 409.336 83.3359Z" fill="url(#paint3_linear_34_13478)"/>
<path d="M222 111L445 111" stroke="#3F6384" stroke-opacity="0.66" stroke-width="2" stroke-linecap="round"/>
<path d="M288.873 157H287.602L286.562 154.252H282.406L281.429 157H280.15L283.91 147.197H285.1L288.873 157ZM286.187 153.22L284.648 149.043C284.598 148.906 284.548 148.688 284.498 148.387H284.471C284.425 148.665 284.373 148.883 284.313 149.043L282.789 153.22H286.187ZM289.748 156.747V155.544C290.359 155.995 291.031 156.221 291.765 156.221C292.749 156.221 293.241 155.893 293.241 155.236C293.241 155.049 293.198 154.892 293.111 154.765C293.029 154.632 292.915 154.516 292.77 154.416C292.628 154.316 292.46 154.227 292.264 154.149C292.072 154.067 291.865 153.983 291.642 153.896C291.332 153.773 291.058 153.65 290.821 153.527C290.589 153.4 290.393 153.258 290.233 153.104C290.078 152.944 289.96 152.764 289.878 152.563C289.8 152.363 289.762 152.128 289.762 151.859C289.762 151.531 289.837 151.242 289.987 150.991C290.138 150.736 290.338 150.524 290.589 150.355C290.84 150.182 291.124 150.052 291.443 149.966C291.767 149.879 292.1 149.836 292.441 149.836C293.048 149.836 293.59 149.941 294.068 150.15V151.285C293.553 150.948 292.961 150.779 292.291 150.779C292.081 150.779 291.892 150.804 291.724 150.854C291.555 150.9 291.409 150.966 291.286 151.053C291.168 151.139 291.074 151.244 291.006 151.367C290.942 151.486 290.91 151.618 290.91 151.764C290.91 151.946 290.942 152.099 291.006 152.222C291.074 152.345 291.172 152.454 291.3 152.55C291.427 152.646 291.582 152.732 291.765 152.81C291.947 152.887 292.154 152.971 292.387 153.062C292.697 153.181 292.975 153.304 293.221 153.432C293.467 153.555 293.676 153.696 293.85 153.855C294.023 154.01 294.155 154.19 294.246 154.396C294.342 154.601 294.39 154.844 294.39 155.127C294.39 155.473 294.312 155.774 294.157 156.029C294.007 156.285 293.804 156.496 293.549 156.665C293.294 156.834 293 156.959 292.667 157.041C292.334 157.123 291.986 157.164 291.621 157.164C290.901 157.164 290.277 157.025 289.748 156.747ZM295.695 156.747V155.544C296.306 155.995 296.978 156.221 297.712 156.221C298.696 156.221 299.188 155.893 299.188 155.236C299.188 155.049 299.145 154.892 299.059 154.765C298.977 154.632 298.863 154.516 298.717 154.416C298.576 154.316 298.407 154.227 298.211 154.149C298.02 154.067 297.812 153.983 297.589 153.896C297.279 153.773 297.006 153.65 296.769 153.527C296.536 153.4 296.34 153.258 296.181 153.104C296.026 152.944 295.907 152.764 295.825 152.563C295.748 152.363 295.709 152.128 295.709 151.859C295.709 151.531 295.784 151.242 295.935 150.991C296.085 150.736 296.285 150.524 296.536 150.355C296.787 150.182 297.072 150.052 297.391 149.966C297.714 149.879 298.047 149.836 298.389 149.836C298.995 149.836 299.537 149.941 300.016 150.15V151.285C299.501 150.948 298.908 150.779 298.238 150.779C298.029 150.779 297.84 150.804 297.671 150.854C297.502 150.9 297.356 150.966 297.233 151.053C297.115 151.139 297.021 151.244 296.953 151.367C296.889 151.486 296.857 151.618 296.857 151.764C296.857 151.946 296.889 152.099 296.953 152.222C297.021 152.345 297.119 152.454 297.247 152.55C297.375 152.646 297.53 152.732 297.712 152.81C297.894 152.887 298.102 152.971 298.334 153.062C298.644 153.181 298.922 153.304 299.168 153.432C299.414 153.555 299.624 153.696 299.797 153.855C299.97 154.01 300.102 154.19 300.193 154.396C300.289 154.601 300.337 154.844 300.337 155.127C300.337 155.473 300.259 155.774 300.104 156.029C299.954 156.285 299.751 156.496 299.496 156.665C299.241 156.834 298.947 156.959 298.614 157.041C298.282 157.123 297.933 157.164 297.568 157.164C296.848 157.164 296.224 157.025 295.695 156.747ZM307.692 153.78H302.75C302.768 154.56 302.978 155.161 303.379 155.585C303.78 156.009 304.331 156.221 305.033 156.221C305.822 156.221 306.546 155.961 307.207 155.441V156.494C306.592 156.941 305.778 157.164 304.767 157.164C303.778 157.164 303.001 156.847 302.436 156.214C301.87 155.576 301.588 154.68 301.588 153.527C301.588 152.438 301.896 151.552 302.511 150.868C303.131 150.18 303.898 149.836 304.814 149.836C305.73 149.836 306.439 150.132 306.94 150.725C307.442 151.317 307.692 152.14 307.692 153.192V153.78ZM306.544 152.83C306.539 152.183 306.382 151.679 306.072 151.319C305.767 150.959 305.341 150.779 304.794 150.779C304.265 150.779 303.816 150.968 303.447 151.347C303.078 151.725 302.85 152.219 302.764 152.83H306.544ZM319.334 157H318.213V152.98C318.213 152.206 318.092 151.645 317.851 151.299C317.614 150.952 317.213 150.779 316.647 150.779C316.169 150.779 315.761 150.998 315.424 151.436C315.091 151.873 314.925 152.397 314.925 153.008V157H313.804V152.844C313.804 151.467 313.273 150.779 312.211 150.779C311.719 150.779 311.313 150.987 310.994 151.401C310.675 151.812 310.516 152.347 310.516 153.008V157H309.395V150H310.516V151.107H310.543C311.04 150.26 311.764 149.836 312.717 149.836C313.195 149.836 313.612 149.97 313.968 150.239C314.323 150.504 314.567 150.852 314.699 151.285C315.219 150.319 315.993 149.836 317.023 149.836C318.564 149.836 319.334 150.786 319.334 152.687V157ZM322.602 155.988H322.574V157H321.453V146.637H322.574V151.23H322.602C323.153 150.301 323.96 149.836 325.021 149.836C325.919 149.836 326.621 150.15 327.127 150.779C327.637 151.404 327.893 152.242 327.893 153.295C327.893 154.466 327.608 155.405 327.038 156.111C326.468 156.813 325.689 157.164 324.7 157.164C323.775 157.164 323.076 156.772 322.602 155.988ZM322.574 153.165V154.143C322.574 154.721 322.761 155.214 323.135 155.619C323.513 156.02 323.992 156.221 324.57 156.221C325.249 156.221 325.78 155.961 326.163 155.441C326.55 154.922 326.744 154.2 326.744 153.274C326.744 152.495 326.564 151.884 326.204 151.442C325.844 151 325.356 150.779 324.741 150.779C324.09 150.779 323.565 151.007 323.169 151.463C322.772 151.914 322.574 152.481 322.574 153.165ZM330.805 157H329.684V146.637H330.805V157ZM338.7 153.78H333.758C333.776 154.56 333.986 155.161 334.387 155.585C334.788 156.009 335.339 156.221 336.041 156.221C336.829 156.221 337.554 155.961 338.215 155.441V156.494C337.6 156.941 336.786 157.164 335.774 157.164C334.785 157.164 334.008 156.847 333.443 156.214C332.878 155.576 332.596 154.68 332.596 153.527C332.596 152.438 332.903 151.552 333.519 150.868C334.138 150.18 334.906 149.836 335.822 149.836C336.738 149.836 337.447 150.132 337.948 150.725C338.45 151.317 338.7 152.14 338.7 153.192V153.78ZM337.552 152.83C337.547 152.183 337.39 151.679 337.08 151.319C336.775 150.959 336.349 150.779 335.802 150.779C335.273 150.779 334.824 150.968 334.455 151.347C334.086 151.725 333.858 152.219 333.771 152.83H337.552ZM353.062 150L350.964 157H349.802L348.359 151.989C348.305 151.798 348.268 151.581 348.25 151.34H348.223C348.209 151.504 348.161 151.716 348.079 151.976L346.514 157H345.393L343.273 150H344.449L345.898 155.264C345.944 155.423 345.976 155.633 345.994 155.893H346.049C346.062 155.692 346.104 155.478 346.172 155.25L347.785 150H348.811L350.26 155.277C350.305 155.446 350.34 155.656 350.362 155.906H350.417C350.426 155.729 350.465 155.519 350.533 155.277L351.955 150H353.062ZM357.287 157.164C356.253 157.164 355.425 156.838 354.806 156.187C354.19 155.53 353.883 154.662 353.883 153.582C353.883 152.406 354.204 151.488 354.847 150.827C355.489 150.166 356.357 149.836 357.451 149.836C358.495 149.836 359.308 150.157 359.892 150.8C360.479 151.442 360.773 152.333 360.773 153.473C360.773 154.589 360.457 155.485 359.823 156.159C359.194 156.829 358.349 157.164 357.287 157.164ZM357.369 150.779C356.649 150.779 356.079 151.025 355.66 151.518C355.241 152.005 355.031 152.68 355.031 153.541C355.031 154.37 355.243 155.024 355.667 155.503C356.091 155.981 356.658 156.221 357.369 156.221C358.094 156.221 358.65 155.986 359.037 155.517C359.429 155.047 359.625 154.38 359.625 153.514C359.625 152.639 359.429 151.964 359.037 151.49C358.65 151.016 358.094 150.779 357.369 150.779ZM366.215 151.135C366.019 150.984 365.736 150.909 365.367 150.909C364.889 150.909 364.488 151.135 364.164 151.586C363.845 152.037 363.686 152.652 363.686 153.432V157H362.564V150H363.686V151.442H363.713C363.872 150.95 364.116 150.567 364.444 150.294C364.772 150.016 365.139 149.877 365.545 149.877C365.837 149.877 366.06 149.909 366.215 149.973V151.135ZM373.242 157H371.67L368.58 153.637H368.553V157H367.432V146.637H368.553V153.206H368.58L371.52 150H372.989L369.742 153.377L373.242 157ZM374.965 148.223C374.764 148.223 374.593 148.154 374.452 148.018C374.311 147.881 374.24 147.708 374.24 147.498C374.24 147.288 374.311 147.115 374.452 146.979C374.593 146.837 374.764 146.767 374.965 146.767C375.17 146.767 375.343 146.837 375.484 146.979C375.63 147.115 375.703 147.288 375.703 147.498C375.703 147.699 375.63 147.869 375.484 148.011C375.343 148.152 375.17 148.223 374.965 148.223ZM375.512 157H374.391V150H375.512V157ZM383.592 157H382.471V153.008C382.471 151.522 381.928 150.779 380.844 150.779C380.283 150.779 379.818 150.991 379.449 151.415C379.085 151.834 378.902 152.365 378.902 153.008V157H377.781V150H378.902V151.162H378.93C379.458 150.278 380.224 149.836 381.227 149.836C381.992 149.836 382.578 150.084 382.983 150.581C383.389 151.073 383.592 151.786 383.592 152.721V157ZM391.686 156.439C391.686 159.01 390.455 160.295 387.994 160.295C387.128 160.295 386.372 160.131 385.725 159.803V158.682C386.513 159.119 387.265 159.338 387.98 159.338C389.703 159.338 390.564 158.422 390.564 156.59V155.824H390.537C390.004 156.717 389.202 157.164 388.131 157.164C387.26 157.164 386.559 156.854 386.025 156.234C385.497 155.61 385.232 154.774 385.232 153.726C385.232 152.536 385.517 151.59 386.087 150.889C386.661 150.187 387.445 149.836 388.438 149.836C389.382 149.836 390.081 150.214 390.537 150.971H390.564V150H391.686V156.439ZM390.564 153.835V152.803C390.564 152.247 390.375 151.771 389.997 151.374C389.623 150.978 389.156 150.779 388.596 150.779C387.903 150.779 387.361 151.032 386.969 151.538C386.577 152.039 386.381 152.743 386.381 153.65C386.381 154.43 386.568 155.054 386.941 155.523C387.32 155.988 387.819 156.221 388.438 156.221C389.067 156.221 389.578 155.997 389.97 155.551C390.366 155.104 390.564 154.532 390.564 153.835ZM401.044 156.932C400.78 157.077 400.431 157.15 399.998 157.15C398.772 157.15 398.159 156.467 398.159 155.1V150.957H396.956V150H398.159V148.291L399.28 147.929V150H401.044V150.957H399.28V154.901C399.28 155.371 399.36 155.706 399.52 155.906C399.679 156.107 399.943 156.207 400.312 156.207C400.595 156.207 400.839 156.13 401.044 155.975V156.932ZM408.167 153.78H403.225C403.243 154.56 403.452 155.161 403.854 155.585C404.255 156.009 404.806 156.221 405.508 156.221C406.296 156.221 407.021 155.961 407.682 155.441V156.494C407.066 156.941 406.253 157.164 405.241 157.164C404.252 157.164 403.475 156.847 402.91 156.214C402.345 155.576 402.062 154.68 402.062 153.527C402.062 152.438 402.37 151.552 402.985 150.868C403.605 150.18 404.373 149.836 405.289 149.836C406.205 149.836 406.914 150.132 407.415 150.725C407.916 151.317 408.167 152.14 408.167 153.192V153.78ZM407.019 152.83C407.014 152.183 406.857 151.679 406.547 151.319C406.242 150.959 405.815 150.779 405.269 150.779C404.74 150.779 404.291 150.968 403.922 151.347C403.553 151.725 403.325 152.219 403.238 152.83H407.019ZM414.88 157H413.759V155.906H413.731C413.244 156.745 412.526 157.164 411.578 157.164C410.881 157.164 410.334 156.979 409.938 156.61C409.546 156.241 409.35 155.751 409.35 155.141C409.35 153.833 410.12 153.072 411.66 152.857L413.759 152.563C413.759 151.374 413.278 150.779 412.316 150.779C411.473 150.779 410.712 151.066 410.033 151.641V150.492C410.721 150.055 411.514 149.836 412.412 149.836C414.057 149.836 414.88 150.706 414.88 152.447V157ZM413.759 153.459L412.07 153.691C411.551 153.764 411.159 153.894 410.895 154.081C410.63 154.263 410.498 154.589 410.498 155.059C410.498 155.4 410.619 155.681 410.86 155.899C411.106 156.114 411.432 156.221 411.838 156.221C412.394 156.221 412.852 156.027 413.212 155.64C413.576 155.248 413.759 154.753 413.759 154.156V153.459ZM426.932 157H425.811V152.98C425.811 152.206 425.69 151.645 425.448 151.299C425.211 150.952 424.81 150.779 424.245 150.779C423.767 150.779 423.359 150.998 423.021 151.436C422.689 151.873 422.522 152.397 422.522 153.008V157H421.401V152.844C421.401 151.467 420.87 150.779 419.809 150.779C419.316 150.779 418.911 150.987 418.592 151.401C418.273 151.812 418.113 152.347 418.113 153.008V157H416.992V150H418.113V151.107H418.141C418.637 150.26 419.362 149.836 420.314 149.836C420.793 149.836 421.21 149.97 421.565 150.239C421.921 150.504 422.165 150.852 422.297 151.285C422.816 150.319 423.591 149.836 424.621 149.836C426.161 149.836 426.932 150.786 426.932 152.687V157Z" fill="url(#paint4_linear_34_13478)"/>
<path d="M287.957 243.59C287.232 243.973 286.33 244.164 285.25 244.164C283.855 244.164 282.739 243.715 281.9 242.817C281.062 241.92 280.643 240.742 280.643 239.283C280.643 237.715 281.114 236.449 282.058 235.482C283.001 234.516 284.197 234.033 285.646 234.033C286.576 234.033 287.346 234.168 287.957 234.437V235.66C287.255 235.268 286.48 235.072 285.633 235.072C284.507 235.072 283.593 235.448 282.892 236.2C282.194 236.952 281.846 237.957 281.846 239.215C281.846 240.409 282.172 241.361 282.823 242.072C283.479 242.779 284.339 243.132 285.4 243.132C286.385 243.132 287.237 242.913 287.957 242.476V243.59ZM292.729 244.164C291.694 244.164 290.867 243.838 290.247 243.187C289.632 242.53 289.324 241.662 289.324 240.582C289.324 239.406 289.646 238.488 290.288 237.827C290.931 237.166 291.799 236.836 292.893 236.836C293.936 236.836 294.75 237.157 295.333 237.8C295.921 238.442 296.215 239.333 296.215 240.473C296.215 241.589 295.898 242.485 295.265 243.159C294.636 243.829 293.79 244.164 292.729 244.164ZM292.811 237.779C292.09 237.779 291.521 238.025 291.102 238.518C290.682 239.005 290.473 239.68 290.473 240.541C290.473 241.37 290.685 242.024 291.108 242.503C291.532 242.981 292.1 243.221 292.811 243.221C293.535 243.221 294.091 242.986 294.479 242.517C294.87 242.047 295.066 241.38 295.066 240.514C295.066 239.639 294.87 238.964 294.479 238.49C294.091 238.016 293.535 237.779 292.811 237.779ZM307.945 244H306.824V239.98C306.824 239.206 306.703 238.645 306.462 238.299C306.225 237.952 305.824 237.779 305.259 237.779C304.78 237.779 304.372 237.998 304.035 238.436C303.702 238.873 303.536 239.397 303.536 240.008V244H302.415V239.844C302.415 238.467 301.884 237.779 300.822 237.779C300.33 237.779 299.924 237.987 299.605 238.401C299.286 238.812 299.127 239.347 299.127 240.008V244H298.006V237H299.127V238.107H299.154C299.651 237.26 300.376 236.836 301.328 236.836C301.807 236.836 302.224 236.97 302.579 237.239C302.935 237.504 303.178 237.852 303.311 238.285C303.83 237.319 304.605 236.836 305.635 236.836C307.175 236.836 307.945 237.786 307.945 239.687V244ZM311.213 242.988H311.186V247.22H310.064V237H311.186V238.23H311.213C311.764 237.301 312.571 236.836 313.633 236.836C314.535 236.836 315.239 237.15 315.745 237.779C316.251 238.404 316.504 239.242 316.504 240.295C316.504 241.466 316.219 242.405 315.649 243.111C315.08 243.813 314.3 244.164 313.312 244.164C312.405 244.164 311.705 243.772 311.213 242.988ZM311.186 240.165V241.143C311.186 241.721 311.372 242.214 311.746 242.619C312.124 243.02 312.603 243.221 313.182 243.221C313.861 243.221 314.392 242.961 314.774 242.441C315.162 241.922 315.355 241.2 315.355 240.274C315.355 239.495 315.175 238.884 314.815 238.442C314.455 238 313.968 237.779 313.353 237.779C312.701 237.779 312.177 238.007 311.78 238.463C311.384 238.914 311.186 239.481 311.186 240.165ZM319.416 244H318.295V233.637H319.416V244ZM327.312 240.78H322.369C322.387 241.56 322.597 242.161 322.998 242.585C323.399 243.009 323.951 243.221 324.652 243.221C325.441 243.221 326.165 242.961 326.826 242.441V243.494C326.211 243.941 325.397 244.164 324.386 244.164C323.397 244.164 322.62 243.847 322.055 243.214C321.49 242.576 321.207 241.68 321.207 240.527C321.207 239.438 321.515 238.552 322.13 237.868C322.75 237.18 323.518 236.836 324.434 236.836C325.35 236.836 326.058 237.132 326.56 237.725C327.061 238.317 327.312 239.14 327.312 240.192V240.78ZM326.163 239.83C326.159 239.183 326.001 238.679 325.691 238.319C325.386 237.959 324.96 237.779 324.413 237.779C323.884 237.779 323.436 237.968 323.066 238.347C322.697 238.725 322.469 239.219 322.383 239.83H326.163ZM332.261 243.932C331.996 244.077 331.648 244.15 331.215 244.15C329.989 244.15 329.376 243.467 329.376 242.1V237.957H328.173V237H329.376V235.291L330.497 234.929V237H332.261V237.957H330.497V241.901C330.497 242.371 330.577 242.706 330.736 242.906C330.896 243.107 331.16 243.207 331.529 243.207C331.812 243.207 332.056 243.13 332.261 242.975V243.932ZM339.384 240.78H334.441C334.46 241.56 334.669 242.161 335.07 242.585C335.471 243.009 336.023 243.221 336.725 243.221C337.513 243.221 338.238 242.961 338.898 242.441V243.494C338.283 243.941 337.47 244.164 336.458 244.164C335.469 244.164 334.692 243.847 334.127 243.214C333.562 242.576 333.279 241.68 333.279 240.527C333.279 239.438 333.587 238.552 334.202 237.868C334.822 237.18 335.59 236.836 336.506 236.836C337.422 236.836 338.131 237.132 338.632 237.725C339.133 238.317 339.384 239.14 339.384 240.192V240.78ZM338.235 239.83C338.231 239.183 338.074 238.679 337.764 238.319C337.458 237.959 337.032 237.779 336.485 237.779C335.957 237.779 335.508 237.968 335.139 238.347C334.77 238.725 334.542 239.219 334.455 239.83H338.235ZM349.938 244H348.817V242.906H348.79C348.302 243.745 347.585 244.164 346.637 244.164C345.939 244.164 345.393 243.979 344.996 243.61C344.604 243.241 344.408 242.751 344.408 242.141C344.408 240.833 345.178 240.072 346.719 239.857L348.817 239.563C348.817 238.374 348.337 237.779 347.375 237.779C346.532 237.779 345.771 238.066 345.092 238.641V237.492C345.78 237.055 346.573 236.836 347.471 236.836C349.116 236.836 349.938 237.706 349.938 239.447V244ZM348.817 240.459L347.129 240.691C346.609 240.764 346.217 240.894 345.953 241.081C345.689 241.263 345.557 241.589 345.557 242.059C345.557 242.4 345.677 242.681 345.919 242.899C346.165 243.114 346.491 243.221 346.896 243.221C347.452 243.221 347.91 243.027 348.271 242.64C348.635 242.248 348.817 241.753 348.817 241.156V240.459ZM351.627 243.747V242.544C352.238 242.995 352.91 243.221 353.644 243.221C354.628 243.221 355.12 242.893 355.12 242.236C355.12 242.049 355.077 241.892 354.99 241.765C354.908 241.632 354.794 241.516 354.648 241.416C354.507 241.316 354.339 241.227 354.143 241.149C353.951 241.067 353.744 240.983 353.521 240.896C353.211 240.773 352.937 240.65 352.7 240.527C352.468 240.4 352.272 240.258 352.112 240.104C351.957 239.944 351.839 239.764 351.757 239.563C351.679 239.363 351.641 239.128 351.641 238.859C351.641 238.531 351.716 238.242 351.866 237.991C352.017 237.736 352.217 237.524 352.468 237.355C352.718 237.182 353.003 237.052 353.322 236.966C353.646 236.879 353.979 236.836 354.32 236.836C354.926 236.836 355.469 236.941 355.947 237.15V238.285C355.432 237.948 354.84 237.779 354.17 237.779C353.96 237.779 353.771 237.804 353.603 237.854C353.434 237.9 353.288 237.966 353.165 238.053C353.047 238.139 352.953 238.244 352.885 238.367C352.821 238.486 352.789 238.618 352.789 238.764C352.789 238.946 352.821 239.099 352.885 239.222C352.953 239.345 353.051 239.454 353.179 239.55C353.306 239.646 353.461 239.732 353.644 239.81C353.826 239.887 354.033 239.971 354.266 240.062C354.576 240.181 354.854 240.304 355.1 240.432C355.346 240.555 355.555 240.696 355.729 240.855C355.902 241.01 356.034 241.19 356.125 241.396C356.221 241.601 356.269 241.844 356.269 242.127C356.269 242.473 356.191 242.774 356.036 243.029C355.886 243.285 355.683 243.496 355.428 243.665C355.173 243.834 354.879 243.959 354.546 244.041C354.213 244.123 353.865 244.164 353.5 244.164C352.78 244.164 352.156 244.025 351.627 243.747ZM357.574 243.747V242.544C358.185 242.995 358.857 243.221 359.591 243.221C360.575 243.221 361.067 242.893 361.067 242.236C361.067 242.049 361.024 241.892 360.938 241.765C360.855 241.632 360.742 241.516 360.596 241.416C360.454 241.316 360.286 241.227 360.09 241.149C359.898 241.067 359.691 240.983 359.468 240.896C359.158 240.773 358.884 240.65 358.647 240.527C358.415 240.4 358.219 240.258 358.06 240.104C357.905 239.944 357.786 239.764 357.704 239.563C357.627 239.363 357.588 239.128 357.588 238.859C357.588 238.531 357.663 238.242 357.813 237.991C357.964 237.736 358.164 237.524 358.415 237.355C358.666 237.182 358.951 237.052 359.27 236.966C359.593 236.879 359.926 236.836 360.268 236.836C360.874 236.836 361.416 236.941 361.895 237.15V238.285C361.38 237.948 360.787 237.779 360.117 237.779C359.908 237.779 359.718 237.804 359.55 237.854C359.381 237.9 359.235 237.966 359.112 238.053C358.994 238.139 358.9 238.244 358.832 238.367C358.768 238.486 358.736 238.618 358.736 238.764C358.736 238.946 358.768 239.099 358.832 239.222C358.9 239.345 358.998 239.454 359.126 239.55C359.254 239.646 359.409 239.732 359.591 239.81C359.773 239.887 359.98 239.971 360.213 240.062C360.523 240.181 360.801 240.304 361.047 240.432C361.293 240.555 361.503 240.696 361.676 240.855C361.849 241.01 361.981 241.19 362.072 241.396C362.168 241.601 362.216 241.844 362.216 242.127C362.216 242.473 362.138 242.774 361.983 243.029C361.833 243.285 361.63 243.496 361.375 243.665C361.12 243.834 360.826 243.959 360.493 244.041C360.16 244.123 359.812 244.164 359.447 244.164C358.727 244.164 358.103 244.025 357.574 243.747ZM369.571 240.78H364.629C364.647 241.56 364.857 242.161 365.258 242.585C365.659 243.009 366.21 243.221 366.912 243.221C367.701 243.221 368.425 242.961 369.086 242.441V243.494C368.471 243.941 367.657 244.164 366.646 244.164C365.657 244.164 364.88 243.847 364.314 243.214C363.749 242.576 363.467 241.68 363.467 240.527C363.467 239.438 363.774 238.552 364.39 237.868C365.009 237.18 365.777 236.836 366.693 236.836C367.609 236.836 368.318 237.132 368.819 237.725C369.321 238.317 369.571 239.14 369.571 240.192V240.78ZM368.423 239.83C368.418 239.183 368.261 238.679 367.951 238.319C367.646 237.959 367.22 237.779 366.673 237.779C366.144 237.779 365.695 237.968 365.326 238.347C364.957 238.725 364.729 239.219 364.643 239.83H368.423ZM370.85 243.747V242.544C371.46 242.995 372.132 243.221 372.866 243.221C373.851 243.221 374.343 242.893 374.343 242.236C374.343 242.049 374.299 241.892 374.213 241.765C374.131 241.632 374.017 241.516 373.871 241.416C373.73 241.316 373.561 241.227 373.365 241.149C373.174 241.067 372.966 240.983 372.743 240.896C372.433 240.773 372.16 240.65 371.923 240.527C371.69 240.4 371.494 240.258 371.335 240.104C371.18 239.944 371.062 239.764 370.979 239.563C370.902 239.363 370.863 239.128 370.863 238.859C370.863 238.531 370.938 238.242 371.089 237.991C371.239 237.736 371.44 237.524 371.69 237.355C371.941 237.182 372.226 237.052 372.545 236.966C372.868 236.879 373.201 236.836 373.543 236.836C374.149 236.836 374.691 236.941 375.17 237.15V238.285C374.655 237.948 374.062 237.779 373.393 237.779C373.183 237.779 372.994 237.804 372.825 237.854C372.657 237.9 372.511 237.966 372.388 238.053C372.269 238.139 372.176 238.244 372.107 238.367C372.044 238.486 372.012 238.618 372.012 238.764C372.012 238.946 372.044 239.099 372.107 239.222C372.176 239.345 372.274 239.454 372.401 239.55C372.529 239.646 372.684 239.732 372.866 239.81C373.049 239.887 373.256 239.971 373.488 240.062C373.798 240.181 374.076 240.304 374.322 240.432C374.568 240.555 374.778 240.696 374.951 240.855C375.124 241.01 375.257 241.19 375.348 241.396C375.443 241.601 375.491 241.844 375.491 242.127C375.491 242.473 375.414 242.774 375.259 243.029C375.108 243.285 374.906 243.496 374.65 243.665C374.395 243.834 374.101 243.959 373.769 244.041C373.436 244.123 373.087 244.164 372.723 244.164C372.003 244.164 371.378 244.025 370.85 243.747ZM376.797 243.747V242.544C377.408 242.995 378.08 243.221 378.813 243.221C379.798 243.221 380.29 242.893 380.29 242.236C380.29 242.049 380.247 241.892 380.16 241.765C380.078 241.632 379.964 241.516 379.818 241.416C379.677 241.316 379.508 241.227 379.312 241.149C379.121 241.067 378.914 240.983 378.69 240.896C378.381 240.773 378.107 240.65 377.87 240.527C377.638 240.4 377.442 240.258 377.282 240.104C377.127 239.944 377.009 239.764 376.927 239.563C376.849 239.363 376.811 239.128 376.811 238.859C376.811 238.531 376.886 238.242 377.036 237.991C377.187 237.736 377.387 237.524 377.638 237.355C377.888 237.182 378.173 237.052 378.492 236.966C378.816 236.879 379.148 236.836 379.49 236.836C380.096 236.836 380.639 236.941 381.117 237.15V238.285C380.602 237.948 380.01 237.779 379.34 237.779C379.13 237.779 378.941 237.804 378.772 237.854C378.604 237.9 378.458 237.966 378.335 238.053C378.216 238.139 378.123 238.244 378.055 238.367C377.991 238.486 377.959 238.618 377.959 238.764C377.959 238.946 377.991 239.099 378.055 239.222C378.123 239.345 378.221 239.454 378.349 239.55C378.476 239.646 378.631 239.732 378.813 239.81C378.996 239.887 379.203 239.971 379.436 240.062C379.745 240.181 380.023 240.304 380.27 240.432C380.516 240.555 380.725 240.696 380.898 240.855C381.072 241.01 381.204 241.19 381.295 241.396C381.391 241.601 381.438 241.844 381.438 242.127C381.438 242.473 381.361 242.774 381.206 243.029C381.056 243.285 380.853 243.496 380.598 243.665C380.342 243.834 380.049 243.959 379.716 244.041C379.383 244.123 379.035 244.164 378.67 244.164C377.95 244.164 377.326 244.025 376.797 243.747ZM393.107 244H391.986V239.98C391.986 239.206 391.866 238.645 391.624 238.299C391.387 237.952 390.986 237.779 390.421 237.779C389.942 237.779 389.535 237.998 389.197 238.436C388.865 238.873 388.698 239.397 388.698 240.008V244H387.577V239.844C387.577 238.467 387.046 237.779 385.984 237.779C385.492 237.779 385.087 237.987 384.768 238.401C384.449 238.812 384.289 239.347 384.289 240.008V244H383.168V237H384.289V238.107H384.316C384.813 237.26 385.538 236.836 386.49 236.836C386.969 236.836 387.386 236.97 387.741 237.239C388.097 237.504 388.34 237.852 388.473 238.285C388.992 237.319 389.767 236.836 390.797 236.836C392.337 236.836 393.107 237.786 393.107 239.687V244ZM400.853 240.78H395.91C395.928 241.56 396.138 242.161 396.539 242.585C396.94 243.009 397.492 243.221 398.193 243.221C398.982 243.221 399.706 242.961 400.367 242.441V243.494C399.752 243.941 398.938 244.164 397.927 244.164C396.938 244.164 396.161 243.847 395.596 243.214C395.031 242.576 394.748 241.68 394.748 240.527C394.748 239.438 395.056 238.552 395.671 237.868C396.291 237.18 397.059 236.836 397.975 236.836C398.891 236.836 399.599 237.132 400.101 237.725C400.602 238.317 400.853 239.14 400.853 240.192V240.78ZM399.704 239.83C399.7 239.183 399.542 238.679 399.232 238.319C398.927 237.959 398.501 237.779 397.954 237.779C397.425 237.779 396.977 237.968 396.607 238.347C396.238 238.725 396.01 239.219 395.924 239.83H399.704ZM408.365 244H407.244V240.008C407.244 238.522 406.702 237.779 405.617 237.779C405.057 237.779 404.592 237.991 404.223 238.415C403.858 238.834 403.676 239.365 403.676 240.008V244H402.555V237H403.676V238.162H403.703C404.232 237.278 404.997 236.836 406 236.836C406.766 236.836 407.351 237.084 407.757 237.581C408.162 238.073 408.365 238.786 408.365 239.721V244ZM413.731 243.932C413.467 244.077 413.118 244.15 412.686 244.15C411.46 244.15 410.847 243.467 410.847 242.1V237.957H409.644V237H410.847V235.291L411.968 234.929V237H413.731V237.957H411.968V241.901C411.968 242.371 412.048 242.706 412.207 242.906C412.367 243.107 412.631 243.207 413 243.207C413.283 243.207 413.526 243.13 413.731 242.975V243.932ZM414.805 243.747V242.544C415.415 242.995 416.088 243.221 416.821 243.221C417.806 243.221 418.298 242.893 418.298 242.236C418.298 242.049 418.255 241.892 418.168 241.765C418.086 241.632 417.972 241.516 417.826 241.416C417.685 241.316 417.516 241.227 417.32 241.149C417.129 241.067 416.922 240.983 416.698 240.896C416.388 240.773 416.115 240.65 415.878 240.527C415.646 240.4 415.45 240.258 415.29 240.104C415.135 239.944 415.017 239.764 414.935 239.563C414.857 239.363 414.818 239.128 414.818 238.859C414.818 238.531 414.894 238.242 415.044 237.991C415.194 237.736 415.395 237.524 415.646 237.355C415.896 237.182 416.181 237.052 416.5 236.966C416.824 236.879 417.156 236.836 417.498 236.836C418.104 236.836 418.646 236.941 419.125 237.15V238.285C418.61 237.948 418.018 237.779 417.348 237.779C417.138 237.779 416.949 237.804 416.78 237.854C416.612 237.9 416.466 237.966 416.343 238.053C416.224 238.139 416.131 238.244 416.062 238.367C415.999 238.486 415.967 238.618 415.967 238.764C415.967 238.946 415.999 239.099 416.062 239.222C416.131 239.345 416.229 239.454 416.356 239.55C416.484 239.646 416.639 239.732 416.821 239.81C417.004 239.887 417.211 239.971 417.443 240.062C417.753 240.181 418.031 240.304 418.277 240.432C418.523 240.555 418.733 240.696 418.906 240.855C419.079 241.01 419.212 241.19 419.303 241.396C419.398 241.601 419.446 241.844 419.446 242.127C419.446 242.473 419.369 242.774 419.214 243.029C419.063 243.285 418.861 243.496 418.605 243.665C418.35 243.834 418.056 243.959 417.724 244.041C417.391 244.123 417.042 244.164 416.678 244.164C415.958 244.164 415.333 244.025 414.805 243.747Z" fill="url(#paint5_linear_34_13478)"/>
<path d="M282.434 197.295V201H281.285V191.197H283.979C285.027 191.197 285.838 191.452 286.412 191.963C286.991 192.473 287.28 193.193 287.28 194.123C287.28 195.053 286.959 195.814 286.316 196.406C285.678 196.999 284.815 197.295 283.726 197.295H282.434ZM282.434 192.236V196.256H283.637C284.43 196.256 285.034 196.076 285.448 195.716C285.868 195.351 286.077 194.839 286.077 194.178C286.077 192.883 285.312 192.236 283.78 192.236H282.434ZM292.633 195.135C292.437 194.984 292.154 194.909 291.785 194.909C291.307 194.909 290.906 195.135 290.582 195.586C290.263 196.037 290.104 196.652 290.104 197.432V201H288.982V194H290.104V195.442H290.131C290.29 194.95 290.534 194.567 290.862 194.294C291.19 194.016 291.557 193.877 291.963 193.877C292.255 193.877 292.478 193.909 292.633 193.973V195.135ZM299.476 197.78H294.533C294.551 198.56 294.761 199.161 295.162 199.585C295.563 200.009 296.115 200.221 296.816 200.221C297.605 200.221 298.329 199.961 298.99 199.441V200.494C298.375 200.941 297.562 201.164 296.55 201.164C295.561 201.164 294.784 200.847 294.219 200.214C293.654 199.576 293.371 198.68 293.371 197.527C293.371 196.438 293.679 195.552 294.294 194.868C294.914 194.18 295.682 193.836 296.598 193.836C297.514 193.836 298.222 194.132 298.724 194.725C299.225 195.317 299.476 196.14 299.476 197.192V197.78ZM298.327 196.83C298.323 196.183 298.165 195.679 297.855 195.319C297.55 194.959 297.124 194.779 296.577 194.779C296.049 194.779 295.6 194.968 295.23 195.347C294.861 195.725 294.633 196.219 294.547 196.83H298.327ZM302.326 199.988H302.299V204.22H301.178V194H302.299V195.23H302.326C302.878 194.301 303.684 193.836 304.746 193.836C305.648 193.836 306.353 194.15 306.858 194.779C307.364 195.404 307.617 196.242 307.617 197.295C307.617 198.466 307.332 199.405 306.763 200.111C306.193 200.813 305.414 201.164 304.425 201.164C303.518 201.164 302.818 200.772 302.326 199.988ZM302.299 197.165V198.143C302.299 198.721 302.486 199.214 302.859 199.619C303.238 200.02 303.716 200.221 304.295 200.221C304.974 200.221 305.505 199.961 305.888 199.441C306.275 198.922 306.469 198.2 306.469 197.274C306.469 196.495 306.289 195.884 305.929 195.442C305.569 195 305.081 194.779 304.466 194.779C303.814 194.779 303.29 195.007 302.894 195.463C302.497 195.914 302.299 196.481 302.299 197.165ZM314.419 201H313.298V199.906H313.271C312.783 200.745 312.065 201.164 311.117 201.164C310.42 201.164 309.873 200.979 309.477 200.61C309.085 200.241 308.889 199.751 308.889 199.141C308.889 197.833 309.659 197.072 311.199 196.857L313.298 196.563C313.298 195.374 312.817 194.779 311.855 194.779C311.012 194.779 310.251 195.066 309.572 195.641V194.492C310.26 194.055 311.053 193.836 311.951 193.836C313.596 193.836 314.419 194.706 314.419 196.447V201ZM313.298 197.459L311.609 197.691C311.09 197.764 310.698 197.894 310.434 198.081C310.169 198.263 310.037 198.589 310.037 199.059C310.037 199.4 310.158 199.681 310.399 199.899C310.646 200.114 310.971 200.221 311.377 200.221C311.933 200.221 312.391 200.027 312.751 199.64C313.116 199.248 313.298 198.753 313.298 198.156V197.459ZM320.182 195.135C319.986 194.984 319.703 194.909 319.334 194.909C318.855 194.909 318.454 195.135 318.131 195.586C317.812 196.037 317.652 196.652 317.652 197.432V201H316.531V194H317.652V195.442H317.68C317.839 194.95 318.083 194.567 318.411 194.294C318.739 194.016 319.106 193.877 319.512 193.877C319.803 193.877 320.027 193.909 320.182 193.973V195.135ZM327.024 197.78H322.082C322.1 198.56 322.31 199.161 322.711 199.585C323.112 200.009 323.663 200.221 324.365 200.221C325.154 200.221 325.878 199.961 326.539 199.441V200.494C325.924 200.941 325.11 201.164 324.099 201.164C323.11 201.164 322.333 200.847 321.768 200.214C321.202 199.576 320.92 198.68 320.92 197.527C320.92 196.438 321.228 195.552 321.843 194.868C322.463 194.18 323.23 193.836 324.146 193.836C325.062 193.836 325.771 194.132 326.272 194.725C326.774 195.317 327.024 196.14 327.024 197.192V197.78ZM325.876 196.83C325.871 196.183 325.714 195.679 325.404 195.319C325.099 194.959 324.673 194.779 324.126 194.779C323.597 194.779 323.148 194.968 322.779 195.347C322.41 195.725 322.182 196.219 322.096 196.83H325.876ZM341.387 194L339.288 201H338.126L336.684 195.989C336.629 195.798 336.592 195.581 336.574 195.34H336.547C336.533 195.504 336.485 195.716 336.403 195.976L334.838 201H333.717L331.598 194H332.773L334.223 199.264C334.268 199.423 334.3 199.633 334.318 199.893H334.373C334.387 199.692 334.428 199.478 334.496 199.25L336.109 194H337.135L338.584 199.277C338.63 199.446 338.664 199.656 338.687 199.906H338.741C338.75 199.729 338.789 199.519 338.857 199.277L340.279 194H341.387ZM345.611 201.164C344.577 201.164 343.75 200.838 343.13 200.187C342.515 199.53 342.207 198.662 342.207 197.582C342.207 196.406 342.528 195.488 343.171 194.827C343.813 194.166 344.682 193.836 345.775 193.836C346.819 193.836 347.632 194.157 348.216 194.8C348.804 195.442 349.098 196.333 349.098 197.473C349.098 198.589 348.781 199.485 348.147 200.159C347.519 200.829 346.673 201.164 345.611 201.164ZM345.693 194.779C344.973 194.779 344.404 195.025 343.984 195.518C343.565 196.005 343.355 196.68 343.355 197.541C343.355 198.37 343.567 199.024 343.991 199.503C344.415 199.981 344.982 200.221 345.693 200.221C346.418 200.221 346.974 199.986 347.361 199.517C347.753 199.047 347.949 198.38 347.949 197.514C347.949 196.639 347.753 195.964 347.361 195.49C346.974 195.016 346.418 194.779 345.693 194.779ZM354.539 195.135C354.343 194.984 354.061 194.909 353.691 194.909C353.213 194.909 352.812 195.135 352.488 195.586C352.169 196.037 352.01 196.652 352.01 197.432V201H350.889V194H352.01V195.442H352.037C352.197 194.95 352.44 194.567 352.769 194.294C353.097 194.016 353.464 193.877 353.869 193.877C354.161 193.877 354.384 193.909 354.539 193.973V195.135ZM361.566 201H359.994L356.904 197.637H356.877V201H355.756V190.637H356.877V197.206H356.904L359.844 194H361.313L358.066 197.377L361.566 201ZM362.291 200.747V199.544C362.902 199.995 363.574 200.221 364.308 200.221C365.292 200.221 365.784 199.893 365.784 199.236C365.784 199.049 365.741 198.892 365.654 198.765C365.572 198.632 365.458 198.516 365.312 198.416C365.171 198.316 365.003 198.227 364.807 198.149C364.615 198.067 364.408 197.983 364.185 197.896C363.875 197.773 363.601 197.65 363.364 197.527C363.132 197.4 362.936 197.258 362.776 197.104C362.621 196.944 362.503 196.764 362.421 196.563C362.343 196.363 362.305 196.128 362.305 195.859C362.305 195.531 362.38 195.242 362.53 194.991C362.681 194.736 362.881 194.524 363.132 194.355C363.382 194.182 363.667 194.052 363.986 193.966C364.31 193.879 364.643 193.836 364.984 193.836C365.59 193.836 366.133 193.941 366.611 194.15V195.285C366.096 194.948 365.504 194.779 364.834 194.779C364.624 194.779 364.435 194.804 364.267 194.854C364.098 194.9 363.952 194.966 363.829 195.053C363.711 195.139 363.617 195.244 363.549 195.367C363.485 195.486 363.453 195.618 363.453 195.764C363.453 195.946 363.485 196.099 363.549 196.222C363.617 196.345 363.715 196.454 363.843 196.55C363.97 196.646 364.125 196.732 364.308 196.81C364.49 196.887 364.697 196.971 364.93 197.062C365.24 197.181 365.518 197.304 365.764 197.432C366.01 197.555 366.219 197.696 366.393 197.855C366.566 198.01 366.698 198.19 366.789 198.396C366.885 198.601 366.933 198.844 366.933 199.127C366.933 199.473 366.855 199.774 366.7 200.029C366.55 200.285 366.347 200.496 366.092 200.665C365.837 200.834 365.543 200.959 365.21 201.041C364.877 201.123 364.529 201.164 364.164 201.164C363.444 201.164 362.82 201.025 362.291 200.747ZM374.473 201H373.352V196.967C373.352 195.508 372.809 194.779 371.725 194.779C371.178 194.779 370.717 194.991 370.344 195.415C369.97 195.834 369.783 196.374 369.783 197.035V201H368.662V190.637H369.783V195.162H369.811C370.348 194.278 371.114 193.836 372.107 193.836C373.684 193.836 374.473 194.786 374.473 196.687V201ZM379.518 201.164C378.483 201.164 377.656 200.838 377.036 200.187C376.421 199.53 376.113 198.662 376.113 197.582C376.113 196.406 376.435 195.488 377.077 194.827C377.72 194.166 378.588 193.836 379.682 193.836C380.725 193.836 381.539 194.157 382.122 194.8C382.71 195.442 383.004 196.333 383.004 197.473C383.004 198.589 382.687 199.485 382.054 200.159C381.425 200.829 380.579 201.164 379.518 201.164ZM379.6 194.779C378.88 194.779 378.31 195.025 377.891 195.518C377.471 196.005 377.262 196.68 377.262 197.541C377.262 198.37 377.474 199.024 377.897 199.503C378.321 199.981 378.889 200.221 379.6 200.221C380.324 200.221 380.88 199.986 381.268 199.517C381.66 199.047 381.855 198.38 381.855 197.514C381.855 196.639 381.66 195.964 381.268 195.49C380.88 195.016 380.324 194.779 379.6 194.779ZM385.943 199.988H385.916V204.22H384.795V194H385.916V195.23H385.943C386.495 194.301 387.301 193.836 388.363 193.836C389.266 193.836 389.97 194.15 390.476 194.779C390.981 195.404 391.234 196.242 391.234 197.295C391.234 198.466 390.95 199.405 390.38 200.111C389.81 200.813 389.031 201.164 388.042 201.164C387.135 201.164 386.436 200.772 385.943 199.988ZM385.916 197.165V198.143C385.916 198.721 386.103 199.214 386.477 199.619C386.855 200.02 387.333 200.221 387.912 200.221C388.591 200.221 389.122 199.961 389.505 199.441C389.892 198.922 390.086 198.2 390.086 197.274C390.086 196.495 389.906 195.884 389.546 195.442C389.186 195 388.698 194.779 388.083 194.779C387.431 194.779 386.907 195.007 386.511 195.463C386.114 195.914 385.916 196.481 385.916 197.165ZM392.602 200.747V199.544C393.212 199.995 393.884 200.221 394.618 200.221C395.603 200.221 396.095 199.893 396.095 199.236C396.095 199.049 396.051 198.892 395.965 198.765C395.883 198.632 395.769 198.516 395.623 198.416C395.482 198.316 395.313 198.227 395.117 198.149C394.926 198.067 394.718 197.983 394.495 197.896C394.185 197.773 393.912 197.65 393.675 197.527C393.442 197.4 393.246 197.258 393.087 197.104C392.932 196.944 392.813 196.764 392.731 196.563C392.654 196.363 392.615 196.128 392.615 195.859C392.615 195.531 392.69 195.242 392.841 194.991C392.991 194.736 393.192 194.524 393.442 194.355C393.693 194.182 393.978 194.052 394.297 193.966C394.62 193.879 394.953 193.836 395.295 193.836C395.901 193.836 396.443 193.941 396.922 194.15V195.285C396.407 194.948 395.814 194.779 395.145 194.779C394.935 194.779 394.746 194.804 394.577 194.854C394.409 194.9 394.263 194.966 394.14 195.053C394.021 195.139 393.928 195.244 393.859 195.367C393.796 195.486 393.764 195.618 393.764 195.764C393.764 195.946 393.796 196.099 393.859 196.222C393.928 196.345 394.026 196.454 394.153 196.55C394.281 196.646 394.436 196.732 394.618 196.81C394.8 196.887 395.008 196.971 395.24 197.062C395.55 197.181 395.828 197.304 396.074 197.432C396.32 197.555 396.53 197.696 396.703 197.855C396.876 198.01 397.008 198.19 397.1 198.396C397.195 198.601 397.243 198.844 397.243 199.127C397.243 199.473 397.166 199.774 397.011 200.029C396.86 200.285 396.658 200.496 396.402 200.665C396.147 200.834 395.853 200.959 395.521 201.041C395.188 201.123 394.839 201.164 394.475 201.164C393.755 201.164 393.13 201.025 392.602 200.747Z" fill="url(#paint6_linear_34_13478)"/>
<path d="M243 142.5C243 140.567 244.567 139 246.5 139H265.5C267.433 139 269 140.567 269 142.5V161.5C269 163.433 267.433 165 265.5 165H246.5C244.567 165 243 163.433 243 161.5V142.5Z" fill="url(#paint7_linear_34_13478)"/>
<path d="M243 142.5C243 140.567 244.567 139 246.5 139H265.5C267.433 139 269 140.567 269 142.5V161.5C269 163.433 267.433 165 265.5 165H246.5C244.567 165 243 163.433 243 161.5V142.5Z" fill="url(#paint8_radial_34_13478)" fill-opacity="0.2"/>
<path fill-rule="evenodd" clip-rule="evenodd" d="M265.5 140H246.5C245.119 140 244 141.119 244 142.5V161.5C244 162.881 245.119 164 246.5 164H265.5C266.881 164 268 162.881 268 161.5V142.5C268 141.119 266.881 140 265.5 140ZM246.5 139C244.567 139 243 140.567 243 142.5V161.5C243 163.433 244.567 165 246.5 165H265.5C267.433 165 269 163.433 269 161.5V142.5C269 140.567 267.433 139 265.5 139H246.5Z" fill="url(#paint9_linear_34_13478)"/>
<path d="M248.025 151.256L249.025 148.439C249.061 148.322 249.134 148.224 249.206 148.146L249.734 147.579L249.461 147.266C249.315 147.109 249.315 146.835 249.461 146.679L250.024 146.072C250.17 145.916 250.424 145.916 250.57 146.072L250.86 146.366L252.478 144.625C252.623 144.468 252.878 144.468 253.023 144.625L254.786 146.542C254.932 146.698 254.932 146.972 254.786 147.129L253.223 148.83L262.274 158.142C262.42 158.298 262.42 158.572 262.274 158.729L261.202 159.883C261.057 160.039 260.802 160.039 260.657 159.883L252.005 150.141L251.551 150.63C251.46 150.728 251.351 150.787 251.242 150.826L248.516 151.784C248.37 151.823 248.225 151.784 248.116 151.667C248.007 151.569 247.971 151.393 248.025 151.256Z" fill="url(#paint10_linear_34_13478)"/>
<path d="M258.93 148.165L256.567 146.483C256.477 146.405 256.422 146.307 256.404 146.19C256.404 146.072 256.44 145.955 256.513 145.857L258.149 144.116C258.276 143.979 258.494 143.96 258.639 144.077L261.42 146.072C261.438 146.072 261.457 146.092 261.457 146.111L261.475 146.131L262.002 146.698L262.038 146.737L262.056 146.757V146.777L263.928 149.711C264.037 149.867 264.019 150.102 263.892 150.239L262.256 151.98C262.184 152.058 262.056 152.117 261.947 152.097C261.838 152.078 261.729 152.019 261.656 151.921L260.13 149.456L257.658 152.234L256.313 150.845L258.93 148.165Z" fill="url(#paint11_linear_34_13478)"/>
<path d="M250.86 159.883C250.715 160.039 250.46 160.039 250.315 159.883L249.224 158.709C249.079 158.552 249.079 158.279 249.224 158.122L253.823 153.408L255.222 154.973L250.86 159.883Z" fill="url(#paint12_linear_34_13478)"/>
<path d="M243 186.5C243 184.567 244.567 183 246.5 183H265.5C267.433 183 269 184.567 269 186.5V205.5C269 207.433 267.433 209 265.5 209H246.5C244.567 209 243 207.433 243 205.5V186.5Z" fill="url(#paint13_linear_34_13478)"/>
<path d="M243 186.5C243 184.567 244.567 183 246.5 183H265.5C267.433 183 269 184.567 269 186.5V205.5C269 207.433 267.433 209 265.5 209H246.5C244.567 209 243 207.433 243 205.5V186.5Z" fill="url(#paint14_radial_34_13478)" fill-opacity="0.2"/>
<path fill-rule="evenodd" clip-rule="evenodd" d="M265.5 184H246.5C245.119 184 244 185.119 244 186.5V205.5C244 206.881 245.119 208 246.5 208H265.5C266.881 208 268 206.881 268 205.5V186.5C268 185.119 266.881 184 265.5 184ZM246.5 183C244.567 183 243 184.567 243 186.5V205.5C243 207.433 244.567 209 246.5 209H265.5C267.433 209 269 207.433 269 205.5V186.5C269 184.567 267.433 183 265.5 183H246.5Z" fill="url(#paint15_linear_34_13478)"/>
<path d="M257.792 191.458C257.792 192.271 257.146 192.917 256.333 192.917C255.521 192.917 254.875 192.271 254.875 191.458C254.875 190.646 255.521 190 256.333 190C257.146 190 257.792 190.667 257.792 191.458Z" fill="url(#paint16_linear_34_13478)"/>
<path d="M263.625 192.292C263.625 193.104 262.979 193.75 262.167 193.75C261.354 193.75 260.708 193.104 260.708 192.292C260.708 191.479 261.354 190.833 262.167 190.833C262.979 190.833 263.625 191.479 263.625 192.292Z" fill="url(#paint17_linear_34_13478)"/>
<path d="M251.958 192.292C251.958 193.104 251.312 193.75 250.5 193.75C249.687 193.75 249.042 193.104 249.042 192.292C249.042 191.479 249.687 190.833 250.5 190.833C251.312 190.833 251.958 191.479 251.958 192.292Z" fill="url(#paint18_linear_34_13478)"/>
<path d="M248.125 201.708C248.125 198.667 251.792 196.208 256.333 196.208C260.854 196.208 264.542 198.667 264.542 201.708H248.125Z" fill="url(#paint19_linear_34_13478)"/>
<path d="M250 196.979C250.875 196.396 251.896 195.937 253 195.646V195.417C253 195.187 252.896 194.958 252.75 194.812C252.687 194.75 252.542 194.667 252.354 194.583C251.208 194.042 249.854 194.042 248.687 194.562C248.479 194.646 248.312 194.75 248.229 194.812C248.104 194.958 248 195.187 248 195.417V198.958C248.479 198.229 249.146 197.542 250 196.979Z" fill="url(#paint20_linear_34_13478)"/>
<path d="M258.833 195.438V194.583C258.833 194.354 258.729 194.125 258.583 193.979C258.521 193.917 258.375 193.833 258.188 193.75C257.042 193.208 255.687 193.208 254.521 193.729C254.312 193.813 254.146 193.917 254.062 193.979C253.896 194.125 253.812 194.354 253.812 194.583V195.438C254.625 195.271 255.458 195.188 256.312 195.188C257.167 195.188 258.021 195.292 258.833 195.438Z" fill="url(#paint21_linear_34_13478)"/>
<path d="M264.667 198.958V195.417C264.667 195.187 264.563 194.958 264.417 194.812C264.354 194.75 264.208 194.667 264.021 194.583C262.875 194.042 261.521 194.042 260.354 194.562C260.146 194.646 259.979 194.75 259.896 194.812C259.729 194.958 259.646 195.187 259.646 195.417V195.646C260.75 195.937 261.771 196.396 262.646 196.979C263.521 197.542 264.188 198.229 264.667 198.958Z" fill="url(#paint22_linear_34_13478)"/>
<path d="M243 229.5C243 227.567 244.567 226 246.5 226H265.5C267.433 226 269 227.567 269 229.5V248.5C269 250.433 267.433 252 265.5 252H246.5C244.567 252 243 250.433 243 248.5V229.5Z" fill="url(#paint23_linear_34_13478)"/>
<path d="M243 229.5C243 227.567 244.567 226 246.5 226H265.5C267.433 226 269 227.567 269 229.5V248.5C269 250.433 267.433 252 265.5 252H246.5C244.567 252 243 250.433 243 248.5V229.5Z" fill="url(#paint24_radial_34_13478)" fill-opacity="0.2"/>
<path fill-rule="evenodd" clip-rule="evenodd" d="M265.5 227H246.5C245.119 227 244 228.119 244 229.5V248.5C244 249.881 245.119 251 246.5 251H265.5C266.881 251 268 249.881 268 248.5V229.5C268 228.119 266.881 227 265.5 227ZM246.5 226C244.567 226 243 227.567 243 229.5V248.5C243 250.433 244.567 252 246.5 252H265.5C267.433 252 269 250.433 269 248.5V229.5C269 227.567 267.433 226 265.5 226H246.5Z" fill="url(#paint25_linear_34_13478)"/>
<path d="M261.209 245.083H250.792V232.167H253.084V233.417H258.917V232.167H261.209V245.083ZM256 230.5C256.346 230.5 256.625 230.78 256.625 231.125C256.625 231.47 256.346 231.75 256 231.75C255.655 231.75 255.375 231.47 255.375 231.125C255.37 230.785 255.64 230.506 255.98 230.5C255.987 230.5 255.993 230.5 256 230.5ZM261.625 230.917H258.084V230.5C258.084 230.04 257.711 229.667 257.25 229.667H254.75C254.29 229.667 253.917 230.04 253.917 230.5V230.917H250.375C249.915 230.917 249.542 231.29 249.542 231.75V245.5C249.542 245.96 249.915 246.333 250.375 246.333H261.625C262.086 246.333 262.459 245.96 262.459 245.5V231.75C262.459 231.29 262.086 230.917 261.625 230.917Z" fill="url(#paint26_linear_34_13478)"/>
<path d="M254.555 239.888L254.112 239.446L253.5 240.058L252.888 239.446L252.446 239.888L253.058 240.5L252.446 241.112L252.888 241.554L253.5 240.942L254.112 241.554L254.555 241.112L253.942 240.5L254.555 239.888Z" fill="url(#paint27_linear_34_13478)"/>
<path d="M254.112 241.946L253.5 242.558L252.888 241.946L252.446 242.388L253.058 243L252.446 243.612L252.888 244.054L253.5 243.442L254.112 244.054L254.555 243.612L253.942 243L254.555 242.388L254.112 241.946Z" fill="url(#paint28_linear_34_13478)"/>
<path d="M256.417 240.083H259.959V240.917H256.417V240.083Z" fill="url(#paint29_linear_34_13478)"/>
<path d="M256.417 242.583H259.959V243.417H256.417V242.583Z" fill="url(#paint30_linear_34_13478)"/>
<path d="M256.417 235.083H259.959V235.917H256.417V235.083Z" fill="url(#paint31_linear_34_13478)"/>
<path d="M256.417 237.583H259.959V238.417H256.417V237.583Z" fill="url(#paint32_linear_34_13478)"/>
<path d="M252.189 235.458L252.625 235.022L253.167 235.564L254.542 234.189L254.978 234.625L253.167 236.436L252.189 235.458Z" fill="url(#paint33_linear_34_13478)"/>
<path d="M252.189 237.958L252.625 237.522L253.167 238.064L254.542 236.689L254.978 237.125L253.167 238.936L252.189 237.958Z" fill="url(#paint34_linear_34_13478)"/>
<path d="M234.75 241.998C234.751 242.412 234.416 242.749 234.002 242.75L227.252 242.766C226.838 242.767 226.501 242.432 226.5 242.017C226.499 241.603 226.834 241.267 227.248 241.266L233.248 241.252L233.234 235.252C233.233 234.838 233.568 234.501 233.983 234.5C234.397 234.499 234.733 234.834 234.734 235.248L234.75 241.998ZM233.451 198.489C233.733 198.186 234.208 198.169 234.511 198.451C234.814 198.733 234.831 199.208 234.549 199.511L233.451 198.489ZM233.471 242.532C221.166 230.283 221.194 211.665 233.451 198.489L234.549 199.511C222.806 212.135 222.834 229.828 234.529 241.468L233.471 242.532Z" fill="#8198AE"/>
<path d="M234.75 194C234.75 194.414 234.414 194.75 234 194.75H227.25C226.836 194.75 226.5 194.414 226.5 194C226.5 193.586 226.836 193.25 227.25 193.25H233.25V187.25C233.25 186.836 233.586 186.5 234 186.5C234.414 186.5 234.75 186.836 234.75 187.25V194ZM233.459 148.48C233.746 148.182 234.221 148.172 234.52 148.459C234.818 148.746 234.828 149.221 234.541 149.52L233.459 148.48ZM233.47 194.53C220.671 181.732 220.686 161.765 233.459 148.48L234.541 149.52C222.314 162.235 222.329 181.268 234.53 193.47L233.47 194.53Z" fill="#8198AE"/>
<path d="M281.285 281V271.197H283.992C287.447 271.197 289.174 272.79 289.174 275.976C289.174 277.489 288.693 278.705 287.731 279.626C286.774 280.542 285.492 281 283.883 281H281.285ZM282.434 272.236V279.961H283.896C285.182 279.961 286.182 279.617 286.897 278.929C287.613 278.241 287.971 277.265 287.971 276.003C287.971 273.492 286.635 272.236 283.965 272.236H282.434ZM296.577 277.78H291.635C291.653 278.56 291.863 279.161 292.264 279.585C292.665 280.009 293.216 280.221 293.918 280.221C294.706 280.221 295.431 279.961 296.092 279.441V280.494C295.477 280.941 294.663 281.164 293.651 281.164C292.662 281.164 291.885 280.847 291.32 280.214C290.755 279.576 290.473 278.68 290.473 277.527C290.473 276.438 290.78 275.552 291.396 274.868C292.015 274.18 292.783 273.836 293.699 273.836C294.615 273.836 295.324 274.132 295.825 274.725C296.326 275.317 296.577 276.14 296.577 277.192V277.78ZM295.429 276.83C295.424 276.183 295.267 275.679 294.957 275.319C294.652 274.959 294.226 274.779 293.679 274.779C293.15 274.779 292.701 274.968 292.332 275.347C291.963 275.725 291.735 276.219 291.648 276.83H295.429ZM303.051 280.679C302.513 281.002 301.875 281.164 301.137 281.164C300.139 281.164 299.332 280.84 298.717 280.193C298.106 279.542 297.801 278.699 297.801 277.664C297.801 276.511 298.131 275.586 298.792 274.889C299.453 274.187 300.335 273.836 301.438 273.836C302.053 273.836 302.595 273.95 303.064 274.178V275.326C302.545 274.962 301.989 274.779 301.396 274.779C300.681 274.779 300.093 275.037 299.633 275.552C299.177 276.062 298.949 276.734 298.949 277.568C298.949 278.389 299.163 279.036 299.592 279.51C300.025 279.984 300.604 280.221 301.328 280.221C301.939 280.221 302.513 280.018 303.051 279.612V280.679ZM305.32 272.223C305.12 272.223 304.949 272.154 304.808 272.018C304.666 271.881 304.596 271.708 304.596 271.498C304.596 271.288 304.666 271.115 304.808 270.979C304.949 270.837 305.12 270.767 305.32 270.767C305.525 270.767 305.699 270.837 305.84 270.979C305.986 271.115 306.059 271.288 306.059 271.498C306.059 271.699 305.986 271.869 305.84 272.011C305.699 272.152 305.525 272.223 305.32 272.223ZM305.867 281H304.746V274H305.867V281ZM314.111 281H312.99V279.811H312.963C312.443 280.713 311.641 281.164 310.557 281.164C309.677 281.164 308.973 280.852 308.444 280.228C307.92 279.599 307.658 278.744 307.658 277.664C307.658 276.507 307.95 275.579 308.533 274.882C309.117 274.185 309.894 273.836 310.864 273.836C311.826 273.836 312.525 274.214 312.963 274.971H312.99V270.637H314.111V281ZM312.99 277.835V276.803C312.99 276.238 312.803 275.759 312.43 275.367C312.056 274.975 311.582 274.779 311.008 274.779C310.324 274.779 309.786 275.03 309.395 275.531C309.003 276.033 308.807 276.725 308.807 277.609C308.807 278.416 308.993 279.054 309.367 279.523C309.745 279.988 310.251 280.221 310.885 280.221C311.509 280.221 312.015 279.995 312.402 279.544C312.794 279.093 312.99 278.523 312.99 277.835ZM322.007 277.78H317.064C317.083 278.56 317.292 279.161 317.693 279.585C318.094 280.009 318.646 280.221 319.348 280.221C320.136 280.221 320.861 279.961 321.521 279.441V280.494C320.906 280.941 320.093 281.164 319.081 281.164C318.092 281.164 317.315 280.847 316.75 280.214C316.185 279.576 315.902 278.68 315.902 277.527C315.902 276.438 316.21 275.552 316.825 274.868C317.445 274.18 318.213 273.836 319.129 273.836C320.045 273.836 320.754 274.132 321.255 274.725C321.756 275.317 322.007 276.14 322.007 277.192V277.78ZM320.858 276.83C320.854 276.183 320.697 275.679 320.387 275.319C320.081 274.959 319.655 274.779 319.108 274.779C318.58 274.779 318.131 274.968 317.762 275.347C317.393 275.725 317.165 276.219 317.078 276.83H320.858ZM330.798 280.932C330.534 281.077 330.185 281.15 329.752 281.15C328.526 281.15 327.913 280.467 327.913 279.1V274.957H326.71V274H327.913V272.291L329.034 271.929V274H330.798V274.957H329.034V278.901C329.034 279.371 329.114 279.706 329.273 279.906C329.433 280.107 329.697 280.207 330.066 280.207C330.349 280.207 330.593 280.13 330.798 279.975V280.932ZM338.105 281H336.984V276.967C336.984 275.508 336.442 274.779 335.357 274.779C334.811 274.779 334.35 274.991 333.977 275.415C333.603 275.834 333.416 276.374 333.416 277.035V281H332.295V270.637H333.416V275.162H333.443C333.981 274.278 334.747 273.836 335.74 273.836C337.317 273.836 338.105 274.786 338.105 276.687V281ZM345.851 277.78H340.908C340.926 278.56 341.136 279.161 341.537 279.585C341.938 280.009 342.49 280.221 343.191 280.221C343.98 280.221 344.704 279.961 345.365 279.441V280.494C344.75 280.941 343.937 281.164 342.925 281.164C341.936 281.164 341.159 280.847 340.594 280.214C340.029 279.576 339.746 278.68 339.746 277.527C339.746 276.438 340.054 275.552 340.669 274.868C341.289 274.18 342.057 273.836 342.973 273.836C343.889 273.836 344.597 274.132 345.099 274.725C345.6 275.317 345.851 276.14 345.851 277.192V277.78ZM344.702 276.83C344.698 276.183 344.54 275.679 344.23 275.319C343.925 274.959 343.499 274.779 342.952 274.779C342.424 274.779 341.975 274.968 341.605 275.347C341.236 275.725 341.008 276.219 340.922 276.83H344.702ZM351.545 281V271.197H354.334C355.182 271.197 355.854 271.405 356.351 271.819C356.847 272.234 357.096 272.774 357.096 273.439C357.096 273.995 356.945 274.479 356.645 274.889C356.344 275.299 355.929 275.59 355.4 275.764V275.791C356.061 275.868 356.59 276.119 356.986 276.543C357.383 276.962 357.581 277.509 357.581 278.184C357.581 279.022 357.28 279.701 356.679 280.221C356.077 280.74 355.318 281 354.402 281H351.545ZM352.693 272.236V275.401H353.869C354.498 275.401 354.993 275.251 355.353 274.95C355.713 274.645 355.893 274.216 355.893 273.665C355.893 272.713 355.266 272.236 354.013 272.236H352.693ZM352.693 276.434V279.961H354.252C354.926 279.961 355.448 279.801 355.817 279.482C356.191 279.163 356.378 278.726 356.378 278.17C356.378 277.012 355.59 276.434 354.013 276.434H352.693ZM360.719 281H359.57V271.197H360.719V281ZM370.453 271.621C370.234 271.498 369.986 271.437 369.708 271.437C368.924 271.437 368.532 271.931 368.532 272.92V274H370.173V274.957H368.532V281H367.418V274.957H366.222V274H367.418V272.865C367.418 272.132 367.63 271.553 368.054 271.129C368.478 270.701 369.006 270.486 369.64 270.486C369.981 270.486 370.253 270.527 370.453 270.609V271.621ZM374.309 281.164C373.274 281.164 372.447 280.838 371.827 280.187C371.212 279.53 370.904 278.662 370.904 277.582C370.904 276.406 371.226 275.488 371.868 274.827C372.511 274.166 373.379 273.836 374.473 273.836C375.516 273.836 376.33 274.157 376.913 274.8C377.501 275.442 377.795 276.333 377.795 277.473C377.795 278.589 377.478 279.485 376.845 280.159C376.216 280.829 375.37 281.164 374.309 281.164ZM374.391 274.779C373.671 274.779 373.101 275.025 372.682 275.518C372.262 276.005 372.053 276.68 372.053 277.541C372.053 278.37 372.265 279.024 372.688 279.503C373.112 279.981 373.68 280.221 374.391 280.221C375.115 280.221 375.671 279.986 376.059 279.517C376.451 279.047 376.646 278.38 376.646 277.514C376.646 276.639 376.451 275.964 376.059 275.49C375.671 275.016 375.115 274.779 374.391 274.779ZM384.357 280.679C383.82 281.002 383.182 281.164 382.443 281.164C381.445 281.164 380.639 280.84 380.023 280.193C379.413 279.542 379.107 278.699 379.107 277.664C379.107 276.511 379.438 275.586 380.099 274.889C380.759 274.187 381.641 273.836 382.744 273.836C383.359 273.836 383.902 273.95 384.371 274.178V275.326C383.852 274.962 383.296 274.779 382.703 274.779C381.988 274.779 381.4 275.037 380.939 275.552C380.484 276.062 380.256 276.734 380.256 277.568C380.256 278.389 380.47 279.036 380.898 279.51C381.331 279.984 381.91 280.221 382.635 280.221C383.245 280.221 383.82 280.018 384.357 279.612V280.679ZM391.713 281H390.592V279.893H390.564C390.1 280.74 389.38 281.164 388.404 281.164C386.736 281.164 385.902 280.171 385.902 278.184V274H387.017V278.006C387.017 279.482 387.582 280.221 388.712 280.221C389.259 280.221 389.708 280.02 390.059 279.619C390.414 279.214 390.592 278.685 390.592 278.033V274H391.713V281ZM393.559 280.747V279.544C394.169 279.995 394.841 280.221 395.575 280.221C396.56 280.221 397.052 279.893 397.052 279.236C397.052 279.049 397.008 278.892 396.922 278.765C396.84 278.632 396.726 278.516 396.58 278.416C396.439 278.316 396.27 278.227 396.074 278.149C395.883 278.067 395.675 277.983 395.452 277.896C395.142 277.773 394.869 277.65 394.632 277.527C394.399 277.4 394.203 277.258 394.044 277.104C393.889 276.944 393.771 276.764 393.688 276.563C393.611 276.363 393.572 276.128 393.572 275.859C393.572 275.531 393.647 275.242 393.798 274.991C393.948 274.736 394.149 274.524 394.399 274.355C394.65 274.182 394.935 274.052 395.254 273.966C395.577 273.879 395.91 273.836 396.252 273.836C396.858 273.836 397.4 273.941 397.879 274.15V275.285C397.364 274.948 396.771 274.779 396.102 274.779C395.892 274.779 395.703 274.804 395.534 274.854C395.366 274.9 395.22 274.966 395.097 275.053C394.978 275.139 394.885 275.244 394.816 275.367C394.753 275.486 394.721 275.618 394.721 275.764C394.721 275.946 394.753 276.099 394.816 276.222C394.885 276.345 394.983 276.454 395.11 276.55C395.238 276.646 395.393 276.732 395.575 276.81C395.757 276.887 395.965 276.971 396.197 277.062C396.507 277.181 396.785 277.304 397.031 277.432C397.277 277.555 397.487 277.696 397.66 277.855C397.833 278.01 397.965 278.19 398.057 278.396C398.152 278.601 398.2 278.844 398.2 279.127C398.2 279.473 398.123 279.774 397.968 280.029C397.817 280.285 397.615 280.496 397.359 280.665C397.104 280.834 396.81 280.959 396.478 281.041C396.145 281.123 395.796 281.164 395.432 281.164C394.712 281.164 394.087 281.025 393.559 280.747ZM408.782 281H407.661V279.906H407.634C407.146 280.745 406.428 281.164 405.48 281.164C404.783 281.164 404.236 280.979 403.84 280.61C403.448 280.241 403.252 279.751 403.252 279.141C403.252 277.833 404.022 277.072 405.562 276.857L407.661 276.563C407.661 275.374 407.18 274.779 406.219 274.779C405.376 274.779 404.615 275.066 403.936 275.641V274.492C404.624 274.055 405.417 273.836 406.314 273.836C407.96 273.836 408.782 274.706 408.782 276.447V281ZM407.661 277.459L405.973 277.691C405.453 277.764 405.061 277.894 404.797 278.081C404.533 278.263 404.4 278.589 404.4 279.059C404.4 279.4 404.521 279.681 404.763 279.899C405.009 280.114 405.335 280.221 405.74 280.221C406.296 280.221 406.754 280.027 407.114 279.64C407.479 279.248 407.661 278.753 407.661 278.156V277.459ZM414.545 275.135C414.349 274.984 414.066 274.909 413.697 274.909C413.219 274.909 412.818 275.135 412.494 275.586C412.175 276.037 412.016 276.652 412.016 277.432V281H410.895V274H412.016V275.442H412.043C412.202 274.95 412.446 274.567 412.774 274.294C413.103 274.016 413.469 273.877 413.875 273.877C414.167 273.877 414.39 273.909 414.545 273.973V275.135ZM421.388 277.78H416.445C416.464 278.56 416.673 279.161 417.074 279.585C417.475 280.009 418.027 280.221 418.729 280.221C419.517 280.221 420.242 279.961 420.902 279.441V280.494C420.287 280.941 419.474 281.164 418.462 281.164C417.473 281.164 416.696 280.847 416.131 280.214C415.566 279.576 415.283 278.68 415.283 277.527C415.283 276.438 415.591 275.552 416.206 274.868C416.826 274.18 417.594 273.836 418.51 273.836C419.426 273.836 420.134 274.132 420.636 274.725C421.137 275.317 421.388 276.14 421.388 277.192V277.78ZM420.239 276.83C420.235 276.183 420.077 275.679 419.768 275.319C419.462 274.959 419.036 274.779 418.489 274.779C417.961 274.779 417.512 274.968 417.143 275.347C416.773 275.725 416.546 276.219 416.459 276.83H420.239ZM428.101 281H426.979V279.906H426.952C426.465 280.745 425.747 281.164 424.799 281.164C424.102 281.164 423.555 280.979 423.158 280.61C422.766 280.241 422.57 279.751 422.57 279.141C422.57 277.833 423.34 277.072 424.881 276.857L426.979 276.563C426.979 275.374 426.499 274.779 425.537 274.779C424.694 274.779 423.933 275.066 423.254 275.641V274.492C423.942 274.055 424.735 273.836 425.633 273.836C427.278 273.836 428.101 274.706 428.101 276.447V281ZM426.979 277.459L425.291 277.691C424.771 277.764 424.38 277.894 424.115 278.081C423.851 278.263 423.719 278.589 423.719 279.059C423.719 279.4 423.84 279.681 424.081 279.899C424.327 280.114 424.653 280.221 425.059 280.221C425.615 280.221 426.073 280.027 426.433 279.64C426.797 279.248 426.979 278.753 426.979 278.156V277.459ZM429.789 280.747V279.544C430.4 279.995 431.072 280.221 431.806 280.221C432.79 280.221 433.282 279.893 433.282 279.236C433.282 279.049 433.239 278.892 433.152 278.765C433.07 278.632 432.956 278.516 432.811 278.416C432.669 278.316 432.501 278.227 432.305 278.149C432.113 278.067 431.906 277.983 431.683 277.896C431.373 277.773 431.099 277.65 430.862 277.527C430.63 277.4 430.434 277.258 430.274 277.104C430.119 276.944 430.001 276.764 429.919 276.563C429.841 276.363 429.803 276.128 429.803 275.859C429.803 275.531 429.878 275.242 430.028 274.991C430.179 274.736 430.379 274.524 430.63 274.355C430.881 274.182 431.165 274.052 431.484 273.966C431.808 273.879 432.141 273.836 432.482 273.836C433.089 273.836 433.631 273.941 434.109 274.15V275.285C433.594 274.948 433.002 274.779 432.332 274.779C432.122 274.779 431.933 274.804 431.765 274.854C431.596 274.9 431.45 274.966 431.327 275.053C431.209 275.139 431.115 275.244 431.047 275.367C430.983 275.486 430.951 275.618 430.951 275.764C430.951 275.946 430.983 276.099 431.047 276.222C431.115 276.345 431.213 276.454 431.341 276.55C431.468 276.646 431.623 276.732 431.806 276.81C431.988 276.887 432.195 276.971 432.428 277.062C432.738 277.181 433.016 277.304 433.262 277.432C433.508 277.555 433.717 277.696 433.891 277.855C434.064 278.01 434.196 278.19 434.287 278.396C434.383 278.601 434.431 278.844 434.431 279.127C434.431 279.473 434.353 279.774 434.198 280.029C434.048 280.285 433.845 280.496 433.59 280.665C433.335 280.834 433.041 280.959 432.708 281.041C432.375 281.123 432.027 281.164 431.662 281.164C430.942 281.164 430.318 281.025 429.789 280.747ZM286.146 300H285.024V298.906H284.997C284.509 299.745 283.792 300.164 282.844 300.164C282.146 300.164 281.6 299.979 281.203 299.61C280.811 299.241 280.615 298.751 280.615 298.141C280.615 296.833 281.385 296.072 282.926 295.857L285.024 295.563C285.024 294.374 284.544 293.779 283.582 293.779C282.739 293.779 281.978 294.066 281.299 294.641V293.492C281.987 293.055 282.78 292.836 283.678 292.836C285.323 292.836 286.146 293.706 286.146 295.447V300ZM285.024 296.459L283.336 296.691C282.816 296.764 282.424 296.894 282.16 297.081C281.896 297.263 281.764 297.589 281.764 298.059C281.764 298.4 281.884 298.681 282.126 298.899C282.372 299.114 282.698 299.221 283.104 299.221C283.66 299.221 284.118 299.027 284.478 298.64C284.842 298.248 285.024 297.753 285.024 297.156V296.459ZM294.068 300H292.947V296.008C292.947 294.522 292.405 293.779 291.32 293.779C290.76 293.779 290.295 293.991 289.926 294.415C289.561 294.834 289.379 295.365 289.379 296.008V300H288.258V293H289.379V294.162H289.406C289.935 293.278 290.701 292.836 291.703 292.836C292.469 292.836 293.054 293.084 293.46 293.581C293.866 294.073 294.068 294.786 294.068 295.721V300ZM302.162 300H301.041V298.811H301.014C300.494 299.713 299.692 300.164 298.607 300.164C297.728 300.164 297.024 299.852 296.495 299.228C295.971 298.599 295.709 297.744 295.709 296.664C295.709 295.507 296.001 294.579 296.584 293.882C297.167 293.185 297.944 292.836 298.915 292.836C299.877 292.836 300.576 293.214 301.014 293.971H301.041V289.637H302.162V300ZM301.041 296.835V295.803C301.041 295.238 300.854 294.759 300.48 294.367C300.107 293.975 299.633 293.779 299.059 293.779C298.375 293.779 297.837 294.03 297.445 294.531C297.053 295.033 296.857 295.725 296.857 296.609C296.857 297.416 297.044 298.054 297.418 298.523C297.796 298.988 298.302 299.221 298.936 299.221C299.56 299.221 300.066 298.995 300.453 298.544C300.845 298.093 301.041 297.523 301.041 296.835ZM311.199 300.164C310.165 300.164 309.338 299.838 308.718 299.187C308.103 298.53 307.795 297.662 307.795 296.582C307.795 295.406 308.116 294.488 308.759 293.827C309.401 293.166 310.27 292.836 311.363 292.836C312.407 292.836 313.22 293.157 313.804 293.8C314.392 294.442 314.686 295.333 314.686 296.473C314.686 297.589 314.369 298.485 313.735 299.159C313.106 299.829 312.261 300.164 311.199 300.164ZM311.281 293.779C310.561 293.779 309.992 294.025 309.572 294.518C309.153 295.005 308.943 295.68 308.943 296.541C308.943 297.37 309.155 298.024 309.579 298.503C310.003 298.981 310.57 299.221 311.281 299.221C312.006 299.221 312.562 298.986 312.949 298.517C313.341 298.047 313.537 297.38 313.537 296.514C313.537 295.639 313.341 294.964 312.949 294.49C312.562 294.016 312.006 293.779 311.281 293.779ZM317.625 298.988H317.598V300H316.477V289.637H317.598V294.23H317.625C318.176 293.301 318.983 292.836 320.045 292.836C320.943 292.836 321.645 293.15 322.15 293.779C322.661 294.404 322.916 295.242 322.916 296.295C322.916 297.466 322.631 298.405 322.062 299.111C321.492 299.813 320.713 300.164 319.724 300.164C318.799 300.164 318.099 299.772 317.625 298.988ZM317.598 296.165V297.143C317.598 297.721 317.785 298.214 318.158 298.619C318.536 299.02 319.015 299.221 319.594 299.221C320.273 299.221 320.804 298.961 321.187 298.441C321.574 297.922 321.768 297.2 321.768 296.274C321.768 295.495 321.588 294.884 321.228 294.442C320.868 294 320.38 293.779 319.765 293.779C319.113 293.779 318.589 294.007 318.192 294.463C317.796 294.914 317.598 295.481 317.598 296.165ZM325.828 299.706C325.828 300.854 325.596 301.739 325.131 302.358C324.671 302.983 324.01 303.295 323.148 303.295C322.829 303.295 322.52 303.222 322.219 303.076V302.03C322.556 302.235 322.875 302.338 323.176 302.338C324.197 302.338 324.707 301.522 324.707 299.891V293H325.828V299.706ZM325.281 291.223C325.081 291.223 324.91 291.154 324.769 291.018C324.627 290.881 324.557 290.708 324.557 290.498C324.557 290.288 324.627 290.115 324.769 289.979C324.91 289.837 325.081 289.767 325.281 289.767C325.486 289.767 325.66 289.837 325.801 289.979C325.947 290.115 326.02 290.288 326.02 290.498C326.02 290.699 325.947 290.869 325.801 291.011C325.66 291.152 325.486 291.223 325.281 291.223ZM333.724 296.78H328.781C328.799 297.56 329.009 298.161 329.41 298.585C329.811 299.009 330.363 299.221 331.064 299.221C331.853 299.221 332.577 298.961 333.238 298.441V299.494C332.623 299.941 331.81 300.164 330.798 300.164C329.809 300.164 329.032 299.847 328.467 299.214C327.902 298.576 327.619 297.68 327.619 296.527C327.619 295.438 327.927 294.552 328.542 293.868C329.162 293.18 329.93 292.836 330.846 292.836C331.762 292.836 332.47 293.132 332.972 293.725C333.473 294.317 333.724 295.14 333.724 296.192V296.78ZM332.575 295.83C332.571 295.183 332.413 294.679 332.104 294.319C331.798 293.959 331.372 293.779 330.825 293.779C330.297 293.779 329.848 293.968 329.479 294.347C329.109 294.725 328.882 295.219 328.795 295.83H332.575ZM340.197 299.679C339.66 300.002 339.021 300.164 338.283 300.164C337.285 300.164 336.479 299.84 335.863 299.193C335.253 298.542 334.947 297.699 334.947 296.664C334.947 295.511 335.278 294.586 335.938 293.889C336.599 293.187 337.481 292.836 338.584 292.836C339.199 292.836 339.742 292.95 340.211 293.178V294.326C339.691 293.962 339.135 293.779 338.543 293.779C337.827 293.779 337.24 294.037 336.779 294.552C336.324 295.062 336.096 295.734 336.096 296.568C336.096 297.389 336.31 298.036 336.738 298.51C337.171 298.984 337.75 299.221 338.475 299.221C339.085 299.221 339.66 299.018 340.197 298.612V299.679ZM345.14 299.932C344.875 300.077 344.527 300.15 344.094 300.15C342.868 300.15 342.255 299.467 342.255 298.1V293.957H341.052V293H342.255V291.291L343.376 290.929V293H345.14V293.957H343.376V297.901C343.376 298.371 343.456 298.706 343.615 298.906C343.775 299.107 344.039 299.207 344.408 299.207C344.691 299.207 344.935 299.13 345.14 298.975V299.932ZM347.211 291.223C347.01 291.223 346.84 291.154 346.698 291.018C346.557 290.881 346.486 290.708 346.486 290.498C346.486 290.288 346.557 290.115 346.698 289.979C346.84 289.837 347.01 289.767 347.211 289.767C347.416 289.767 347.589 289.837 347.73 289.979C347.876 290.115 347.949 290.288 347.949 290.498C347.949 290.699 347.876 290.869 347.73 291.011C347.589 291.152 347.416 291.223 347.211 291.223ZM347.758 300H346.637V293H347.758V300ZM355.53 293L352.741 300H351.641L348.988 293H350.219L351.996 298.086C352.128 298.46 352.21 298.785 352.242 299.063H352.27C352.315 298.713 352.388 298.396 352.488 298.113L354.348 293H355.53ZM362.366 296.78H357.424C357.442 297.56 357.652 298.161 358.053 298.585C358.454 299.009 359.005 299.221 359.707 299.221C360.495 299.221 361.22 298.961 361.881 298.441V299.494C361.266 299.941 360.452 300.164 359.44 300.164C358.451 300.164 357.674 299.847 357.109 299.214C356.544 298.576 356.262 297.68 356.262 296.527C356.262 295.438 356.569 294.552 357.185 293.868C357.804 293.18 358.572 292.836 359.488 292.836C360.404 292.836 361.113 293.132 361.614 293.725C362.116 294.317 362.366 295.14 362.366 296.192V296.78ZM361.218 295.83C361.213 295.183 361.056 294.679 360.746 294.319C360.441 293.959 360.015 293.779 359.468 293.779C358.939 293.779 358.49 293.968 358.121 294.347C357.752 294.725 357.524 295.219 357.438 295.83H361.218ZM363.645 299.747V298.544C364.255 298.995 364.927 299.221 365.661 299.221C366.646 299.221 367.138 298.893 367.138 298.236C367.138 298.049 367.094 297.892 367.008 297.765C366.926 297.632 366.812 297.516 366.666 297.416C366.525 297.316 366.356 297.227 366.16 297.149C365.969 297.067 365.761 296.983 365.538 296.896C365.228 296.773 364.955 296.65 364.718 296.527C364.485 296.4 364.289 296.258 364.13 296.104C363.975 295.944 363.856 295.764 363.774 295.563C363.697 295.363 363.658 295.128 363.658 294.859C363.658 294.531 363.733 294.242 363.884 293.991C364.034 293.736 364.235 293.524 364.485 293.355C364.736 293.182 365.021 293.052 365.34 292.966C365.663 292.879 365.996 292.836 366.338 292.836C366.944 292.836 367.486 292.941 367.965 293.15V294.285C367.45 293.948 366.857 293.779 366.188 293.779C365.978 293.779 365.789 293.804 365.62 293.854C365.451 293.9 365.306 293.966 365.183 294.053C365.064 294.139 364.971 294.244 364.902 294.367C364.839 294.486 364.807 294.618 364.807 294.764C364.807 294.946 364.839 295.099 364.902 295.222C364.971 295.345 365.069 295.454 365.196 295.55C365.324 295.646 365.479 295.732 365.661 295.81C365.843 295.887 366.051 295.971 366.283 296.062C366.593 296.181 366.871 296.304 367.117 296.432C367.363 296.555 367.573 296.696 367.746 296.855C367.919 297.01 368.051 297.19 368.143 297.396C368.238 297.601 368.286 297.844 368.286 298.127C368.286 298.473 368.209 298.774 368.054 299.029C367.903 299.285 367.701 299.496 367.445 299.665C367.19 299.834 366.896 299.959 366.563 300.041C366.231 300.123 365.882 300.164 365.518 300.164C364.798 300.164 364.173 300.025 363.645 299.747Z" fill="url(#paint35_linear_34_13478)"/>
<path d="M243 275.5C243 273.567 244.567 272 246.5 272H265.5C267.433 272 269 273.567 269 275.5V294.5C269 296.433 267.433 298 265.5 298H246.5C244.567 298 243 296.433 243 294.5V275.5Z" fill="url(#paint36_linear_34_13478)"/>
<path d="M243 275.5C243 273.567 244.567 272 246.5 272H265.5C267.433 272 269 273.567 269 275.5V294.5C269 296.433 267.433 298 265.5 298H246.5C244.567 298 243 296.433 243 294.5V275.5Z" fill="url(#paint37_radial_34_13478)" fill-opacity="0.2"/>
<path fill-rule="evenodd" clip-rule="evenodd" d="M265.5 273H246.5C245.119 273 244 274.119 244 275.5V294.5C244 295.881 245.119 297 246.5 297H265.5C266.881 297 268 295.881 268 294.5V275.5C268 274.119 266.881 273 265.5 273ZM246.5 272C244.567 272 243 273.567 243 275.5V294.5C243 296.433 244.567 298 246.5 298H265.5C267.433 298 269 296.433 269 294.5V275.5C269 273.567 267.433 272 265.5 272H246.5Z" fill="url(#paint38_linear_34_13478)"/>
<path d="M263.148 278.051L262.921 276L260.414 278.506L260.551 279.691L256.905 283.337C256.586 283.177 256.222 283.063 255.834 283.063C254.581 283.063 253.556 284.089 253.556 285.342C253.556 286.595 254.581 287.62 255.834 287.62C257.088 287.62 258.113 286.595 258.113 285.342C258.113 284.955 258.022 284.613 257.862 284.294L261.508 280.648L262.693 280.785L265.199 278.278L263.148 278.051Z" fill="url(#paint39_linear_34_13478)"/>
<path d="M263.33 281.423L263.035 281.742L262.601 281.696L262.123 281.628C262.761 282.722 263.148 283.974 263.148 285.342C263.148 289.352 259.867 292.633 255.857 292.633C251.847 292.633 248.566 289.352 248.566 285.342C248.566 281.332 251.847 278.051 255.857 278.051C257.201 278.051 258.477 278.415 259.571 279.076L259.525 278.62L259.457 278.164L259.776 277.846L259.935 277.686C258.705 277.048 257.338 276.683 255.857 276.683C251.072 276.683 247.199 280.557 247.199 285.342C247.199 290.127 251.072 294 255.857 294C260.642 294 264.515 290.127 264.515 285.342C264.515 283.861 264.151 282.494 263.49 281.286L263.33 281.423Z" fill="url(#paint40_linear_34_13478)"/>
<path d="M259.662 283.792C259.867 284.271 259.959 284.795 259.959 285.342C259.959 287.597 258.113 289.443 255.857 289.443C253.602 289.443 251.756 287.597 251.756 285.342C251.756 283.086 253.602 281.24 255.857 281.24C256.404 281.24 256.928 281.354 257.407 281.537L258.432 280.511C257.657 280.101 256.791 279.873 255.857 279.873C252.85 279.873 250.389 282.334 250.389 285.342C250.389 288.349 252.85 290.81 255.857 290.81C258.865 290.81 261.326 288.349 261.326 285.342C261.326 284.408 261.098 283.542 260.688 282.767L259.662 283.792Z" fill="url(#paint41_linear_34_13478)"/>
<path d="M234.748 283.952C234.775 284.365 234.461 284.722 234.048 284.748L227.312 285.18C226.898 285.206 226.542 284.893 226.515 284.479C226.489 284.066 226.803 283.709 227.216 283.683L233.204 283.299L232.82 277.312C232.794 276.898 233.107 276.542 233.521 276.515C233.934 276.489 234.291 276.803 234.317 277.216L234.748 283.952ZM233.483 245.456C233.784 245.171 234.258 245.183 234.544 245.483C234.829 245.784 234.817 246.258 234.517 246.544L233.483 245.456ZM233.505 284.563C227.358 279.156 224.25 272.307 224.25 265.317C224.25 258.33 227.354 251.279 233.483 245.456L234.517 246.544C228.646 252.121 225.75 258.792 225.75 265.317C225.75 271.838 228.642 278.288 234.495 283.437L233.505 284.563Z" fill="#8198AE"/>
<path d="M245.32 75.3255L250.501 66.5335L255.682 75.3255H245.32ZM261.644 85.4387H239.358L244.008 77.787H256.994L261.644 85.4387ZM261.674 85.4873C261.674 85.4873 261.674 85.4872 261.674 85.4869L261.674 85.4873ZM233.544 95.4933L238.168 87.8417H262.874L267.417 95.4046L233.544 95.4933Z" fill="white"/>
<path d="M245.32 75.3255L250.501 66.5335L255.682 75.3255H245.32ZM261.644 85.4387H239.358L244.008 77.787H256.994L261.644 85.4387ZM261.674 85.4873C261.674 85.4873 261.674 85.4872 261.674 85.4869L261.674 85.4873ZM233.544 95.4933L238.168 87.8417H262.874L267.417 95.4046L233.544 95.4933Z" fill="url(#paint42_linear_34_13478)" fill-opacity="0.33"/>
<path d="M245.32 75.3255L250.501 66.5335L255.682 75.3255H245.32ZM261.644 85.4387H239.358L244.008 77.787H256.994L261.644 85.4387ZM261.674 85.4873C261.674 85.4873 261.674 85.4872 261.674 85.4869L261.674 85.4873ZM233.544 95.4933L238.168 87.8417H262.874L267.417 95.4046L233.544 95.4933Z" stroke="url(#paint43_linear_34_13478)"/>
<path d="M250.1 66.2297C250.28 65.9234 250.722 65.9234 250.902 66.2297L256.142 75.1199C256.325 75.4316 256.101 75.8255 255.74 75.8255H245.262C244.901 75.8255 244.677 75.4316 244.861 75.1199L250.1 66.2297Z" fill="url(#paint44_linear_34_13478)"/>
<defs>
<filter id="filter0_f_34_13478" x="211" y="45" width="244" height="329" filterUnits="userSpaceOnUse" color-interpolation-filters="sRGB">
<feFlood flood-opacity="0" result="BackgroundImageFix"/>
<feBlend mode="normal" in="SourceGraphic" in2="BackgroundImageFix" result="shape"/>
<feGaussianBlur stdDeviation="2.5" result="effect1_foregroundBlur_34_13478"/>
</filter>
<radialGradient id="paint0_radial_34_13478" cx="0" cy="0" r="1" gradientUnits="userSpaceOnUse" gradientTransform="translate(100.06 45.8789) rotate(27.2192) scale(718.892 461.517)">
<stop offset="0.198869" stop-color="#8EE3E8"/>
<stop offset="1" stop-color="#19177E"/>
</radialGradient>
<linearGradient id="paint1_linear_34_13478" x1="248.933" y1="208.224" x2="350.175" y2="223.538" gradientUnits="userSpaceOnUse">
<stop stop-color="white"/>
<stop offset="1" stop-color="#FAFAFA"/>
</linearGradient>
<linearGradient id="paint2_linear_34_13478" x1="226" y1="216" x2="244.902" y2="303.937" gradientUnits="userSpaceOnUse">
<stop stop-color="#416587"/>
<stop offset="1" stop-color="#1A3052"/>
</linearGradient>
<linearGradient id="paint3_linear_34_13478" x1="280" y1="70" x2="285.387" y2="111.297" gradientUnits="userSpaceOnUse">
<stop stop-color="#416587"/>
<stop offset="1" stop-color="#1A3052"/>
</linearGradient>
<linearGradient id="paint4_linear_34_13478" x1="280" y1="135" x2="292.598" y2="196.416" gradientUnits="userSpaceOnUse">
<stop stop-color="#416587"/>
<stop offset="1" stop-color="#1A3052"/>
</linearGradient>
<linearGradient id="paint5_linear_34_13478" x1="280" y1="222" x2="292.598" y2="283.416" gradientUnits="userSpaceOnUse">
<stop stop-color="#416587"/>
<stop offset="1" stop-color="#1A3052"/>
</linearGradient>
<linearGradient id="paint6_linear_34_13478" x1="280" y1="179" x2="292.598" y2="240.416" gradientUnits="userSpaceOnUse">
<stop stop-color="#416587"/>
<stop offset="1" stop-color="#1A3052"/>
</linearGradient>
<linearGradient id="paint7_linear_34_13478" x1="250.222" y1="139" x2="253.511" y2="165.311" gradientUnits="userSpaceOnUse">
<stop stop-color="white"/>
<stop offset="1" stop-color="#EBEBEB"/>
</linearGradient>
<radialGradient id="paint8_radial_34_13478" cx="0" cy="0" r="1" gradientUnits="userSpaceOnUse" gradientTransform="translate(251.306 145.771) rotate(56.3099) scale(24.7381 21.408)">
<stop offset="0.177083" stop-color="white"/>
<stop offset="1" stop-color="#B8B8B8"/>
</radialGradient>
<linearGradient id="paint9_linear_34_13478" x1="251.396" y1="139" x2="254.897" y2="165.256" gradientUnits="userSpaceOnUse">
<stop stop-color="#BBBBBB"/>
<stop offset="1" stop-color="#888888"/>
</linearGradient>
<linearGradient id="paint10_linear_34_13478" x1="248" y1="144.507" x2="263.45" y2="158.851" gradientUnits="userSpaceOnUse">
<stop stop-color="#416587"/>
<stop offset="1" stop-color="#1A3052"/>
</linearGradient>
<linearGradient id="paint11_linear_34_13478" x1="256.313" y1="144" x2="264.528" y2="151.669" gradientUnits="userSpaceOnUse">
<stop stop-color="#416587"/>
<stop offset="1" stop-color="#1A3052"/>
</linearGradient>
<linearGradient id="paint12_linear_34_13478" x1="249.115" y1="153.408" x2="255.688" y2="159.497" gradientUnits="userSpaceOnUse">
<stop stop-color="#416587"/>
<stop offset="1" stop-color="#1A3052"/>
</linearGradient>
<linearGradient id="paint13_linear_34_13478" x1="250.222" y1="183" x2="253.511" y2="209.311" gradientUnits="userSpaceOnUse">
<stop stop-color="white"/>
<stop offset="1" stop-color="#EBEBEB"/>
</linearGradient>
<radialGradient id="paint14_radial_34_13478" cx="0" cy="0" r="1" gradientUnits="userSpaceOnUse" gradientTransform="translate(251.306 189.771) rotate(56.3099) scale(24.7381 21.408)">
<stop offset="0.177083" stop-color="white"/>
<stop offset="1" stop-color="#B8B8B8"/>
</radialGradient>
<linearGradient id="paint15_linear_34_13478" x1="251.396" y1="183" x2="254.897" y2="209.256" gradientUnits="userSpaceOnUse">
<stop stop-color="#BBBBBB"/>
<stop offset="1" stop-color="#888888"/>
</linearGradient>
<linearGradient id="paint16_linear_34_13478" x1="254.875" y1="190" x2="257.792" y2="192.917" gradientUnits="userSpaceOnUse">
<stop stop-color="#416587"/>
<stop offset="1" stop-color="#1A3052"/>
</linearGradient>
<linearGradient id="paint17_linear_34_13478" x1="260.708" y1="190.833" x2="263.625" y2="193.75" gradientUnits="userSpaceOnUse">
<stop stop-color="#416587"/>
<stop offset="1" stop-color="#1A3052"/>
</linearGradient>
<linearGradient id="paint18_linear_34_13478" x1="249.042" y1="190.833" x2="251.958" y2="193.75" gradientUnits="userSpaceOnUse">
<stop stop-color="#416587"/>
<stop offset="1" stop-color="#1A3052"/>
</linearGradient>
<linearGradient id="paint19_linear_34_13478" x1="248.125" y1="196.208" x2="251.438" y2="206.098" gradientUnits="userSpaceOnUse">
<stop stop-color="#416587"/>
<stop offset="1" stop-color="#1A3052"/>
</linearGradient>
<linearGradient id="paint20_linear_34_13478" x1="248" y1="194.174" x2="252.779" y2="199.17" gradientUnits="userSpaceOnUse">
<stop stop-color="#416587"/>
<stop offset="1" stop-color="#1A3052"/>
</linearGradient>
<linearGradient id="paint21_linear_34_13478" x1="253.812" y1="193.341" x2="255.303" y2="196.911" gradientUnits="userSpaceOnUse">
<stop stop-color="#416587"/>
<stop offset="1" stop-color="#1A3052"/>
</linearGradient>
<linearGradient id="paint22_linear_34_13478" x1="259.646" y1="194.174" x2="264.424" y2="199.189" gradientUnits="userSpaceOnUse">
<stop stop-color="#416587"/>
<stop offset="1" stop-color="#1A3052"/>
</linearGradient>
<linearGradient id="paint23_linear_34_13478" x1="250.222" y1="226" x2="253.511" y2="252.311" gradientUnits="userSpaceOnUse">
<stop stop-color="white"/>
<stop offset="1" stop-color="#EBEBEB"/>
</linearGradient>
<radialGradient id="paint24_radial_34_13478" cx="0" cy="0" r="1" gradientUnits="userSpaceOnUse" gradientTransform="translate(251.306 232.771) rotate(56.3099) scale(24.7381 21.408)">
<stop offset="0.177083" stop-color="white"/>
<stop offset="1" stop-color="#B8B8B8"/>
</radialGradient>
<linearGradient id="paint25_linear_34_13478" x1="251.396" y1="226" x2="254.897" y2="252.256" gradientUnits="userSpaceOnUse">
<stop stop-color="#BBBBBB"/>
<stop offset="1" stop-color="#888888"/>
</linearGradient>
<linearGradient id="paint26_linear_34_13478" x1="249.542" y1="229.667" x2="265.682" y2="242.175" gradientUnits="userSpaceOnUse">
<stop stop-color="#416587"/>
<stop offset="1" stop-color="#1A3052"/>
</linearGradient>
<linearGradient id="paint27_linear_34_13478" x1="252.446" y1="239.446" x2="254.555" y2="241.554" gradientUnits="userSpaceOnUse">
<stop stop-color="#416587"/>
<stop offset="1" stop-color="#1A3052"/>
</linearGradient>
<linearGradient id="paint28_linear_34_13478" x1="252.446" y1="241.946" x2="254.555" y2="244.054" gradientUnits="userSpaceOnUse">
<stop stop-color="#416587"/>
<stop offset="1" stop-color="#1A3052"/>
</linearGradient>
<linearGradient id="paint29_linear_34_13478" x1="256.417" y1="240.083" x2="256.789" y2="241.663" gradientUnits="userSpaceOnUse">
<stop stop-color="#416587"/>
<stop offset="1" stop-color="#1A3052"/>
</linearGradient>
<linearGradient id="paint30_linear_34_13478" x1="256.417" y1="242.583" x2="256.789" y2="244.163" gradientUnits="userSpaceOnUse">
<stop stop-color="#416587"/>
<stop offset="1" stop-color="#1A3052"/>
</linearGradient>
<linearGradient id="paint31_linear_34_13478" x1="256.417" y1="235.083" x2="256.789" y2="236.663" gradientUnits="userSpaceOnUse">
<stop stop-color="#416587"/>
<stop offset="1" stop-color="#1A3052"/>
</linearGradient>
<linearGradient id="paint32_linear_34_13478" x1="256.417" y1="237.583" x2="256.789" y2="239.163" gradientUnits="userSpaceOnUse">
<stop stop-color="#416587"/>
<stop offset="1" stop-color="#1A3052"/>
</linearGradient>
<linearGradient id="paint33_linear_34_13478" x1="252.189" y1="234.189" x2="254.385" y2="236.914" gradientUnits="userSpaceOnUse">
<stop stop-color="#416587"/>
<stop offset="1" stop-color="#1A3052"/>
</linearGradient>
<linearGradient id="paint34_linear_34_13478" x1="252.189" y1="236.689" x2="254.385" y2="239.414" gradientUnits="userSpaceOnUse">
<stop stop-color="#416587"/>
<stop offset="1" stop-color="#1A3052"/>
</linearGradient>
<linearGradient id="paint35_linear_34_13478" x1="280" y1="269" x2="292.598" y2="330.416" gradientUnits="userSpaceOnUse">
<stop stop-color="#416587"/>
<stop offset="1" stop-color="#1A3052"/>
</linearGradient>
<linearGradient id="paint36_linear_34_13478" x1="250.222" y1="272" x2="253.511" y2="298.311" gradientUnits="userSpaceOnUse">
<stop stop-color="white"/>
<stop offset="1" stop-color="#EBEBEB"/>
</linearGradient>
<radialGradient id="paint37_radial_34_13478" cx="0" cy="0" r="1" gradientUnits="userSpaceOnUse" gradientTransform="translate(251.306 278.771) rotate(56.3099) scale(24.7381 21.408)">
<stop offset="0.177083" stop-color="white"/>
<stop offset="1" stop-color="#B8B8B8"/>
</radialGradient>
<linearGradient id="paint38_linear_34_13478" x1="251.396" y1="272" x2="254.897" y2="298.256" gradientUnits="userSpaceOnUse">
<stop stop-color="#BBBBBB"/>
<stop offset="1" stop-color="#888888"/>
</linearGradient>
<linearGradient id="paint39_linear_34_13478" x1="253.556" y1="276" x2="265.176" y2="287.643" gradientUnits="userSpaceOnUse">
<stop stop-color="#416587"/>
<stop offset="1" stop-color="#1A3052"/>
</linearGradient>
<linearGradient id="paint40_linear_34_13478" x1="247.199" y1="276.683" x2="264.515" y2="294" gradientUnits="userSpaceOnUse">
<stop stop-color="#416587"/>
<stop offset="1" stop-color="#1A3052"/>
</linearGradient>
<linearGradient id="paint41_linear_34_13478" x1="250.389" y1="279.873" x2="261.326" y2="290.81" gradientUnits="userSpaceOnUse">
<stop stop-color="#416587"/>
<stop offset="1" stop-color="#1A3052"/>
</linearGradient>
<linearGradient id="paint42_linear_34_13478" x1="237.934" y1="80.8768" x2="252.547" y2="84.3855" gradientUnits="userSpaceOnUse">
<stop stop-color="white"/>
<stop offset="1" stop-color="#FAFAFA"/>
</linearGradient>
<linearGradient id="paint43_linear_34_13478" x1="233.019" y1="66" x2="262.668" y2="100.523" gradientUnits="userSpaceOnUse">
<stop stop-color="#416587"/>
<stop offset="1" stop-color="#1A3052"/>
</linearGradient>
<linearGradient id="paint44_linear_34_13478" x1="244.795" y1="66" x2="254.511" y2="77.2857" gradientUnits="userSpaceOnUse">
<stop stop-color="#416587"/>
<stop offset="1" stop-color="#1A3052"/>
</linearGradient>
</defs>
</svg>
