<svg width="884" height="419" viewBox="0 0 884 419" fill="none" xmlns="http://www.w3.org/2000/svg">
<rect width="884" height="419" fill="white"/>
<rect width="884" height="419" fill="url(#paint0_radial_34_13297)" fill-opacity="0.075"/>
<rect x="0.5" y="0.5" width="883" height="418" stroke="#333333" stroke-opacity="0.2"/>
<g filter="url(#filter0_f_34_13297)">
<rect x="350" y="50" width="234" height="319" rx="16" fill="#CCCCCC" fill-opacity="0.8"/>
</g>
<rect x="350" y="50" width="234" height="319" rx="16" fill="white"/>
<rect x="350" y="50" width="234" height="319" rx="16" fill="url(#paint1_linear_34_13297)" fill-opacity="0.33"/>
<rect x="360.5" y="173.5" width="213" height="45" rx="9.5" fill="#EEF2F5" stroke="url(#paint2_linear_34_13297)" stroke-dasharray="2 2"/>
<path d="M414.867 86.5547V84.6406C415.039 84.7969 415.242 84.9375 415.477 85.0625C415.716 85.1875 415.969 85.2943 416.234 85.3828C416.5 85.4661 416.766 85.5312 417.031 85.5781C417.297 85.625 417.542 85.6484 417.766 85.6484C418.547 85.6484 419.128 85.5182 419.508 85.2578C419.893 84.9974 420.086 84.6198 420.086 84.125C420.086 83.8594 420.021 83.6302 419.891 83.4375C419.766 83.2396 419.589 83.0599 419.359 82.8984C419.13 82.737 418.859 82.5833 418.547 82.4375C418.24 82.2865 417.909 82.1302 417.555 81.9688C417.174 81.7656 416.82 81.5599 416.492 81.3516C416.164 81.1432 415.878 80.9141 415.633 80.6641C415.393 80.4089 415.203 80.1224 415.062 79.8047C414.927 79.487 414.859 79.1146 414.859 78.6875C414.859 78.1615 414.977 77.7057 415.211 77.3203C415.451 76.9297 415.763 76.6094 416.148 76.3594C416.539 76.1042 416.982 75.9167 417.477 75.7969C417.971 75.6719 418.477 75.6094 418.992 75.6094C420.164 75.6094 421.018 75.7422 421.555 76.0078V77.8438C420.919 77.3854 420.102 77.1562 419.102 77.1562C418.826 77.1562 418.549 77.1823 418.273 77.2344C418.003 77.2865 417.758 77.3724 417.539 77.4922C417.326 77.612 417.151 77.7656 417.016 77.9531C416.88 78.1406 416.812 78.3672 416.812 78.6328C416.812 78.8828 416.865 79.099 416.969 79.2812C417.073 79.4635 417.224 79.6302 417.422 79.7812C417.625 79.9323 417.87 80.0807 418.156 80.2266C418.448 80.3672 418.784 80.5208 419.164 80.6875C419.555 80.8906 419.922 81.1042 420.266 81.3281C420.615 81.5521 420.919 81.7995 421.18 82.0703C421.445 82.3411 421.654 82.6432 421.805 82.9766C421.961 83.3047 422.039 83.6797 422.039 84.1016C422.039 84.6693 421.924 85.1484 421.695 85.5391C421.466 85.9297 421.156 86.2474 420.766 86.4922C420.38 86.737 419.935 86.9141 419.43 87.0234C418.924 87.1328 418.391 87.1875 417.828 87.1875C417.641 87.1875 417.409 87.1719 417.133 87.1406C416.862 87.1146 416.583 87.0729 416.297 87.0156C416.01 86.9635 415.74 86.8984 415.484 86.8203C415.229 86.7422 415.023 86.6536 414.867 86.5547ZM427.648 86.9141C427.294 87.0911 426.828 87.1797 426.25 87.1797C424.698 87.1797 423.922 86.4349 423.922 84.9453V80.4219H422.586V79H423.922V77.1484L425.734 76.6328V79H427.648V80.4219H425.734V84.4219C425.734 84.8958 425.82 85.2344 425.992 85.4375C426.164 85.6406 426.451 85.7422 426.852 85.7422C427.159 85.7422 427.424 85.6536 427.648 85.4766V86.9141ZM433.852 80.7266C433.633 80.5547 433.318 80.4688 432.906 80.4688C432.37 80.4688 431.922 80.7109 431.562 81.1953C431.203 81.6797 431.023 82.3385 431.023 83.1719V87H429.211V79H431.023V80.6484H431.055C431.232 80.0859 431.503 79.6484 431.867 79.3359C432.237 79.0182 432.648 78.8594 433.102 78.8594C433.43 78.8594 433.68 78.9089 433.852 79.0078V80.7266ZM441.273 87H439.516V85.75H439.484C438.932 86.7083 438.122 87.1875 437.055 87.1875C436.268 87.1875 435.651 86.974 435.203 86.5469C434.76 86.1198 434.539 85.5547 434.539 84.8516C434.539 83.3411 435.409 82.4609 437.148 82.2109L439.523 81.875C439.523 80.7344 438.982 80.1641 437.898 80.1641C436.945 80.1641 436.086 80.4922 435.32 81.1484V79.5625C436.164 79.0625 437.138 78.8125 438.242 78.8125C440.263 78.8125 441.273 79.8073 441.273 81.7969V87ZM439.523 83.0703L437.844 83.3047C437.323 83.3724 436.93 83.5 436.664 83.6875C436.404 83.8698 436.273 84.1927 436.273 84.6562C436.273 84.9948 436.393 85.2734 436.633 85.4922C436.878 85.7057 437.203 85.8125 437.609 85.8125C438.161 85.8125 438.617 85.6198 438.977 85.2344C439.341 84.8438 439.523 84.3542 439.523 83.7656V83.0703ZM447.711 86.9141C447.357 87.0911 446.891 87.1797 446.312 87.1797C444.76 87.1797 443.984 86.4349 443.984 84.9453V80.4219H442.648V79H443.984V77.1484L445.797 76.6328V79H447.711V80.4219H445.797V84.4219C445.797 84.8958 445.883 85.2344 446.055 85.4375C446.227 85.6406 446.513 85.7422 446.914 85.7422C447.221 85.7422 447.487 85.6536 447.711 85.4766V86.9141ZM455.953 83.4922H450.5C450.521 84.2318 450.747 84.8021 451.18 85.2031C451.617 85.6042 452.216 85.8047 452.977 85.8047C453.831 85.8047 454.615 85.5495 455.328 85.0391V86.5C454.599 86.9583 453.635 87.1875 452.438 87.1875C451.26 87.1875 450.336 86.8255 449.664 86.1016C448.997 85.3724 448.664 84.349 448.664 83.0312C448.664 81.7865 449.031 80.7734 449.766 79.9922C450.505 79.2057 451.422 78.8125 452.516 78.8125C453.609 78.8125 454.456 79.1641 455.055 79.8672C455.654 80.5703 455.953 81.5469 455.953 82.7969V83.4922ZM454.203 82.2109C454.198 81.5599 454.044 81.0547 453.742 80.6953C453.44 80.3307 453.023 80.1484 452.492 80.1484C451.971 80.1484 451.529 80.3385 451.164 80.7188C450.805 81.099 450.583 81.5964 450.5 82.2109H454.203ZM464.961 86.3594C464.961 89.2969 463.484 90.7656 460.531 90.7656C459.49 90.7656 458.581 90.5911 457.805 90.2422V88.5859C458.68 89.0859 459.51 89.3359 460.297 89.3359C462.198 89.3359 463.148 88.401 463.148 86.5312V85.6562H463.117C462.518 86.6771 461.617 87.1875 460.414 87.1875C459.44 87.1875 458.654 86.8333 458.055 86.125C457.461 85.4115 457.164 84.4557 457.164 83.2578C457.164 81.8984 457.484 80.8177 458.125 80.0156C458.766 79.2135 459.646 78.8125 460.766 78.8125C461.823 78.8125 462.607 79.2448 463.117 80.1094H463.148V79H464.961V86.3594ZM463.164 83.3359V82.2969C463.164 81.7344 462.977 81.2552 462.602 80.8594C462.232 80.4583 461.768 80.2578 461.211 80.2578C460.523 80.2578 459.984 80.513 459.594 81.0234C459.208 81.5286 459.016 82.237 459.016 83.1484C459.016 83.9349 459.201 84.5651 459.57 85.0391C459.945 85.5078 460.44 85.7422 461.055 85.7422C461.68 85.7422 462.188 85.5182 462.578 85.0703C462.969 84.6172 463.164 84.0391 463.164 83.3359ZM468.234 77.3203C467.938 77.3203 467.682 77.224 467.469 77.0312C467.26 76.8385 467.156 76.5938 467.156 76.2969C467.156 76 467.26 75.7526 467.469 75.5547C467.682 75.3568 467.938 75.2578 468.234 75.2578C468.542 75.2578 468.802 75.3568 469.016 75.5547C469.229 75.7526 469.336 76 469.336 76.2969C469.336 76.5781 469.229 76.8203 469.016 77.0234C468.802 77.2214 468.542 77.3203 468.234 77.3203ZM469.133 87H467.32V79H469.133V87ZM477.234 86.6328C476.594 87.0026 475.836 87.1875 474.961 87.1875C473.773 87.1875 472.815 86.8177 472.086 86.0781C471.357 85.3333 470.992 84.3698 470.992 83.1875C470.992 81.8698 471.383 80.8125 472.164 80.0156C472.951 79.2135 474 78.8125 475.312 78.8125C476.042 78.8125 476.685 78.9401 477.242 79.1953V80.8828C476.685 80.4661 476.091 80.2578 475.461 80.2578C474.695 80.2578 474.068 80.5182 473.578 81.0391C473.089 81.5547 472.844 82.2318 472.844 83.0703C472.844 83.8984 473.073 84.5521 473.531 85.0312C473.995 85.5104 474.615 85.75 475.391 85.75C476.042 85.75 476.656 85.5182 477.234 85.0547V86.6328ZM485.289 85.8203H485.258V90.6797H483.445V79H485.258V80.4062H485.289C485.909 79.3438 486.815 78.8125 488.008 78.8125C489.023 78.8125 489.815 79.1693 490.383 79.8828C490.951 80.5964 491.234 81.5547 491.234 82.7578C491.234 84.0911 490.914 85.1589 490.273 85.9609C489.633 86.763 488.758 87.1641 487.648 87.1641C486.628 87.1641 485.841 86.7161 485.289 85.8203ZM485.242 82.6641V83.6562C485.242 84.2396 485.427 84.7344 485.797 85.1406C486.172 85.5469 486.646 85.75 487.219 85.75C487.891 85.75 488.417 85.4896 488.797 84.9688C489.182 84.4427 489.375 83.7109 489.375 82.7734C489.375 81.987 489.195 81.3724 488.836 80.9297C488.482 80.4818 488 80.2578 487.391 80.2578C486.745 80.2578 486.224 80.487 485.828 80.9453C485.438 81.4036 485.242 81.9766 485.242 82.6641ZM494.906 87H493.086V75.1562H494.906V87ZM503.414 87H501.656V85.75H501.625C501.073 86.7083 500.263 87.1875 499.195 87.1875C498.409 87.1875 497.792 86.974 497.344 86.5469C496.901 86.1198 496.68 85.5547 496.68 84.8516C496.68 83.3411 497.549 82.4609 499.289 82.2109L501.664 81.875C501.664 80.7344 501.122 80.1641 500.039 80.1641C499.086 80.1641 498.227 80.4922 497.461 81.1484V79.5625C498.305 79.0625 499.279 78.8125 500.383 78.8125C502.404 78.8125 503.414 79.8073 503.414 81.7969V87ZM501.664 83.0703L499.984 83.3047C499.464 83.3724 499.07 83.5 498.805 83.6875C498.544 83.8698 498.414 84.1927 498.414 84.6562C498.414 84.9948 498.534 85.2734 498.773 85.4922C499.018 85.7057 499.344 85.8125 499.75 85.8125C500.302 85.8125 500.758 85.6198 501.117 85.2344C501.482 84.8438 501.664 84.3542 501.664 83.7656V83.0703ZM512.758 87H510.945V82.4922C510.945 80.9974 510.417 80.25 509.359 80.25C508.807 80.25 508.352 80.4583 507.992 80.875C507.633 81.2865 507.453 81.8073 507.453 82.4375V87H505.633V79H507.453V80.3281H507.484C508.083 79.3177 508.948 78.8125 510.078 78.8125C510.948 78.8125 511.612 79.0964 512.07 79.6641C512.529 80.2266 512.758 81.0417 512.758 82.1094V87ZM522.102 87H520.289V82.4922C520.289 80.9974 519.76 80.25 518.703 80.25C518.151 80.25 517.695 80.4583 517.336 80.875C516.977 81.2865 516.797 81.8073 516.797 82.4375V87H514.977V79H516.797V80.3281H516.828C517.427 79.3177 518.292 78.8125 519.422 78.8125C520.292 78.8125 520.956 79.0964 521.414 79.6641C521.872 80.2266 522.102 81.0417 522.102 82.1094V87ZM525.234 77.3203C524.938 77.3203 524.682 77.224 524.469 77.0312C524.26 76.8385 524.156 76.5938 524.156 76.2969C524.156 76 524.26 75.7526 524.469 75.5547C524.682 75.3568 524.938 75.2578 525.234 75.2578C525.542 75.2578 525.802 75.3568 526.016 75.5547C526.229 75.7526 526.336 76 526.336 76.2969C526.336 76.5781 526.229 76.8203 526.016 77.0234C525.802 77.2214 525.542 77.3203 525.234 77.3203ZM526.133 87H524.32V79H526.133V87ZM535.633 87H533.82V82.4922C533.82 80.9974 533.292 80.25 532.234 80.25C531.682 80.25 531.227 80.4583 530.867 80.875C530.508 81.2865 530.328 81.8073 530.328 82.4375V87H528.508V79H530.328V80.3281H530.359C530.958 79.3177 531.823 78.8125 532.953 78.8125C533.823 78.8125 534.487 79.0964 534.945 79.6641C535.404 80.2266 535.633 81.0417 535.633 82.1094V87ZM545.133 86.3594C545.133 89.2969 543.656 90.7656 540.703 90.7656C539.661 90.7656 538.753 90.5911 537.977 90.2422V88.5859C538.852 89.0859 539.682 89.3359 540.469 89.3359C542.37 89.3359 543.32 88.401 543.32 86.5312V85.6562H543.289C542.69 86.6771 541.789 87.1875 540.586 87.1875C539.612 87.1875 538.826 86.8333 538.227 86.125C537.633 85.4115 537.336 84.4557 537.336 83.2578C537.336 81.8984 537.656 80.8177 538.297 80.0156C538.938 79.2135 539.818 78.8125 540.938 78.8125C541.995 78.8125 542.779 79.2448 543.289 80.1094H543.32V79H545.133V86.3594ZM543.336 83.3359V82.2969C543.336 81.7344 543.148 81.2552 542.773 80.8594C542.404 80.4583 541.94 80.2578 541.383 80.2578C540.695 80.2578 540.156 80.513 539.766 81.0234C539.38 81.5286 539.188 82.237 539.188 83.1484C539.188 83.9349 539.372 84.5651 539.742 85.0391C540.117 85.5078 540.612 85.7422 541.227 85.7422C541.852 85.7422 542.359 85.5182 542.75 85.0703C543.141 84.6172 543.336 84.0391 543.336 83.3359Z" fill="url(#paint3_linear_34_13297)"/>
<path d="M356 111L579 111" stroke="#3F6384" stroke-opacity="0.66" stroke-width="2" stroke-linecap="round"/>
<path d="M422.873 157H421.602L420.562 154.252H416.406L415.429 157H414.15L417.91 147.197H419.1L422.873 157ZM420.187 153.22L418.648 149.043C418.598 148.906 418.548 148.688 418.498 148.387H418.471C418.425 148.665 418.373 148.883 418.313 149.043L416.789 153.22H420.187ZM423.748 156.747V155.544C424.359 155.995 425.031 156.221 425.765 156.221C426.749 156.221 427.241 155.893 427.241 155.236C427.241 155.049 427.198 154.892 427.111 154.765C427.029 154.632 426.915 154.516 426.77 154.416C426.628 154.316 426.46 154.227 426.264 154.149C426.072 154.067 425.865 153.983 425.642 153.896C425.332 153.773 425.058 153.65 424.821 153.527C424.589 153.4 424.393 153.258 424.233 153.104C424.078 152.944 423.96 152.764 423.878 152.563C423.8 152.363 423.762 152.128 423.762 151.859C423.762 151.531 423.837 151.242 423.987 150.991C424.138 150.736 424.338 150.524 424.589 150.355C424.84 150.182 425.124 150.052 425.443 149.966C425.767 149.879 426.1 149.836 426.441 149.836C427.048 149.836 427.59 149.941 428.068 150.15V151.285C427.553 150.948 426.961 150.779 426.291 150.779C426.081 150.779 425.892 150.804 425.724 150.854C425.555 150.9 425.409 150.966 425.286 151.053C425.168 151.139 425.074 151.244 425.006 151.367C424.942 151.486 424.91 151.618 424.91 151.764C424.91 151.946 424.942 152.099 425.006 152.222C425.074 152.345 425.172 152.454 425.3 152.55C425.427 152.646 425.582 152.732 425.765 152.81C425.947 152.887 426.154 152.971 426.387 153.062C426.697 153.181 426.975 153.304 427.221 153.432C427.467 153.555 427.676 153.696 427.85 153.855C428.023 154.01 428.155 154.19 428.246 154.396C428.342 154.601 428.39 154.844 428.39 155.127C428.39 155.473 428.312 155.774 428.157 156.029C428.007 156.285 427.804 156.496 427.549 156.665C427.294 156.834 427 156.959 426.667 157.041C426.334 157.123 425.986 157.164 425.621 157.164C424.901 157.164 424.277 157.025 423.748 156.747ZM429.695 156.747V155.544C430.306 155.995 430.978 156.221 431.712 156.221C432.696 156.221 433.188 155.893 433.188 155.236C433.188 155.049 433.145 154.892 433.059 154.765C432.977 154.632 432.863 154.516 432.717 154.416C432.576 154.316 432.407 154.227 432.211 154.149C432.02 154.067 431.812 153.983 431.589 153.896C431.279 153.773 431.006 153.65 430.769 153.527C430.536 153.4 430.34 153.258 430.181 153.104C430.026 152.944 429.907 152.764 429.825 152.563C429.748 152.363 429.709 152.128 429.709 151.859C429.709 151.531 429.784 151.242 429.935 150.991C430.085 150.736 430.285 150.524 430.536 150.355C430.787 150.182 431.072 150.052 431.391 149.966C431.714 149.879 432.047 149.836 432.389 149.836C432.995 149.836 433.537 149.941 434.016 150.15V151.285C433.501 150.948 432.908 150.779 432.238 150.779C432.029 150.779 431.84 150.804 431.671 150.854C431.502 150.9 431.356 150.966 431.233 151.053C431.115 151.139 431.021 151.244 430.953 151.367C430.889 151.486 430.857 151.618 430.857 151.764C430.857 151.946 430.889 152.099 430.953 152.222C431.021 152.345 431.119 152.454 431.247 152.55C431.375 152.646 431.53 152.732 431.712 152.81C431.894 152.887 432.102 152.971 432.334 153.062C432.644 153.181 432.922 153.304 433.168 153.432C433.414 153.555 433.624 153.696 433.797 153.855C433.97 154.01 434.102 154.19 434.193 154.396C434.289 154.601 434.337 154.844 434.337 155.127C434.337 155.473 434.259 155.774 434.104 156.029C433.954 156.285 433.751 156.496 433.496 156.665C433.241 156.834 432.947 156.959 432.614 157.041C432.282 157.123 431.933 157.164 431.568 157.164C430.848 157.164 430.224 157.025 429.695 156.747ZM441.692 153.78H436.75C436.768 154.56 436.978 155.161 437.379 155.585C437.78 156.009 438.331 156.221 439.033 156.221C439.822 156.221 440.546 155.961 441.207 155.441V156.494C440.592 156.941 439.778 157.164 438.767 157.164C437.778 157.164 437.001 156.847 436.436 156.214C435.87 155.576 435.588 154.68 435.588 153.527C435.588 152.438 435.896 151.552 436.511 150.868C437.131 150.18 437.898 149.836 438.814 149.836C439.73 149.836 440.439 150.132 440.94 150.725C441.442 151.317 441.692 152.14 441.692 153.192V153.78ZM440.544 152.83C440.539 152.183 440.382 151.679 440.072 151.319C439.767 150.959 439.341 150.779 438.794 150.779C438.265 150.779 437.816 150.968 437.447 151.347C437.078 151.725 436.85 152.219 436.764 152.83H440.544ZM453.334 157H452.213V152.98C452.213 152.206 452.092 151.645 451.851 151.299C451.614 150.952 451.213 150.779 450.647 150.779C450.169 150.779 449.761 150.998 449.424 151.436C449.091 151.873 448.925 152.397 448.925 153.008V157H447.804V152.844C447.804 151.467 447.273 150.779 446.211 150.779C445.719 150.779 445.313 150.987 444.994 151.401C444.675 151.812 444.516 152.347 444.516 153.008V157H443.395V150H444.516V151.107H444.543C445.04 150.26 445.764 149.836 446.717 149.836C447.195 149.836 447.612 149.97 447.968 150.239C448.323 150.504 448.567 150.852 448.699 151.285C449.219 150.319 449.993 149.836 451.023 149.836C452.564 149.836 453.334 150.786 453.334 152.687V157ZM456.602 155.988H456.574V157H455.453V146.637H456.574V151.23H456.602C457.153 150.301 457.96 149.836 459.021 149.836C459.919 149.836 460.621 150.15 461.127 150.779C461.637 151.404 461.893 152.242 461.893 153.295C461.893 154.466 461.608 155.405 461.038 156.111C460.468 156.813 459.689 157.164 458.7 157.164C457.775 157.164 457.076 156.772 456.602 155.988ZM456.574 153.165V154.143C456.574 154.721 456.761 155.214 457.135 155.619C457.513 156.02 457.992 156.221 458.57 156.221C459.249 156.221 459.78 155.961 460.163 155.441C460.55 154.922 460.744 154.2 460.744 153.274C460.744 152.495 460.564 151.884 460.204 151.442C459.844 151 459.356 150.779 458.741 150.779C458.09 150.779 457.565 151.007 457.169 151.463C456.772 151.914 456.574 152.481 456.574 153.165ZM464.805 157H463.684V146.637H464.805V157ZM472.7 153.78H467.758C467.776 154.56 467.986 155.161 468.387 155.585C468.788 156.009 469.339 156.221 470.041 156.221C470.829 156.221 471.554 155.961 472.215 155.441V156.494C471.6 156.941 470.786 157.164 469.774 157.164C468.785 157.164 468.008 156.847 467.443 156.214C466.878 155.576 466.596 154.68 466.596 153.527C466.596 152.438 466.903 151.552 467.519 150.868C468.138 150.18 468.906 149.836 469.822 149.836C470.738 149.836 471.447 150.132 471.948 150.725C472.45 151.317 472.7 152.14 472.7 153.192V153.78ZM471.552 152.83C471.547 152.183 471.39 151.679 471.08 151.319C470.775 150.959 470.349 150.779 469.802 150.779C469.273 150.779 468.824 150.968 468.455 151.347C468.086 151.725 467.858 152.219 467.771 152.83H471.552ZM487.062 150L484.964 157H483.802L482.359 151.989C482.305 151.798 482.268 151.581 482.25 151.34H482.223C482.209 151.504 482.161 151.716 482.079 151.976L480.514 157H479.393L477.273 150H478.449L479.898 155.264C479.944 155.423 479.976 155.633 479.994 155.893H480.049C480.062 155.692 480.104 155.478 480.172 155.25L481.785 150H482.811L484.26 155.277C484.305 155.446 484.34 155.656 484.362 155.906H484.417C484.426 155.729 484.465 155.519 484.533 155.277L485.955 150H487.062ZM491.287 157.164C490.253 157.164 489.425 156.838 488.806 156.187C488.19 155.53 487.883 154.662 487.883 153.582C487.883 152.406 488.204 151.488 488.847 150.827C489.489 150.166 490.357 149.836 491.451 149.836C492.495 149.836 493.308 150.157 493.892 150.8C494.479 151.442 494.773 152.333 494.773 153.473C494.773 154.589 494.457 155.485 493.823 156.159C493.194 156.829 492.349 157.164 491.287 157.164ZM491.369 150.779C490.649 150.779 490.079 151.025 489.66 151.518C489.241 152.005 489.031 152.68 489.031 153.541C489.031 154.37 489.243 155.024 489.667 155.503C490.091 155.981 490.658 156.221 491.369 156.221C492.094 156.221 492.65 155.986 493.037 155.517C493.429 155.047 493.625 154.38 493.625 153.514C493.625 152.639 493.429 151.964 493.037 151.49C492.65 151.016 492.094 150.779 491.369 150.779ZM500.215 151.135C500.019 150.984 499.736 150.909 499.367 150.909C498.889 150.909 498.488 151.135 498.164 151.586C497.845 152.037 497.686 152.652 497.686 153.432V157H496.564V150H497.686V151.442H497.713C497.872 150.95 498.116 150.567 498.444 150.294C498.772 150.016 499.139 149.877 499.545 149.877C499.837 149.877 500.06 149.909 500.215 149.973V151.135ZM507.242 157H505.67L502.58 153.637H502.553V157H501.432V146.637H502.553V153.206H502.58L505.52 150H506.989L503.742 153.377L507.242 157ZM508.965 148.223C508.764 148.223 508.593 148.154 508.452 148.018C508.311 147.881 508.24 147.708 508.24 147.498C508.24 147.288 508.311 147.115 508.452 146.979C508.593 146.837 508.764 146.767 508.965 146.767C509.17 146.767 509.343 146.837 509.484 146.979C509.63 147.115 509.703 147.288 509.703 147.498C509.703 147.699 509.63 147.869 509.484 148.011C509.343 148.152 509.17 148.223 508.965 148.223ZM509.512 157H508.391V150H509.512V157ZM517.592 157H516.471V153.008C516.471 151.522 515.928 150.779 514.844 150.779C514.283 150.779 513.818 150.991 513.449 151.415C513.085 151.834 512.902 152.365 512.902 153.008V157H511.781V150H512.902V151.162H512.93C513.458 150.278 514.224 149.836 515.227 149.836C515.992 149.836 516.578 150.084 516.983 150.581C517.389 151.073 517.592 151.786 517.592 152.721V157ZM525.686 156.439C525.686 159.01 524.455 160.295 521.994 160.295C521.128 160.295 520.372 160.131 519.725 159.803V158.682C520.513 159.119 521.265 159.338 521.98 159.338C523.703 159.338 524.564 158.422 524.564 156.59V155.824H524.537C524.004 156.717 523.202 157.164 522.131 157.164C521.26 157.164 520.559 156.854 520.025 156.234C519.497 155.61 519.232 154.774 519.232 153.726C519.232 152.536 519.517 151.59 520.087 150.889C520.661 150.187 521.445 149.836 522.438 149.836C523.382 149.836 524.081 150.214 524.537 150.971H524.564V150H525.686V156.439ZM524.564 153.835V152.803C524.564 152.247 524.375 151.771 523.997 151.374C523.623 150.978 523.156 150.779 522.596 150.779C521.903 150.779 521.361 151.032 520.969 151.538C520.577 152.039 520.381 152.743 520.381 153.65C520.381 154.43 520.568 155.054 520.941 155.523C521.32 155.988 521.819 156.221 522.438 156.221C523.067 156.221 523.578 155.997 523.97 155.551C524.366 155.104 524.564 154.532 524.564 153.835ZM535.044 156.932C534.78 157.077 534.431 157.15 533.998 157.15C532.772 157.15 532.159 156.467 532.159 155.1V150.957H530.956V150H532.159V148.291L533.28 147.929V150H535.044V150.957H533.28V154.901C533.28 155.371 533.36 155.706 533.52 155.906C533.679 156.107 533.943 156.207 534.312 156.207C534.595 156.207 534.839 156.13 535.044 155.975V156.932ZM542.167 153.78H537.225C537.243 154.56 537.452 155.161 537.854 155.585C538.255 156.009 538.806 156.221 539.508 156.221C540.296 156.221 541.021 155.961 541.682 155.441V156.494C541.066 156.941 540.253 157.164 539.241 157.164C538.252 157.164 537.475 156.847 536.91 156.214C536.345 155.576 536.062 154.68 536.062 153.527C536.062 152.438 536.37 151.552 536.985 150.868C537.605 150.18 538.373 149.836 539.289 149.836C540.205 149.836 540.914 150.132 541.415 150.725C541.916 151.317 542.167 152.14 542.167 153.192V153.78ZM541.019 152.83C541.014 152.183 540.857 151.679 540.547 151.319C540.242 150.959 539.815 150.779 539.269 150.779C538.74 150.779 538.291 150.968 537.922 151.347C537.553 151.725 537.325 152.219 537.238 152.83H541.019ZM548.88 157H547.759V155.906H547.731C547.244 156.745 546.526 157.164 545.578 157.164C544.881 157.164 544.334 156.979 543.938 156.61C543.546 156.241 543.35 155.751 543.35 155.141C543.35 153.833 544.12 153.072 545.66 152.857L547.759 152.563C547.759 151.374 547.278 150.779 546.316 150.779C545.473 150.779 544.712 151.066 544.033 151.641V150.492C544.721 150.055 545.514 149.836 546.412 149.836C548.057 149.836 548.88 150.706 548.88 152.447V157ZM547.759 153.459L546.07 153.691C545.551 153.764 545.159 153.894 544.895 154.081C544.63 154.263 544.498 154.589 544.498 155.059C544.498 155.4 544.619 155.681 544.86 155.899C545.106 156.114 545.432 156.221 545.838 156.221C546.394 156.221 546.852 156.027 547.212 155.64C547.576 155.248 547.759 154.753 547.759 154.156V153.459ZM560.932 157H559.811V152.98C559.811 152.206 559.69 151.645 559.448 151.299C559.211 150.952 558.81 150.779 558.245 150.779C557.767 150.779 557.359 150.998 557.021 151.436C556.689 151.873 556.522 152.397 556.522 153.008V157H555.401V152.844C555.401 151.467 554.87 150.779 553.809 150.779C553.316 150.779 552.911 150.987 552.592 151.401C552.273 151.812 552.113 152.347 552.113 153.008V157H550.992V150H552.113V151.107H552.141C552.637 150.26 553.362 149.836 554.314 149.836C554.793 149.836 555.21 149.97 555.565 150.239C555.921 150.504 556.165 150.852 556.297 151.285C556.816 150.319 557.591 149.836 558.621 149.836C560.161 149.836 560.932 150.786 560.932 152.687V157Z" fill="url(#paint4_linear_34_13297)"/>
<path d="M421.957 243.59C421.232 243.973 420.33 244.164 419.25 244.164C417.855 244.164 416.739 243.715 415.9 242.817C415.062 241.92 414.643 240.742 414.643 239.283C414.643 237.715 415.114 236.449 416.058 235.482C417.001 234.516 418.197 234.033 419.646 234.033C420.576 234.033 421.346 234.168 421.957 234.437V235.66C421.255 235.268 420.48 235.072 419.633 235.072C418.507 235.072 417.593 235.448 416.892 236.2C416.194 236.952 415.846 237.957 415.846 239.215C415.846 240.409 416.172 241.361 416.823 242.072C417.479 242.779 418.339 243.132 419.4 243.132C420.385 243.132 421.237 242.913 421.957 242.476V243.59ZM426.729 244.164C425.694 244.164 424.867 243.838 424.247 243.187C423.632 242.53 423.324 241.662 423.324 240.582C423.324 239.406 423.646 238.488 424.288 237.827C424.931 237.166 425.799 236.836 426.893 236.836C427.936 236.836 428.75 237.157 429.333 237.8C429.921 238.442 430.215 239.333 430.215 240.473C430.215 241.589 429.898 242.485 429.265 243.159C428.636 243.829 427.79 244.164 426.729 244.164ZM426.811 237.779C426.09 237.779 425.521 238.025 425.102 238.518C424.682 239.005 424.473 239.68 424.473 240.541C424.473 241.37 424.685 242.024 425.108 242.503C425.532 242.981 426.1 243.221 426.811 243.221C427.535 243.221 428.091 242.986 428.479 242.517C428.87 242.047 429.066 241.38 429.066 240.514C429.066 239.639 428.87 238.964 428.479 238.49C428.091 238.016 427.535 237.779 426.811 237.779ZM441.945 244H440.824V239.98C440.824 239.206 440.703 238.645 440.462 238.299C440.225 237.952 439.824 237.779 439.259 237.779C438.78 237.779 438.372 237.998 438.035 238.436C437.702 238.873 437.536 239.397 437.536 240.008V244H436.415V239.844C436.415 238.467 435.884 237.779 434.822 237.779C434.33 237.779 433.924 237.987 433.605 238.401C433.286 238.812 433.127 239.347 433.127 240.008V244H432.006V237H433.127V238.107H433.154C433.651 237.26 434.376 236.836 435.328 236.836C435.807 236.836 436.224 236.97 436.579 237.239C436.935 237.504 437.178 237.852 437.311 238.285C437.83 237.319 438.605 236.836 439.635 236.836C441.175 236.836 441.945 237.786 441.945 239.687V244ZM445.213 242.988H445.186V247.22H444.064V237H445.186V238.23H445.213C445.764 237.301 446.571 236.836 447.633 236.836C448.535 236.836 449.239 237.15 449.745 237.779C450.251 238.404 450.504 239.242 450.504 240.295C450.504 241.466 450.219 242.405 449.649 243.111C449.08 243.813 448.3 244.164 447.312 244.164C446.405 244.164 445.705 243.772 445.213 242.988ZM445.186 240.165V241.143C445.186 241.721 445.372 242.214 445.746 242.619C446.124 243.02 446.603 243.221 447.182 243.221C447.861 243.221 448.392 242.961 448.774 242.441C449.162 241.922 449.355 241.2 449.355 240.274C449.355 239.495 449.175 238.884 448.815 238.442C448.455 238 447.968 237.779 447.353 237.779C446.701 237.779 446.177 238.007 445.78 238.463C445.384 238.914 445.186 239.481 445.186 240.165ZM453.416 244H452.295V233.637H453.416V244ZM461.312 240.78H456.369C456.387 241.56 456.597 242.161 456.998 242.585C457.399 243.009 457.951 243.221 458.652 243.221C459.441 243.221 460.165 242.961 460.826 242.441V243.494C460.211 243.941 459.397 244.164 458.386 244.164C457.397 244.164 456.62 243.847 456.055 243.214C455.49 242.576 455.207 241.68 455.207 240.527C455.207 239.438 455.515 238.552 456.13 237.868C456.75 237.18 457.518 236.836 458.434 236.836C459.35 236.836 460.058 237.132 460.56 237.725C461.061 238.317 461.312 239.14 461.312 240.192V240.78ZM460.163 239.83C460.159 239.183 460.001 238.679 459.691 238.319C459.386 237.959 458.96 237.779 458.413 237.779C457.884 237.779 457.436 237.968 457.066 238.347C456.697 238.725 456.469 239.219 456.383 239.83H460.163ZM466.261 243.932C465.996 244.077 465.648 244.15 465.215 244.15C463.989 244.15 463.376 243.467 463.376 242.1V237.957H462.173V237H463.376V235.291L464.497 234.929V237H466.261V237.957H464.497V241.901C464.497 242.371 464.577 242.706 464.736 242.906C464.896 243.107 465.16 243.207 465.529 243.207C465.812 243.207 466.056 243.13 466.261 242.975V243.932ZM473.384 240.78H468.441C468.46 241.56 468.669 242.161 469.07 242.585C469.471 243.009 470.023 243.221 470.725 243.221C471.513 243.221 472.238 242.961 472.898 242.441V243.494C472.283 243.941 471.47 244.164 470.458 244.164C469.469 244.164 468.692 243.847 468.127 243.214C467.562 242.576 467.279 241.68 467.279 240.527C467.279 239.438 467.587 238.552 468.202 237.868C468.822 237.18 469.59 236.836 470.506 236.836C471.422 236.836 472.131 237.132 472.632 237.725C473.133 238.317 473.384 239.14 473.384 240.192V240.78ZM472.235 239.83C472.231 239.183 472.074 238.679 471.764 238.319C471.458 237.959 471.032 237.779 470.485 237.779C469.957 237.779 469.508 237.968 469.139 238.347C468.77 238.725 468.542 239.219 468.455 239.83H472.235ZM483.938 244H482.817V242.906H482.79C482.302 243.745 481.585 244.164 480.637 244.164C479.939 244.164 479.393 243.979 478.996 243.61C478.604 243.241 478.408 242.751 478.408 242.141C478.408 240.833 479.178 240.072 480.719 239.857L482.817 239.563C482.817 238.374 482.337 237.779 481.375 237.779C480.532 237.779 479.771 238.066 479.092 238.641V237.492C479.78 237.055 480.573 236.836 481.471 236.836C483.116 236.836 483.938 237.706 483.938 239.447V244ZM482.817 240.459L481.129 240.691C480.609 240.764 480.217 240.894 479.953 241.081C479.689 241.263 479.557 241.589 479.557 242.059C479.557 242.4 479.677 242.681 479.919 242.899C480.165 243.114 480.491 243.221 480.896 243.221C481.452 243.221 481.91 243.027 482.271 242.64C482.635 242.248 482.817 241.753 482.817 241.156V240.459ZM485.627 243.747V242.544C486.238 242.995 486.91 243.221 487.644 243.221C488.628 243.221 489.12 242.893 489.12 242.236C489.12 242.049 489.077 241.892 488.99 241.765C488.908 241.632 488.794 241.516 488.648 241.416C488.507 241.316 488.339 241.227 488.143 241.149C487.951 241.067 487.744 240.983 487.521 240.896C487.211 240.773 486.937 240.65 486.7 240.527C486.468 240.4 486.272 240.258 486.112 240.104C485.957 239.944 485.839 239.764 485.757 239.563C485.679 239.363 485.641 239.128 485.641 238.859C485.641 238.531 485.716 238.242 485.866 237.991C486.017 237.736 486.217 237.524 486.468 237.355C486.718 237.182 487.003 237.052 487.322 236.966C487.646 236.879 487.979 236.836 488.32 236.836C488.926 236.836 489.469 236.941 489.947 237.15V238.285C489.432 237.948 488.84 237.779 488.17 237.779C487.96 237.779 487.771 237.804 487.603 237.854C487.434 237.9 487.288 237.966 487.165 238.053C487.047 238.139 486.953 238.244 486.885 238.367C486.821 238.486 486.789 238.618 486.789 238.764C486.789 238.946 486.821 239.099 486.885 239.222C486.953 239.345 487.051 239.454 487.179 239.55C487.306 239.646 487.461 239.732 487.644 239.81C487.826 239.887 488.033 239.971 488.266 240.062C488.576 240.181 488.854 240.304 489.1 240.432C489.346 240.555 489.555 240.696 489.729 240.855C489.902 241.01 490.034 241.19 490.125 241.396C490.221 241.601 490.269 241.844 490.269 242.127C490.269 242.473 490.191 242.774 490.036 243.029C489.886 243.285 489.683 243.496 489.428 243.665C489.173 243.834 488.879 243.959 488.546 244.041C488.213 244.123 487.865 244.164 487.5 244.164C486.78 244.164 486.156 244.025 485.627 243.747ZM491.574 243.747V242.544C492.185 242.995 492.857 243.221 493.591 243.221C494.575 243.221 495.067 242.893 495.067 242.236C495.067 242.049 495.024 241.892 494.938 241.765C494.855 241.632 494.742 241.516 494.596 241.416C494.454 241.316 494.286 241.227 494.09 241.149C493.898 241.067 493.691 240.983 493.468 240.896C493.158 240.773 492.884 240.65 492.647 240.527C492.415 240.4 492.219 240.258 492.06 240.104C491.905 239.944 491.786 239.764 491.704 239.563C491.627 239.363 491.588 239.128 491.588 238.859C491.588 238.531 491.663 238.242 491.813 237.991C491.964 237.736 492.164 237.524 492.415 237.355C492.666 237.182 492.951 237.052 493.27 236.966C493.593 236.879 493.926 236.836 494.268 236.836C494.874 236.836 495.416 236.941 495.895 237.15V238.285C495.38 237.948 494.787 237.779 494.117 237.779C493.908 237.779 493.718 237.804 493.55 237.854C493.381 237.9 493.235 237.966 493.112 238.053C492.994 238.139 492.9 238.244 492.832 238.367C492.768 238.486 492.736 238.618 492.736 238.764C492.736 238.946 492.768 239.099 492.832 239.222C492.9 239.345 492.998 239.454 493.126 239.55C493.254 239.646 493.409 239.732 493.591 239.81C493.773 239.887 493.98 239.971 494.213 240.062C494.523 240.181 494.801 240.304 495.047 240.432C495.293 240.555 495.503 240.696 495.676 240.855C495.849 241.01 495.981 241.19 496.072 241.396C496.168 241.601 496.216 241.844 496.216 242.127C496.216 242.473 496.138 242.774 495.983 243.029C495.833 243.285 495.63 243.496 495.375 243.665C495.12 243.834 494.826 243.959 494.493 244.041C494.16 244.123 493.812 244.164 493.447 244.164C492.727 244.164 492.103 244.025 491.574 243.747ZM503.571 240.78H498.629C498.647 241.56 498.857 242.161 499.258 242.585C499.659 243.009 500.21 243.221 500.912 243.221C501.701 243.221 502.425 242.961 503.086 242.441V243.494C502.471 243.941 501.657 244.164 500.646 244.164C499.657 244.164 498.88 243.847 498.314 243.214C497.749 242.576 497.467 241.68 497.467 240.527C497.467 239.438 497.774 238.552 498.39 237.868C499.009 237.18 499.777 236.836 500.693 236.836C501.609 236.836 502.318 237.132 502.819 237.725C503.321 238.317 503.571 239.14 503.571 240.192V240.78ZM502.423 239.83C502.418 239.183 502.261 238.679 501.951 238.319C501.646 237.959 501.22 237.779 500.673 237.779C500.144 237.779 499.695 237.968 499.326 238.347C498.957 238.725 498.729 239.219 498.643 239.83H502.423ZM504.85 243.747V242.544C505.46 242.995 506.132 243.221 506.866 243.221C507.851 243.221 508.343 242.893 508.343 242.236C508.343 242.049 508.299 241.892 508.213 241.765C508.131 241.632 508.017 241.516 507.871 241.416C507.73 241.316 507.561 241.227 507.365 241.149C507.174 241.067 506.966 240.983 506.743 240.896C506.433 240.773 506.16 240.65 505.923 240.527C505.69 240.4 505.494 240.258 505.335 240.104C505.18 239.944 505.062 239.764 504.979 239.563C504.902 239.363 504.863 239.128 504.863 238.859C504.863 238.531 504.938 238.242 505.089 237.991C505.239 237.736 505.44 237.524 505.69 237.355C505.941 237.182 506.226 237.052 506.545 236.966C506.868 236.879 507.201 236.836 507.543 236.836C508.149 236.836 508.691 236.941 509.17 237.15V238.285C508.655 237.948 508.062 237.779 507.393 237.779C507.183 237.779 506.994 237.804 506.825 237.854C506.657 237.9 506.511 237.966 506.388 238.053C506.269 238.139 506.176 238.244 506.107 238.367C506.044 238.486 506.012 238.618 506.012 238.764C506.012 238.946 506.044 239.099 506.107 239.222C506.176 239.345 506.274 239.454 506.401 239.55C506.529 239.646 506.684 239.732 506.866 239.81C507.049 239.887 507.256 239.971 507.488 240.062C507.798 240.181 508.076 240.304 508.322 240.432C508.568 240.555 508.778 240.696 508.951 240.855C509.124 241.01 509.257 241.19 509.348 241.396C509.443 241.601 509.491 241.844 509.491 242.127C509.491 242.473 509.414 242.774 509.259 243.029C509.108 243.285 508.906 243.496 508.65 243.665C508.395 243.834 508.101 243.959 507.769 244.041C507.436 244.123 507.087 244.164 506.723 244.164C506.003 244.164 505.378 244.025 504.85 243.747ZM510.797 243.747V242.544C511.408 242.995 512.08 243.221 512.813 243.221C513.798 243.221 514.29 242.893 514.29 242.236C514.29 242.049 514.247 241.892 514.16 241.765C514.078 241.632 513.964 241.516 513.818 241.416C513.677 241.316 513.508 241.227 513.312 241.149C513.121 241.067 512.914 240.983 512.69 240.896C512.381 240.773 512.107 240.65 511.87 240.527C511.638 240.4 511.442 240.258 511.282 240.104C511.127 239.944 511.009 239.764 510.927 239.563C510.849 239.363 510.811 239.128 510.811 238.859C510.811 238.531 510.886 238.242 511.036 237.991C511.187 237.736 511.387 237.524 511.638 237.355C511.888 237.182 512.173 237.052 512.492 236.966C512.816 236.879 513.148 236.836 513.49 236.836C514.096 236.836 514.639 236.941 515.117 237.15V238.285C514.602 237.948 514.01 237.779 513.34 237.779C513.13 237.779 512.941 237.804 512.772 237.854C512.604 237.9 512.458 237.966 512.335 238.053C512.216 238.139 512.123 238.244 512.055 238.367C511.991 238.486 511.959 238.618 511.959 238.764C511.959 238.946 511.991 239.099 512.055 239.222C512.123 239.345 512.221 239.454 512.349 239.55C512.476 239.646 512.631 239.732 512.813 239.81C512.996 239.887 513.203 239.971 513.436 240.062C513.745 240.181 514.023 240.304 514.27 240.432C514.516 240.555 514.725 240.696 514.898 240.855C515.072 241.01 515.204 241.19 515.295 241.396C515.391 241.601 515.438 241.844 515.438 242.127C515.438 242.473 515.361 242.774 515.206 243.029C515.056 243.285 514.853 243.496 514.598 243.665C514.342 243.834 514.049 243.959 513.716 244.041C513.383 244.123 513.035 244.164 512.67 244.164C511.95 244.164 511.326 244.025 510.797 243.747ZM527.107 244H525.986V239.98C525.986 239.206 525.866 238.645 525.624 238.299C525.387 237.952 524.986 237.779 524.421 237.779C523.942 237.779 523.535 237.998 523.197 238.436C522.865 238.873 522.698 239.397 522.698 240.008V244H521.577V239.844C521.577 238.467 521.046 237.779 519.984 237.779C519.492 237.779 519.087 237.987 518.768 238.401C518.449 238.812 518.289 239.347 518.289 240.008V244H517.168V237H518.289V238.107H518.316C518.813 237.26 519.538 236.836 520.49 236.836C520.969 236.836 521.386 236.97 521.741 237.239C522.097 237.504 522.34 237.852 522.473 238.285C522.992 237.319 523.767 236.836 524.797 236.836C526.337 236.836 527.107 237.786 527.107 239.687V244ZM534.853 240.78H529.91C529.928 241.56 530.138 242.161 530.539 242.585C530.94 243.009 531.492 243.221 532.193 243.221C532.982 243.221 533.706 242.961 534.367 242.441V243.494C533.752 243.941 532.938 244.164 531.927 244.164C530.938 244.164 530.161 243.847 529.596 243.214C529.031 242.576 528.748 241.68 528.748 240.527C528.748 239.438 529.056 238.552 529.671 237.868C530.291 237.18 531.059 236.836 531.975 236.836C532.891 236.836 533.599 237.132 534.101 237.725C534.602 238.317 534.853 239.14 534.853 240.192V240.78ZM533.704 239.83C533.7 239.183 533.542 238.679 533.232 238.319C532.927 237.959 532.501 237.779 531.954 237.779C531.425 237.779 530.977 237.968 530.607 238.347C530.238 238.725 530.01 239.219 529.924 239.83H533.704ZM542.365 244H541.244V240.008C541.244 238.522 540.702 237.779 539.617 237.779C539.057 237.779 538.592 237.991 538.223 238.415C537.858 238.834 537.676 239.365 537.676 240.008V244H536.555V237H537.676V238.162H537.703C538.232 237.278 538.997 236.836 540 236.836C540.766 236.836 541.351 237.084 541.757 237.581C542.162 238.073 542.365 238.786 542.365 239.721V244ZM547.731 243.932C547.467 244.077 547.118 244.15 546.686 244.15C545.46 244.15 544.847 243.467 544.847 242.1V237.957H543.644V237H544.847V235.291L545.968 234.929V237H547.731V237.957H545.968V241.901C545.968 242.371 546.048 242.706 546.207 242.906C546.367 243.107 546.631 243.207 547 243.207C547.283 243.207 547.526 243.13 547.731 242.975V243.932ZM548.805 243.747V242.544C549.415 242.995 550.088 243.221 550.821 243.221C551.806 243.221 552.298 242.893 552.298 242.236C552.298 242.049 552.255 241.892 552.168 241.765C552.086 241.632 551.972 241.516 551.826 241.416C551.685 241.316 551.516 241.227 551.32 241.149C551.129 241.067 550.922 240.983 550.698 240.896C550.388 240.773 550.115 240.65 549.878 240.527C549.646 240.4 549.45 240.258 549.29 240.104C549.135 239.944 549.017 239.764 548.935 239.563C548.857 239.363 548.818 239.128 548.818 238.859C548.818 238.531 548.894 238.242 549.044 237.991C549.194 237.736 549.395 237.524 549.646 237.355C549.896 237.182 550.181 237.052 550.5 236.966C550.824 236.879 551.156 236.836 551.498 236.836C552.104 236.836 552.646 236.941 553.125 237.15V238.285C552.61 237.948 552.018 237.779 551.348 237.779C551.138 237.779 550.949 237.804 550.78 237.854C550.612 237.9 550.466 237.966 550.343 238.053C550.224 238.139 550.131 238.244 550.062 238.367C549.999 238.486 549.967 238.618 549.967 238.764C549.967 238.946 549.999 239.099 550.062 239.222C550.131 239.345 550.229 239.454 550.356 239.55C550.484 239.646 550.639 239.732 550.821 239.81C551.004 239.887 551.211 239.971 551.443 240.062C551.753 240.181 552.031 240.304 552.277 240.432C552.523 240.555 552.733 240.696 552.906 240.855C553.079 241.01 553.212 241.19 553.303 241.396C553.398 241.601 553.446 241.844 553.446 242.127C553.446 242.473 553.369 242.774 553.214 243.029C553.063 243.285 552.861 243.496 552.605 243.665C552.35 243.834 552.056 243.959 551.724 244.041C551.391 244.123 551.042 244.164 550.678 244.164C549.958 244.164 549.333 244.025 548.805 243.747Z" fill="url(#paint5_linear_34_13297)"/>
<path d="M416.434 197.295V201H415.285V191.197H417.979C419.027 191.197 419.838 191.452 420.412 191.963C420.991 192.473 421.28 193.193 421.28 194.123C421.28 195.053 420.959 195.814 420.316 196.406C419.678 196.999 418.815 197.295 417.726 197.295H416.434ZM416.434 192.236V196.256H417.637C418.43 196.256 419.034 196.076 419.448 195.716C419.868 195.351 420.077 194.839 420.077 194.178C420.077 192.883 419.312 192.236 417.78 192.236H416.434ZM426.633 195.135C426.437 194.984 426.154 194.909 425.785 194.909C425.307 194.909 424.906 195.135 424.582 195.586C424.263 196.037 424.104 196.652 424.104 197.432V201H422.982V194H424.104V195.442H424.131C424.29 194.95 424.534 194.567 424.862 194.294C425.19 194.016 425.557 193.877 425.963 193.877C426.255 193.877 426.478 193.909 426.633 193.973V195.135ZM433.476 197.78H428.533C428.551 198.56 428.761 199.161 429.162 199.585C429.563 200.009 430.115 200.221 430.816 200.221C431.605 200.221 432.329 199.961 432.99 199.441V200.494C432.375 200.941 431.562 201.164 430.55 201.164C429.561 201.164 428.784 200.847 428.219 200.214C427.654 199.576 427.371 198.68 427.371 197.527C427.371 196.438 427.679 195.552 428.294 194.868C428.914 194.18 429.682 193.836 430.598 193.836C431.514 193.836 432.222 194.132 432.724 194.725C433.225 195.317 433.476 196.14 433.476 197.192V197.78ZM432.327 196.83C432.323 196.183 432.165 195.679 431.855 195.319C431.55 194.959 431.124 194.779 430.577 194.779C430.049 194.779 429.6 194.968 429.23 195.347C428.861 195.725 428.633 196.219 428.547 196.83H432.327ZM436.326 199.988H436.299V204.22H435.178V194H436.299V195.23H436.326C436.878 194.301 437.684 193.836 438.746 193.836C439.648 193.836 440.353 194.15 440.858 194.779C441.364 195.404 441.617 196.242 441.617 197.295C441.617 198.466 441.332 199.405 440.763 200.111C440.193 200.813 439.414 201.164 438.425 201.164C437.518 201.164 436.818 200.772 436.326 199.988ZM436.299 197.165V198.143C436.299 198.721 436.486 199.214 436.859 199.619C437.238 200.02 437.716 200.221 438.295 200.221C438.974 200.221 439.505 199.961 439.888 199.441C440.275 198.922 440.469 198.2 440.469 197.274C440.469 196.495 440.289 195.884 439.929 195.442C439.569 195 439.081 194.779 438.466 194.779C437.814 194.779 437.29 195.007 436.894 195.463C436.497 195.914 436.299 196.481 436.299 197.165ZM448.419 201H447.298V199.906H447.271C446.783 200.745 446.065 201.164 445.117 201.164C444.42 201.164 443.873 200.979 443.477 200.61C443.085 200.241 442.889 199.751 442.889 199.141C442.889 197.833 443.659 197.072 445.199 196.857L447.298 196.563C447.298 195.374 446.817 194.779 445.855 194.779C445.012 194.779 444.251 195.066 443.572 195.641V194.492C444.26 194.055 445.053 193.836 445.951 193.836C447.596 193.836 448.419 194.706 448.419 196.447V201ZM447.298 197.459L445.609 197.691C445.09 197.764 444.698 197.894 444.434 198.081C444.169 198.263 444.037 198.589 444.037 199.059C444.037 199.4 444.158 199.681 444.399 199.899C444.646 200.114 444.971 200.221 445.377 200.221C445.933 200.221 446.391 200.027 446.751 199.64C447.116 199.248 447.298 198.753 447.298 198.156V197.459ZM454.182 195.135C453.986 194.984 453.703 194.909 453.334 194.909C452.855 194.909 452.454 195.135 452.131 195.586C451.812 196.037 451.652 196.652 451.652 197.432V201H450.531V194H451.652V195.442H451.68C451.839 194.95 452.083 194.567 452.411 194.294C452.739 194.016 453.106 193.877 453.512 193.877C453.803 193.877 454.027 193.909 454.182 193.973V195.135ZM461.024 197.78H456.082C456.1 198.56 456.31 199.161 456.711 199.585C457.112 200.009 457.663 200.221 458.365 200.221C459.154 200.221 459.878 199.961 460.539 199.441V200.494C459.924 200.941 459.11 201.164 458.099 201.164C457.11 201.164 456.333 200.847 455.768 200.214C455.202 199.576 454.92 198.68 454.92 197.527C454.92 196.438 455.228 195.552 455.843 194.868C456.463 194.18 457.23 193.836 458.146 193.836C459.062 193.836 459.771 194.132 460.272 194.725C460.774 195.317 461.024 196.14 461.024 197.192V197.78ZM459.876 196.83C459.871 196.183 459.714 195.679 459.404 195.319C459.099 194.959 458.673 194.779 458.126 194.779C457.597 194.779 457.148 194.968 456.779 195.347C456.41 195.725 456.182 196.219 456.096 196.83H459.876ZM475.387 194L473.288 201H472.126L470.684 195.989C470.629 195.798 470.592 195.581 470.574 195.34H470.547C470.533 195.504 470.485 195.716 470.403 195.976L468.838 201H467.717L465.598 194H466.773L468.223 199.264C468.268 199.423 468.3 199.633 468.318 199.893H468.373C468.387 199.692 468.428 199.478 468.496 199.25L470.109 194H471.135L472.584 199.277C472.63 199.446 472.664 199.656 472.687 199.906H472.741C472.75 199.729 472.789 199.519 472.857 199.277L474.279 194H475.387ZM479.611 201.164C478.577 201.164 477.75 200.838 477.13 200.187C476.515 199.53 476.207 198.662 476.207 197.582C476.207 196.406 476.528 195.488 477.171 194.827C477.813 194.166 478.682 193.836 479.775 193.836C480.819 193.836 481.632 194.157 482.216 194.8C482.804 195.442 483.098 196.333 483.098 197.473C483.098 198.589 482.781 199.485 482.147 200.159C481.519 200.829 480.673 201.164 479.611 201.164ZM479.693 194.779C478.973 194.779 478.404 195.025 477.984 195.518C477.565 196.005 477.355 196.68 477.355 197.541C477.355 198.37 477.567 199.024 477.991 199.503C478.415 199.981 478.982 200.221 479.693 200.221C480.418 200.221 480.974 199.986 481.361 199.517C481.753 199.047 481.949 198.38 481.949 197.514C481.949 196.639 481.753 195.964 481.361 195.49C480.974 195.016 480.418 194.779 479.693 194.779ZM488.539 195.135C488.343 194.984 488.061 194.909 487.691 194.909C487.213 194.909 486.812 195.135 486.488 195.586C486.169 196.037 486.01 196.652 486.01 197.432V201H484.889V194H486.01V195.442H486.037C486.197 194.95 486.44 194.567 486.769 194.294C487.097 194.016 487.464 193.877 487.869 193.877C488.161 193.877 488.384 193.909 488.539 193.973V195.135ZM495.566 201H493.994L490.904 197.637H490.877V201H489.756V190.637H490.877V197.206H490.904L493.844 194H495.313L492.066 197.377L495.566 201ZM496.291 200.747V199.544C496.902 199.995 497.574 200.221 498.308 200.221C499.292 200.221 499.784 199.893 499.784 199.236C499.784 199.049 499.741 198.892 499.654 198.765C499.572 198.632 499.458 198.516 499.312 198.416C499.171 198.316 499.003 198.227 498.807 198.149C498.615 198.067 498.408 197.983 498.185 197.896C497.875 197.773 497.601 197.65 497.364 197.527C497.132 197.4 496.936 197.258 496.776 197.104C496.621 196.944 496.503 196.764 496.421 196.563C496.343 196.363 496.305 196.128 496.305 195.859C496.305 195.531 496.38 195.242 496.53 194.991C496.681 194.736 496.881 194.524 497.132 194.355C497.382 194.182 497.667 194.052 497.986 193.966C498.31 193.879 498.643 193.836 498.984 193.836C499.59 193.836 500.133 193.941 500.611 194.15V195.285C500.096 194.948 499.504 194.779 498.834 194.779C498.624 194.779 498.435 194.804 498.267 194.854C498.098 194.9 497.952 194.966 497.829 195.053C497.711 195.139 497.617 195.244 497.549 195.367C497.485 195.486 497.453 195.618 497.453 195.764C497.453 195.946 497.485 196.099 497.549 196.222C497.617 196.345 497.715 196.454 497.843 196.55C497.97 196.646 498.125 196.732 498.308 196.81C498.49 196.887 498.697 196.971 498.93 197.062C499.24 197.181 499.518 197.304 499.764 197.432C500.01 197.555 500.219 197.696 500.393 197.855C500.566 198.01 500.698 198.19 500.789 198.396C500.885 198.601 500.933 198.844 500.933 199.127C500.933 199.473 500.855 199.774 500.7 200.029C500.55 200.285 500.347 200.496 500.092 200.665C499.837 200.834 499.543 200.959 499.21 201.041C498.877 201.123 498.529 201.164 498.164 201.164C497.444 201.164 496.82 201.025 496.291 200.747ZM508.473 201H507.352V196.967C507.352 195.508 506.809 194.779 505.725 194.779C505.178 194.779 504.717 194.991 504.344 195.415C503.97 195.834 503.783 196.374 503.783 197.035V201H502.662V190.637H503.783V195.162H503.811C504.348 194.278 505.114 193.836 506.107 193.836C507.684 193.836 508.473 194.786 508.473 196.687V201ZM513.518 201.164C512.483 201.164 511.656 200.838 511.036 200.187C510.421 199.53 510.113 198.662 510.113 197.582C510.113 196.406 510.435 195.488 511.077 194.827C511.72 194.166 512.588 193.836 513.682 193.836C514.725 193.836 515.539 194.157 516.122 194.8C516.71 195.442 517.004 196.333 517.004 197.473C517.004 198.589 516.687 199.485 516.054 200.159C515.425 200.829 514.579 201.164 513.518 201.164ZM513.6 194.779C512.88 194.779 512.31 195.025 511.891 195.518C511.471 196.005 511.262 196.68 511.262 197.541C511.262 198.37 511.474 199.024 511.897 199.503C512.321 199.981 512.889 200.221 513.6 200.221C514.324 200.221 514.88 199.986 515.268 199.517C515.66 199.047 515.855 198.38 515.855 197.514C515.855 196.639 515.66 195.964 515.268 195.49C514.88 195.016 514.324 194.779 513.6 194.779ZM519.943 199.988H519.916V204.22H518.795V194H519.916V195.23H519.943C520.495 194.301 521.301 193.836 522.363 193.836C523.266 193.836 523.97 194.15 524.476 194.779C524.981 195.404 525.234 196.242 525.234 197.295C525.234 198.466 524.95 199.405 524.38 200.111C523.81 200.813 523.031 201.164 522.042 201.164C521.135 201.164 520.436 200.772 519.943 199.988ZM519.916 197.165V198.143C519.916 198.721 520.103 199.214 520.477 199.619C520.855 200.02 521.333 200.221 521.912 200.221C522.591 200.221 523.122 199.961 523.505 199.441C523.892 198.922 524.086 198.2 524.086 197.274C524.086 196.495 523.906 195.884 523.546 195.442C523.186 195 522.698 194.779 522.083 194.779C521.431 194.779 520.907 195.007 520.511 195.463C520.114 195.914 519.916 196.481 519.916 197.165ZM526.602 200.747V199.544C527.212 199.995 527.884 200.221 528.618 200.221C529.603 200.221 530.095 199.893 530.095 199.236C530.095 199.049 530.051 198.892 529.965 198.765C529.883 198.632 529.769 198.516 529.623 198.416C529.482 198.316 529.313 198.227 529.117 198.149C528.926 198.067 528.718 197.983 528.495 197.896C528.185 197.773 527.912 197.65 527.675 197.527C527.442 197.4 527.246 197.258 527.087 197.104C526.932 196.944 526.813 196.764 526.731 196.563C526.654 196.363 526.615 196.128 526.615 195.859C526.615 195.531 526.69 195.242 526.841 194.991C526.991 194.736 527.192 194.524 527.442 194.355C527.693 194.182 527.978 194.052 528.297 193.966C528.62 193.879 528.953 193.836 529.295 193.836C529.901 193.836 530.443 193.941 530.922 194.15V195.285C530.407 194.948 529.814 194.779 529.145 194.779C528.935 194.779 528.746 194.804 528.577 194.854C528.409 194.9 528.263 194.966 528.14 195.053C528.021 195.139 527.928 195.244 527.859 195.367C527.796 195.486 527.764 195.618 527.764 195.764C527.764 195.946 527.796 196.099 527.859 196.222C527.928 196.345 528.026 196.454 528.153 196.55C528.281 196.646 528.436 196.732 528.618 196.81C528.8 196.887 529.008 196.971 529.24 197.062C529.55 197.181 529.828 197.304 530.074 197.432C530.32 197.555 530.53 197.696 530.703 197.855C530.876 198.01 531.008 198.19 531.1 198.396C531.195 198.601 531.243 198.844 531.243 199.127C531.243 199.473 531.166 199.774 531.011 200.029C530.86 200.285 530.658 200.496 530.402 200.665C530.147 200.834 529.853 200.959 529.521 201.041C529.188 201.123 528.839 201.164 528.475 201.164C527.755 201.164 527.13 201.025 526.602 200.747Z" fill="url(#paint6_linear_34_13297)"/>
<path d="M377 142.5C377 140.567 378.567 139 380.5 139H399.5C401.433 139 403 140.567 403 142.5V161.5C403 163.433 401.433 165 399.5 165H380.5C378.567 165 377 163.433 377 161.5V142.5Z" fill="url(#paint7_linear_34_13297)"/>
<path d="M377 142.5C377 140.567 378.567 139 380.5 139H399.5C401.433 139 403 140.567 403 142.5V161.5C403 163.433 401.433 165 399.5 165H380.5C378.567 165 377 163.433 377 161.5V142.5Z" fill="url(#paint8_radial_34_13297)" fill-opacity="0.2"/>
<path fill-rule="evenodd" clip-rule="evenodd" d="M399.5 140H380.5C379.119 140 378 141.119 378 142.5V161.5C378 162.881 379.119 164 380.5 164H399.5C400.881 164 402 162.881 402 161.5V142.5C402 141.119 400.881 140 399.5 140ZM380.5 139C378.567 139 377 140.567 377 142.5V161.5C377 163.433 378.567 165 380.5 165H399.5C401.433 165 403 163.433 403 161.5V142.5C403 140.567 401.433 139 399.5 139H380.5Z" fill="url(#paint9_linear_34_13297)"/>
<path d="M382.025 151.256L383.025 148.439C383.061 148.322 383.134 148.224 383.206 148.146L383.734 147.579L383.461 147.266C383.315 147.109 383.315 146.835 383.461 146.679L384.024 146.072C384.17 145.916 384.424 145.916 384.57 146.072L384.86 146.366L386.478 144.625C386.623 144.468 386.878 144.468 387.023 144.625L388.786 146.542C388.932 146.698 388.932 146.972 388.786 147.129L387.223 148.83L396.274 158.142C396.42 158.298 396.42 158.572 396.274 158.729L395.202 159.883C395.057 160.039 394.802 160.039 394.657 159.883L386.005 150.141L385.551 150.63C385.46 150.728 385.351 150.787 385.242 150.826L382.516 151.784C382.37 151.823 382.225 151.784 382.116 151.667C382.007 151.569 381.971 151.393 382.025 151.256Z" fill="url(#paint10_linear_34_13297)"/>
<path d="M392.93 148.165L390.567 146.483C390.477 146.405 390.422 146.307 390.404 146.19C390.404 146.072 390.44 145.955 390.513 145.857L392.149 144.116C392.276 143.979 392.494 143.96 392.639 144.077L395.42 146.072C395.438 146.072 395.457 146.092 395.457 146.111L395.475 146.131L396.002 146.698L396.038 146.737L396.056 146.757V146.777L397.928 149.711C398.037 149.867 398.019 150.102 397.892 150.239L396.256 151.98C396.184 152.058 396.056 152.117 395.947 152.097C395.838 152.078 395.729 152.019 395.656 151.921L394.13 149.456L391.658 152.234L390.313 150.845L392.93 148.165Z" fill="url(#paint11_linear_34_13297)"/>
<path d="M384.86 159.883C384.715 160.039 384.46 160.039 384.315 159.883L383.224 158.709C383.079 158.552 383.079 158.279 383.224 158.122L387.823 153.408L389.222 154.973L384.86 159.883Z" fill="url(#paint12_linear_34_13297)"/>
<path d="M377 186.5C377 184.567 378.567 183 380.5 183H399.5C401.433 183 403 184.567 403 186.5V205.5C403 207.433 401.433 209 399.5 209H380.5C378.567 209 377 207.433 377 205.5V186.5Z" fill="url(#paint13_linear_34_13297)"/>
<path d="M377 186.5C377 184.567 378.567 183 380.5 183H399.5C401.433 183 403 184.567 403 186.5V205.5C403 207.433 401.433 209 399.5 209H380.5C378.567 209 377 207.433 377 205.5V186.5Z" fill="url(#paint14_radial_34_13297)" fill-opacity="0.2"/>
<path fill-rule="evenodd" clip-rule="evenodd" d="M399.5 184H380.5C379.119 184 378 185.119 378 186.5V205.5C378 206.881 379.119 208 380.5 208H399.5C400.881 208 402 206.881 402 205.5V186.5C402 185.119 400.881 184 399.5 184ZM380.5 183C378.567 183 377 184.567 377 186.5V205.5C377 207.433 378.567 209 380.5 209H399.5C401.433 209 403 207.433 403 205.5V186.5C403 184.567 401.433 183 399.5 183H380.5Z" fill="url(#paint15_linear_34_13297)"/>
<path d="M391.792 191.458C391.792 192.271 391.146 192.917 390.333 192.917C389.521 192.917 388.875 192.271 388.875 191.458C388.875 190.646 389.521 190 390.333 190C391.146 190 391.792 190.667 391.792 191.458Z" fill="url(#paint16_linear_34_13297)"/>
<path d="M397.625 192.292C397.625 193.104 396.979 193.75 396.167 193.75C395.354 193.75 394.708 193.104 394.708 192.292C394.708 191.479 395.354 190.833 396.167 190.833C396.979 190.833 397.625 191.479 397.625 192.292Z" fill="url(#paint17_linear_34_13297)"/>
<path d="M385.958 192.292C385.958 193.104 385.312 193.75 384.5 193.75C383.687 193.75 383.042 193.104 383.042 192.292C383.042 191.479 383.687 190.833 384.5 190.833C385.312 190.833 385.958 191.479 385.958 192.292Z" fill="url(#paint18_linear_34_13297)"/>
<path d="M382.125 201.708C382.125 198.667 385.792 196.208 390.333 196.208C394.854 196.208 398.542 198.667 398.542 201.708H382.125Z" fill="url(#paint19_linear_34_13297)"/>
<path d="M384 196.979C384.875 196.396 385.896 195.937 387 195.646V195.417C387 195.187 386.896 194.958 386.75 194.812C386.687 194.75 386.542 194.667 386.354 194.583C385.208 194.042 383.854 194.042 382.687 194.562C382.479 194.646 382.312 194.75 382.229 194.812C382.104 194.958 382 195.187 382 195.417V198.958C382.479 198.229 383.146 197.542 384 196.979Z" fill="url(#paint20_linear_34_13297)"/>
<path d="M392.833 195.438V194.583C392.833 194.354 392.729 194.125 392.583 193.979C392.521 193.917 392.375 193.833 392.188 193.75C391.042 193.208 389.687 193.208 388.521 193.729C388.312 193.813 388.146 193.917 388.062 193.979C387.896 194.125 387.812 194.354 387.812 194.583V195.438C388.625 195.271 389.458 195.188 390.312 195.188C391.167 195.188 392.021 195.292 392.833 195.438Z" fill="url(#paint21_linear_34_13297)"/>
<path d="M398.667 198.958V195.417C398.667 195.187 398.563 194.958 398.417 194.812C398.354 194.75 398.208 194.667 398.021 194.583C396.875 194.042 395.521 194.042 394.354 194.562C394.146 194.646 393.979 194.75 393.896 194.812C393.729 194.958 393.646 195.187 393.646 195.417V195.646C394.75 195.937 395.771 196.396 396.646 196.979C397.521 197.542 398.188 198.229 398.667 198.958Z" fill="url(#paint22_linear_34_13297)"/>
<path d="M377 229.5C377 227.567 378.567 226 380.5 226H399.5C401.433 226 403 227.567 403 229.5V248.5C403 250.433 401.433 252 399.5 252H380.5C378.567 252 377 250.433 377 248.5V229.5Z" fill="url(#paint23_linear_34_13297)"/>
<path d="M377 229.5C377 227.567 378.567 226 380.5 226H399.5C401.433 226 403 227.567 403 229.5V248.5C403 250.433 401.433 252 399.5 252H380.5C378.567 252 377 250.433 377 248.5V229.5Z" fill="url(#paint24_radial_34_13297)" fill-opacity="0.2"/>
<path fill-rule="evenodd" clip-rule="evenodd" d="M399.5 227H380.5C379.119 227 378 228.119 378 229.5V248.5C378 249.881 379.119 251 380.5 251H399.5C400.881 251 402 249.881 402 248.5V229.5C402 228.119 400.881 227 399.5 227ZM380.5 226C378.567 226 377 227.567 377 229.5V248.5C377 250.433 378.567 252 380.5 252H399.5C401.433 252 403 250.433 403 248.5V229.5C403 227.567 401.433 226 399.5 226H380.5Z" fill="url(#paint25_linear_34_13297)"/>
<path d="M395.209 245.083H384.792V232.167H387.084V233.417H392.917V232.167H395.209V245.083ZM390 230.5C390.346 230.5 390.625 230.78 390.625 231.125C390.625 231.47 390.346 231.75 390 231.75C389.655 231.75 389.375 231.47 389.375 231.125C389.37 230.785 389.64 230.506 389.98 230.5C389.987 230.5 389.993 230.5 390 230.5ZM395.625 230.917H392.084V230.5C392.084 230.04 391.711 229.667 391.25 229.667H388.75C388.29 229.667 387.917 230.04 387.917 230.5V230.917H384.375C383.915 230.917 383.542 231.29 383.542 231.75V245.5C383.542 245.96 383.915 246.333 384.375 246.333H395.625C396.086 246.333 396.459 245.96 396.459 245.5V231.75C396.459 231.29 396.086 230.917 395.625 230.917Z" fill="url(#paint26_linear_34_13297)"/>
<path d="M388.555 239.888L388.112 239.446L387.5 240.058L386.888 239.446L386.446 239.888L387.058 240.5L386.446 241.112L386.888 241.554L387.5 240.942L388.112 241.554L388.555 241.112L387.942 240.5L388.555 239.888Z" fill="url(#paint27_linear_34_13297)"/>
<path d="M388.112 241.946L387.5 242.558L386.888 241.946L386.446 242.388L387.058 243L386.446 243.612L386.888 244.054L387.5 243.442L388.112 244.054L388.555 243.612L387.942 243L388.555 242.388L388.112 241.946Z" fill="url(#paint28_linear_34_13297)"/>
<path d="M390.417 240.083H393.959V240.917H390.417V240.083Z" fill="url(#paint29_linear_34_13297)"/>
<path d="M390.417 242.583H393.959V243.417H390.417V242.583Z" fill="url(#paint30_linear_34_13297)"/>
<path d="M390.417 235.083H393.959V235.917H390.417V235.083Z" fill="url(#paint31_linear_34_13297)"/>
<path d="M390.417 237.583H393.959V238.417H390.417V237.583Z" fill="url(#paint32_linear_34_13297)"/>
<path d="M386.189 235.458L386.625 235.022L387.167 235.564L388.542 234.189L388.978 234.625L387.167 236.436L386.189 235.458Z" fill="url(#paint33_linear_34_13297)"/>
<path d="M386.189 237.958L386.625 237.522L387.167 238.064L388.542 236.689L388.978 237.125L387.167 238.936L386.189 237.958Z" fill="url(#paint34_linear_34_13297)"/>
<path d="M368.75 241.998C368.751 242.412 368.416 242.749 368.002 242.75L361.252 242.766C360.838 242.767 360.501 242.432 360.5 242.017C360.499 241.603 360.834 241.267 361.248 241.266L367.248 241.252L367.234 235.252C367.233 234.838 367.568 234.501 367.983 234.5C368.397 234.499 368.733 234.834 368.734 235.248L368.75 241.998ZM367.451 198.489C367.733 198.186 368.208 198.169 368.511 198.451C368.814 198.733 368.831 199.208 368.549 199.511L367.451 198.489ZM367.471 242.532C355.166 230.283 355.194 211.665 367.451 198.489L368.549 199.511C356.806 212.135 356.834 229.828 368.529 241.468L367.471 242.532Z" fill="#8198AE"/>
<path d="M368.75 194C368.75 194.414 368.414 194.75 368 194.75H361.25C360.836 194.75 360.5 194.414 360.5 194C360.5 193.586 360.836 193.25 361.25 193.25H367.25V187.25C367.25 186.836 367.586 186.5 368 186.5C368.414 186.5 368.75 186.836 368.75 187.25V194ZM367.459 148.48C367.746 148.182 368.221 148.172 368.52 148.459C368.818 148.746 368.828 149.221 368.541 149.52L367.459 148.48ZM367.47 194.53C354.671 181.732 354.686 161.765 367.459 148.48L368.541 149.52C356.314 162.235 356.329 181.268 368.53 193.47L367.47 194.53Z" fill="#8198AE"/>
<path d="M415.285 284V274.197H417.992C421.447 274.197 423.174 275.79 423.174 278.976C423.174 280.489 422.693 281.705 421.731 282.626C420.774 283.542 419.492 284 417.883 284H415.285ZM416.434 275.236V282.961H417.896C419.182 282.961 420.182 282.617 420.897 281.929C421.613 281.241 421.971 280.265 421.971 279.003C421.971 276.492 420.635 275.236 417.965 275.236H416.434ZM430.577 280.78H425.635C425.653 281.56 425.863 282.161 426.264 282.585C426.665 283.009 427.216 283.221 427.918 283.221C428.706 283.221 429.431 282.961 430.092 282.441V283.494C429.477 283.941 428.663 284.164 427.651 284.164C426.662 284.164 425.885 283.847 425.32 283.214C424.755 282.576 424.473 281.68 424.473 280.527C424.473 279.438 424.78 278.552 425.396 277.868C426.015 277.18 426.783 276.836 427.699 276.836C428.615 276.836 429.324 277.132 429.825 277.725C430.326 278.317 430.577 279.14 430.577 280.192V280.78ZM429.429 279.83C429.424 279.183 429.267 278.679 428.957 278.319C428.652 277.959 428.226 277.779 427.679 277.779C427.15 277.779 426.701 277.968 426.332 278.347C425.963 278.725 425.735 279.219 425.648 279.83H429.429ZM437.051 283.679C436.513 284.002 435.875 284.164 435.137 284.164C434.139 284.164 433.332 283.84 432.717 283.193C432.106 282.542 431.801 281.699 431.801 280.664C431.801 279.511 432.131 278.586 432.792 277.889C433.453 277.187 434.335 276.836 435.438 276.836C436.053 276.836 436.595 276.95 437.064 277.178V278.326C436.545 277.962 435.989 277.779 435.396 277.779C434.681 277.779 434.093 278.037 433.633 278.552C433.177 279.062 432.949 279.734 432.949 280.568C432.949 281.389 433.163 282.036 433.592 282.51C434.025 282.984 434.604 283.221 435.328 283.221C435.939 283.221 436.513 283.018 437.051 282.612V283.679ZM439.32 275.223C439.12 275.223 438.949 275.154 438.808 275.018C438.666 274.881 438.596 274.708 438.596 274.498C438.596 274.288 438.666 274.115 438.808 273.979C438.949 273.837 439.12 273.767 439.32 273.767C439.525 273.767 439.699 273.837 439.84 273.979C439.986 274.115 440.059 274.288 440.059 274.498C440.059 274.699 439.986 274.869 439.84 275.011C439.699 275.152 439.525 275.223 439.32 275.223ZM439.867 284H438.746V277H439.867V284ZM448.111 284H446.99V282.811H446.963C446.443 283.713 445.641 284.164 444.557 284.164C443.677 284.164 442.973 283.852 442.444 283.228C441.92 282.599 441.658 281.744 441.658 280.664C441.658 279.507 441.95 278.579 442.533 277.882C443.117 277.185 443.894 276.836 444.864 276.836C445.826 276.836 446.525 277.214 446.963 277.971H446.99V273.637H448.111V284ZM446.99 280.835V279.803C446.99 279.238 446.803 278.759 446.43 278.367C446.056 277.975 445.582 277.779 445.008 277.779C444.324 277.779 443.786 278.03 443.395 278.531C443.003 279.033 442.807 279.725 442.807 280.609C442.807 281.416 442.993 282.054 443.367 282.523C443.745 282.988 444.251 283.221 444.885 283.221C445.509 283.221 446.015 282.995 446.402 282.544C446.794 282.093 446.99 281.523 446.99 280.835ZM456.007 280.78H451.064C451.083 281.56 451.292 282.161 451.693 282.585C452.094 283.009 452.646 283.221 453.348 283.221C454.136 283.221 454.861 282.961 455.521 282.441V283.494C454.906 283.941 454.093 284.164 453.081 284.164C452.092 284.164 451.315 283.847 450.75 283.214C450.185 282.576 449.902 281.68 449.902 280.527C449.902 279.438 450.21 278.552 450.825 277.868C451.445 277.18 452.213 276.836 453.129 276.836C454.045 276.836 454.754 277.132 455.255 277.725C455.756 278.317 456.007 279.14 456.007 280.192V280.78ZM454.858 279.83C454.854 279.183 454.697 278.679 454.387 278.319C454.081 277.959 453.655 277.779 453.108 277.779C452.58 277.779 452.131 277.968 451.762 278.347C451.393 278.725 451.165 279.219 451.078 279.83H454.858ZM464.798 283.932C464.534 284.077 464.185 284.15 463.752 284.15C462.526 284.15 461.913 283.467 461.913 282.1V277.957H460.71V277H461.913V275.291L463.034 274.929V277H464.798V277.957H463.034V281.901C463.034 282.371 463.114 282.706 463.273 282.906C463.433 283.107 463.697 283.207 464.066 283.207C464.349 283.207 464.593 283.13 464.798 282.975V283.932ZM472.105 284H470.984V279.967C470.984 278.508 470.442 277.779 469.357 277.779C468.811 277.779 468.35 277.991 467.977 278.415C467.603 278.834 467.416 279.374 467.416 280.035V284H466.295V273.637H467.416V278.162H467.443C467.981 277.278 468.747 276.836 469.74 276.836C471.317 276.836 472.105 277.786 472.105 279.687V284ZM479.851 280.78H474.908C474.926 281.56 475.136 282.161 475.537 282.585C475.938 283.009 476.49 283.221 477.191 283.221C477.98 283.221 478.704 282.961 479.365 282.441V283.494C478.75 283.941 477.937 284.164 476.925 284.164C475.936 284.164 475.159 283.847 474.594 283.214C474.029 282.576 473.746 281.68 473.746 280.527C473.746 279.438 474.054 278.552 474.669 277.868C475.289 277.18 476.057 276.836 476.973 276.836C477.889 276.836 478.597 277.132 479.099 277.725C479.6 278.317 479.851 279.14 479.851 280.192V280.78ZM478.702 279.83C478.698 279.183 478.54 278.679 478.23 278.319C477.925 277.959 477.499 277.779 476.952 277.779C476.424 277.779 475.975 277.968 475.605 278.347C475.236 278.725 475.008 279.219 474.922 279.83H478.702ZM485.545 284V274.197H488.334C489.182 274.197 489.854 274.405 490.351 274.819C490.847 275.234 491.096 275.774 491.096 276.439C491.096 276.995 490.945 277.479 490.645 277.889C490.344 278.299 489.929 278.59 489.4 278.764V278.791C490.061 278.868 490.59 279.119 490.986 279.543C491.383 279.962 491.581 280.509 491.581 281.184C491.581 282.022 491.28 282.701 490.679 283.221C490.077 283.74 489.318 284 488.402 284H485.545ZM486.693 275.236V278.401H487.869C488.498 278.401 488.993 278.251 489.353 277.95C489.713 277.645 489.893 277.216 489.893 276.665C489.893 275.713 489.266 275.236 488.013 275.236H486.693ZM486.693 279.434V282.961H488.252C488.926 282.961 489.448 282.801 489.817 282.482C490.191 282.163 490.378 281.726 490.378 281.17C490.378 280.012 489.59 279.434 488.013 279.434H486.693ZM494.719 284H493.57V274.197H494.719V284ZM506.969 283.439C506.969 286.01 505.738 287.295 503.277 287.295C502.411 287.295 501.655 287.131 501.008 286.803V285.682C501.796 286.119 502.548 286.338 503.264 286.338C504.986 286.338 505.848 285.422 505.848 283.59V282.824H505.82C505.287 283.717 504.485 284.164 503.414 284.164C502.544 284.164 501.842 283.854 501.309 283.234C500.78 282.61 500.516 281.774 500.516 280.726C500.516 279.536 500.8 278.59 501.37 277.889C501.944 277.187 502.728 276.836 503.722 276.836C504.665 276.836 505.365 277.214 505.82 277.971H505.848V277H506.969V283.439ZM505.848 280.835V279.803C505.848 279.247 505.659 278.771 505.28 278.374C504.907 277.978 504.439 277.779 503.879 277.779C503.186 277.779 502.644 278.032 502.252 278.538C501.86 279.039 501.664 279.743 501.664 280.65C501.664 281.43 501.851 282.054 502.225 282.523C502.603 282.988 503.102 283.221 503.722 283.221C504.351 283.221 504.861 282.997 505.253 282.551C505.649 282.104 505.848 281.532 505.848 280.835ZM512.164 284.164C511.13 284.164 510.302 283.838 509.683 283.187C509.067 282.53 508.76 281.662 508.76 280.582C508.76 279.406 509.081 278.488 509.724 277.827C510.366 277.166 511.234 276.836 512.328 276.836C513.372 276.836 514.185 277.157 514.769 277.8C515.356 278.442 515.65 279.333 515.65 280.473C515.65 281.589 515.334 282.485 514.7 283.159C514.071 283.829 513.226 284.164 512.164 284.164ZM512.246 277.779C511.526 277.779 510.956 278.025 510.537 278.518C510.118 279.005 509.908 279.68 509.908 280.541C509.908 281.37 510.12 282.024 510.544 282.503C510.968 282.981 511.535 283.221 512.246 283.221C512.971 283.221 513.527 282.986 513.914 282.517C514.306 282.047 514.502 281.38 514.502 280.514C514.502 279.639 514.306 278.964 513.914 278.49C513.527 278.016 512.971 277.779 512.246 277.779ZM522.452 284H521.331V282.906H521.304C520.816 283.745 520.098 284.164 519.15 284.164C518.453 284.164 517.906 283.979 517.51 283.61C517.118 283.241 516.922 282.751 516.922 282.141C516.922 280.833 517.692 280.072 519.232 279.857L521.331 279.563C521.331 278.374 520.85 277.779 519.889 277.779C519.046 277.779 518.285 278.066 517.605 278.641V277.492C518.294 277.055 519.087 276.836 519.984 276.836C521.63 276.836 522.452 277.706 522.452 279.447V284ZM521.331 280.459L519.643 280.691C519.123 280.764 518.731 280.894 518.467 281.081C518.202 281.263 518.07 281.589 518.07 282.059C518.07 282.4 518.191 282.681 518.433 282.899C518.679 283.114 519.005 283.221 519.41 283.221C519.966 283.221 520.424 283.027 520.784 282.64C521.149 282.248 521.331 281.753 521.331 281.156V280.459ZM525.686 284H524.564V273.637H525.686V284ZM527.531 283.747V282.544C528.142 282.995 528.814 283.221 529.548 283.221C530.532 283.221 531.024 282.893 531.024 282.236C531.024 282.049 530.981 281.892 530.895 281.765C530.812 281.632 530.699 281.516 530.553 281.416C530.411 281.316 530.243 281.227 530.047 281.149C529.855 281.067 529.648 280.983 529.425 280.896C529.115 280.773 528.841 280.65 528.604 280.527C528.372 280.4 528.176 280.258 528.017 280.104C527.862 279.944 527.743 279.764 527.661 279.563C527.584 279.363 527.545 279.128 527.545 278.859C527.545 278.531 527.62 278.242 527.771 277.991C527.921 277.736 528.121 277.524 528.372 277.355C528.623 277.182 528.908 277.052 529.227 276.966C529.55 276.879 529.883 276.836 530.225 276.836C530.831 276.836 531.373 276.941 531.852 277.15V278.285C531.337 277.948 530.744 277.779 530.074 277.779C529.865 277.779 529.675 277.804 529.507 277.854C529.338 277.9 529.192 277.966 529.069 278.053C528.951 278.139 528.857 278.244 528.789 278.367C528.725 278.486 528.693 278.618 528.693 278.764C528.693 278.946 528.725 279.099 528.789 279.222C528.857 279.345 528.955 279.454 529.083 279.55C529.211 279.646 529.366 279.732 529.548 279.81C529.73 279.887 529.938 279.971 530.17 280.062C530.48 280.181 530.758 280.304 531.004 280.432C531.25 280.555 531.46 280.696 531.633 280.855C531.806 281.01 531.938 281.19 532.029 281.396C532.125 281.601 532.173 281.844 532.173 282.127C532.173 282.473 532.095 282.774 531.94 283.029C531.79 283.285 531.587 283.496 531.332 283.665C531.077 283.834 530.783 283.959 530.45 284.041C530.118 284.123 529.769 284.164 529.404 284.164C528.684 284.164 528.06 284.025 527.531 283.747ZM420.146 303H419.024V301.906H418.997C418.509 302.745 417.792 303.164 416.844 303.164C416.146 303.164 415.6 302.979 415.203 302.61C414.811 302.241 414.615 301.751 414.615 301.141C414.615 299.833 415.385 299.072 416.926 298.857L419.024 298.563C419.024 297.374 418.544 296.779 417.582 296.779C416.739 296.779 415.978 297.066 415.299 297.641V296.492C415.987 296.055 416.78 295.836 417.678 295.836C419.323 295.836 420.146 296.706 420.146 298.447V303ZM419.024 299.459L417.336 299.691C416.816 299.764 416.424 299.894 416.16 300.081C415.896 300.263 415.764 300.589 415.764 301.059C415.764 301.4 415.884 301.681 416.126 301.899C416.372 302.114 416.698 302.221 417.104 302.221C417.66 302.221 418.118 302.027 418.478 301.64C418.842 301.248 419.024 300.753 419.024 300.156V299.459ZM428.068 303H426.947V299.008C426.947 297.522 426.405 296.779 425.32 296.779C424.76 296.779 424.295 296.991 423.926 297.415C423.561 297.834 423.379 298.365 423.379 299.008V303H422.258V296H423.379V297.162H423.406C423.935 296.278 424.701 295.836 425.703 295.836C426.469 295.836 427.054 296.084 427.46 296.581C427.866 297.073 428.068 297.786 428.068 298.721V303ZM436.162 303H435.041V301.811H435.014C434.494 302.713 433.692 303.164 432.607 303.164C431.728 303.164 431.024 302.852 430.495 302.228C429.971 301.599 429.709 300.744 429.709 299.664C429.709 298.507 430.001 297.579 430.584 296.882C431.167 296.185 431.944 295.836 432.915 295.836C433.877 295.836 434.576 296.214 435.014 296.971H435.041V292.637H436.162V303ZM435.041 299.835V298.803C435.041 298.238 434.854 297.759 434.48 297.367C434.107 296.975 433.633 296.779 433.059 296.779C432.375 296.779 431.837 297.03 431.445 297.531C431.053 298.033 430.857 298.725 430.857 299.609C430.857 300.416 431.044 301.054 431.418 301.523C431.796 301.988 432.302 302.221 432.936 302.221C433.56 302.221 434.066 301.995 434.453 301.544C434.845 301.093 435.041 300.523 435.041 299.835ZM443.422 301.988H443.395V306.22H442.273V296H443.395V297.23H443.422C443.973 296.301 444.78 295.836 445.842 295.836C446.744 295.836 447.448 296.15 447.954 296.779C448.46 297.404 448.713 298.242 448.713 299.295C448.713 300.466 448.428 301.405 447.858 302.111C447.289 302.813 446.509 303.164 445.521 303.164C444.614 303.164 443.914 302.772 443.422 301.988ZM443.395 299.165V300.143C443.395 300.721 443.581 301.214 443.955 301.619C444.333 302.02 444.812 302.221 445.391 302.221C446.07 302.221 446.601 301.961 446.983 301.441C447.371 300.922 447.564 300.2 447.564 299.274C447.564 298.495 447.384 297.884 447.024 297.442C446.664 297 446.177 296.779 445.562 296.779C444.91 296.779 444.386 297.007 443.989 297.463C443.593 297.914 443.395 298.481 443.395 299.165ZM454.154 297.135C453.958 296.984 453.676 296.909 453.307 296.909C452.828 296.909 452.427 297.135 452.104 297.586C451.785 298.037 451.625 298.652 451.625 299.432V303H450.504V296H451.625V297.442H451.652C451.812 296.95 452.056 296.567 452.384 296.294C452.712 296.016 453.079 295.877 453.484 295.877C453.776 295.877 453.999 295.909 454.154 295.973V297.135ZM455.945 294.223C455.745 294.223 455.574 294.154 455.433 294.018C455.291 293.881 455.221 293.708 455.221 293.498C455.221 293.288 455.291 293.115 455.433 292.979C455.574 292.837 455.745 292.767 455.945 292.767C456.15 292.767 456.324 292.837 456.465 292.979C456.611 293.115 456.684 293.288 456.684 293.498C456.684 293.699 456.611 293.869 456.465 294.011C456.324 294.152 456.15 294.223 455.945 294.223ZM456.492 303H455.371V296H456.492V303ZM461.688 303.164C460.653 303.164 459.826 302.838 459.206 302.187C458.591 301.53 458.283 300.662 458.283 299.582C458.283 298.406 458.604 297.488 459.247 296.827C459.89 296.166 460.758 295.836 461.852 295.836C462.895 295.836 463.709 296.157 464.292 296.8C464.88 297.442 465.174 298.333 465.174 299.473C465.174 300.589 464.857 301.485 464.224 302.159C463.595 302.829 462.749 303.164 461.688 303.164ZM461.77 296.779C461.049 296.779 460.48 297.025 460.061 297.518C459.641 298.005 459.432 298.68 459.432 299.541C459.432 300.37 459.644 301.024 460.067 301.503C460.491 301.981 461.059 302.221 461.77 302.221C462.494 302.221 463.05 301.986 463.438 301.517C463.829 301.047 464.025 300.38 464.025 299.514C464.025 298.639 463.829 297.964 463.438 297.49C463.05 297.016 462.494 296.779 461.77 296.779ZM470.615 297.135C470.419 296.984 470.137 296.909 469.768 296.909C469.289 296.909 468.888 297.135 468.564 297.586C468.245 298.037 468.086 298.652 468.086 299.432V303H466.965V296H468.086V297.442H468.113C468.273 296.95 468.517 296.567 468.845 296.294C469.173 296.016 469.54 295.877 469.945 295.877C470.237 295.877 470.46 295.909 470.615 295.973V297.135ZM472.406 294.223C472.206 294.223 472.035 294.154 471.894 294.018C471.752 293.881 471.682 293.708 471.682 293.498C471.682 293.288 471.752 293.115 471.894 292.979C472.035 292.837 472.206 292.767 472.406 292.767C472.611 292.767 472.785 292.837 472.926 292.979C473.072 293.115 473.145 293.288 473.145 293.498C473.145 293.699 473.072 293.869 472.926 294.011C472.785 294.152 472.611 294.223 472.406 294.223ZM472.953 303H471.832V296H472.953V303ZM478.47 302.932C478.205 303.077 477.857 303.15 477.424 303.15C476.198 303.15 475.585 302.467 475.585 301.1V296.957H474.382V296H475.585V294.291L476.706 293.929V296H478.47V296.957H476.706V300.901C476.706 301.371 476.786 301.706 476.945 301.906C477.105 302.107 477.369 302.207 477.738 302.207C478.021 302.207 478.265 302.13 478.47 301.975V302.932ZM480.541 294.223C480.34 294.223 480.17 294.154 480.028 294.018C479.887 293.881 479.816 293.708 479.816 293.498C479.816 293.288 479.887 293.115 480.028 292.979C480.17 292.837 480.34 292.767 480.541 292.767C480.746 292.767 480.919 292.837 481.061 292.979C481.206 293.115 481.279 293.288 481.279 293.498C481.279 293.699 481.206 293.869 481.061 294.011C480.919 294.152 480.746 294.223 480.541 294.223ZM481.088 303H479.967V296H481.088V303ZM488.983 299.78H484.041C484.059 300.56 484.269 301.161 484.67 301.585C485.071 302.009 485.622 302.221 486.324 302.221C487.113 302.221 487.837 301.961 488.498 301.441V302.494C487.883 302.941 487.069 303.164 486.058 303.164C485.069 303.164 484.292 302.847 483.727 302.214C483.161 301.576 482.879 300.68 482.879 299.527C482.879 298.438 483.187 297.552 483.802 296.868C484.422 296.18 485.189 295.836 486.105 295.836C487.021 295.836 487.73 296.132 488.231 296.725C488.733 297.317 488.983 298.14 488.983 299.192V299.78ZM487.835 298.83C487.83 298.183 487.673 297.679 487.363 297.319C487.058 296.959 486.632 296.779 486.085 296.779C485.556 296.779 485.107 296.968 484.738 297.347C484.369 297.725 484.141 298.219 484.055 298.83H487.835ZM490.262 302.747V301.544C490.872 301.995 491.545 302.221 492.278 302.221C493.263 302.221 493.755 301.893 493.755 301.236C493.755 301.049 493.712 300.892 493.625 300.765C493.543 300.632 493.429 300.516 493.283 300.416C493.142 300.316 492.973 300.227 492.777 300.149C492.586 300.067 492.379 299.983 492.155 299.896C491.845 299.773 491.572 299.65 491.335 299.527C491.103 299.4 490.907 299.258 490.747 299.104C490.592 298.944 490.474 298.764 490.392 298.563C490.314 298.363 490.275 298.128 490.275 297.859C490.275 297.531 490.351 297.242 490.501 296.991C490.651 296.736 490.852 296.524 491.103 296.355C491.353 296.182 491.638 296.052 491.957 295.966C492.281 295.879 492.613 295.836 492.955 295.836C493.561 295.836 494.104 295.941 494.582 296.15V297.285C494.067 296.948 493.475 296.779 492.805 296.779C492.595 296.779 492.406 296.804 492.237 296.854C492.069 296.9 491.923 296.966 491.8 297.053C491.681 297.139 491.588 297.244 491.52 297.367C491.456 297.486 491.424 297.618 491.424 297.764C491.424 297.946 491.456 298.099 491.52 298.222C491.588 298.345 491.686 298.454 491.813 298.55C491.941 298.646 492.096 298.732 492.278 298.81C492.461 298.887 492.668 298.971 492.9 299.062C493.21 299.181 493.488 299.304 493.734 299.432C493.98 299.555 494.19 299.696 494.363 299.855C494.536 300.01 494.669 300.19 494.76 300.396C494.855 300.601 494.903 300.844 494.903 301.127C494.903 301.473 494.826 301.774 494.671 302.029C494.521 302.285 494.318 302.496 494.062 302.665C493.807 302.834 493.513 302.959 493.181 303.041C492.848 303.123 492.499 303.164 492.135 303.164C491.415 303.164 490.79 303.025 490.262 302.747Z" fill="url(#paint35_linear_34_13297)"/>
<path d="M377 275.5C377 273.567 378.567 272 380.5 272H399.5C401.433 272 403 273.567 403 275.5V294.5C403 296.433 401.433 298 399.5 298H380.5C378.567 298 377 296.433 377 294.5V275.5Z" fill="url(#paint36_linear_34_13297)"/>
<path d="M377 275.5C377 273.567 378.567 272 380.5 272H399.5C401.433 272 403 273.567 403 275.5V294.5C403 296.433 401.433 298 399.5 298H380.5C378.567 298 377 296.433 377 294.5V275.5Z" fill="url(#paint37_radial_34_13297)" fill-opacity="0.2"/>
<path fill-rule="evenodd" clip-rule="evenodd" d="M399.5 273H380.5C379.119 273 378 274.119 378 275.5V294.5C378 295.881 379.119 297 380.5 297H399.5C400.881 297 402 295.881 402 294.5V275.5C402 274.119 400.881 273 399.5 273ZM380.5 272C378.567 272 377 273.567 377 275.5V294.5C377 296.433 378.567 298 380.5 298H399.5C401.433 298 403 296.433 403 294.5V275.5C403 273.567 401.433 272 399.5 272H380.5Z" fill="url(#paint38_linear_34_13297)"/>
<path d="M397.148 278.051L396.921 276L394.414 278.506L394.551 279.691L390.905 283.337C390.586 283.177 390.222 283.063 389.834 283.063C388.581 283.063 387.556 284.089 387.556 285.342C387.556 286.595 388.581 287.62 389.834 287.62C391.088 287.62 392.113 286.595 392.113 285.342C392.113 284.955 392.022 284.613 391.862 284.294L395.508 280.648L396.693 280.785L399.199 278.278L397.148 278.051Z" fill="url(#paint39_linear_34_13297)"/>
<path d="M397.33 281.423L397.035 281.742L396.601 281.696L396.123 281.628C396.761 282.722 397.148 283.974 397.148 285.342C397.148 289.352 393.867 292.633 389.857 292.633C385.847 292.633 382.566 289.352 382.566 285.342C382.566 281.332 385.847 278.051 389.857 278.051C391.201 278.051 392.477 278.415 393.571 279.076L393.525 278.62L393.457 278.164L393.776 277.846L393.935 277.686C392.705 277.048 391.338 276.683 389.857 276.683C385.072 276.683 381.199 280.557 381.199 285.342C381.199 290.127 385.072 294 389.857 294C394.642 294 398.515 290.127 398.515 285.342C398.515 283.861 398.151 282.494 397.49 281.286L397.33 281.423Z" fill="url(#paint40_linear_34_13297)"/>
<path d="M393.662 283.792C393.867 284.271 393.959 284.795 393.959 285.342C393.959 287.597 392.113 289.443 389.857 289.443C387.602 289.443 385.756 287.597 385.756 285.342C385.756 283.086 387.602 281.24 389.857 281.24C390.404 281.24 390.928 281.354 391.407 281.537L392.432 280.511C391.657 280.101 390.791 279.873 389.857 279.873C386.85 279.873 384.389 282.334 384.389 285.342C384.389 288.349 386.85 290.81 389.857 290.81C392.865 290.81 395.326 288.349 395.326 285.342C395.326 284.408 395.098 283.542 394.688 282.767L393.662 283.792Z" fill="url(#paint41_linear_34_13297)"/>
<path d="M368.748 283.952C368.775 284.365 368.461 284.722 368.048 284.748L361.312 285.18C360.898 285.206 360.542 284.893 360.515 284.479C360.489 284.066 360.803 283.709 361.216 283.683L367.204 283.299L366.82 277.312C366.794 276.898 367.107 276.542 367.521 276.515C367.934 276.489 368.291 276.803 368.317 277.216L368.748 283.952ZM367.483 245.456C367.784 245.171 368.258 245.183 368.544 245.483C368.829 245.784 368.817 246.258 368.517 246.544L367.483 245.456ZM367.505 284.563C361.358 279.156 358.25 272.307 358.25 265.317C358.25 258.33 361.354 251.279 367.483 245.456L368.517 246.544C362.646 252.121 359.75 258.792 359.75 265.317C359.75 271.838 362.642 278.288 368.495 283.437L367.505 284.563Z" fill="#8198AE"/>
<path d="M384.32 75.3255L389.501 66.5335L394.682 75.3255H384.32ZM400.644 85.4387H378.358L383.008 77.787H395.994L400.644 85.4387ZM400.674 85.4873C400.674 85.4873 400.674 85.4872 400.674 85.4869L400.674 85.4873ZM372.544 95.4933L377.168 87.8417H401.874L406.417 95.4046L372.544 95.4933Z" fill="white"/>
<path d="M384.32 75.3255L389.501 66.5335L394.682 75.3255H384.32ZM400.644 85.4387H378.358L383.008 77.787H395.994L400.644 85.4387ZM400.674 85.4873C400.674 85.4873 400.674 85.4872 400.674 85.4869L400.674 85.4873ZM372.544 95.4933L377.168 87.8417H401.874L406.417 95.4046L372.544 95.4933Z" fill="url(#paint42_linear_34_13297)" fill-opacity="0.33"/>
<path d="M384.32 75.3255L389.501 66.5335L394.682 75.3255H384.32ZM400.644 85.4387H378.358L383.008 77.787H395.994L400.644 85.4387ZM400.674 85.4873C400.674 85.4873 400.674 85.4872 400.674 85.4869L400.674 85.4873ZM372.544 95.4933L377.168 87.8417H401.874L406.417 95.4046L372.544 95.4933Z" stroke="url(#paint43_linear_34_13297)"/>
<path d="M389.1 66.2297C389.28 65.9234 389.722 65.9234 389.902 66.2297L395.142 75.1199C395.325 75.4316 395.101 75.8255 394.74 75.8255H384.262C383.901 75.8255 383.677 75.4316 383.861 75.1199L389.1 66.2297Z" fill="url(#paint44_linear_34_13297)"/>
<defs>
<filter id="filter0_f_34_13297" x="345" y="45" width="244" height="329" filterUnits="userSpaceOnUse" color-interpolation-filters="sRGB">
<feFlood flood-opacity="0" result="BackgroundImageFix"/>
<feBlend mode="normal" in="SourceGraphic" in2="BackgroundImageFix" result="shape"/>
<feGaussianBlur stdDeviation="2.5" result="effect1_foregroundBlur_34_13297"/>
</filter>
<radialGradient id="paint0_radial_34_13297" cx="0" cy="0" r="1" gradientUnits="userSpaceOnUse" gradientTransform="translate(132.812 45.8789) rotate(21.1819) scale(910.022 483.925)">
<stop offset="0.198869" stop-color="#8EE3E8"/>
<stop offset="1" stop-color="#19177E"/>
</radialGradient>
<linearGradient id="paint1_linear_34_13297" x1="382.933" y1="208.224" x2="484.175" y2="223.538" gradientUnits="userSpaceOnUse">
<stop stop-color="white"/>
<stop offset="1" stop-color="#FAFAFA"/>
</linearGradient>
<linearGradient id="paint2_linear_34_13297" x1="360" y1="173" x2="378.902" y2="260.937" gradientUnits="userSpaceOnUse">
<stop stop-color="#416587"/>
<stop offset="1" stop-color="#1A3052"/>
</linearGradient>
<linearGradient id="paint3_linear_34_13297" x1="414" y1="70" x2="419.387" y2="111.297" gradientUnits="userSpaceOnUse">
<stop stop-color="#416587"/>
<stop offset="1" stop-color="#1A3052"/>
</linearGradient>
<linearGradient id="paint4_linear_34_13297" x1="414" y1="135" x2="426.598" y2="196.416" gradientUnits="userSpaceOnUse">
<stop stop-color="#416587"/>
<stop offset="1" stop-color="#1A3052"/>
</linearGradient>
<linearGradient id="paint5_linear_34_13297" x1="414" y1="222" x2="426.598" y2="283.416" gradientUnits="userSpaceOnUse">
<stop stop-color="#416587"/>
<stop offset="1" stop-color="#1A3052"/>
</linearGradient>
<linearGradient id="paint6_linear_34_13297" x1="414" y1="179" x2="426.598" y2="240.416" gradientUnits="userSpaceOnUse">
<stop stop-color="#416587"/>
<stop offset="1" stop-color="#1A3052"/>
</linearGradient>
<linearGradient id="paint7_linear_34_13297" x1="384.222" y1="139" x2="387.511" y2="165.311" gradientUnits="userSpaceOnUse">
<stop stop-color="white"/>
<stop offset="1" stop-color="#EBEBEB"/>
</linearGradient>
<radialGradient id="paint8_radial_34_13297" cx="0" cy="0" r="1" gradientUnits="userSpaceOnUse" gradientTransform="translate(385.306 145.771) rotate(56.3099) scale(24.7381 21.408)">
<stop offset="0.177083" stop-color="white"/>
<stop offset="1" stop-color="#B8B8B8"/>
</radialGradient>
<linearGradient id="paint9_linear_34_13297" x1="385.396" y1="139" x2="388.897" y2="165.256" gradientUnits="userSpaceOnUse">
<stop stop-color="#BBBBBB"/>
<stop offset="1" stop-color="#888888"/>
</linearGradient>
<linearGradient id="paint10_linear_34_13297" x1="382" y1="144.507" x2="397.45" y2="158.851" gradientUnits="userSpaceOnUse">
<stop stop-color="#416587"/>
<stop offset="1" stop-color="#1A3052"/>
</linearGradient>
<linearGradient id="paint11_linear_34_13297" x1="390.313" y1="144" x2="398.528" y2="151.669" gradientUnits="userSpaceOnUse">
<stop stop-color="#416587"/>
<stop offset="1" stop-color="#1A3052"/>
</linearGradient>
<linearGradient id="paint12_linear_34_13297" x1="383.115" y1="153.408" x2="389.688" y2="159.497" gradientUnits="userSpaceOnUse">
<stop stop-color="#416587"/>
<stop offset="1" stop-color="#1A3052"/>
</linearGradient>
<linearGradient id="paint13_linear_34_13297" x1="384.222" y1="183" x2="387.511" y2="209.311" gradientUnits="userSpaceOnUse">
<stop stop-color="white"/>
<stop offset="1" stop-color="#EBEBEB"/>
</linearGradient>
<radialGradient id="paint14_radial_34_13297" cx="0" cy="0" r="1" gradientUnits="userSpaceOnUse" gradientTransform="translate(385.306 189.771) rotate(56.3099) scale(24.7381 21.408)">
<stop offset="0.177083" stop-color="white"/>
<stop offset="1" stop-color="#B8B8B8"/>
</radialGradient>
<linearGradient id="paint15_linear_34_13297" x1="385.396" y1="183" x2="388.897" y2="209.256" gradientUnits="userSpaceOnUse">
<stop stop-color="#BBBBBB"/>
<stop offset="1" stop-color="#888888"/>
</linearGradient>
<linearGradient id="paint16_linear_34_13297" x1="388.875" y1="190" x2="391.792" y2="192.917" gradientUnits="userSpaceOnUse">
<stop stop-color="#416587"/>
<stop offset="1" stop-color="#1A3052"/>
</linearGradient>
<linearGradient id="paint17_linear_34_13297" x1="394.708" y1="190.833" x2="397.625" y2="193.75" gradientUnits="userSpaceOnUse">
<stop stop-color="#416587"/>
<stop offset="1" stop-color="#1A3052"/>
</linearGradient>
<linearGradient id="paint18_linear_34_13297" x1="383.042" y1="190.833" x2="385.958" y2="193.75" gradientUnits="userSpaceOnUse">
<stop stop-color="#416587"/>
<stop offset="1" stop-color="#1A3052"/>
</linearGradient>
<linearGradient id="paint19_linear_34_13297" x1="382.125" y1="196.208" x2="385.438" y2="206.098" gradientUnits="userSpaceOnUse">
<stop stop-color="#416587"/>
<stop offset="1" stop-color="#1A3052"/>
</linearGradient>
<linearGradient id="paint20_linear_34_13297" x1="382" y1="194.174" x2="386.779" y2="199.17" gradientUnits="userSpaceOnUse">
<stop stop-color="#416587"/>
<stop offset="1" stop-color="#1A3052"/>
</linearGradient>
<linearGradient id="paint21_linear_34_13297" x1="387.812" y1="193.341" x2="389.303" y2="196.911" gradientUnits="userSpaceOnUse">
<stop stop-color="#416587"/>
<stop offset="1" stop-color="#1A3052"/>
</linearGradient>
<linearGradient id="paint22_linear_34_13297" x1="393.646" y1="194.174" x2="398.424" y2="199.189" gradientUnits="userSpaceOnUse">
<stop stop-color="#416587"/>
<stop offset="1" stop-color="#1A3052"/>
</linearGradient>
<linearGradient id="paint23_linear_34_13297" x1="384.222" y1="226" x2="387.511" y2="252.311" gradientUnits="userSpaceOnUse">
<stop stop-color="white"/>
<stop offset="1" stop-color="#EBEBEB"/>
</linearGradient>
<radialGradient id="paint24_radial_34_13297" cx="0" cy="0" r="1" gradientUnits="userSpaceOnUse" gradientTransform="translate(385.306 232.771) rotate(56.3099) scale(24.7381 21.408)">
<stop offset="0.177083" stop-color="white"/>
<stop offset="1" stop-color="#B8B8B8"/>
</radialGradient>
<linearGradient id="paint25_linear_34_13297" x1="385.396" y1="226" x2="388.897" y2="252.256" gradientUnits="userSpaceOnUse">
<stop stop-color="#BBBBBB"/>
<stop offset="1" stop-color="#888888"/>
</linearGradient>
<linearGradient id="paint26_linear_34_13297" x1="383.542" y1="229.667" x2="399.682" y2="242.175" gradientUnits="userSpaceOnUse">
<stop stop-color="#416587"/>
<stop offset="1" stop-color="#1A3052"/>
</linearGradient>
<linearGradient id="paint27_linear_34_13297" x1="386.446" y1="239.446" x2="388.555" y2="241.554" gradientUnits="userSpaceOnUse">
<stop stop-color="#416587"/>
<stop offset="1" stop-color="#1A3052"/>
</linearGradient>
<linearGradient id="paint28_linear_34_13297" x1="386.446" y1="241.946" x2="388.555" y2="244.054" gradientUnits="userSpaceOnUse">
<stop stop-color="#416587"/>
<stop offset="1" stop-color="#1A3052"/>
</linearGradient>
<linearGradient id="paint29_linear_34_13297" x1="390.417" y1="240.083" x2="390.789" y2="241.663" gradientUnits="userSpaceOnUse">
<stop stop-color="#416587"/>
<stop offset="1" stop-color="#1A3052"/>
</linearGradient>
<linearGradient id="paint30_linear_34_13297" x1="390.417" y1="242.583" x2="390.789" y2="244.163" gradientUnits="userSpaceOnUse">
<stop stop-color="#416587"/>
<stop offset="1" stop-color="#1A3052"/>
</linearGradient>
<linearGradient id="paint31_linear_34_13297" x1="390.417" y1="235.083" x2="390.789" y2="236.663" gradientUnits="userSpaceOnUse">
<stop stop-color="#416587"/>
<stop offset="1" stop-color="#1A3052"/>
</linearGradient>
<linearGradient id="paint32_linear_34_13297" x1="390.417" y1="237.583" x2="390.789" y2="239.163" gradientUnits="userSpaceOnUse">
<stop stop-color="#416587"/>
<stop offset="1" stop-color="#1A3052"/>
</linearGradient>
<linearGradient id="paint33_linear_34_13297" x1="386.189" y1="234.189" x2="388.385" y2="236.914" gradientUnits="userSpaceOnUse">
<stop stop-color="#416587"/>
<stop offset="1" stop-color="#1A3052"/>
</linearGradient>
<linearGradient id="paint34_linear_34_13297" x1="386.189" y1="236.689" x2="388.385" y2="239.414" gradientUnits="userSpaceOnUse">
<stop stop-color="#416587"/>
<stop offset="1" stop-color="#1A3052"/>
</linearGradient>
<linearGradient id="paint35_linear_34_13297" x1="414" y1="272" x2="426.598" y2="333.416" gradientUnits="userSpaceOnUse">
<stop stop-color="#416587"/>
<stop offset="1" stop-color="#1A3052"/>
</linearGradient>
<linearGradient id="paint36_linear_34_13297" x1="384.222" y1="272" x2="387.511" y2="298.311" gradientUnits="userSpaceOnUse">
<stop stop-color="white"/>
<stop offset="1" stop-color="#EBEBEB"/>
</linearGradient>
<radialGradient id="paint37_radial_34_13297" cx="0" cy="0" r="1" gradientUnits="userSpaceOnUse" gradientTransform="translate(385.306 278.771) rotate(56.3099) scale(24.7381 21.408)">
<stop offset="0.177083" stop-color="white"/>
<stop offset="1" stop-color="#B8B8B8"/>
</radialGradient>
<linearGradient id="paint38_linear_34_13297" x1="385.396" y1="272" x2="388.897" y2="298.256" gradientUnits="userSpaceOnUse">
<stop stop-color="#BBBBBB"/>
<stop offset="1" stop-color="#888888"/>
</linearGradient>
<linearGradient id="paint39_linear_34_13297" x1="387.556" y1="276" x2="399.176" y2="287.643" gradientUnits="userSpaceOnUse">
<stop stop-color="#416587"/>
<stop offset="1" stop-color="#1A3052"/>
</linearGradient>
<linearGradient id="paint40_linear_34_13297" x1="381.199" y1="276.683" x2="398.515" y2="294" gradientUnits="userSpaceOnUse">
<stop stop-color="#416587"/>
<stop offset="1" stop-color="#1A3052"/>
</linearGradient>
<linearGradient id="paint41_linear_34_13297" x1="384.389" y1="279.873" x2="395.326" y2="290.81" gradientUnits="userSpaceOnUse">
<stop stop-color="#416587"/>
<stop offset="1" stop-color="#1A3052"/>
</linearGradient>
<linearGradient id="paint42_linear_34_13297" x1="376.934" y1="80.8768" x2="391.547" y2="84.3855" gradientUnits="userSpaceOnUse">
<stop stop-color="white"/>
<stop offset="1" stop-color="#FAFAFA"/>
</linearGradient>
<linearGradient id="paint43_linear_34_13297" x1="372.019" y1="66" x2="401.668" y2="100.523" gradientUnits="userSpaceOnUse">
<stop stop-color="#416587"/>
<stop offset="1" stop-color="#1A3052"/>
</linearGradient>
<linearGradient id="paint44_linear_34_13297" x1="383.795" y1="66" x2="393.511" y2="77.2857" gradientUnits="userSpaceOnUse">
<stop stop-color="#416587"/>
<stop offset="1" stop-color="#1A3052"/>
</linearGradient>
</defs>
</svg>
