<svg width="884" height="419" viewBox="0 0 884 419" fill="none" xmlns="http://www.w3.org/2000/svg">
<rect width="884" height="419" fill="white"/>
<rect width="884" height="419" fill="url(#paint0_radial_34_13297)" fill-opacity="0.075"/>
<rect x="0.5" y="0.5" width="883" height="418" stroke="#333333" stroke-opacity="0.2"/>
<g filter="url(#filter0_f_34_13297)">
<rect x="350" y="50" width="234" height="319" rx="16" fill="#CCCCCC" fill-opacity="0.8"/>
</g>
<rect x="350" y="50" width="234" height="319" rx="16" fill="white"/>
<rect x="350" y="50" width="234" height="319" rx="16" fill="url(#paint1_linear_34_13297)" fill-opacity="0.33"/>
<rect x="360.5" y="173.5" width="213" height="45" rx="9.5" fill="#EEF2F5" stroke="url(#paint2_linear_34_13297)" stroke-dasharray="2 2"/>
<path d="M414.867 86.5547V84.6406C415.039 84.7969 415.242 84.9375 415.477 85.0625C415.716 85.1875 415.969 85.2943 416.234 85.3828C416.5 85.4661 416.766 85.5312 417.031 85.5781C417.297 85.625 417.542 85.6484 417.766 85.6484C418.547 85.6484 419.128 85.5182 419.508 85.2578C419.893 84.9974 420.086 84.6198 420.086 84.125C420.086 83.8594 420.021 83.6302 419.891 83.4375C419.766 83.2396 419.589 83.0599 419.359 82.8984C419.13 82.737 418.859 82.5833 418.547 82.4375C418.24 82.2865 417.909 82.1302 417.555 81.9688C417.174 81.7656 416.82 81.5599 416.492 81.3516C416.164 81.1432 415.878 80.9141 415.633 80.6641C415.393 80.4089 415.203 80.1224 415.062 79.8047C414.927 79.487 414.859 79.1146 414.859 78.6875C414.859 78.1615 414.977 77.7057 415.211 77.3203C415.451 76.9297 415.763 76.6094 416.148 76.3594C416.539 76.1042 416.982 75.9167 417.477 75.7969C417.971 75.6719 418.477 75.6094 418.992 75.6094C420.164 75.6094 421.018 75.7422 421.555 76.0078V77.8438C420.919 77.3854 420.102 77.1562 419.102 77.1562C418.826 77.1562 418.549 77.1823 418.273 77.2344C418.003 77.2865 417.758 77.3724 417.539 77.4922C417.326 77.612 417.151 77.7656 417.016 77.9531C416.88 78.1406 416.812 78.3672 416.812 78.6328C416.812 78.8828 416.865 79.099 416.969 79.2812C417.073 79.4635 417.224 79.6302 417.422 79.7812C417.625 79.9323 417.87 80.0807 418.156 80.2266C418.448 80.3672 418.784 80.5208 419.164 80.6875C419.555 80.8906 419.922 81.1042 420.266 81.3281C420.615 81.5521 420.919 81.7995 421.18 82.0703C421.445 82.3411 421.654 82.6432 421.805 82.9766C421.961 83.3047 422.039 83.6797 422.039 84.1016C422.039 84.6693 421.924 85.1484 421.695 85.5391C421.466 85.9297 421.156 86.2474 420.766 86.4922C420.38 86.737 419.935 86.9141 419.43 87.0234C418.924 87.1328 418.391 87.1875 417.828 87.1875C417.641 87.1875 417.409 87.1719 417.133 87.1406C416.862 87.1146 416.583 87.0729 416.297 87.0156C416.01 86.9635 415.74 86.8984 415.484 86.8203C415.229 86.7422 415.023 86.6536 414.867 86.5547ZM427.648 86.9141C427.294 87.0911 426.828 87.1797 426.25 87.1797C424.698 87.1797 423.922 86.4349 423.922 84.9453V80.4219H422.586V79H423.922V77.1484L425.734 76.6328V79H427.648V80.4219H425.734V84.4219C425.734 84.8958 425.82 85.2344 425.992 85.4375C426.164 85.6406 426.451 85.7422 426.852 85.7422C427.159 85.7422 427.424 85.6536 427.648 85.4766V86.9141ZM433.852 80.7266C433.633 80.5547 433.318 80.4688 432.906 80.4688C432.37 80.4688 431.922 80.7109 431.562 81.1953C431.203 81.6797 431.023 82.3385 431.023 83.1719V87H429.211V79H431.023V80.6484H431.055C431.232 80.0859 431.503 79.6484 431.867 79.3359C432.237 79.0182 432.648 78.8594 433.102 78.8594C433.43 78.8594 433.68 78.9089 433.852 79.0078V80.7266ZM441.273 87H439.516V85.75H439.484C438.932 86.7083 438.122 87.1875 437.055 87.1875C436.268 87.1875 435.651 86.974 435.203 86.5469C434.76 86.1198 434.539 85.5547 434.539 84.8516C434.539 83.3411 435.409 82.4609 437.148 82.2109L439.523 81.875C439.523 80.7344 438.982 80.1641 437.898 80.1641C436.945 80.1641 436.086 80.4922 435.32 81.1484V79.5625C436.164 79.0625 437.138 78.8125 438.242 78.8125C440.263 78.8125 441.273 79.8073 441.273 81.7969V87ZM439.523 83.0703L437.844 83.3047C437.323 83.3724 436.93 83.5 436.664 83.6875C436.404 83.8698 436.273 84.1927 436.273 84.6562C436.273 84.9948 436.393 85.2734 436.633 85.4922C436.878 85.7057 437.203 85.8125 437.609 85.8125C438.161 85.8125 438.617 85.6198 438.977 85.2344C439.341 84.8438 439.523 84.3542 439.523 83.7656V83.0703ZM447.711 86.9141C447.357 87.0911 446.891 87.1797 446.312 87.1797C444.76 87.1797 443.984 86.4349 443.984 84.9453V80.4219H442.648V79H443.984V77.1484L445.797 76.6328V79H447.711V80.4219H445.797V84.4219C445.797 84.8958 445.883 85.2344 446.055 85.4375C446.227 85.6406 446.513 85.7422 446.914 85.7422C447.221 85.7422 447.487 85.6536 447.711 85.4766V86.9141ZM455.953 83.4922H450.5C450.521 84.2318 450.747 84.8021 451.18 85.2031C451.617 85.6042 452.216 85.8047 452.977 85.8047C453.831 85.8047 454.615 85.5495 455.328 85.0391V86.5C454.599 86.9583 453.635 87.1875 452.438 87.1875C451.26 87.1875 450.336 86.8255 449.664 86.1016C448.997 85.3724 448.664 84.349 448.664 83.0312C448.664 81.7865 449.031 80.7734 449.766 79.9922C450.505 79.2057 451.422 78.8125 452.516 78.8125C453.609 78.8125 454.456 79.1641 455.055 79.8672C455.654 80.5703 455.953 81.5469 455.953 82.7969V83.4922ZM454.203 82.2109C454.198 81.5599 454.044 81.0547 453.742 80.6953C453.44 80.3307 453.023 80.1484 452.492 80.1484C451.971 80.1484 451.529 80.3385 451.164 80.7188C450.805 81.099 450.583 81.5964 450.5 82.2109H454.203ZM464.961 86.3594C464.961 89.2969 463.484 90.7656 460.531 90.7656C459.49 90.7656 458.581 90.5911 457.805 90.2422V88.5859C458.68 89.0859 459.51 89.3359 460.297 89.3359C462.198 89.3359 463.148 88.401 463.148 86.5312V85.6562H463.117C462.518 86.6771 461.617 87.1875 460.414 87.1875C459.44 87.1875 458.654 86.8333 458.055 86.125C457.461 85.4115 457.164 84.4557 457.164 83.2578C457.164 81.8984 457.484 80.8177 458.125 80.0156C458.766 79.2135 459.646 78.8125 460.766 78.8125C461.823 78.8125 462.607 79.2448 463.117 80.1094H463.148V79H464.961V86.3594ZM463.164 83.3359V82.2969C463.164 81.7344 462.977 81.2552 462.602 80.8594C462.232 80.4583 461.768 80.2578 461.211 80.2578C460.523 80.2578 459.984 80.513 459.594 81.0234C459.208 81.5286 459.016 82.237 459.016 83.1484C459.016 83.9349 459.201 84.5651 459.57 85.0391C459.945 85.5078 460.44 85.7422 461.055 85.7422C461.68 85.7422 462.188 85.5182 462.578 85.0703C462.969 84.6172 463.164 84.0391 463.164 83.3359ZM468.234 77.3203C467.938 77.3203 467.682 77.224 467.469 77.0312C467.26 76.8385 467.156 76.5938 467.156 76.2969C467.156 76 467.26 75.7526 467.469 75.5547C467.682 75.3568 467.938 75.2578 468.234 75.2578C468.542 75.2578 468.802 75.3568 469.016 75.5547C469.229 75.7526 469.336 76 469.336 76.2969C469.336 76.5781 469.229 76.8203 469.016 77.0234C468.802 77.2214 468.542 77.3203 468.234 77.3203ZM469.133 87H467.32V79H469.133V87ZM477.234 86.6328C476.594 87.0026 475.836 87.1875 474.961 87.1875C473.773 87.1875 472.815 86.8177 472.086 86.0781C471.357 85.3333 470.992 84.3698 470.992 83.1875C470.992 81.8698 471.383 80.8125 472.164 80.0156C472.951 79.2135 474 78.8125 475.312 78.8125C476.042 78.8125 476.685 78.9401 477.242 79.1953V80.8828C476.685 80.4661 476.091 80.2578 475.461 80.2578C474.695 80.2578 474.068 80.5182 473.578 81.0391C473.089 81.5547 472.844 82.2318 472.844 83.0703C472.844 83.8984 473.073 84.5521 473.531 85.0312C473.995 85.5104 474.615 85.75 475.391 85.75C476.042 85.75 476.656 85.5182 477.234 85.0547V86.6328ZM485.289 85.8203H485.258V90.6797H483.445V79H485.258V80.4062H485.289C485.909 79.3438 486.815 78.8125 488.008 78.8125C489.023 78.8125 489.815 79.1693 490.383 79.8828C490.951 80.5964 491.234 81.5547 491.234 82.7578C491.234 84.0911 490.914 85.1589 490.273 85.9609C489.633 86.763 488.758 87.1641 487.648 87.1641C486.628 87.1641 485.841 86.7161 485.289 85.8203ZM485.242 82.6641V83.6562C485.242 84.2396 485.427 84.7344 485.797 85.1406C486.172 85.5469 486.646 85.75 487.219 85.75C487.891 85.75 488.417 85.4896 488.797 84.9688C489.182 84.4427 489.375 83.7109 489.375 82.7734C489.375 81.987 489.195 81.3724 488.836 80.9297C488.482 80.4818 488 80.2578 487.391 80.2578C486.745 80.2578 486.224 80.487 485.828 80.9453C485.438 81.4036 485.242 81.9766 485.242 82.6641ZM494.906 87H493.086V75.1562H494.906V87ZM503.414 87H501.656V85.75H501.625C501.073 86.7083 500.263 87.1875 499.195 87.1875C498.409 87.1875 497.792 86.974 497.344 86.5469C496.901 86.1198 496.68 85.5547 496.68 84.8516C496.68 83.3411 497.549 82.4609 499.289 82.2109L501.664 81.875C501.664 80.7344 501.122 80.1641 500.039 80.1641C499.086 80.1641 498.227 80.4922 497.461 81.1484V79.5625C498.305 79.0625 499.279 78.8125 500.383 78.8125C502.404 78.8125 503.414 79.8073 503.414 81.7969V87ZM501.664 83.0703L499.984 83.3047C499.464 83.3724 499.07 83.5 498.805 83.6875C498.544 83.8698 498.414 84.1927 498.414 84.6562C498.414 84.9948 498.534 85.2734 498.773 85.4922C499.018 85.7057 499.344 85.8125 499.75 85.8125C500.302 85.8125 500.758 85.6198 501.117 85.2344C501.482 84.8438 501.664 84.3542 501.664 83.7656V83.0703ZM512.758 87H510.945V82.4922C510.945 80.9974 510.417 80.25 509.359 80.25C508.807 80.25 508.352 80.4583 507.992 80.875C507.633 81.2865 507.453 81.8073 507.453 82.4375V87H505.633V79H507.453V80.3281H507.484C508.083 79.3177 508.948 78.8125 510.078 78.8125C510.948 78.8125 511.612 79.0964 512.07 79.6641C512.529 80.2266 512.758 81.0417 512.758 82.1094V87ZM522.102 87H520.289V82.4922C520.289 80.9974 519.76 80.25 518.703 80.25C518.151 80.25 517.695 80.4583 517.336 80.875C516.977 81.2865 516.797 81.8073 516.797 82.4375V87H514.977V79H516.797V80.3281H516.828C517.427 79.3177 518.292 78.8125 519.422 78.8125C520.292 78.8125 520.956 79.0964 521.414 79.6641C521.872 80.2266 522.102 81.0417 522.102 82.1094V87ZM525.234 77.3203C524.938 77.3203 524.682 77.224 524.469 77.0312C524.26 76.8385 524.156 76.5938 524.156 76.2969C524.156 76 524.26 75.7526 524.469 75.5547C524.682 75.3568 524.938 75.2578 525.234 75.2578C525.542 75.2578 525.802 75.3568 526.016 75.5547C526.229 75.7526 526.336 76 526.336 76.2969C526.336 76.5781 526.229 76.8203 526.016 77.0234C525.802 77.2214 525.542 77.3203 525.234 77.3203ZM526.133 87H524.32V79H526.133V87ZM535.633 87H533.82V82.4922C533.82 80.9974 533.292 80.25 532.234 80.25C531.682 80.25 531.227 80.4583 530.867 80.875C530.508 81.2865 530.328 81.8073 530.328 82.4375V87H528.508V79H530.328V80.3281H530.359C530.958 79.3177 531.823 78.8125 532.953 78.8125C533.823 78.8125 534.487 79.0964 534.945 79.6641C535.404 80.2266 535.633 81.0417 535.633 82.1094V87ZM545.133 86.3594C545.133 89.2969 543.656 90.7656 540.703 90.7656C539.661 90.7656 538.753 90.5911 537.977 90.2422V88.5859C538.852 89.0859 539.682 89.3359 540.469 89.3359C542.37 89.3359 543.32 88.401 543.32 86.5312V85.6562H543.289C542.69 86.6771 541.789 87.1875 540.586 87.1875C539.612 87.1875 538.826 86.8333 538.227 86.125C537.633 85.4115 537.336 84.4557 537.336 83.2578C537.336 81.8984 537.656 80.8177 538.297 80.0156C538.938 79.2135 539.818 78.8125 540.938 78.8125C541.995 78.8125 542.779 79.2448 543.289 80.1094H543.32V79H545.133V86.3594ZM543.336 83.3359V82.2969C543.336 81.7344 543.148 81.2552 542.773 80.8594C542.404 80.4583 541.94 80.2578 541.383 80.2578C540.695 80.2578 540.156 80.513 539.766 81.0234C539.38 81.5286 539.188 82.237 539.188 83.1484C539.188 83.9349 539.372 84.5651 539.742 85.0391C540.117 85.5078 540.612 85.7422 541.227 85.7422C541.852 85.7422 542.359 85.5182 542.75 85.0703C543.141 84.6172 543.336 84.0391 543.336 83.3359Z" fill="url(#paint3_linear_34_13297)"/>
<path d="M356 111L579 111" stroke="#3F6384" stroke-opacity="0.66" stroke-width="2" stroke-linecap="round"/>
<path d="M422.873 157H421.602L420.562 154.252H416.406L415.429 157H414.15L417.91 147.197H419.1L422.873 157ZM420.187 153.22L418.648 149.043C418.598 148.906 418.548 148.688 418.498 148.387H418.471C418.425 148.665 418.373 148.883 418.313 149.043L416.789 153.22H420.187ZM423.748 156.747V155.544C424.359 155.995 425.031 156.221 425.765 156.221C426.749 156.221 427.241 155.893 427.241 155.236C427.241 155.049 427.198 154.892 427.111 154.765C427.029 154.632 426.915 154.516 426.77 154.416C426.628 154.316 426.46 154.227 426.264 154.149C426.072 154.067 425.865 153.983 425.642 153.896C425.332 153.773 425.058 153.65 424.821 153.527C424.589 153.4 424.393 153.258 424.233 153.104C424.078 152.944 423.96 152.764 423.878 152.563C423.8 152.363 423.762 152.128 423.762 151.859C423.762 151.531 423.837 151.242 423.987 150.991C424.138 150.736 424.338 150.524 424.589 150.355C424.84 150.182 425.124 150.052 425.443 149.966C425.767 149.879 426.1 149.836 426.441 149.836C427.048 149.836 427.59 149.941 428.068 150.15V151.285C427.553 150.948 426.961 150.779 426.291 150.779C426.081 150.779 425.892 150.804 425.724 150.854C425.555 150.9 425.409 150.966 425.286 151.053C425.168 151.139 425.074 151.244 425.006 151.367C424.942 151.486 424.91 151.618 424.91 151.764C424.91 151.946 424.942 152.099 425.006 152.222C425.074 152.345 425.172 152.454 425.3 152.55C425.427 152.646 425.582 152.732 425.765 152.81C425.947 152.887 426.154 152.971 426.387 153.062C426.697 153.181 426.975 153.304 427.221 153.432C427.467 153.555 427.676 153.696 427.85 153.855C428.023 154.01 428.155 154.19 428.246 154.396C428.342 154.601 428.39 154.844 428.39 155.127C428.39 155.473 428.312 155.774 428.157 156.029C428.007 156.285 427.804 156.496 427.549 156.665C427.294 156.834 427 156.959 426.667 157.041C426.334 157.123 425.986 157.164 425.621 157.164C424.901 157.164 424.277 157.025 423.748 156.747ZM429.695 156.747V155.544C430.306 155.995 430.978 156.221 431.712 156.221C432.696 156.221 433.188 155.893 433.188 155.236C433.188 155.049 433.145 154.892 433.059 154.765C432.977 154.632 432.863 154.516 432.717 154.416C432.576 154.316 432.407 154.227 432.211 154.149C432.02 154.067 431.812 153.983 431.589 153.896C431.279 153.773 431.006 153.65 430.769 153.527C430.536 153.4 430.34 153.258 430.181 153.104C430.026 152.944 429.907 152.764 429.825 152.563C429.748 152.363 429.709 152.128 429.709 151.859C429.709 151.531 429.784 151.242 429.935 150.991C430.085 150.736 430.285 150.524 430.536 150.355C430.787 150.182 431.072 150.052 431.391 149.966C431.714 149.879 432.047 149.836 432.389 149.836C432.995 149.836 433.537 149.941 434.016 150.15V151.285C433.501 150.948 432.908 150.779 432.238 150.779C432.029 150.779 431.84 150.804 431.671 150.854C431.502 150.9 431.356 150.966 431.233 151.053C431.115 151.139 431.021 151.244 430.953 151.367C430.889 151.486 430.857 151.618 430.857 151.764C430.857 151.946 430.889 152.099 430.953 152.222C431.021 152.345 431.119 152.454 431.247 152.55C431.375 152.646 431.53 152.732 431.712 152.81C431.894 152.887 432.102 152.971 432.334 153.062C432.644 153.181 432.922 153.304 433.168 153.432C433.414 153.555 433.624 153.696 433.797 153.855C433.97 154.01 434.102 154.19 434.193 154.396C434.289 154.601 434.337 154.844 434.337 155.127C434.337 155.473 434.259 155.774 434.104 156.029C433.954 156.285 433.751 156.496 433.496 156.665C433.241 156.834 432.947 156.959 432.614 157.041C432.282 157.123 431.933 157.164 431.568 157.164C430.848 157.164 430.224 157.025 429.695 156.747ZM441.692 153.78H436.75C436.768 154.56 436.978 155.161 437.379 155.585C437.78 156.009 438.331 156.221 439.033 156.221C439.822 156.221 440.546 155.961 441.207 155.441V156.494C440.592 156.941 439.778 157.164 438.767 157.164C437.778 157.164 437.001 156.847 436.436 156.214C435.87 155.576 435.588 154.68 435.588 153.527C435.588 152.438 435.896 151.552 436.511 150.868C437.131 150.18 437.898 149.836 438.814 149.836C439.73 149.836 440.439 150.132 440.94 150.725C441.442 151.317 441.692 152.14 441.692 153.192V153.78ZM440.544 152.83C440.539 152.183 440.382 151.679 440.072 151.319C439.767 150.959 439.341 150.779 438.794 150.779C438.265 150.779 437.816 150.968 437.447 151.347C437.078 151.725 436.85 152.219 436.764 152.83H440.544ZM453.334 157H452.213V152.98C452.213 152.206 452.092 151.645 451.851 151.299C451.614 150.952 451.213 150.779 450.647 150.779C450.169 150.779 449.761 150.998 449.424 151.436C449.091 151.873 448.925 152.397 448.925 153.008V157H447.804V152.844C447.804 151.467 447.273 150.779 446.211 150.779C445.719 150.779 445.313 150.987 444.994 151.401C444.675 151.812 444.516 152.347 444.516 153.008V157H443.395V150H444.516V151.107H444.543C445.04 150.26 445.764 149.836 446.717 149.836C447.195 149.836 447.612 149.97 447.968 150.239C448.323 150.504 448.567 150.852 448.699 151.285C449.219 150.319 449.993 149.836 451.023 149.836C452.564 149.836 453.334 150.786 453.334 152.687V157ZM456.602 155.988H456.574V157H455.453V146.637H456.574V151.23H456.602C457.153 150.301 457.96 149.836 459.021 149.836C459.919 149.836 460.621 150.15 461.127 150.779C461.637 151.404 461.893 152.242 461.893 153.295C461.893 154.466 461.608 155.405 461.038 156.111C460.468 156.813 459.689 157.164 458.7 157.164C457.775 157.164 457.076 156.772 456.602 155.988ZM456.574 153.165V154.143C456.574 154.721 456.761 155.214 457.135 155.619C457.513 156.02 457.992 156.221 458.57 156.221C459.249 156.221 459.78 155.961 460.163 155.441C460.55 154.922 460.744 154.2 460.744 153.274C460.744 152.495 460.564 151.884 460.204 151.442C459.844 151 459.356 150.779 458.741 150.779C458.09 150.779 457.565 151.007 457.169 151.463C456.772 151.914 456.574 152.481 456.574 153.165ZM464.805 157H463.684V146.637H464.805V157ZM472.7 153.78H467.758C467.776 154.56 467.986 155.161 468.387 155.585C468.788 156.009 469.339 156.221 470.041 156.221C470.829 156.221 471.554 155.961 472.215 155.441V156.494C471.6 156.941 470.786 157.164 469.774 157.164C468.785 157.164 468.008 156.847 467.443 156.214C466.878 155.576 466.596 154.68 466.596 153.527C466.596 152.438 466.903 151.552 467.519 150.868C468.138 150.18 468.906 149.836 469.822 149.836C470.738 149.836 471.447 150.132 471.948 150.725C472.45 151.317 472.7 152.14 472.7 153.192V153.78ZM471.552 152.83C471.547 152.183 471.39 151.679 471.08 151.319C470.775 150.959 470.349 150.779 469.802 150.779C469.273 150.779 468.824 150.968 468.455 151.347C468.086 151.725 467.858 152.219 467.771 152.83H471.552ZM487.062 150L484.964 157H483.802L482.359 151.989C482.305 151.798 482.268 151.581 482.25 151.34H482.223C482.209 151.504 482.161 151.716 482.079 151.976L480.514 157H479.393L477.273 150H478.449L479.898 155.264C479.944 155.423 479.976 155.633 479.994 155.893H480.049C480.062 155.692 480.104 155.478 480.172 155.25L481.785 150H482.811L484.26 155.277C484.305 155.446 484.34 155.656 484.362 155.906H484.417C484.426 155.729 484.465 155.519 484.533 155.277L485.955 150H487.062ZM491.287 157.164C490.253 157.164 489.425 156.838 488.806 156.187C488.19 155.53 487.883 154.662 487.883 153.582C487.883 152.406 488.204 151.488 488.847 150.827C489.489 150.166 490.357 149.836 491.451 149.836C492.495 149.836 493.308 150.157 493.892 150.8C494.479 151.442 494.773 152.333 494.773 153.473C494.773 154.589 494.457 155.485 493.823 156.159C493.194 156.829 492.349 157.164 491.287 157.164ZM491.369 150.779C490.649 150.779 490.079 151.025 489.66 151.518C489.241 152.005 489.031 152.68 489.031 153.541C489.031 154.37 489.243 155.024 489.667 155.503C490.091 155.981 490.658 156.221 491.369 156.221C492.094 156.221 492.65 155.986 493.037 155.517C493.429 155.047 493.625 154.38 493.625 153.514C493.625 152.639 493.429 151.964 493.037 151.49C492.65 151.016 492.094 150.779 491.369 150.779ZM500.215 151.135C500.019 150.984 499.736 150.909 499.367 150.909C498.889 150.909 498.488 151.135 498.164 151.586C497.845 152.037 497.686 152.652 497.686 153.432V157H496.564V150H497.686V151.442H497.713C497.872 150.95 498.116 150.567 498.444 150.294C498.772 150.016 499.139 149.877 499.545 149.877C499.837 149.877 500.06 149.909 500.215 149.973V151.135ZM507.242 157H505.67L502.58 153.637H502.553V157H501.432V146.637H502.553V153.206H502.58L505.52 150H506.989L503.742 153.377L507.242 157ZM508.965 148.223C508.764 148.223 508.593 148.154 508.452 148.018C508.311 147.881 508.24 147.708 508.24 147.498C508.24 147.288 508.311 147.115 508.452 146.979C508.593 146.837 508.764 146.767 508.965 146.767C509.17 146.767 509.343 146.837 509.484 146.979C509.63 147.115 509.703 147.288 509.703 147.498C509.703 147.699 509.63 147.869 509.484 148.011C509.343 148.152 509.17 148.223 508.965 148.223ZM509.512 157H508.391V150H509.512V157ZM517.592 157H516.471V153.008C516.471 151.522 515.928 150.779 514.844 150.779C514.283 150.779 513.818 150.991 513.449 151.415C513.085 151.834 512.902 152.365 512.902 153.008V157H511.781V150H512.902V151.162H512.93C513.458 150.278 514.224 149.836 515.227 149.836C515.992 149.836 516.578 150.084 516.983 150.581C517.389 151.073 517.592 151.786 517.592 152.721V157ZM525.686 156.439C525.686 159.01 524.455 160.295 521.994 160.295C521.128 160.295 520.372 160.131 519.725 159.803V158.682C520.513 159.119 521.265 159.338 521.98 159.338C523.703 159.338 524.564 158.422 524.564 156.59V155.824H524.537C524.004 156.717 523.202 157.164 522.131 157.164C521.26 157.164 520.559 156.854 520.025 156.234C519.497 155.61 519.232 154.774 519.232 153.726C519.232 152.536 519.517 151.59 520.087 150.889C520.661 150.187 521.445 149.836 522.438 149.836C523.382 149.836 524.081 150.214 524.537 150.971H524.564V150H525.686V156.439ZM524.564 153.835V152.803C524.564 152.247 524.375 151.771 523.997 151.374C523.623 150.978 523.156 150.779 522.596 150.779C521.903 150.779 521.361 151.032 520.969 151.538C520.577 152.039 520.381 152.743 520.381 153.65C520.381 154.43 520.568 155.054 520.941 155.523C521.32 155.988 521.819 156.221 522.438 156.221C523.067 156.221 523.578 155.997 523.97 155.551C524.366 155.104 524.564 154.532 524.564 153.835ZM535.044 156.932C534.78 157.077 534.431 157.15 533.998 157.15C532.772 157.15 532.159 156.467 532.159 155.1V150.957H530.956V150H532.159V148.291L533.28 147.929V150H535.044V150.957H533.28V154.901C533.28 155.371 533.36 155.706 533.52 155.906C533.679 156.107 533.943 156.207 534.312 156.207C534.595 156.207 534.839 156.13 535.044 155.975V156.932ZM542.167 153.78H537.225C537.243 154.56 537.452 155.161 537.854 155.585C538.255 156.009 538.806 156.221 539.508 156.221C540.296 156.221 541.021 155.961 541.682 155.441V156.494C541.066 156.941 540.253 157.164 539.241 157.164C538.252 157.164 537.475 156.847 536.91 156.214C536.345 155.576 536.062 154.68 536.062 153.527C536.062 152.438 536.37 151.552 536.985 150.868C537.605 150.18 538.373 149.836 539.289 149.836C540.205 149.836 540.914 150.132 541.415 150.725C541.916 151.317 542.167 152.14 542.167 153.192V153.78ZM541.019 152.83C541.014 152.183 540.857 151.679 540.547 151.319C540.242 150.959 539.815 150.779 539.269 150.779C538.74 150.779 538.291 150.968 537.922 151.347C537.553 151.725 537.325 152.219 537.238 152.83H541.019ZM548.88 157H547.759V155.906H547.731C547.244 156.745 546.526 157.164 545.578 157.164C544.881 157.164 544.334 156.979 543.938 156.61C543.546 156.241 543.35 155.751 543.35 155.141C543.35 153.833 544.12 153.072 545.66 152.857L547.759 152.563C547.759 151.374 547.278 150.779 546.316 150.779C545.473 150.779 544.712 151.066 544.033 151.641V150.492C544.721 150.055 545.514 149.836 546.412 149.836C548.057 149.836 548.88 150.706 548.88 152.447V157ZM547.759 153.459L546.07 153.691C545.551 153.764 545.159 153.894 544.895 154.081C544.63 154.263 544.498 154.589 544.498 155.059C544.498 155.4 544.619 155.681 544.86 155.899C545.106 156.114 545.432 156.221 545.838 156.221C546.394 156.221 546.852 156.027 547.212 155.64C547.576 155.248 547.759 154.753 547.759 154.156V153.459ZM560.932 157H559.811V152.98C559.811 152.206 559.69 151.645 559.448 151.299C559.211 150.952 558.81 150.779 558.245 150.779C557.767 150.779 557.359 150.998 557.021 151.436C556.689 151.873 556.522 152.397 556.522 153.008V157H555.401V152.844C555.401 151.467 554.87 150.779 553.809 150.779C553.316 150.779 552.911 150.987 552.592 151.401C552.273 151.812 552.113 152.347 552.113 153.008V157H550.992V150H552.113V151.107H552.141C552.637 150.26 553.362 149.836 554.314 149.836C554.793 149.836 555.21 149.97 555.565 150.239C555.921 150.504 556.165 150.852 556.297 151.285C556.816 150.319 557.591 149.836 558.621 149.836C560.161 149.836 560.932 150.786 560.932 152.687V157Z" fill="url(#paint4_linear_34_13297)"/>
<path d="M421.957 243.59C421.232 243.973 420.33 244.164 419.25 244.164C417.855 244.164 416.739 243.715 415.9 242.817C415.062 241.92 414.643 240.742 414.643 239.283C414.643 237.715 415.114 236.449 416.058 235.482C417.001 234.516 418.197 234.033 419.646 234.033C420.576 234.033 421.346 234.168 421.957 234.437V235.66C421.255 235.268 420.48 235.072 419.633 235.072C418.507 235.072 417.593 235.448 416.892 236.2C416.194 236.952 415.846 237.957 415.846 239.215C415.846 240.409 416.172 241.361 416.823 242.072C417.479 242.779 418.339 243.132 419.4 243.132C420.385 243.132 421.237 242.913 421.957 242.476V243.59ZM426.729 244.164C425.694 244.164 424.867 243.838 424.247 243.187C423.632 242.53 423.324 241.662 423.324 240.582C423.324 239.406 423.646 238.488 424.288 237.827C424.931 237.166 425.799 236.836 426.893 236.836C427.936 236.836 428.75 237.157 429.333 237.8C429.921 238.442 430.215 239.333 430.215 240.473C430.215 241.589 429.898 242.485 429.265 243.159C428.636 243.829 427.79 244.164 426.729 244.164ZM426.811 237.779C426.09 237.779 425.521 238.025 425.102 238.518C424.682 239.005 424.473 239.68 424.473 240.541C424.473 241.37 424.685 242.024 425.108 242.503C425.532 242.981 426.1 243.221 426.811 243.221C427.535 243.221 428.091 242.986 428.479 242.517C428.87 242.047 429.066 241.38 429.066 240.514C429.066 239.639 428.87 238.964 428.479 238.49C428.091 238.016 427.535 237.779 426.811 237.779ZM441.945 244H440.824V239.98C440.824 239.206 440.703 238.645 440.462 238.299C440.225 237.952 439.824 237.779 439.259 237.779C438.78 237.779 438.372 237.998 438.035 238.436C437.702 238.873 437.536 239.397 437.536 240.008V244H436.415V239.844C436.415 238.467 435.884 237.779 434.822 237.779C434.33 237.779 433.924 237.987 433.605 238.401C433.286 238.812 433.127 239.347 433.127 240.008V244H432.006V237H433.127V238.107H433.154C433.651 237.26 434.376 236.836 435.328 236.836C435.807 236.836 436.224 236.97 436.579 237.239C436.935 237.504 437.178 237.852 437.311 238.285C437.83 237.319 438.605 236.836 439.635 236.836C441.175 236.836 441.945 237.786 441.945 239.687V244ZM445.213 242.988H445.186V247.22H444.064V237H445.186V238.23H445.213C445.764 237.301 446.571 236.836 447.633 236.836C448.535 236.836 449.239 237.15 449.745 237.779C450.251 238.404 450.504 239.242 450.504 240.295C450.504 241.466 450.219 242.405 449.649 243.111C449.08 243.813 448.3 244.164 447.312 244.164C446.405 244.164 445.705 243.772 445.213 242.988ZM445.186 240.165V241.143C445.186 241.721 445.372 242.214 445.746 242.619C446.124 243.02 446.603 243.221 447.182 243.221C447.861 243.221 448.392 242.961 448.774 242.441C449.162 241.922 449.355 241.2 449.355 240.274C449.355 239.495 449.175 238.884 448.815 238.442C448.455 238 447.968 237.779 447.353 237.779C446.701 237.779 446.177 238.007 445.78 238.463C445.384 238.914 445.186 239.481 445.186 240.165ZM453.416 244H452.295V233.637H453.416V244ZM461.312 240.78H456.369C456.387 241.56 456.597 242.161 456.998 242.585C457.399 243.009 457.951 243.221 458.652 243.221C459.441 243.221 460.165 242.961 460.826 242.441V243.494C460.211 243.941 459.397 244.164 458.386 244.164C457.397 244.164 456.62 243.847 456.055 243.214C455.49 242.576 455.207 241.68 455.207 240.527C455.207 239.438 455.515 238.552 456.13 237.868C456.75 237.18 457.518 236.836 458.434 236.836C459.35 236.836 460.058 237.132 460.56 237.725C461.061 238.317 461.312 239.14 461.312 240.192V240.78ZM460.163 239.83C460.159 239.183 460.001 238.679 459.691 238.319C459.386 237.959 458.96 237.779 458.413 237.779C457.884 237.779 457.436 237.968 457.066 238.347C456.697 238.725 456.469 239.219 456.383 239.83H460.163ZM466.261 243.932C465.996 244.077 465.648 244.15 465.215 244.15C463.989 244.15 463.376 243.467 463.376 242.1V237.957H462.173V237H463.376V235.291L464.497 234.929V237H466.261V237.957H464.497V241.901C464.497 242.371 464.577 242.706 464.736 242.906C464.896 243.107 465.16 243.207 465.529 243.207C465.812 243.207 466.056 243.13 466.261 242.975V243.932ZM473.384 240.78H468.441C468.46 241.56 468.669 242.161 469.07 242.585C469.471 243.009 470.023 243.221 470.725 243.221C471.513 243.221 472.238 242.961 472.898 242.441V243.494C472.283 243.941 471.47 244.164 470.458 244.164C469.469 244.164 468.692 243.847 468.127 243.214C467.562 242.576 467.279 241.68 467.279 240.527C467.279 239.438 467.587 238.552 468.202 237.868C468.822 237.18 469.59 236.836 470.506 236.836C471.422 236.836 472.131 237.132 472.632 237.725C473.133 238.317 473.384 239.14 473.384 240.192V240.78ZM472.235 239.83C472.231 239.183 472.074 238.679 471.764 238.319C471.458 237.959 471.032 237.779 470.485 237.779C469.957 237.779 469.508 237.968 469.139 238.347C468.77 238.725 468.542 239.219 468.455 239.83H472.235ZM483.938 244H482.817V242.906H482.79C482.302 243.745 481.585 244.164 480.637 244.164C479.939 244.164 479.393 243.979 478.996 243.61C478.604 243.241 478.408 242.751 478.408 242.141C478.408 240.833 479.178 240.072 480.719 239.857L482.817 239.563C482.817 238.374 482.337 237.779 481.375 237.779C480.532 237.779 479.771 238.066 479.092 238.641V237.492C479.78 237.055 480.573 236.836 481.471 236.836C483.116 236.836 483.938 237.706 483.938 239.447V244ZM482.817 240.459L481.129 240.691C480.609 240.764 480.217 240.894 479.953 241.081C479.689 241.263 479.557 241.589 479.557 242.059C479.557 242.4 479.677 242.681 479.919 242.899C480.165 243.114 480.491 243.221 480.896 243.221C481.452 243.221 481.91 243.027 482.271 242.64C482.635 242.248 482.817 241.753 482.817 241.156V240.459ZM485.627 243.747V242.544C486.238 242.995 486.91 243.221 487.644 243.221C488.628 243.221 489.12 242.893 489.12 242.236C489.12 242.049 489.077 241.892 488.99 241.765C488.908 241.632 488.794 241.516 488.648 241.416C488.507 241.316 488.339 241.227 488.143 241.149C487.951 241.067 487.744 240.983 487.521 240.896C487.211 240.773 486.937 240.65 486.7 240.527C486.468 240.4 486.272 240.258 486.112 240.104C485.957 239.944 485.839 239.764 485.757 239.563C485.679 239.363 485.641 239.128 485.641 238.859C485.641 238.531 485.716 238.242 485.866 237.991C486.017 237.736 486.217 237.524 486.468 237.355C486.718 237.182 487.003 237.052 487.322 236.966C487.646 236.879 487.979 236.836 488.32 236.836C488.926 236.836 489.469 236.941 489.947 237.15V238.285C489.432 237.948 488.84 237.779 488.17 237.779C487.96 237.779 487.771 237.804 487.603 237.854C487.434 237.9 487.288 237.966 487.165 238.053C487.047 238.139 486.953 238.244 486.885 238.367C486.821 238.486 486.789 238.618 486.789 238.764C486.789 238.946 486.821 239.099 486.885 239.222C486.953 239.345 487.051 239.454 487.179 239.55C487.306 239.646 487.461 239.732 487.644 239.81C487.826 239.887 488.033 239.971 488.266 240.062C488.576 240.181 488.854 240.304 489.1 240.432C489.346 240.555 489.555 240.696 489.729 240.855C489.902 241.01 490.034 241.19 490.125 241.396C490.221 241.601 490.269 241.844 490.269 242.127C490.269 242.473 490.191 242.774 490.036 243.029C489.886 243.285 489.683 243.496 489.428 243.665C489.173 243.834 488.879 243.959 488.546 244.041C488.213 244.123 487.865 244.164 487.5 244.164C486.78 244.164 486.156 244.025 485.627 243.747ZM491.574 243.747V242.544C492.185 242.995 492.857 243.221 493.591 243.221C494.575 243.221 495.067 242.893 495.067 242.236C495.067 242.049 495.024 241.892 494.938 241.765C494.855 241.632 494.742 241.516 494.596 241.416C494.454 241.316 494.286 241.227 494.09 241.149C493.898 241.067 493.691 240.983 493.468 240.896C493.158 240.773 492.884 240.65 492.647 240.527C492.415 240.4 492.219 240.258 492.06 240.104C491.905 239.944 491.786 239.764 491.704 239.563C491.627 239.363 491.588 239.128 491.588 238.859C491.588 238.531 491.663 238.242 491.813 237.991C491.964 237.736 492.164 237.524 492.415 237.355C492.666 237.182 492.951 237.052 493.27 236.966C493.593 236.879 493.926 236.836 494.268 236.836C494.874 236.836 495.416 236.941 495.895 237.15V238.285C495.38 237.948 494.787 237.779 494.117 237.779C493.908 237.779 493.718 237.804 493.55 237.854C493.381 237.9 493.235 237.966 493.112 238.053C492.994 238.139 492.9 238.244 492.832 238.367C492.768 238.486 492.736 238.618 492.736 238.764C492.736 238.946 492.768 239.099 492.832 239.222C492.9 239.345 492.998 239.454 493.126 239.55C493.254 239.646 493.409 239.732 493.591 239.81C493.773 239.887 493.98 239.971 494.213 240.062C494.523 240.181 494.801 240.304 495.047 240.432C495.293 240.555 495.503 240.696 495.676 240.855C495.849 241.01 495.981 241.19 496.072 241.396C496.168 241.601 496.216 241.844 496.216 242.127C496.216 242.473 496.138 242.774 495.983 243.029C495.833 243.285 495.63 243.496 495.375 243.665C495.12 243.834 494.826 243.959 494.493 244.041C494.16 244.123 493.812 244.164 493.447 244.164C492.727 244.164 492.103 244.025 491.574 243.747ZM503.571 240.78H498.629C498.647 241.56 498.857 242.161 499.258 242.585C499.659 243.009 500.21 243.221 500.912 243.221C501.701 243.221 502.425 242.961 503.086 242.441V243.494C502.471 243.941 501.657 244.164 500.646 244.164C499.657 244.164 498.88 243.847 498.314 243.214C497.749 242.576 497.467 241.68 497.467 240.527C497.467 239.438 497.774 238.552 498.39 237.868C499.009 237.18 499.777 236.836 500.693 236.836C501.609 236.836 502.318 237.132 502.819 237.725C503.321 238.317 503.571 239.14 503.571 240.192V240.78ZM502.423 239.83C502.418 239.183 502.261 238.679 501.951 238.319C501.646 237.959 501.22 237.779 500.673 237.779C500.144 237.779 499.695 237.968 499.326 238.347C498.957 238.725 498.729 239.219 498.643 239.83H502.423ZM504.85 243.747V242.544C505.46 242.995 506.132 243.221 506.866 243.221C507.851 243.221 508.343 242.893 508.343 242.236C508.343 242.049 508.299 241.892 508.213 241.765C508.131 241.632 508.017 241.516 507.871 241.416C507.73 241.316 507.561 241.227 507.365 241.149C507.174 241.067 506.966 240.983 506.743 240.896C506.433 240.773 506.16 240.65 505.923 240.527C505.69 240.4 505.494 240.258 505.335 240.104C505.18 239.944 505.062 239.764 504.979 239.563C504.902 239.363 504.863 239.128 504.863 238.859C504.863 238.531 504.938 238.242 505.089 237.991C505.239 237.736 505.44 237.524 505.69 237.355C505.941 237.182 506.226 237.052 506.545 236.966C506.868 236.879 507.201 236.836 507.543 236.836C508.149 236.836 508.691 236.941 509.17 237.15V238.285C508.655 237.948 508.062 237.779 507.393 237.779C507.183 237.779 506.994 237.804 506.825 237.854C506.657 237.9 506.511 237.966 506.388 238.053C506.269 238.139 506.176 238.244 506.107 238.367C506.044 238.486 506.012 238.618 506.012 238.764C506.012 238.946 506.044 239.099 506.107 239.222C506.176 239.345 506.274 239.454 506.401 239.55C506.529 239.646 506.684 239.732 506.866 239.81C507.049 239.887 507.256 239.971 507.488 240.062C507.798 240.181 508.076 240.304 508.322 240.432C508.568 240.555 508.778 240.696 508.951 240.855C509.124 241.01 509.257 241.19 509.348 241.396C509.443 241.601 509.491 241.844 509.491 242.127C509.491 242.473 509.414 242.774 509.259 243.029C509.108 243.285 508.906 243.496 508.65 243.665C508.395 243.834 508.101 243.959 507.769 244.041C507.436 244.123 507.087 244.164 506.723 244.164C506.003 244.164 505.378 244.025 504.85 243.747ZM510.797 243.747V242.544C511.408 242.995 512.08 243.221 512.813 243.221C513.798 243.221 514.29 242.893 514.29 242.236C514.29 242.049 514.247 241.892 514.16 241.765C514.078 241.632 513.964 241.516 513.818 241.416C513.677 241.316 513.508 241.227 513.312 241.149C513.121 241.067 512.914 240.983 512.69 240.896C512.381 240.773 512.107 240.65 511.87 240.527C511.638 240.4 511.442 240.258 511.282 240.104C511.127 239.944 511.009 239.764 510.927 239.563C510.849 239.363 510.811 239.128 510.811 238.859C510.811 238.531 510.886 238.242 511.036 237.991C511.187 237.736 511.387 237.524 511.638 237.355C511.888 237.182 512.173 237.052 512.492 236.966C512.816 236.879 513.148 236.836 513.49 236.836C514.096 236.836 514.639 236.941 515.117 237.15V238.285C514.602 237.948 514.01 237.779 513.34 237.779C513.13 237.779 512.941 237.804 512.772 237.854C512.604 237.9 512.458 237.966 512.335 238.053C512.216 238.139 512.123 238.244 512.055 238.367C511.991 238.486 511.959 238.618 511.959 238.764C511.959 238.946 511.991 239.099 512.055 239.222C512.123 239.345 512.221 239.454 512.349 239.55C512.476 239.646 512.631 239.732 512.813 239.81C512.996 239.887 513.203 239.971 513.436 240.062C513.745 240.181 514.023 240.304 514.27 240.432C514.516 240.555 514.725 240.696 514.898 240.855C515.072 241.01 515.204 241.19 515.295 241.396C515.391 241.601 515.438 241.844 515.438 242.127C515.438 242.473 515.361 242.774 515.206 243.029C515.056 243.285 514.853 243.496 514.598 243.665C514.342 243.834 514.049 243.959 513.716 244.041C513.383 244.123 513.035 244.164 512.67 244.164C511.95 244.164 511.326 244.025 510.797 243.747ZM527.107 244H525.986V239.98C525.986 239.206 525.866 238.645 525.624 238.299C525.387 237.952 524.986 237.779 524.421 237.779C523.942 237.779 523.535 237.998 523.197 238.436C522.865 238.873 522.698 239.397 522.698 240.008V244H521.577V239.844C521.577 238.467 521.046 237.779 519.984 237.779C519.492 237.779 519.087 237.987 518.768 238.401C518.449 238.812 518.289 239.347 518.289 240.008V244H517.168V237H518.289V238.107H518.316C518.813 237.26 519.538 236.836 520.49 236.836C520.969 236.836 521.386 236.97 521.741 237.239C522.097 237.504 522.34 237.852 522.473 238.285C522.992 237.319 523.767 236.836 524.797 236.836C526.337 236.836 527.107 237.786 527.107 239.687V244ZM534.853 240.78H529.91C529.928 241.56 530.138 242.161 530.539 242.585C530.94 243.009 531.492 243.221 532.193 243.221C532.982 243.221 533.706 242.961 534.367 242.441V243.494C533.752 243.941 532.938 244.164 531.927 244.164C530.938 244.164 530.161 243.847 529.596 243.214C529.031 242.576 528.748 241.68 528.748 240.527C528.748 239.438 529.056 238.552 529.671 237.868C530.291 237.18 531.059 236.836 531.975 236.836C532.891 236.836 533.599 237.132 534.101 237.725C534.602 238.317 534.853 239.14 534.853 240.192V240.78ZM533.704 239.83C533.7 239.183 533.542 238.679 533.232 238.319C532.927 237.959 532.501 237.779 531.954 237.779C531.425 237.779 530.977 237.968 530.607 238.347C530.238 238.725 530.01 239.219 529.924 239.83H533.704ZM542.365 244H541.244V240.008C541.244 238.522 540.702 237.779 539.617 237.779C539.057 237.779 538.592 237.991 538.223 238.415C537.858 238.834 537.676 239.365 537.676 240.008V244H536.555V237H537.676V238.162H537.703C538.232 237.278 538.997 236.836 540 236.836C540.766 236.836 541.351 237.084 541.757 237.581C542.162 238.073 542.365 238.786 542.365 239.721V244ZM547.731 243.932C547.467 244.077 547.118 244.15 546.686 244.15C545.46 244.15 544.847 243.467 544.847 242.1V237.957H543.644V237H544.847V235.291L545.968 234.929V237H547.731V237.957H545.968V241.901C545.968 242.371 546.048 242.706 546.207 242.906C546.367 243.107 546.631 243.207 547 243.207C547.283 243.207 547.526 243.13 547.731 242.975V243.932ZM548.805 243.747V242.544C549.415 242.995 550.088 243.221 550.821 243.221C551.806 243.221 552.298 242.893 552.298 242.236C552.298 242.049 552.255 241.892 552.168 241.765C552.086 241.632 551.972 241.516 551.826 241.416C551.685 241.316 551.516 241.227 551.32 241.149C551.129 241.067 550.922 240.983 550.698 240.896C550.388 240.773 550.115 240.65 549.878 240.527C549.646 240.4 549.45 240.258 549.29 240.104C549.135 239.944 549.017 239.764 548.935 239.563C548.857 239.363 548.818 239.128 548.818 238.859C548.818 238.531 548.894 238.242 549.044 237.991C549.194 237.736 549.395 237.524 549.646 237.355C549.896 237.182 550.181 237.052 550.5 236.966C550.824 236.879 551.156 236.836 551.498 236.836C552.104 236.836 552.646 236.941 553.125 237.15V238.285C552.61 237.948 552.018 237.779 551.348 237.779C551.138 237.779 550.949 237.804 550.78 237.854C550.612 237.9 550.466 237.966 550.343 238.053C550.224 238.139 550.131 238.244 550.062 238.367C549.999 238.486 549.967 238.618 549.967 238.764C549.967 238.946 549.999 239.099 550.062 239.222C550.131 239.345 550.229 239.454 550.356 239.55C550.484 239.646 550.639 239.732 550.821 239.81C551.004 239.887 551.211 239.971 551.443 240.062C551.753 240.181 552.031 240.304 552.277 240.432C552.523 240.555 552.733 240.696 552.906 240.855C553.079 241.01 553.212 241.19 553.303 241.396C553.398 241.601 553.446 241.844 553.446 242.127C553.446 242.473 553.369 242.774 553.214 243.029C553.063 243.285 552.861 243.496 552.605 243.665C552.35 243.834 552.056 243.959 551.724 244.041C551.391 244.123 551.042 244.164 550.678 244.164C549.958 244.164 549.333 244.025 548.805 243.747Z" fill="url(#paint5_linear_34_13297)"/>
<path d="M416.434 197.295V201H415.285V191.197H417.979C419.027 191.197 419.838 191.452 420.412 191.963C420.991 192.473 421.28 193.193 421.28 194.123C421.28 195.053 420.959 195.814 420.316 196.406C419.678 196.999 418.815 197.295 417.726 197.295H416.434ZM416.434 192.236V196.256H417.637C418.43 196.256 419.034 196.076 419.448 195.716C419.868 195.351 420.077 194.839 420.077 194.178C420.077 192.883 419.312 192.236 417.78 192.236H416.434ZM426.633 195.135C426.437 194.984 426.154 194.909 425.785 194.909C425.307 194.909 424.906 195.135 424.582 195.586C424.263 196.037 424.104 196.652 424.104 197.432V201H422.982V194H424.104V195.442H424.131C424.29 194.95 424.534 194.567 424.862 194.294C425.19 194.016 425.557 193.877 425.963 193.877C426.255 193.877 426.478 193.909 426.633 193.973V195.135ZM433.476 197.78H428.533C428.551 198.56 428.761 199.161 429.162 199.585C429.563 200.009 430.115 200.221 430.816 200.221C431.605 200.221 432.329 199.961 432.99 199.441V200.494C432.375 200.941 431.562 201.164 430.55 201.164C429.561 201.164 428.784 200.847 428.219 200.214C427.654 199.576 427.371 198.68 427.371 197.527C427.371 196.438 427.679 195.552 428.294 194.868C428.914 194.18 429.682 193.836 430.598 193.836C431.514 193.836 432.222 194.132 432.724 194.725C433.225 195.317 433.476 196.14 433.476 197.192V197.78ZM432.327 196.83C432.323 196.183 432.165 195.679 431.855 195.319C431.55 194.959 431.124 194.779 430.577 194.779C430.049 194.779 429.6 194.968 429.23 195.347C428.861 195.725 428.633 196.219 428.547 196.83H432.327ZM436.326 199.988H436.299V204.22H435.178V194H436.299V195.23H436.326C436.878 194.301 437.684 193.836 438.746 193.836C439.648 193.836 440.353 194.15 440.858 194.779C441.364 195.404 441.617 196.242 441.617 197.295C441.617 198.466 441.332 199.405 440.763 200.111C440.193 200.813 439.414 201.164 438.425 201.164C437.518 201.164 436.818 200.772 436.326 199.988ZM436.299 197.165V198.143C436.299 198.721 436.486 199.214 436.859 199.619C437.238 200.02 437.716 200.221 438.295 200.221C438.974 200.221 439.505 199.961 439.888 199.441C440.275 198.922 440.469 198.2 440.469 197.274C440.469 196.495 440.289 195.884 439.929 195.442C439.569 195 439.081 194.779 438.466 194.779C437.814 194.779 437.29 195.007 436.894 195.463C436.497 195.914 436.299 196.481 436.299 197.165ZM448.419 201H447.298V199.906H447.271C446.783 200.745 446.065 201.164 445.117 201.164C444.42 201.164 443.873 200.979 443.477 200.61C443.085 200.241 442.889 199.751 442.889 199.141C442.889 197.833 443.659 197.072 445.199 196.857L447.298 196.563C447.298 195.374 446.817 194.779 445.855 194.779C445.012 194.779 444.251 195.066 443.572 195.641V194.492C444.26 194.055 445.053 193.836 445.951 193.836C447.596 193.836 448.419 194.706 448.419 196.447V201ZM447.298 197.459L445.609 197.691C445.09 197.764 444.698 197.894 444.434 198.081C444.169 198.263 444.037 198.589 444.037 199.059C444.037 199.4 444.158 199.681 444.399 199.899C444.646 200.114 444.971 200.221 445.377 200.221C445.933 200.221 446.391 200.027 446.751 199.64C447.116 199.248 447.298 198.753 447.298 198.156V197.459ZM454.182 195.135C453.986 194.984 453.703 194.909 453.334 194.909C452.855 194.909 452.454 195.135 452.131 195.586C451.812 196.037 451.652 196.652 451.652 197.432V201H450.531V194H451.652V195.442H451.68C451.839 194.95 452.083 194.567 452.411 194.294C452.739 194.016 453.106 193.877 453.512 193.877C453.803 193.877 454.027 193.909 454.182 193.973V195.135ZM461.024 197.78H456.082C456.1 198.56 456.31 199.161 456.711 199.585C457.112 200.009 457.663 200.221 458.365 200.221C459.154 200.221 459.878 199.961 460.539 199.441V200.494C459.924 200.941 459.11 201.164 458.099 201.164C457.11 201.164 456.333 200.847 455.768 200.214C455.202 199.576 454.92 198.68 454.92 197.527C454.92 196.438 455.228 195.552 455.843 194.868C456.463 194.18 457.23 193.836 458.146 193.836C459.062 193.836 459.771 194.132 460.272 194.725C460.774 195.317 461.024 196.14 461.024 197.192V197.78ZM459.876 196.83C459.871 196.183 459.714 195.679 459.404 195.319C459.099 194.959 458.673 194.779 458.126 194.779C457.597 194.779 457.148 194.968 456.779 195.347C456.41 195.725 456.182 196.219 456.096 196.83H459.876ZM475.387 194L473.288 201H472.126L470.684 195.989C470.629 195.798 470.592 195.581 470.574 195.34H470.547C470.533 195.504 470.485 195.716 470.403 195.976L468.838 201H467.717L465.598 194H466.773L468.223 199.264C468.268 199.423 468.3 199.633 468.318 199.893H468.373C468.387 199.692 468.428 199.478 468.496 199.25L470.109 194H471.135L472.584 199.277C472.63 199.446 472.664 199.656 472.687 199.906H472.741C472.75 199.729 472.789 199.519 472.857 199.277L474.279 194H475.387ZM479.611 201.164C478.577 201.164 477.75 200.838 477.13 200.187C476.515 199.53 476.207 198.662 476.207 197.582C476.207 196.406 476.528 195.488 477.171 194.827C477.813 194.166 478.682 193.836 479.775 193.836C480.819 193.836 481.632 194.157 482.216 194.8C482.804 195.442 483.098 196.333 483.098 197.473C483.098 198.589 482.781 199.485 482.147 200.159C481.519 200.829 480.673 201.164 479.611 201.164ZM479.693 194.779C478.973 194.779 478.404 195.025 477.984 195.518C477.565 196.005 477.355 196.68 477.355 197.541C477.355 198.37 477.567 199.024 477.991 199.503C478.415 199.981 478.982 200.221 479.693 200.221C480.418 200.221 480.974 199.986 481.361 199.517C481.753 199.047 481.949 198.38 481.949 197.514C481.949 196.639 481.753 195.964 481.361 195.49C480.974 195.016 480.418 194.779 479.693 194.779ZM488.539 195.135C488.343 194.984 488.061 194.909 487.691 194.909C487.213 194.909 486.812 195.135 486.488 195.586C486.169 196.037 486.01 196.652 486.01 197.432V201H484.889V194H486.01V195.442H486.037C486.197 194.95 486.44 194.567 486.769 194.294C487.097 194.016 487.464 193.877 487.869 193.877C488.161 193.877 488.384 193.909 488.539 193.973V195.135ZM495.566 201H493.994L490.904 197.637H490.877V201H489.756V190.637H490.877V197.206H490.904L493.844 194H495.313L492.066 197.377L495.566 201ZM496.291 200.747V199.544C496.902 199.995 497.574 200.221 498.308 200.221C499.292 200.221 499.784 199.893 499.784 199.236C499.784 199.049 499.741 198.892 499.654 198.765C499.572 198.632 499.458 198.516 499.312 198.416C499.171 198.316 499.003 198.227 498.807 198.149C498.615 198.067 498.408 197.983 498.185 197.896C497.875 197.773 497.601 197.65 497.364 197.527C497.132 197.4 496.936 197.258 496.776 197.104C496.621 196.944 496.503 196.764 496.421 196.563C496.343 196.363 496.305 196.128 496.305 195.859C496.305 195.531 496.38 195.242 496.53 194.991C496.681 194.736 496.881 194.524 497.132 194.355C497.382 194.182 497.667 194.052 497.986 193.966C498.31 193.879 498.643 193.836 498.984 193.836C499.59 193.836 500.133 193.941 500.611 194.15V195.285C500.096 194.948 499.504 194.779 498.834 194.779C498.624 194.779 498.435 194.804 498.267 194.854C498.098 194.9 497.952 194.966 497.829 195.053C497.711 195.139 497.617 195.244 497.549 195.367C497.485 195.486 497.453 195.618 497.453 195.764C497.453 195.946 497.485 196.099 497.549 196.222C497.617 196.345 497.715 196.454 497.843 196.55C497.97 196.646 498.125 196.732 498.308 196.81C498.49 196.887 498.697 196.971 498.93 197.062C499.24 197.181 499.518 197.304 499.764 197.432C500.01 197.555 500.219 197.696 500.393 197.855C500.566 198.01 500.698 198.19 500.789 198.396C500.885 198.601 500.933 198.844 500.933 199.127C500.933 199.473 500.855 199.774 500.7 200.029C500.55 200.285 500.347 200.496 500.092 200.665C499.837 200.834 499.543 200.959 499.21 201.041C498.877 201.123 498.529 201.164 498.164 201.164C497.444 201.164 496.82 201.025 496.291 200.747ZM508.473 201H507.352V196.967C507.352 195.508 506.809 194.779 505.725 194.779C505.178 194.779 504.717 194.991 504.344 195.415C503.97 195.834 503.783 196.374 503.783 197.035V201H502.662V190.637H503.783V195.162H503.811C504.348 194.278 505.114 193.836 506.107 193.836C507.684 193.836 508.473 194.786 508.473 196.687V201ZM513.518 201.164C512.483 201.164 511.656 200.838 511.036 200.187C510.421 199.53 510.113 198.662 510.113 197.582C510.113 196.406 510.435 195.488 511.077 194.827C511.72 194.166 512.588 193.836 513.682 193.836C514.725 193.836 515.539 194.157 516.122 194.8C516.71 195.442 517.004 196.333 517.004 197.473C517.004 198.589 516.687 199.485 516.054 200.159C515.425 200.829 514.579 201.164 513.518 201.164ZM513.6 194.779C512.88 194.779 512.31 195.025 511.891 195.518C511.471 196.005 511.262 196.68 511.262 197.541C511.262 198.37 511.474 199.024 511.897 199.503C512.321 199.981 512.889 200.221 513.6 200.221C514.324 200.221 514.88 199.986 515.268 199.517C515.66 199.047 515.855 198.38 515.855 197.514C515.855 196.639 515.66 195.964 515.268 195.49C514.88 195.016 514.324 194.779 513.6 194.779ZM519.943 199.988H519.916V204.22H518.795V194H519.916V195.23H519.943C520.495 194.301 521.301 193.836 522.363 193.836C523.266 193.836 523.97 194.15 524.476 194.779C524.981 195.404 525.234 196.242 525.234 197.295C525.234 198.466 524.95 199.405 524.38 200.111C523.81 200.813 523.031 201.164 522.042 201.164C521.135 201.164 520.436 200.772 519.943 199.988ZM519.916 197.165V198.143C519.916 198.721 520.103 199.214 520.477 199.619C520.855 200.02 521.333 200.221 521.912 200.221C522.591 200.221 523.122 199.961 523.505 199.441C523.892 198.922 524.086 198.2 524.086 197.274C524.086 196.495 523.906 195.884 523.546 195.442C523.186 195 522.698 194.779 522.083 194.779C521.431 194.779 520.907 195.007 520.511 195.463C520.114 195.914 519.916 196.481 519.916 197.165ZM526.602 200.747V199.544C527.212 199.995 527.884 200.221 528.618 200.221C529.603 200.221 530.095 199.893 530.095 199.236C530.095 199.049 530.051 198.892 529.965 198.765C529.883 198.632 529.769 198.516 529.623 198.416C529.482 198.316 529.313 198.227 529.117 198.149C528.926 198.067 528.718 197.983 528.495 197.896C528.185 197.773 527.912 197.65 527.675 197.527C527.442 197.4 527.246 197.258 527.087 197.104C526.932 196.944 526.813 196.764 526.731 196.563C526.654 196.363 526.615 196.128 526.615 195.859C526.615 195.531 526.69 195.242 526.841 194.991C526.991 194.736 527.192 194.524 527.442 194.355C527.693 194.182 527.978 194.052 528.297 193.966C528.62 193.879 528.953 193.836 529.295 193.836C529.901 193.836 530.443 193.941 530.922 194.15V195.285C530.407 194.948 529.814 194.779 529.145 194.779C528.935 194.779 528.746 194.804 528.577 194.854C528.409 194.9 528.263 194.966 528.14 195.053C528.021 195.139 527.928 195.244 527.859 195.367C527.796 195.486 527.764 195.618 527.764 195.764C527.764 195.946 527.796 196.099 527.859 196.222C527.928 196.345 528.026 196.454 528.153 196.55C528.281 196.646 528.436 196.732 528.618 196.81C528.8 196.887 529.008 196.971 529.24 197.062C529.55 197.181 529.828 197.304 530.074 197.432C530.32 197.555 530.53 197.696 530.703 197.855C530.876 198.01 531.008 198.19 531.1 198.396C531.195 198.601 531.243 198.844 531.243 199.127C531.243 199.473 531.166 199.774 531.011 200.029C530.86 200.285 530.658 200.496 530.402 200.665C530.147 200.834 529.853 200.959 529.521 201.041C529.188 201.123 528.839 201.164 528.475 201.164C527.755 201.164 527.13 201.025 526.602 200.747Z" fill="url(#paint6_linear_34_13297)"/>
<path d="M377 142.5C377 140.567 378.567 139 380.5 139H399.5C401.433 139 403 140.567 403 142.5V161.5C403 163.433 401.433 165 399.5 165H380.5C378.567 165 377 163.433 377 161.5V142.5Z" fill="url(#paint7_linear_34_13297)"/>
<path d="M377 142.5C377 140.567 378.567 139 380.5 139H399.5C401.433 139 403 140.567 403 142.5V161.5C403 163.433 401.433 165 399.5 165H380.5C378.567 165 377 163.433 377 161.5V142.5Z" fill="url(#paint8_radial_34_13297)" fill-opacity="0.2"/>
<path fill-rule="evenodd" clip-rule="evenodd" d="M399.5 140H380.5C379.119 140 378 141.119 378 142.5V161.5C378 162.881 379.119 164 380.5 164H399.5C400.881 164 402 162.881 402 161.5V142.5C402 141.119 400.881 140 399.5 140ZM380.5 139C378.567 139 377 140.567 377 142.5V161.5C377 163.433 378.567 165 380.5 165H399.5C401.433 165 403 163.433 403 161.5V142.5C403 140.567 401.433 139 399.5 139H380.5Z" fill="url(#paint9_linear_34_13297)"/>
<path d="M382.025 151.256L383.025 148.439C383.061 148.322 383.134 148.224 383.206 148.146L383.734 147.579L383.461 147.266C383.315 147.109 383.315 146.835 383.461 146.679L384.024 146.072C384.17 145.916 384.424 145.916 384.57 146.072L384.86 146.366L386.478 144.625C386.623 144.468 386.878 144.468 387.023 144.625L388.786 146.542C388.932 146.698 388.932 146.972 388.786 147.129L387.223 148.83L396.274 158.142C396.42 158.298 396.42 158.572 396.274 158.729L395.202 159.883C395.057 160.039 394.802 160.039 394.657 159.883L386.005 150.141L385.551 150.63C385.46 150.728 385.351 150.787 385.242 150.826L382.516 151.784C382.37 151.823 382.225 151.784 382.116 151.667C382.007 151.569 381.971 151.393 382.025 151.256Z" fill="url(#paint10_linear_34_13297)"/>
<path d="M392.93 148.165L390.567 146.483C390.477 146.405 390.422 146.307 390.404 146.19C390.404 146.072 390.44 145.955 390.513 145.857L392.149 144.116C392.276 143.979 392.494 143.96 392.639 144.077L395.42 146.072C395.438 146.072 395.457 146.092 395.457 146.111L395.475 146.131L396.002 146.698L396.038 146.737L396.056 146.757V146.777L397.928 149.711C398.037 149.867 398.019 150.102 397.892 150.239L396.256 151.98C396.184 152.058 396.056 152.117 395.947 152.097C395.838 152.078 395.729 152.019 395.656 151.921L394.13 149.456L391.658 152.234L390.313 150.845L392.93 148.165Z" fill="url(#paint11_linear_34_13297)"/>
<path d="M384.86 159.883C384.715 160.039 384.46 160.039 384.315 159.883L383.224 158.709C383.079 158.552 383.079 158.279 383.224 158.122L387.823 153.408L389.222 154.973L384.86 159.883Z" fill="url(#paint12_linear_34_13297)"/>
<path d="M377 186.5C377 184.567 378.567 183 380.5 183H399.5C401.433 183 403 184.567 403 186.5V205.5C403 207.433 401.433 209 399.5 209H380.5C378.567 209 377 207.433 377 205.5V186.5Z" fill="url(#paint13_linear_34_13297)"/>
<path d="M377 186.5C377 184.567 378.567 183 380.5 183H399.5C401.433 183 403 184.567 403 186.5V205.5C403 207.433 401.433 209 399.5 209H380.5C378.567 209 377 207.433 377 205.5V186.5Z" fill="url(#paint14_radial_34_13297)" fill-opacity="0.2"/>
<path fill-rule="evenodd" clip-rule="evenodd" d="M399.5 184H380.5C379.119 184 378 185.119 378 186.5V205.5C378 206.881 379.119 208 380.5 208H399.5C400.881 208 402 206.881 402 205.5V186.5C402 185.119 400.881 184 399.5 184ZM380.5 183C378.567 183 377 184.567 377 186.5V205.5C377 207.433 378.567 209 380.5 209H399.5C401.433 209 403 207.433 403 205.5V186.5C403 184.567 401.433 183 399.5 183H380.5Z" fill="url(#paint15_linear_34_13297)"/>
<path d="M391.792 191.458C391.792 192.271 391.146 192.917 390.333 192.917C389.521 192.917 388.875 192.271 388.875 191.458C388.875 190.646 389.521 190 390.333 190C391.146 190 391.792 190.667 391.792 191.458Z" fill="url(#paint16_linear_34_13297)"/>
<path d="M397.625 192.292C397.625 193.104 396.979 193.75 396.167 193.75C395.354 193.75 394.708 193.104 394.708 192.292C394.708 191.479 395.354 190.833 396.167 190.833C396.979 190.833 397.625 191.479 397.625 192.292Z" fill="url(#paint17_linear_34_13297)"/>
<path d="M385.958 192.292C385.958 193.104 385.312 193.75 384.5 193.75C383.687 193.75 383.042 193.104 383.042 192.292C383.042 191.479 383.687 190.833 384.5 190.833C385.312 190.833 385.958 191.479 385.958 192.292Z" fill="url(#paint18_linear_34_13297)"/>
<path d="M382.125 201.708C382.125 198.667 385.792 196.208 390.333 196.208C394.854 196.208 398.542 198.667 398.542 201.708H382.125Z" fill="url(#paint19_linear_34_13297)"/>
<path d="M384 196.979C384.875 196.396 385.896 195.937 387 195.646V195.417C387 195.187 386.896 194.958 386.75 194.812C386.687 194.75 386.542 194.667 386.354 194.583C385.208 194.042 383.854 194.042 382.687 194.562C382.479 194.646 382.312 194.75 382.229 194.812C382.104 194.958 382 195.187 382 195.417V198.958C382.479 198.229 383.146 197.542 384 196.979Z" fill="url(#paint20_linear_34_13297)"/>
<path d="M392.833 195.438V194.583C392.833 194.354 392.729 194.125 392.583 193.979C392.521 193.917 392.375 193.833 392.188 193.75C391.042 193.208 389.687 193.208 388.521 193.729C388.312 193.813 388.146 193.917 388.062 193.979C387.896 194.125 387.812 194.354 387.812 194.583V195.438C388.625 195.271 389.458 195.188 390.312 195.188C391.167 195.188 392.021 195.292 392.833 195.438Z" fill="url(#paint21_linear_34_13297)"/>
<path d="M398.667 198.958V195.417C398.667 195.187 398.563 194.958 398.417 194.812C398.354 194.75 398.208 194.667 398.021 194.583C396.875 194.042 395.521 194.042 394.354 194.562C394.146 194.646 393.979 194.75 393.896 194.812C393.729 194.958 393.646 195.187 393.646 195.417V195.646C394.75 195.937 395.771 196.396 396.646 196.979C397.521 197.542 398.188 198.229 398.667 198.958Z" fill="url(#paint22_linear_34_13297)"/>
<path d="M377 229.5C377 227.567 378.567 226 380.5 226H399.5C401.433 226 403 227.567 403 229.5V248.5C403 250.433 401.433 252 399.5 252H380.5C378.567 252 377 250.433 377 248.5V229.5Z" fill="url(#paint23_linear_34_13297)"/>
<path d="M377 229.5C377 227.567 378.567 226 380.5 226H399.5C401.433 226 403 227.567 403 229.5V248.5C403 250.433 401.433 252 399.5 252H380.5C378.567 252 377 250.433 377 248.5V229.5Z" fill="url(#paint24_radial_34_13297)" fill-opacity="0.2"/>
<path fill-rule="evenodd" clip-rule="evenodd" d="M399.5 227H380.5C379.119 227 378 228.119 378 229.5V248.5C378 249.881 379.119 251 380.5 251H399.5C400.881 251 402 249.881 402 248.5V229.5C402 228.119 400.881 227 399.5 227ZM380.5 226C378.567 226 377 227.567 377 229.5V248.5C377 250.433 378.567 252 380.5 252H399.5C401.433 252 403 250.433 403 248.5V229.5C403 227.567 401.433 226 399.5 226H380.5Z" fill="url(#paint25_linear_34_13297)"/>
<path d="M395.209 245.083H384.792V232.167H387.084V233.417H392.917V232.167H395.209V245.083ZM390 230.5C390.346 230.5 390.625 230.78 390.625 231.125C390.625 231.47 390.346 231.75 390 231.75C389.655 231.75 389.375 231.47 389.375 231.125C389.37 230.785 389.64 230.506 389.98 230.5C389.987 230.5 389.993 230.5 390 230.5ZM395.625 230.917H392.084V230.5C392.084 230.04 391.711 229.667 391.25 229.667H388.75C388.29 229.667 387.917 230.04 387.917 230.5V230.917H384.375C383.915 230.917 383.542 231.29 383.542 231.75V245.5C383.542 245.96 383.915 246.333 384.375 246.333H395.625C396.086 246.333 396.459 245.96 396.459 245.5V231.75C396.459 231.29 396.086 230.917 395.625 230.917Z" fill="url(#paint26_linear_34_13297)"/>
<path d="M388.555 239.888L388.112 239.446L387.5 240.058L386.888 239.446L386.446 239.888L387.058 240.5L386.446 241.112L386.888 241.554L387.5 240.942L388.112 241.554L388.555 241.112L387.942 240.5L388.555 239.888Z" fill="url(#paint27_linear_34_13297)"/>
<path d="M388.112 241.946L387.5 242.558L386.888 241.946L386.446 242.388L387.058 243L386.446 243.612L386.888 244.054L387.5 243.442L388.112 244.054L388.555 243.612L387.942 243L388.555 242.388L388.112 241.946Z" fill="url(#paint28_linear_34_13297)"/>
<path d="M390.417 240.083H393.959V240.917H390.417V240.083Z" fill="url(#paint29_linear_34_13297)"/>
<path d="M390.417 242.583H393.959V243.417H390.417V242.583Z" fill="url(#paint30_linear_34_13297)"/>
<path d="M390.417 235.083H393.959V235.917H390.417V235.083Z" fill="url(#paint31_linear_34_13297)"/>
<path d="M390.417 237.583H393.959V238.417H390.417V237.583Z" fill="url(#paint32_linear_34_13297)"/>
<path d="M386.189 235.458L386.625 235.022L387.167 235.564L388.542 234.189L388.978 234.625L387.167 236.436L386.189 235.458Z" fill="url(#paint33_linear_34_13297)"/>
<path d="M386.189 237.958L386.625 237.522L387.167 238.064L388.542 236.689L388.978 237.125L387.167 238.936L386.189 237.958Z" fill="url(#paint34_linear_34_13297)"/>
<path d="M368.75 241.998C368.751 242.412 368.416 242.749 368.002 242.75L361.252 242.766C360.838 242.767 360.501 242.432 360.5 242.017C360.499 241.603 360.834 241.267 361.248 241.266L367.248 241.252L367.234 235.252C367.233 234.838 367.568 234.501 367.983 234.5C368.397 234.499 368.733 234.834 368.734 235.248L368.75 241.998ZM367.451 198.489C367.733 198.186 368.208 198.169 368.511 198.451C368.814 198.733 368.831 199.208 368.549 199.511L367.451 198.489ZM367.471 242.532C355.166 230.283 355.194 211.665 367.451 198.489L368.549 199.511C356.806 212.135 356.834 229.828 368.529 241.468L367.471 242.532Z" fill="#8198AE"/>
<path d="M368.75 194C368.75 194.414 368.414 194.75 368 194.75H361.25C360.836 194.75 360.5 194.414 360.5 194C360.5 193.586 360.836 193.25 361.25 193.25H367.25V187.25C367.25 186.836 367.586 186.5 368 186.5C368.414 186.5 368.75 186.836 368.75 187.25V194ZM367.459 148.48C367.746 148.182 368.221 148.172 368.52 148.459C368.818 148.746 368.828 149.221 368.541 149.52L367.459 148.48ZM367.47 194.53C354.671 181.732 354.686 161.765 367.459 148.48L368.541 149.52C356.314 162.235 356.329 181.268 368.53 193.47L367.47 194.53Z" fill="#8198AE"/>
<path d="M415.285 281V271.197H417.992C421.447 271.197 423.174 272.79 423.174 275.976C423.174 277.489 422.693 278.705 421.731 279.626C420.774 280.542 419.492 281 417.883 281H415.285ZM416.434 272.236V279.961H417.896C419.182 279.961 420.182 279.617 420.897 278.929C421.613 278.241 421.971 277.265 421.971 276.003C421.971 273.492 420.635 272.236 417.965 272.236H416.434ZM430.577 277.78H425.635C425.653 278.56 425.863 279.161 426.264 279.585C426.665 280.009 427.216 280.221 427.918 280.221C428.706 280.221 429.431 279.961 430.092 279.441V280.494C429.477 280.941 428.663 281.164 427.651 281.164C426.662 281.164 425.885 280.847 425.32 280.214C424.755 279.576 424.473 278.68 424.473 277.527C424.473 276.438 424.78 275.552 425.396 274.868C426.015 274.18 426.783 273.836 427.699 273.836C428.615 273.836 429.324 274.132 429.825 274.725C430.326 275.317 430.577 276.14 430.577 277.192V277.78ZM429.429 276.83C429.424 276.183 429.267 275.679 428.957 275.319C428.652 274.959 428.226 274.779 427.679 274.779C427.15 274.779 426.701 274.968 426.332 275.347C425.963 275.725 425.735 276.219 425.648 276.83H429.429ZM437.051 280.679C436.513 281.002 435.875 281.164 435.137 281.164C434.139 281.164 433.332 280.84 432.717 280.193C432.106 279.542 431.801 278.699 431.801 277.664C431.801 276.511 432.131 275.586 432.792 274.889C433.453 274.187 434.335 273.836 435.438 273.836C436.053 273.836 436.595 273.95 437.064 274.178V275.326C436.545 274.962 435.989 274.779 435.396 274.779C434.681 274.779 434.093 275.037 433.633 275.552C433.177 276.062 432.949 276.734 432.949 277.568C432.949 278.389 433.163 279.036 433.592 279.51C434.025 279.984 434.604 280.221 435.328 280.221C435.939 280.221 436.513 280.018 437.051 279.612V280.679ZM439.32 272.223C439.12 272.223 438.949 272.154 438.808 272.018C438.666 271.881 438.596 271.708 438.596 271.498C438.596 271.288 438.666 271.115 438.808 270.979C438.949 270.837 439.12 270.767 439.32 270.767C439.525 270.767 439.699 270.837 439.84 270.979C439.986 271.115 440.059 271.288 440.059 271.498C440.059 271.699 439.986 271.869 439.84 272.011C439.699 272.152 439.525 272.223 439.32 272.223ZM439.867 281H438.746V274H439.867V281ZM448.111 281H446.99V279.811H446.963C446.443 280.713 445.641 281.164 444.557 281.164C443.677 281.164 442.973 280.852 442.444 280.228C441.92 279.599 441.658 278.744 441.658 277.664C441.658 276.507 441.95 275.579 442.533 274.882C443.117 274.185 443.894 273.836 444.864 273.836C445.826 273.836 446.525 274.214 446.963 274.971H446.99V270.637H448.111V281ZM446.99 277.835V276.803C446.99 276.238 446.803 275.759 446.43 275.367C446.056 274.975 445.582 274.779 445.008 274.779C444.324 274.779 443.786 275.03 443.395 275.531C443.003 276.033 442.807 276.725 442.807 277.609C442.807 278.416 442.993 279.054 443.367 279.523C443.745 279.988 444.251 280.221 444.885 280.221C445.509 280.221 446.015 279.995 446.402 279.544C446.794 279.093 446.99 278.523 446.99 277.835ZM456.007 277.78H451.064C451.083 278.56 451.292 279.161 451.693 279.585C452.094 280.009 452.646 280.221 453.348 280.221C454.136 280.221 454.861 279.961 455.521 279.441V280.494C454.906 280.941 454.093 281.164 453.081 281.164C452.092 281.164 451.315 280.847 450.75 280.214C450.185 279.576 449.902 278.68 449.902 277.527C449.902 276.438 450.21 275.552 450.825 274.868C451.445 274.18 452.213 273.836 453.129 273.836C454.045 273.836 454.754 274.132 455.255 274.725C455.756 275.317 456.007 276.14 456.007 277.192V277.78ZM454.858 276.83C454.854 276.183 454.697 275.679 454.387 275.319C454.081 274.959 453.655 274.779 453.108 274.779C452.58 274.779 452.131 274.968 451.762 275.347C451.393 275.725 451.165 276.219 451.078 276.83H454.858ZM464.798 280.932C464.534 281.077 464.185 281.15 463.752 281.15C462.526 281.15 461.913 280.467 461.913 279.1V274.957H460.71V274H461.913V272.291L463.034 271.929V274H464.798V274.957H463.034V278.901C463.034 279.371 463.114 279.706 463.273 279.906C463.433 280.107 463.697 280.207 464.066 280.207C464.349 280.207 464.593 280.13 464.798 279.975V280.932ZM472.105 281H470.984V276.967C470.984 275.508 470.442 274.779 469.357 274.779C468.811 274.779 468.35 274.991 467.977 275.415C467.603 275.834 467.416 276.374 467.416 277.035V281H466.295V270.637H467.416V275.162H467.443C467.981 274.278 468.747 273.836 469.74 273.836C471.317 273.836 472.105 274.786 472.105 276.687V281ZM479.851 277.78H474.908C474.926 278.56 475.136 279.161 475.537 279.585C475.938 280.009 476.49 280.221 477.191 280.221C477.98 280.221 478.704 279.961 479.365 279.441V280.494C478.75 280.941 477.937 281.164 476.925 281.164C475.936 281.164 475.159 280.847 474.594 280.214C474.029 279.576 473.746 278.68 473.746 277.527C473.746 276.438 474.054 275.552 474.669 274.868C475.289 274.18 476.057 273.836 476.973 273.836C477.889 273.836 478.597 274.132 479.099 274.725C479.6 275.317 479.851 276.14 479.851 277.192V277.78ZM478.702 276.83C478.698 276.183 478.54 275.679 478.23 275.319C477.925 274.959 477.499 274.779 476.952 274.779C476.424 274.779 475.975 274.968 475.605 275.347C475.236 275.725 475.008 276.219 474.922 276.83H478.702ZM485.545 281V271.197H488.334C489.182 271.197 489.854 271.405 490.351 271.819C490.847 272.234 491.096 272.774 491.096 273.439C491.096 273.995 490.945 274.479 490.645 274.889C490.344 275.299 489.929 275.59 489.4 275.764V275.791C490.061 275.868 490.59 276.119 490.986 276.543C491.383 276.962 491.581 277.509 491.581 278.184C491.581 279.022 491.28 279.701 490.679 280.221C490.077 280.74 489.318 281 488.402 281H485.545ZM486.693 272.236V275.401H487.869C488.498 275.401 488.993 275.251 489.353 274.95C489.713 274.645 489.893 274.216 489.893 273.665C489.893 272.713 489.266 272.236 488.013 272.236H486.693ZM486.693 276.434V279.961H488.252C488.926 279.961 489.448 279.801 489.817 279.482C490.191 279.163 490.378 278.726 490.378 278.17C490.378 277.012 489.59 276.434 488.013 276.434H486.693ZM494.719 281H493.57V271.197H494.719V281ZM504.453 271.621C504.234 271.498 503.986 271.437 503.708 271.437C502.924 271.437 502.532 271.931 502.532 272.92V274H504.173V274.957H502.532V281H501.418V274.957H500.222V274H501.418V272.865C501.418 272.132 501.63 271.553 502.054 271.129C502.478 270.701 503.006 270.486 503.64 270.486C503.981 270.486 504.253 270.527 504.453 270.609V271.621ZM508.309 281.164C507.274 281.164 506.447 280.838 505.827 280.187C505.212 279.53 504.904 278.662 504.904 277.582C504.904 276.406 505.226 275.488 505.868 274.827C506.511 274.166 507.379 273.836 508.473 273.836C509.516 273.836 510.33 274.157 510.913 274.8C511.501 275.442 511.795 276.333 511.795 277.473C511.795 278.589 511.478 279.485 510.845 280.159C510.216 280.829 509.37 281.164 508.309 281.164ZM508.391 274.779C507.671 274.779 507.101 275.025 506.682 275.518C506.262 276.005 506.053 276.68 506.053 277.541C506.053 278.37 506.265 279.024 506.688 279.503C507.112 279.981 507.68 280.221 508.391 280.221C509.115 280.221 509.671 279.986 510.059 279.517C510.451 279.047 510.646 278.38 510.646 277.514C510.646 276.639 510.451 275.964 510.059 275.49C509.671 275.016 509.115 274.779 508.391 274.779ZM518.357 280.679C517.82 281.002 517.182 281.164 516.443 281.164C515.445 281.164 514.639 280.84 514.023 280.193C513.413 279.542 513.107 278.699 513.107 277.664C513.107 276.511 513.438 275.586 514.099 274.889C514.759 274.187 515.641 273.836 516.744 273.836C517.359 273.836 517.902 273.95 518.371 274.178V275.326C517.852 274.962 517.296 274.779 516.703 274.779C515.988 274.779 515.4 275.037 514.939 275.552C514.484 276.062 514.256 276.734 514.256 277.568C514.256 278.389 514.47 279.036 514.898 279.51C515.331 279.984 515.91 280.221 516.635 280.221C517.245 280.221 517.82 280.018 518.357 279.612V280.679ZM525.713 281H524.592V279.893H524.564C524.1 280.74 523.38 281.164 522.404 281.164C520.736 281.164 519.902 280.171 519.902 278.184V274H521.017V278.006C521.017 279.482 521.582 280.221 522.712 280.221C523.259 280.221 523.708 280.02 524.059 279.619C524.414 279.214 524.592 278.685 524.592 278.033V274H525.713V281ZM527.559 280.747V279.544C528.169 279.995 528.841 280.221 529.575 280.221C530.56 280.221 531.052 279.893 531.052 279.236C531.052 279.049 531.008 278.892 530.922 278.765C530.84 278.632 530.726 278.516 530.58 278.416C530.439 278.316 530.27 278.227 530.074 278.149C529.883 278.067 529.675 277.983 529.452 277.896C529.142 277.773 528.869 277.65 528.632 277.527C528.399 277.4 528.203 277.258 528.044 277.104C527.889 276.944 527.771 276.764 527.688 276.563C527.611 276.363 527.572 276.128 527.572 275.859C527.572 275.531 527.647 275.242 527.798 274.991C527.948 274.736 528.149 274.524 528.399 274.355C528.65 274.182 528.935 274.052 529.254 273.966C529.577 273.879 529.91 273.836 530.252 273.836C530.858 273.836 531.4 273.941 531.879 274.15V275.285C531.364 274.948 530.771 274.779 530.102 274.779C529.892 274.779 529.703 274.804 529.534 274.854C529.366 274.9 529.22 274.966 529.097 275.053C528.978 275.139 528.885 275.244 528.816 275.367C528.753 275.486 528.721 275.618 528.721 275.764C528.721 275.946 528.753 276.099 528.816 276.222C528.885 276.345 528.983 276.454 529.11 276.55C529.238 276.646 529.393 276.732 529.575 276.81C529.757 276.887 529.965 276.971 530.197 277.062C530.507 277.181 530.785 277.304 531.031 277.432C531.277 277.555 531.487 277.696 531.66 277.855C531.833 278.01 531.965 278.19 532.057 278.396C532.152 278.601 532.2 278.844 532.2 279.127C532.2 279.473 532.123 279.774 531.968 280.029C531.817 280.285 531.615 280.496 531.359 280.665C531.104 280.834 530.81 280.959 530.478 281.041C530.145 281.123 529.796 281.164 529.432 281.164C528.712 281.164 528.087 281.025 527.559 280.747ZM542.782 281H541.661V279.906H541.634C541.146 280.745 540.428 281.164 539.48 281.164C538.783 281.164 538.236 280.979 537.84 280.61C537.448 280.241 537.252 279.751 537.252 279.141C537.252 277.833 538.022 277.072 539.562 276.857L541.661 276.563C541.661 275.374 541.18 274.779 540.219 274.779C539.376 274.779 538.615 275.066 537.936 275.641V274.492C538.624 274.055 539.417 273.836 540.314 273.836C541.96 273.836 542.782 274.706 542.782 276.447V281ZM541.661 277.459L539.973 277.691C539.453 277.764 539.061 277.894 538.797 278.081C538.533 278.263 538.4 278.589 538.4 279.059C538.4 279.4 538.521 279.681 538.763 279.899C539.009 280.114 539.335 280.221 539.74 280.221C540.296 280.221 540.754 280.027 541.114 279.64C541.479 279.248 541.661 278.753 541.661 278.156V277.459ZM548.545 275.135C548.349 274.984 548.066 274.909 547.697 274.909C547.219 274.909 546.818 275.135 546.494 275.586C546.175 276.037 546.016 276.652 546.016 277.432V281H544.895V274H546.016V275.442H546.043C546.202 274.95 546.446 274.567 546.774 274.294C547.103 274.016 547.469 273.877 547.875 273.877C548.167 273.877 548.39 273.909 548.545 273.973V275.135ZM555.388 277.78H550.445C550.464 278.56 550.673 279.161 551.074 279.585C551.475 280.009 552.027 280.221 552.729 280.221C553.517 280.221 554.242 279.961 554.902 279.441V280.494C554.287 280.941 553.474 281.164 552.462 281.164C551.473 281.164 550.696 280.847 550.131 280.214C549.566 279.576 549.283 278.68 549.283 277.527C549.283 276.438 549.591 275.552 550.206 274.868C550.826 274.18 551.594 273.836 552.51 273.836C553.426 273.836 554.134 274.132 554.636 274.725C555.137 275.317 555.388 276.14 555.388 277.192V277.78ZM554.239 276.83C554.235 276.183 554.077 275.679 553.768 275.319C553.462 274.959 553.036 274.779 552.489 274.779C551.961 274.779 551.512 274.968 551.143 275.347C550.773 275.725 550.546 276.219 550.459 276.83H554.239ZM562.101 281H560.979V279.906H560.952C560.465 280.745 559.747 281.164 558.799 281.164C558.102 281.164 557.555 280.979 557.158 280.61C556.766 280.241 556.57 279.751 556.57 279.141C556.57 277.833 557.34 277.072 558.881 276.857L560.979 276.563C560.979 275.374 560.499 274.779 559.537 274.779C558.694 274.779 557.933 275.066 557.254 275.641V274.492C557.942 274.055 558.735 273.836 559.633 273.836C561.278 273.836 562.101 274.706 562.101 276.447V281ZM560.979 277.459L559.291 277.691C558.771 277.764 558.38 277.894 558.115 278.081C557.851 278.263 557.719 278.589 557.719 279.059C557.719 279.4 557.84 279.681 558.081 279.899C558.327 280.114 558.653 280.221 559.059 280.221C559.615 280.221 560.073 280.027 560.433 279.64C560.797 279.248 560.979 278.753 560.979 278.156V277.459ZM563.789 280.747V279.544C564.4 279.995 565.072 280.221 565.806 280.221C566.79 280.221 567.282 279.893 567.282 279.236C567.282 279.049 567.239 278.892 567.152 278.765C567.07 278.632 566.956 278.516 566.811 278.416C566.669 278.316 566.501 278.227 566.305 278.149C566.113 278.067 565.906 277.983 565.683 277.896C565.373 277.773 565.099 277.65 564.862 277.527C564.63 277.4 564.434 277.258 564.274 277.104C564.119 276.944 564.001 276.764 563.919 276.563C563.841 276.363 563.803 276.128 563.803 275.859C563.803 275.531 563.878 275.242 564.028 274.991C564.179 274.736 564.379 274.524 564.63 274.355C564.881 274.182 565.165 274.052 565.484 273.966C565.808 273.879 566.141 273.836 566.482 273.836C567.089 273.836 567.631 273.941 568.109 274.15V275.285C567.594 274.948 567.002 274.779 566.332 274.779C566.122 274.779 565.933 274.804 565.765 274.854C565.596 274.9 565.45 274.966 565.327 275.053C565.209 275.139 565.115 275.244 565.047 275.367C564.983 275.486 564.951 275.618 564.951 275.764C564.951 275.946 564.983 276.099 565.047 276.222C565.115 276.345 565.213 276.454 565.341 276.55C565.468 276.646 565.623 276.732 565.806 276.81C565.988 276.887 566.195 276.971 566.428 277.062C566.738 277.181 567.016 277.304 567.262 277.432C567.508 277.555 567.717 277.696 567.891 277.855C568.064 278.01 568.196 278.19 568.287 278.396C568.383 278.601 568.431 278.844 568.431 279.127C568.431 279.473 568.353 279.774 568.198 280.029C568.048 280.285 567.845 280.496 567.59 280.665C567.335 280.834 567.041 280.959 566.708 281.041C566.375 281.123 566.027 281.164 565.662 281.164C564.942 281.164 564.318 281.025 563.789 280.747ZM420.146 300H419.024V298.906H418.997C418.509 299.745 417.792 300.164 416.844 300.164C416.146 300.164 415.6 299.979 415.203 299.61C414.811 299.241 414.615 298.751 414.615 298.141C414.615 296.833 415.385 296.072 416.926 295.857L419.024 295.563C419.024 294.374 418.544 293.779 417.582 293.779C416.739 293.779 415.978 294.066 415.299 294.641V293.492C415.987 293.055 416.78 292.836 417.678 292.836C419.323 292.836 420.146 293.706 420.146 295.447V300ZM419.024 296.459L417.336 296.691C416.816 296.764 416.424 296.894 416.16 297.081C415.896 297.263 415.764 297.589 415.764 298.059C415.764 298.4 415.884 298.681 416.126 298.899C416.372 299.114 416.698 299.221 417.104 299.221C417.66 299.221 418.118 299.027 418.478 298.64C418.842 298.248 419.024 297.753 419.024 297.156V296.459ZM428.068 300H426.947V296.008C426.947 294.522 426.405 293.779 425.32 293.779C424.76 293.779 424.295 293.991 423.926 294.415C423.561 294.834 423.379 295.365 423.379 296.008V300H422.258V293H423.379V294.162H423.406C423.935 293.278 424.701 292.836 425.703 292.836C426.469 292.836 427.054 293.084 427.46 293.581C427.866 294.073 428.068 294.786 428.068 295.721V300ZM436.162 300H435.041V298.811H435.014C434.494 299.713 433.692 300.164 432.607 300.164C431.728 300.164 431.024 299.852 430.495 299.228C429.971 298.599 429.709 297.744 429.709 296.664C429.709 295.507 430.001 294.579 430.584 293.882C431.167 293.185 431.944 292.836 432.915 292.836C433.877 292.836 434.576 293.214 435.014 293.971H435.041V289.637H436.162V300ZM435.041 296.835V295.803C435.041 295.238 434.854 294.759 434.48 294.367C434.107 293.975 433.633 293.779 433.059 293.779C432.375 293.779 431.837 294.03 431.445 294.531C431.053 295.033 430.857 295.725 430.857 296.609C430.857 297.416 431.044 298.054 431.418 298.523C431.796 298.988 432.302 299.221 432.936 299.221C433.56 299.221 434.066 298.995 434.453 298.544C434.845 298.093 435.041 297.523 435.041 296.835ZM445.199 300.164C444.165 300.164 443.338 299.838 442.718 299.187C442.103 298.53 441.795 297.662 441.795 296.582C441.795 295.406 442.116 294.488 442.759 293.827C443.401 293.166 444.27 292.836 445.363 292.836C446.407 292.836 447.22 293.157 447.804 293.8C448.392 294.442 448.686 295.333 448.686 296.473C448.686 297.589 448.369 298.485 447.735 299.159C447.106 299.829 446.261 300.164 445.199 300.164ZM445.281 293.779C444.561 293.779 443.992 294.025 443.572 294.518C443.153 295.005 442.943 295.68 442.943 296.541C442.943 297.37 443.155 298.024 443.579 298.503C444.003 298.981 444.57 299.221 445.281 299.221C446.006 299.221 446.562 298.986 446.949 298.517C447.341 298.047 447.537 297.38 447.537 296.514C447.537 295.639 447.341 294.964 446.949 294.49C446.562 294.016 446.006 293.779 445.281 293.779ZM451.625 298.988H451.598V300H450.477V289.637H451.598V294.23H451.625C452.176 293.301 452.983 292.836 454.045 292.836C454.943 292.836 455.645 293.15 456.15 293.779C456.661 294.404 456.916 295.242 456.916 296.295C456.916 297.466 456.631 298.405 456.062 299.111C455.492 299.813 454.713 300.164 453.724 300.164C452.799 300.164 452.099 299.772 451.625 298.988ZM451.598 296.165V297.143C451.598 297.721 451.785 298.214 452.158 298.619C452.536 299.02 453.015 299.221 453.594 299.221C454.273 299.221 454.804 298.961 455.187 298.441C455.574 297.922 455.768 297.2 455.768 296.274C455.768 295.495 455.588 294.884 455.228 294.442C454.868 294 454.38 293.779 453.765 293.779C453.113 293.779 452.589 294.007 452.192 294.463C451.796 294.914 451.598 295.481 451.598 296.165ZM459.828 299.706C459.828 300.854 459.596 301.739 459.131 302.358C458.671 302.983 458.01 303.295 457.148 303.295C456.829 303.295 456.52 303.222 456.219 303.076V302.03C456.556 302.235 456.875 302.338 457.176 302.338C458.197 302.338 458.707 301.522 458.707 299.891V293H459.828V299.706ZM459.281 291.223C459.081 291.223 458.91 291.154 458.769 291.018C458.627 290.881 458.557 290.708 458.557 290.498C458.557 290.288 458.627 290.115 458.769 289.979C458.91 289.837 459.081 289.767 459.281 289.767C459.486 289.767 459.66 289.837 459.801 289.979C459.947 290.115 460.02 290.288 460.02 290.498C460.02 290.699 459.947 290.869 459.801 291.011C459.66 291.152 459.486 291.223 459.281 291.223ZM467.724 296.78H462.781C462.799 297.56 463.009 298.161 463.41 298.585C463.811 299.009 464.363 299.221 465.064 299.221C465.853 299.221 466.577 298.961 467.238 298.441V299.494C466.623 299.941 465.81 300.164 464.798 300.164C463.809 300.164 463.032 299.847 462.467 299.214C461.902 298.576 461.619 297.68 461.619 296.527C461.619 295.438 461.927 294.552 462.542 293.868C463.162 293.18 463.93 292.836 464.846 292.836C465.762 292.836 466.47 293.132 466.972 293.725C467.473 294.317 467.724 295.14 467.724 296.192V296.78ZM466.575 295.83C466.571 295.183 466.413 294.679 466.104 294.319C465.798 293.959 465.372 293.779 464.825 293.779C464.297 293.779 463.848 293.968 463.479 294.347C463.109 294.725 462.882 295.219 462.795 295.83H466.575ZM474.197 299.679C473.66 300.002 473.021 300.164 472.283 300.164C471.285 300.164 470.479 299.84 469.863 299.193C469.253 298.542 468.947 297.699 468.947 296.664C468.947 295.511 469.278 294.586 469.938 293.889C470.599 293.187 471.481 292.836 472.584 292.836C473.199 292.836 473.742 292.95 474.211 293.178V294.326C473.691 293.962 473.135 293.779 472.543 293.779C471.827 293.779 471.24 294.037 470.779 294.552C470.324 295.062 470.096 295.734 470.096 296.568C470.096 297.389 470.31 298.036 470.738 298.51C471.171 298.984 471.75 299.221 472.475 299.221C473.085 299.221 473.66 299.018 474.197 298.612V299.679ZM479.14 299.932C478.875 300.077 478.527 300.15 478.094 300.15C476.868 300.15 476.255 299.467 476.255 298.1V293.957H475.052V293H476.255V291.291L477.376 290.929V293H479.14V293.957H477.376V297.901C477.376 298.371 477.456 298.706 477.615 298.906C477.775 299.107 478.039 299.207 478.408 299.207C478.691 299.207 478.935 299.13 479.14 298.975V299.932ZM481.211 291.223C481.01 291.223 480.84 291.154 480.698 291.018C480.557 290.881 480.486 290.708 480.486 290.498C480.486 290.288 480.557 290.115 480.698 289.979C480.84 289.837 481.01 289.767 481.211 289.767C481.416 289.767 481.589 289.837 481.73 289.979C481.876 290.115 481.949 290.288 481.949 290.498C481.949 290.699 481.876 290.869 481.73 291.011C481.589 291.152 481.416 291.223 481.211 291.223ZM481.758 300H480.637V293H481.758V300ZM489.53 293L486.741 300H485.641L482.988 293H484.219L485.996 298.086C486.128 298.46 486.21 298.785 486.242 299.063H486.27C486.315 298.713 486.388 298.396 486.488 298.113L488.348 293H489.53ZM496.366 296.78H491.424C491.442 297.56 491.652 298.161 492.053 298.585C492.454 299.009 493.005 299.221 493.707 299.221C494.495 299.221 495.22 298.961 495.881 298.441V299.494C495.266 299.941 494.452 300.164 493.44 300.164C492.451 300.164 491.674 299.847 491.109 299.214C490.544 298.576 490.262 297.68 490.262 296.527C490.262 295.438 490.569 294.552 491.185 293.868C491.804 293.18 492.572 292.836 493.488 292.836C494.404 292.836 495.113 293.132 495.614 293.725C496.116 294.317 496.366 295.14 496.366 296.192V296.78ZM495.218 295.83C495.213 295.183 495.056 294.679 494.746 294.319C494.441 293.959 494.015 293.779 493.468 293.779C492.939 293.779 492.49 293.968 492.121 294.347C491.752 294.725 491.524 295.219 491.438 295.83H495.218ZM497.645 299.747V298.544C498.255 298.995 498.927 299.221 499.661 299.221C500.646 299.221 501.138 298.893 501.138 298.236C501.138 298.049 501.094 297.892 501.008 297.765C500.926 297.632 500.812 297.516 500.666 297.416C500.525 297.316 500.356 297.227 500.16 297.149C499.969 297.067 499.761 296.983 499.538 296.896C499.228 296.773 498.955 296.65 498.718 296.527C498.485 296.4 498.289 296.258 498.13 296.104C497.975 295.944 497.856 295.764 497.774 295.563C497.697 295.363 497.658 295.128 497.658 294.859C497.658 294.531 497.733 294.242 497.884 293.991C498.034 293.736 498.235 293.524 498.485 293.355C498.736 293.182 499.021 293.052 499.34 292.966C499.663 292.879 499.996 292.836 500.338 292.836C500.944 292.836 501.486 292.941 501.965 293.15V294.285C501.45 293.948 500.857 293.779 500.188 293.779C499.978 293.779 499.789 293.804 499.62 293.854C499.451 293.9 499.306 293.966 499.183 294.053C499.064 294.139 498.971 294.244 498.902 294.367C498.839 294.486 498.807 294.618 498.807 294.764C498.807 294.946 498.839 295.099 498.902 295.222C498.971 295.345 499.069 295.454 499.196 295.55C499.324 295.646 499.479 295.732 499.661 295.81C499.843 295.887 500.051 295.971 500.283 296.062C500.593 296.181 500.871 296.304 501.117 296.432C501.363 296.555 501.573 296.696 501.746 296.855C501.919 297.01 502.051 297.19 502.143 297.396C502.238 297.601 502.286 297.844 502.286 298.127C502.286 298.473 502.209 298.774 502.054 299.029C501.903 299.285 501.701 299.496 501.445 299.665C501.19 299.834 500.896 299.959 500.563 300.041C500.231 300.123 499.882 300.164 499.518 300.164C498.798 300.164 498.173 300.025 497.645 299.747Z" fill="url(#paint35_linear_34_13297)"/>
<path d="M377 275.5C377 273.567 378.567 272 380.5 272H399.5C401.433 272 403 273.567 403 275.5V294.5C403 296.433 401.433 298 399.5 298H380.5C378.567 298 377 296.433 377 294.5V275.5Z" fill="url(#paint36_linear_34_13297)"/>
<path d="M377 275.5C377 273.567 378.567 272 380.5 272H399.5C401.433 272 403 273.567 403 275.5V294.5C403 296.433 401.433 298 399.5 298H380.5C378.567 298 377 296.433 377 294.5V275.5Z" fill="url(#paint37_radial_34_13297)" fill-opacity="0.2"/>
<path fill-rule="evenodd" clip-rule="evenodd" d="M399.5 273H380.5C379.119 273 378 274.119 378 275.5V294.5C378 295.881 379.119 297 380.5 297H399.5C400.881 297 402 295.881 402 294.5V275.5C402 274.119 400.881 273 399.5 273ZM380.5 272C378.567 272 377 273.567 377 275.5V294.5C377 296.433 378.567 298 380.5 298H399.5C401.433 298 403 296.433 403 294.5V275.5C403 273.567 401.433 272 399.5 272H380.5Z" fill="url(#paint38_linear_34_13297)"/>
<path d="M397.148 278.051L396.921 276L394.414 278.506L394.551 279.691L390.905 283.337C390.586 283.177 390.222 283.063 389.834 283.063C388.581 283.063 387.556 284.089 387.556 285.342C387.556 286.595 388.581 287.62 389.834 287.62C391.088 287.62 392.113 286.595 392.113 285.342C392.113 284.955 392.022 284.613 391.862 284.294L395.508 280.648L396.693 280.785L399.199 278.278L397.148 278.051Z" fill="url(#paint39_linear_34_13297)"/>
<path d="M397.33 281.423L397.035 281.742L396.601 281.696L396.123 281.628C396.761 282.722 397.148 283.974 397.148 285.342C397.148 289.352 393.867 292.633 389.857 292.633C385.847 292.633 382.566 289.352 382.566 285.342C382.566 281.332 385.847 278.051 389.857 278.051C391.201 278.051 392.477 278.415 393.571 279.076L393.525 278.62L393.457 278.164L393.776 277.846L393.935 277.686C392.705 277.048 391.338 276.683 389.857 276.683C385.072 276.683 381.199 280.557 381.199 285.342C381.199 290.127 385.072 294 389.857 294C394.642 294 398.515 290.127 398.515 285.342C398.515 283.861 398.151 282.494 397.49 281.286L397.33 281.423Z" fill="url(#paint40_linear_34_13297)"/>
<path d="M393.662 283.792C393.867 284.271 393.959 284.795 393.959 285.342C393.959 287.597 392.113 289.443 389.857 289.443C387.602 289.443 385.756 287.597 385.756 285.342C385.756 283.086 387.602 281.24 389.857 281.24C390.404 281.24 390.928 281.354 391.407 281.537L392.432 280.511C391.657 280.101 390.791 279.873 389.857 279.873C386.85 279.873 384.389 282.334 384.389 285.342C384.389 288.349 386.85 290.81 389.857 290.81C392.865 290.81 395.326 288.349 395.326 285.342C395.326 284.408 395.098 283.542 394.688 282.767L393.662 283.792Z" fill="url(#paint41_linear_34_13297)"/>
<path d="M368.748 283.952C368.775 284.365 368.461 284.722 368.048 284.748L361.312 285.18C360.898 285.206 360.542 284.893 360.515 284.479C360.489 284.066 360.803 283.709 361.216 283.683L367.204 283.299L366.82 277.312C366.794 276.898 367.107 276.542 367.521 276.515C367.934 276.489 368.291 276.803 368.317 277.216L368.748 283.952ZM367.483 245.456C367.784 245.171 368.258 245.183 368.544 245.483C368.829 245.784 368.817 246.258 368.517 246.544L367.483 245.456ZM367.505 284.563C361.358 279.156 358.25 272.307 358.25 265.317C358.25 258.33 361.354 251.279 367.483 245.456L368.517 246.544C362.646 252.121 359.75 258.792 359.75 265.317C359.75 271.838 362.642 278.288 368.495 283.437L367.505 284.563Z" fill="#8198AE"/>
<path d="M384.32 75.3255L389.501 66.5335L394.682 75.3255H384.32ZM400.644 85.4387H378.358L383.008 77.787H395.994L400.644 85.4387ZM400.674 85.4873C400.674 85.4873 400.674 85.4872 400.674 85.4869L400.674 85.4873ZM372.544 95.4933L377.168 87.8417H401.874L406.417 95.4046L372.544 95.4933Z" fill="white"/>
<path d="M384.32 75.3255L389.501 66.5335L394.682 75.3255H384.32ZM400.644 85.4387H378.358L383.008 77.787H395.994L400.644 85.4387ZM400.674 85.4873C400.674 85.4873 400.674 85.4872 400.674 85.4869L400.674 85.4873ZM372.544 95.4933L377.168 87.8417H401.874L406.417 95.4046L372.544 95.4933Z" fill="url(#paint42_linear_34_13297)" fill-opacity="0.33"/>
<path d="M384.32 75.3255L389.501 66.5335L394.682 75.3255H384.32ZM400.644 85.4387H378.358L383.008 77.787H395.994L400.644 85.4387ZM400.674 85.4873C400.674 85.4873 400.674 85.4872 400.674 85.4869L400.674 85.4873ZM372.544 95.4933L377.168 87.8417H401.874L406.417 95.4046L372.544 95.4933Z" stroke="url(#paint43_linear_34_13297)"/>
<path d="M389.1 66.2297C389.28 65.9234 389.722 65.9234 389.902 66.2297L395.142 75.1199C395.325 75.4316 395.101 75.8255 394.74 75.8255H384.262C383.901 75.8255 383.677 75.4316 383.861 75.1199L389.1 66.2297Z" fill="url(#paint44_linear_34_13297)"/>
<defs>
<filter id="filter0_f_34_13297" x="345" y="45" width="244" height="329" filterUnits="userSpaceOnUse" color-interpolation-filters="sRGB">
<feFlood flood-opacity="0" result="BackgroundImageFix"/>
<feBlend mode="normal" in="SourceGraphic" in2="BackgroundImageFix" result="shape"/>
<feGaussianBlur stdDeviation="2.5" result="effect1_foregroundBlur_34_13297"/>
</filter>
<radialGradient id="paint0_radial_34_13297" cx="0" cy="0" r="1" gradientUnits="userSpaceOnUse" gradientTransform="translate(132.812 45.8789) rotate(21.1819) scale(910.022 483.925)">
<stop offset="0.198869" stop-color="#8EE3E8"/>
<stop offset="1" stop-color="#19177E"/>
</radialGradient>
<linearGradient id="paint1_linear_34_13297" x1="382.933" y1="208.224" x2="484.175" y2="223.538" gradientUnits="userSpaceOnUse">
<stop stop-color="white"/>
<stop offset="1" stop-color="#FAFAFA"/>
</linearGradient>
<linearGradient id="paint2_linear_34_13297" x1="360" y1="173" x2="378.902" y2="260.937" gradientUnits="userSpaceOnUse">
<stop stop-color="#416587"/>
<stop offset="1" stop-color="#1A3052"/>
</linearGradient>
<linearGradient id="paint3_linear_34_13297" x1="414" y1="70" x2="419.387" y2="111.297" gradientUnits="userSpaceOnUse">
<stop stop-color="#416587"/>
<stop offset="1" stop-color="#1A3052"/>
</linearGradient>
<linearGradient id="paint4_linear_34_13297" x1="414" y1="135" x2="426.598" y2="196.416" gradientUnits="userSpaceOnUse">
<stop stop-color="#416587"/>
<stop offset="1" stop-color="#1A3052"/>
</linearGradient>
<linearGradient id="paint5_linear_34_13297" x1="414" y1="222" x2="426.598" y2="283.416" gradientUnits="userSpaceOnUse">
<stop stop-color="#416587"/>
<stop offset="1" stop-color="#1A3052"/>
</linearGradient>
<linearGradient id="paint6_linear_34_13297" x1="414" y1="179" x2="426.598" y2="240.416" gradientUnits="userSpaceOnUse">
<stop stop-color="#416587"/>
<stop offset="1" stop-color="#1A3052"/>
</linearGradient>
<linearGradient id="paint7_linear_34_13297" x1="384.222" y1="139" x2="387.511" y2="165.311" gradientUnits="userSpaceOnUse">
<stop stop-color="white"/>
<stop offset="1" stop-color="#EBEBEB"/>
</linearGradient>
<radialGradient id="paint8_radial_34_13297" cx="0" cy="0" r="1" gradientUnits="userSpaceOnUse" gradientTransform="translate(385.306 145.771) rotate(56.3099) scale(24.7381 21.408)">
<stop offset="0.177083" stop-color="white"/>
<stop offset="1" stop-color="#B8B8B8"/>
</radialGradient>
<linearGradient id="paint9_linear_34_13297" x1="385.396" y1="139" x2="388.897" y2="165.256" gradientUnits="userSpaceOnUse">
<stop stop-color="#BBBBBB"/>
<stop offset="1" stop-color="#888888"/>
</linearGradient>
<linearGradient id="paint10_linear_34_13297" x1="382" y1="144.507" x2="397.45" y2="158.851" gradientUnits="userSpaceOnUse">
<stop stop-color="#416587"/>
<stop offset="1" stop-color="#1A3052"/>
</linearGradient>
<linearGradient id="paint11_linear_34_13297" x1="390.313" y1="144" x2="398.528" y2="151.669" gradientUnits="userSpaceOnUse">
<stop stop-color="#416587"/>
<stop offset="1" stop-color="#1A3052"/>
</linearGradient>
<linearGradient id="paint12_linear_34_13297" x1="383.115" y1="153.408" x2="389.688" y2="159.497" gradientUnits="userSpaceOnUse">
<stop stop-color="#416587"/>
<stop offset="1" stop-color="#1A3052"/>
</linearGradient>
<linearGradient id="paint13_linear_34_13297" x1="384.222" y1="183" x2="387.511" y2="209.311" gradientUnits="userSpaceOnUse">
<stop stop-color="white"/>
<stop offset="1" stop-color="#EBEBEB"/>
</linearGradient>
<radialGradient id="paint14_radial_34_13297" cx="0" cy="0" r="1" gradientUnits="userSpaceOnUse" gradientTransform="translate(385.306 189.771) rotate(56.3099) scale(24.7381 21.408)">
<stop offset="0.177083" stop-color="white"/>
<stop offset="1" stop-color="#B8B8B8"/>
</radialGradient>
<linearGradient id="paint15_linear_34_13297" x1="385.396" y1="183" x2="388.897" y2="209.256" gradientUnits="userSpaceOnUse">
<stop stop-color="#BBBBBB"/>
<stop offset="1" stop-color="#888888"/>
</linearGradient>
<linearGradient id="paint16_linear_34_13297" x1="388.875" y1="190" x2="391.792" y2="192.917" gradientUnits="userSpaceOnUse">
<stop stop-color="#416587"/>
<stop offset="1" stop-color="#1A3052"/>
</linearGradient>
<linearGradient id="paint17_linear_34_13297" x1="394.708" y1="190.833" x2="397.625" y2="193.75" gradientUnits="userSpaceOnUse">
<stop stop-color="#416587"/>
<stop offset="1" stop-color="#1A3052"/>
</linearGradient>
<linearGradient id="paint18_linear_34_13297" x1="383.042" y1="190.833" x2="385.958" y2="193.75" gradientUnits="userSpaceOnUse">
<stop stop-color="#416587"/>
<stop offset="1" stop-color="#1A3052"/>
</linearGradient>
<linearGradient id="paint19_linear_34_13297" x1="382.125" y1="196.208" x2="385.438" y2="206.098" gradientUnits="userSpaceOnUse">
<stop stop-color="#416587"/>
<stop offset="1" stop-color="#1A3052"/>
</linearGradient>
<linearGradient id="paint20_linear_34_13297" x1="382" y1="194.174" x2="386.779" y2="199.17" gradientUnits="userSpaceOnUse">
<stop stop-color="#416587"/>
<stop offset="1" stop-color="#1A3052"/>
</linearGradient>
<linearGradient id="paint21_linear_34_13297" x1="387.812" y1="193.341" x2="389.303" y2="196.911" gradientUnits="userSpaceOnUse">
<stop stop-color="#416587"/>
<stop offset="1" stop-color="#1A3052"/>
</linearGradient>
<linearGradient id="paint22_linear_34_13297" x1="393.646" y1="194.174" x2="398.424" y2="199.189" gradientUnits="userSpaceOnUse">
<stop stop-color="#416587"/>
<stop offset="1" stop-color="#1A3052"/>
</linearGradient>
<linearGradient id="paint23_linear_34_13297" x1="384.222" y1="226" x2="387.511" y2="252.311" gradientUnits="userSpaceOnUse">
<stop stop-color="white"/>
<stop offset="1" stop-color="#EBEBEB"/>
</linearGradient>
<radialGradient id="paint24_radial_34_13297" cx="0" cy="0" r="1" gradientUnits="userSpaceOnUse" gradientTransform="translate(385.306 232.771) rotate(56.3099) scale(24.7381 21.408)">
<stop offset="0.177083" stop-color="white"/>
<stop offset="1" stop-color="#B8B8B8"/>
</radialGradient>
<linearGradient id="paint25_linear_34_13297" x1="385.396" y1="226" x2="388.897" y2="252.256" gradientUnits="userSpaceOnUse">
<stop stop-color="#BBBBBB"/>
<stop offset="1" stop-color="#888888"/>
</linearGradient>
<linearGradient id="paint26_linear_34_13297" x1="383.542" y1="229.667" x2="399.682" y2="242.175" gradientUnits="userSpaceOnUse">
<stop stop-color="#416587"/>
<stop offset="1" stop-color="#1A3052"/>
</linearGradient>
<linearGradient id="paint27_linear_34_13297" x1="386.446" y1="239.446" x2="388.555" y2="241.554" gradientUnits="userSpaceOnUse">
<stop stop-color="#416587"/>
<stop offset="1" stop-color="#1A3052"/>
</linearGradient>
<linearGradient id="paint28_linear_34_13297" x1="386.446" y1="241.946" x2="388.555" y2="244.054" gradientUnits="userSpaceOnUse">
<stop stop-color="#416587"/>
<stop offset="1" stop-color="#1A3052"/>
</linearGradient>
<linearGradient id="paint29_linear_34_13297" x1="390.417" y1="240.083" x2="390.789" y2="241.663" gradientUnits="userSpaceOnUse">
<stop stop-color="#416587"/>
<stop offset="1" stop-color="#1A3052"/>
</linearGradient>
<linearGradient id="paint30_linear_34_13297" x1="390.417" y1="242.583" x2="390.789" y2="244.163" gradientUnits="userSpaceOnUse">
<stop stop-color="#416587"/>
<stop offset="1" stop-color="#1A3052"/>
</linearGradient>
<linearGradient id="paint31_linear_34_13297" x1="390.417" y1="235.083" x2="390.789" y2="236.663" gradientUnits="userSpaceOnUse">
<stop stop-color="#416587"/>
<stop offset="1" stop-color="#1A3052"/>
</linearGradient>
<linearGradient id="paint32_linear_34_13297" x1="390.417" y1="237.583" x2="390.789" y2="239.163" gradientUnits="userSpaceOnUse">
<stop stop-color="#416587"/>
<stop offset="1" stop-color="#1A3052"/>
</linearGradient>
<linearGradient id="paint33_linear_34_13297" x1="386.189" y1="234.189" x2="388.385" y2="236.914" gradientUnits="userSpaceOnUse">
<stop stop-color="#416587"/>
<stop offset="1" stop-color="#1A3052"/>
</linearGradient>
<linearGradient id="paint34_linear_34_13297" x1="386.189" y1="236.689" x2="388.385" y2="239.414" gradientUnits="userSpaceOnUse">
<stop stop-color="#416587"/>
<stop offset="1" stop-color="#1A3052"/>
</linearGradient>
<linearGradient id="paint35_linear_34_13297" x1="414" y1="269" x2="426.598" y2="330.416" gradientUnits="userSpaceOnUse">
<stop stop-color="#416587"/>
<stop offset="1" stop-color="#1A3052"/>
</linearGradient>
<linearGradient id="paint36_linear_34_13297" x1="384.222" y1="272" x2="387.511" y2="298.311" gradientUnits="userSpaceOnUse">
<stop stop-color="white"/>
<stop offset="1" stop-color="#EBEBEB"/>
</linearGradient>
<radialGradient id="paint37_radial_34_13297" cx="0" cy="0" r="1" gradientUnits="userSpaceOnUse" gradientTransform="translate(385.306 278.771) rotate(56.3099) scale(24.7381 21.408)">
<stop offset="0.177083" stop-color="white"/>
<stop offset="1" stop-color="#B8B8B8"/>
</radialGradient>
<linearGradient id="paint38_linear_34_13297" x1="385.396" y1="272" x2="388.897" y2="298.256" gradientUnits="userSpaceOnUse">
<stop stop-color="#BBBBBB"/>
<stop offset="1" stop-color="#888888"/>
</linearGradient>
<linearGradient id="paint39_linear_34_13297" x1="387.556" y1="276" x2="399.176" y2="287.643" gradientUnits="userSpaceOnUse">
<stop stop-color="#416587"/>
<stop offset="1" stop-color="#1A3052"/>
</linearGradient>
<linearGradient id="paint40_linear_34_13297" x1="381.199" y1="276.683" x2="398.515" y2="294" gradientUnits="userSpaceOnUse">
<stop stop-color="#416587"/>
<stop offset="1" stop-color="#1A3052"/>
</linearGradient>
<linearGradient id="paint41_linear_34_13297" x1="384.389" y1="279.873" x2="395.326" y2="290.81" gradientUnits="userSpaceOnUse">
<stop stop-color="#416587"/>
<stop offset="1" stop-color="#1A3052"/>
</linearGradient>
<linearGradient id="paint42_linear_34_13297" x1="376.934" y1="80.8768" x2="391.547" y2="84.3855" gradientUnits="userSpaceOnUse">
<stop stop-color="white"/>
<stop offset="1" stop-color="#FAFAFA"/>
</linearGradient>
<linearGradient id="paint43_linear_34_13297" x1="372.019" y1="66" x2="401.668" y2="100.523" gradientUnits="userSpaceOnUse">
<stop stop-color="#416587"/>
<stop offset="1" stop-color="#1A3052"/>
</linearGradient>
<linearGradient id="paint44_linear_34_13297" x1="383.795" y1="66" x2="393.511" y2="77.2857" gradientUnits="userSpaceOnUse">
<stop stop-color="#416587"/>
<stop offset="1" stop-color="#1A3052"/>
</linearGradient>
</defs>
</svg>
