<svg width="1500" height="861" viewBox="0 0 1500 861" fill="none" xmlns="http://www.w3.org/2000/svg">
<rect width="1500" height="861" fill="white"/>
<rect width="1500" height="861" fill="url(#paint0_linear_6_166)" fill-opacity="0.05"/>
<rect width="1500" height="861" fill="url(#paint1_radial_6_166)" fill-opacity="0.08"/>
<rect x="0.5" y="0.5" width="1499" height="860" stroke="#333333" stroke-opacity="0.2"/>
<g filter="url(#filter0_f_6_166)">
<rect x="451" y="636" width="600" height="125" rx="20" fill="#CCCCCC" fill-opacity="0.8"/>
</g>
<rect x="451" y="636" width="600" height="125" rx="20" fill="white"/>
<rect x="451" y="636" width="600" height="125" rx="20" fill="url(#paint2_linear_6_166)" fill-opacity="0.33"/>
<path d="M668.951 685.998V681.691C669.338 682.043 669.795 682.359 670.322 682.641C670.861 682.922 671.43 683.162 672.027 683.361C672.625 683.549 673.223 683.695 673.82 683.801C674.418 683.906 674.969 683.959 675.473 683.959C677.23 683.959 678.537 683.666 679.393 683.08C680.26 682.494 680.693 681.645 680.693 680.531C680.693 679.934 680.547 679.418 680.254 678.984C679.973 678.539 679.574 678.135 679.059 677.771C678.543 677.408 677.934 677.062 677.23 676.734C676.539 676.395 675.795 676.043 674.998 675.68C674.143 675.223 673.346 674.76 672.607 674.291C671.869 673.822 671.225 673.307 670.674 672.744C670.135 672.17 669.707 671.525 669.391 670.811C669.086 670.096 668.934 669.258 668.934 668.297C668.934 667.113 669.197 666.088 669.725 665.221C670.264 664.342 670.967 663.621 671.834 663.059C672.713 662.484 673.709 662.062 674.822 661.793C675.936 661.512 677.072 661.371 678.232 661.371C680.869 661.371 682.791 661.67 683.998 662.268V666.398C682.568 665.367 680.729 664.852 678.479 664.852C677.857 664.852 677.236 664.91 676.615 665.027C676.006 665.145 675.455 665.338 674.963 665.607C674.482 665.877 674.09 666.223 673.785 666.645C673.48 667.066 673.328 667.576 673.328 668.174C673.328 668.736 673.445 669.223 673.68 669.633C673.914 670.043 674.254 670.418 674.699 670.758C675.156 671.098 675.707 671.432 676.352 671.76C677.008 672.076 677.764 672.422 678.619 672.797C679.498 673.254 680.324 673.734 681.098 674.238C681.883 674.742 682.568 675.299 683.154 675.908C683.752 676.518 684.221 677.197 684.561 677.947C684.912 678.686 685.088 679.529 685.088 680.479C685.088 681.756 684.83 682.834 684.314 683.713C683.799 684.592 683.102 685.307 682.223 685.857C681.355 686.408 680.354 686.807 679.217 687.053C678.08 687.299 676.879 687.422 675.613 687.422C675.191 687.422 674.67 687.387 674.049 687.316C673.439 687.258 672.812 687.164 672.168 687.035C671.523 686.918 670.914 686.771 670.34 686.596C669.766 686.42 669.303 686.221 668.951 685.998ZM697.252 687.422C694.475 687.422 692.254 686.584 690.59 684.908C688.938 683.221 688.111 680.988 688.111 678.211C688.111 675.188 688.973 672.826 690.695 671.127C692.43 669.428 694.762 668.578 697.691 668.578C700.504 668.578 702.695 669.404 704.266 671.057C705.836 672.709 706.621 675 706.621 677.93C706.621 680.801 705.771 683.104 704.072 684.838C702.385 686.561 700.111 687.422 697.252 687.422ZM697.445 671.83C695.852 671.83 694.592 672.387 693.666 673.5C692.74 674.613 692.277 676.148 692.277 678.105C692.277 679.992 692.746 681.48 693.684 682.57C694.621 683.648 695.875 684.188 697.445 684.188C699.051 684.188 700.281 683.654 701.137 682.588C702.004 681.521 702.438 680.004 702.438 678.035C702.438 676.055 702.004 674.525 701.137 673.447C700.281 672.369 699.051 671.83 697.445 671.83ZM714.883 687H710.787V660.352H714.883V687ZM735.906 687H731.828V684.152H731.758C730.574 686.332 728.734 687.422 726.238 687.422C721.984 687.422 719.857 684.867 719.857 679.758V669H723.936V679.336C723.936 682.57 725.184 684.188 727.68 684.188C728.887 684.188 729.877 683.742 730.65 682.852C731.436 681.961 731.828 680.795 731.828 679.354V669H735.906V687ZM750.725 686.807C749.928 687.205 748.879 687.404 747.578 687.404C744.086 687.404 742.34 685.729 742.34 682.377V672.199H739.334V669H742.34V664.834L746.418 663.674V669H750.725V672.199H746.418V681.199C746.418 682.266 746.611 683.027 746.998 683.484C747.385 683.941 748.029 684.17 748.932 684.17C749.623 684.17 750.221 683.971 750.725 683.572V686.807ZM756.297 665.221C755.629 665.221 755.055 665.004 754.574 664.57C754.105 664.137 753.871 663.586 753.871 662.918C753.871 662.25 754.105 661.693 754.574 661.248C755.055 660.803 755.629 660.58 756.297 660.58C756.988 660.58 757.574 660.803 758.055 661.248C758.535 661.693 758.775 662.25 758.775 662.918C758.775 663.551 758.535 664.096 758.055 664.553C757.574 664.998 756.988 665.221 756.297 665.221ZM758.318 687H754.24V669H758.318V687ZM771.643 687.422C768.865 687.422 766.645 686.584 764.98 684.908C763.328 683.221 762.502 680.988 762.502 678.211C762.502 675.188 763.363 672.826 765.086 671.127C766.82 669.428 769.152 668.578 772.082 668.578C774.895 668.578 777.086 669.404 778.656 671.057C780.227 672.709 781.012 675 781.012 677.93C781.012 680.801 780.162 683.104 778.463 684.838C776.775 686.561 774.502 687.422 771.643 687.422ZM771.836 671.83C770.242 671.83 768.982 672.387 768.057 673.5C767.131 674.613 766.668 676.148 766.668 678.105C766.668 679.992 767.137 681.48 768.074 682.57C769.012 683.648 770.266 684.188 771.836 684.188C773.441 684.188 774.672 683.654 775.527 682.588C776.395 681.521 776.828 680.004 776.828 678.035C776.828 676.055 776.395 674.525 775.527 673.447C774.672 672.369 773.441 671.83 771.836 671.83ZM801.209 687H797.131V676.857C797.131 673.494 795.941 671.812 793.562 671.812C792.32 671.812 791.295 672.281 790.486 673.219C789.678 674.145 789.273 675.316 789.273 676.734V687H785.178V669H789.273V671.988H789.344C790.691 669.715 792.637 668.578 795.18 668.578C797.137 668.578 798.631 669.217 799.662 670.494C800.693 671.76 801.209 673.594 801.209 675.996V687ZM683.471 735H679.516V732.188H679.445C678.203 734.344 676.381 735.422 673.979 735.422C672.209 735.422 670.82 734.941 669.812 733.98C668.816 733.02 668.318 731.748 668.318 730.166C668.318 726.768 670.275 724.787 674.189 724.225L679.533 723.469C679.533 720.902 678.314 719.619 675.877 719.619C673.732 719.619 671.799 720.357 670.076 721.834V718.266C671.975 717.141 674.166 716.578 676.65 716.578C681.197 716.578 683.471 718.816 683.471 723.293V735ZM679.533 726.158L675.754 726.686C674.582 726.838 673.697 727.125 673.1 727.547C672.514 727.957 672.221 728.684 672.221 729.727C672.221 730.488 672.49 731.115 673.029 731.607C673.58 732.088 674.312 732.328 675.227 732.328C676.469 732.328 677.494 731.895 678.303 731.027C679.123 730.148 679.533 729.047 679.533 727.723V726.158ZM704.828 735H700.75V731.941H700.68C699.367 734.262 697.346 735.422 694.615 735.422C692.4 735.422 690.625 734.619 689.289 733.014C687.965 731.396 687.303 729.199 687.303 726.422C687.303 723.445 688.035 721.061 689.5 719.268C690.977 717.475 692.939 716.578 695.389 716.578C697.814 716.578 699.578 717.551 700.68 719.496H700.75V708.352H704.828V735ZM700.803 726.773V724.418C700.803 723.141 700.387 722.057 699.555 721.166C698.723 720.275 697.662 719.83 696.373 719.83C694.85 719.83 693.648 720.398 692.77 721.535C691.902 722.672 691.469 724.248 691.469 726.264C691.469 728.092 691.885 729.539 692.717 730.605C693.561 731.66 694.691 732.188 696.109 732.188C697.504 732.188 698.635 731.678 699.502 730.658C700.369 729.627 700.803 728.332 700.803 726.773ZM718.135 735.422C715.357 735.422 713.137 734.584 711.473 732.908C709.82 731.221 708.994 728.988 708.994 726.211C708.994 723.188 709.855 720.826 711.578 719.127C713.312 717.428 715.645 716.578 718.574 716.578C721.387 716.578 723.578 717.404 725.148 719.057C726.719 720.709 727.504 723 727.504 725.93C727.504 728.801 726.654 731.104 724.955 732.838C723.268 734.561 720.994 735.422 718.135 735.422ZM718.328 719.83C716.734 719.83 715.475 720.387 714.549 721.5C713.623 722.613 713.16 724.148 713.16 726.105C713.16 727.992 713.629 729.48 714.566 730.57C715.504 731.648 716.758 732.188 718.328 732.188C719.934 732.188 721.164 731.654 722.02 730.588C722.887 729.521 723.32 728.004 723.32 726.035C723.32 724.055 722.887 722.525 722.02 721.447C721.164 720.369 719.934 719.83 718.328 719.83ZM735.818 732.346H735.748V743.279H731.67V717H735.748V720.164H735.818C737.213 717.773 739.252 716.578 741.936 716.578C744.221 716.578 746.002 717.381 747.279 718.986C748.557 720.592 749.195 722.748 749.195 725.455C749.195 728.455 748.475 730.857 747.033 732.662C745.592 734.467 743.623 735.369 741.127 735.369C738.83 735.369 737.061 734.361 735.818 732.346ZM735.713 725.244V727.477C735.713 728.789 736.129 729.902 736.961 730.816C737.805 731.73 738.871 732.188 740.16 732.188C741.672 732.188 742.855 731.602 743.711 730.43C744.578 729.246 745.012 727.6 745.012 725.49C745.012 723.721 744.607 722.338 743.799 721.342C743.002 720.334 741.918 719.83 740.547 719.83C739.094 719.83 737.922 720.346 737.031 721.377C736.152 722.408 735.713 723.697 735.713 725.244ZM762.854 734.807C762.057 735.205 761.008 735.404 759.707 735.404C756.215 735.404 754.469 733.729 754.469 730.377V720.199H751.463V717H754.469V712.834L758.547 711.674V717H762.854V720.199H758.547V729.199C758.547 730.266 758.74 731.027 759.127 731.484C759.514 731.941 760.158 732.17 761.061 732.17C761.752 732.17 762.35 731.971 762.854 731.572V734.807ZM768.426 713.221C767.758 713.221 767.184 713.004 766.703 712.57C766.234 712.137 766 711.586 766 710.918C766 710.25 766.234 709.693 766.703 709.248C767.184 708.803 767.758 708.58 768.426 708.58C769.117 708.58 769.703 708.803 770.184 709.248C770.664 709.693 770.904 710.25 770.904 710.918C770.904 711.551 770.664 712.096 770.184 712.553C769.703 712.998 769.117 713.221 768.426 713.221ZM770.447 735H766.369V717H770.447V735ZM783.771 735.422C780.994 735.422 778.773 734.584 777.109 732.908C775.457 731.221 774.631 728.988 774.631 726.211C774.631 723.188 775.492 720.826 777.215 719.127C778.949 717.428 781.281 716.578 784.211 716.578C787.023 716.578 789.215 717.404 790.785 719.057C792.355 720.709 793.141 723 793.141 725.93C793.141 728.801 792.291 731.104 790.592 732.838C788.904 734.561 786.631 735.422 783.771 735.422ZM783.965 719.83C782.371 719.83 781.111 720.387 780.186 721.5C779.26 722.613 778.797 724.148 778.797 726.105C778.797 727.992 779.266 729.48 780.203 730.57C781.141 731.648 782.395 732.188 783.965 732.188C785.57 732.188 786.801 731.654 787.656 730.588C788.523 729.521 788.957 728.004 788.957 726.035C788.957 724.055 788.523 722.525 787.656 721.447C786.801 720.369 785.57 719.83 783.965 719.83ZM813.338 735H809.26V724.857C809.26 721.494 808.07 719.812 805.691 719.812C804.449 719.812 803.424 720.281 802.615 721.219C801.807 722.145 801.402 723.316 801.402 724.734V735H797.307V717H801.402V719.988H801.473C802.82 717.715 804.766 716.578 807.309 716.578C809.266 716.578 810.76 717.217 811.791 718.494C812.822 719.76 813.338 721.594 813.338 723.996V735Z" fill="black"/>
<g filter="url(#filter1_i_6_166)">
<path d="M539.834 661.542H533.583V734.458H605.458V728.208H539.834V661.542Z" fill="url(#paint3_linear_6_166)"/>
<path d="M605.458 721.958H589.834V661.542H605.458V721.958Z" fill="url(#paint4_linear_6_166)"/>
<path d="M583.583 721.958H567.958V682.375H583.583V721.958Z" fill="url(#paint5_linear_6_166)"/>
<path d="M561.708 721.958H546.083V701.125H561.708V721.958Z" fill="url(#paint6_linear_6_166)"/>
<path d="M579.417 675.854V661.542H565.104L570.792 667.229L545.656 692.365L548.594 695.302L573.729 670.177L579.417 675.854Z" fill="url(#paint7_linear_6_166)"/>
</g>
<circle cx="451.25" cy="698.25" r="28.3755" fill="url(#paint8_linear_6_166)" stroke="#FAFAFA" stroke-width="1.75"/>
<path d="M444.064 709.166V705.653C445.568 706.846 447.265 707.442 449.156 707.442C450.692 707.442 451.916 707.093 452.83 706.395C453.753 705.696 454.215 704.751 454.215 703.559C454.215 700.938 452.212 699.627 448.205 699.627H446.416V696.63H448.124C451.68 696.63 453.458 695.395 453.458 692.924C453.458 690.647 452.072 689.508 449.301 689.508C447.754 689.508 446.298 690.061 444.934 691.168V687.848C446.502 686.967 448.355 686.527 450.493 686.527C452.545 686.527 454.188 687.043 455.424 688.074C456.659 689.105 457.277 690.426 457.277 692.038C457.277 695.078 455.73 697.033 452.636 697.903V697.967C454.301 698.129 455.617 698.714 456.584 699.724C457.551 700.723 458.034 701.974 458.034 703.478C458.034 705.551 457.255 707.227 455.698 708.505C454.14 709.773 452.088 710.407 449.542 710.407C447.254 710.407 445.428 709.993 444.064 709.166Z" fill="white"/>
<g filter="url(#filter2_f_6_166)">
<rect x="451" y="431" width="600" height="125" rx="20" fill="#CCCCCC" fill-opacity="0.8"/>
</g>
<rect x="451" y="431" width="600" height="125" rx="20" fill="white"/>
<rect x="451" y="431" width="600" height="125" rx="20" fill="url(#paint9_linear_6_166)" fill-opacity="0.33"/>
<path d="M689.5 471.805C689.5 478.883 686.148 482.422 679.445 482.422C673.023 482.422 669.812 479.018 669.812 472.209V456.793H673.996V471.348C673.996 476.293 675.918 478.766 679.762 478.766C683.465 478.766 685.316 476.381 685.316 471.611V456.793H689.5V471.805ZM693.842 481.438V477.658C695.365 478.818 697.047 479.398 698.887 479.398C701.348 479.398 702.578 478.672 702.578 477.219C702.578 476.809 702.473 476.463 702.262 476.182C702.051 475.889 701.764 475.631 701.4 475.408C701.049 475.186 700.627 474.986 700.135 474.811C699.654 474.635 699.115 474.436 698.518 474.213C697.779 473.92 697.111 473.609 696.514 473.281C695.928 472.953 695.436 472.584 695.037 472.174C694.65 471.752 694.357 471.277 694.158 470.75C693.959 470.223 693.859 469.607 693.859 468.904C693.859 468.037 694.064 467.275 694.475 466.619C694.885 465.951 695.436 465.395 696.127 464.949C696.818 464.492 697.604 464.152 698.482 463.93C699.361 463.695 700.27 463.578 701.207 463.578C702.871 463.578 704.359 463.83 705.672 464.334V467.902C704.406 467.035 702.953 466.602 701.312 466.602C700.797 466.602 700.328 466.654 699.906 466.76C699.496 466.865 699.145 467.012 698.852 467.199C698.559 467.387 698.33 467.615 698.166 467.885C698.002 468.143 697.92 468.43 697.92 468.746C697.92 469.133 698.002 469.461 698.166 469.73C698.33 470 698.57 470.24 698.887 470.451C699.215 470.65 699.602 470.838 700.047 471.014C700.504 471.178 701.025 471.359 701.611 471.559C702.385 471.875 703.076 472.197 703.686 472.525C704.307 472.854 704.834 473.229 705.268 473.65C705.701 474.061 706.035 474.541 706.27 475.092C706.504 475.631 706.621 476.275 706.621 477.025C706.621 477.939 706.41 478.736 705.988 479.416C705.566 480.096 705.004 480.658 704.301 481.104C703.598 481.549 702.783 481.877 701.857 482.088C700.943 482.311 699.977 482.422 698.957 482.422C696.988 482.422 695.283 482.094 693.842 481.438ZM725.746 474.107H713.477C713.523 475.771 714.033 477.055 715.006 477.957C715.99 478.859 717.338 479.311 719.049 479.311C720.971 479.311 722.734 478.736 724.34 477.588V480.875C722.699 481.906 720.531 482.422 717.836 482.422C715.188 482.422 713.107 481.607 711.596 479.979C710.096 478.338 709.346 476.035 709.346 473.07C709.346 470.27 710.172 467.99 711.824 466.232C713.488 464.463 715.551 463.578 718.012 463.578C720.473 463.578 722.377 464.369 723.725 465.951C725.072 467.533 725.746 469.73 725.746 472.543V474.107ZM721.809 471.225C721.797 469.76 721.451 468.623 720.771 467.814C720.092 466.994 719.154 466.584 717.959 466.584C716.787 466.584 715.791 467.012 714.971 467.867C714.162 468.723 713.664 469.842 713.477 471.225H721.809ZM740.072 467.885C739.58 467.498 738.871 467.305 737.945 467.305C736.738 467.305 735.73 467.85 734.922 468.939C734.113 470.029 733.709 471.512 733.709 473.387V482H729.631V464H733.709V467.709H733.779C734.178 466.443 734.787 465.459 735.607 464.756C736.439 464.041 737.365 463.684 738.385 463.684C739.123 463.684 739.686 463.795 740.072 464.018V467.885ZM683.471 530H679.516V527.188H679.445C678.203 529.344 676.381 530.422 673.979 530.422C672.209 530.422 670.82 529.941 669.812 528.98C668.816 528.02 668.318 526.748 668.318 525.166C668.318 521.768 670.275 519.787 674.189 519.225L679.533 518.469C679.533 515.902 678.314 514.619 675.877 514.619C673.732 514.619 671.799 515.357 670.076 516.834V513.266C671.975 512.141 674.166 511.578 676.65 511.578C681.197 511.578 683.471 513.816 683.471 518.293V530ZM679.533 521.158L675.754 521.686C674.582 521.838 673.697 522.125 673.1 522.547C672.514 522.957 672.221 523.684 672.221 524.727C672.221 525.488 672.49 526.115 673.029 526.607C673.58 527.088 674.312 527.328 675.227 527.328C676.469 527.328 677.494 526.895 678.303 526.027C679.123 525.148 679.533 524.047 679.533 522.723V521.158ZM704.828 530H700.75V526.941H700.68C699.367 529.262 697.346 530.422 694.615 530.422C692.4 530.422 690.625 529.619 689.289 528.014C687.965 526.396 687.303 524.199 687.303 521.422C687.303 518.445 688.035 516.061 689.5 514.268C690.977 512.475 692.939 511.578 695.389 511.578C697.814 511.578 699.578 512.551 700.68 514.496H700.75V503.352H704.828V530ZM700.803 521.773V519.418C700.803 518.141 700.387 517.057 699.555 516.166C698.723 515.275 697.662 514.83 696.373 514.83C694.85 514.83 693.648 515.398 692.77 516.535C691.902 517.672 691.469 519.248 691.469 521.264C691.469 523.092 691.885 524.539 692.717 525.605C693.561 526.66 694.691 527.188 696.109 527.188C697.504 527.188 698.635 526.678 699.502 525.658C700.369 524.627 700.803 523.332 700.803 521.773ZM718.135 530.422C715.357 530.422 713.137 529.584 711.473 527.908C709.82 526.221 708.994 523.988 708.994 521.211C708.994 518.188 709.855 515.826 711.578 514.127C713.312 512.428 715.645 511.578 718.574 511.578C721.387 511.578 723.578 512.404 725.148 514.057C726.719 515.709 727.504 518 727.504 520.93C727.504 523.801 726.654 526.104 724.955 527.838C723.268 529.561 720.994 530.422 718.135 530.422ZM718.328 514.83C716.734 514.83 715.475 515.387 714.549 516.5C713.623 517.613 713.16 519.148 713.16 521.105C713.16 522.992 713.629 524.48 714.566 525.57C715.504 526.648 716.758 527.188 718.328 527.188C719.934 527.188 721.164 526.654 722.02 525.588C722.887 524.521 723.32 523.004 723.32 521.035C723.32 519.055 722.887 517.525 722.02 516.447C721.164 515.369 719.934 514.83 718.328 514.83ZM735.818 527.346H735.748V538.279H731.67V512H735.748V515.164H735.818C737.213 512.773 739.252 511.578 741.936 511.578C744.221 511.578 746.002 512.381 747.279 513.986C748.557 515.592 749.195 517.748 749.195 520.455C749.195 523.455 748.475 525.857 747.033 527.662C745.592 529.467 743.623 530.369 741.127 530.369C738.83 530.369 737.061 529.361 735.818 527.346ZM735.713 520.244V522.477C735.713 523.789 736.129 524.902 736.961 525.816C737.805 526.73 738.871 527.188 740.16 527.188C741.672 527.188 742.855 526.602 743.711 525.43C744.578 524.246 745.012 522.6 745.012 520.49C745.012 518.721 744.607 517.338 743.799 516.342C743.002 515.334 741.918 514.83 740.547 514.83C739.094 514.83 737.922 515.346 737.031 516.377C736.152 517.408 735.713 518.697 735.713 520.244ZM762.854 529.807C762.057 530.205 761.008 530.404 759.707 530.404C756.215 530.404 754.469 528.729 754.469 525.377V515.199H751.463V512H754.469V507.834L758.547 506.674V512H762.854V515.199H758.547V524.199C758.547 525.266 758.74 526.027 759.127 526.484C759.514 526.941 760.158 527.17 761.061 527.17C761.752 527.17 762.35 526.971 762.854 526.572V529.807ZM768.426 508.221C767.758 508.221 767.184 508.004 766.703 507.57C766.234 507.137 766 506.586 766 505.918C766 505.25 766.234 504.693 766.703 504.248C767.184 503.803 767.758 503.58 768.426 503.58C769.117 503.58 769.703 503.803 770.184 504.248C770.664 504.693 770.904 505.25 770.904 505.918C770.904 506.551 770.664 507.096 770.184 507.553C769.703 507.998 769.117 508.221 768.426 508.221ZM770.447 530H766.369V512H770.447V530ZM783.771 530.422C780.994 530.422 778.773 529.584 777.109 527.908C775.457 526.221 774.631 523.988 774.631 521.211C774.631 518.188 775.492 515.826 777.215 514.127C778.949 512.428 781.281 511.578 784.211 511.578C787.023 511.578 789.215 512.404 790.785 514.057C792.355 515.709 793.141 518 793.141 520.93C793.141 523.801 792.291 526.104 790.592 527.838C788.904 529.561 786.631 530.422 783.771 530.422ZM783.965 514.83C782.371 514.83 781.111 515.387 780.186 516.5C779.26 517.613 778.797 519.148 778.797 521.105C778.797 522.992 779.266 524.48 780.203 525.57C781.141 526.648 782.395 527.188 783.965 527.188C785.57 527.188 786.801 526.654 787.656 525.588C788.523 524.521 788.957 523.004 788.957 521.035C788.957 519.055 788.523 517.525 787.656 516.447C786.801 515.369 785.57 514.83 783.965 514.83ZM813.338 530H809.26V519.857C809.26 516.494 808.07 514.812 805.691 514.812C804.449 514.812 803.424 515.281 802.615 516.219C801.807 517.145 801.402 518.316 801.402 519.734V530H797.307V512H801.402V514.988H801.473C802.82 512.715 804.766 511.578 807.309 511.578C809.266 511.578 810.76 512.217 811.791 513.494C812.822 514.76 813.338 516.594 813.338 518.996V530Z" fill="black"/>
<g filter="url(#filter3_i_6_166)">
<path d="M560.375 475.083C560.375 480.264 556.178 484.458 551 484.458C545.822 484.458 541.625 480.264 541.625 475.083C541.625 469.903 545.822 465.708 551 465.708C556.178 465.708 560.375 469.903 560.375 475.083Z" fill="url(#paint10_linear_6_166)"/>
<path d="M610.375 475.083C610.375 480.264 606.178 484.458 601 484.458C595.822 484.458 591.625 480.264 591.625 475.083C591.625 469.903 595.822 465.708 601 465.708C606.178 465.708 610.375 469.903 610.375 475.083Z" fill="url(#paint11_linear_6_166)"/>
<path d="M594.75 520.292V510.917C594.75 509.458 594.125 508 592.875 507.167C590.375 505.083 587.042 503.625 583.708 502.792C581.417 502.167 578.708 501.542 576 501.542C573.5 501.542 570.792 501.958 568.292 502.792C564.958 503.625 561.833 505.292 559.125 507.167C557.875 508.208 557.25 509.458 557.25 510.917V520.292H594.75Z" fill="url(#paint12_linear_6_166)"/>
<path d="M585.375 489.667C585.375 494.847 581.178 499.042 576 499.042C570.822 499.042 566.625 494.847 566.625 489.667C566.625 484.486 570.822 480.292 576 480.292C581.178 480.292 585.375 484.486 585.375 489.667Z" fill="url(#paint13_linear_6_166)"/>
<path d="M617.875 492.583C615.375 490.5 612.042 489.042 608.708 488.208C606.417 487.583 603.708 486.958 601 486.958C598.5 486.958 595.792 487.375 593.292 488.208C592.042 488.625 590.792 489.042 589.542 489.667V489.875C589.542 493.417 588.083 496.75 585.792 499.042C589.75 500.292 592.875 501.958 595.375 503.833C596 504.458 596.625 504.875 597.042 505.708H619.75V496.333C619.75 494.875 619.125 493.417 617.875 492.583Z" fill="url(#paint14_linear_6_166)"/>
<path d="M556.625 503.833C559.542 501.75 562.875 500.083 566.208 499.042C563.917 496.542 562.458 493.417 562.458 489.875C562.458 489.667 562.458 489.667 562.458 489.458C561.208 489.042 559.958 488.417 558.708 488.208C556.417 487.583 553.708 486.958 551 486.958C548.5 486.958 545.792 487.375 543.292 488.208C539.958 489.25 536.833 490.708 534.125 492.583C532.875 493.417 532.25 494.875 532.25 496.333V505.708H554.75C555.375 504.875 555.792 504.458 556.625 503.833Z" fill="url(#paint15_linear_6_166)"/>
</g>
<circle cx="451.25" cy="493.25" r="28.3755" fill="url(#paint16_linear_6_166)" stroke="#FAFAFA" stroke-width="1.75"/>
<path d="M458.163 505.02H443.661V503.232C443.661 502.501 443.763 501.819 443.967 501.185C444.171 500.541 444.445 499.939 444.789 499.38C445.133 498.811 445.536 498.279 445.997 497.785C446.459 497.28 446.954 496.797 447.48 496.335C448.006 495.862 448.543 495.411 449.091 494.982C449.639 494.541 450.176 494.101 450.703 493.66C451.197 493.241 451.648 492.833 452.056 492.436C452.464 492.027 452.813 491.608 453.103 491.179C453.393 490.749 453.619 490.298 453.78 489.825C453.941 489.342 454.022 488.821 454.022 488.262C454.022 487.65 453.925 487.118 453.732 486.667C453.549 486.205 453.286 485.824 452.942 485.523C452.609 485.212 452.212 484.981 451.75 484.83C451.288 484.669 450.783 484.588 450.235 484.588C449.29 484.588 448.329 484.809 447.351 485.249C446.373 485.69 445.434 486.35 444.531 487.231V483.638C445.004 483.283 445.482 482.977 445.965 482.719C446.449 482.451 446.948 482.231 447.464 482.059C447.979 481.876 448.522 481.742 449.091 481.656C449.661 481.57 450.268 481.527 450.912 481.527C451.954 481.527 452.899 481.667 453.748 481.946C454.597 482.214 455.322 482.617 455.923 483.154C456.525 483.681 456.987 484.341 457.309 485.136C457.642 485.931 457.809 486.844 457.809 487.876C457.809 488.81 457.69 489.653 457.454 490.405C457.228 491.147 456.901 491.839 456.471 492.484C456.052 493.129 455.542 493.741 454.94 494.321C454.339 494.901 453.667 495.497 452.926 496.109C452.303 496.614 451.68 497.108 451.057 497.592C450.445 498.065 449.892 498.532 449.397 498.994C448.903 499.445 448.5 499.901 448.189 500.363C447.888 500.815 447.738 501.271 447.738 501.733V501.814H458.163V505.02Z" fill="white"/>
<g filter="url(#filter4_f_6_166)">
<rect x="451" y="226" width="600" height="125" rx="20" fill="#CCCCCC" fill-opacity="0.8"/>
</g>
<rect x="451" y="226" width="600" height="125" rx="20" fill="white"/>
<rect x="451" y="226" width="600" height="125" rx="20" fill="url(#paint17_linear_6_166)" fill-opacity="0.33"/>
<path d="M680.5 279.422C676.867 279.422 673.955 278.244 671.764 275.889C669.584 273.533 668.494 270.469 668.494 266.695C668.494 262.641 669.607 259.406 671.834 256.992C674.061 254.578 677.084 253.371 680.904 253.371C684.443 253.371 687.291 254.543 689.447 256.887C691.615 259.23 692.699 262.295 692.699 266.08C692.699 270.193 691.592 273.445 689.377 275.836C687.162 278.227 684.203 279.422 680.5 279.422ZM680.693 257.045C678.385 257.045 676.504 257.906 675.051 259.629C673.609 261.352 672.889 263.619 672.889 266.432C672.889 269.232 673.592 271.488 674.998 273.199C676.404 274.91 678.244 275.766 680.518 275.766C682.932 275.766 684.836 274.951 686.23 273.322C687.625 271.693 688.322 269.414 688.322 266.484C688.322 263.473 687.643 261.146 686.283 259.506C684.936 257.865 683.072 257.045 680.693 257.045ZM707.307 264.885C706.814 264.498 706.105 264.305 705.18 264.305C703.973 264.305 702.965 264.85 702.156 265.939C701.348 267.029 700.943 268.512 700.943 270.387V279H696.865V261H700.943V264.709H701.014C701.412 263.443 702.021 262.459 702.842 261.756C703.674 261.041 704.6 260.684 705.619 260.684C706.357 260.684 706.92 260.795 707.307 261.018V264.885ZM726.256 277.559C726.256 284.168 722.934 287.473 716.289 287.473C713.945 287.473 711.9 287.08 710.154 286.295V282.568C712.123 283.693 713.992 284.256 715.762 284.256C720.039 284.256 722.178 282.152 722.178 277.945V275.977H722.107C720.76 278.273 718.732 279.422 716.025 279.422C713.834 279.422 712.064 278.625 710.717 277.031C709.381 275.426 708.713 273.275 708.713 270.58C708.713 267.521 709.434 265.09 710.875 263.285C712.316 261.48 714.297 260.578 716.816 260.578C719.195 260.578 720.959 261.551 722.107 263.496H722.178V261H726.256V277.559ZM722.213 270.756V268.418C722.213 267.152 721.791 266.074 720.947 265.184C720.115 264.281 719.072 263.83 717.818 263.83C716.271 263.83 715.059 264.404 714.18 265.553C713.312 266.689 712.879 268.283 712.879 270.334C712.879 272.104 713.295 273.521 714.127 274.588C714.971 275.643 716.084 276.17 717.467 276.17C718.873 276.17 720.016 275.666 720.895 274.658C721.773 273.639 722.213 272.338 722.213 270.756ZM745.381 279H741.426V276.188H741.355C740.113 278.344 738.291 279.422 735.889 279.422C734.119 279.422 732.73 278.941 731.723 277.98C730.727 277.02 730.229 275.748 730.229 274.166C730.229 270.768 732.186 268.787 736.1 268.225L741.443 267.469C741.443 264.902 740.225 263.619 737.787 263.619C735.643 263.619 733.709 264.357 731.986 265.834V262.266C733.885 261.141 736.076 260.578 738.561 260.578C743.107 260.578 745.381 262.816 745.381 267.293V279ZM741.443 270.158L737.664 270.686C736.492 270.838 735.607 271.125 735.01 271.547C734.424 271.957 734.131 272.684 734.131 273.727C734.131 274.488 734.4 275.115 734.939 275.607C735.49 276.088 736.223 276.328 737.137 276.328C738.379 276.328 739.404 275.895 740.213 275.027C741.033 274.148 741.443 273.047 741.443 271.723V270.158ZM766.404 279H762.326V268.857C762.326 265.494 761.137 263.812 758.758 263.812C757.516 263.812 756.49 264.281 755.682 265.219C754.873 266.145 754.469 267.316 754.469 268.734V279H750.373V261H754.469V263.988H754.539C755.887 261.715 757.832 260.578 760.375 260.578C762.332 260.578 763.826 261.217 764.857 262.494C765.889 263.76 766.404 265.594 766.404 267.996V279ZM773.453 257.221C772.785 257.221 772.211 257.004 771.73 256.57C771.262 256.137 771.027 255.586 771.027 254.918C771.027 254.25 771.262 253.693 771.73 253.248C772.211 252.803 772.785 252.58 773.453 252.58C774.145 252.58 774.73 252.803 775.211 253.248C775.691 253.693 775.932 254.25 775.932 254.918C775.932 255.551 775.691 256.096 775.211 256.553C774.73 256.998 774.145 257.221 773.453 257.221ZM775.475 279H771.396V261H775.475V279ZM794.107 262.705L784.387 275.818H794.072V279H778.674V277.471L788.605 264.182H779.623V261H794.107V262.705ZM811.369 279H807.414V276.188H807.344C806.102 278.344 804.279 279.422 801.877 279.422C800.107 279.422 798.719 278.941 797.711 277.98C796.715 277.02 796.217 275.748 796.217 274.166C796.217 270.768 798.174 268.787 802.088 268.225L807.432 267.469C807.432 264.902 806.213 263.619 803.775 263.619C801.631 263.619 799.697 264.357 797.975 265.834V262.266C799.873 261.141 802.064 260.578 804.549 260.578C809.096 260.578 811.369 262.816 811.369 267.293V279ZM807.432 270.158L803.652 270.686C802.48 270.838 801.596 271.125 800.998 271.547C800.412 271.957 800.119 272.684 800.119 273.727C800.119 274.488 800.389 275.115 800.928 275.607C801.479 276.088 802.211 276.328 803.125 276.328C804.367 276.328 805.393 275.895 806.201 275.027C807.021 274.148 807.432 273.047 807.432 271.723V270.158ZM825.854 278.807C825.057 279.205 824.008 279.404 822.707 279.404C819.215 279.404 817.469 277.729 817.469 274.377V264.199H814.463V261H817.469V256.834L821.547 255.674V261H825.854V264.199H821.547V273.199C821.547 274.266 821.74 275.027 822.127 275.484C822.514 275.941 823.158 276.17 824.061 276.17C824.752 276.17 825.35 275.971 825.854 275.572V278.807ZM831.426 257.221C830.758 257.221 830.184 257.004 829.703 256.57C829.234 256.137 829 255.586 829 254.918C829 254.25 829.234 253.693 829.703 253.248C830.184 252.803 830.758 252.58 831.426 252.58C832.117 252.58 832.703 252.803 833.184 253.248C833.664 253.693 833.904 254.25 833.904 254.918C833.904 255.551 833.664 256.096 833.184 256.553C832.703 256.998 832.117 257.221 831.426 257.221ZM833.447 279H829.369V261H833.447V279ZM846.771 279.422C843.994 279.422 841.773 278.584 840.109 276.908C838.457 275.221 837.631 272.988 837.631 270.211C837.631 267.188 838.492 264.826 840.215 263.127C841.949 261.428 844.281 260.578 847.211 260.578C850.023 260.578 852.215 261.404 853.785 263.057C855.355 264.709 856.141 267 856.141 269.93C856.141 272.801 855.291 275.104 853.592 276.838C851.904 278.561 849.631 279.422 846.771 279.422ZM846.965 263.83C845.371 263.83 844.111 264.387 843.186 265.5C842.26 266.613 841.797 268.148 841.797 270.105C841.797 271.992 842.266 273.48 843.203 274.57C844.141 275.648 845.395 276.188 846.965 276.188C848.57 276.188 849.801 275.654 850.656 274.588C851.523 273.521 851.957 272.004 851.957 270.035C851.957 268.055 851.523 266.525 850.656 265.447C849.801 264.369 848.57 263.83 846.965 263.83ZM876.338 279H872.26V268.857C872.26 265.494 871.07 263.812 868.691 263.812C867.449 263.812 866.424 264.281 865.615 265.219C864.807 266.145 864.402 267.316 864.402 268.734V279H860.307V261H864.402V263.988H864.473C865.82 261.715 867.766 260.578 870.309 260.578C872.266 260.578 873.76 261.217 874.791 262.494C875.822 263.76 876.338 265.594 876.338 267.996V279ZM895.146 279H891.191V276.188H891.121C889.879 278.344 888.057 279.422 885.654 279.422C883.885 279.422 882.496 278.941 881.488 277.98C880.492 277.02 879.994 275.748 879.994 274.166C879.994 270.768 881.951 268.787 885.865 268.225L891.209 267.469C891.209 264.902 889.99 263.619 887.553 263.619C885.408 263.619 883.475 264.357 881.752 265.834V262.266C883.65 261.141 885.842 260.578 888.326 260.578C892.873 260.578 895.146 262.816 895.146 267.293V279ZM891.209 270.158L887.43 270.686C886.258 270.838 885.373 271.125 884.775 271.547C884.189 271.957 883.896 272.684 883.896 273.727C883.896 274.488 884.166 275.115 884.705 275.607C885.256 276.088 885.988 276.328 886.902 276.328C888.145 276.328 889.17 275.895 889.979 275.027C890.799 274.148 891.209 273.047 891.209 271.723V270.158ZM904.234 279H900.139V252.352H904.234V279ZM683.471 327H679.516V324.188H679.445C678.203 326.344 676.381 327.422 673.979 327.422C672.209 327.422 670.82 326.941 669.812 325.98C668.816 325.02 668.318 323.748 668.318 322.166C668.318 318.768 670.275 316.787 674.189 316.225L679.533 315.469C679.533 312.902 678.314 311.619 675.877 311.619C673.732 311.619 671.799 312.357 670.076 313.834V310.266C671.975 309.141 674.166 308.578 676.65 308.578C681.197 308.578 683.471 310.816 683.471 315.293V327ZM679.533 318.158L675.754 318.686C674.582 318.838 673.697 319.125 673.1 319.547C672.514 319.957 672.221 320.684 672.221 321.727C672.221 322.488 672.49 323.115 673.029 323.607C673.58 324.088 674.312 324.328 675.227 324.328C676.469 324.328 677.494 323.895 678.303 323.027C679.123 322.148 679.533 321.047 679.533 319.723V318.158ZM704.828 327H700.75V323.941H700.68C699.367 326.262 697.346 327.422 694.615 327.422C692.4 327.422 690.625 326.619 689.289 325.014C687.965 323.396 687.303 321.199 687.303 318.422C687.303 315.445 688.035 313.061 689.5 311.268C690.977 309.475 692.939 308.578 695.389 308.578C697.814 308.578 699.578 309.551 700.68 311.496H700.75V300.352H704.828V327ZM700.803 318.773V316.418C700.803 315.141 700.387 314.057 699.555 313.166C698.723 312.275 697.662 311.83 696.373 311.83C694.85 311.83 693.648 312.398 692.77 313.535C691.902 314.672 691.469 316.248 691.469 318.264C691.469 320.092 691.885 321.539 692.717 322.605C693.561 323.66 694.691 324.188 696.109 324.188C697.504 324.188 698.635 323.678 699.502 322.658C700.369 321.627 700.803 320.332 700.803 318.773ZM718.135 327.422C715.357 327.422 713.137 326.584 711.473 324.908C709.82 323.221 708.994 320.988 708.994 318.211C708.994 315.188 709.855 312.826 711.578 311.127C713.312 309.428 715.645 308.578 718.574 308.578C721.387 308.578 723.578 309.404 725.148 311.057C726.719 312.709 727.504 315 727.504 317.93C727.504 320.801 726.654 323.104 724.955 324.838C723.268 326.561 720.994 327.422 718.135 327.422ZM718.328 311.83C716.734 311.83 715.475 312.387 714.549 313.5C713.623 314.613 713.16 316.148 713.16 318.105C713.16 319.992 713.629 321.48 714.566 322.57C715.504 323.648 716.758 324.188 718.328 324.188C719.934 324.188 721.164 323.654 722.02 322.588C722.887 321.521 723.32 320.004 723.32 318.035C723.32 316.055 722.887 314.525 722.02 313.447C721.164 312.369 719.934 311.83 718.328 311.83ZM735.818 324.346H735.748V335.279H731.67V309H735.748V312.164H735.818C737.213 309.773 739.252 308.578 741.936 308.578C744.221 308.578 746.002 309.381 747.279 310.986C748.557 312.592 749.195 314.748 749.195 317.455C749.195 320.455 748.475 322.857 747.033 324.662C745.592 326.467 743.623 327.369 741.127 327.369C738.83 327.369 737.061 326.361 735.818 324.346ZM735.713 317.244V319.477C735.713 320.789 736.129 321.902 736.961 322.816C737.805 323.73 738.871 324.188 740.16 324.188C741.672 324.188 742.855 323.602 743.711 322.43C744.578 321.246 745.012 319.6 745.012 317.49C745.012 315.721 744.607 314.338 743.799 313.342C743.002 312.334 741.918 311.83 740.547 311.83C739.094 311.83 737.922 312.346 737.031 313.377C736.152 314.408 735.713 315.697 735.713 317.244ZM762.854 326.807C762.057 327.205 761.008 327.404 759.707 327.404C756.215 327.404 754.469 325.729 754.469 322.377V312.199H751.463V309H754.469V304.834L758.547 303.674V309H762.854V312.199H758.547V321.199C758.547 322.266 758.74 323.027 759.127 323.484C759.514 323.941 760.158 324.17 761.061 324.17C761.752 324.17 762.35 323.971 762.854 323.572V326.807ZM768.426 305.221C767.758 305.221 767.184 305.004 766.703 304.57C766.234 304.137 766 303.586 766 302.918C766 302.25 766.234 301.693 766.703 301.248C767.184 300.803 767.758 300.58 768.426 300.58C769.117 300.58 769.703 300.803 770.184 301.248C770.664 301.693 770.904 302.25 770.904 302.918C770.904 303.551 770.664 304.096 770.184 304.553C769.703 304.998 769.117 305.221 768.426 305.221ZM770.447 327H766.369V309H770.447V327ZM783.771 327.422C780.994 327.422 778.773 326.584 777.109 324.908C775.457 323.221 774.631 320.988 774.631 318.211C774.631 315.188 775.492 312.826 777.215 311.127C778.949 309.428 781.281 308.578 784.211 308.578C787.023 308.578 789.215 309.404 790.785 311.057C792.355 312.709 793.141 315 793.141 317.93C793.141 320.801 792.291 323.104 790.592 324.838C788.904 326.561 786.631 327.422 783.771 327.422ZM783.965 311.83C782.371 311.83 781.111 312.387 780.186 313.5C779.26 314.613 778.797 316.148 778.797 318.105C778.797 319.992 779.266 321.48 780.203 322.57C781.141 323.648 782.395 324.188 783.965 324.188C785.57 324.188 786.801 323.654 787.656 322.588C788.523 321.521 788.957 320.004 788.957 318.035C788.957 316.055 788.523 314.525 787.656 313.447C786.801 312.369 785.57 311.83 783.965 311.83ZM813.338 327H809.26V316.857C809.26 313.494 808.07 311.812 805.691 311.812C804.449 311.812 803.424 312.281 802.615 313.219C801.807 314.145 801.402 315.316 801.402 316.734V327H797.307V309H801.402V311.988H801.473C802.82 309.715 804.766 308.578 807.309 308.578C809.266 308.578 810.76 309.217 811.791 310.494C812.822 311.76 813.338 313.594 813.338 315.996V327Z" fill="black"/>
<g filter="url(#filter5_i_6_166)">
<path d="M592.614 269.771H586.927V264.646H592.614V269.771ZM592.614 283.438H586.927V278.312H592.614V283.438ZM592.614 297.104H586.927V291.979H592.614V297.104ZM592.614 310.771H586.927V305.646H592.614V310.771ZM579.344 269.771H573.656V264.646H579.344V269.771ZM579.344 283.438H573.656V278.312H579.344V283.438ZM579.344 297.104H573.656V291.979H579.344V297.104ZM579.344 315.896H573.656V305.646H579.344V315.896ZM566.073 269.771H560.385V264.646H566.073V269.771ZM566.073 283.438H560.385V278.312H566.073V283.438ZM566.073 297.104H560.385V291.979H566.073V297.104ZM566.073 310.771H560.385V305.646H566.073V310.771ZM599.25 315.896V258.667H596.406V253.542H593.562V250.125H559.437V253.542H556.594V258.667H553.75V315.896H549.958V321.875H603.041V315.896H599.25Z" fill="url(#paint18_linear_6_166)"/>
</g>
<circle cx="451.25" cy="288.25" r="28.3755" fill="url(#paint19_linear_6_166)" stroke="#FAFAFA" stroke-width="1.75"/>
<path d="M454.521 276.398V300.02H450.783V280.974C450.106 281.458 449.376 281.871 448.592 282.215C447.818 282.548 446.932 282.843 445.933 283.101V279.911C446.556 279.707 447.158 279.492 447.738 279.266C448.318 279.041 448.887 278.788 449.446 278.509C450.015 278.23 450.584 277.918 451.154 277.574C451.734 277.231 452.33 276.838 452.942 276.398H454.521Z" fill="white"/>
<path d="M1027.59 320.586C1026.8 321.367 1026.8 322.633 1027.59 323.414L1040.31 336.142C1041.09 336.923 1042.36 336.923 1043.14 336.142C1043.92 335.361 1043.92 334.095 1043.14 333.314L1031.83 322L1043.14 310.686C1043.92 309.905 1043.92 308.639 1043.14 307.858C1042.36 307.077 1041.09 307.077 1040.31 307.858L1027.59 320.586ZM1027.59 469.586C1026.8 470.367 1026.8 471.633 1027.59 472.414L1040.31 485.142C1041.09 485.923 1042.36 485.923 1043.14 485.142C1043.92 484.361 1043.92 483.095 1043.14 482.314L1031.83 471L1043.14 459.686C1043.92 458.905 1043.92 457.639 1043.14 456.858C1042.36 456.077 1041.09 456.077 1040.31 456.858L1027.59 469.586ZM1029 324C1044.78 324 1056.71 332.772 1064.78 346.306C1072.88 359.888 1077 378.134 1077 396.5C1077 414.866 1072.88 433.112 1064.78 446.694C1056.71 460.228 1044.78 469 1029 469L1029 473C1046.55 473 1059.62 463.147 1068.22 448.743C1076.78 434.388 1081 415.384 1081 396.5C1081 377.616 1076.78 358.612 1068.22 344.257C1059.62 329.853 1046.55 320 1029 320L1029 324Z" fill="#616161"/>
<path d="M1027.59 519.586C1026.8 520.367 1026.8 521.633 1027.59 522.414L1040.31 535.142C1041.09 535.923 1042.36 535.923 1043.14 535.142C1043.92 534.361 1043.92 533.095 1043.14 532.314L1031.83 521L1043.14 509.686C1043.92 508.905 1043.92 507.639 1043.14 506.858C1042.36 506.077 1041.09 506.077 1040.31 506.858L1027.59 519.586ZM1027.59 668.586C1026.8 669.367 1026.8 670.633 1027.59 671.414L1040.31 684.142C1041.09 684.923 1042.36 684.923 1043.14 684.142C1043.92 683.361 1043.92 682.095 1043.14 681.314L1031.83 670L1043.14 658.686C1043.92 657.905 1043.92 656.639 1043.14 655.858C1042.36 655.077 1041.09 655.077 1040.31 655.858L1027.59 668.586ZM1029 523C1044.78 523 1056.71 531.772 1064.78 545.306C1072.88 558.888 1077 577.134 1077 595.5C1077 613.866 1072.88 632.112 1064.78 645.694C1056.71 659.228 1044.78 668 1029 668L1029 672C1046.55 672 1059.62 662.147 1068.22 647.743C1076.78 633.388 1081 614.384 1081 595.5C1081 576.616 1076.78 557.612 1068.22 543.257C1059.62 528.853 1046.55 519 1029 519L1029 523Z" fill="#616161"/>
<path d="M456.158 122.842H447.371V148H440.41V122.842H431.666V117.191H456.158V122.842ZM478.609 126L469.672 149.762C467.523 155.477 464.286 158.334 459.961 158.334C458.314 158.334 456.96 158.148 455.9 157.775V152.361C456.803 152.891 457.784 153.156 458.844 153.156C460.591 153.156 461.809 152.333 462.496 150.686L463.656 147.957L454.719 126H462.238L466.342 139.385C466.6 140.215 466.8 141.197 466.943 142.328H467.029C467.158 141.497 467.395 140.531 467.738 139.428L471.885 126H478.609ZM488.213 145.443H488.127V158.119H481.338V126H488.127V129.309H488.213C489.889 126.745 492.245 125.463 495.281 125.463C498.132 125.463 500.33 126.444 501.877 128.406C503.438 130.354 504.219 133.011 504.219 136.377C504.219 140.044 503.309 142.987 501.49 145.207C499.686 147.427 497.279 148.537 494.271 148.537C491.622 148.537 489.602 147.506 488.213 145.443ZM488.02 136.42V138.182C488.02 139.7 488.421 140.939 489.223 141.898C490.025 142.858 491.077 143.338 492.381 143.338C493.928 143.338 495.124 142.743 495.969 141.555C496.828 140.352 497.258 138.654 497.258 136.463C497.258 132.596 495.754 130.662 492.746 130.662C491.357 130.662 490.218 131.192 489.33 132.252C488.456 133.298 488.02 134.687 488.02 136.42ZM528.389 138.934H514.037C514.266 142.128 516.279 143.725 520.074 143.725C522.495 143.725 524.622 143.152 526.455 142.006V146.904C524.421 147.993 521.779 148.537 518.527 148.537C514.975 148.537 512.218 147.556 510.256 145.594C508.294 143.617 507.312 140.867 507.312 137.344C507.312 133.691 508.372 130.798 510.492 128.664C512.612 126.53 515.219 125.463 518.312 125.463C521.521 125.463 523.999 126.415 525.746 128.32C527.508 130.225 528.389 132.811 528.389 136.076V138.934ZM522.094 134.766C522.094 131.615 520.819 130.039 518.27 130.039C517.181 130.039 516.236 130.49 515.434 131.393C514.646 132.295 514.166 133.419 513.994 134.766H522.094ZM530.988 147.42V141.92C532.105 142.593 533.215 143.094 534.318 143.424C535.436 143.753 536.488 143.918 537.477 143.918C538.68 143.918 539.625 143.753 540.312 143.424C541.014 143.094 541.365 142.593 541.365 141.92C541.365 141.49 541.208 141.132 540.893 140.846C540.577 140.559 540.169 140.309 539.668 140.094C539.181 139.879 538.644 139.686 538.057 139.514C537.469 139.342 536.904 139.148 536.359 138.934C535.486 138.604 534.712 138.253 534.039 137.881C533.38 137.494 532.822 137.05 532.363 136.549C531.919 136.048 531.576 135.467 531.332 134.809C531.103 134.15 530.988 133.369 530.988 132.467C530.988 131.235 531.253 130.175 531.783 129.287C532.327 128.399 533.044 127.676 533.932 127.117C534.834 126.544 535.858 126.129 537.004 125.871C538.164 125.599 539.367 125.463 540.613 125.463C541.587 125.463 542.576 125.542 543.578 125.699C544.581 125.842 545.569 126.057 546.543 126.344V131.586C545.684 131.085 544.76 130.712 543.771 130.469C542.798 130.211 541.838 130.082 540.893 130.082C540.449 130.082 540.026 130.125 539.625 130.211C539.238 130.283 538.895 130.397 538.594 130.555C538.293 130.698 538.057 130.891 537.885 131.135C537.713 131.364 537.627 131.629 537.627 131.93C537.627 132.331 537.756 132.674 538.014 132.961C538.271 133.247 538.608 133.498 539.023 133.713C539.439 133.913 539.897 134.1 540.398 134.271C540.914 134.429 541.423 134.594 541.924 134.766C542.826 135.081 543.643 135.424 544.373 135.797C545.104 136.169 545.727 136.606 546.242 137.107C546.772 137.609 547.173 138.196 547.445 138.869C547.732 139.542 547.875 140.344 547.875 141.275C547.875 142.579 547.589 143.696 547.016 144.627C546.457 145.544 545.705 146.296 544.76 146.883C543.829 147.456 542.747 147.871 541.516 148.129C540.298 148.401 539.031 148.537 537.713 148.537C535.292 148.537 533.051 148.165 530.988 147.42ZM574.451 148.537C570.785 148.537 567.898 147.513 565.793 145.465C563.702 143.402 562.656 140.609 562.656 137.086C562.656 133.448 563.745 130.605 565.922 128.557C568.099 126.494 571.042 125.463 574.752 125.463C578.404 125.463 581.269 126.494 583.346 128.557C585.423 130.605 586.461 133.319 586.461 136.699C586.461 140.352 585.387 143.238 583.238 145.357C581.104 147.477 578.175 148.537 574.451 148.537ZM574.623 130.662C573.019 130.662 571.773 131.214 570.885 132.316C569.997 133.419 569.553 134.98 569.553 137C569.553 141.225 571.257 143.338 574.666 143.338C577.917 143.338 579.543 141.168 579.543 136.828C579.543 132.717 577.903 130.662 574.623 130.662ZM604.529 120.629C603.656 120.285 602.818 120.113 602.016 120.113C599.839 120.113 598.75 121.295 598.75 123.658V126H603.777V131.006H598.75V148H591.982V131.006H588.287V126H591.982V123.271C591.982 120.765 592.799 118.745 594.432 117.213C596.064 115.68 598.285 114.914 601.092 114.914C602.467 114.914 603.613 115.057 604.529 115.344V120.629ZM637.529 148H631.105V144.842H631.02C629.544 147.305 627.36 148.537 624.467 148.537C622.333 148.537 620.65 147.936 619.418 146.732C618.201 145.515 617.592 143.896 617.592 141.877C617.592 137.609 620.12 135.145 625.176 134.486L631.148 133.691C631.148 131.285 629.845 130.082 627.238 130.082C624.617 130.082 622.125 130.863 619.762 132.424V127.311C620.707 126.824 621.996 126.394 623.629 126.021C625.276 125.649 626.773 125.463 628.119 125.463C634.393 125.463 637.529 128.592 637.529 134.852V148ZM631.148 139.062V137.58L627.152 138.096C624.947 138.382 623.844 139.378 623.844 141.082C623.844 141.855 624.109 142.493 624.639 142.994C625.183 143.481 625.913 143.725 626.83 143.725C628.105 143.725 629.143 143.288 629.945 142.414C630.747 141.526 631.148 140.409 631.148 139.062ZM664.428 148H657.639V144.971H657.553C656.006 147.348 653.736 148.537 650.742 148.537C647.992 148.537 645.779 147.57 644.104 145.637C642.428 143.689 641.59 140.975 641.59 137.494C641.59 133.856 642.514 130.941 644.361 128.75C646.209 126.559 648.63 125.463 651.623 125.463C654.459 125.463 656.436 126.48 657.553 128.514H657.639V115.43H664.428V148ZM657.768 137.301V135.646C657.768 134.214 657.352 133.025 656.521 132.08C655.691 131.135 654.609 130.662 653.277 130.662C651.773 130.662 650.599 131.257 649.754 132.445C648.909 133.62 648.486 135.238 648.486 137.301C648.486 139.234 648.895 140.724 649.711 141.77C650.527 142.815 651.659 143.338 653.105 143.338C654.48 143.338 655.598 142.786 656.457 141.684C657.331 140.581 657.768 139.12 657.768 137.301ZM680.627 148.537C676.96 148.537 674.074 147.513 671.969 145.465C669.878 143.402 668.832 140.609 668.832 137.086C668.832 133.448 669.921 130.605 672.098 128.557C674.275 126.494 677.218 125.463 680.928 125.463C684.58 125.463 687.445 126.494 689.521 128.557C691.598 130.605 692.637 133.319 692.637 136.699C692.637 140.352 691.562 143.238 689.414 145.357C687.28 147.477 684.351 148.537 680.627 148.537ZM680.799 130.662C679.195 130.662 677.949 131.214 677.061 132.316C676.173 133.419 675.729 134.98 675.729 137C675.729 141.225 677.433 143.338 680.842 143.338C684.093 143.338 685.719 141.168 685.719 136.828C685.719 132.717 684.079 130.662 680.799 130.662ZM703.916 145.443H703.83V158.119H697.041V126H703.83V129.309H703.916C705.592 126.745 707.948 125.463 710.984 125.463C713.835 125.463 716.033 126.444 717.58 128.406C719.141 130.354 719.922 133.011 719.922 136.377C719.922 140.044 719.012 142.987 717.193 145.207C715.389 147.427 712.982 148.537 709.975 148.537C707.325 148.537 705.305 147.506 703.916 145.443ZM703.723 136.42V138.182C703.723 139.7 704.124 140.939 704.926 141.898C705.728 142.858 706.781 143.338 708.084 143.338C709.631 143.338 710.827 142.743 711.672 141.555C712.531 140.352 712.961 138.654 712.961 136.463C712.961 132.596 711.457 130.662 708.449 130.662C707.06 130.662 705.921 131.192 705.033 132.252C704.16 133.298 703.723 134.687 703.723 136.42ZM737.625 147.742C736.622 148.272 735.111 148.537 733.092 148.537C728.308 148.537 725.916 146.052 725.916 141.082V131.006H722.35V126H725.916V121.252L732.684 119.318V126H737.625V131.006H732.684V139.9C732.684 142.192 733.593 143.338 735.412 143.338C736.128 143.338 736.866 143.13 737.625 142.715V147.742ZM744.908 122.52C743.762 122.52 742.824 122.183 742.094 121.51C741.363 120.822 740.998 119.984 740.998 118.996C740.998 117.979 741.363 117.148 742.094 116.504C742.824 115.859 743.762 115.537 744.908 115.537C746.068 115.537 747.007 115.859 747.723 116.504C748.453 117.148 748.818 117.979 748.818 118.996C748.818 120.027 748.453 120.872 747.723 121.531C747.007 122.19 746.068 122.52 744.908 122.52ZM748.26 148H741.471V126H748.26V148ZM764.459 148.537C760.792 148.537 757.906 147.513 755.801 145.465C753.71 143.402 752.664 140.609 752.664 137.086C752.664 133.448 753.753 130.605 755.93 128.557C758.107 126.494 761.05 125.463 764.76 125.463C768.412 125.463 771.277 126.494 773.354 128.557C775.43 130.605 776.469 133.319 776.469 136.699C776.469 140.352 775.395 143.238 773.246 145.357C771.112 147.477 768.183 148.537 764.459 148.537ZM764.631 130.662C763.027 130.662 761.781 131.214 760.893 132.316C760.005 133.419 759.561 134.98 759.561 137C759.561 141.225 761.265 143.338 764.674 143.338C767.925 143.338 769.551 141.168 769.551 136.828C769.551 132.717 767.911 130.662 764.631 130.662ZM802.121 148H795.354V135.775C795.354 132.367 794.136 130.662 791.701 130.662C790.527 130.662 789.56 131.113 788.801 132.016C788.042 132.918 787.662 134.064 787.662 135.453V148H780.873V126H787.662V129.48H787.748C789.367 126.802 791.723 125.463 794.816 125.463C799.686 125.463 802.121 128.485 802.121 134.529V148Z" fill="black" fill-opacity="0.6"/>
<line x1="431" y1="173" x2="1079" y2="173" stroke="#616161" stroke-opacity="0.33" stroke-width="2"/>
<defs>
<filter id="filter0_f_6_166" x="441" y="626" width="620" height="145" filterUnits="userSpaceOnUse" color-interpolation-filters="sRGB">
<feFlood flood-opacity="0" result="BackgroundImageFix"/>
<feBlend mode="normal" in="SourceGraphic" in2="BackgroundImageFix" result="shape"/>
<feGaussianBlur stdDeviation="5" result="effect1_foregroundBlur_6_166"/>
</filter>
<filter id="filter1_i_6_166" x="519" y="648" width="100" height="104" filterUnits="userSpaceOnUse" color-interpolation-filters="sRGB">
<feFlood flood-opacity="0" result="BackgroundImageFix"/>
<feBlend mode="normal" in="SourceGraphic" in2="BackgroundImageFix" result="shape"/>
<feColorMatrix in="SourceAlpha" type="matrix" values="0 0 0 0 0 0 0 0 0 0 0 0 0 0 0 0 0 0 127 0" result="hardAlpha"/>
<feOffset dy="4"/>
<feGaussianBlur stdDeviation="2"/>
<feComposite in2="hardAlpha" operator="arithmetic" k2="-1" k3="1"/>
<feColorMatrix type="matrix" values="0 0 0 0 0 0 0 0 0 0 0 0 0 0 0 0 0 0 0.25 0"/>
<feBlend mode="normal" in2="shape" result="effect1_innerShadow_6_166"/>
</filter>
<filter id="filter2_f_6_166" x="441" y="421" width="620" height="145" filterUnits="userSpaceOnUse" color-interpolation-filters="sRGB">
<feFlood flood-opacity="0" result="BackgroundImageFix"/>
<feBlend mode="normal" in="SourceGraphic" in2="BackgroundImageFix" result="shape"/>
<feGaussianBlur stdDeviation="5" result="effect1_foregroundBlur_6_166"/>
</filter>
<filter id="filter3_i_6_166" x="526" y="443" width="100" height="104" filterUnits="userSpaceOnUse" color-interpolation-filters="sRGB">
<feFlood flood-opacity="0" result="BackgroundImageFix"/>
<feBlend mode="normal" in="SourceGraphic" in2="BackgroundImageFix" result="shape"/>
<feColorMatrix in="SourceAlpha" type="matrix" values="0 0 0 0 0 0 0 0 0 0 0 0 0 0 0 0 0 0 127 0" result="hardAlpha"/>
<feOffset dy="4"/>
<feGaussianBlur stdDeviation="2"/>
<feComposite in2="hardAlpha" operator="arithmetic" k2="-1" k3="1"/>
<feColorMatrix type="matrix" values="0 0 0 0 0 0 0 0 0 0 0 0 0 0 0 0 0 0 0.25 0"/>
<feBlend mode="normal" in2="shape" result="effect1_innerShadow_6_166"/>
</filter>
<filter id="filter4_f_6_166" x="441" y="216" width="620" height="145" filterUnits="userSpaceOnUse" color-interpolation-filters="sRGB">
<feFlood flood-opacity="0" result="BackgroundImageFix"/>
<feBlend mode="normal" in="SourceGraphic" in2="BackgroundImageFix" result="shape"/>
<feGaussianBlur stdDeviation="5" result="effect1_foregroundBlur_6_166"/>
</filter>
<filter id="filter5_i_6_166" x="531" y="245" width="91" height="86" filterUnits="userSpaceOnUse" color-interpolation-filters="sRGB">
<feFlood flood-opacity="0" result="BackgroundImageFix"/>
<feBlend mode="normal" in="SourceGraphic" in2="BackgroundImageFix" result="shape"/>
<feColorMatrix in="SourceAlpha" type="matrix" values="0 0 0 0 0 0 0 0 0 0 0 0 0 0 0 0 0 0 127 0" result="hardAlpha"/>
<feOffset dy="4"/>
<feGaussianBlur stdDeviation="2"/>
<feComposite in2="hardAlpha" operator="arithmetic" k2="-1" k3="1"/>
<feColorMatrix type="matrix" values="0 0 0 0 0 0 0 0 0 0 0 0 0 0 0 0 0 0 0.25 0"/>
<feBlend mode="normal" in2="shape" result="effect1_innerShadow_6_166"/>
</filter>
<linearGradient id="paint0_linear_6_166" x1="750" y1="0" x2="750" y2="861" gradientUnits="userSpaceOnUse">
<stop stop-color="white" stop-opacity="0"/>
<stop offset="1" stop-color="#D0D0D0"/>
</linearGradient>
<radialGradient id="paint1_radial_6_166" cx="0" cy="0" r="1" gradientUnits="userSpaceOnUse" gradientTransform="translate(412.899 87.3448) rotate(28.5946) scale(1426.25 1131.29)">
<stop stop-color="#FFB800" stop-opacity="0.6"/>
<stop offset="0.255208" stop-color="#E8E48E"/>
<stop offset="0.776042" stop-color="#177E71" stop-opacity="0.6"/>
<stop offset="1" stop-color="#17597E"/>
</radialGradient>
<linearGradient id="paint2_linear_6_166" x1="535.444" y1="698" x2="669.57" y2="830.759" gradientUnits="userSpaceOnUse">
<stop stop-color="white"/>
<stop offset="1" stop-color="#FAFAFA"/>
</linearGradient>
<linearGradient id="paint3_linear_6_166" x1="533.583" y1="661.542" x2="606.492" y2="733.409" gradientUnits="userSpaceOnUse">
<stop stop-color="#209782"/>
<stop offset="1" stop-color="#0C695A"/>
</linearGradient>
<linearGradient id="paint4_linear_6_166" x1="589.834" y1="661.542" x2="619.123" y2="669.117" gradientUnits="userSpaceOnUse">
<stop stop-color="#209782"/>
<stop offset="1" stop-color="#0C695A"/>
</linearGradient>
<linearGradient id="paint5_linear_6_166" x1="567.958" y1="682.375" x2="594.995" y2="693.048" gradientUnits="userSpaceOnUse">
<stop stop-color="#209782"/>
<stop offset="1" stop-color="#0C695A"/>
</linearGradient>
<linearGradient id="paint6_linear_6_166" x1="546.083" y1="701.125" x2="566.083" y2="716.126" gradientUnits="userSpaceOnUse">
<stop stop-color="#209782"/>
<stop offset="1" stop-color="#0C695A"/>
</linearGradient>
<linearGradient id="paint7_linear_6_166" x1="545.656" y1="661.542" x2="579.416" y2="695.302" gradientUnits="userSpaceOnUse">
<stop stop-color="#209782"/>
<stop offset="1" stop-color="#0C695A"/>
</linearGradient>
<linearGradient id="paint8_linear_6_166" x1="422" y1="669" x2="480.501" y2="727.501" gradientUnits="userSpaceOnUse">
<stop stop-color="#209782"/>
<stop offset="1" stop-color="#0C695A"/>
</linearGradient>
<linearGradient id="paint9_linear_6_166" x1="535.444" y1="493" x2="669.57" y2="625.759" gradientUnits="userSpaceOnUse">
<stop stop-color="white"/>
<stop offset="1" stop-color="#FAFAFA"/>
</linearGradient>
<linearGradient id="paint10_linear_6_166" x1="541.625" y1="465.708" x2="560.375" y2="484.458" gradientUnits="userSpaceOnUse">
<stop stop-color="#209782"/>
<stop offset="1" stop-color="#0C695A"/>
</linearGradient>
<linearGradient id="paint11_linear_6_166" x1="591.625" y1="465.708" x2="610.375" y2="484.458" gradientUnits="userSpaceOnUse">
<stop stop-color="#209782"/>
<stop offset="1" stop-color="#0C695A"/>
</linearGradient>
<linearGradient id="paint12_linear_6_166" x1="557.25" y1="501.542" x2="572.25" y2="531.542" gradientUnits="userSpaceOnUse">
<stop stop-color="#209782"/>
<stop offset="1" stop-color="#0C695A"/>
</linearGradient>
<linearGradient id="paint13_linear_6_166" x1="566.625" y1="480.292" x2="585.375" y2="499.042" gradientUnits="userSpaceOnUse">
<stop stop-color="#209782"/>
<stop offset="1" stop-color="#0C695A"/>
</linearGradient>
<linearGradient id="paint14_linear_6_166" x1="585.792" y1="486.958" x2="601.66" y2="515.697" gradientUnits="userSpaceOnUse">
<stop stop-color="#209782"/>
<stop offset="1" stop-color="#0C695A"/>
</linearGradient>
<linearGradient id="paint15_linear_6_166" x1="532.25" y1="486.958" x2="548.118" y2="515.697" gradientUnits="userSpaceOnUse">
<stop stop-color="#209782"/>
<stop offset="1" stop-color="#0C695A"/>
</linearGradient>
<linearGradient id="paint16_linear_6_166" x1="422" y1="464" x2="480.501" y2="522.501" gradientUnits="userSpaceOnUse">
<stop stop-color="#209782"/>
<stop offset="1" stop-color="#0C695A"/>
</linearGradient>
<linearGradient id="paint17_linear_6_166" x1="535.444" y1="288" x2="669.57" y2="420.759" gradientUnits="userSpaceOnUse">
<stop stop-color="white"/>
<stop offset="1" stop-color="#FAFAFA"/>
</linearGradient>
<linearGradient id="paint18_linear_6_166" x1="549.958" y1="250.125" x2="618.57" y2="300.886" gradientUnits="userSpaceOnUse">
<stop stop-color="#209782"/>
<stop offset="1" stop-color="#0C695A"/>
</linearGradient>
<linearGradient id="paint19_linear_6_166" x1="422" y1="259" x2="480.501" y2="317.501" gradientUnits="userSpaceOnUse">
<stop stop-color="#209782"/>
<stop offset="1" stop-color="#0C695A"/>
</linearGradient>
</defs>
</svg>
