<svg width="1500" height="1000" viewBox="0 0 1500 1000" fill="none" xmlns="http://www.w3.org/2000/svg">
<rect width="1500" height="1000" fill="white"/>
<rect width="1500" height="1000" fill="url(#paint0_linear_6_414)" fill-opacity="0.05"/>
<rect width="1500" height="1000" fill="url(#paint1_radial_6_414)" fill-opacity="0.08"/>
<rect x="0.5" y="0.5" width="1499" height="999" stroke="#333333" stroke-opacity="0.2"/>
<g filter="url(#filter0_f_6_414)">
<path fill-rule="evenodd" clip-rule="evenodd" d="M806 911.896C809.143 912.395 812.535 911.092 814.378 907.988L906.589 752.681C909.823 747.234 905.88 740.353 899.526 740.353L806 740.353L806 911.896ZM806 714.823L926.542 714.823L1011.48 576.104C1014.81 570.659 1010.87 563.681 1004.47 563.681L806 563.681V714.823ZM806 388.812L806 539.172L1029.33 539.172L1113.8 400.436C1117.12 394.983 1113.17 388.014 1106.77 388.031L806 388.812ZM806 363.521V212.788L1209.77 212C1216.12 211.988 1220.08 218.866 1216.85 224.318L1134.44 363.521L806 363.521Z" fill="#CCCCCC" fill-opacity="0.8"/>
</g>
<mask id="path-4-inside-1_6_414" fill="white">
<path fill-rule="evenodd" clip-rule="evenodd" d="M806 911.896C809.143 912.395 812.535 911.092 814.378 907.988L906.589 752.681C909.823 747.234 905.88 740.353 899.526 740.353L806 740.353L806 911.896ZM806 714.823L926.542 714.823L1011.48 576.104C1014.81 570.659 1010.87 563.681 1004.47 563.681L806 563.681V714.823ZM806 388.812L806 539.172L1029.33 539.172L1113.8 400.436C1117.12 394.983 1113.17 388.014 1106.77 388.031L806 388.812ZM806 363.521V212.788L1209.77 212C1216.12 211.988 1220.08 218.866 1216.85 224.318L1134.44 363.521L806 363.521Z"/>
</mask>
<path fill-rule="evenodd" clip-rule="evenodd" d="M806 911.896C809.143 912.395 812.535 911.092 814.378 907.988L906.589 752.681C909.823 747.234 905.88 740.353 899.526 740.353L806 740.353L806 911.896ZM806 714.823L926.542 714.823L1011.48 576.104C1014.81 570.659 1010.87 563.681 1004.47 563.681L806 563.681V714.823ZM806 388.812L806 539.172L1029.33 539.172L1113.8 400.436C1117.12 394.983 1113.17 388.014 1106.77 388.031L806 388.812ZM806 363.521V212.788L1209.77 212C1216.12 211.988 1220.08 218.866 1216.85 224.318L1134.44 363.521L806 363.521Z" fill="white"/>
<path fill-rule="evenodd" clip-rule="evenodd" d="M806 911.896C809.143 912.395 812.535 911.092 814.378 907.988L906.589 752.681C909.823 747.234 905.88 740.353 899.526 740.353L806 740.353L806 911.896ZM806 714.823L926.542 714.823L1011.48 576.104C1014.81 570.659 1010.87 563.681 1004.47 563.681L806 563.681V714.823ZM806 388.812L806 539.172L1029.33 539.172L1113.8 400.436C1117.12 394.983 1113.17 388.014 1106.77 388.031L806 388.812ZM806 363.521V212.788L1209.77 212C1216.12 211.988 1220.08 218.866 1216.85 224.318L1134.44 363.521L806 363.521Z" fill="url(#paint2_linear_6_414)" fill-opacity="0.33"/>
<path d="M814.378 907.988L813.518 907.477V907.477L814.378 907.988ZM806 911.896H805V912.75L805.843 912.884L806 911.896ZM906.589 752.681L905.729 752.17L906.589 752.681ZM806 740.353V739.353H805V740.353H806ZM806 714.823H805V715.823H806V714.823ZM926.542 714.823V715.823H927.103L927.395 715.345L926.542 714.823ZM1011.48 576.104L1012.33 576.626L1011.48 576.104ZM806 563.681V562.681H805V563.681H806ZM806 388.812L805.997 387.812L805 387.815V388.812H806ZM806 539.172H805V540.172H806V539.172ZM1029.33 539.172V540.172H1029.9L1030.19 539.692L1029.33 539.172ZM1113.8 400.436L1114.66 400.956L1113.8 400.436ZM1106.77 388.031L1106.77 389.031L1106.77 388.031ZM806 212.788L805.998 211.788L805 211.79V212.788H806ZM806 363.521H805V364.521H806V363.521ZM1209.77 212L1209.76 211H1209.76L1209.77 212ZM1216.85 224.318L1215.99 223.809H1215.99L1216.85 224.318ZM1134.44 363.521V364.521H1135.01L1135.3 364.031L1134.44 363.521ZM813.518 907.477C811.902 910.199 808.931 911.349 806.157 910.909L805.843 912.884C809.355 913.441 813.168 911.985 815.238 908.498L813.518 907.477ZM905.729 752.17L813.518 907.477L815.238 908.498L907.449 753.191L905.729 752.17ZM899.526 741.353C905.112 741.353 908.563 747.397 905.729 752.17L907.449 753.191C911.082 747.072 906.647 739.353 899.526 739.353V741.353ZM806 741.353L899.526 741.353V739.353L806 739.353V741.353ZM805 740.353L805 911.896H807L807 740.353H805ZM806 715.823L926.542 715.823V713.823L806 713.823V715.823ZM927.395 715.345L1012.33 576.626L1010.62 575.582L925.689 714.301L927.395 715.345ZM1012.33 576.626C1016.07 570.509 1011.65 562.681 1004.47 562.681V564.681C1010.1 564.681 1013.54 570.81 1010.62 575.582L1012.33 576.626ZM1004.47 562.681L806 562.681V564.681L1004.47 564.681V562.681ZM805 563.681V714.823H807V563.681H805ZM805 388.812L805 539.172H807L807 388.812H805ZM806 540.172L1029.33 540.172V538.172L806 538.172V540.172ZM1030.19 539.692L1114.66 400.956L1112.95 399.916L1028.48 538.652L1030.19 539.692ZM1114.66 400.956C1118.39 394.829 1113.94 387.012 1106.76 387.031L1106.77 389.031C1112.4 389.016 1115.86 395.137 1112.95 399.916L1114.66 400.956ZM1106.76 387.031L805.997 387.812L806.003 389.812L1106.77 389.031L1106.76 387.031ZM805 212.788V363.521H807V212.788H805ZM806.002 213.788L1209.77 213L1209.76 211L805.998 211.788L806.002 213.788ZM1209.77 213C1215.36 212.989 1218.82 219.031 1215.99 223.809L1217.71 224.828C1221.34 218.701 1216.89 210.986 1209.76 211L1209.77 213ZM1215.99 223.809L1133.58 363.012L1135.3 364.031L1217.71 224.828L1215.99 223.809ZM1134.44 362.521L806 362.521V364.521L1134.44 364.521V362.521Z" fill="#333333" mask="url(#path-4-inside-1_6_414)"/>
<mask id="path-6-inside-2_6_414" fill="white">
<path fill-rule="evenodd" clip-rule="evenodd" d="M806 911.896C809.143 912.395 812.535 911.092 814.378 907.988L906.589 752.681C909.823 747.234 905.88 740.353 899.526 740.353L806 740.353L806 911.896Z"/>
</mask>
<path fill-rule="evenodd" clip-rule="evenodd" d="M806 911.896C809.143 912.395 812.535 911.092 814.378 907.988L906.589 752.681C909.823 747.234 905.88 740.353 899.526 740.353L806 740.353L806 911.896Z" fill="url(#paint3_linear_6_414)" fill-opacity="0.1"/>
<path d="M814.378 907.988L813.518 907.477L814.378 907.988ZM806 911.896H805V912.75L805.843 912.884L806 911.896ZM906.589 752.681L907.449 753.191H907.449L906.589 752.681ZM806 740.353V739.353H805V740.353H806ZM813.518 907.477C811.902 910.199 808.931 911.349 806.157 910.909L805.843 912.884C809.355 913.441 813.168 911.985 815.238 908.498L813.518 907.477ZM905.729 752.17L813.518 907.477L815.238 908.498L907.449 753.191L905.729 752.17ZM899.526 741.353C905.112 741.353 908.563 747.397 905.729 752.17L907.449 753.191C911.082 747.072 906.647 739.353 899.526 739.353V741.353ZM806 741.353L899.526 741.353V739.353L806 739.353V741.353ZM805 740.353L805 911.896H807L807 740.353H805Z" fill="#333333" mask="url(#path-6-inside-2_6_414)"/>
<mask id="path-8-inside-3_6_414" fill="white">
<path fill-rule="evenodd" clip-rule="evenodd" d="M806 714.823H926.542L1011.48 576.104C1014.81 570.66 1010.87 563.681 1004.47 563.681L806 563.681L806 714.823Z"/>
</mask>
<path fill-rule="evenodd" clip-rule="evenodd" d="M806 714.823H926.542L1011.48 576.104C1014.81 570.66 1010.87 563.681 1004.47 563.681L806 563.681L806 714.823Z" fill="url(#paint4_linear_6_414)" fill-opacity="0.2"/>
<path d="M806 714.823H805V715.823H806V714.823ZM926.542 714.823V715.823H927.102L927.395 715.345L926.542 714.823ZM1011.48 576.104L1012.33 576.626H1012.33L1011.48 576.104ZM806 563.681V562.681H805V563.681H806ZM806 715.823H926.542V713.823H806V715.823ZM927.395 715.345L1012.33 576.626L1010.62 575.582L925.689 714.301L927.395 715.345ZM1012.33 576.626C1016.07 570.509 1011.65 562.681 1004.47 562.681V564.681C1010.1 564.681 1013.54 570.81 1010.62 575.582L1012.33 576.626ZM1004.47 562.681L806 562.681V564.681L1004.47 564.681V562.681ZM805 563.681L805 714.823H807L807 563.681H805Z" fill="#333333" mask="url(#path-8-inside-3_6_414)"/>
<mask id="path-10-inside-4_6_414" fill="white">
<path fill-rule="evenodd" clip-rule="evenodd" d="M806 388.812L806 539.172L1029.33 539.172L1113.8 400.436C1117.12 394.983 1113.17 388.014 1106.77 388.031L806 388.812Z"/>
</mask>
<path fill-rule="evenodd" clip-rule="evenodd" d="M806 388.812L806 539.172L1029.33 539.172L1113.8 400.436C1117.12 394.983 1113.17 388.014 1106.77 388.031L806 388.812Z" fill="url(#paint5_linear_6_414)" fill-opacity="0.33"/>
<path d="M806 388.812L805.998 387.812L805 387.815V388.812H806ZM806 539.172H805V540.172H806V539.172ZM1029.33 539.172V540.172H1029.9L1030.19 539.692L1029.33 539.172ZM1113.8 400.436L1114.66 400.956H1114.66L1113.8 400.436ZM1106.77 388.031L1106.77 389.031H1106.77L1106.77 388.031ZM805 388.812L805 539.172H807L807 388.812H805ZM1029.33 538.172L806 538.172V540.172L1029.33 540.172V538.172ZM1112.95 399.916L1028.48 538.652L1030.19 539.692L1114.66 400.956L1112.95 399.916ZM1106.77 389.031C1112.4 389.016 1115.86 395.137 1112.95 399.916L1114.66 400.956C1118.39 394.829 1113.94 387.012 1106.76 387.031L1106.77 389.031ZM806.003 389.812L1106.77 389.031L1106.76 387.031L805.998 387.812L806.003 389.812Z" fill="#333333" mask="url(#path-10-inside-4_6_414)"/>
<mask id="path-12-inside-5_6_414" fill="white">
<path fill-rule="evenodd" clip-rule="evenodd" d="M806 212.788L806 363.521L1134.44 363.521L1216.85 224.318C1220.08 218.866 1216.12 211.988 1209.77 212L806 212.788Z"/>
</mask>
<path fill-rule="evenodd" clip-rule="evenodd" d="M806 212.788L806 363.521L1134.44 363.521L1216.85 224.318C1220.08 218.866 1216.12 211.988 1209.77 212L806 212.788Z" fill="url(#paint6_linear_6_414)" fill-opacity="0.66"/>
<path d="M806 212.788L805.998 211.788L805 211.79V212.788H806ZM806 363.521H805V364.521H806V363.521ZM1134.44 363.521V364.521H1135.01L1135.3 364.031L1134.44 363.521ZM1216.85 224.318L1215.99 223.809H1215.99L1216.85 224.318ZM1209.77 212L1209.77 213L1209.77 212ZM805 212.788L805 363.521H807L807 212.788H805ZM1134.44 362.521L806 362.521V364.521L1134.44 364.521V362.521ZM1215.99 223.809L1133.58 363.012L1135.3 364.031L1217.71 224.828L1215.99 223.809ZM1209.77 213C1215.36 212.989 1218.82 219.03 1215.99 223.809L1217.71 224.828C1221.34 218.701 1216.89 210.986 1209.76 211L1209.77 213ZM806.002 213.788L1209.77 213L1209.76 211L805.998 211.788L806.002 213.788Z" fill="#333333" mask="url(#path-12-inside-5_6_414)"/>
<path d="M691.115 454.344H683.873V476H679.689V454.344H672.465V450.793H691.115V454.344ZM706.074 468.107H693.805C693.852 469.771 694.361 471.055 695.334 471.957C696.318 472.859 697.666 473.311 699.377 473.311C701.299 473.311 703.062 472.736 704.668 471.588V474.875C703.027 475.906 700.859 476.422 698.164 476.422C695.516 476.422 693.436 475.607 691.924 473.979C690.424 472.338 689.674 470.035 689.674 467.07C689.674 464.27 690.5 461.99 692.152 460.232C693.816 458.463 695.879 457.578 698.34 457.578C700.801 457.578 702.705 458.369 704.053 459.951C705.4 461.533 706.074 463.73 706.074 466.543V468.107ZM702.137 465.225C702.125 463.76 701.779 462.623 701.1 461.814C700.42 460.994 699.482 460.584 698.287 460.584C697.115 460.584 696.119 461.012 695.299 461.867C694.49 462.723 693.992 463.842 693.805 465.225H702.137ZM723.775 476H719.82V473.188H719.75C718.508 475.344 716.686 476.422 714.283 476.422C712.514 476.422 711.125 475.941 710.117 474.98C709.121 474.02 708.623 472.748 708.623 471.166C708.623 467.768 710.58 465.787 714.494 465.225L719.838 464.469C719.838 461.902 718.619 460.619 716.182 460.619C714.037 460.619 712.104 461.357 710.381 462.834V459.266C712.279 458.141 714.471 457.578 716.955 457.578C721.502 457.578 723.775 459.816 723.775 464.293V476ZM719.838 467.158L716.059 467.686C714.887 467.838 714.002 468.125 713.404 468.547C712.818 468.957 712.525 469.684 712.525 470.727C712.525 471.488 712.795 472.115 713.334 472.607C713.885 473.088 714.617 473.328 715.531 473.328C716.773 473.328 717.799 472.895 718.607 472.027C719.428 471.148 719.838 470.047 719.838 468.723V467.158ZM755.68 476H751.602V466.191C751.602 464.305 751.332 462.939 750.793 462.096C750.266 461.252 749.369 460.83 748.104 460.83C747.037 460.83 746.129 461.363 745.379 462.43C744.641 463.496 744.271 464.773 744.271 466.262V476H740.176V465.857C740.176 462.506 738.992 460.83 736.625 460.83C735.523 460.83 734.615 461.334 733.9 462.342C733.197 463.35 732.846 464.656 732.846 466.262V476H728.768V458H732.846V460.848H732.916C734.217 458.668 736.109 457.578 738.594 457.578C739.836 457.578 740.92 457.924 741.846 458.615C742.783 459.295 743.422 460.191 743.762 461.305C745.098 458.82 747.09 457.578 749.738 457.578C753.699 457.578 755.68 460.021 755.68 464.908V476Z" fill="black"/>
<path d="M535.408 653V627.793H542.686C551.979 627.793 556.625 631.889 556.625 640.08C556.625 643.971 555.336 647.1 552.758 649.467C550.18 651.822 546.723 653 542.387 653H535.408ZM539.574 631.344V649.467H542.914C545.855 649.467 548.141 648.658 549.77 647.041C551.41 645.424 552.23 643.139 552.23 640.186C552.23 634.291 549.178 631.344 543.072 631.344H539.574ZM576.031 645.107H563.762C563.809 646.771 564.318 648.055 565.291 648.957C566.275 649.859 567.623 650.311 569.334 650.311C571.256 650.311 573.02 649.736 574.625 648.588V651.875C572.984 652.906 570.816 653.422 568.121 653.422C565.473 653.422 563.393 652.607 561.881 650.979C560.381 649.338 559.631 647.035 559.631 644.07C559.631 641.27 560.457 638.99 562.109 637.232C563.773 635.463 565.836 634.578 568.297 634.578C570.758 634.578 572.662 635.369 574.01 636.951C575.357 638.533 576.031 640.73 576.031 643.543V645.107ZM572.094 642.225C572.082 640.76 571.736 639.623 571.057 638.814C570.377 637.994 569.439 637.584 568.244 637.584C567.072 637.584 566.076 638.012 565.256 638.867C564.447 639.723 563.949 640.842 563.762 642.225H572.094ZM584.064 650.346H583.994V661.279H579.916V635H583.994V638.164H584.064C585.459 635.773 587.498 634.578 590.182 634.578C592.467 634.578 594.248 635.381 595.525 636.986C596.803 638.592 597.441 640.748 597.441 643.455C597.441 646.455 596.721 648.857 595.279 650.662C593.838 652.467 591.869 653.369 589.373 653.369C587.076 653.369 585.307 652.361 584.064 650.346ZM583.959 643.244V645.477C583.959 646.789 584.375 647.902 585.207 648.816C586.051 649.73 587.117 650.188 588.406 650.188C589.918 650.188 591.102 649.602 591.957 648.43C592.824 647.246 593.258 645.6 593.258 643.49C593.258 641.721 592.854 640.338 592.045 639.342C591.248 638.334 590.164 637.83 588.793 637.83C587.34 637.83 586.168 638.346 585.277 639.377C584.398 640.408 583.959 641.697 583.959 643.244ZM615.002 653H611.047V650.188H610.977C609.734 652.344 607.912 653.422 605.51 653.422C603.74 653.422 602.352 652.941 601.344 651.98C600.348 651.02 599.85 649.748 599.85 648.166C599.85 644.768 601.807 642.787 605.721 642.225L611.064 641.469C611.064 638.902 609.846 637.619 607.408 637.619C605.264 637.619 603.33 638.357 601.607 639.834V636.266C603.506 635.141 605.697 634.578 608.182 634.578C612.729 634.578 615.002 636.816 615.002 641.293V653ZM611.064 644.158L607.285 644.686C606.113 644.838 605.229 645.125 604.631 645.547C604.045 645.957 603.752 646.684 603.752 647.727C603.752 648.488 604.021 649.115 604.561 649.607C605.111 650.088 605.844 650.328 606.758 650.328C608 650.328 609.025 649.895 609.834 649.027C610.654 648.148 611.064 647.047 611.064 645.723V644.158ZM630.436 638.885C629.943 638.498 629.234 638.305 628.309 638.305C627.102 638.305 626.094 638.85 625.285 639.939C624.477 641.029 624.072 642.512 624.072 644.387V653H619.994V635H624.072V638.709H624.143C624.541 637.443 625.15 636.459 625.971 635.756C626.803 635.041 627.729 634.684 628.748 634.684C629.486 634.684 630.049 634.795 630.436 635.018V638.885ZM643.865 652.807C643.068 653.205 642.02 653.404 640.719 653.404C637.227 653.404 635.48 651.729 635.48 648.377V638.199H632.475V635H635.48V630.834L639.559 629.674V635H643.865V638.199H639.559V647.199C639.559 648.266 639.752 649.027 640.139 649.484C640.525 649.941 641.17 650.17 642.072 650.17C642.764 650.17 643.361 649.971 643.865 649.572V652.807ZM674.293 653H670.215V643.191C670.215 641.305 669.945 639.939 669.406 639.096C668.879 638.252 667.982 637.83 666.717 637.83C665.65 637.83 664.742 638.363 663.992 639.43C663.254 640.496 662.885 641.773 662.885 643.262V653H658.789V642.857C658.789 639.506 657.605 637.83 655.238 637.83C654.137 637.83 653.229 638.334 652.514 639.342C651.811 640.35 651.459 641.656 651.459 643.262V653H647.381V635H651.459V637.848H651.529C652.83 635.668 654.723 634.578 657.207 634.578C658.449 634.578 659.533 634.924 660.459 635.615C661.396 636.295 662.035 637.191 662.375 638.305C663.711 635.82 665.703 634.578 668.352 634.578C672.312 634.578 674.293 637.021 674.293 641.908V653ZM694.508 645.107H682.238C682.285 646.771 682.795 648.055 683.768 648.957C684.752 649.859 686.1 650.311 687.811 650.311C689.732 650.311 691.496 649.736 693.102 648.588V651.875C691.461 652.906 689.293 653.422 686.598 653.422C683.949 653.422 681.869 652.607 680.357 650.979C678.857 649.338 678.107 647.035 678.107 644.07C678.107 641.27 678.934 638.99 680.586 637.232C682.25 635.463 684.312 634.578 686.773 634.578C689.234 634.578 691.139 635.369 692.486 636.951C693.834 638.533 694.508 640.73 694.508 643.543V645.107ZM690.57 642.225C690.559 640.76 690.213 639.623 689.533 638.814C688.854 637.994 687.916 637.584 686.721 637.584C685.549 637.584 684.553 638.012 683.732 638.867C682.924 639.723 682.426 640.842 682.238 642.225H690.57ZM714.424 653H710.346V642.857C710.346 639.494 709.156 637.812 706.777 637.812C705.535 637.812 704.51 638.281 703.701 639.219C702.893 640.145 702.488 641.316 702.488 642.734V653H698.393V635H702.488V637.988H702.559C703.906 635.715 705.852 634.578 708.395 634.578C710.352 634.578 711.846 635.217 712.877 636.494C713.908 637.76 714.424 639.594 714.424 641.996V653ZM728.908 652.807C728.111 653.205 727.062 653.404 725.762 653.404C722.27 653.404 720.523 651.729 720.523 648.377V638.199H717.518V635H720.523V630.834L724.602 629.674V635H728.908V638.199H724.602V647.199C724.602 648.266 724.795 649.027 725.182 649.484C725.568 649.941 726.213 650.17 727.115 650.17C727.807 650.17 728.404 649.971 728.908 649.572V652.807ZM746.24 653H742.285V650.188H742.215C740.973 652.344 739.15 653.422 736.748 653.422C734.979 653.422 733.59 652.941 732.582 651.98C731.586 651.02 731.088 649.748 731.088 648.166C731.088 644.768 733.045 642.787 736.959 642.225L742.303 641.469C742.303 638.902 741.084 637.619 738.646 637.619C736.502 637.619 734.568 638.357 732.846 639.834V636.266C734.744 635.141 736.936 634.578 739.42 634.578C743.967 634.578 746.24 636.816 746.24 641.293V653ZM742.303 644.158L738.523 644.686C737.352 644.838 736.467 645.125 735.869 645.547C735.283 645.957 734.99 646.684 734.99 647.727C734.99 648.488 735.26 649.115 735.799 649.607C736.35 650.088 737.082 650.328 737.996 650.328C739.238 650.328 740.264 649.895 741.072 649.027C741.893 648.148 742.303 647.047 742.303 645.723V644.158ZM755.328 653H751.232V626.352H755.328V653Z" fill="black"/>
<path d="M611.258 830H597.107V804.793H610.695V808.344H601.291V815.48H609.957V819.014H601.291V826.467H611.258V830ZM631.314 830H627.236V819.857C627.236 816.494 626.047 814.812 623.668 814.812C622.426 814.812 621.4 815.281 620.592 816.219C619.783 817.145 619.379 818.316 619.379 819.734V830H615.283V812H619.379V814.988H619.449C620.797 812.715 622.742 811.578 625.285 811.578C627.242 811.578 628.736 812.217 629.768 813.494C630.799 814.76 631.314 816.594 631.314 818.996V830ZM645.799 829.807C645.002 830.205 643.953 830.404 642.652 830.404C639.16 830.404 637.414 828.729 637.414 825.377V815.199H634.408V812H637.414V807.834L641.492 806.674V812H645.799V815.199H641.492V824.199C641.492 825.266 641.686 826.027 642.072 826.484C642.459 826.941 643.104 827.17 644.006 827.17C644.697 827.17 645.295 826.971 645.799 826.572V829.807ZM664.344 822.107H652.074C652.121 823.771 652.631 825.055 653.604 825.957C654.588 826.859 655.936 827.311 657.646 827.311C659.568 827.311 661.332 826.736 662.938 825.588V828.875C661.297 829.906 659.129 830.422 656.434 830.422C653.785 830.422 651.705 829.607 650.193 827.979C648.693 826.338 647.943 824.035 647.943 821.07C647.943 818.27 648.77 815.99 650.422 814.232C652.086 812.463 654.148 811.578 656.609 811.578C659.07 811.578 660.975 812.369 662.322 813.951C663.67 815.533 664.344 817.73 664.344 820.543V822.107ZM660.406 819.225C660.395 817.76 660.049 816.623 659.369 815.814C658.689 814.994 657.752 814.584 656.557 814.584C655.385 814.584 654.389 815.012 653.568 815.867C652.76 816.723 652.262 817.842 652.074 819.225H660.406ZM678.67 815.885C678.178 815.498 677.469 815.305 676.543 815.305C675.336 815.305 674.328 815.85 673.52 816.939C672.711 818.029 672.307 819.512 672.307 821.387V830H668.229V812H672.307V815.709H672.377C672.775 814.443 673.385 813.459 674.205 812.756C675.037 812.041 675.963 811.684 676.982 811.684C677.721 811.684 678.283 811.795 678.67 812.018V815.885ZM685.701 827.346H685.631V838.279H681.553V812H685.631V815.164H685.701C687.096 812.773 689.135 811.578 691.818 811.578C694.104 811.578 695.885 812.381 697.162 813.986C698.439 815.592 699.078 817.748 699.078 820.455C699.078 823.455 698.357 825.857 696.916 827.662C695.475 829.467 693.506 830.369 691.01 830.369C688.713 830.369 686.943 829.361 685.701 827.346ZM685.596 820.244V822.477C685.596 823.789 686.012 824.902 686.844 825.816C687.688 826.73 688.754 827.188 690.043 827.188C691.555 827.188 692.738 826.602 693.594 825.43C694.461 824.246 694.895 822.6 694.895 820.49C694.895 818.721 694.49 817.338 693.682 816.342C692.885 815.334 691.801 814.83 690.43 814.83C688.977 814.83 687.805 815.346 686.914 816.377C686.035 817.408 685.596 818.697 685.596 820.244ZM713.686 815.885C713.193 815.498 712.484 815.305 711.559 815.305C710.352 815.305 709.344 815.85 708.535 816.939C707.727 818.029 707.322 819.512 707.322 821.387V830H703.244V812H707.322V815.709H707.393C707.791 814.443 708.4 813.459 709.221 812.756C710.053 812.041 710.979 811.684 711.998 811.684C712.736 811.684 713.299 811.795 713.686 812.018V815.885ZM718.625 808.221C717.957 808.221 717.383 808.004 716.902 807.57C716.434 807.137 716.199 806.586 716.199 805.918C716.199 805.25 716.434 804.693 716.902 804.248C717.383 803.803 717.957 803.58 718.625 803.58C719.316 803.58 719.902 803.803 720.383 804.248C720.863 804.693 721.104 805.25 721.104 805.918C721.104 806.551 720.863 807.096 720.383 807.553C719.902 807.998 719.316 808.221 718.625 808.221ZM720.646 830H716.568V812H720.646V830ZM724.865 829.438V825.658C726.389 826.818 728.07 827.398 729.91 827.398C732.371 827.398 733.602 826.672 733.602 825.219C733.602 824.809 733.496 824.463 733.285 824.182C733.074 823.889 732.787 823.631 732.424 823.408C732.072 823.186 731.65 822.986 731.158 822.811C730.678 822.635 730.139 822.436 729.541 822.213C728.803 821.92 728.135 821.609 727.537 821.281C726.951 820.953 726.459 820.584 726.061 820.174C725.674 819.752 725.381 819.277 725.182 818.75C724.982 818.223 724.883 817.607 724.883 816.904C724.883 816.037 725.088 815.275 725.498 814.619C725.908 813.951 726.459 813.395 727.15 812.949C727.842 812.492 728.627 812.152 729.506 811.93C730.385 811.695 731.293 811.578 732.23 811.578C733.895 811.578 735.383 811.83 736.695 812.334V815.902C735.43 815.035 733.977 814.602 732.336 814.602C731.82 814.602 731.352 814.654 730.93 814.76C730.52 814.865 730.168 815.012 729.875 815.199C729.582 815.387 729.354 815.615 729.189 815.885C729.025 816.143 728.943 816.43 728.943 816.746C728.943 817.133 729.025 817.461 729.189 817.73C729.354 818 729.594 818.24 729.91 818.451C730.238 818.65 730.625 818.838 731.07 819.014C731.527 819.178 732.049 819.359 732.635 819.559C733.408 819.875 734.1 820.197 734.709 820.525C735.33 820.854 735.857 821.229 736.291 821.65C736.725 822.061 737.059 822.541 737.293 823.092C737.527 823.631 737.645 824.275 737.645 825.025C737.645 825.939 737.434 826.736 737.012 827.416C736.59 828.096 736.027 828.658 735.324 829.104C734.621 829.549 733.807 829.877 732.881 830.088C731.967 830.311 731 830.422 729.98 830.422C728.012 830.422 726.307 830.094 724.865 829.438ZM756.77 822.107H744.5C744.547 823.771 745.057 825.055 746.029 825.957C747.014 826.859 748.361 827.311 750.072 827.311C751.994 827.311 753.758 826.736 755.363 825.588V828.875C753.723 829.906 751.555 830.422 748.859 830.422C746.211 830.422 744.131 829.607 742.619 827.979C741.119 826.338 740.369 824.035 740.369 821.07C740.369 818.27 741.195 815.99 742.848 814.232C744.512 812.463 746.574 811.578 749.035 811.578C751.496 811.578 753.4 812.369 754.748 813.951C756.096 815.533 756.77 817.73 756.77 820.543V822.107ZM752.832 819.225C752.82 817.76 752.475 816.623 751.795 815.814C751.115 814.994 750.178 814.584 748.982 814.584C747.811 814.584 746.814 815.012 745.994 815.867C745.186 816.723 744.688 817.842 744.5 819.225H752.832Z" fill="black"/>
<path d="M415.775 295H411.726V284.107C411.726 282.931 411.776 281.632 411.878 280.21H411.776C411.565 281.327 411.374 282.131 411.205 282.622L406.939 295H403.588L399.246 282.749C399.128 282.419 398.937 281.573 398.675 280.21H398.561C398.671 282.004 398.726 283.578 398.726 284.933V295H395.031V276.795H401.036L404.756 287.586C405.052 288.449 405.268 289.317 405.403 290.188H405.479C405.708 289.181 405.949 288.305 406.203 287.561L409.923 276.795H415.775V295ZM425.716 295.317C423.549 295.317 421.844 294.712 420.6 293.502C419.364 292.283 418.746 290.633 418.746 288.551C418.746 286.401 419.389 284.721 420.676 283.511C421.962 282.292 423.701 281.683 425.894 281.683C428.052 281.683 429.744 282.292 430.972 283.511C432.199 284.721 432.812 286.325 432.812 288.322C432.812 290.48 432.178 292.186 430.908 293.438C429.647 294.691 427.916 295.317 425.716 295.317ZM425.817 284.755C424.869 284.755 424.133 285.081 423.608 285.732C423.084 286.384 422.821 287.307 422.821 288.5C422.821 290.997 423.828 292.245 425.843 292.245C427.764 292.245 428.725 290.963 428.725 288.398C428.725 285.969 427.756 284.755 425.817 284.755ZM443.896 285.618C443.413 285.356 442.85 285.225 442.207 285.225C441.335 285.225 440.654 285.546 440.163 286.189C439.672 286.824 439.427 287.692 439.427 288.792V295H435.415V282H439.427V284.412H439.478C440.112 282.652 441.255 281.771 442.905 281.771C443.328 281.771 443.659 281.822 443.896 281.924V285.618ZM457.353 289.643H448.872C449.007 291.53 450.197 292.474 452.439 292.474C453.87 292.474 455.127 292.135 456.21 291.458V294.353C455.008 294.996 453.447 295.317 451.525 295.317C449.426 295.317 447.797 294.738 446.638 293.578C445.478 292.41 444.898 290.785 444.898 288.703C444.898 286.545 445.525 284.835 446.777 283.574C448.03 282.313 449.57 281.683 451.398 281.683C453.294 281.683 454.758 282.245 455.791 283.371C456.832 284.497 457.353 286.024 457.353 287.954V289.643ZM453.633 287.18C453.633 285.318 452.88 284.387 451.373 284.387C450.73 284.387 450.171 284.653 449.697 285.187C449.232 285.72 448.948 286.384 448.847 287.18H453.633Z" fill="black" fill-opacity="0.6"/>
<path d="M401.785 811.134H395.361V815.603H401.265V818.929H395.361V826H391.261V807.795H401.785V811.134ZM416.08 820.643H407.6C407.735 822.53 408.924 823.474 411.167 823.474C412.597 823.474 413.854 823.135 414.938 822.458V825.353C413.736 825.996 412.174 826.317 410.253 826.317C408.154 826.317 406.525 825.738 405.365 824.578C404.206 823.41 403.626 821.785 403.626 819.703C403.626 817.545 404.252 815.835 405.505 814.574C406.757 813.313 408.298 812.683 410.126 812.683C412.022 812.683 413.486 813.245 414.519 814.371C415.56 815.497 416.08 817.024 416.08 818.954V820.643ZM412.36 818.18C412.36 816.318 411.607 815.387 410.101 815.387C409.457 815.387 408.899 815.653 408.425 816.187C407.959 816.72 407.676 817.384 407.574 818.18H412.36ZM437.294 813L433.549 826H429.334L427.417 818.383C427.29 817.875 427.218 817.321 427.201 816.72H427.125C427.066 817.38 426.981 817.917 426.871 818.332L424.814 826H420.65L416.981 813H421.069L422.859 821.48C422.944 821.878 423.007 822.361 423.05 822.928H423.126C423.168 822.335 423.244 821.836 423.354 821.43L425.589 813H429.41L431.416 821.48C431.467 821.692 431.526 822.183 431.594 822.953H431.683C431.725 822.462 431.793 821.971 431.886 821.48L433.574 813H437.294ZM450.764 820.643H442.283C442.419 822.53 443.608 823.474 445.851 823.474C447.281 823.474 448.538 823.135 449.621 822.458V825.353C448.419 825.996 446.858 826.317 444.937 826.317C442.838 826.317 441.208 825.738 440.049 824.578C438.889 823.41 438.31 821.785 438.31 819.703C438.31 817.545 438.936 815.835 440.188 814.574C441.441 813.313 442.981 812.683 444.81 812.683C446.705 812.683 448.17 813.245 449.202 814.371C450.243 815.497 450.764 817.024 450.764 818.954V820.643ZM447.044 818.18C447.044 816.318 446.291 815.387 444.784 815.387C444.141 815.387 443.582 815.653 443.108 816.187C442.643 816.72 442.359 817.384 442.258 818.18H447.044ZM461.631 816.618C461.148 816.356 460.586 816.225 459.942 816.225C459.071 816.225 458.389 816.546 457.898 817.189C457.408 817.824 457.162 818.692 457.162 819.792V826H453.15V813H457.162V815.412H457.213C457.848 813.652 458.99 812.771 460.641 812.771C461.064 812.771 461.394 812.822 461.631 812.924V816.618Z" fill="black" fill-opacity="0.6"/>
<g filter="url(#filter1_d_6_414)">
<path d="M626.445 289.859V299H622.279V273.793H629.926C632.82 273.793 635.064 274.467 636.658 275.814C638.252 277.162 639.049 279.061 639.049 281.51C639.049 283.959 638.217 285.963 636.553 287.521C634.889 289.08 632.639 289.859 629.803 289.859H626.445ZM626.445 277.238V286.449H629.152C630.945 286.449 632.311 286.033 633.248 285.201C634.186 284.369 634.654 283.197 634.654 281.686C634.654 278.721 632.932 277.238 629.486 277.238H626.445ZM656.891 291.107H644.621C644.668 292.771 645.178 294.055 646.15 294.957C647.135 295.859 648.482 296.311 650.193 296.311C652.115 296.311 653.879 295.736 655.484 294.588V297.875C653.844 298.906 651.676 299.422 648.98 299.422C646.332 299.422 644.252 298.607 642.74 296.979C641.24 295.338 640.49 293.035 640.49 290.07C640.49 287.27 641.316 284.99 642.969 283.232C644.633 281.463 646.695 280.578 649.156 280.578C651.617 280.578 653.521 281.369 654.869 282.951C656.217 284.533 656.891 286.73 656.891 289.543V291.107ZM652.953 288.225C652.941 286.76 652.596 285.623 651.916 284.814C651.236 283.994 650.299 283.584 649.104 283.584C647.932 283.584 646.936 284.012 646.115 284.867C645.307 285.723 644.809 286.842 644.621 288.225H652.953ZM671.217 284.885C670.725 284.498 670.016 284.305 669.09 284.305C667.883 284.305 666.875 284.85 666.066 285.939C665.258 287.029 664.854 288.512 664.854 290.387V299H660.775V281H664.854V284.709H664.924C665.322 283.443 665.932 282.459 666.752 281.756C667.584 281.041 668.51 280.684 669.529 280.684C670.268 280.684 670.83 280.795 671.217 281.018V284.885ZM673.221 298.438V294.658C674.744 295.818 676.426 296.398 678.266 296.398C680.727 296.398 681.957 295.672 681.957 294.219C681.957 293.809 681.852 293.463 681.641 293.182C681.43 292.889 681.143 292.631 680.779 292.408C680.428 292.186 680.006 291.986 679.514 291.811C679.033 291.635 678.494 291.436 677.896 291.213C677.158 290.92 676.49 290.609 675.893 290.281C675.307 289.953 674.814 289.584 674.416 289.174C674.029 288.752 673.736 288.277 673.537 287.75C673.338 287.223 673.238 286.607 673.238 285.904C673.238 285.037 673.443 284.275 673.854 283.619C674.264 282.951 674.814 282.395 675.506 281.949C676.197 281.492 676.982 281.152 677.861 280.93C678.74 280.695 679.648 280.578 680.586 280.578C682.25 280.578 683.738 280.83 685.051 281.334V284.902C683.785 284.035 682.332 283.602 680.691 283.602C680.176 283.602 679.707 283.654 679.285 283.76C678.875 283.865 678.523 284.012 678.23 284.199C677.938 284.387 677.709 284.615 677.545 284.885C677.381 285.143 677.299 285.43 677.299 285.746C677.299 286.133 677.381 286.461 677.545 286.73C677.709 287 677.949 287.24 678.266 287.451C678.594 287.65 678.98 287.838 679.426 288.014C679.883 288.178 680.404 288.359 680.99 288.559C681.764 288.875 682.455 289.197 683.064 289.525C683.686 289.854 684.213 290.229 684.646 290.65C685.08 291.061 685.414 291.541 685.648 292.092C685.883 292.631 686 293.275 686 294.025C686 294.939 685.789 295.736 685.367 296.416C684.945 297.096 684.383 297.658 683.68 298.104C682.977 298.549 682.162 298.877 681.236 299.088C680.322 299.311 679.355 299.422 678.336 299.422C676.367 299.422 674.662 299.094 673.221 298.438ZM697.865 299.422C695.088 299.422 692.867 298.584 691.203 296.908C689.551 295.221 688.725 292.988 688.725 290.211C688.725 287.188 689.586 284.826 691.309 283.127C693.043 281.428 695.375 280.578 698.305 280.578C701.117 280.578 703.309 281.404 704.879 283.057C706.449 284.709 707.234 287 707.234 289.93C707.234 292.801 706.385 295.104 704.686 296.838C702.998 298.561 700.725 299.422 697.865 299.422ZM698.059 283.83C696.465 283.83 695.205 284.387 694.279 285.5C693.354 286.613 692.891 288.148 692.891 290.105C692.891 291.992 693.359 293.48 694.297 294.57C695.234 295.648 696.488 296.188 698.059 296.188C699.664 296.188 700.895 295.654 701.75 294.588C702.617 293.521 703.051 292.004 703.051 290.035C703.051 288.055 702.617 286.525 701.75 285.447C700.895 284.369 699.664 283.83 698.059 283.83ZM727.432 299H723.354V288.857C723.354 285.494 722.164 283.812 719.785 283.812C718.543 283.812 717.518 284.281 716.709 285.219C715.9 286.145 715.496 287.316 715.496 288.734V299H711.4V281H715.496V283.988H715.566C716.914 281.715 718.859 280.578 721.402 280.578C723.359 280.578 724.854 281.217 725.885 282.494C726.916 283.76 727.432 285.594 727.432 287.996V299ZM746.24 299H742.285V296.188H742.215C740.973 298.344 739.15 299.422 736.748 299.422C734.979 299.422 733.59 298.941 732.582 297.98C731.586 297.02 731.088 295.748 731.088 294.166C731.088 290.768 733.045 288.787 736.959 288.225L742.303 287.469C742.303 284.902 741.084 283.619 738.646 283.619C736.502 283.619 734.568 284.357 732.846 285.834V282.266C734.744 281.141 736.936 280.578 739.42 280.578C743.967 280.578 746.24 282.816 746.24 287.293V299ZM742.303 290.158L738.523 290.686C737.352 290.838 736.467 291.125 735.869 291.547C735.283 291.957 734.99 292.684 734.99 293.727C734.99 294.488 735.26 295.115 735.799 295.607C736.35 296.088 737.082 296.328 737.996 296.328C739.238 296.328 740.264 295.895 741.072 295.027C741.893 294.148 742.303 293.047 742.303 291.723V290.158ZM755.328 299H751.232V272.352H755.328V299Z" fill="black"/>
</g>
<path d="M274.238 137H267.234L254.537 117.643C253.792 116.511 253.277 115.659 252.99 115.086H252.904C253.019 116.174 253.076 117.836 253.076 120.07V137H246.523V106.191H254L266.225 124.947C266.783 125.792 267.299 126.63 267.771 127.461H267.857C267.743 126.745 267.686 125.334 267.686 123.229V106.191H274.238V137ZM301.523 137H294.756V133.648H294.648C292.973 136.241 290.731 137.537 287.924 137.537C282.825 137.537 280.275 134.451 280.275 128.277V115H287.043V127.676C287.043 130.784 288.275 132.338 290.738 132.338C291.956 132.338 292.93 131.915 293.66 131.07C294.391 130.211 294.756 129.051 294.756 127.59V115H301.523V137ZM342.193 137H335.426V124.453C335.426 121.259 334.251 119.662 331.902 119.662C330.785 119.662 329.876 120.142 329.174 121.102C328.472 122.061 328.121 123.257 328.121 124.689V137H321.332V124.324C321.332 121.216 320.179 119.662 317.873 119.662C316.713 119.662 315.782 120.12 315.08 121.037C314.393 121.954 314.049 123.2 314.049 124.775V137H307.26V115H314.049V118.438H314.135C314.837 117.263 315.818 116.311 317.078 115.58C318.353 114.835 319.742 114.463 321.246 114.463C324.354 114.463 326.481 115.831 327.627 118.566C329.303 115.831 331.766 114.463 335.018 114.463C339.801 114.463 342.193 117.413 342.193 123.314V137ZM354.439 134.443H354.354V137H347.564V104.43H354.354V118.309H354.439C356.115 115.745 358.5 114.463 361.594 114.463C364.43 114.463 366.614 115.437 368.146 117.385C369.679 119.333 370.445 121.997 370.445 125.377C370.445 129.044 369.55 131.987 367.76 134.207C365.969 136.427 363.577 137.537 360.584 137.537C357.877 137.537 355.829 136.506 354.439 134.443ZM354.246 125.162V127.418C354.246 128.836 354.654 130.01 355.471 130.941C356.287 131.872 357.333 132.338 358.607 132.338C360.154 132.338 361.35 131.743 362.195 130.555C363.055 129.352 363.484 127.654 363.484 125.463C363.484 123.644 363.09 122.226 362.303 121.209C361.529 120.178 360.419 119.662 358.973 119.662C357.612 119.662 356.48 120.171 355.578 121.188C354.69 122.204 354.246 123.529 354.246 125.162ZM394.615 127.934H380.264C380.493 131.128 382.505 132.725 386.301 132.725C388.721 132.725 390.848 132.152 392.682 131.006V135.904C390.648 136.993 388.005 137.537 384.754 137.537C381.202 137.537 378.445 136.556 376.482 134.594C374.52 132.617 373.539 129.867 373.539 126.344C373.539 122.691 374.599 119.798 376.719 117.664C378.839 115.53 381.445 114.463 384.539 114.463C387.747 114.463 390.225 115.415 391.973 117.32C393.734 119.225 394.615 121.811 394.615 125.076V127.934ZM388.32 123.766C388.32 120.615 387.046 119.039 384.496 119.039C383.408 119.039 382.462 119.49 381.66 120.393C380.872 121.295 380.393 122.419 380.221 123.766H388.32ZM413.006 121.123C412.189 120.679 411.237 120.457 410.148 120.457C408.673 120.457 407.52 121.001 406.689 122.09C405.859 123.164 405.443 124.632 405.443 126.494V137H398.654V115H405.443V119.082H405.529C406.604 116.103 408.537 114.613 411.33 114.613C412.046 114.613 412.605 114.699 413.006 114.871V121.123ZM438.83 137.537C435.163 137.537 432.277 136.513 430.172 134.465C428.081 132.402 427.035 129.609 427.035 126.086C427.035 122.448 428.124 119.605 430.301 117.557C432.478 115.494 435.421 114.463 439.131 114.463C442.783 114.463 445.648 115.494 447.725 117.557C449.801 119.605 450.84 122.319 450.84 125.699C450.84 129.352 449.766 132.238 447.617 134.357C445.483 136.477 442.554 137.537 438.83 137.537ZM439.002 119.662C437.398 119.662 436.152 120.214 435.264 121.316C434.376 122.419 433.932 123.98 433.932 126C433.932 130.225 435.636 132.338 439.045 132.338C442.296 132.338 443.922 130.168 443.922 125.828C443.922 121.717 442.282 119.662 439.002 119.662ZM468.908 109.629C468.035 109.285 467.197 109.113 466.395 109.113C464.217 109.113 463.129 110.295 463.129 112.658V115H468.156V120.006H463.129V137H456.361V120.006H452.666V115H456.361V112.271C456.361 109.765 457.178 107.745 458.811 106.213C460.443 104.68 462.663 103.914 465.471 103.914C466.846 103.914 467.992 104.057 468.908 104.344V109.629ZM500.275 136.205C498.743 137.093 496.53 137.537 493.637 137.537C490.257 137.537 487.521 136.513 485.43 134.465C483.339 132.417 482.293 129.774 482.293 126.537C482.293 122.799 483.41 119.855 485.645 117.707C487.893 115.544 490.894 114.463 494.646 114.463C497.239 114.463 499.115 114.807 500.275 115.494V121.252C498.857 120.192 497.275 119.662 495.527 119.662C493.579 119.662 492.033 120.235 490.887 121.381C489.755 122.512 489.189 124.081 489.189 126.086C489.189 128.034 489.734 129.566 490.822 130.684C491.911 131.786 493.408 132.338 495.312 132.338C497.003 132.338 498.657 131.808 500.275 130.748V136.205ZM515.229 137.537C511.562 137.537 508.676 136.513 506.57 134.465C504.479 132.402 503.434 129.609 503.434 126.086C503.434 122.448 504.522 119.605 506.699 117.557C508.876 115.494 511.82 114.463 515.529 114.463C519.182 114.463 522.046 115.494 524.123 117.557C526.2 119.605 527.238 122.319 527.238 125.699C527.238 129.352 526.164 132.238 524.016 134.357C521.882 136.477 518.952 137.537 515.229 137.537ZM515.4 119.662C513.796 119.662 512.55 120.214 511.662 121.316C510.774 122.419 510.33 123.98 510.33 126C510.33 130.225 512.035 132.338 515.443 132.338C518.695 132.338 520.32 130.168 520.32 125.828C520.32 121.717 518.68 119.662 515.4 119.662ZM552.891 137H546.123V124.775C546.123 121.367 544.906 119.662 542.471 119.662C541.296 119.662 540.329 120.113 539.57 121.016C538.811 121.918 538.432 123.064 538.432 124.453V137H531.643V115H538.432V118.48H538.518C540.136 115.802 542.492 114.463 545.586 114.463C550.456 114.463 552.891 117.485 552.891 123.529V137ZM571.582 136.742C570.579 137.272 569.068 137.537 567.049 137.537C562.265 137.537 559.873 135.052 559.873 130.082V120.006H556.307V115H559.873V110.252L566.641 108.318V115H571.582V120.006H566.641V128.9C566.641 131.192 567.55 132.338 569.369 132.338C570.085 132.338 570.823 132.13 571.582 131.715V136.742ZM595.021 127.934H580.67C580.899 131.128 582.911 132.725 586.707 132.725C589.128 132.725 591.255 132.152 593.088 131.006V135.904C591.054 136.993 588.411 137.537 585.16 137.537C581.608 137.537 578.851 136.556 576.889 134.594C574.926 132.617 573.945 129.867 573.945 126.344C573.945 122.691 575.005 119.798 577.125 117.664C579.245 115.53 581.852 114.463 584.945 114.463C588.154 114.463 590.632 115.415 592.379 117.32C594.141 119.225 595.021 121.811 595.021 125.076V127.934ZM588.727 123.766C588.727 120.615 587.452 119.039 584.902 119.039C583.814 119.039 582.868 119.49 582.066 120.393C581.279 121.295 580.799 122.419 580.627 123.766H588.727ZM620.309 137H613.541V124.775C613.541 121.367 612.324 119.662 609.889 119.662C608.714 119.662 607.747 120.113 606.988 121.016C606.229 121.918 605.85 123.064 605.85 124.453V137H599.061V115H605.85V118.48H605.936C607.554 115.802 609.91 114.463 613.004 114.463C617.874 114.463 620.309 117.485 620.309 123.529V137ZM639 136.742C637.997 137.272 636.486 137.537 634.467 137.537C629.683 137.537 627.291 135.052 627.291 130.082V120.006H623.725V115H627.291V110.252L634.059 108.318V115H639V120.006H634.059V128.9C634.059 131.192 634.968 132.338 636.787 132.338C637.503 132.338 638.241 132.13 639 131.715V136.742ZM671.678 136.205C670.145 137.093 667.932 137.537 665.039 137.537C661.659 137.537 658.923 136.513 656.832 134.465C654.741 132.417 653.695 129.774 653.695 126.537C653.695 122.799 654.812 119.855 657.047 117.707C659.296 115.544 662.296 114.463 666.049 114.463C668.641 114.463 670.518 114.807 671.678 115.494V121.252C670.26 120.192 668.677 119.662 666.93 119.662C664.982 119.662 663.435 120.235 662.289 121.381C661.158 122.512 660.592 124.081 660.592 126.086C660.592 128.034 661.136 129.566 662.225 130.684C663.313 131.786 664.81 132.338 666.715 132.338C668.405 132.338 670.059 131.808 671.678 130.748V136.205ZM690.498 121.123C689.682 120.679 688.729 120.457 687.641 120.457C686.165 120.457 685.012 121.001 684.182 122.09C683.351 123.164 682.936 124.632 682.936 126.494V137H676.146V115H682.936V119.082H683.021C684.096 116.103 686.029 114.613 688.822 114.613C689.538 114.613 690.097 114.699 690.498 114.871V121.123ZM713.271 127.934H698.92C699.149 131.128 701.161 132.725 704.957 132.725C707.378 132.725 709.505 132.152 711.338 131.006V135.904C709.304 136.993 706.661 137.537 703.41 137.537C699.858 137.537 697.101 136.556 695.139 134.594C693.176 132.617 692.195 129.867 692.195 126.344C692.195 122.691 693.255 119.798 695.375 117.664C697.495 115.53 700.102 114.463 703.195 114.463C706.404 114.463 708.882 115.415 710.629 117.32C712.391 119.225 713.271 121.811 713.271 125.076V127.934ZM706.977 123.766C706.977 120.615 705.702 119.039 703.152 119.039C702.064 119.039 701.118 119.49 700.316 120.393C699.529 121.295 699.049 122.419 698.877 123.766H706.977ZM735.615 137H729.191V133.842H729.105C727.63 136.305 725.446 137.537 722.553 137.537C720.419 137.537 718.736 136.936 717.504 135.732C716.286 134.515 715.678 132.896 715.678 130.877C715.678 126.609 718.206 124.145 723.262 123.486L729.234 122.691C729.234 120.285 727.931 119.082 725.324 119.082C722.703 119.082 720.211 119.863 717.848 121.424V116.311C718.793 115.824 720.082 115.394 721.715 115.021C723.362 114.649 724.859 114.463 726.205 114.463C732.479 114.463 735.615 117.592 735.615 123.852V137ZM729.234 128.062V126.58L725.238 127.096C723.033 127.382 721.93 128.378 721.93 130.082C721.93 130.855 722.195 131.493 722.725 131.994C723.269 132.481 723.999 132.725 724.916 132.725C726.191 132.725 727.229 132.288 728.031 131.414C728.833 130.526 729.234 129.409 729.234 128.062ZM754.285 136.742C753.283 137.272 751.771 137.537 749.752 137.537C744.968 137.537 742.576 135.052 742.576 130.082V120.006H739.01V115H742.576V110.252L749.344 108.318V115H754.285V120.006H749.344V128.9C749.344 131.192 750.253 132.338 752.072 132.338C752.788 132.338 753.526 132.13 754.285 131.715V136.742ZM768.443 137.537C764.777 137.537 761.891 136.513 759.785 134.465C757.694 132.402 756.648 129.609 756.648 126.086C756.648 122.448 757.737 119.605 759.914 117.557C762.091 115.494 765.035 114.463 768.744 114.463C772.396 114.463 775.261 115.494 777.338 117.557C779.415 119.605 780.453 122.319 780.453 125.699C780.453 129.352 779.379 132.238 777.23 134.357C775.096 136.477 772.167 137.537 768.443 137.537ZM768.615 119.662C767.011 119.662 765.765 120.214 764.877 121.316C763.989 122.419 763.545 123.98 763.545 126C763.545 130.225 765.249 132.338 768.658 132.338C771.91 132.338 773.535 130.168 773.535 125.828C773.535 121.717 771.895 119.662 768.615 119.662ZM799.209 121.123C798.393 120.679 797.44 120.457 796.352 120.457C794.876 120.457 793.723 121.001 792.893 122.09C792.062 123.164 791.646 124.632 791.646 126.494V137H784.857V115H791.646V119.082H791.732C792.807 116.103 794.74 114.613 797.533 114.613C798.249 114.613 798.808 114.699 799.209 114.871V121.123ZM801.207 136.42V130.92C802.324 131.593 803.434 132.094 804.537 132.424C805.654 132.753 806.707 132.918 807.695 132.918C808.898 132.918 809.844 132.753 810.531 132.424C811.233 132.094 811.584 131.593 811.584 130.92C811.584 130.49 811.426 130.132 811.111 129.846C810.796 129.559 810.388 129.309 809.887 129.094C809.4 128.879 808.863 128.686 808.275 128.514C807.688 128.342 807.122 128.148 806.578 127.934C805.704 127.604 804.931 127.253 804.258 126.881C803.599 126.494 803.04 126.05 802.582 125.549C802.138 125.048 801.794 124.467 801.551 123.809C801.322 123.15 801.207 122.369 801.207 121.467C801.207 120.235 801.472 119.175 802.002 118.287C802.546 117.399 803.262 116.676 804.15 116.117C805.053 115.544 806.077 115.129 807.223 114.871C808.383 114.599 809.586 114.463 810.832 114.463C811.806 114.463 812.794 114.542 813.797 114.699C814.799 114.842 815.788 115.057 816.762 115.344V120.586C815.902 120.085 814.979 119.712 813.99 119.469C813.016 119.211 812.057 119.082 811.111 119.082C810.667 119.082 810.245 119.125 809.844 119.211C809.457 119.283 809.113 119.397 808.812 119.555C808.512 119.698 808.275 119.891 808.104 120.135C807.932 120.364 807.846 120.629 807.846 120.93C807.846 121.331 807.975 121.674 808.232 121.961C808.49 122.247 808.827 122.498 809.242 122.713C809.658 122.913 810.116 123.1 810.617 123.271C811.133 123.429 811.641 123.594 812.143 123.766C813.045 124.081 813.861 124.424 814.592 124.797C815.322 125.169 815.945 125.606 816.461 126.107C816.991 126.609 817.392 127.196 817.664 127.869C817.951 128.542 818.094 129.344 818.094 130.275C818.094 131.579 817.807 132.696 817.234 133.627C816.676 134.544 815.924 135.296 814.979 135.883C814.048 136.456 812.966 136.871 811.734 137.129C810.517 137.401 809.249 137.537 807.932 137.537C805.511 137.537 803.27 137.165 801.207 136.42Z" fill="black" fill-opacity="0.6"/>
<line x1="243" y1="162" x2="1257" y2="162" stroke="#616161" stroke-opacity="0.33" stroke-width="2"/>
<path d="M422 788C422 789.657 423.343 791 425 791C426.657 791 428 789.657 428 788H422ZM427.121 313.879C425.95 312.707 424.05 312.707 422.879 313.879L403.787 332.971C402.615 334.142 402.615 336.042 403.787 337.213C404.958 338.385 406.858 338.385 408.029 337.213L425 320.243L441.971 337.213C443.142 338.385 445.042 338.385 446.213 337.213C447.385 336.042 447.385 334.142 446.213 332.971L427.121 313.879ZM428 788L428 316H422L422 788H428Z" fill="black" fill-opacity="0.6"/>
<defs>
<filter id="filter0_f_6_414" x="796" y="202" width="432" height="720" filterUnits="userSpaceOnUse" color-interpolation-filters="sRGB">
<feFlood flood-opacity="0" result="BackgroundImageFix"/>
<feBlend mode="normal" in="SourceGraphic" in2="BackgroundImageFix" result="shape"/>
<feGaussianBlur stdDeviation="5" result="effect1_foregroundBlur_6_414"/>
</filter>
<filter id="filter1_d_6_414" x="622.279" y="271.352" width="141.049" height="33.0703" filterUnits="userSpaceOnUse" color-interpolation-filters="sRGB">
<feFlood flood-opacity="0" result="BackgroundImageFix"/>
<feColorMatrix in="SourceAlpha" type="matrix" values="0 0 0 0 0 0 0 0 0 0 0 0 0 0 0 0 0 0 127 0" result="hardAlpha"/>
<feOffset dx="5" dy="2"/>
<feGaussianBlur stdDeviation="1.5"/>
<feComposite in2="hardAlpha" operator="out"/>
<feColorMatrix type="matrix" values="0 0 0 0 1 0 0 0 0 1 0 0 0 0 1 0 0 0 1 0"/>
<feBlend mode="normal" in2="BackgroundImageFix" result="effect1_dropShadow_6_414"/>
<feBlend mode="normal" in="SourceGraphic" in2="effect1_dropShadow_6_414" result="shape"/>
</filter>
<linearGradient id="paint0_linear_6_414" x1="750" y1="0" x2="750" y2="1000" gradientUnits="userSpaceOnUse">
<stop stop-color="white" stop-opacity="0"/>
<stop offset="1" stop-color="#D0D0D0"/>
</linearGradient>
<radialGradient id="paint1_radial_6_414" cx="0" cy="0" r="1" gradientUnits="userSpaceOnUse" gradientTransform="translate(412.899 101.446) rotate(32.3377) scale(1482.16 1264.37)">
<stop stop-color="#FFB800" stop-opacity="0.6"/>
<stop offset="0.255208" stop-color="#E8E48E"/>
<stop offset="0.776042" stop-color="#177E71" stop-opacity="0.6"/>
<stop offset="1" stop-color="#17597E"/>
</radialGradient>
<linearGradient id="paint2_linear_6_414" x1="1160.01" y1="564.8" x2="980.329" y2="542.992" gradientUnits="userSpaceOnUse">
<stop stop-color="white"/>
<stop offset="1" stop-color="#FAFAFA"/>
</linearGradient>
<linearGradient id="paint3_linear_6_414" x1="907.744" y1="912" x2="757.163" y2="822.743" gradientUnits="userSpaceOnUse">
<stop stop-color="#209782"/>
<stop offset="1" stop-color="#0C695A"/>
</linearGradient>
<linearGradient id="paint4_linear_6_414" x1="1012.69" y1="714.823" x2="868.659" y2="517.862" gradientUnits="userSpaceOnUse">
<stop stop-color="#209782"/>
<stop offset="1" stop-color="#0C695A"/>
</linearGradient>
<linearGradient id="paint5_linear_6_414" x1="1115.01" y1="539.172" x2="995.697" y2="295.246" gradientUnits="userSpaceOnUse">
<stop stop-color="#209782"/>
<stop offset="1" stop-color="#0C695A"/>
</linearGradient>
<linearGradient id="paint6_linear_6_414" x1="1218" y1="363.521" x2="1119.83" y2="96.5834" gradientUnits="userSpaceOnUse">
<stop stop-color="#209782"/>
<stop offset="1" stop-color="#0C695A"/>
</linearGradient>
</defs>
</svg>
