<svg width="1500" height="1007" viewBox="0 0 1500 1007" fill="none" xmlns="http://www.w3.org/2000/svg">
<rect width="1500" height="1007" fill="white"/>
<rect width="1500" height="1007" fill="url(#paint0_linear_6_395)" fill-opacity="0.05"/>
<rect width="1500" height="1007" fill="url(#paint1_radial_6_395)" fill-opacity="0.08"/>
<rect x="0.5" y="0.5" width="1499" height="1006" stroke="#333333" stroke-opacity="0.2"/>
<g filter="url(#filter0_f_6_395)">
<path fill-rule="evenodd" clip-rule="evenodd" d="M807 904.21L1210.8 903.423C1217.16 903.41 1221.09 896.503 1217.83 891.064L1135.3 753.479H807V904.21ZM807 728.185L1103.46 727.415C1109.83 727.398 1113.75 720.465 1110.46 715.028L1027.43 577.828H807V728.185ZM807 553.319H1001.84C1008.24 553.319 1012.18 546.341 1008.85 540.896L923.913 402.177H807V553.319ZM807 376.647H896.897C903.251 376.647 907.194 369.766 903.96 364.319L811.749 209.012C810.614 207.1 808.891 205.871 807 205.326V376.647Z" fill="#CCCCCC" fill-opacity="0.8"/>
</g>
<mask id="path-4-inside-1_6_395" fill="white">
<path fill-rule="evenodd" clip-rule="evenodd" d="M807 904.21L1210.8 903.423C1217.16 903.41 1221.09 896.503 1217.83 891.064L1135.3 753.479H807V904.21ZM807 728.185L1103.46 727.415C1109.83 727.398 1113.75 720.465 1110.46 715.028L1027.43 577.828H807V728.185ZM807 553.319H1001.84C1008.24 553.319 1012.18 546.341 1008.85 540.896L923.913 402.177H807V553.319ZM807 376.647H896.897C903.251 376.647 907.194 369.766 903.96 364.319L811.749 209.012C810.614 207.1 808.891 205.871 807 205.326V376.647Z"/>
</mask>
<path fill-rule="evenodd" clip-rule="evenodd" d="M807 904.21L1210.8 903.423C1217.16 903.41 1221.09 896.503 1217.83 891.064L1135.3 753.479H807V904.21ZM807 728.185L1103.46 727.415C1109.83 727.398 1113.75 720.465 1110.46 715.028L1027.43 577.828H807V728.185ZM807 553.319H1001.84C1008.24 553.319 1012.18 546.341 1008.85 540.896L923.913 402.177H807V553.319ZM807 376.647H896.897C903.251 376.647 907.194 369.766 903.96 364.319L811.749 209.012C810.614 207.1 808.891 205.871 807 205.326V376.647Z" fill="white"/>
<path fill-rule="evenodd" clip-rule="evenodd" d="M807 904.21L1210.8 903.423C1217.16 903.41 1221.09 896.503 1217.83 891.064L1135.3 753.479H807V904.21ZM807 728.185L1103.46 727.415C1109.83 727.398 1113.75 720.465 1110.46 715.028L1027.43 577.828H807V728.185ZM807 553.319H1001.84C1008.24 553.319 1012.18 546.341 1008.85 540.896L923.913 402.177H807V553.319ZM807 376.647H896.897C903.251 376.647 907.194 369.766 903.96 364.319L811.749 209.012C810.614 207.1 808.891 205.871 807 205.326V376.647Z" fill="url(#paint2_linear_6_395)" fill-opacity="0.33"/>
<path d="M1210.8 903.423L1210.8 902.423L1210.8 903.423ZM807 904.21H806V905.212L807.002 905.21L807 904.21ZM1217.83 891.064L1218.68 890.549L1217.83 891.064ZM1135.3 753.479L1136.16 752.964L1135.87 752.479H1135.3V753.479ZM807 753.479V752.479H806V753.479H807ZM807 728.185H806V729.188L807.003 729.185L807 728.185ZM1103.46 727.415L1103.45 726.415L1103.46 727.415ZM1110.46 715.028L1111.32 714.511L1110.46 715.028ZM1027.43 577.828L1028.28 577.31L1027.99 576.828H1027.43V577.828ZM807 577.828V576.828H806V577.828H807ZM807 553.319H806V554.319H807V553.319ZM1008.85 540.896L1007.99 541.419L1008.85 540.896ZM923.913 402.177L924.766 401.655L924.474 401.177H923.913V402.177ZM807 402.177V401.177H806V402.177H807ZM807 376.647H806V377.647H807V376.647ZM903.96 364.319L904.82 363.809L903.96 364.319ZM811.749 209.012L810.889 209.523L811.749 209.012ZM807 205.326L807.277 204.365L806 203.997V205.326H807ZM1210.8 902.423L806.998 903.21L807.002 905.21L1210.8 904.423L1210.8 902.423ZM1216.97 891.578C1219.83 896.345 1216.39 902.412 1210.8 902.423L1210.8 904.423C1217.93 904.409 1222.35 896.661 1218.68 890.549L1216.97 891.578ZM1134.44 753.993L1216.97 891.578L1218.68 890.549L1136.16 752.964L1134.44 753.993ZM807 754.479H1135.3V752.479H807V754.479ZM806 753.479V904.21H808V753.479H806ZM807.003 729.185L1103.46 728.415L1103.45 726.415L806.997 727.185L807.003 729.185ZM1103.46 728.415C1110.61 728.396 1115.02 720.62 1111.32 714.511L1109.61 715.546C1112.49 720.311 1109.06 726.4 1103.45 726.415L1103.46 728.415ZM1111.32 714.511L1028.28 577.31L1026.57 578.346L1109.61 715.546L1111.32 714.511ZM1027.43 576.828H807V578.828H1027.43V576.828ZM806 577.828V728.185H808V577.828H806ZM807 554.319H1001.84V552.319H807V554.319ZM1001.84 554.319C1009.02 554.319 1013.44 546.491 1009.7 540.374L1007.99 541.419C1010.91 546.19 1007.47 552.319 1001.84 552.319V554.319ZM1009.7 540.374L924.766 401.655L923.061 402.699L1007.99 541.419L1009.7 540.374ZM923.913 401.177H807V403.177H923.913V401.177ZM806 402.177V553.319H808V402.177H806ZM896.897 375.647H807V377.647H896.897V375.647ZM903.101 364.83C905.934 369.603 902.483 375.647 896.897 375.647V377.647C904.019 377.647 908.454 369.928 904.82 363.809L903.101 364.83ZM810.889 209.523L903.101 364.83L904.82 363.809L812.609 208.502L810.889 209.523ZM806.723 206.287C808.381 206.765 809.89 207.839 810.889 209.523L812.609 208.502C811.338 206.36 809.401 204.977 807.277 204.365L806.723 206.287ZM806 205.326V376.647H808V205.326H806Z" fill="#333333" mask="url(#path-4-inside-1_6_395)"/>
<mask id="path-6-inside-2_6_395" fill="white">
<path fill-rule="evenodd" clip-rule="evenodd" d="M807 904.21L1210.8 903.423C1217.16 903.41 1221.09 896.503 1217.83 891.064L1135.3 753.479H807V904.21Z"/>
</mask>
<path fill-rule="evenodd" clip-rule="evenodd" d="M807 904.21L1210.8 903.423C1217.16 903.41 1221.09 896.503 1217.83 891.064L1135.3 753.479H807V904.21Z" fill="url(#paint3_linear_6_395)" fill-opacity="0.66"/>
<path d="M1210.8 903.423L1210.8 902.423L1210.8 903.423ZM807 904.21H806V905.212L807.002 905.21L807 904.21ZM1217.83 891.064L1218.68 890.55V890.55L1217.83 891.064ZM1135.3 753.479L1136.16 752.964L1135.87 752.479H1135.3V753.479ZM807 753.479V752.479H806V753.479H807ZM1210.8 902.423L806.998 903.21L807.002 905.21L1210.8 904.423L1210.8 902.423ZM1216.97 891.578C1219.83 896.345 1216.39 902.412 1210.8 902.423L1210.8 904.423C1217.93 904.409 1222.35 896.661 1218.68 890.55L1216.97 891.578ZM1134.44 753.993L1216.97 891.578L1218.68 890.55L1136.16 752.964L1134.44 753.993ZM807 754.479H1135.3V752.479H807V754.479ZM806 753.479V904.21H808V753.479H806Z" fill="#333333" mask="url(#path-6-inside-2_6_395)"/>
<mask id="path-8-inside-3_6_395" fill="white">
<path fill-rule="evenodd" clip-rule="evenodd" d="M807 728.185L1103.46 727.415C1109.83 727.398 1113.75 720.465 1110.46 715.028L1027.43 577.828H807V728.185Z"/>
</mask>
<path fill-rule="evenodd" clip-rule="evenodd" d="M807 728.185L1103.46 727.415C1109.83 727.398 1113.75 720.465 1110.46 715.028L1027.43 577.828H807V728.185Z" fill="url(#paint4_linear_6_395)" fill-opacity="0.33"/>
<path d="M1103.46 727.415L1103.45 726.415L1103.46 727.415ZM807 728.185H806V729.188L807.003 729.185L807 728.185ZM1110.46 715.028L1111.32 714.511L1110.46 715.028ZM1027.43 577.828L1028.28 577.31L1027.99 576.828H1027.43V577.828ZM807 577.828V576.828H806V577.828H807ZM1103.45 726.415L806.997 727.185L807.003 729.185L1103.46 728.415L1103.45 726.415ZM1109.61 715.546C1112.49 720.311 1109.06 726.4 1103.45 726.415L1103.46 728.415C1110.61 728.396 1115.02 720.62 1111.32 714.511L1109.61 715.546ZM1026.57 578.346L1109.61 715.546L1111.32 714.511L1028.28 577.31L1026.57 578.346ZM807 578.828H1027.43V576.828H807V578.828ZM806 577.828V728.185H808V577.828H806Z" fill="#333333" mask="url(#path-8-inside-3_6_395)"/>
<mask id="path-10-inside-4_6_395" fill="white">
<path fill-rule="evenodd" clip-rule="evenodd" d="M807 553.319H1001.84C1008.24 553.319 1012.18 546.341 1008.85 540.896L923.914 402.177H807V553.319Z"/>
</mask>
<path fill-rule="evenodd" clip-rule="evenodd" d="M807 553.319H1001.84C1008.24 553.319 1012.18 546.341 1008.85 540.896L923.914 402.177H807V553.319Z" fill="url(#paint5_linear_6_395)" fill-opacity="0.2"/>
<path d="M807 553.319H806V554.319H807V553.319ZM1008.85 540.896L1009.7 540.374L1008.85 540.896ZM923.914 402.177L924.766 401.655L924.474 401.177H923.914V402.177ZM807 402.177V401.177H806V402.177H807ZM807 554.319H1001.84V552.319H807V554.319ZM1001.84 554.319C1009.02 554.319 1013.44 546.491 1009.7 540.374L1007.99 541.419C1010.91 546.19 1007.47 552.319 1001.84 552.319V554.319ZM1009.7 540.374L924.766 401.655L923.061 402.699L1007.99 541.419L1009.7 540.374ZM923.914 401.177H807V403.177H923.914V401.177ZM806 402.177V553.319H808V402.177H806Z" fill="#333333" mask="url(#path-10-inside-4_6_395)"/>
<mask id="path-12-inside-5_6_395" fill="white">
<path fill-rule="evenodd" clip-rule="evenodd" d="M807 376.647H896.897C903.251 376.647 907.194 369.766 903.96 364.319L811.749 209.012C810.614 207.1 808.891 205.871 807 205.326V376.647Z"/>
</mask>
<path fill-rule="evenodd" clip-rule="evenodd" d="M807 376.647H896.897C903.251 376.647 907.194 369.766 903.96 364.319L811.749 209.012C810.614 207.1 808.891 205.871 807 205.326V376.647Z" fill="url(#paint6_linear_6_395)" fill-opacity="0.1"/>
<path d="M807 376.647H806V377.647H807V376.647ZM903.96 364.319L903.101 364.83L903.96 364.319ZM811.749 209.012L810.889 209.523H810.889L811.749 209.012ZM807 205.326L807.277 204.365L806 203.997V205.326H807ZM896.897 375.647H807V377.647H896.897V375.647ZM903.101 364.83C905.934 369.603 902.483 375.647 896.897 375.647V377.647C904.019 377.647 908.454 369.928 904.82 363.809L903.101 364.83ZM810.889 209.523L903.101 364.83L904.82 363.809L812.609 208.502L810.889 209.523ZM806.723 206.287C808.381 206.765 809.89 207.839 810.889 209.523L812.609 208.502C811.338 206.36 809.401 204.977 807.277 204.365L806.723 206.287ZM806 205.326V376.647H808V205.326H806Z" fill="#333333" mask="url(#path-12-inside-5_6_395)"/>
<path d="M536.408 488V462.793H543.686C552.979 462.793 557.625 466.889 557.625 475.08C557.625 478.971 556.336 482.1 553.758 484.467C551.18 486.822 547.723 488 543.387 488H536.408ZM540.574 466.344V484.467H543.914C546.855 484.467 549.141 483.658 550.77 482.041C552.41 480.424 553.23 478.139 553.23 475.186C553.23 469.291 550.178 466.344 544.072 466.344H540.574ZM577.031 480.107H564.762C564.809 481.771 565.318 483.055 566.291 483.957C567.275 484.859 568.623 485.311 570.334 485.311C572.256 485.311 574.02 484.736 575.625 483.588V486.875C573.984 487.906 571.816 488.422 569.121 488.422C566.473 488.422 564.393 487.607 562.881 485.979C561.381 484.338 560.631 482.035 560.631 479.07C560.631 476.27 561.457 473.99 563.109 472.232C564.773 470.463 566.836 469.578 569.297 469.578C571.758 469.578 573.662 470.369 575.01 471.951C576.357 473.533 577.031 475.73 577.031 478.543V480.107ZM573.094 477.225C573.082 475.76 572.736 474.623 572.057 473.814C571.377 472.994 570.439 472.584 569.244 472.584C568.072 472.584 567.076 473.012 566.256 473.867C565.447 474.723 564.949 475.842 564.762 477.225H573.094ZM585.064 485.346H584.994V496.279H580.916V470H584.994V473.164H585.064C586.459 470.773 588.498 469.578 591.182 469.578C593.467 469.578 595.248 470.381 596.525 471.986C597.803 473.592 598.441 475.748 598.441 478.455C598.441 481.455 597.721 483.857 596.279 485.662C594.838 487.467 592.869 488.369 590.373 488.369C588.076 488.369 586.307 487.361 585.064 485.346ZM584.959 478.244V480.477C584.959 481.789 585.375 482.902 586.207 483.816C587.051 484.73 588.117 485.188 589.406 485.188C590.918 485.188 592.102 484.602 592.957 483.43C593.824 482.246 594.258 480.6 594.258 478.49C594.258 476.721 593.854 475.338 593.045 474.342C592.248 473.334 591.164 472.83 589.793 472.83C588.34 472.83 587.168 473.346 586.277 474.377C585.398 475.408 584.959 476.697 584.959 478.244ZM616.002 488H612.047V485.188H611.977C610.734 487.344 608.912 488.422 606.51 488.422C604.74 488.422 603.352 487.941 602.344 486.98C601.348 486.02 600.85 484.748 600.85 483.166C600.85 479.768 602.807 477.787 606.721 477.225L612.064 476.469C612.064 473.902 610.846 472.619 608.408 472.619C606.264 472.619 604.33 473.357 602.607 474.834V471.266C604.506 470.141 606.697 469.578 609.182 469.578C613.729 469.578 616.002 471.816 616.002 476.293V488ZM612.064 479.158L608.285 479.686C607.113 479.838 606.229 480.125 605.631 480.547C605.045 480.957 604.752 481.684 604.752 482.727C604.752 483.488 605.021 484.115 605.561 484.607C606.111 485.088 606.844 485.328 607.758 485.328C609 485.328 610.025 484.895 610.834 484.027C611.654 483.148 612.064 482.047 612.064 480.723V479.158ZM631.436 473.885C630.943 473.498 630.234 473.305 629.309 473.305C628.102 473.305 627.094 473.85 626.285 474.939C625.477 476.029 625.072 477.512 625.072 479.387V488H620.994V470H625.072V473.709H625.143C625.541 472.443 626.15 471.459 626.971 470.756C627.803 470.041 628.729 469.684 629.748 469.684C630.486 469.684 631.049 469.795 631.436 470.018V473.885ZM644.865 487.807C644.068 488.205 643.02 488.404 641.719 488.404C638.227 488.404 636.48 486.729 636.48 483.377V473.199H633.475V470H636.48V465.834L640.559 464.674V470H644.865V473.199H640.559V482.199C640.559 483.266 640.752 484.027 641.139 484.484C641.525 484.941 642.17 485.17 643.072 485.17C643.764 485.17 644.361 484.971 644.865 484.572V487.807ZM675.293 488H671.215V478.191C671.215 476.305 670.945 474.939 670.406 474.096C669.879 473.252 668.982 472.83 667.717 472.83C666.65 472.83 665.742 473.363 664.992 474.43C664.254 475.496 663.885 476.773 663.885 478.262V488H659.789V477.857C659.789 474.506 658.605 472.83 656.238 472.83C655.137 472.83 654.229 473.334 653.514 474.342C652.811 475.35 652.459 476.656 652.459 478.262V488H648.381V470H652.459V472.848H652.529C653.83 470.668 655.723 469.578 658.207 469.578C659.449 469.578 660.533 469.924 661.459 470.615C662.396 471.295 663.035 472.191 663.375 473.305C664.711 470.82 666.703 469.578 669.352 469.578C673.312 469.578 675.293 472.021 675.293 476.908V488ZM695.508 480.107H683.238C683.285 481.771 683.795 483.055 684.768 483.957C685.752 484.859 687.1 485.311 688.811 485.311C690.732 485.311 692.496 484.736 694.102 483.588V486.875C692.461 487.906 690.293 488.422 687.598 488.422C684.949 488.422 682.869 487.607 681.357 485.979C679.857 484.338 679.107 482.035 679.107 479.07C679.107 476.27 679.934 473.99 681.586 472.232C683.25 470.463 685.312 469.578 687.773 469.578C690.234 469.578 692.139 470.369 693.486 471.951C694.834 473.533 695.508 475.73 695.508 478.543V480.107ZM691.57 477.225C691.559 475.76 691.213 474.623 690.533 473.814C689.854 472.994 688.916 472.584 687.721 472.584C686.549 472.584 685.553 473.012 684.732 473.867C683.924 474.723 683.426 475.842 683.238 477.225H691.57ZM715.424 488H711.346V477.857C711.346 474.494 710.156 472.812 707.777 472.812C706.535 472.812 705.51 473.281 704.701 474.219C703.893 475.145 703.488 476.316 703.488 477.734V488H699.393V470H703.488V472.988H703.559C704.906 470.715 706.852 469.578 709.395 469.578C711.352 469.578 712.846 470.217 713.877 471.494C714.908 472.76 715.424 474.594 715.424 476.996V488ZM729.908 487.807C729.111 488.205 728.062 488.404 726.762 488.404C723.27 488.404 721.523 486.729 721.523 483.377V473.199H718.518V470H721.523V465.834L725.602 464.674V470H729.908V473.199H725.602V482.199C725.602 483.266 725.795 484.027 726.182 484.484C726.568 484.941 727.213 485.17 728.115 485.17C728.807 485.17 729.404 484.971 729.908 484.572V487.807ZM747.24 488H743.285V485.188H743.215C741.973 487.344 740.15 488.422 737.748 488.422C735.979 488.422 734.59 487.941 733.582 486.98C732.586 486.02 732.088 484.748 732.088 483.166C732.088 479.768 734.045 477.787 737.959 477.225L743.303 476.469C743.303 473.902 742.084 472.619 739.646 472.619C737.502 472.619 735.568 473.357 733.846 474.834V471.266C735.744 470.141 737.936 469.578 740.42 469.578C744.967 469.578 747.24 471.816 747.24 476.293V488ZM743.303 479.158L739.523 479.686C738.352 479.838 737.467 480.125 736.869 480.547C736.283 480.957 735.99 481.684 735.99 482.727C735.99 483.488 736.26 484.115 736.799 484.607C737.35 485.088 738.082 485.328 738.996 485.328C740.238 485.328 741.264 484.895 742.072 484.027C742.893 483.148 743.303 482.047 743.303 480.723V479.158ZM756.328 488H752.232V461.352H756.328V488Z" fill="black"/>
<path d="M700.115 643.344H692.873V665H688.689V643.344H681.465V639.793H700.115V643.344ZM715.074 657.107H702.805C702.852 658.771 703.361 660.055 704.334 660.957C705.318 661.859 706.666 662.311 708.377 662.311C710.299 662.311 712.062 661.736 713.668 660.588V663.875C712.027 664.906 709.859 665.422 707.164 665.422C704.516 665.422 702.436 664.607 700.924 662.979C699.424 661.338 698.674 659.035 698.674 656.07C698.674 653.27 699.5 650.99 701.152 649.232C702.816 647.463 704.879 646.578 707.34 646.578C709.801 646.578 711.705 647.369 713.053 648.951C714.4 650.533 715.074 652.73 715.074 655.543V657.107ZM711.137 654.225C711.125 652.76 710.779 651.623 710.1 650.814C709.42 649.994 708.482 649.584 707.287 649.584C706.115 649.584 705.119 650.012 704.299 650.867C703.49 651.723 702.992 652.842 702.805 654.225H711.137ZM732.775 665H728.82V662.188H728.75C727.508 664.344 725.686 665.422 723.283 665.422C721.514 665.422 720.125 664.941 719.117 663.98C718.121 663.02 717.623 661.748 717.623 660.166C717.623 656.768 719.58 654.787 723.494 654.225L728.838 653.469C728.838 650.902 727.619 649.619 725.182 649.619C723.037 649.619 721.104 650.357 719.381 651.834V648.266C721.279 647.141 723.471 646.578 725.955 646.578C730.502 646.578 732.775 648.816 732.775 653.293V665ZM728.838 656.158L725.059 656.686C723.887 656.838 723.002 657.125 722.404 657.547C721.818 657.957 721.525 658.684 721.525 659.727C721.525 660.488 721.795 661.115 722.334 661.607C722.885 662.088 723.617 662.328 724.531 662.328C725.773 662.328 726.799 661.895 727.607 661.027C728.428 660.148 728.838 659.047 728.838 657.723V656.158ZM764.68 665H760.602V655.191C760.602 653.305 760.332 651.939 759.793 651.096C759.266 650.252 758.369 649.83 757.104 649.83C756.037 649.83 755.129 650.363 754.379 651.43C753.641 652.496 753.271 653.773 753.271 655.262V665H749.176V654.857C749.176 651.506 747.992 649.83 745.625 649.83C744.523 649.83 743.615 650.334 742.9 651.342C742.197 652.35 741.846 653.656 741.846 655.262V665H737.768V647H741.846V649.848H741.916C743.217 647.668 745.109 646.578 747.594 646.578C748.836 646.578 749.92 646.924 750.846 647.615C751.783 648.295 752.422 649.191 752.762 650.305C754.098 647.82 756.09 646.578 758.738 646.578C762.699 646.578 764.68 649.021 764.68 653.908V665Z" fill="black"/>
<path d="M620.258 842H606.107V816.793H619.695V820.344H610.291V827.48H618.957V831.014H610.291V838.467H620.258V842ZM640.314 842H636.236V831.857C636.236 828.494 635.047 826.812 632.668 826.812C631.426 826.812 630.4 827.281 629.592 828.219C628.783 829.145 628.379 830.316 628.379 831.734V842H624.283V824H628.379V826.988H628.449C629.797 824.715 631.742 823.578 634.285 823.578C636.242 823.578 637.736 824.217 638.768 825.494C639.799 826.76 640.314 828.594 640.314 830.996V842ZM654.799 841.807C654.002 842.205 652.953 842.404 651.652 842.404C648.16 842.404 646.414 840.729 646.414 837.377V827.199H643.408V824H646.414V819.834L650.492 818.674V824H654.799V827.199H650.492V836.199C650.492 837.266 650.686 838.027 651.072 838.484C651.459 838.941 652.104 839.17 653.006 839.17C653.697 839.17 654.295 838.971 654.799 838.572V841.807ZM673.344 834.107H661.074C661.121 835.771 661.631 837.055 662.604 837.957C663.588 838.859 664.936 839.311 666.646 839.311C668.568 839.311 670.332 838.736 671.938 837.588V840.875C670.297 841.906 668.129 842.422 665.434 842.422C662.785 842.422 660.705 841.607 659.193 839.979C657.693 838.338 656.943 836.035 656.943 833.07C656.943 830.27 657.77 827.99 659.422 826.232C661.086 824.463 663.148 823.578 665.609 823.578C668.07 823.578 669.975 824.369 671.322 825.951C672.67 827.533 673.344 829.73 673.344 832.543V834.107ZM669.406 831.225C669.395 829.76 669.049 828.623 668.369 827.814C667.689 826.994 666.752 826.584 665.557 826.584C664.385 826.584 663.389 827.012 662.568 827.867C661.76 828.723 661.262 829.842 661.074 831.225H669.406ZM687.67 827.885C687.178 827.498 686.469 827.305 685.543 827.305C684.336 827.305 683.328 827.85 682.52 828.939C681.711 830.029 681.307 831.512 681.307 833.387V842H677.229V824H681.307V827.709H681.377C681.775 826.443 682.385 825.459 683.205 824.756C684.037 824.041 684.963 823.684 685.982 823.684C686.721 823.684 687.283 823.795 687.67 824.018V827.885ZM694.701 839.346H694.631V850.279H690.553V824H694.631V827.164H694.701C696.096 824.773 698.135 823.578 700.818 823.578C703.104 823.578 704.885 824.381 706.162 825.986C707.439 827.592 708.078 829.748 708.078 832.455C708.078 835.455 707.357 837.857 705.916 839.662C704.475 841.467 702.506 842.369 700.01 842.369C697.713 842.369 695.943 841.361 694.701 839.346ZM694.596 832.244V834.477C694.596 835.789 695.012 836.902 695.844 837.816C696.688 838.73 697.754 839.188 699.043 839.188C700.555 839.188 701.738 838.602 702.594 837.43C703.461 836.246 703.895 834.6 703.895 832.49C703.895 830.721 703.49 829.338 702.682 828.342C701.885 827.334 700.801 826.83 699.43 826.83C697.977 826.83 696.805 827.346 695.914 828.377C695.035 829.408 694.596 830.697 694.596 832.244ZM722.686 827.885C722.193 827.498 721.484 827.305 720.559 827.305C719.352 827.305 718.344 827.85 717.535 828.939C716.727 830.029 716.322 831.512 716.322 833.387V842H712.244V824H716.322V827.709H716.393C716.791 826.443 717.4 825.459 718.221 824.756C719.053 824.041 719.979 823.684 720.998 823.684C721.736 823.684 722.299 823.795 722.686 824.018V827.885ZM727.625 820.221C726.957 820.221 726.383 820.004 725.902 819.57C725.434 819.137 725.199 818.586 725.199 817.918C725.199 817.25 725.434 816.693 725.902 816.248C726.383 815.803 726.957 815.58 727.625 815.58C728.316 815.58 728.902 815.803 729.383 816.248C729.863 816.693 730.104 817.25 730.104 817.918C730.104 818.551 729.863 819.096 729.383 819.553C728.902 819.998 728.316 820.221 727.625 820.221ZM729.646 842H725.568V824H729.646V842ZM733.865 841.438V837.658C735.389 838.818 737.07 839.398 738.91 839.398C741.371 839.398 742.602 838.672 742.602 837.219C742.602 836.809 742.496 836.463 742.285 836.182C742.074 835.889 741.787 835.631 741.424 835.408C741.072 835.186 740.65 834.986 740.158 834.811C739.678 834.635 739.139 834.436 738.541 834.213C737.803 833.92 737.135 833.609 736.537 833.281C735.951 832.953 735.459 832.584 735.061 832.174C734.674 831.752 734.381 831.277 734.182 830.75C733.982 830.223 733.883 829.607 733.883 828.904C733.883 828.037 734.088 827.275 734.498 826.619C734.908 825.951 735.459 825.395 736.15 824.949C736.842 824.492 737.627 824.152 738.506 823.93C739.385 823.695 740.293 823.578 741.23 823.578C742.895 823.578 744.383 823.83 745.695 824.334V827.902C744.43 827.035 742.977 826.602 741.336 826.602C740.82 826.602 740.352 826.654 739.93 826.76C739.52 826.865 739.168 827.012 738.875 827.199C738.582 827.387 738.354 827.615 738.189 827.885C738.025 828.143 737.943 828.43 737.943 828.746C737.943 829.133 738.025 829.461 738.189 829.73C738.354 830 738.594 830.24 738.91 830.451C739.238 830.65 739.625 830.838 740.07 831.014C740.527 831.178 741.049 831.359 741.635 831.559C742.408 831.875 743.1 832.197 743.709 832.525C744.33 832.854 744.857 833.229 745.291 833.65C745.725 834.061 746.059 834.541 746.293 835.092C746.527 835.631 746.645 836.275 746.645 837.025C746.645 837.939 746.434 838.736 746.012 839.416C745.59 840.096 745.027 840.658 744.324 841.104C743.621 841.549 742.807 841.877 741.881 842.088C740.967 842.311 740 842.422 738.98 842.422C737.012 842.422 735.307 842.094 733.865 841.438ZM765.77 834.107H753.5C753.547 835.771 754.057 837.055 755.029 837.957C756.014 838.859 757.361 839.311 759.072 839.311C760.994 839.311 762.758 838.736 764.363 837.588V840.875C762.723 841.906 760.555 842.422 757.859 842.422C755.211 842.422 753.131 841.607 751.619 839.979C750.119 838.338 749.369 836.035 749.369 833.07C749.369 830.27 750.195 827.99 751.848 826.232C753.512 824.463 755.574 823.578 758.035 823.578C760.496 823.578 762.4 824.369 763.748 825.951C765.096 827.533 765.77 829.73 765.77 832.543V834.107ZM761.832 831.225C761.82 829.76 761.475 828.623 760.795 827.814C760.115 826.994 759.178 826.584 757.982 826.584C756.811 826.584 755.814 827.012 754.994 827.867C754.186 828.723 753.688 829.842 753.5 831.225H761.832Z" fill="black"/>
<path d="M395.785 292.134H389.361V296.603H395.265V299.929H389.361V307H385.261V288.795H395.785V292.134ZM410.08 301.643H401.6C401.735 303.53 402.924 304.474 405.167 304.474C406.597 304.474 407.854 304.135 408.938 303.458V306.353C407.736 306.996 406.174 307.317 404.253 307.317C402.154 307.317 400.525 306.738 399.365 305.578C398.206 304.41 397.626 302.785 397.626 300.703C397.626 298.545 398.252 296.835 399.505 295.574C400.757 294.313 402.298 293.683 404.126 293.683C406.022 293.683 407.486 294.245 408.519 295.371C409.56 296.497 410.08 298.024 410.08 299.954V301.643ZM406.36 299.18C406.36 297.318 405.607 296.387 404.101 296.387C403.457 296.387 402.899 296.653 402.425 297.187C401.959 297.72 401.676 298.384 401.574 299.18H406.36ZM431.294 294L427.549 307H423.334L421.417 299.383C421.29 298.875 421.218 298.321 421.201 297.72H421.125C421.066 298.38 420.981 298.917 420.871 299.332L418.814 307H414.65L410.981 294H415.069L416.859 302.48C416.944 302.878 417.007 303.361 417.05 303.928H417.126C417.168 303.335 417.244 302.836 417.354 302.43L419.589 294H423.41L425.416 302.48C425.467 302.692 425.526 303.183 425.594 303.953H425.683C425.725 303.462 425.793 302.971 425.886 302.48L427.574 294H431.294ZM444.764 301.643H436.283C436.419 303.53 437.608 304.474 439.851 304.474C441.281 304.474 442.538 304.135 443.621 303.458V306.353C442.419 306.996 440.858 307.317 438.937 307.317C436.838 307.317 435.208 306.738 434.049 305.578C432.889 304.41 432.31 302.785 432.31 300.703C432.31 298.545 432.936 296.835 434.188 295.574C435.441 294.313 436.981 293.683 438.81 293.683C440.705 293.683 442.17 294.245 443.202 295.371C444.243 296.497 444.764 298.024 444.764 299.954V301.643ZM441.044 299.18C441.044 297.318 440.291 296.387 438.784 296.387C438.141 296.387 437.582 296.653 437.108 297.187C436.643 297.72 436.359 298.384 436.258 299.18H441.044ZM455.631 297.618C455.148 297.356 454.586 297.225 453.942 297.225C453.071 297.225 452.389 297.546 451.898 298.189C451.408 298.824 451.162 299.692 451.162 300.792V307H447.15V294H451.162V296.412H451.213C451.848 294.652 452.99 293.771 454.641 293.771C455.064 293.771 455.394 293.822 455.631 293.924V297.618Z" fill="black" fill-opacity="0.6"/>
<path d="M409.775 838H405.726V827.107C405.726 825.931 405.776 824.632 405.878 823.21H405.776C405.565 824.327 405.374 825.131 405.205 825.622L400.939 838H397.588L393.246 825.749C393.128 825.419 392.937 824.573 392.675 823.21H392.561C392.671 825.004 392.726 826.578 392.726 827.933V838H389.031V819.795H395.036L398.756 830.586C399.052 831.449 399.268 832.317 399.403 833.188H399.479C399.708 832.181 399.949 831.305 400.203 830.561L403.923 819.795H409.775V838ZM419.716 838.317C417.549 838.317 415.844 837.712 414.6 836.502C413.364 835.283 412.746 833.633 412.746 831.551C412.746 829.401 413.389 827.721 414.676 826.511C415.962 825.292 417.701 824.683 419.894 824.683C422.052 824.683 423.744 825.292 424.972 826.511C426.199 827.721 426.812 829.325 426.812 831.322C426.812 833.48 426.178 835.186 424.908 836.438C423.647 837.691 421.916 838.317 419.716 838.317ZM419.817 827.755C418.869 827.755 418.133 828.081 417.608 828.732C417.084 829.384 416.821 830.307 416.821 831.5C416.821 833.997 417.828 835.245 419.843 835.245C421.764 835.245 422.725 833.963 422.725 831.398C422.725 828.969 421.756 827.755 419.817 827.755ZM437.896 828.618C437.413 828.356 436.85 828.225 436.207 828.225C435.335 828.225 434.654 828.546 434.163 829.189C433.672 829.824 433.427 830.692 433.427 831.792V838H429.415V825H433.427V827.412H433.478C434.112 825.652 435.255 824.771 436.905 824.771C437.328 824.771 437.659 824.822 437.896 824.924V828.618ZM451.353 832.643H442.872C443.007 834.53 444.197 835.474 446.439 835.474C447.87 835.474 449.127 835.135 450.21 834.458V837.353C449.008 837.996 447.447 838.317 445.525 838.317C443.426 838.317 441.797 837.738 440.638 836.578C439.478 835.41 438.898 833.785 438.898 831.703C438.898 829.545 439.525 827.835 440.777 826.574C442.03 825.313 443.57 824.683 445.398 824.683C447.294 824.683 448.758 825.245 449.791 826.371C450.832 827.497 451.353 829.024 451.353 830.954V832.643ZM447.633 830.18C447.633 828.318 446.88 827.387 445.373 827.387C444.73 827.387 444.171 827.653 443.697 828.187C443.232 828.72 442.948 829.384 442.847 830.18H447.633Z" fill="black" fill-opacity="0.6"/>
<g filter="url(#filter1_d_6_395)">
<path d="M635.445 301.859V311H631.279V285.793H638.926C641.82 285.793 644.064 286.467 645.658 287.814C647.252 289.162 648.049 291.061 648.049 293.51C648.049 295.959 647.217 297.963 645.553 299.521C643.889 301.08 641.639 301.859 638.803 301.859H635.445ZM635.445 289.238V298.449H638.152C639.945 298.449 641.311 298.033 642.248 297.201C643.186 296.369 643.654 295.197 643.654 293.686C643.654 290.721 641.932 289.238 638.486 289.238H635.445ZM665.891 303.107H653.621C653.668 304.771 654.178 306.055 655.15 306.957C656.135 307.859 657.482 308.311 659.193 308.311C661.115 308.311 662.879 307.736 664.484 306.588V309.875C662.844 310.906 660.676 311.422 657.98 311.422C655.332 311.422 653.252 310.607 651.74 308.979C650.24 307.338 649.49 305.035 649.49 302.07C649.49 299.27 650.316 296.99 651.969 295.232C653.633 293.463 655.695 292.578 658.156 292.578C660.617 292.578 662.521 293.369 663.869 294.951C665.217 296.533 665.891 298.73 665.891 301.543V303.107ZM661.953 300.225C661.941 298.76 661.596 297.623 660.916 296.814C660.236 295.994 659.299 295.584 658.104 295.584C656.932 295.584 655.936 296.012 655.115 296.867C654.307 297.723 653.809 298.842 653.621 300.225H661.953ZM680.217 296.885C679.725 296.498 679.016 296.305 678.09 296.305C676.883 296.305 675.875 296.85 675.066 297.939C674.258 299.029 673.854 300.512 673.854 302.387V311H669.775V293H673.854V296.709H673.924C674.322 295.443 674.932 294.459 675.752 293.756C676.584 293.041 677.51 292.684 678.529 292.684C679.268 292.684 679.83 292.795 680.217 293.018V296.885ZM682.221 310.438V306.658C683.744 307.818 685.426 308.398 687.266 308.398C689.727 308.398 690.957 307.672 690.957 306.219C690.957 305.809 690.852 305.463 690.641 305.182C690.43 304.889 690.143 304.631 689.779 304.408C689.428 304.186 689.006 303.986 688.514 303.811C688.033 303.635 687.494 303.436 686.896 303.213C686.158 302.92 685.49 302.609 684.893 302.281C684.307 301.953 683.814 301.584 683.416 301.174C683.029 300.752 682.736 300.277 682.537 299.75C682.338 299.223 682.238 298.607 682.238 297.904C682.238 297.037 682.443 296.275 682.854 295.619C683.264 294.951 683.814 294.395 684.506 293.949C685.197 293.492 685.982 293.152 686.861 292.93C687.74 292.695 688.648 292.578 689.586 292.578C691.25 292.578 692.738 292.83 694.051 293.334V296.902C692.785 296.035 691.332 295.602 689.691 295.602C689.176 295.602 688.707 295.654 688.285 295.76C687.875 295.865 687.523 296.012 687.23 296.199C686.938 296.387 686.709 296.615 686.545 296.885C686.381 297.143 686.299 297.43 686.299 297.746C686.299 298.133 686.381 298.461 686.545 298.73C686.709 299 686.949 299.24 687.266 299.451C687.594 299.65 687.98 299.838 688.426 300.014C688.883 300.178 689.404 300.359 689.99 300.559C690.764 300.875 691.455 301.197 692.064 301.525C692.686 301.854 693.213 302.229 693.646 302.65C694.08 303.061 694.414 303.541 694.648 304.092C694.883 304.631 695 305.275 695 306.025C695 306.939 694.789 307.736 694.367 308.416C693.945 309.096 693.383 309.658 692.68 310.104C691.977 310.549 691.162 310.877 690.236 311.088C689.322 311.311 688.355 311.422 687.336 311.422C685.367 311.422 683.662 311.094 682.221 310.438ZM706.865 311.422C704.088 311.422 701.867 310.584 700.203 308.908C698.551 307.221 697.725 304.988 697.725 302.211C697.725 299.188 698.586 296.826 700.309 295.127C702.043 293.428 704.375 292.578 707.305 292.578C710.117 292.578 712.309 293.404 713.879 295.057C715.449 296.709 716.234 299 716.234 301.93C716.234 304.801 715.385 307.104 713.686 308.838C711.998 310.561 709.725 311.422 706.865 311.422ZM707.059 295.83C705.465 295.83 704.205 296.387 703.279 297.5C702.354 298.613 701.891 300.148 701.891 302.105C701.891 303.992 702.359 305.48 703.297 306.57C704.234 307.648 705.488 308.188 707.059 308.188C708.664 308.188 709.895 307.654 710.75 306.588C711.617 305.521 712.051 304.004 712.051 302.035C712.051 300.055 711.617 298.525 710.75 297.447C709.895 296.369 708.664 295.83 707.059 295.83ZM736.432 311H732.354V300.857C732.354 297.494 731.164 295.812 728.785 295.812C727.543 295.812 726.518 296.281 725.709 297.219C724.9 298.145 724.496 299.316 724.496 300.734V311H720.4V293H724.496V295.988H724.566C725.914 293.715 727.859 292.578 730.402 292.578C732.359 292.578 733.854 293.217 734.885 294.494C735.916 295.76 736.432 297.594 736.432 299.996V311ZM755.24 311H751.285V308.188H751.215C749.973 310.344 748.15 311.422 745.748 311.422C743.979 311.422 742.59 310.941 741.582 309.98C740.586 309.02 740.088 307.748 740.088 306.166C740.088 302.768 742.045 300.787 745.959 300.225L751.303 299.469C751.303 296.902 750.084 295.619 747.646 295.619C745.502 295.619 743.568 296.357 741.846 297.834V294.266C743.744 293.141 745.936 292.578 748.42 292.578C752.967 292.578 755.24 294.816 755.24 299.293V311ZM751.303 302.158L747.523 302.686C746.352 302.838 745.467 303.125 744.869 303.547C744.283 303.957 743.99 304.684 743.99 305.727C743.99 306.488 744.26 307.115 744.799 307.607C745.35 308.088 746.082 308.328 746.996 308.328C748.238 308.328 749.264 307.895 750.072 307.027C750.893 306.148 751.303 305.047 751.303 303.723V302.158ZM764.328 311H760.232V284.352H764.328V311Z" fill="black"/>
</g>
<path d="M268.238 149H261.234L248.537 129.643C247.792 128.511 247.277 127.659 246.99 127.086H246.904C247.019 128.174 247.076 129.836 247.076 132.07V149H240.523V118.191H248L260.225 136.947C260.783 137.792 261.299 138.63 261.771 139.461H261.857C261.743 138.745 261.686 137.334 261.686 135.229V118.191H268.238V149ZM295.523 149H288.756V145.648H288.648C286.973 148.241 284.731 149.537 281.924 149.537C276.825 149.537 274.275 146.451 274.275 140.277V127H281.043V139.676C281.043 142.784 282.275 144.338 284.738 144.338C285.956 144.338 286.93 143.915 287.66 143.07C288.391 142.211 288.756 141.051 288.756 139.59V127H295.523V149ZM336.193 149H329.426V136.453C329.426 133.259 328.251 131.662 325.902 131.662C324.785 131.662 323.876 132.142 323.174 133.102C322.472 134.061 322.121 135.257 322.121 136.689V149H315.332V136.324C315.332 133.216 314.179 131.662 311.873 131.662C310.713 131.662 309.782 132.12 309.08 133.037C308.393 133.954 308.049 135.2 308.049 136.775V149H301.26V127H308.049V130.438H308.135C308.837 129.263 309.818 128.311 311.078 127.58C312.353 126.835 313.742 126.463 315.246 126.463C318.354 126.463 320.481 127.831 321.627 130.566C323.303 127.831 325.766 126.463 329.018 126.463C333.801 126.463 336.193 129.413 336.193 135.314V149ZM348.439 146.443H348.354V149H341.564V116.43H348.354V130.309H348.439C350.115 127.745 352.5 126.463 355.594 126.463C358.43 126.463 360.614 127.437 362.146 129.385C363.679 131.333 364.445 133.997 364.445 137.377C364.445 141.044 363.55 143.987 361.76 146.207C359.969 148.427 357.577 149.537 354.584 149.537C351.877 149.537 349.829 148.506 348.439 146.443ZM348.246 137.162V139.418C348.246 140.836 348.654 142.01 349.471 142.941C350.287 143.872 351.333 144.338 352.607 144.338C354.154 144.338 355.35 143.743 356.195 142.555C357.055 141.352 357.484 139.654 357.484 137.463C357.484 135.644 357.09 134.226 356.303 133.209C355.529 132.178 354.419 131.662 352.973 131.662C351.612 131.662 350.48 132.171 349.578 133.188C348.69 134.204 348.246 135.529 348.246 137.162ZM388.615 139.934H374.264C374.493 143.128 376.505 144.725 380.301 144.725C382.721 144.725 384.848 144.152 386.682 143.006V147.904C384.648 148.993 382.005 149.537 378.754 149.537C375.202 149.537 372.445 148.556 370.482 146.594C368.52 144.617 367.539 141.867 367.539 138.344C367.539 134.691 368.599 131.798 370.719 129.664C372.839 127.53 375.445 126.463 378.539 126.463C381.747 126.463 384.225 127.415 385.973 129.32C387.734 131.225 388.615 133.811 388.615 137.076V139.934ZM382.32 135.766C382.32 132.615 381.046 131.039 378.496 131.039C377.408 131.039 376.462 131.49 375.66 132.393C374.872 133.295 374.393 134.419 374.221 135.766H382.32ZM407.006 133.123C406.189 132.679 405.237 132.457 404.148 132.457C402.673 132.457 401.52 133.001 400.689 134.09C399.859 135.164 399.443 136.632 399.443 138.494V149H392.654V127H399.443V131.082H399.529C400.604 128.103 402.537 126.613 405.33 126.613C406.046 126.613 406.605 126.699 407.006 126.871V133.123ZM432.83 149.537C429.163 149.537 426.277 148.513 424.172 146.465C422.081 144.402 421.035 141.609 421.035 138.086C421.035 134.448 422.124 131.605 424.301 129.557C426.478 127.494 429.421 126.463 433.131 126.463C436.783 126.463 439.648 127.494 441.725 129.557C443.801 131.605 444.84 134.319 444.84 137.699C444.84 141.352 443.766 144.238 441.617 146.357C439.483 148.477 436.554 149.537 432.83 149.537ZM433.002 131.662C431.398 131.662 430.152 132.214 429.264 133.316C428.376 134.419 427.932 135.98 427.932 138C427.932 142.225 429.636 144.338 433.045 144.338C436.296 144.338 437.922 142.168 437.922 137.828C437.922 133.717 436.282 131.662 433.002 131.662ZM462.908 121.629C462.035 121.285 461.197 121.113 460.395 121.113C458.217 121.113 457.129 122.295 457.129 124.658V127H462.156V132.006H457.129V149H450.361V132.006H446.666V127H450.361V124.271C450.361 121.765 451.178 119.745 452.811 118.213C454.443 116.68 456.663 115.914 459.471 115.914C460.846 115.914 461.992 116.057 462.908 116.344V121.629ZM490.902 148.742C489.9 149.272 488.389 149.537 486.369 149.537C481.585 149.537 479.193 147.052 479.193 142.082V132.006H475.627V127H479.193V122.252L485.961 120.318V127H490.902V132.006H485.961V140.9C485.961 143.192 486.87 144.338 488.689 144.338C489.406 144.338 490.143 144.13 490.902 143.715V148.742ZM513.053 149H506.629V145.842H506.543C505.068 148.305 502.883 149.537 499.99 149.537C497.856 149.537 496.173 148.936 494.941 147.732C493.724 146.515 493.115 144.896 493.115 142.877C493.115 138.609 495.643 136.145 500.699 135.486L506.672 134.691C506.672 132.285 505.368 131.082 502.762 131.082C500.141 131.082 497.648 131.863 495.285 133.424V128.311C496.23 127.824 497.52 127.394 499.152 127.021C500.799 126.649 502.296 126.463 503.643 126.463C509.916 126.463 513.053 129.592 513.053 135.852V149ZM506.672 140.062V138.58L502.676 139.096C500.47 139.382 499.367 140.378 499.367 142.082C499.367 142.855 499.632 143.493 500.162 143.994C500.706 144.481 501.437 144.725 502.354 144.725C503.628 144.725 504.667 144.288 505.469 143.414C506.271 142.526 506.672 141.409 506.672 140.062ZM532.775 133.123C531.959 132.679 531.007 132.457 529.918 132.457C528.443 132.457 527.29 133.001 526.459 134.09C525.628 135.164 525.213 136.632 525.213 138.494V149H518.424V127H525.213V131.082H525.299C526.373 128.103 528.307 126.613 531.1 126.613C531.816 126.613 532.374 126.699 532.775 126.871V133.123ZM557.354 146.486C557.354 150.568 556.172 153.727 553.809 155.961C551.445 158.21 548.022 159.334 543.539 159.334C540.574 159.334 538.225 158.911 536.492 158.066V152.352C538.755 153.669 541.04 154.328 543.346 154.328C545.637 154.328 547.413 153.719 548.674 152.502C549.934 151.299 550.564 149.659 550.564 147.582V145.842H550.479C548.932 148.305 546.647 149.537 543.625 149.537C540.818 149.537 538.59 148.549 536.943 146.572C535.296 144.596 534.473 141.946 534.473 138.623C534.473 134.899 535.389 131.941 537.223 129.75C539.056 127.559 541.469 126.463 544.463 126.463C547.141 126.463 549.146 127.494 550.479 129.557H550.564V127H557.354V146.486ZM550.65 138.43V136.689C550.65 135.3 550.235 134.118 549.404 133.145C548.588 132.156 547.521 131.662 546.203 131.662C544.699 131.662 543.518 132.249 542.658 133.424C541.799 134.598 541.369 136.253 541.369 138.387C541.369 140.22 541.777 141.674 542.594 142.748C543.41 143.808 544.527 144.338 545.945 144.338C547.349 144.338 548.48 143.801 549.34 142.727C550.214 141.638 550.65 140.206 550.65 138.43ZM582.791 139.934H568.439C568.669 143.128 570.681 144.725 574.477 144.725C576.897 144.725 579.024 144.152 580.857 143.006V147.904C578.824 148.993 576.181 149.537 572.93 149.537C569.378 149.537 566.62 148.556 564.658 146.594C562.696 144.617 561.715 141.867 561.715 138.344C561.715 134.691 562.775 131.798 564.895 129.664C567.014 127.53 569.621 126.463 572.715 126.463C575.923 126.463 578.401 127.415 580.148 129.32C581.91 131.225 582.791 133.811 582.791 137.076V139.934ZM576.496 135.766C576.496 132.615 575.221 131.039 572.672 131.039C571.583 131.039 570.638 131.49 569.836 132.393C569.048 133.295 568.568 134.419 568.396 135.766H576.496ZM600.129 148.742C599.126 149.272 597.615 149.537 595.596 149.537C590.812 149.537 588.42 147.052 588.42 142.082V132.006H584.854V127H588.42V122.252L595.188 120.318V127H600.129V132.006H595.188V140.9C595.188 143.192 596.097 144.338 597.916 144.338C598.632 144.338 599.37 144.13 600.129 143.715V148.742ZM632.807 148.205C631.274 149.093 629.061 149.537 626.168 149.537C622.788 149.537 620.052 148.513 617.961 146.465C615.87 144.417 614.824 141.774 614.824 138.537C614.824 134.799 615.941 131.855 618.176 129.707C620.424 127.544 623.425 126.463 627.178 126.463C629.77 126.463 631.646 126.807 632.807 127.494V133.252C631.389 132.192 629.806 131.662 628.059 131.662C626.111 131.662 624.564 132.235 623.418 133.381C622.286 134.512 621.721 136.081 621.721 138.086C621.721 140.034 622.265 141.566 623.354 142.684C624.442 143.786 625.939 144.338 627.844 144.338C629.534 144.338 631.188 143.808 632.807 142.748V148.205ZM647.76 149.537C644.093 149.537 641.207 148.513 639.102 146.465C637.01 144.402 635.965 141.609 635.965 138.086C635.965 134.448 637.053 131.605 639.23 129.557C641.408 127.494 644.351 126.463 648.061 126.463C651.713 126.463 654.577 127.494 656.654 129.557C658.731 131.605 659.77 134.319 659.77 137.699C659.77 141.352 658.695 144.238 656.547 146.357C654.413 148.477 651.484 149.537 647.76 149.537ZM647.932 131.662C646.327 131.662 645.081 132.214 644.193 133.316C643.305 134.419 642.861 135.98 642.861 138C642.861 142.225 644.566 144.338 647.975 144.338C651.226 144.338 652.852 142.168 652.852 137.828C652.852 133.717 651.212 131.662 647.932 131.662ZM685.422 149H678.654V136.775C678.654 133.367 677.437 131.662 675.002 131.662C673.827 131.662 672.861 132.113 672.102 133.016C671.342 133.918 670.963 135.064 670.963 136.453V149H664.174V127H670.963V130.48H671.049C672.667 127.802 675.023 126.463 678.117 126.463C682.987 126.463 685.422 129.485 685.422 135.529V149ZM689.375 148.42V142.92C690.492 143.593 691.602 144.094 692.705 144.424C693.822 144.753 694.875 144.918 695.863 144.918C697.066 144.918 698.012 144.753 698.699 144.424C699.401 144.094 699.752 143.593 699.752 142.92C699.752 142.49 699.594 142.132 699.279 141.846C698.964 141.559 698.556 141.309 698.055 141.094C697.568 140.879 697.031 140.686 696.443 140.514C695.856 140.342 695.29 140.148 694.746 139.934C693.872 139.604 693.099 139.253 692.426 138.881C691.767 138.494 691.208 138.05 690.75 137.549C690.306 137.048 689.962 136.467 689.719 135.809C689.49 135.15 689.375 134.369 689.375 133.467C689.375 132.235 689.64 131.175 690.17 130.287C690.714 129.399 691.43 128.676 692.318 128.117C693.221 127.544 694.245 127.129 695.391 126.871C696.551 126.599 697.754 126.463 699 126.463C699.974 126.463 700.962 126.542 701.965 126.699C702.967 126.842 703.956 127.057 704.93 127.344V132.586C704.07 132.085 703.146 131.712 702.158 131.469C701.184 131.211 700.225 131.082 699.279 131.082C698.835 131.082 698.413 131.125 698.012 131.211C697.625 131.283 697.281 131.397 696.98 131.555C696.68 131.698 696.443 131.891 696.271 132.135C696.1 132.364 696.014 132.629 696.014 132.93C696.014 133.331 696.143 133.674 696.4 133.961C696.658 134.247 696.995 134.498 697.41 134.713C697.826 134.913 698.284 135.1 698.785 135.271C699.301 135.429 699.809 135.594 700.311 135.766C701.213 136.081 702.029 136.424 702.76 136.797C703.49 137.169 704.113 137.606 704.629 138.107C705.159 138.609 705.56 139.196 705.832 139.869C706.118 140.542 706.262 141.344 706.262 142.275C706.262 143.579 705.975 144.696 705.402 145.627C704.844 146.544 704.092 147.296 703.146 147.883C702.215 148.456 701.134 148.871 699.902 149.129C698.685 149.401 697.417 149.537 696.1 149.537C693.679 149.537 691.438 149.165 689.375 148.42ZM731.098 149H724.33V145.648H724.223C722.547 148.241 720.305 149.537 717.498 149.537C712.399 149.537 709.85 146.451 709.85 140.277V127H716.617V139.676C716.617 142.784 717.849 144.338 720.312 144.338C721.53 144.338 722.504 143.915 723.234 143.07C723.965 142.211 724.33 141.051 724.33 139.59V127H731.098V149ZM771.768 149H765V136.453C765 133.259 763.826 131.662 761.477 131.662C760.359 131.662 759.45 132.142 758.748 133.102C758.046 134.061 757.695 135.257 757.695 136.689V149H750.906V136.324C750.906 133.216 749.753 131.662 747.447 131.662C746.287 131.662 745.356 132.12 744.654 133.037C743.967 133.954 743.623 135.2 743.623 136.775V149H736.834V127H743.623V130.438H743.709C744.411 129.263 745.392 128.311 746.652 127.58C747.927 126.835 749.316 126.463 750.82 126.463C753.928 126.463 756.055 127.831 757.201 130.566C758.877 127.831 761.34 126.463 764.592 126.463C769.376 126.463 771.768 129.413 771.768 135.314V149ZM796.904 139.934H782.553C782.782 143.128 784.794 144.725 788.59 144.725C791.01 144.725 793.137 144.152 794.971 143.006V147.904C792.937 148.993 790.294 149.537 787.043 149.537C783.491 149.537 780.734 148.556 778.771 146.594C776.809 144.617 775.828 141.867 775.828 138.344C775.828 134.691 776.888 131.798 779.008 129.664C781.128 127.53 783.734 126.463 786.828 126.463C790.036 126.463 792.514 127.415 794.262 129.32C796.023 131.225 796.904 133.811 796.904 137.076V139.934ZM790.609 135.766C790.609 132.615 789.335 131.039 786.785 131.039C785.697 131.039 784.751 131.49 783.949 132.393C783.161 133.295 782.682 134.419 782.51 135.766H790.609ZM815.295 133.123C814.479 132.679 813.526 132.457 812.438 132.457C810.962 132.457 809.809 133.001 808.979 134.09C808.148 135.164 807.732 136.632 807.732 138.494V149H800.943V127H807.732V131.082H807.818C808.893 128.103 810.826 126.613 813.619 126.613C814.335 126.613 814.894 126.699 815.295 126.871V133.123ZM817.293 148.42V142.92C818.41 143.593 819.52 144.094 820.623 144.424C821.74 144.753 822.793 144.918 823.781 144.918C824.984 144.918 825.93 144.753 826.617 144.424C827.319 144.094 827.67 143.593 827.67 142.92C827.67 142.49 827.512 142.132 827.197 141.846C826.882 141.559 826.474 141.309 825.973 141.094C825.486 140.879 824.949 140.686 824.361 140.514C823.774 140.342 823.208 140.148 822.664 139.934C821.79 139.604 821.017 139.253 820.344 138.881C819.685 138.494 819.126 138.05 818.668 137.549C818.224 137.048 817.88 136.467 817.637 135.809C817.408 135.15 817.293 134.369 817.293 133.467C817.293 132.235 817.558 131.175 818.088 130.287C818.632 129.399 819.348 128.676 820.236 128.117C821.139 127.544 822.163 127.129 823.309 126.871C824.469 126.599 825.672 126.463 826.918 126.463C827.892 126.463 828.88 126.542 829.883 126.699C830.885 126.842 831.874 127.057 832.848 127.344V132.586C831.988 132.085 831.064 131.712 830.076 131.469C829.102 131.211 828.143 131.082 827.197 131.082C826.753 131.082 826.331 131.125 825.93 131.211C825.543 131.283 825.199 131.397 824.898 131.555C824.598 131.698 824.361 131.891 824.189 132.135C824.018 132.364 823.932 132.629 823.932 132.93C823.932 133.331 824.061 133.674 824.318 133.961C824.576 134.247 824.913 134.498 825.328 134.713C825.743 134.913 826.202 135.1 826.703 135.271C827.219 135.429 827.727 135.594 828.229 135.766C829.131 136.081 829.947 136.424 830.678 136.797C831.408 137.169 832.031 137.606 832.547 138.107C833.077 138.609 833.478 139.196 833.75 139.869C834.036 140.542 834.18 141.344 834.18 142.275C834.18 143.579 833.893 144.696 833.32 145.627C832.762 146.544 832.01 147.296 831.064 147.883C830.133 148.456 829.052 148.871 827.82 149.129C826.603 149.401 825.335 149.537 824.018 149.537C821.597 149.537 819.355 149.165 817.293 148.42Z" fill="black" fill-opacity="0.6"/>
<line x1="237" y1="174" x2="1264" y2="174" stroke="#616161" stroke-opacity="0.33" stroke-width="2"/>
<path d="M422 328C422 326.343 420.657 325 419 325C417.343 325 416 326.343 416 328L422 328ZM416.879 802.121C418.05 803.293 419.95 803.293 421.121 802.121L440.213 783.029C441.385 781.858 441.385 779.958 440.213 778.787C439.042 777.615 437.142 777.615 435.971 778.787L419 795.757L402.029 778.787C400.858 777.615 398.958 777.615 397.787 778.787C396.615 779.958 396.615 781.858 397.787 783.029L416.879 802.121ZM416 328L416 800L422 800L422 328L416 328Z" fill="black" fill-opacity="0.6"/>
<defs>
<filter id="filter0_f_6_395" x="797" y="195.326" width="432" height="718.884" filterUnits="userSpaceOnUse" color-interpolation-filters="sRGB">
<feFlood flood-opacity="0" result="BackgroundImageFix"/>
<feBlend mode="normal" in="SourceGraphic" in2="BackgroundImageFix" result="shape"/>
<feGaussianBlur stdDeviation="5" result="effect1_foregroundBlur_6_395"/>
</filter>
<filter id="filter1_d_6_395" x="631.279" y="283.352" width="141.049" height="33.0703" filterUnits="userSpaceOnUse" color-interpolation-filters="sRGB">
<feFlood flood-opacity="0" result="BackgroundImageFix"/>
<feColorMatrix in="SourceAlpha" type="matrix" values="0 0 0 0 0 0 0 0 0 0 0 0 0 0 0 0 0 0 127 0" result="hardAlpha"/>
<feOffset dx="5" dy="2"/>
<feGaussianBlur stdDeviation="1.5"/>
<feComposite in2="hardAlpha" operator="out"/>
<feColorMatrix type="matrix" values="0 0 0 0 1 0 0 0 0 1 0 0 0 0 1 0 0 0 1 0"/>
<feBlend mode="normal" in2="BackgroundImageFix" result="effect1_dropShadow_6_395"/>
<feBlend mode="normal" in="SourceGraphic" in2="effect1_dropShadow_6_395" result="shape"/>
</filter>
<linearGradient id="paint0_linear_6_395" x1="750" y1="0" x2="750" y2="1007" gradientUnits="userSpaceOnUse">
<stop stop-color="white" stop-opacity="0"/>
<stop offset="1" stop-color="#D0D0D0"/>
</linearGradient>
<radialGradient id="paint1_radial_6_395" cx="0" cy="0" r="1" gradientUnits="userSpaceOnUse" gradientTransform="translate(412.899 102.156) rotate(32.5186) scale(1485.13 1270.67)">
<stop stop-color="#FFB800" stop-opacity="0.6"/>
<stop offset="0.255208" stop-color="#E8E48E"/>
<stop offset="0.776042" stop-color="#177E71" stop-opacity="0.6"/>
<stop offset="1" stop-color="#17597E"/>
</radialGradient>
<linearGradient id="paint2_linear_6_395" x1="864.985" y1="551.973" x2="1044.66" y2="573.815" gradientUnits="userSpaceOnUse">
<stop stop-color="white"/>
<stop offset="1" stop-color="#FAFAFA"/>
</linearGradient>
<linearGradient id="paint3_linear_6_395" x1="807" y1="753.479" x2="904.272" y2="1019.35" gradientUnits="userSpaceOnUse">
<stop stop-color="#209782"/>
<stop offset="1" stop-color="#0C695A"/>
</linearGradient>
<linearGradient id="paint4_linear_6_395" x1="807" y1="577.828" x2="926.343" y2="819.642" gradientUnits="userSpaceOnUse">
<stop stop-color="#209782"/>
<stop offset="1" stop-color="#0C695A"/>
</linearGradient>
<linearGradient id="paint5_linear_6_395" x1="807" y1="402.177" x2="951.783" y2="596.694" gradientUnits="userSpaceOnUse">
<stop stop-color="#209782"/>
<stop offset="1" stop-color="#0C695A"/>
</linearGradient>
<linearGradient id="paint6_linear_6_395" x1="807" y1="205.326" x2="954.765" y2="289.951" gradientUnits="userSpaceOnUse">
<stop stop-color="#209782"/>
<stop offset="1" stop-color="#0C695A"/>
</linearGradient>
</defs>
</svg>
