<svg width="666" height="419" viewBox="0 0 666 419" fill="none" xmlns="http://www.w3.org/2000/svg">
<rect width="666" height="419" fill="white"/>
<rect width="666" height="419" fill="url(#paint0_radial_34_14932)" fill-opacity="0.075"/>
<rect x="0.5" y="0.5" width="665" height="418" stroke="#333333" stroke-opacity="0.2"/>
<g filter="url(#filter0_f_34_14932)">
<rect x="216" y="50" width="234" height="319" rx="16" fill="#CCCCCC" fill-opacity="0.8"/>
</g>
<rect x="216" y="50" width="234" height="319" rx="16" fill="white"/>
<rect x="216" y="50" width="234" height="319" rx="16" fill="url(#paint1_linear_34_14932)" fill-opacity="0.33"/>
<rect x="226.5" y="262.5" width="213" height="45" rx="9.5" fill="#F3ECED" stroke="url(#paint2_linear_34_14932)" stroke-dasharray="2 2"/>
<path d="M280.867 86.5547V84.6406C281.039 84.7969 281.242 84.9375 281.477 85.0625C281.716 85.1875 281.969 85.2943 282.234 85.3828C282.5 85.4661 282.766 85.5312 283.031 85.5781C283.297 85.625 283.542 85.6484 283.766 85.6484C284.547 85.6484 285.128 85.5182 285.508 85.2578C285.893 84.9974 286.086 84.6198 286.086 84.125C286.086 83.8594 286.021 83.6302 285.891 83.4375C285.766 83.2396 285.589 83.0599 285.359 82.8984C285.13 82.737 284.859 82.5833 284.547 82.4375C284.24 82.2865 283.909 82.1302 283.555 81.9688C283.174 81.7656 282.82 81.5599 282.492 81.3516C282.164 81.1432 281.878 80.9141 281.633 80.6641C281.393 80.4089 281.203 80.1224 281.062 79.8047C280.927 79.487 280.859 79.1146 280.859 78.6875C280.859 78.1615 280.977 77.7057 281.211 77.3203C281.451 76.9297 281.763 76.6094 282.148 76.3594C282.539 76.1042 282.982 75.9167 283.477 75.7969C283.971 75.6719 284.477 75.6094 284.992 75.6094C286.164 75.6094 287.018 75.7422 287.555 76.0078V77.8438C286.919 77.3854 286.102 77.1562 285.102 77.1562C284.826 77.1562 284.549 77.1823 284.273 77.2344C284.003 77.2865 283.758 77.3724 283.539 77.4922C283.326 77.612 283.151 77.7656 283.016 77.9531C282.88 78.1406 282.812 78.3672 282.812 78.6328C282.812 78.8828 282.865 79.099 282.969 79.2812C283.073 79.4635 283.224 79.6302 283.422 79.7812C283.625 79.9323 283.87 80.0807 284.156 80.2266C284.448 80.3672 284.784 80.5208 285.164 80.6875C285.555 80.8906 285.922 81.1042 286.266 81.3281C286.615 81.5521 286.919 81.7995 287.18 82.0703C287.445 82.3411 287.654 82.6432 287.805 82.9766C287.961 83.3047 288.039 83.6797 288.039 84.1016C288.039 84.6693 287.924 85.1484 287.695 85.5391C287.466 85.9297 287.156 86.2474 286.766 86.4922C286.38 86.737 285.935 86.9141 285.43 87.0234C284.924 87.1328 284.391 87.1875 283.828 87.1875C283.641 87.1875 283.409 87.1719 283.133 87.1406C282.862 87.1146 282.583 87.0729 282.297 87.0156C282.01 86.9635 281.74 86.8984 281.484 86.8203C281.229 86.7422 281.023 86.6536 280.867 86.5547ZM293.445 87.1875C292.211 87.1875 291.224 86.8151 290.484 86.0703C289.75 85.3203 289.383 84.3281 289.383 83.0938C289.383 81.75 289.766 80.7005 290.531 79.9453C291.302 79.1901 292.339 78.8125 293.641 78.8125C294.891 78.8125 295.865 79.1797 296.562 79.9141C297.26 80.6484 297.609 81.6667 297.609 82.9688C297.609 84.2448 297.232 85.2682 296.477 86.0391C295.727 86.8047 294.716 87.1875 293.445 87.1875ZM293.531 80.2578C292.823 80.2578 292.263 80.5052 291.852 81C291.44 81.4948 291.234 82.1771 291.234 83.0469C291.234 83.8854 291.443 84.5469 291.859 85.0312C292.276 85.5104 292.833 85.75 293.531 85.75C294.245 85.75 294.792 85.513 295.172 85.0391C295.557 84.5651 295.75 83.8906 295.75 83.0156C295.75 82.1354 295.557 81.4557 295.172 80.9766C294.792 80.4974 294.245 80.2578 293.531 80.2578ZM301.281 87H299.461V75.1562H301.281V87ZM310.625 87H308.812V85.7344H308.781C308.255 86.7031 307.438 87.1875 306.328 87.1875C304.438 87.1875 303.492 86.0521 303.492 83.7812V79H305.305V83.5938C305.305 85.0312 305.859 85.75 306.969 85.75C307.505 85.75 307.945 85.5521 308.289 85.1562C308.638 84.7604 308.812 84.2422 308.812 83.6016V79H310.625V87ZM317.211 86.9141C316.857 87.0911 316.391 87.1797 315.812 87.1797C314.26 87.1797 313.484 86.4349 313.484 84.9453V80.4219H312.148V79H313.484V77.1484L315.297 76.6328V79H317.211V80.4219H315.297V84.4219C315.297 84.8958 315.383 85.2344 315.555 85.4375C315.727 85.6406 316.013 85.7422 316.414 85.7422C316.721 85.7422 316.987 85.6536 317.211 85.4766V86.9141ZM319.688 77.3203C319.391 77.3203 319.135 77.224 318.922 77.0312C318.714 76.8385 318.609 76.5938 318.609 76.2969C318.609 76 318.714 75.7526 318.922 75.5547C319.135 75.3568 319.391 75.2578 319.688 75.2578C319.995 75.2578 320.255 75.3568 320.469 75.5547C320.682 75.7526 320.789 76 320.789 76.2969C320.789 76.5781 320.682 76.8203 320.469 77.0234C320.255 77.2214 319.995 77.3203 319.688 77.3203ZM320.586 87H318.773V79H320.586V87ZM326.508 87.1875C325.273 87.1875 324.286 86.8151 323.547 86.0703C322.812 85.3203 322.445 84.3281 322.445 83.0938C322.445 81.75 322.828 80.7005 323.594 79.9453C324.365 79.1901 325.401 78.8125 326.703 78.8125C327.953 78.8125 328.927 79.1797 329.625 79.9141C330.323 80.6484 330.672 81.6667 330.672 82.9688C330.672 84.2448 330.294 85.2682 329.539 86.0391C328.789 86.8047 327.779 87.1875 326.508 87.1875ZM326.594 80.2578C325.885 80.2578 325.326 80.5052 324.914 81C324.503 81.4948 324.297 82.1771 324.297 83.0469C324.297 83.8854 324.505 84.5469 324.922 85.0312C325.339 85.5104 325.896 85.75 326.594 85.75C327.307 85.75 327.854 85.513 328.234 85.0391C328.62 84.5651 328.812 83.8906 328.812 83.0156C328.812 82.1354 328.62 81.4557 328.234 80.9766C327.854 80.4974 327.307 80.2578 326.594 80.2578ZM339.648 87H337.836V82.4922C337.836 80.9974 337.307 80.25 336.25 80.25C335.698 80.25 335.242 80.4583 334.883 80.875C334.523 81.2865 334.344 81.8073 334.344 82.4375V87H332.523V79H334.344V80.3281H334.375C334.974 79.3177 335.839 78.8125 336.969 78.8125C337.839 78.8125 338.503 79.0964 338.961 79.6641C339.419 80.2266 339.648 81.0417 339.648 82.1094V87ZM348.117 85.8203H348.086V90.6797H346.273V79H348.086V80.4062H348.117C348.737 79.3438 349.643 78.8125 350.836 78.8125C351.852 78.8125 352.643 79.1693 353.211 79.8828C353.779 80.5964 354.062 81.5547 354.062 82.7578C354.062 84.0911 353.742 85.1589 353.102 85.9609C352.461 86.763 351.586 87.1641 350.477 87.1641C349.456 87.1641 348.669 86.7161 348.117 85.8203ZM348.07 82.6641V83.6562C348.07 84.2396 348.255 84.7344 348.625 85.1406C349 85.5469 349.474 85.75 350.047 85.75C350.719 85.75 351.245 85.4896 351.625 84.9688C352.01 84.4427 352.203 83.7109 352.203 82.7734C352.203 81.987 352.023 81.3724 351.664 80.9297C351.31 80.4818 350.828 80.2578 350.219 80.2578C349.573 80.2578 349.052 80.487 348.656 80.9453C348.266 81.4036 348.07 81.9766 348.07 82.6641ZM357.734 87H355.914V75.1562H357.734V87ZM366.242 87H364.484V85.75H364.453C363.901 86.7083 363.091 87.1875 362.023 87.1875C361.237 87.1875 360.62 86.974 360.172 86.5469C359.729 86.1198 359.508 85.5547 359.508 84.8516C359.508 83.3411 360.378 82.4609 362.117 82.2109L364.492 81.875C364.492 80.7344 363.951 80.1641 362.867 80.1641C361.914 80.1641 361.055 80.4922 360.289 81.1484V79.5625C361.133 79.0625 362.107 78.8125 363.211 78.8125C365.232 78.8125 366.242 79.8073 366.242 81.7969V87ZM364.492 83.0703L362.812 83.3047C362.292 83.3724 361.898 83.5 361.633 83.6875C361.372 83.8698 361.242 84.1927 361.242 84.6562C361.242 84.9948 361.362 85.2734 361.602 85.4922C361.846 85.7057 362.172 85.8125 362.578 85.8125C363.13 85.8125 363.586 85.6198 363.945 85.2344C364.31 84.8438 364.492 84.3542 364.492 83.7656V83.0703ZM375.586 87H373.773V82.4922C373.773 80.9974 373.245 80.25 372.188 80.25C371.635 80.25 371.18 80.4583 370.82 80.875C370.461 81.2865 370.281 81.8073 370.281 82.4375V87H368.461V79H370.281V80.3281H370.312C370.911 79.3177 371.776 78.8125 372.906 78.8125C373.776 78.8125 374.44 79.0964 374.898 79.6641C375.357 80.2266 375.586 81.0417 375.586 82.1094V87ZM384.93 87H383.117V82.4922C383.117 80.9974 382.589 80.25 381.531 80.25C380.979 80.25 380.523 80.4583 380.164 80.875C379.805 81.2865 379.625 81.8073 379.625 82.4375V87H377.805V79H379.625V80.3281H379.656C380.255 79.3177 381.12 78.8125 382.25 78.8125C383.12 78.8125 383.784 79.0964 384.242 79.6641C384.701 80.2266 384.93 81.0417 384.93 82.1094V87ZM388.062 77.3203C387.766 77.3203 387.51 77.224 387.297 77.0312C387.089 76.8385 386.984 76.5938 386.984 76.2969C386.984 76 387.089 75.7526 387.297 75.5547C387.51 75.3568 387.766 75.2578 388.062 75.2578C388.37 75.2578 388.63 75.3568 388.844 75.5547C389.057 75.7526 389.164 76 389.164 76.2969C389.164 76.5781 389.057 76.8203 388.844 77.0234C388.63 77.2214 388.37 77.3203 388.062 77.3203ZM388.961 87H387.148V79H388.961V87ZM398.461 87H396.648V82.4922C396.648 80.9974 396.12 80.25 395.062 80.25C394.51 80.25 394.055 80.4583 393.695 80.875C393.336 81.2865 393.156 81.8073 393.156 82.4375V87H391.336V79H393.156V80.3281H393.188C393.786 79.3177 394.651 78.8125 395.781 78.8125C396.651 78.8125 397.315 79.0964 397.773 79.6641C398.232 80.2266 398.461 81.0417 398.461 82.1094V87ZM407.961 86.3594C407.961 89.2969 406.484 90.7656 403.531 90.7656C402.49 90.7656 401.581 90.5911 400.805 90.2422V88.5859C401.68 89.0859 402.51 89.3359 403.297 89.3359C405.198 89.3359 406.148 88.401 406.148 86.5312V85.6562H406.117C405.518 86.6771 404.617 87.1875 403.414 87.1875C402.44 87.1875 401.654 86.8333 401.055 86.125C400.461 85.4115 400.164 84.4557 400.164 83.2578C400.164 81.8984 400.484 80.8177 401.125 80.0156C401.766 79.2135 402.646 78.8125 403.766 78.8125C404.823 78.8125 405.607 79.2448 406.117 80.1094H406.148V79H407.961V86.3594ZM406.164 83.3359V82.2969C406.164 81.7344 405.977 81.2552 405.602 80.8594C405.232 80.4583 404.768 80.2578 404.211 80.2578C403.523 80.2578 402.984 80.513 402.594 81.0234C402.208 81.5286 402.016 82.237 402.016 83.1484C402.016 83.9349 402.201 84.5651 402.57 85.0391C402.945 85.5078 403.44 85.7422 404.055 85.7422C404.68 85.7422 405.188 85.5182 405.578 85.0703C405.969 84.6172 406.164 84.0391 406.164 83.3359Z" fill="url(#paint3_linear_34_14932)"/>
<path d="M222 111L444 111" stroke="#78364F" stroke-opacity="0.66" stroke-width="2" stroke-linecap="round"/>
<path d="M288.613 156.33C287.629 156.886 286.535 157.164 285.332 157.164C283.933 157.164 282.8 156.713 281.935 155.811C281.073 154.908 280.643 153.714 280.643 152.229C280.643 150.711 281.121 149.467 282.078 148.496C283.04 147.521 284.257 147.033 285.729 147.033C286.795 147.033 287.69 147.206 288.415 147.553V148.824C287.622 148.323 286.683 148.072 285.599 148.072C284.5 148.072 283.6 148.451 282.898 149.207C282.197 149.964 281.846 150.943 281.846 152.146C281.846 153.386 282.172 154.361 282.823 155.072C283.475 155.779 284.359 156.132 285.476 156.132C286.241 156.132 286.904 155.979 287.465 155.674V152.926H285.318V151.887H288.613V156.33ZM295.757 157H294.636V155.906H294.608C294.121 156.745 293.403 157.164 292.455 157.164C291.758 157.164 291.211 156.979 290.814 156.61C290.423 156.241 290.227 155.751 290.227 155.141C290.227 153.833 290.997 153.072 292.537 152.857L294.636 152.563C294.636 151.374 294.155 150.779 293.193 150.779C292.35 150.779 291.589 151.066 290.91 151.641V150.492C291.598 150.055 292.391 149.836 293.289 149.836C294.934 149.836 295.757 150.706 295.757 152.447V157ZM294.636 153.459L292.947 153.691C292.428 153.764 292.036 153.894 291.771 154.081C291.507 154.263 291.375 154.589 291.375 155.059C291.375 155.4 291.496 155.681 291.737 155.899C291.983 156.114 292.309 156.221 292.715 156.221C293.271 156.221 293.729 156.027 294.089 155.64C294.453 155.248 294.636 154.753 294.636 154.156V153.459ZM301.116 156.932C300.852 157.077 300.503 157.15 300.07 157.15C298.844 157.15 298.231 156.467 298.231 155.1V150.957H297.028V150H298.231V148.291L299.353 147.929V150H301.116V150.957H299.353V154.901C299.353 155.371 299.432 155.706 299.592 155.906C299.751 156.107 300.016 156.207 300.385 156.207C300.667 156.207 300.911 156.13 301.116 155.975V156.932ZM308.424 157H307.303V152.967C307.303 151.508 306.76 150.779 305.676 150.779C305.129 150.779 304.669 150.991 304.295 151.415C303.921 151.834 303.734 152.374 303.734 153.035V157H302.613V146.637H303.734V151.162H303.762C304.299 150.278 305.065 149.836 306.059 149.836C307.635 149.836 308.424 150.786 308.424 152.687V157ZM316.169 153.78H311.227C311.245 154.56 311.454 155.161 311.855 155.585C312.257 156.009 312.808 156.221 313.51 156.221C314.298 156.221 315.023 155.961 315.684 155.441V156.494C315.068 156.941 314.255 157.164 313.243 157.164C312.254 157.164 311.477 156.847 310.912 156.214C310.347 155.576 310.064 154.68 310.064 153.527C310.064 152.438 310.372 151.552 310.987 150.868C311.607 150.18 312.375 149.836 313.291 149.836C314.207 149.836 314.916 150.132 315.417 150.725C315.918 151.317 316.169 152.14 316.169 153.192V153.78ZM315.021 152.83C315.016 152.183 314.859 151.679 314.549 151.319C314.243 150.959 313.817 150.779 313.271 150.779C312.742 150.779 312.293 150.968 311.924 151.347C311.555 151.725 311.327 152.219 311.24 152.83H315.021ZM321.521 151.135C321.326 150.984 321.043 150.909 320.674 150.909C320.195 150.909 319.794 151.135 319.471 151.586C319.152 152.037 318.992 152.652 318.992 153.432V157H317.871V150H318.992V151.442H319.02C319.179 150.95 319.423 150.567 319.751 150.294C320.079 150.016 320.446 149.877 320.852 149.877C321.143 149.877 321.367 149.909 321.521 149.973V151.135ZM330.23 151.135C330.035 150.984 329.752 150.909 329.383 150.909C328.904 150.909 328.503 151.135 328.18 151.586C327.861 152.037 327.701 152.652 327.701 153.432V157H326.58V150H327.701V151.442H327.729C327.888 150.95 328.132 150.567 328.46 150.294C328.788 150.016 329.155 149.877 329.561 149.877C329.852 149.877 330.076 149.909 330.23 149.973V151.135ZM337.073 153.78H332.131C332.149 154.56 332.359 155.161 332.76 155.585C333.161 156.009 333.712 156.221 334.414 156.221C335.202 156.221 335.927 155.961 336.588 155.441V156.494C335.973 156.941 335.159 157.164 334.147 157.164C333.159 157.164 332.382 156.847 331.816 156.214C331.251 155.576 330.969 154.68 330.969 153.527C330.969 152.438 331.276 151.552 331.892 150.868C332.511 150.18 333.279 149.836 334.195 149.836C335.111 149.836 335.82 150.132 336.321 150.725C336.823 151.317 337.073 152.14 337.073 153.192V153.78ZM335.925 152.83C335.92 152.183 335.763 151.679 335.453 151.319C335.148 150.959 334.722 150.779 334.175 150.779C333.646 150.779 333.197 150.968 332.828 151.347C332.459 151.725 332.231 152.219 332.145 152.83H335.925ZM344.75 160.22H343.629V155.797H343.602C343.114 156.708 342.316 157.164 341.209 157.164C340.329 157.164 339.623 156.852 339.09 156.228C338.561 155.599 338.297 154.744 338.297 153.664C338.297 152.502 338.589 151.575 339.172 150.882C339.755 150.185 340.539 149.836 341.523 149.836C342.48 149.836 343.173 150.214 343.602 150.971H343.629V150H344.75V160.22ZM343.629 153.849V152.83C343.629 152.256 343.44 151.771 343.062 151.374C342.688 150.978 342.212 150.779 341.633 150.779C340.958 150.779 340.425 151.03 340.033 151.531C339.641 152.028 339.445 152.73 339.445 153.637C339.445 154.443 339.634 155.077 340.013 155.537C340.391 155.993 340.879 156.221 341.476 156.221C342.132 156.221 342.654 155.997 343.041 155.551C343.433 155.1 343.629 154.532 343.629 153.849ZM352.68 157H351.559V155.893H351.531C351.066 156.74 350.346 157.164 349.371 157.164C347.703 157.164 346.869 156.171 346.869 154.184V150H347.983V154.006C347.983 155.482 348.549 156.221 349.679 156.221C350.226 156.221 350.674 156.02 351.025 155.619C351.381 155.214 351.559 154.685 351.559 154.033V150H352.68V157ZM355.523 148.223C355.323 148.223 355.152 148.154 355.011 148.018C354.869 147.881 354.799 147.708 354.799 147.498C354.799 147.288 354.869 147.115 355.011 146.979C355.152 146.837 355.323 146.767 355.523 146.767C355.729 146.767 355.902 146.837 356.043 146.979C356.189 147.115 356.262 147.288 356.262 147.498C356.262 147.699 356.189 147.869 356.043 148.011C355.902 148.152 355.729 148.223 355.523 148.223ZM356.07 157H354.949V150H356.07V157ZM361.99 151.135C361.794 150.984 361.512 150.909 361.143 150.909C360.664 150.909 360.263 151.135 359.939 151.586C359.62 152.037 359.461 152.652 359.461 153.432V157H358.34V150H359.461V151.442H359.488C359.648 150.95 359.892 150.567 360.22 150.294C360.548 150.016 360.915 149.877 361.32 149.877C361.612 149.877 361.835 149.909 361.99 149.973V151.135ZM368.833 153.78H363.891C363.909 154.56 364.118 155.161 364.52 155.585C364.921 156.009 365.472 156.221 366.174 156.221C366.962 156.221 367.687 155.961 368.348 155.441V156.494C367.732 156.941 366.919 157.164 365.907 157.164C364.918 157.164 364.141 156.847 363.576 156.214C363.011 155.576 362.729 154.68 362.729 153.527C362.729 152.438 363.036 151.552 363.651 150.868C364.271 150.18 365.039 149.836 365.955 149.836C366.871 149.836 367.58 150.132 368.081 150.725C368.582 151.317 368.833 152.14 368.833 153.192V153.78ZM367.685 152.83C367.68 152.183 367.523 151.679 367.213 151.319C366.908 150.959 366.481 150.779 365.935 150.779C365.406 150.779 364.957 150.968 364.588 151.347C364.219 151.725 363.991 152.219 363.904 152.83H367.685ZM380.475 157H379.354V152.98C379.354 152.206 379.233 151.645 378.991 151.299C378.754 150.952 378.353 150.779 377.788 150.779C377.31 150.779 376.902 150.998 376.564 151.436C376.232 151.873 376.065 152.397 376.065 153.008V157H374.944V152.844C374.944 151.467 374.413 150.779 373.352 150.779C372.859 150.779 372.454 150.987 372.135 151.401C371.816 151.812 371.656 152.347 371.656 153.008V157H370.535V150H371.656V151.107H371.684C372.18 150.26 372.905 149.836 373.857 149.836C374.336 149.836 374.753 149.97 375.108 150.239C375.464 150.504 375.708 150.852 375.84 151.285C376.359 150.319 377.134 149.836 378.164 149.836C379.704 149.836 380.475 150.786 380.475 152.687V157ZM388.22 153.78H383.277C383.296 154.56 383.505 155.161 383.906 155.585C384.307 156.009 384.859 156.221 385.561 156.221C386.349 156.221 387.074 155.961 387.734 155.441V156.494C387.119 156.941 386.306 157.164 385.294 157.164C384.305 157.164 383.528 156.847 382.963 156.214C382.398 155.576 382.115 154.68 382.115 153.527C382.115 152.438 382.423 151.552 383.038 150.868C383.658 150.18 384.426 149.836 385.342 149.836C386.258 149.836 386.966 150.132 387.468 150.725C387.969 151.317 388.22 152.14 388.22 153.192V153.78ZM387.071 152.83C387.067 152.183 386.91 151.679 386.6 151.319C386.294 150.959 385.868 150.779 385.321 150.779C384.793 150.779 384.344 150.968 383.975 151.347C383.605 151.725 383.378 152.219 383.291 152.83H387.071ZM395.732 157H394.611V153.008C394.611 151.522 394.069 150.779 392.984 150.779C392.424 150.779 391.959 150.991 391.59 151.415C391.225 151.834 391.043 152.365 391.043 153.008V157H389.922V150H391.043V151.162H391.07C391.599 150.278 392.365 149.836 393.367 149.836C394.133 149.836 394.718 150.084 395.124 150.581C395.53 151.073 395.732 151.786 395.732 152.721V157ZM401.099 156.932C400.834 157.077 400.486 157.15 400.053 157.15C398.827 157.15 398.214 156.467 398.214 155.1V150.957H397.011V150H398.214V148.291L399.335 147.929V150H401.099V150.957H399.335V154.901C399.335 155.371 399.415 155.706 399.574 155.906C399.734 156.107 399.998 156.207 400.367 156.207C400.65 156.207 400.894 156.13 401.099 155.975V156.932ZM402.172 156.747V155.544C402.783 155.995 403.455 156.221 404.188 156.221C405.173 156.221 405.665 155.893 405.665 155.236C405.665 155.049 405.622 154.892 405.535 154.765C405.453 154.632 405.339 154.516 405.193 154.416C405.052 154.316 404.883 154.227 404.688 154.149C404.496 154.067 404.289 153.983 404.065 153.896C403.756 153.773 403.482 153.65 403.245 153.527C403.013 153.4 402.817 153.258 402.657 153.104C402.502 152.944 402.384 152.764 402.302 152.563C402.224 152.363 402.186 152.128 402.186 151.859C402.186 151.531 402.261 151.242 402.411 150.991C402.562 150.736 402.762 150.524 403.013 150.355C403.263 150.182 403.548 150.052 403.867 149.966C404.191 149.879 404.523 149.836 404.865 149.836C405.471 149.836 406.014 149.941 406.492 150.15V151.285C405.977 150.948 405.385 150.779 404.715 150.779C404.505 150.779 404.316 150.804 404.147 150.854C403.979 150.9 403.833 150.966 403.71 151.053C403.591 151.139 403.498 151.244 403.43 151.367C403.366 151.486 403.334 151.618 403.334 151.764C403.334 151.946 403.366 152.099 403.43 152.222C403.498 152.345 403.596 152.454 403.724 152.55C403.851 152.646 404.006 152.732 404.188 152.81C404.371 152.887 404.578 152.971 404.811 153.062C405.12 153.181 405.398 153.304 405.645 153.432C405.891 153.555 406.1 153.696 406.273 153.855C406.447 154.01 406.579 154.19 406.67 154.396C406.766 154.601 406.813 154.844 406.813 155.127C406.813 155.473 406.736 155.774 406.581 156.029C406.431 156.285 406.228 156.496 405.973 156.665C405.717 156.834 405.424 156.959 405.091 157.041C404.758 157.123 404.41 157.164 404.045 157.164C403.325 157.164 402.701 157.025 402.172 156.747Z" fill="url(#paint4_linear_34_14932)"/>
<path d="M287.957 236.59C287.232 236.973 286.33 237.164 285.25 237.164C283.855 237.164 282.739 236.715 281.9 235.817C281.062 234.92 280.643 233.742 280.643 232.283C280.643 230.715 281.114 229.449 282.058 228.482C283.001 227.516 284.197 227.033 285.646 227.033C286.576 227.033 287.346 227.168 287.957 227.437V228.66C287.255 228.268 286.48 228.072 285.633 228.072C284.507 228.072 283.593 228.448 282.892 229.2C282.194 229.952 281.846 230.957 281.846 232.215C281.846 233.409 282.172 234.361 282.823 235.072C283.479 235.779 284.339 236.132 285.4 236.132C286.385 236.132 287.237 235.913 287.957 235.476V236.59ZM292.729 237.164C291.694 237.164 290.867 236.838 290.247 236.187C289.632 235.53 289.324 234.662 289.324 233.582C289.324 232.406 289.646 231.488 290.288 230.827C290.931 230.166 291.799 229.836 292.893 229.836C293.936 229.836 294.75 230.157 295.333 230.8C295.921 231.442 296.215 232.333 296.215 233.473C296.215 234.589 295.898 235.485 295.265 236.159C294.636 236.829 293.79 237.164 292.729 237.164ZM292.811 230.779C292.09 230.779 291.521 231.025 291.102 231.518C290.682 232.005 290.473 232.68 290.473 233.541C290.473 234.37 290.685 235.024 291.108 235.503C291.532 235.981 292.1 236.221 292.811 236.221C293.535 236.221 294.091 235.986 294.479 235.517C294.87 235.047 295.066 234.38 295.066 233.514C295.066 232.639 294.87 231.964 294.479 231.49C294.091 231.016 293.535 230.779 292.811 230.779ZM303.816 237H302.695V233.008C302.695 231.522 302.153 230.779 301.068 230.779C300.508 230.779 300.043 230.991 299.674 231.415C299.309 231.834 299.127 232.365 299.127 233.008V237H298.006V230H299.127V231.162H299.154C299.683 230.278 300.449 229.836 301.451 229.836C302.217 229.836 302.802 230.084 303.208 230.581C303.614 231.073 303.816 231.786 303.816 232.721V237ZM311.91 237H310.789V235.811H310.762C310.242 236.713 309.44 237.164 308.355 237.164C307.476 237.164 306.772 236.852 306.243 236.228C305.719 235.599 305.457 234.744 305.457 233.664C305.457 232.507 305.749 231.579 306.332 230.882C306.915 230.185 307.692 229.836 308.663 229.836C309.625 229.836 310.324 230.214 310.762 230.971H310.789V226.637H311.91V237ZM310.789 233.835V232.803C310.789 232.238 310.602 231.759 310.229 231.367C309.855 230.975 309.381 230.779 308.807 230.779C308.123 230.779 307.585 231.03 307.193 231.531C306.801 232.033 306.605 232.725 306.605 233.609C306.605 234.416 306.792 235.054 307.166 235.523C307.544 235.988 308.05 236.221 308.684 236.221C309.308 236.221 309.814 235.995 310.201 235.544C310.593 235.093 310.789 234.523 310.789 233.835ZM319.84 237H318.719V235.893H318.691C318.227 236.74 317.507 237.164 316.531 237.164C314.863 237.164 314.029 236.171 314.029 234.184V230H315.144V234.006C315.144 235.482 315.709 236.221 316.839 236.221C317.386 236.221 317.835 236.02 318.186 235.619C318.541 235.214 318.719 234.685 318.719 234.033V230H319.84V237ZM326.881 236.679C326.343 237.002 325.705 237.164 324.967 237.164C323.969 237.164 323.162 236.84 322.547 236.193C321.936 235.542 321.631 234.699 321.631 233.664C321.631 232.511 321.961 231.586 322.622 230.889C323.283 230.187 324.165 229.836 325.268 229.836C325.883 229.836 326.425 229.95 326.895 230.178V231.326C326.375 230.962 325.819 230.779 325.227 230.779C324.511 230.779 323.923 231.037 323.463 231.552C323.007 232.062 322.779 232.734 322.779 233.568C322.779 234.389 322.993 235.036 323.422 235.51C323.855 235.984 324.434 236.221 325.158 236.221C325.769 236.221 326.343 236.018 326.881 235.612V236.679ZM331.823 236.932C331.559 237.077 331.21 237.15 330.777 237.15C329.551 237.15 328.938 236.467 328.938 235.1V230.957H327.735V230H328.938V228.291L330.06 227.929V230H331.823V230.957H330.06V234.901C330.06 235.371 330.139 235.706 330.299 235.906C330.458 236.107 330.723 236.207 331.092 236.207C331.374 236.207 331.618 236.13 331.823 235.975V236.932ZM338.311 235.988H338.283V240.22H337.162V230H338.283V231.23H338.311C338.862 230.301 339.669 229.836 340.73 229.836C341.633 229.836 342.337 230.15 342.843 230.779C343.349 231.404 343.602 232.242 343.602 233.295C343.602 234.466 343.317 235.405 342.747 236.111C342.177 236.813 341.398 237.164 340.409 237.164C339.502 237.164 338.803 236.772 338.311 235.988ZM338.283 233.165V234.143C338.283 234.721 338.47 235.214 338.844 235.619C339.222 236.02 339.701 236.221 340.279 236.221C340.958 236.221 341.489 235.961 341.872 235.441C342.259 234.922 342.453 234.2 342.453 233.274C342.453 232.495 342.273 231.884 341.913 231.442C341.553 231 341.065 230.779 340.45 230.779C339.799 230.779 339.274 231.007 338.878 231.463C338.481 231.914 338.283 232.481 338.283 233.165ZM349.043 231.135C348.847 230.984 348.564 230.909 348.195 230.909C347.717 230.909 347.316 231.135 346.992 231.586C346.673 232.037 346.514 232.652 346.514 233.432V237H345.393V230H346.514V231.442H346.541C346.701 230.95 346.944 230.567 347.272 230.294C347.601 230.016 347.967 229.877 348.373 229.877C348.665 229.877 348.888 229.909 349.043 229.973V231.135ZM353.186 237.164C352.151 237.164 351.324 236.838 350.704 236.187C350.089 235.53 349.781 234.662 349.781 233.582C349.781 232.406 350.103 231.488 350.745 230.827C351.388 230.166 352.256 229.836 353.35 229.836C354.393 229.836 355.207 230.157 355.79 230.8C356.378 231.442 356.672 232.333 356.672 233.473C356.672 234.589 356.355 235.485 355.722 236.159C355.093 236.829 354.247 237.164 353.186 237.164ZM353.268 230.779C352.548 230.779 351.978 231.025 351.559 231.518C351.139 232.005 350.93 232.68 350.93 233.541C350.93 234.37 351.142 235.024 351.565 235.503C351.989 235.981 352.557 236.221 353.268 236.221C353.992 236.221 354.548 235.986 354.936 235.517C355.327 235.047 355.523 234.38 355.523 233.514C355.523 232.639 355.327 231.964 354.936 231.49C354.548 231.016 353.992 230.779 353.268 230.779ZM361.389 237.164C360.354 237.164 359.527 236.838 358.907 236.187C358.292 235.53 357.984 234.662 357.984 233.582C357.984 232.406 358.306 231.488 358.948 230.827C359.591 230.166 360.459 229.836 361.553 229.836C362.596 229.836 363.41 230.157 363.993 230.8C364.581 231.442 364.875 232.333 364.875 233.473C364.875 234.589 364.558 235.485 363.925 236.159C363.296 236.829 362.451 237.164 361.389 237.164ZM361.471 230.779C360.751 230.779 360.181 231.025 359.762 231.518C359.342 232.005 359.133 232.68 359.133 233.541C359.133 234.37 359.345 235.024 359.769 235.503C360.192 235.981 360.76 236.221 361.471 236.221C362.195 236.221 362.751 235.986 363.139 235.517C363.531 235.047 363.727 234.38 363.727 233.514C363.727 232.639 363.531 231.964 363.139 231.49C362.751 231.016 362.195 230.779 361.471 230.779ZM370.125 227.621C369.906 227.498 369.658 227.437 369.38 227.437C368.596 227.437 368.204 227.931 368.204 228.92V230H369.845V230.957H368.204V237H367.09V230.957H365.894V230H367.09V228.865C367.09 228.132 367.302 227.553 367.726 227.129C368.149 226.701 368.678 226.486 369.312 226.486C369.653 226.486 369.924 226.527 370.125 226.609V227.621ZM377.822 237.164C376.788 237.164 375.961 236.838 375.341 236.187C374.726 235.53 374.418 234.662 374.418 233.582C374.418 232.406 374.739 231.488 375.382 230.827C376.024 230.166 376.893 229.836 377.986 229.836C379.03 229.836 379.843 230.157 380.427 230.8C381.015 231.442 381.309 232.333 381.309 233.473C381.309 234.589 380.992 235.485 380.358 236.159C379.729 236.829 378.884 237.164 377.822 237.164ZM377.904 230.779C377.184 230.779 376.615 231.025 376.195 231.518C375.776 232.005 375.566 232.68 375.566 233.541C375.566 234.37 375.778 235.024 376.202 235.503C376.626 235.981 377.193 236.221 377.904 236.221C378.629 236.221 379.185 235.986 379.572 235.517C379.964 235.047 380.16 234.38 380.16 233.514C380.16 232.639 379.964 231.964 379.572 231.49C379.185 231.016 378.629 230.779 377.904 230.779ZM386.559 227.621C386.34 227.498 386.091 227.437 385.813 227.437C385.03 227.437 384.638 227.931 384.638 228.92V230H386.278V230.957H384.638V237H383.523V230.957H382.327V230H383.523V228.865C383.523 228.132 383.735 227.553 384.159 227.129C384.583 226.701 385.112 226.486 385.745 226.486C386.087 226.486 386.358 226.527 386.559 226.609V227.621ZM285.906 255.679C285.368 256.002 284.73 256.164 283.992 256.164C282.994 256.164 282.188 255.84 281.572 255.193C280.962 254.542 280.656 253.699 280.656 252.664C280.656 251.511 280.987 250.586 281.647 249.889C282.308 249.187 283.19 248.836 284.293 248.836C284.908 248.836 285.451 248.95 285.92 249.178V250.326C285.4 249.962 284.844 249.779 284.252 249.779C283.536 249.779 282.949 250.037 282.488 250.552C282.033 251.062 281.805 251.734 281.805 252.568C281.805 253.389 282.019 254.036 282.447 254.51C282.88 254.984 283.459 255.221 284.184 255.221C284.794 255.221 285.368 255.018 285.906 254.612V255.679ZM290.527 256.164C289.493 256.164 288.666 255.838 288.046 255.187C287.431 254.53 287.123 253.662 287.123 252.582C287.123 251.406 287.444 250.488 288.087 249.827C288.729 249.166 289.598 248.836 290.691 248.836C291.735 248.836 292.549 249.157 293.132 249.8C293.72 250.442 294.014 251.333 294.014 252.473C294.014 253.589 293.697 254.485 293.063 255.159C292.435 255.829 291.589 256.164 290.527 256.164ZM290.609 249.779C289.889 249.779 289.32 250.025 288.9 250.518C288.481 251.005 288.271 251.68 288.271 252.541C288.271 253.37 288.483 254.024 288.907 254.503C289.331 254.981 289.898 255.221 290.609 255.221C291.334 255.221 291.89 254.986 292.277 254.517C292.669 254.047 292.865 253.38 292.865 252.514C292.865 251.639 292.669 250.964 292.277 250.49C291.89 250.016 291.334 249.779 290.609 249.779ZM301.615 256H300.494V252.008C300.494 250.522 299.952 249.779 298.867 249.779C298.307 249.779 297.842 249.991 297.473 250.415C297.108 250.834 296.926 251.365 296.926 252.008V256H295.805V249H296.926V250.162H296.953C297.482 249.278 298.247 248.836 299.25 248.836C300.016 248.836 300.601 249.084 301.007 249.581C301.412 250.073 301.615 250.786 301.615 251.721V256ZM308.506 255.679C307.968 256.002 307.33 256.164 306.592 256.164C305.594 256.164 304.787 255.84 304.172 255.193C303.561 254.542 303.256 253.699 303.256 252.664C303.256 251.511 303.586 250.586 304.247 249.889C304.908 249.187 305.79 248.836 306.893 248.836C307.508 248.836 308.05 248.95 308.52 249.178V250.326C308 249.962 307.444 249.779 306.852 249.779C306.136 249.779 305.548 250.037 305.088 250.552C304.632 251.062 304.404 251.734 304.404 252.568C304.404 253.389 304.618 254.036 305.047 254.51C305.48 254.984 306.059 255.221 306.783 255.221C307.394 255.221 307.968 255.018 308.506 254.612V255.679ZM315.827 252.78H310.885C310.903 253.56 311.113 254.161 311.514 254.585C311.915 255.009 312.466 255.221 313.168 255.221C313.956 255.221 314.681 254.961 315.342 254.441V255.494C314.727 255.941 313.913 256.164 312.901 256.164C311.912 256.164 311.135 255.847 310.57 255.214C310.005 254.576 309.723 253.68 309.723 252.527C309.723 251.438 310.03 250.552 310.646 249.868C311.265 249.18 312.033 248.836 312.949 248.836C313.865 248.836 314.574 249.132 315.075 249.725C315.576 250.317 315.827 251.14 315.827 252.192V252.78ZM314.679 251.83C314.674 251.183 314.517 250.679 314.207 250.319C313.902 249.959 313.476 249.779 312.929 249.779C312.4 249.779 311.951 249.968 311.582 250.347C311.213 250.725 310.985 251.219 310.898 251.83H314.679ZM318.678 254.988H318.65V259.22H317.529V249H318.65V250.23H318.678C319.229 249.301 320.036 248.836 321.098 248.836C322 248.836 322.704 249.15 323.21 249.779C323.716 250.404 323.969 251.242 323.969 252.295C323.969 253.466 323.684 254.405 323.114 255.111C322.545 255.813 321.765 256.164 320.776 256.164C319.869 256.164 319.17 255.772 318.678 254.988ZM318.65 252.165V253.143C318.65 253.721 318.837 254.214 319.211 254.619C319.589 255.02 320.068 255.221 320.646 255.221C321.326 255.221 321.856 254.961 322.239 254.441C322.627 253.922 322.82 253.2 322.82 252.274C322.82 251.495 322.64 250.884 322.28 250.442C321.92 250 321.433 249.779 320.817 249.779C320.166 249.779 319.642 250.007 319.245 250.463C318.849 250.914 318.65 251.481 318.65 252.165ZM329.007 255.932C328.743 256.077 328.394 256.15 327.961 256.15C326.735 256.15 326.122 255.467 326.122 254.1V249.957H324.919V249H326.122V247.291L327.243 246.929V249H329.007V249.957H327.243V253.901C327.243 254.371 327.323 254.706 327.482 254.906C327.642 255.107 327.906 255.207 328.275 255.207C328.558 255.207 328.802 255.13 329.007 254.975V255.932Z" fill="url(#paint5_linear_34_14932)"/>
<path d="M282.434 197.295V201H281.285V191.197H283.979C285.027 191.197 285.838 191.452 286.412 191.963C286.991 192.473 287.28 193.193 287.28 194.123C287.28 195.053 286.959 195.814 286.316 196.406C285.678 196.999 284.815 197.295 283.726 197.295H282.434ZM282.434 192.236V196.256H283.637C284.43 196.256 285.034 196.076 285.448 195.716C285.868 195.351 286.077 194.839 286.077 194.178C286.077 192.883 285.312 192.236 283.78 192.236H282.434ZM290.104 201H288.982V190.637H290.104V201ZM297.384 201H296.263V199.906H296.235C295.748 200.745 295.03 201.164 294.082 201.164C293.385 201.164 292.838 200.979 292.441 200.61C292.049 200.241 291.854 199.751 291.854 199.141C291.854 197.833 292.624 197.072 294.164 196.857L296.263 196.563C296.263 195.374 295.782 194.779 294.82 194.779C293.977 194.779 293.216 195.066 292.537 195.641V194.492C293.225 194.055 294.018 193.836 294.916 193.836C296.561 193.836 297.384 194.706 297.384 196.447V201ZM296.263 197.459L294.574 197.691C294.055 197.764 293.663 197.894 293.398 198.081C293.134 198.263 293.002 198.589 293.002 199.059C293.002 199.4 293.123 199.681 293.364 199.899C293.61 200.114 293.936 200.221 294.342 200.221C294.898 200.221 295.356 200.027 295.716 199.64C296.08 199.248 296.263 198.753 296.263 198.156V197.459ZM305.307 201H304.186V197.008C304.186 195.522 303.643 194.779 302.559 194.779C301.998 194.779 301.533 194.991 301.164 195.415C300.799 195.834 300.617 196.365 300.617 197.008V201H299.496V194H300.617V195.162H300.645C301.173 194.278 301.939 193.836 302.941 193.836C303.707 193.836 304.293 194.084 304.698 194.581C305.104 195.073 305.307 195.786 305.307 196.721V201ZM317.242 201H316.121V199.811H316.094C315.574 200.713 314.772 201.164 313.688 201.164C312.808 201.164 312.104 200.852 311.575 200.228C311.051 199.599 310.789 198.744 310.789 197.664C310.789 196.507 311.081 195.579 311.664 194.882C312.247 194.185 313.024 193.836 313.995 193.836C314.957 193.836 315.656 194.214 316.094 194.971H316.121V190.637H317.242V201ZM316.121 197.835V196.803C316.121 196.238 315.934 195.759 315.561 195.367C315.187 194.975 314.713 194.779 314.139 194.779C313.455 194.779 312.917 195.03 312.525 195.531C312.133 196.033 311.938 196.725 311.938 197.609C311.938 198.416 312.124 199.054 312.498 199.523C312.876 199.988 313.382 200.221 314.016 200.221C314.64 200.221 315.146 199.995 315.533 199.544C315.925 199.093 316.121 198.523 316.121 197.835ZM325.138 197.78H320.195C320.214 198.56 320.423 199.161 320.824 199.585C321.225 200.009 321.777 200.221 322.479 200.221C323.267 200.221 323.992 199.961 324.652 199.441V200.494C324.037 200.941 323.224 201.164 322.212 201.164C321.223 201.164 320.446 200.847 319.881 200.214C319.316 199.576 319.033 198.68 319.033 197.527C319.033 196.438 319.341 195.552 319.956 194.868C320.576 194.18 321.344 193.836 322.26 193.836C323.176 193.836 323.884 194.132 324.386 194.725C324.887 195.317 325.138 196.14 325.138 197.192V197.78ZM323.989 196.83C323.985 196.183 323.827 195.679 323.518 195.319C323.212 194.959 322.786 194.779 322.239 194.779C321.711 194.779 321.262 194.968 320.893 195.347C320.523 195.725 320.296 196.219 320.209 196.83H323.989ZM327.988 199.988H327.961V204.22H326.84V194H327.961V195.23H327.988C328.54 194.301 329.346 193.836 330.408 193.836C331.311 193.836 332.015 194.15 332.521 194.779C333.026 195.404 333.279 196.242 333.279 197.295C333.279 198.466 332.994 199.405 332.425 200.111C331.855 200.813 331.076 201.164 330.087 201.164C329.18 201.164 328.48 200.772 327.988 199.988ZM327.961 197.165V198.143C327.961 198.721 328.148 199.214 328.521 199.619C328.9 200.02 329.378 200.221 329.957 200.221C330.636 200.221 331.167 199.961 331.55 199.441C331.937 198.922 332.131 198.2 332.131 197.274C332.131 196.495 331.951 195.884 331.591 195.442C331.231 195 330.743 194.779 330.128 194.779C329.476 194.779 328.952 195.007 328.556 195.463C328.159 195.914 327.961 196.481 327.961 197.165ZM336.191 201H335.07V190.637H336.191V201ZM341.387 201.164C340.352 201.164 339.525 200.838 338.905 200.187C338.29 199.53 337.982 198.662 337.982 197.582C337.982 196.406 338.304 195.488 338.946 194.827C339.589 194.166 340.457 193.836 341.551 193.836C342.594 193.836 343.408 194.157 343.991 194.8C344.579 195.442 344.873 196.333 344.873 197.473C344.873 198.589 344.556 199.485 343.923 200.159C343.294 200.829 342.449 201.164 341.387 201.164ZM341.469 194.779C340.749 194.779 340.179 195.025 339.76 195.518C339.34 196.005 339.131 196.68 339.131 197.541C339.131 198.37 339.343 199.024 339.767 199.503C340.19 199.981 340.758 200.221 341.469 200.221C342.193 200.221 342.749 199.986 343.137 199.517C343.529 199.047 343.725 198.38 343.725 197.514C343.725 196.639 343.529 195.964 343.137 195.49C342.749 195.016 342.193 194.779 341.469 194.779ZM352.235 194L349.016 202.121C348.441 203.57 347.635 204.295 346.596 204.295C346.304 204.295 346.06 204.265 345.864 204.206V203.201C346.106 203.283 346.327 203.324 346.527 203.324C347.092 203.324 347.516 202.987 347.799 202.312L348.359 200.986L345.625 194H346.869L348.763 199.387C348.785 199.455 348.833 199.633 348.906 199.92H348.947C348.97 199.811 349.016 199.637 349.084 199.4L351.073 194H352.235ZM363.385 201H362.264V196.98C362.264 196.206 362.143 195.645 361.901 195.299C361.664 194.952 361.263 194.779 360.698 194.779C360.22 194.779 359.812 194.998 359.475 195.436C359.142 195.873 358.976 196.397 358.976 197.008V201H357.854V196.844C357.854 195.467 357.324 194.779 356.262 194.779C355.77 194.779 355.364 194.987 355.045 195.401C354.726 195.812 354.566 196.347 354.566 197.008V201H353.445V194H354.566V195.107H354.594C355.09 194.26 355.815 193.836 356.768 193.836C357.246 193.836 357.663 193.97 358.019 194.239C358.374 194.504 358.618 194.852 358.75 195.285C359.27 194.319 360.044 193.836 361.074 193.836C362.615 193.836 363.385 194.786 363.385 196.687V201ZM371.13 197.78H366.188C366.206 198.56 366.415 199.161 366.816 199.585C367.217 200.009 367.769 200.221 368.471 200.221C369.259 200.221 369.984 199.961 370.645 199.441V200.494C370.029 200.941 369.216 201.164 368.204 201.164C367.215 201.164 366.438 200.847 365.873 200.214C365.308 199.576 365.025 198.68 365.025 197.527C365.025 196.438 365.333 195.552 365.948 194.868C366.568 194.18 367.336 193.836 368.252 193.836C369.168 193.836 369.877 194.132 370.378 194.725C370.879 195.317 371.13 196.14 371.13 197.192V197.78ZM369.981 196.83C369.977 196.183 369.82 195.679 369.51 195.319C369.204 194.959 368.778 194.779 368.231 194.779C367.703 194.779 367.254 194.968 366.885 195.347C366.516 195.725 366.288 196.219 366.201 196.83H369.981ZM378.643 201H377.521V197.008C377.521 195.522 376.979 194.779 375.895 194.779C375.334 194.779 374.869 194.991 374.5 195.415C374.135 195.834 373.953 196.365 373.953 197.008V201H372.832V194H373.953V195.162H373.98C374.509 194.278 375.275 193.836 376.277 193.836C377.043 193.836 377.629 194.084 378.034 194.581C378.44 195.073 378.643 195.786 378.643 196.721V201ZM384.009 200.932C383.744 201.077 383.396 201.15 382.963 201.15C381.737 201.15 381.124 200.467 381.124 199.1V194.957H379.921V194H381.124V192.291L382.245 191.929V194H384.009V194.957H382.245V198.901C382.245 199.371 382.325 199.706 382.484 199.906C382.644 200.107 382.908 200.207 383.277 200.207C383.56 200.207 383.804 200.13 384.009 199.975V200.932Z" fill="url(#paint6_linear_34_14932)"/>
<path d="M243 142.5C243 140.567 244.567 139 246.5 139H265.5C267.433 139 269 140.567 269 142.5V161.5C269 163.433 267.433 165 265.5 165H246.5C244.567 165 243 163.433 243 161.5V142.5Z" fill="url(#paint7_linear_34_14932)"/>
<path d="M243 142.5C243 140.567 244.567 139 246.5 139H265.5C267.433 139 269 140.567 269 142.5V161.5C269 163.433 267.433 165 265.5 165H246.5C244.567 165 243 163.433 243 161.5V142.5Z" fill="url(#paint8_radial_34_14932)" fill-opacity="0.2"/>
<path fill-rule="evenodd" clip-rule="evenodd" d="M265.5 140H246.5C245.119 140 244 141.119 244 142.5V161.5C244 162.881 245.119 164 246.5 164H265.5C266.881 164 268 162.881 268 161.5V142.5C268 141.119 266.881 140 265.5 140ZM246.5 139C244.567 139 243 140.567 243 142.5V161.5C243 163.433 244.567 165 246.5 165H265.5C267.433 165 269 163.433 269 161.5V142.5C269 140.567 267.433 139 265.5 139H246.5Z" fill="url(#paint9_linear_34_14932)"/>
<path d="M262.416 146.456L263.158 145.72C263.32 145.578 263.336 145.332 263.194 145.171C263.186 145.162 263.177 145.153 263.168 145.144L262.439 144.415C262.281 144.254 262.022 144.25 261.86 144.409C261.858 144.411 261.856 144.413 261.854 144.415L261.112 145.152L262.416 146.456Z" fill="url(#paint10_linear_34_14932)"/>
<path d="M259.75 154.604V153.979H258.188V156.271H257.875V156.896H261.938V149.604H260.179L259.554 150.229H261.312V152.104H258.083V152.729H261.312V153.979H260.792V154.604H261.312V156.271H258.812V154.604H259.75Z" fill="url(#paint11_linear_34_14932)"/>
<path d="M262.992 146.792L261.742 148.042H263.291V158.25H251.099C251.147 158.115 251.179 157.975 251.196 157.833L251.208 157.625V148.042H257.35L258.597 146.792H251.208V146.583C251.208 145.548 250.369 144.708 249.333 144.708C248.297 144.708 247.458 145.548 247.458 146.583V157.625L247.47 157.833C247.574 158.746 248.323 159.45 249.241 159.495V159.5H264.541V146.792H262.992ZM249.333 158.25C248.988 158.25 248.708 157.97 248.708 157.625C248.708 157.28 248.988 157 249.333 157C249.678 157 249.958 157.28 249.958 157.625C249.958 157.97 249.678 158.25 249.333 158.25ZM249.958 155.859C249.554 155.714 249.112 155.714 248.708 155.859V146.583C248.708 146.238 248.988 145.958 249.333 145.958C249.678 145.958 249.958 146.238 249.958 146.583V155.859Z" fill="url(#paint12_linear_34_14932)"/>
<path d="M255.166 150.229L255.79 149.604H252.562V156.896H256.625V156.271H256.312V153.979H254.75V154.604H255.687V156.271H253.187V154.604H253.708V153.979H253.187V152.729H254.335L254.542 152.104H253.187V150.229H255.166Z" fill="url(#paint13_linear_34_14932)"/>
<path d="M260.82 145.449L255.71 150.569L255.062 152.521L257.025 151.874L262.135 146.763L260.82 145.449ZM256.809 151.515L255.936 151.803L255.782 151.648L256.069 150.775C256.278 150.578 256.606 150.582 256.809 150.785C257.011 150.981 257.015 151.303 256.82 151.504C256.816 151.508 256.813 151.511 256.809 151.515Z" fill="url(#paint14_linear_34_14932)"/>
<path d="M243 186.5C243 184.567 244.567 183 246.5 183H265.5C267.433 183 269 184.567 269 186.5V205.5C269 207.433 267.433 209 265.5 209H246.5C244.567 209 243 207.433 243 205.5V186.5Z" fill="url(#paint15_linear_34_14932)"/>
<path d="M243 186.5C243 184.567 244.567 183 246.5 183H265.5C267.433 183 269 184.567 269 186.5V205.5C269 207.433 267.433 209 265.5 209H246.5C244.567 209 243 207.433 243 205.5V186.5Z" fill="url(#paint16_radial_34_14932)" fill-opacity="0.2"/>
<path fill-rule="evenodd" clip-rule="evenodd" d="M265.5 184H246.5C245.119 184 244 185.119 244 186.5V205.5C244 206.881 245.119 208 246.5 208H265.5C266.881 208 268 206.881 268 205.5V186.5C268 185.119 266.881 184 265.5 184ZM246.5 183C244.567 183 243 184.567 243 186.5V205.5C243 207.433 244.567 209 246.5 209H265.5C267.433 209 269 207.433 269 205.5V186.5C269 184.567 267.433 183 265.5 183H246.5Z" fill="url(#paint17_linear_34_14932)"/>
<path d="M262.75 188.25V204H249.25V188.25H253.75C253.75 187.939 253.809 187.649 253.926 187.38C254.043 187.11 254.204 186.87 254.409 186.659C254.614 186.448 254.852 186.287 255.121 186.176C255.391 186.064 255.684 186.006 256 186C256.311 186 256.601 186.059 256.87 186.176C257.14 186.293 257.38 186.454 257.591 186.659C257.802 186.864 257.963 187.102 258.074 187.371C258.186 187.641 258.244 187.934 258.25 188.25H262.75ZM252.625 189.375V190.5H259.375V189.375H257.125V188.25C257.125 188.092 257.096 187.945 257.037 187.811C256.979 187.676 256.899 187.559 256.8 187.459C256.7 187.359 256.58 187.277 256.439 187.213C256.299 187.148 256.152 187.119 256 187.125C255.842 187.125 255.695 187.154 255.561 187.213C255.426 187.271 255.309 187.351 255.209 187.45C255.109 187.55 255.027 187.67 254.963 187.811C254.898 187.951 254.869 188.098 254.875 188.25V189.375H252.625ZM261.625 189.375H260.5V191.625H251.5V189.375H250.375V202.875H261.625V189.375ZM258.065 192.319C258.312 192.319 258.54 192.363 258.751 192.451C258.962 192.539 259.149 192.662 259.313 192.82C259.478 192.979 259.601 193.163 259.683 193.374C259.765 193.585 259.812 193.813 259.823 194.06C259.823 194.288 259.779 194.511 259.691 194.728C259.604 194.944 259.478 195.135 259.313 195.299L254.69 199.966L251.544 200.563L252.203 197.479L256.826 192.82C256.99 192.656 257.181 192.533 257.397 192.451C257.614 192.369 257.837 192.325 258.065 192.319ZM258.514 194.508C258.637 194.373 258.698 194.224 258.698 194.06C258.698 193.878 258.64 193.731 258.522 193.62C258.405 193.509 258.253 193.45 258.065 193.444C257.983 193.444 257.904 193.456 257.828 193.479C257.752 193.503 257.685 193.547 257.626 193.611L253.24 198.032L253.003 199.14L254.137 198.92L258.514 194.508Z" fill="url(#paint18_linear_34_14932)"/>
<path d="M243 229.5C243 227.567 244.567 226 246.5 226H265.5C267.433 226 269 227.567 269 229.5V248.5C269 250.433 267.433 252 265.5 252H246.5C244.567 252 243 250.433 243 248.5V229.5Z" fill="url(#paint19_linear_34_14932)"/>
<path d="M243 229.5C243 227.567 244.567 226 246.5 226H265.5C267.433 226 269 227.567 269 229.5V248.5C269 250.433 267.433 252 265.5 252H246.5C244.567 252 243 250.433 243 248.5V229.5Z" fill="url(#paint20_radial_34_14932)" fill-opacity="0.2"/>
<path fill-rule="evenodd" clip-rule="evenodd" d="M265.5 227H246.5C245.119 227 244 228.119 244 229.5V248.5C244 249.881 245.119 251 246.5 251H265.5C266.881 251 268 249.881 268 248.5V229.5C268 228.119 266.881 227 265.5 227ZM246.5 226C244.567 226 243 227.567 243 229.5V248.5C243 250.433 244.567 252 246.5 252H265.5C267.433 252 269 250.433 269 248.5V229.5C269 227.567 267.433 226 265.5 226H246.5Z" fill="url(#paint21_linear_34_14932)"/>
<g clip-path="url(#clip0_34_14932)">
<path d="M250.05 234.508C250.626 232.865 252.192 231.688 254.031 231.688C254.342 231.688 254.593 231.436 254.593 231.125C254.593 230.814 254.342 230.562 254.031 230.562C251.703 230.562 249.722 232.051 248.99 234.129L248.769 233.686C248.63 233.408 248.291 233.295 248.014 233.434C247.736 233.573 247.623 233.911 247.762 234.189L248.746 236.158C248.824 236.311 248.966 236.422 249.134 236.457C249.302 236.492 249.478 236.448 249.61 236.339L251.297 234.932C251.536 234.733 251.568 234.378 251.37 234.14C251.171 233.901 250.816 233.869 250.577 234.068L250.05 234.508Z" fill="url(#paint22_linear_34_14932)"/>
<path d="M261.95 243.492C261.373 245.135 259.808 246.312 257.969 246.312C257.658 246.312 257.406 246.564 257.406 246.875C257.406 247.186 257.658 247.437 257.969 247.437C260.297 247.437 262.278 245.949 263.009 243.871L263.231 244.314C263.37 244.592 263.708 244.705 263.986 244.566C264.264 244.427 264.376 244.089 264.238 243.811L263.253 241.842C263.176 241.689 263.033 241.578 262.865 241.543C262.697 241.508 262.522 241.552 262.39 241.661L260.703 243.068C260.463 243.267 260.432 243.622 260.63 243.86C260.829 244.099 261.184 244.131 261.423 243.932L261.95 243.492Z" fill="url(#paint23_linear_34_14932)"/>
<path fill-rule="evenodd" clip-rule="evenodd" d="M256.563 230.562C255.32 230.562 254.313 231.57 254.313 232.813V237.313H249.813C248.57 237.313 247.562 238.32 247.562 239.563V245.188C247.562 246.43 248.57 247.438 249.813 247.438H255.438C256.68 247.438 257.688 246.43 257.688 245.188V240.688H262.188C263.43 240.688 264.438 239.68 264.438 238.438V232.813C264.438 231.57 263.43 230.562 262.188 230.562H256.563ZM257.688 239.563H262.188C262.809 239.563 263.313 239.059 263.313 238.438V232.813C263.313 232.191 262.809 231.688 262.188 231.688H256.563C255.941 231.688 255.438 232.191 255.438 232.813V237.313C256.68 237.313 257.688 238.32 257.688 239.563ZM248.688 239.563C248.688 238.941 249.191 238.438 249.813 238.438H255.438C256.059 238.438 256.563 238.941 256.563 239.563V245.188C256.563 245.809 256.059 246.313 255.438 246.313H249.813C249.191 246.313 248.688 245.809 248.688 245.188V239.563Z" fill="url(#paint24_linear_34_14932)"/>
</g>
<path d="M235.749 238.971C235.765 239.385 235.443 239.734 235.029 239.749L228.284 240.009C227.87 240.025 227.521 239.702 227.506 239.288C227.49 238.874 227.812 238.526 228.226 238.51L234.222 238.279L233.991 232.284C233.975 231.87 234.298 231.521 234.712 231.506C235.126 231.49 235.474 231.812 235.49 232.226L235.749 238.971ZM234.47 198.47C234.763 198.177 235.237 198.177 235.53 198.47C235.823 198.763 235.823 199.237 235.53 199.53L234.47 198.47ZM234.49 239.55C228.346 233.861 225.25 226.665 225.25 219.333C225.25 212.004 228.343 204.596 234.47 198.47L235.53 199.53C229.657 205.404 226.75 212.44 226.75 219.333C226.75 226.224 229.654 233.028 235.51 238.45L234.49 239.55Z" fill="#616161"/>
<path d="M235.75 194C235.75 194.414 235.414 194.75 235 194.75H228.25C227.836 194.75 227.5 194.414 227.5 194C227.5 193.586 227.836 193.25 228.25 193.25H234.25V187.25C234.25 186.836 234.586 186.5 235 186.5C235.414 186.5 235.75 186.836 235.75 187.25V194ZM234.459 148.48C234.746 148.182 235.221 148.172 235.52 148.459C235.818 148.746 235.828 149.221 235.541 149.52L234.459 148.48ZM234.47 194.53C221.671 181.732 221.686 161.765 234.459 148.48L235.541 149.52C223.314 162.235 223.329 181.268 235.53 193.47L234.47 194.53Z" fill="#616161"/>
<path d="M281.285 324V314.197H283.992C287.447 314.197 289.174 315.79 289.174 318.976C289.174 320.489 288.693 321.705 287.731 322.626C286.774 323.542 285.492 324 283.883 324H281.285ZM282.434 315.236V322.961H283.896C285.182 322.961 286.182 322.617 286.897 321.929C287.613 321.241 287.971 320.265 287.971 319.003C287.971 316.492 286.635 315.236 283.965 315.236H282.434ZM296.577 320.78H291.635C291.653 321.56 291.863 322.161 292.264 322.585C292.665 323.009 293.216 323.221 293.918 323.221C294.706 323.221 295.431 322.961 296.092 322.441V323.494C295.477 323.941 294.663 324.164 293.651 324.164C292.662 324.164 291.885 323.847 291.32 323.214C290.755 322.576 290.473 321.68 290.473 320.527C290.473 319.438 290.78 318.552 291.396 317.868C292.015 317.18 292.783 316.836 293.699 316.836C294.615 316.836 295.324 317.132 295.825 317.725C296.326 318.317 296.577 319.14 296.577 320.192V320.78ZM295.429 319.83C295.424 319.183 295.267 318.679 294.957 318.319C294.652 317.959 294.226 317.779 293.679 317.779C293.15 317.779 292.701 317.968 292.332 318.347C291.963 318.725 291.735 319.219 291.648 319.83H295.429ZM299.428 322.988H299.4V327.22H298.279V317H299.4V318.23H299.428C299.979 317.301 300.786 316.836 301.848 316.836C302.75 316.836 303.454 317.15 303.96 317.779C304.466 318.404 304.719 319.242 304.719 320.295C304.719 321.466 304.434 322.405 303.864 323.111C303.295 323.813 302.515 324.164 301.526 324.164C300.619 324.164 299.92 323.772 299.428 322.988ZM299.4 320.165V321.143C299.4 321.721 299.587 322.214 299.961 322.619C300.339 323.02 300.818 323.221 301.396 323.221C302.076 323.221 302.606 322.961 302.989 322.441C303.377 321.922 303.57 321.2 303.57 320.274C303.57 319.495 303.39 318.884 303.03 318.442C302.67 318 302.183 317.779 301.567 317.779C300.916 317.779 300.392 318.007 299.995 318.463C299.599 318.914 299.4 319.481 299.4 320.165ZM307.631 324H306.51V313.637H307.631V324ZM312.826 324.164C311.792 324.164 310.965 323.838 310.345 323.187C309.729 322.53 309.422 321.662 309.422 320.582C309.422 319.406 309.743 318.488 310.386 317.827C311.028 317.166 311.896 316.836 312.99 316.836C314.034 316.836 314.847 317.157 315.431 317.8C316.019 318.442 316.312 319.333 316.312 320.473C316.312 321.589 315.996 322.485 315.362 323.159C314.733 323.829 313.888 324.164 312.826 324.164ZM312.908 317.779C312.188 317.779 311.618 318.025 311.199 318.518C310.78 319.005 310.57 319.68 310.57 320.541C310.57 321.37 310.782 322.024 311.206 322.503C311.63 322.981 312.197 323.221 312.908 323.221C313.633 323.221 314.189 322.986 314.576 322.517C314.968 322.047 315.164 321.38 315.164 320.514C315.164 319.639 314.968 318.964 314.576 318.49C314.189 318.016 313.633 317.779 312.908 317.779ZM323.675 317L320.455 325.121C319.881 326.57 319.074 327.295 318.035 327.295C317.743 327.295 317.5 327.265 317.304 327.206V326.201C317.545 326.283 317.766 326.324 317.967 326.324C318.532 326.324 318.956 325.987 319.238 325.312L319.799 323.986L317.064 317H318.309L320.202 322.387C320.225 322.455 320.273 322.633 320.346 322.92H320.387C320.41 322.811 320.455 322.637 320.523 322.4L322.513 317H323.675ZM325.91 322.441L324.816 325.805H324.017L324.816 322.441H325.91ZM331.338 323.747V322.544C331.949 322.995 332.621 323.221 333.354 323.221C334.339 323.221 334.831 322.893 334.831 322.236C334.831 322.049 334.788 321.892 334.701 321.765C334.619 321.632 334.505 321.516 334.359 321.416C334.218 321.316 334.049 321.227 333.854 321.149C333.662 321.067 333.455 320.983 333.231 320.896C332.922 320.773 332.648 320.65 332.411 320.527C332.179 320.4 331.983 320.258 331.823 320.104C331.668 319.944 331.55 319.764 331.468 319.563C331.39 319.363 331.352 319.128 331.352 318.859C331.352 318.531 331.427 318.242 331.577 317.991C331.728 317.736 331.928 317.524 332.179 317.355C332.429 317.182 332.714 317.052 333.033 316.966C333.357 316.879 333.689 316.836 334.031 316.836C334.637 316.836 335.18 316.941 335.658 317.15V318.285C335.143 317.948 334.551 317.779 333.881 317.779C333.671 317.779 333.482 317.804 333.313 317.854C333.145 317.9 332.999 317.966 332.876 318.053C332.757 318.139 332.664 318.244 332.596 318.367C332.532 318.486 332.5 318.618 332.5 318.764C332.5 318.946 332.532 319.099 332.596 319.222C332.664 319.345 332.762 319.454 332.89 319.55C333.017 319.646 333.172 319.732 333.354 319.81C333.537 319.887 333.744 319.971 333.977 320.062C334.286 320.181 334.564 320.304 334.811 320.432C335.057 320.555 335.266 320.696 335.439 320.855C335.613 321.01 335.745 321.19 335.836 321.396C335.932 321.601 335.979 321.844 335.979 322.127C335.979 322.473 335.902 322.774 335.747 323.029C335.597 323.285 335.394 323.496 335.139 323.665C334.883 323.834 334.59 323.959 334.257 324.041C333.924 324.123 333.576 324.164 333.211 324.164C332.491 324.164 331.867 324.025 331.338 323.747ZM343.369 324H342.248V322.893H342.221C341.756 323.74 341.036 324.164 340.061 324.164C338.393 324.164 337.559 323.171 337.559 321.184V317H338.673V321.006C338.673 322.482 339.238 323.221 340.368 323.221C340.915 323.221 341.364 323.02 341.715 322.619C342.07 322.214 342.248 321.685 342.248 321.033V317H343.369V324ZM346.787 322.988H346.76V327.22H345.639V317H346.76V318.23H346.787C347.339 317.301 348.145 316.836 349.207 316.836C350.109 316.836 350.813 317.15 351.319 317.779C351.825 318.404 352.078 319.242 352.078 320.295C352.078 321.466 351.793 322.405 351.224 323.111C350.654 323.813 349.875 324.164 348.886 324.164C347.979 324.164 347.279 323.772 346.787 322.988ZM346.76 320.165V321.143C346.76 321.721 346.947 322.214 347.32 322.619C347.699 323.02 348.177 323.221 348.756 323.221C349.435 323.221 349.966 322.961 350.349 322.441C350.736 321.922 350.93 321.2 350.93 320.274C350.93 319.495 350.75 318.884 350.39 318.442C350.03 318 349.542 317.779 348.927 317.779C348.275 317.779 347.751 318.007 347.354 318.463C346.958 318.914 346.76 319.481 346.76 320.165ZM355.018 322.988H354.99V327.22H353.869V317H354.99V318.23H355.018C355.569 317.301 356.376 316.836 357.438 316.836C358.34 316.836 359.044 317.15 359.55 317.779C360.056 318.404 360.309 319.242 360.309 320.295C360.309 321.466 360.024 322.405 359.454 323.111C358.884 323.813 358.105 324.164 357.116 324.164C356.209 324.164 355.51 323.772 355.018 322.988ZM354.99 320.165V321.143C354.99 321.721 355.177 322.214 355.551 322.619C355.929 323.02 356.408 323.221 356.986 323.221C357.665 323.221 358.196 322.961 358.579 322.441C358.966 321.922 359.16 321.2 359.16 320.274C359.16 319.495 358.98 318.884 358.62 318.442C358.26 318 357.772 317.779 357.157 317.779C356.506 317.779 355.981 318.007 355.585 318.463C355.188 318.914 354.99 319.481 354.99 320.165ZM365.025 324.164C363.991 324.164 363.164 323.838 362.544 323.187C361.929 322.53 361.621 321.662 361.621 320.582C361.621 319.406 361.942 318.488 362.585 317.827C363.228 317.166 364.096 316.836 365.189 316.836C366.233 316.836 367.047 317.157 367.63 317.8C368.218 318.442 368.512 319.333 368.512 320.473C368.512 321.589 368.195 322.485 367.562 323.159C366.933 323.829 366.087 324.164 365.025 324.164ZM365.107 317.779C364.387 317.779 363.818 318.025 363.398 318.518C362.979 319.005 362.77 319.68 362.77 320.541C362.77 321.37 362.981 322.024 363.405 322.503C363.829 322.981 364.396 323.221 365.107 323.221C365.832 323.221 366.388 322.986 366.775 322.517C367.167 322.047 367.363 321.38 367.363 320.514C367.363 319.639 367.167 318.964 366.775 318.49C366.388 318.016 365.832 317.779 365.107 317.779ZM373.953 318.135C373.757 317.984 373.475 317.909 373.105 317.909C372.627 317.909 372.226 318.135 371.902 318.586C371.583 319.037 371.424 319.652 371.424 320.432V324H370.303V317H371.424V318.442H371.451C371.611 317.95 371.854 317.567 372.183 317.294C372.511 317.016 372.878 316.877 373.283 316.877C373.575 316.877 373.798 316.909 373.953 316.973V318.135ZM378.417 323.932C378.153 324.077 377.804 324.15 377.371 324.15C376.145 324.15 375.532 323.467 375.532 322.1V317.957H374.329V317H375.532V315.291L376.653 314.929V317H378.417V317.957H376.653V321.901C376.653 322.371 376.733 322.706 376.893 322.906C377.052 323.107 377.316 323.207 377.686 323.207C377.968 323.207 378.212 323.13 378.417 322.975V323.932ZM380.939 322.441L379.846 325.805H379.046L379.846 322.441H380.939ZM391.802 324H390.681V322.906H390.653C390.166 323.745 389.448 324.164 388.5 324.164C387.803 324.164 387.256 323.979 386.859 323.61C386.467 323.241 386.271 322.751 386.271 322.141C386.271 320.833 387.042 320.072 388.582 319.857L390.681 319.563C390.681 318.374 390.2 317.779 389.238 317.779C388.395 317.779 387.634 318.066 386.955 318.641V317.492C387.643 317.055 388.436 316.836 389.334 316.836C390.979 316.836 391.802 317.706 391.802 319.447V324ZM390.681 320.459L388.992 320.691C388.473 320.764 388.081 320.894 387.816 321.081C387.552 321.263 387.42 321.589 387.42 322.059C387.42 322.4 387.541 322.681 387.782 322.899C388.028 323.114 388.354 323.221 388.76 323.221C389.316 323.221 389.774 323.027 390.134 322.64C390.498 322.248 390.681 321.753 390.681 321.156V320.459ZM399.725 324H398.604V320.008C398.604 318.522 398.061 317.779 396.977 317.779C396.416 317.779 395.951 317.991 395.582 318.415C395.217 318.834 395.035 319.365 395.035 320.008V324H393.914V317H395.035V318.162H395.062C395.591 317.278 396.357 316.836 397.359 316.836C398.125 316.836 398.711 317.084 399.116 317.581C399.522 318.073 399.725 318.786 399.725 319.721V324ZM407.818 324H406.697V322.811H406.67C406.15 323.713 405.348 324.164 404.264 324.164C403.384 324.164 402.68 323.852 402.151 323.228C401.627 322.599 401.365 321.744 401.365 320.664C401.365 319.507 401.657 318.579 402.24 317.882C402.824 317.185 403.601 316.836 404.571 316.836C405.533 316.836 406.232 317.214 406.67 317.971H406.697V313.637H407.818V324ZM406.697 320.835V319.803C406.697 319.238 406.51 318.759 406.137 318.367C405.763 317.975 405.289 317.779 404.715 317.779C404.031 317.779 403.493 318.03 403.102 318.531C402.71 319.033 402.514 319.725 402.514 320.609C402.514 321.416 402.701 322.054 403.074 322.523C403.452 322.988 403.958 323.221 404.592 323.221C405.216 323.221 405.722 322.995 406.109 322.544C406.501 322.093 406.697 321.523 406.697 320.835ZM291.074 343H289.953V338.98C289.953 338.206 289.832 337.645 289.591 337.299C289.354 336.952 288.953 336.779 288.388 336.779C287.909 336.779 287.501 336.998 287.164 337.436C286.831 337.873 286.665 338.397 286.665 339.008V343H285.544V338.844C285.544 337.467 285.013 336.779 283.951 336.779C283.459 336.779 283.053 336.987 282.734 337.401C282.415 337.812 282.256 338.347 282.256 339.008V343H281.135V336H282.256V337.107H282.283C282.78 336.26 283.505 335.836 284.457 335.836C284.936 335.836 285.353 335.97 285.708 336.239C286.063 336.504 286.307 336.852 286.439 337.285C286.959 336.319 287.734 335.836 288.764 335.836C290.304 335.836 291.074 336.786 291.074 338.687V343ZM296.119 343.164C295.085 343.164 294.257 342.838 293.638 342.187C293.022 341.53 292.715 340.662 292.715 339.582C292.715 338.406 293.036 337.488 293.679 336.827C294.321 336.166 295.189 335.836 296.283 335.836C297.327 335.836 298.14 336.157 298.724 336.8C299.312 337.442 299.605 338.333 299.605 339.473C299.605 340.589 299.289 341.485 298.655 342.159C298.026 342.829 297.181 343.164 296.119 343.164ZM296.201 336.779C295.481 336.779 294.911 337.025 294.492 337.518C294.073 338.005 293.863 338.68 293.863 339.541C293.863 340.37 294.075 341.024 294.499 341.503C294.923 341.981 295.49 342.221 296.201 342.221C296.926 342.221 297.482 341.986 297.869 341.517C298.261 341.047 298.457 340.38 298.457 339.514C298.457 338.639 298.261 337.964 297.869 337.49C297.482 337.016 296.926 336.779 296.201 336.779ZM307.207 343H306.086V339.008C306.086 337.522 305.544 336.779 304.459 336.779C303.898 336.779 303.434 336.991 303.064 337.415C302.7 337.834 302.518 338.365 302.518 339.008V343H301.396V336H302.518V337.162H302.545C303.074 336.278 303.839 335.836 304.842 335.836C305.607 335.836 306.193 336.084 306.599 336.581C307.004 337.073 307.207 337.786 307.207 338.721V343ZM309.9 334.223C309.7 334.223 309.529 334.154 309.388 334.018C309.246 333.881 309.176 333.708 309.176 333.498C309.176 333.288 309.246 333.115 309.388 332.979C309.529 332.837 309.7 332.767 309.9 332.767C310.105 332.767 310.279 332.837 310.42 332.979C310.566 333.115 310.639 333.288 310.639 333.498C310.639 333.699 310.566 333.869 310.42 334.011C310.279 334.152 310.105 334.223 309.9 334.223ZM310.447 343H309.326V336H310.447V343ZM315.964 342.932C315.7 343.077 315.351 343.15 314.918 343.15C313.692 343.15 313.079 342.467 313.079 341.1V336.957H311.876V336H313.079V334.291L314.2 333.929V336H315.964V336.957H314.2V340.901C314.2 341.371 314.28 341.706 314.439 341.906C314.599 342.107 314.863 342.207 315.232 342.207C315.515 342.207 315.759 342.13 315.964 341.975V342.932ZM320.387 343.164C319.352 343.164 318.525 342.838 317.905 342.187C317.29 341.53 316.982 340.662 316.982 339.582C316.982 338.406 317.304 337.488 317.946 336.827C318.589 336.166 319.457 335.836 320.551 335.836C321.594 335.836 322.408 336.157 322.991 336.8C323.579 337.442 323.873 338.333 323.873 339.473C323.873 340.589 323.556 341.485 322.923 342.159C322.294 342.829 321.449 343.164 320.387 343.164ZM320.469 336.779C319.749 336.779 319.179 337.025 318.76 337.518C318.34 338.005 318.131 338.68 318.131 339.541C318.131 340.37 318.343 341.024 318.767 341.503C319.19 341.981 319.758 342.221 320.469 342.221C321.193 342.221 321.749 341.986 322.137 341.517C322.529 341.047 322.725 340.38 322.725 339.514C322.725 338.639 322.529 337.964 322.137 337.49C321.749 337.016 321.193 336.779 320.469 336.779ZM329.314 337.135C329.118 336.984 328.836 336.909 328.467 336.909C327.988 336.909 327.587 337.135 327.264 337.586C326.945 338.037 326.785 338.652 326.785 339.432V343H325.664V336H326.785V337.442H326.812C326.972 336.95 327.216 336.567 327.544 336.294C327.872 336.016 328.239 335.877 328.645 335.877C328.936 335.877 329.16 335.909 329.314 335.973V337.135Z" fill="url(#paint25_linear_34_14932)"/>
<path d="M287.957 289.59C287.232 289.973 286.33 290.164 285.25 290.164C283.855 290.164 282.739 289.715 281.9 288.817C281.062 287.92 280.643 286.742 280.643 285.283C280.643 283.715 281.114 282.449 282.058 281.482C283.001 280.516 284.197 280.033 285.646 280.033C286.576 280.033 287.346 280.168 287.957 280.437V281.66C287.255 281.268 286.48 281.072 285.633 281.072C284.507 281.072 283.593 281.448 282.892 282.2C282.194 282.952 281.846 283.957 281.846 285.215C281.846 286.409 282.172 287.361 282.823 288.072C283.479 288.779 284.339 289.132 285.4 289.132C286.385 289.132 287.237 288.913 287.957 288.476V289.59ZM293.453 284.135C293.257 283.984 292.975 283.909 292.605 283.909C292.127 283.909 291.726 284.135 291.402 284.586C291.083 285.037 290.924 285.652 290.924 286.432V290H289.803V283H290.924V284.442H290.951C291.111 283.95 291.354 283.567 291.683 283.294C292.011 283.016 292.378 282.877 292.783 282.877C293.075 282.877 293.298 282.909 293.453 282.973V284.135ZM300.296 286.78H295.354C295.372 287.56 295.581 288.161 295.982 288.585C296.383 289.009 296.935 289.221 297.637 289.221C298.425 289.221 299.15 288.961 299.811 288.441V289.494C299.195 289.941 298.382 290.164 297.37 290.164C296.381 290.164 295.604 289.847 295.039 289.214C294.474 288.576 294.191 287.68 294.191 286.527C294.191 285.438 294.499 284.552 295.114 283.868C295.734 283.18 296.502 282.836 297.418 282.836C298.334 282.836 299.043 283.132 299.544 283.725C300.045 284.317 300.296 285.14 300.296 286.192V286.78ZM299.147 285.83C299.143 285.183 298.986 284.679 298.676 284.319C298.37 283.959 297.944 283.779 297.397 283.779C296.869 283.779 296.42 283.968 296.051 284.347C295.682 284.725 295.454 285.219 295.367 285.83H299.147ZM307.009 290H305.888V288.906H305.86C305.373 289.745 304.655 290.164 303.707 290.164C303.01 290.164 302.463 289.979 302.066 289.61C301.674 289.241 301.479 288.751 301.479 288.141C301.479 286.833 302.249 286.072 303.789 285.857L305.888 285.563C305.888 284.374 305.407 283.779 304.445 283.779C303.602 283.779 302.841 284.066 302.162 284.641V283.492C302.85 283.055 303.643 282.836 304.541 282.836C306.186 282.836 307.009 283.706 307.009 285.447V290ZM305.888 286.459L304.199 286.691C303.68 286.764 303.288 286.894 303.023 287.081C302.759 287.263 302.627 287.589 302.627 288.059C302.627 288.4 302.748 288.681 302.989 288.899C303.235 289.114 303.561 289.221 303.967 289.221C304.523 289.221 304.981 289.027 305.341 288.64C305.705 288.248 305.888 287.753 305.888 287.156V286.459ZM312.368 289.932C312.104 290.077 311.755 290.15 311.322 290.15C310.096 290.15 309.483 289.467 309.483 288.1V283.957H308.28V283H309.483V281.291L310.604 280.929V283H312.368V283.957H310.604V287.901C310.604 288.371 310.684 288.706 310.844 288.906C311.003 289.107 311.268 289.207 311.637 289.207C311.919 289.207 312.163 289.13 312.368 288.975V289.932ZM319.491 286.78H314.549C314.567 287.56 314.777 288.161 315.178 288.585C315.579 289.009 316.13 289.221 316.832 289.221C317.62 289.221 318.345 288.961 319.006 288.441V289.494C318.391 289.941 317.577 290.164 316.565 290.164C315.576 290.164 314.799 289.847 314.234 289.214C313.669 288.576 313.387 287.68 313.387 286.527C313.387 285.438 313.694 284.552 314.31 283.868C314.929 283.18 315.697 282.836 316.613 282.836C317.529 282.836 318.238 283.132 318.739 283.725C319.241 284.317 319.491 285.14 319.491 286.192V286.78ZM318.343 285.83C318.338 285.183 318.181 284.679 317.871 284.319C317.566 283.959 317.14 283.779 316.593 283.779C316.064 283.779 315.615 283.968 315.246 284.347C314.877 284.725 314.649 285.219 314.562 285.83H318.343ZM330.046 290H328.925V288.906H328.897C328.41 289.745 327.692 290.164 326.744 290.164C326.047 290.164 325.5 289.979 325.104 289.61C324.712 289.241 324.516 288.751 324.516 288.141C324.516 286.833 325.286 286.072 326.826 285.857L328.925 285.563C328.925 284.374 328.444 283.779 327.482 283.779C326.639 283.779 325.878 284.066 325.199 284.641V283.492C325.887 283.055 326.68 282.836 327.578 282.836C329.223 282.836 330.046 283.706 330.046 285.447V290ZM328.925 286.459L327.236 286.691C326.717 286.764 326.325 286.894 326.061 287.081C325.796 287.263 325.664 287.589 325.664 288.059C325.664 288.4 325.785 288.681 326.026 288.899C326.272 289.114 326.598 289.221 327.004 289.221C327.56 289.221 328.018 289.027 328.378 288.64C328.743 288.248 328.925 287.753 328.925 287.156V286.459ZM337.969 290H336.848V286.008C336.848 284.522 336.305 283.779 335.221 283.779C334.66 283.779 334.195 283.991 333.826 284.415C333.462 284.834 333.279 285.365 333.279 286.008V290H332.158V283H333.279V284.162H333.307C333.835 283.278 334.601 282.836 335.604 282.836C336.369 282.836 336.955 283.084 337.36 283.581C337.766 284.073 337.969 284.786 337.969 285.721V290ZM346.062 290H344.941V288.811H344.914C344.395 289.713 343.592 290.164 342.508 290.164C341.628 290.164 340.924 289.852 340.396 289.228C339.871 288.599 339.609 287.744 339.609 286.664C339.609 285.507 339.901 284.579 340.484 283.882C341.068 283.185 341.845 282.836 342.815 282.836C343.777 282.836 344.477 283.214 344.914 283.971H344.941V279.637H346.062V290ZM344.941 286.835V285.803C344.941 285.238 344.755 284.759 344.381 284.367C344.007 283.975 343.533 283.779 342.959 283.779C342.275 283.779 341.738 284.03 341.346 284.531C340.954 285.033 340.758 285.725 340.758 286.609C340.758 287.416 340.945 288.054 341.318 288.523C341.697 288.988 342.202 289.221 342.836 289.221C343.46 289.221 343.966 288.995 344.354 288.544C344.745 288.093 344.941 287.523 344.941 286.835ZM355.421 289.932C355.157 290.077 354.808 290.15 354.375 290.15C353.149 290.15 352.536 289.467 352.536 288.1V283.957H351.333V283H352.536V281.291L353.657 280.929V283H355.421V283.957H353.657V287.901C353.657 288.371 353.737 288.706 353.896 288.906C354.056 289.107 354.32 289.207 354.689 289.207C354.972 289.207 355.216 289.13 355.421 288.975V289.932ZM362.544 286.78H357.602C357.62 287.56 357.829 288.161 358.23 288.585C358.632 289.009 359.183 289.221 359.885 289.221C360.673 289.221 361.398 288.961 362.059 288.441V289.494C361.443 289.941 360.63 290.164 359.618 290.164C358.629 290.164 357.852 289.847 357.287 289.214C356.722 288.576 356.439 287.68 356.439 286.527C356.439 285.438 356.747 284.552 357.362 283.868C357.982 283.18 358.75 282.836 359.666 282.836C360.582 282.836 361.291 283.132 361.792 283.725C362.293 284.317 362.544 285.14 362.544 286.192V286.78ZM361.396 285.83C361.391 285.183 361.234 284.679 360.924 284.319C360.618 283.959 360.192 283.779 359.646 283.779C359.117 283.779 358.668 283.968 358.299 284.347C357.93 284.725 357.702 285.219 357.615 285.83H361.396ZM363.822 289.747V288.544C364.433 288.995 365.105 289.221 365.839 289.221C366.823 289.221 367.315 288.893 367.315 288.236C367.315 288.049 367.272 287.892 367.186 287.765C367.104 287.632 366.99 287.516 366.844 287.416C366.702 287.316 366.534 287.227 366.338 287.149C366.146 287.067 365.939 286.983 365.716 286.896C365.406 286.773 365.132 286.65 364.896 286.527C364.663 286.4 364.467 286.258 364.308 286.104C364.153 285.944 364.034 285.764 363.952 285.563C363.875 285.363 363.836 285.128 363.836 284.859C363.836 284.531 363.911 284.242 364.062 283.991C364.212 283.736 364.412 283.524 364.663 283.355C364.914 283.182 365.199 283.052 365.518 282.966C365.841 282.879 366.174 282.836 366.516 282.836C367.122 282.836 367.664 282.941 368.143 283.15V284.285C367.628 283.948 367.035 283.779 366.365 283.779C366.156 283.779 365.966 283.804 365.798 283.854C365.629 283.9 365.483 283.966 365.36 284.053C365.242 284.139 365.148 284.244 365.08 284.367C365.016 284.486 364.984 284.618 364.984 284.764C364.984 284.946 365.016 285.099 365.08 285.222C365.148 285.345 365.246 285.454 365.374 285.55C365.502 285.646 365.657 285.732 365.839 285.81C366.021 285.887 366.229 285.971 366.461 286.062C366.771 286.181 367.049 286.304 367.295 286.432C367.541 286.555 367.751 286.696 367.924 286.855C368.097 287.01 368.229 287.19 368.32 287.396C368.416 287.601 368.464 287.844 368.464 288.127C368.464 288.473 368.386 288.774 368.231 289.029C368.081 289.285 367.878 289.496 367.623 289.665C367.368 289.834 367.074 289.959 366.741 290.041C366.409 290.123 366.06 290.164 365.695 290.164C364.975 290.164 364.351 290.025 363.822 289.747ZM373.44 289.932C373.176 290.077 372.827 290.15 372.395 290.15C371.169 290.15 370.556 289.467 370.556 288.1V283.957H369.353V283H370.556V281.291L371.677 280.929V283H373.44V283.957H371.677V287.901C371.677 288.371 371.757 288.706 371.916 288.906C372.076 289.107 372.34 289.207 372.709 289.207C372.992 289.207 373.235 289.13 373.44 288.975V289.932ZM383.551 289.679C383.013 290.002 382.375 290.164 381.637 290.164C380.639 290.164 379.832 289.84 379.217 289.193C378.606 288.542 378.301 287.699 378.301 286.664C378.301 285.511 378.631 284.586 379.292 283.889C379.953 283.187 380.835 282.836 381.938 282.836C382.553 282.836 383.095 282.95 383.564 283.178V284.326C383.045 283.962 382.489 283.779 381.896 283.779C381.181 283.779 380.593 284.037 380.133 284.552C379.677 285.062 379.449 285.734 379.449 286.568C379.449 287.389 379.663 288.036 380.092 288.51C380.525 288.984 381.104 289.221 381.828 289.221C382.439 289.221 383.013 289.018 383.551 288.612V289.679ZM388.172 290.164C387.137 290.164 386.31 289.838 385.69 289.187C385.075 288.53 384.768 287.662 384.768 286.582C384.768 285.406 385.089 284.488 385.731 283.827C386.374 283.166 387.242 282.836 388.336 282.836C389.38 282.836 390.193 283.157 390.776 283.8C391.364 284.442 391.658 285.333 391.658 286.473C391.658 287.589 391.341 288.485 390.708 289.159C390.079 289.829 389.234 290.164 388.172 290.164ZM388.254 283.779C387.534 283.779 386.964 284.025 386.545 284.518C386.126 285.005 385.916 285.68 385.916 286.541C385.916 287.37 386.128 288.024 386.552 288.503C386.976 288.981 387.543 289.221 388.254 289.221C388.979 289.221 389.535 288.986 389.922 288.517C390.314 288.047 390.51 287.38 390.51 286.514C390.51 285.639 390.314 284.964 389.922 284.49C389.535 284.016 388.979 283.779 388.254 283.779ZM399.26 290H398.139V286.008C398.139 284.522 397.596 283.779 396.512 283.779C395.951 283.779 395.486 283.991 395.117 284.415C394.753 284.834 394.57 285.365 394.57 286.008V290H393.449V283H394.57V284.162H394.598C395.126 283.278 395.892 282.836 396.895 282.836C397.66 282.836 398.246 283.084 398.651 283.581C399.057 284.073 399.26 284.786 399.26 285.721V290ZM404.626 289.932C404.362 290.077 404.013 290.15 403.58 290.15C402.354 290.15 401.741 289.467 401.741 288.1V283.957H400.538V283H401.741V281.291L402.862 280.929V283H404.626V283.957H402.862V287.901C402.862 288.371 402.942 288.706 403.102 288.906C403.261 289.107 403.525 289.207 403.895 289.207C404.177 289.207 404.421 289.13 404.626 288.975V289.932ZM411.749 286.78H406.807C406.825 287.56 407.035 288.161 407.436 288.585C407.837 289.009 408.388 289.221 409.09 289.221C409.878 289.221 410.603 288.961 411.264 288.441V289.494C410.648 289.941 409.835 290.164 408.823 290.164C407.834 290.164 407.057 289.847 406.492 289.214C405.927 288.576 405.645 287.68 405.645 286.527C405.645 285.438 405.952 284.552 406.567 283.868C407.187 283.18 407.955 282.836 408.871 282.836C409.787 282.836 410.496 283.132 410.997 283.725C411.498 284.317 411.749 285.14 411.749 286.192V286.78ZM410.601 285.83C410.596 285.183 410.439 284.679 410.129 284.319C409.824 283.959 409.397 283.779 408.851 283.779C408.322 283.779 407.873 283.968 407.504 284.347C407.135 284.725 406.907 285.219 406.82 285.83H410.601ZM419.262 290H418.141V286.008C418.141 284.522 417.598 283.779 416.514 283.779C415.953 283.779 415.488 283.991 415.119 284.415C414.755 284.834 414.572 285.365 414.572 286.008V290H413.451V283H414.572V284.162H414.6C415.128 283.278 415.894 282.836 416.896 282.836C417.662 282.836 418.248 283.084 418.653 283.581C419.059 284.073 419.262 284.786 419.262 285.721V290ZM424.628 289.932C424.364 290.077 424.015 290.15 423.582 290.15C422.356 290.15 421.743 289.467 421.743 288.1V283.957H420.54V283H421.743V281.291L422.864 280.929V283H424.628V283.957H422.864V287.901C422.864 288.371 422.944 288.706 423.104 288.906C423.263 289.107 423.527 289.207 423.896 289.207C424.179 289.207 424.423 289.13 424.628 288.975V289.932Z" fill="url(#paint26_linear_34_14932)"/>
<path d="M243 275.5C243 273.567 244.567 272 246.5 272H265.5C267.433 272 269 273.567 269 275.5V294.5C269 296.433 267.433 298 265.5 298H246.5C244.567 298 243 296.433 243 294.5V275.5Z" fill="url(#paint27_linear_34_14932)"/>
<path d="M243 275.5C243 273.567 244.567 272 246.5 272H265.5C267.433 272 269 273.567 269 275.5V294.5C269 296.433 267.433 298 265.5 298H246.5C244.567 298 243 296.433 243 294.5V275.5Z" fill="url(#paint28_radial_34_14932)" fill-opacity="0.2"/>
<path fill-rule="evenodd" clip-rule="evenodd" d="M265.5 273H246.5C245.119 273 244 274.119 244 275.5V294.5C244 295.881 245.119 297 246.5 297H265.5C266.881 297 268 295.881 268 294.5V275.5C268 274.119 266.881 273 265.5 273ZM246.5 272C244.567 272 243 273.567 243 275.5V294.5C243 296.433 244.567 298 246.5 298H265.5C267.433 298 269 296.433 269 294.5V275.5C269 273.567 267.433 272 265.5 272H246.5Z" fill="url(#paint29_linear_34_14932)"/>
<path d="M261.625 286.125H260.5V292.312C260.5 292.547 260.456 292.767 260.368 292.972C260.28 293.177 260.16 293.355 260.008 293.508C259.855 293.66 259.677 293.78 259.472 293.868C259.267 293.956 259.047 294 258.812 294C258.578 294 258.358 293.956 258.153 293.868C257.948 293.78 257.77 293.66 257.617 293.508C257.465 293.355 257.345 293.177 257.257 292.972C257.169 292.767 257.125 292.547 257.125 292.312V286.125H256V285H258.25V280.175L257.125 279.05V276H260.5V279.05L259.375 280.175V285H261.625V286.125ZM258.25 278.575L258.812 279.146L259.375 278.575V277.125H258.25V278.575ZM259.375 286.125H258.25V292.312C258.25 292.465 258.306 292.597 258.417 292.708C258.528 292.819 258.66 292.875 258.812 292.875C258.965 292.875 259.097 292.819 259.208 292.708C259.319 292.597 259.375 292.465 259.375 292.312V286.125ZM253.188 276C253.574 276 253.938 276.073 254.277 276.22C254.617 276.366 254.913 276.568 255.165 276.826C255.417 277.084 255.619 277.383 255.771 277.723C255.924 278.062 256 278.426 256 278.812C256 279.252 255.9 279.668 255.701 280.061C255.502 280.453 255.227 280.784 254.875 281.054V292.312C254.875 292.547 254.831 292.767 254.743 292.972C254.655 293.177 254.535 293.355 254.383 293.508C254.23 293.66 254.052 293.78 253.847 293.868C253.642 293.956 253.422 294 253.188 294C252.953 294 252.733 293.956 252.528 293.868C252.323 293.78 252.145 293.66 251.992 293.508C251.84 293.355 251.72 293.177 251.632 292.972C251.544 292.767 251.5 292.547 251.5 292.312V281.054C251.148 280.79 250.873 280.462 250.674 280.069C250.475 279.677 250.375 279.258 250.375 278.812C250.375 278.426 250.448 278.062 250.595 277.723C250.741 277.383 250.94 277.087 251.192 276.835C251.444 276.583 251.743 276.381 252.089 276.229C252.435 276.076 252.801 276 253.188 276ZM253.75 280.43C253.914 280.336 254.063 280.236 254.198 280.131C254.333 280.025 254.453 279.911 254.559 279.788C254.664 279.665 254.74 279.521 254.787 279.357C254.834 279.193 254.863 279.012 254.875 278.812C254.875 278.637 254.849 278.467 254.796 278.303C254.743 278.139 254.667 277.986 254.567 277.846C254.468 277.705 254.348 277.582 254.207 277.477C254.066 277.371 253.914 277.289 253.75 277.23V278.812L253.188 279.375L252.625 278.812V277.23C252.455 277.289 252.303 277.371 252.168 277.477C252.033 277.582 251.916 277.705 251.816 277.846C251.717 277.986 251.641 278.139 251.588 278.303C251.535 278.467 251.506 278.637 251.5 278.812C251.5 279.018 251.526 279.199 251.579 279.357C251.632 279.516 251.711 279.656 251.816 279.779C251.922 279.902 252.039 280.02 252.168 280.131C252.297 280.242 252.449 280.342 252.625 280.43V292.312C252.625 292.465 252.681 292.597 252.792 292.708C252.903 292.819 253.035 292.875 253.188 292.875C253.34 292.875 253.472 292.819 253.583 292.708C253.694 292.597 253.75 292.465 253.75 292.312V280.43Z" fill="url(#paint30_linear_34_14932)"/>
<path d="M243 318.5C243 316.567 244.567 315 246.5 315H265.5C267.433 315 269 316.567 269 318.5V337.5C269 339.433 267.433 341 265.5 341H246.5C244.567 341 243 339.433 243 337.5V318.5Z" fill="url(#paint31_linear_34_14932)"/>
<path d="M243 318.5C243 316.567 244.567 315 246.5 315H265.5C267.433 315 269 316.567 269 318.5V337.5C269 339.433 267.433 341 265.5 341H246.5C244.567 341 243 339.433 243 337.5V318.5Z" fill="url(#paint32_radial_34_14932)" fill-opacity="0.2"/>
<path fill-rule="evenodd" clip-rule="evenodd" d="M265.5 316H246.5C245.119 316 244 317.119 244 318.5V337.5C244 338.881 245.119 340 246.5 340H265.5C266.881 340 268 338.881 268 337.5V318.5C268 317.119 266.881 316 265.5 316ZM246.5 315C244.567 315 243 316.567 243 318.5V337.5C243 339.433 244.567 341 246.5 341H265.5C267.433 341 269 339.433 269 337.5V318.5C269 316.567 267.433 315 265.5 315H246.5Z" fill="url(#paint33_linear_34_14932)"/>
<path d="M256.883 324.192C257.076 323.993 257.306 323.835 257.56 323.726C257.815 323.617 258.088 323.56 258.365 323.558C258.641 323.556 258.916 323.609 259.171 323.714C259.427 323.819 259.66 323.974 259.855 324.17C260.05 324.366 260.205 324.599 260.309 324.855C260.413 325.111 260.466 325.386 260.463 325.662C260.46 325.939 260.402 326.212 260.293 326.466C260.183 326.72 260.024 326.95 259.825 327.142C259.432 327.521 258.905 327.73 258.359 327.724C257.813 327.719 257.29 327.499 256.905 327.112C256.519 326.725 256.3 326.203 256.296 325.656C256.293 325.11 256.503 324.584 256.883 324.192ZM258.942 325.075C258.864 324.998 258.772 324.937 258.671 324.895C258.569 324.854 258.461 324.832 258.351 324.833C258.242 324.833 258.133 324.855 258.032 324.897C257.931 324.94 257.84 325.001 257.763 325.079C257.685 325.157 257.624 325.249 257.583 325.35C257.541 325.452 257.52 325.56 257.52 325.67C257.521 325.779 257.543 325.887 257.585 325.988C257.627 326.089 257.689 326.181 257.767 326.258C257.924 326.414 258.136 326.501 258.357 326.5C258.578 326.5 258.79 326.411 258.946 326.254C259.102 326.097 259.189 325.885 259.188 325.664C259.187 325.443 259.099 325.231 258.942 325.075ZM263.925 321.6C263.814 321.247 263.618 320.926 263.355 320.664C263.093 320.403 262.771 320.209 262.417 320.1L261.867 319.925C259.867 319.3 257.7 319.842 256.217 321.317L255.383 322.15C254.823 321.732 254.131 321.528 253.434 321.577C252.736 321.626 252.08 321.924 251.583 322.417L250.542 323.458C250.3 323.7 250.3 324.092 250.542 324.342L251.875 325.667L251.725 325.817C251.15 326.383 251.15 327.308 251.725 327.875L252.142 328.292L250.975 328.958C250.893 329.006 250.823 329.072 250.771 329.151C250.718 329.23 250.684 329.319 250.671 329.413C250.658 329.507 250.667 329.603 250.696 329.693C250.726 329.783 250.776 329.865 250.842 329.933L254.083 333.183C254.151 333.251 254.234 333.302 254.325 333.333C254.416 333.363 254.513 333.372 254.608 333.359C254.703 333.346 254.794 333.312 254.873 333.258C254.953 333.205 255.019 333.133 255.067 333.05L255.733 331.883L256.15 332.3C256.717 332.867 257.633 332.867 258.208 332.3L258.35 332.15L259.683 333.483C259.925 333.717 260.317 333.717 260.558 333.483L261.6 332.442C262.095 331.945 262.394 331.287 262.443 330.587C262.492 329.888 262.287 329.194 261.867 328.633L262.7 327.8C263.423 327.077 263.936 326.17 264.183 325.178C264.429 324.185 264.401 323.144 264.1 322.167L263.925 321.608V321.6ZM262.042 321.283C262.375 321.392 262.625 321.642 262.733 321.975L262.9 322.525C263.383 324.075 262.967 325.775 261.817 326.917L257.317 331.417C257.233 331.5 257.108 331.5 257.025 331.417L252.608 327C252.588 326.981 252.572 326.957 252.561 326.931C252.55 326.906 252.545 326.878 252.545 326.85C252.545 326.822 252.55 326.794 252.561 326.768C252.572 326.743 252.588 326.719 252.608 326.7L257.108 322.2C257.671 321.638 258.377 321.24 259.149 321.049C259.922 320.858 260.732 320.882 261.492 321.117L262.042 321.283ZM260.967 329.533C261.155 329.851 261.233 330.222 261.188 330.589C261.143 330.955 260.977 331.296 260.717 331.558L260.117 332.15L259.233 331.267L260.967 329.533ZM252.467 323.3C252.729 323.04 253.07 322.874 253.436 322.829C253.803 322.784 254.174 322.861 254.492 323.05L252.75 324.783L251.875 323.9L252.458 323.3H252.467ZM254.817 330.967L254.383 331.717L252.3 329.633L253.05 329.208L254.817 330.967ZM251.575 333.333C251.685 333.215 251.746 333.058 251.743 332.896C251.74 332.734 251.674 332.58 251.56 332.465C251.445 332.351 251.291 332.285 251.129 332.282C250.967 332.279 250.81 332.34 250.692 332.45L248.625 334.517C248.515 334.635 248.455 334.792 248.457 334.954C248.46 335.116 248.526 335.27 248.64 335.385C248.755 335.499 248.909 335.565 249.071 335.568C249.233 335.57 249.39 335.51 249.508 335.4L251.575 333.333ZM249.958 330.833C250.2 331.083 250.2 331.475 249.958 331.717L249.067 332.6C248.948 332.71 248.792 332.77 248.63 332.768C248.468 332.765 248.313 332.699 248.199 332.585C248.084 332.47 248.019 332.316 248.016 332.154C248.013 331.992 248.073 331.835 248.183 331.717L249.067 330.833C249.317 330.583 249.708 330.583 249.958 330.833ZM253.192 334.958C253.253 334.901 253.302 334.832 253.337 334.755C253.371 334.679 253.389 334.596 253.391 334.512C253.392 334.428 253.377 334.345 253.345 334.267C253.314 334.189 253.267 334.118 253.208 334.059C253.148 334 253.078 333.953 253 333.922C252.922 333.89 252.839 333.875 252.755 333.876C252.671 333.878 252.588 333.896 252.511 333.93C252.435 333.964 252.366 334.014 252.308 334.075L251.425 334.958C251.315 335.077 251.255 335.233 251.257 335.395C251.26 335.557 251.326 335.712 251.44 335.826C251.555 335.941 251.709 336.006 251.871 336.009C252.033 336.012 252.19 335.952 252.308 335.842L253.192 334.958Z" fill="url(#paint34_linear_34_14932)"/>
<path d="M235.75 329.989C235.756 330.404 235.425 330.744 235.011 330.75L228.261 330.845C227.847 330.851 227.507 330.52 227.501 330.106C227.495 329.691 227.826 329.351 228.24 329.345L234.24 329.261L234.155 323.261C234.149 322.847 234.48 322.507 234.894 322.501C235.309 322.495 235.649 322.826 235.655 323.24L235.75 329.989ZM234.457 287.483C234.743 287.183 235.217 287.171 235.517 287.457C235.817 287.743 235.829 288.217 235.543 288.517L234.457 287.483ZM234.477 330.538C222.163 318.566 222.192 300.361 234.457 287.483L235.543 288.517C223.808 300.839 223.837 318.101 235.523 329.462L234.477 330.538Z" fill="#616161"/>
<path d="M235.749 283.971C235.765 284.385 235.443 284.734 235.029 284.749L228.284 285.009C227.87 285.025 227.521 284.702 227.506 284.288C227.49 283.874 227.812 283.526 228.226 283.51L234.222 283.279L233.991 277.284C233.975 276.87 234.298 276.521 234.712 276.506C235.126 276.49 235.474 276.812 235.49 277.226L235.749 283.971ZM234.47 243.47C234.763 243.177 235.237 243.177 235.53 243.47C235.823 243.763 235.823 244.237 235.53 244.53L234.47 243.47ZM234.49 284.55C228.346 278.861 225.25 271.665 225.25 264.333C225.25 257.004 228.343 249.596 234.47 243.47L235.53 244.53C229.657 250.404 226.75 257.44 226.75 264.333C226.75 271.224 229.654 278.028 235.51 283.45L234.49 284.55Z" fill="#616161"/>
<path d="M246.32 75.3255L251.501 66.5335L256.682 75.3255H246.32ZM262.644 85.4387H240.358L245.008 77.787H257.994L262.644 85.4387ZM262.674 85.4873C262.674 85.4873 262.674 85.4872 262.674 85.4869L262.674 85.4873ZM234.544 95.4933L239.168 87.8417H263.874L268.417 95.4046L234.544 95.4933Z" fill="white"/>
<path d="M246.32 75.3255L251.501 66.5335L256.682 75.3255H246.32ZM262.644 85.4387H240.358L245.008 77.787H257.994L262.644 85.4387ZM262.674 85.4873C262.674 85.4873 262.674 85.4872 262.674 85.4869L262.674 85.4873ZM234.544 95.4933L239.168 87.8417H263.874L268.417 95.4046L234.544 95.4933Z" fill="url(#paint35_linear_34_14932)" fill-opacity="0.33"/>
<path d="M246.32 75.3255L251.501 66.5335L256.682 75.3255H246.32ZM262.644 85.4387H240.358L245.008 77.787H257.994L262.644 85.4387ZM262.674 85.4873C262.674 85.4873 262.674 85.4872 262.674 85.4869L262.674 85.4873ZM234.544 95.4933L239.168 87.8417H263.874L268.417 95.4046L234.544 95.4933Z" stroke="url(#paint36_linear_34_14932)"/>
<path d="M238.886 87.3417H264.157L268.875 95.1954C269.062 95.5066 268.839 95.9035 268.477 95.9044L234.487 95.9934C234.123 95.9944 233.898 95.5955 234.087 95.2833L238.886 87.3417Z" fill="url(#paint37_linear_34_14932)"/>
<defs>
<filter id="filter0_f_34_14932" x="211" y="45" width="244" height="329" filterUnits="userSpaceOnUse" color-interpolation-filters="sRGB">
<feFlood flood-opacity="0" result="BackgroundImageFix"/>
<feBlend mode="normal" in="SourceGraphic" in2="BackgroundImageFix" result="shape"/>
<feGaussianBlur stdDeviation="2.5" result="effect1_foregroundBlur_34_14932"/>
</filter>
<radialGradient id="paint0_radial_34_14932" cx="0" cy="0" r="1" gradientUnits="userSpaceOnUse" gradientTransform="translate(100.06 45.8789) rotate(27.2192) scale(718.892 461.517)">
<stop offset="0.198869" stop-color="#8EE3E8"/>
<stop offset="1" stop-color="#19177E"/>
</radialGradient>
<linearGradient id="paint1_linear_34_14932" x1="248.933" y1="208.224" x2="350.175" y2="223.538" gradientUnits="userSpaceOnUse">
<stop stop-color="white"/>
<stop offset="1" stop-color="#FAFAFA"/>
</linearGradient>
<linearGradient id="paint2_linear_34_14932" x1="226" y1="262" x2="244.902" y2="349.937" gradientUnits="userSpaceOnUse">
<stop stop-color="#87415A"/>
<stop offset="1" stop-color="#521A32"/>
</linearGradient>
<linearGradient id="paint3_linear_34_14932" x1="280" y1="70" x2="285.387" y2="111.297" gradientUnits="userSpaceOnUse">
<stop stop-color="#87415A"/>
<stop offset="1" stop-color="#521A32"/>
</linearGradient>
<linearGradient id="paint4_linear_34_14932" x1="280" y1="135" x2="292.598" y2="196.416" gradientUnits="userSpaceOnUse">
<stop stop-color="#87415A"/>
<stop offset="1" stop-color="#521A32"/>
</linearGradient>
<linearGradient id="paint5_linear_34_14932" x1="280" y1="225" x2="292.598" y2="286.416" gradientUnits="userSpaceOnUse">
<stop stop-color="#87415A"/>
<stop offset="1" stop-color="#521A32"/>
</linearGradient>
<linearGradient id="paint6_linear_34_14932" x1="280" y1="179" x2="292.598" y2="240.416" gradientUnits="userSpaceOnUse">
<stop stop-color="#87415A"/>
<stop offset="1" stop-color="#521A32"/>
</linearGradient>
<linearGradient id="paint7_linear_34_14932" x1="250.222" y1="139" x2="253.511" y2="165.311" gradientUnits="userSpaceOnUse">
<stop stop-color="white"/>
<stop offset="1" stop-color="#EBEBEB"/>
</linearGradient>
<radialGradient id="paint8_radial_34_14932" cx="0" cy="0" r="1" gradientUnits="userSpaceOnUse" gradientTransform="translate(251.306 145.771) rotate(56.3099) scale(24.7381 21.408)">
<stop offset="0.177083" stop-color="white"/>
<stop offset="1" stop-color="#B8B8B8"/>
</radialGradient>
<linearGradient id="paint9_linear_34_14932" x1="251.396" y1="139" x2="254.897" y2="165.256" gradientUnits="userSpaceOnUse">
<stop stop-color="#BBBBBB"/>
<stop offset="1" stop-color="#888888"/>
</linearGradient>
<linearGradient id="paint10_linear_34_14932" x1="261.112" y1="144.292" x2="263.276" y2="146.471" gradientUnits="userSpaceOnUse">
<stop stop-color="#87415A"/>
<stop offset="1" stop-color="#521A32"/>
</linearGradient>
<linearGradient id="paint11_linear_34_14932" x1="257.875" y1="149.604" x2="264.075" y2="153.059" gradientUnits="userSpaceOnUse">
<stop stop-color="#87415A"/>
<stop offset="1" stop-color="#521A32"/>
</linearGradient>
<linearGradient id="paint12_linear_34_14932" x1="247.458" y1="144.708" x2="262.098" y2="161.616" gradientUnits="userSpaceOnUse">
<stop stop-color="#87415A"/>
<stop offset="1" stop-color="#521A32"/>
</linearGradient>
<linearGradient id="paint13_linear_34_14932" x1="252.562" y1="149.604" x2="258.763" y2="153.059" gradientUnits="userSpaceOnUse">
<stop stop-color="#87415A"/>
<stop offset="1" stop-color="#521A32"/>
</linearGradient>
<linearGradient id="paint14_linear_34_14932" x1="255.062" y1="145.449" x2="262.134" y2="152.522" gradientUnits="userSpaceOnUse">
<stop stop-color="#87415A"/>
<stop offset="1" stop-color="#521A32"/>
</linearGradient>
<linearGradient id="paint15_linear_34_14932" x1="250.222" y1="183" x2="253.511" y2="209.311" gradientUnits="userSpaceOnUse">
<stop stop-color="white"/>
<stop offset="1" stop-color="#EBEBEB"/>
</linearGradient>
<radialGradient id="paint16_radial_34_14932" cx="0" cy="0" r="1" gradientUnits="userSpaceOnUse" gradientTransform="translate(251.306 189.771) rotate(56.3099) scale(24.7381 21.408)">
<stop offset="0.177083" stop-color="white"/>
<stop offset="1" stop-color="#B8B8B8"/>
</radialGradient>
<linearGradient id="paint17_linear_34_14932" x1="251.396" y1="183" x2="254.897" y2="209.256" gradientUnits="userSpaceOnUse">
<stop stop-color="#BBBBBB"/>
<stop offset="1" stop-color="#888888"/>
</linearGradient>
<linearGradient id="paint18_linear_34_14932" x1="249.25" y1="186" x2="266.53" y2="198.96" gradientUnits="userSpaceOnUse">
<stop stop-color="#87415A"/>
<stop offset="1" stop-color="#521A32"/>
</linearGradient>
<linearGradient id="paint19_linear_34_14932" x1="250.222" y1="226" x2="253.511" y2="252.311" gradientUnits="userSpaceOnUse">
<stop stop-color="white"/>
<stop offset="1" stop-color="#EBEBEB"/>
</linearGradient>
<radialGradient id="paint20_radial_34_14932" cx="0" cy="0" r="1" gradientUnits="userSpaceOnUse" gradientTransform="translate(251.306 232.771) rotate(56.3099) scale(24.7381 21.408)">
<stop offset="0.177083" stop-color="white"/>
<stop offset="1" stop-color="#B8B8B8"/>
</radialGradient>
<linearGradient id="paint21_linear_34_14932" x1="251.396" y1="226" x2="254.897" y2="252.256" gradientUnits="userSpaceOnUse">
<stop stop-color="#BBBBBB"/>
<stop offset="1" stop-color="#888888"/>
</linearGradient>
<linearGradient id="paint22_linear_34_14932" x1="247.703" y1="230.562" x2="253.539" y2="237.372" gradientUnits="userSpaceOnUse">
<stop stop-color="#87415A"/>
<stop offset="1" stop-color="#521A32"/>
</linearGradient>
<linearGradient id="paint23_linear_34_14932" x1="257.406" y1="241.531" x2="263.243" y2="248.341" gradientUnits="userSpaceOnUse">
<stop stop-color="#87415A"/>
<stop offset="1" stop-color="#521A32"/>
</linearGradient>
<linearGradient id="paint24_linear_34_14932" x1="247.562" y1="230.562" x2="264.437" y2="247.437" gradientUnits="userSpaceOnUse">
<stop stop-color="#87415A"/>
<stop offset="1" stop-color="#521A32"/>
</linearGradient>
<linearGradient id="paint25_linear_34_14932" x1="280" y1="312" x2="292.598" y2="373.416" gradientUnits="userSpaceOnUse">
<stop stop-color="#87415A"/>
<stop offset="1" stop-color="#521A32"/>
</linearGradient>
<linearGradient id="paint26_linear_34_14932" x1="280" y1="274" x2="285.045" y2="313.353" gradientUnits="userSpaceOnUse">
<stop stop-color="#87415A"/>
<stop offset="1" stop-color="#521A32"/>
</linearGradient>
<linearGradient id="paint27_linear_34_14932" x1="250.222" y1="272" x2="253.511" y2="298.311" gradientUnits="userSpaceOnUse">
<stop stop-color="white"/>
<stop offset="1" stop-color="#EBEBEB"/>
</linearGradient>
<radialGradient id="paint28_radial_34_14932" cx="0" cy="0" r="1" gradientUnits="userSpaceOnUse" gradientTransform="translate(251.306 278.771) rotate(56.3099) scale(24.7381 21.408)">
<stop offset="0.177083" stop-color="white"/>
<stop offset="1" stop-color="#B8B8B8"/>
</radialGradient>
<linearGradient id="paint29_linear_34_14932" x1="251.396" y1="272" x2="254.897" y2="298.256" gradientUnits="userSpaceOnUse">
<stop stop-color="#BBBBBB"/>
<stop offset="1" stop-color="#888888"/>
</linearGradient>
<linearGradient id="paint30_linear_34_14932" x1="250.375" y1="276" x2="266.555" y2="286.112" gradientUnits="userSpaceOnUse">
<stop stop-color="#87415A"/>
<stop offset="1" stop-color="#521A32"/>
</linearGradient>
<linearGradient id="paint31_linear_34_14932" x1="250.222" y1="315" x2="253.511" y2="341.311" gradientUnits="userSpaceOnUse">
<stop stop-color="white"/>
<stop offset="1" stop-color="#EBEBEB"/>
</linearGradient>
<radialGradient id="paint32_radial_34_14932" cx="0" cy="0" r="1" gradientUnits="userSpaceOnUse" gradientTransform="translate(251.306 321.771) rotate(56.3099) scale(24.7381 21.408)">
<stop offset="0.177083" stop-color="white"/>
<stop offset="1" stop-color="#B8B8B8"/>
</radialGradient>
<linearGradient id="paint33_linear_34_14932" x1="251.396" y1="315" x2="254.897" y2="341.256" gradientUnits="userSpaceOnUse">
<stop stop-color="#BBBBBB"/>
<stop offset="1" stop-color="#888888"/>
</linearGradient>
<linearGradient id="paint34_linear_34_14932" x1="248.016" y1="319.669" x2="264.356" y2="336.002" gradientUnits="userSpaceOnUse">
<stop stop-color="#87415A"/>
<stop offset="1" stop-color="#521A32"/>
</linearGradient>
<linearGradient id="paint35_linear_34_14932" x1="238.934" y1="80.8768" x2="253.547" y2="84.3855" gradientUnits="userSpaceOnUse">
<stop stop-color="white"/>
<stop offset="1" stop-color="#FAFAFA"/>
</linearGradient>
<linearGradient id="paint36_linear_34_14932" x1="234.019" y1="66" x2="263.668" y2="100.523" gradientUnits="userSpaceOnUse">
<stop stop-color="#87415A"/>
<stop offset="1" stop-color="#521A32"/>
</linearGradient>
<linearGradient id="paint37_linear_34_14932" x1="234.019" y1="87.3417" x2="238.057" y2="103.645" gradientUnits="userSpaceOnUse">
<stop stop-color="#87415A"/>
<stop offset="1" stop-color="#521A32"/>
</linearGradient>
<clipPath id="clip0_34_14932">
<rect width="18" height="18" fill="white" transform="translate(247 230)"/>
</clipPath>
</defs>
</svg>
