<svg width="884" height="419" viewBox="0 0 884 419" fill="none" xmlns="http://www.w3.org/2000/svg">
<rect width="884" height="419" fill="white"/>
<rect width="884" height="419" fill="url(#paint0_radial_34_14932)" fill-opacity="0.075"/>
<rect x="0.5" y="0.5" width="883" height="418" stroke="#333333" stroke-opacity="0.2"/>
<g filter="url(#filter0_f_34_14932)">
<rect x="325" y="50" width="234" height="319" rx="16" fill="#CCCCCC" fill-opacity="0.8"/>
</g>
<rect x="325" y="50" width="234" height="319" rx="16" fill="white"/>
<rect x="325" y="50" width="234" height="319" rx="16" fill="url(#paint1_linear_34_14932)" fill-opacity="0.33"/>
<rect x="335.5" y="262.5" width="213" height="45" rx="9.5" fill="#F3ECED" stroke="url(#paint2_linear_34_14932)" stroke-dasharray="2 2"/>
<path d="M389.867 86.5547V84.6406C390.039 84.7969 390.242 84.9375 390.477 85.0625C390.716 85.1875 390.969 85.2943 391.234 85.3828C391.5 85.4661 391.766 85.5312 392.031 85.5781C392.297 85.625 392.542 85.6484 392.766 85.6484C393.547 85.6484 394.128 85.5182 394.508 85.2578C394.893 84.9974 395.086 84.6198 395.086 84.125C395.086 83.8594 395.021 83.6302 394.891 83.4375C394.766 83.2396 394.589 83.0599 394.359 82.8984C394.13 82.737 393.859 82.5833 393.547 82.4375C393.24 82.2865 392.909 82.1302 392.555 81.9688C392.174 81.7656 391.82 81.5599 391.492 81.3516C391.164 81.1432 390.878 80.9141 390.633 80.6641C390.393 80.4089 390.203 80.1224 390.062 79.8047C389.927 79.487 389.859 79.1146 389.859 78.6875C389.859 78.1615 389.977 77.7057 390.211 77.3203C390.451 76.9297 390.763 76.6094 391.148 76.3594C391.539 76.1042 391.982 75.9167 392.477 75.7969C392.971 75.6719 393.477 75.6094 393.992 75.6094C395.164 75.6094 396.018 75.7422 396.555 76.0078V77.8438C395.919 77.3854 395.102 77.1562 394.102 77.1562C393.826 77.1562 393.549 77.1823 393.273 77.2344C393.003 77.2865 392.758 77.3724 392.539 77.4922C392.326 77.612 392.151 77.7656 392.016 77.9531C391.88 78.1406 391.812 78.3672 391.812 78.6328C391.812 78.8828 391.865 79.099 391.969 79.2812C392.073 79.4635 392.224 79.6302 392.422 79.7812C392.625 79.9323 392.87 80.0807 393.156 80.2266C393.448 80.3672 393.784 80.5208 394.164 80.6875C394.555 80.8906 394.922 81.1042 395.266 81.3281C395.615 81.5521 395.919 81.7995 396.18 82.0703C396.445 82.3411 396.654 82.6432 396.805 82.9766C396.961 83.3047 397.039 83.6797 397.039 84.1016C397.039 84.6693 396.924 85.1484 396.695 85.5391C396.466 85.9297 396.156 86.2474 395.766 86.4922C395.38 86.737 394.935 86.9141 394.43 87.0234C393.924 87.1328 393.391 87.1875 392.828 87.1875C392.641 87.1875 392.409 87.1719 392.133 87.1406C391.862 87.1146 391.583 87.0729 391.297 87.0156C391.01 86.9635 390.74 86.8984 390.484 86.8203C390.229 86.7422 390.023 86.6536 389.867 86.5547ZM402.445 87.1875C401.211 87.1875 400.224 86.8151 399.484 86.0703C398.75 85.3203 398.383 84.3281 398.383 83.0938C398.383 81.75 398.766 80.7005 399.531 79.9453C400.302 79.1901 401.339 78.8125 402.641 78.8125C403.891 78.8125 404.865 79.1797 405.562 79.9141C406.26 80.6484 406.609 81.6667 406.609 82.9688C406.609 84.2448 406.232 85.2682 405.477 86.0391C404.727 86.8047 403.716 87.1875 402.445 87.1875ZM402.531 80.2578C401.823 80.2578 401.263 80.5052 400.852 81C400.44 81.4948 400.234 82.1771 400.234 83.0469C400.234 83.8854 400.443 84.5469 400.859 85.0312C401.276 85.5104 401.833 85.75 402.531 85.75C403.245 85.75 403.792 85.513 404.172 85.0391C404.557 84.5651 404.75 83.8906 404.75 83.0156C404.75 82.1354 404.557 81.4557 404.172 80.9766C403.792 80.4974 403.245 80.2578 402.531 80.2578ZM410.281 87H408.461V75.1562H410.281V87ZM419.625 87H417.812V85.7344H417.781C417.255 86.7031 416.438 87.1875 415.328 87.1875C413.438 87.1875 412.492 86.0521 412.492 83.7812V79H414.305V83.5938C414.305 85.0312 414.859 85.75 415.969 85.75C416.505 85.75 416.945 85.5521 417.289 85.1562C417.638 84.7604 417.812 84.2422 417.812 83.6016V79H419.625V87ZM426.211 86.9141C425.857 87.0911 425.391 87.1797 424.812 87.1797C423.26 87.1797 422.484 86.4349 422.484 84.9453V80.4219H421.148V79H422.484V77.1484L424.297 76.6328V79H426.211V80.4219H424.297V84.4219C424.297 84.8958 424.383 85.2344 424.555 85.4375C424.727 85.6406 425.013 85.7422 425.414 85.7422C425.721 85.7422 425.987 85.6536 426.211 85.4766V86.9141ZM428.688 77.3203C428.391 77.3203 428.135 77.224 427.922 77.0312C427.714 76.8385 427.609 76.5938 427.609 76.2969C427.609 76 427.714 75.7526 427.922 75.5547C428.135 75.3568 428.391 75.2578 428.688 75.2578C428.995 75.2578 429.255 75.3568 429.469 75.5547C429.682 75.7526 429.789 76 429.789 76.2969C429.789 76.5781 429.682 76.8203 429.469 77.0234C429.255 77.2214 428.995 77.3203 428.688 77.3203ZM429.586 87H427.773V79H429.586V87ZM435.508 87.1875C434.273 87.1875 433.286 86.8151 432.547 86.0703C431.812 85.3203 431.445 84.3281 431.445 83.0938C431.445 81.75 431.828 80.7005 432.594 79.9453C433.365 79.1901 434.401 78.8125 435.703 78.8125C436.953 78.8125 437.927 79.1797 438.625 79.9141C439.323 80.6484 439.672 81.6667 439.672 82.9688C439.672 84.2448 439.294 85.2682 438.539 86.0391C437.789 86.8047 436.779 87.1875 435.508 87.1875ZM435.594 80.2578C434.885 80.2578 434.326 80.5052 433.914 81C433.503 81.4948 433.297 82.1771 433.297 83.0469C433.297 83.8854 433.505 84.5469 433.922 85.0312C434.339 85.5104 434.896 85.75 435.594 85.75C436.307 85.75 436.854 85.513 437.234 85.0391C437.62 84.5651 437.812 83.8906 437.812 83.0156C437.812 82.1354 437.62 81.4557 437.234 80.9766C436.854 80.4974 436.307 80.2578 435.594 80.2578ZM448.648 87H446.836V82.4922C446.836 80.9974 446.307 80.25 445.25 80.25C444.698 80.25 444.242 80.4583 443.883 80.875C443.523 81.2865 443.344 81.8073 443.344 82.4375V87H441.523V79H443.344V80.3281H443.375C443.974 79.3177 444.839 78.8125 445.969 78.8125C446.839 78.8125 447.503 79.0964 447.961 79.6641C448.419 80.2266 448.648 81.0417 448.648 82.1094V87ZM457.117 85.8203H457.086V90.6797H455.273V79H457.086V80.4062H457.117C457.737 79.3438 458.643 78.8125 459.836 78.8125C460.852 78.8125 461.643 79.1693 462.211 79.8828C462.779 80.5964 463.062 81.5547 463.062 82.7578C463.062 84.0911 462.742 85.1589 462.102 85.9609C461.461 86.763 460.586 87.1641 459.477 87.1641C458.456 87.1641 457.669 86.7161 457.117 85.8203ZM457.07 82.6641V83.6562C457.07 84.2396 457.255 84.7344 457.625 85.1406C458 85.5469 458.474 85.75 459.047 85.75C459.719 85.75 460.245 85.4896 460.625 84.9688C461.01 84.4427 461.203 83.7109 461.203 82.7734C461.203 81.987 461.023 81.3724 460.664 80.9297C460.31 80.4818 459.828 80.2578 459.219 80.2578C458.573 80.2578 458.052 80.487 457.656 80.9453C457.266 81.4036 457.07 81.9766 457.07 82.6641ZM466.734 87H464.914V75.1562H466.734V87ZM475.242 87H473.484V85.75H473.453C472.901 86.7083 472.091 87.1875 471.023 87.1875C470.237 87.1875 469.62 86.974 469.172 86.5469C468.729 86.1198 468.508 85.5547 468.508 84.8516C468.508 83.3411 469.378 82.4609 471.117 82.2109L473.492 81.875C473.492 80.7344 472.951 80.1641 471.867 80.1641C470.914 80.1641 470.055 80.4922 469.289 81.1484V79.5625C470.133 79.0625 471.107 78.8125 472.211 78.8125C474.232 78.8125 475.242 79.8073 475.242 81.7969V87ZM473.492 83.0703L471.812 83.3047C471.292 83.3724 470.898 83.5 470.633 83.6875C470.372 83.8698 470.242 84.1927 470.242 84.6562C470.242 84.9948 470.362 85.2734 470.602 85.4922C470.846 85.7057 471.172 85.8125 471.578 85.8125C472.13 85.8125 472.586 85.6198 472.945 85.2344C473.31 84.8438 473.492 84.3542 473.492 83.7656V83.0703ZM484.586 87H482.773V82.4922C482.773 80.9974 482.245 80.25 481.188 80.25C480.635 80.25 480.18 80.4583 479.82 80.875C479.461 81.2865 479.281 81.8073 479.281 82.4375V87H477.461V79H479.281V80.3281H479.312C479.911 79.3177 480.776 78.8125 481.906 78.8125C482.776 78.8125 483.44 79.0964 483.898 79.6641C484.357 80.2266 484.586 81.0417 484.586 82.1094V87ZM493.93 87H492.117V82.4922C492.117 80.9974 491.589 80.25 490.531 80.25C489.979 80.25 489.523 80.4583 489.164 80.875C488.805 81.2865 488.625 81.8073 488.625 82.4375V87H486.805V79H488.625V80.3281H488.656C489.255 79.3177 490.12 78.8125 491.25 78.8125C492.12 78.8125 492.784 79.0964 493.242 79.6641C493.701 80.2266 493.93 81.0417 493.93 82.1094V87ZM497.062 77.3203C496.766 77.3203 496.51 77.224 496.297 77.0312C496.089 76.8385 495.984 76.5938 495.984 76.2969C495.984 76 496.089 75.7526 496.297 75.5547C496.51 75.3568 496.766 75.2578 497.062 75.2578C497.37 75.2578 497.63 75.3568 497.844 75.5547C498.057 75.7526 498.164 76 498.164 76.2969C498.164 76.5781 498.057 76.8203 497.844 77.0234C497.63 77.2214 497.37 77.3203 497.062 77.3203ZM497.961 87H496.148V79H497.961V87ZM507.461 87H505.648V82.4922C505.648 80.9974 505.12 80.25 504.062 80.25C503.51 80.25 503.055 80.4583 502.695 80.875C502.336 81.2865 502.156 81.8073 502.156 82.4375V87H500.336V79H502.156V80.3281H502.188C502.786 79.3177 503.651 78.8125 504.781 78.8125C505.651 78.8125 506.315 79.0964 506.773 79.6641C507.232 80.2266 507.461 81.0417 507.461 82.1094V87ZM516.961 86.3594C516.961 89.2969 515.484 90.7656 512.531 90.7656C511.49 90.7656 510.581 90.5911 509.805 90.2422V88.5859C510.68 89.0859 511.51 89.3359 512.297 89.3359C514.198 89.3359 515.148 88.401 515.148 86.5312V85.6562H515.117C514.518 86.6771 513.617 87.1875 512.414 87.1875C511.44 87.1875 510.654 86.8333 510.055 86.125C509.461 85.4115 509.164 84.4557 509.164 83.2578C509.164 81.8984 509.484 80.8177 510.125 80.0156C510.766 79.2135 511.646 78.8125 512.766 78.8125C513.823 78.8125 514.607 79.2448 515.117 80.1094H515.148V79H516.961V86.3594ZM515.164 83.3359V82.2969C515.164 81.7344 514.977 81.2552 514.602 80.8594C514.232 80.4583 513.768 80.2578 513.211 80.2578C512.523 80.2578 511.984 80.513 511.594 81.0234C511.208 81.5286 511.016 82.237 511.016 83.1484C511.016 83.9349 511.201 84.5651 511.57 85.0391C511.945 85.5078 512.44 85.7422 513.055 85.7422C513.68 85.7422 514.188 85.5182 514.578 85.0703C514.969 84.6172 515.164 84.0391 515.164 83.3359Z" fill="url(#paint3_linear_34_14932)"/>
<path d="M331 111L553 111" stroke="#78364F" stroke-opacity="0.66" stroke-width="2" stroke-linecap="round"/>
<path d="M397.613 156.33C396.629 156.886 395.535 157.164 394.332 157.164C392.933 157.164 391.8 156.713 390.935 155.811C390.073 154.908 389.643 153.714 389.643 152.229C389.643 150.711 390.121 149.467 391.078 148.496C392.04 147.521 393.257 147.033 394.729 147.033C395.795 147.033 396.69 147.206 397.415 147.553V148.824C396.622 148.323 395.683 148.072 394.599 148.072C393.5 148.072 392.6 148.451 391.898 149.207C391.197 149.964 390.846 150.943 390.846 152.146C390.846 153.386 391.172 154.361 391.823 155.072C392.475 155.779 393.359 156.132 394.476 156.132C395.241 156.132 395.904 155.979 396.465 155.674V152.926H394.318V151.887H397.613V156.33ZM404.757 157H403.636V155.906H403.608C403.121 156.745 402.403 157.164 401.455 157.164C400.758 157.164 400.211 156.979 399.814 156.61C399.423 156.241 399.227 155.751 399.227 155.141C399.227 153.833 399.997 153.072 401.537 152.857L403.636 152.563C403.636 151.374 403.155 150.779 402.193 150.779C401.35 150.779 400.589 151.066 399.91 151.641V150.492C400.598 150.055 401.391 149.836 402.289 149.836C403.934 149.836 404.757 150.706 404.757 152.447V157ZM403.636 153.459L401.947 153.691C401.428 153.764 401.036 153.894 400.771 154.081C400.507 154.263 400.375 154.589 400.375 155.059C400.375 155.4 400.496 155.681 400.737 155.899C400.983 156.114 401.309 156.221 401.715 156.221C402.271 156.221 402.729 156.027 403.089 155.64C403.453 155.248 403.636 154.753 403.636 154.156V153.459ZM410.116 156.932C409.852 157.077 409.503 157.15 409.07 157.15C407.844 157.15 407.231 156.467 407.231 155.1V150.957H406.028V150H407.231V148.291L408.353 147.929V150H410.116V150.957H408.353V154.901C408.353 155.371 408.432 155.706 408.592 155.906C408.751 156.107 409.016 156.207 409.385 156.207C409.667 156.207 409.911 156.13 410.116 155.975V156.932ZM417.424 157H416.303V152.967C416.303 151.508 415.76 150.779 414.676 150.779C414.129 150.779 413.669 150.991 413.295 151.415C412.921 151.834 412.734 152.374 412.734 153.035V157H411.613V146.637H412.734V151.162H412.762C413.299 150.278 414.065 149.836 415.059 149.836C416.635 149.836 417.424 150.786 417.424 152.687V157ZM425.169 153.78H420.227C420.245 154.56 420.454 155.161 420.855 155.585C421.257 156.009 421.808 156.221 422.51 156.221C423.298 156.221 424.023 155.961 424.684 155.441V156.494C424.068 156.941 423.255 157.164 422.243 157.164C421.254 157.164 420.477 156.847 419.912 156.214C419.347 155.576 419.064 154.68 419.064 153.527C419.064 152.438 419.372 151.552 419.987 150.868C420.607 150.18 421.375 149.836 422.291 149.836C423.207 149.836 423.916 150.132 424.417 150.725C424.918 151.317 425.169 152.14 425.169 153.192V153.78ZM424.021 152.83C424.016 152.183 423.859 151.679 423.549 151.319C423.243 150.959 422.817 150.779 422.271 150.779C421.742 150.779 421.293 150.968 420.924 151.347C420.555 151.725 420.327 152.219 420.24 152.83H424.021ZM430.521 151.135C430.326 150.984 430.043 150.909 429.674 150.909C429.195 150.909 428.794 151.135 428.471 151.586C428.152 152.037 427.992 152.652 427.992 153.432V157H426.871V150H427.992V151.442H428.02C428.179 150.95 428.423 150.567 428.751 150.294C429.079 150.016 429.446 149.877 429.852 149.877C430.143 149.877 430.367 149.909 430.521 149.973V151.135ZM439.23 151.135C439.035 150.984 438.752 150.909 438.383 150.909C437.904 150.909 437.503 151.135 437.18 151.586C436.861 152.037 436.701 152.652 436.701 153.432V157H435.58V150H436.701V151.442H436.729C436.888 150.95 437.132 150.567 437.46 150.294C437.788 150.016 438.155 149.877 438.561 149.877C438.852 149.877 439.076 149.909 439.23 149.973V151.135ZM446.073 153.78H441.131C441.149 154.56 441.359 155.161 441.76 155.585C442.161 156.009 442.712 156.221 443.414 156.221C444.202 156.221 444.927 155.961 445.588 155.441V156.494C444.973 156.941 444.159 157.164 443.147 157.164C442.159 157.164 441.382 156.847 440.816 156.214C440.251 155.576 439.969 154.68 439.969 153.527C439.969 152.438 440.276 151.552 440.892 150.868C441.511 150.18 442.279 149.836 443.195 149.836C444.111 149.836 444.82 150.132 445.321 150.725C445.823 151.317 446.073 152.14 446.073 153.192V153.78ZM444.925 152.83C444.92 152.183 444.763 151.679 444.453 151.319C444.148 150.959 443.722 150.779 443.175 150.779C442.646 150.779 442.197 150.968 441.828 151.347C441.459 151.725 441.231 152.219 441.145 152.83H444.925ZM453.75 160.22H452.629V155.797H452.602C452.114 156.708 451.316 157.164 450.209 157.164C449.329 157.164 448.623 156.852 448.09 156.228C447.561 155.599 447.297 154.744 447.297 153.664C447.297 152.502 447.589 151.575 448.172 150.882C448.755 150.185 449.539 149.836 450.523 149.836C451.48 149.836 452.173 150.214 452.602 150.971H452.629V150H453.75V160.22ZM452.629 153.849V152.83C452.629 152.256 452.44 151.771 452.062 151.374C451.688 150.978 451.212 150.779 450.633 150.779C449.958 150.779 449.425 151.03 449.033 151.531C448.641 152.028 448.445 152.73 448.445 153.637C448.445 154.443 448.634 155.077 449.013 155.537C449.391 155.993 449.879 156.221 450.476 156.221C451.132 156.221 451.654 155.997 452.041 155.551C452.433 155.1 452.629 154.532 452.629 153.849ZM461.68 157H460.559V155.893H460.531C460.066 156.74 459.346 157.164 458.371 157.164C456.703 157.164 455.869 156.171 455.869 154.184V150H456.983V154.006C456.983 155.482 457.549 156.221 458.679 156.221C459.226 156.221 459.674 156.02 460.025 155.619C460.381 155.214 460.559 154.685 460.559 154.033V150H461.68V157ZM464.523 148.223C464.323 148.223 464.152 148.154 464.011 148.018C463.869 147.881 463.799 147.708 463.799 147.498C463.799 147.288 463.869 147.115 464.011 146.979C464.152 146.837 464.323 146.767 464.523 146.767C464.729 146.767 464.902 146.837 465.043 146.979C465.189 147.115 465.262 147.288 465.262 147.498C465.262 147.699 465.189 147.869 465.043 148.011C464.902 148.152 464.729 148.223 464.523 148.223ZM465.07 157H463.949V150H465.07V157ZM470.99 151.135C470.794 150.984 470.512 150.909 470.143 150.909C469.664 150.909 469.263 151.135 468.939 151.586C468.62 152.037 468.461 152.652 468.461 153.432V157H467.34V150H468.461V151.442H468.488C468.648 150.95 468.892 150.567 469.22 150.294C469.548 150.016 469.915 149.877 470.32 149.877C470.612 149.877 470.835 149.909 470.99 149.973V151.135ZM477.833 153.78H472.891C472.909 154.56 473.118 155.161 473.52 155.585C473.921 156.009 474.472 156.221 475.174 156.221C475.962 156.221 476.687 155.961 477.348 155.441V156.494C476.732 156.941 475.919 157.164 474.907 157.164C473.918 157.164 473.141 156.847 472.576 156.214C472.011 155.576 471.729 154.68 471.729 153.527C471.729 152.438 472.036 151.552 472.651 150.868C473.271 150.18 474.039 149.836 474.955 149.836C475.871 149.836 476.58 150.132 477.081 150.725C477.582 151.317 477.833 152.14 477.833 153.192V153.78ZM476.685 152.83C476.68 152.183 476.523 151.679 476.213 151.319C475.908 150.959 475.481 150.779 474.935 150.779C474.406 150.779 473.957 150.968 473.588 151.347C473.219 151.725 472.991 152.219 472.904 152.83H476.685ZM489.475 157H488.354V152.98C488.354 152.206 488.233 151.645 487.991 151.299C487.754 150.952 487.353 150.779 486.788 150.779C486.31 150.779 485.902 150.998 485.564 151.436C485.232 151.873 485.065 152.397 485.065 153.008V157H483.944V152.844C483.944 151.467 483.413 150.779 482.352 150.779C481.859 150.779 481.454 150.987 481.135 151.401C480.816 151.812 480.656 152.347 480.656 153.008V157H479.535V150H480.656V151.107H480.684C481.18 150.26 481.905 149.836 482.857 149.836C483.336 149.836 483.753 149.97 484.108 150.239C484.464 150.504 484.708 150.852 484.84 151.285C485.359 150.319 486.134 149.836 487.164 149.836C488.704 149.836 489.475 150.786 489.475 152.687V157ZM497.22 153.78H492.277C492.296 154.56 492.505 155.161 492.906 155.585C493.307 156.009 493.859 156.221 494.561 156.221C495.349 156.221 496.074 155.961 496.734 155.441V156.494C496.119 156.941 495.306 157.164 494.294 157.164C493.305 157.164 492.528 156.847 491.963 156.214C491.398 155.576 491.115 154.68 491.115 153.527C491.115 152.438 491.423 151.552 492.038 150.868C492.658 150.18 493.426 149.836 494.342 149.836C495.258 149.836 495.966 150.132 496.468 150.725C496.969 151.317 497.22 152.14 497.22 153.192V153.78ZM496.071 152.83C496.067 152.183 495.91 151.679 495.6 151.319C495.294 150.959 494.868 150.779 494.321 150.779C493.793 150.779 493.344 150.968 492.975 151.347C492.605 151.725 492.378 152.219 492.291 152.83H496.071ZM504.732 157H503.611V153.008C503.611 151.522 503.069 150.779 501.984 150.779C501.424 150.779 500.959 150.991 500.59 151.415C500.225 151.834 500.043 152.365 500.043 153.008V157H498.922V150H500.043V151.162H500.07C500.599 150.278 501.365 149.836 502.367 149.836C503.133 149.836 503.718 150.084 504.124 150.581C504.53 151.073 504.732 151.786 504.732 152.721V157ZM510.099 156.932C509.834 157.077 509.486 157.15 509.053 157.15C507.827 157.15 507.214 156.467 507.214 155.1V150.957H506.011V150H507.214V148.291L508.335 147.929V150H510.099V150.957H508.335V154.901C508.335 155.371 508.415 155.706 508.574 155.906C508.734 156.107 508.998 156.207 509.367 156.207C509.65 156.207 509.894 156.13 510.099 155.975V156.932ZM511.172 156.747V155.544C511.783 155.995 512.455 156.221 513.188 156.221C514.173 156.221 514.665 155.893 514.665 155.236C514.665 155.049 514.622 154.892 514.535 154.765C514.453 154.632 514.339 154.516 514.193 154.416C514.052 154.316 513.883 154.227 513.688 154.149C513.496 154.067 513.289 153.983 513.065 153.896C512.756 153.773 512.482 153.65 512.245 153.527C512.013 153.4 511.817 153.258 511.657 153.104C511.502 152.944 511.384 152.764 511.302 152.563C511.224 152.363 511.186 152.128 511.186 151.859C511.186 151.531 511.261 151.242 511.411 150.991C511.562 150.736 511.762 150.524 512.013 150.355C512.263 150.182 512.548 150.052 512.867 149.966C513.191 149.879 513.523 149.836 513.865 149.836C514.471 149.836 515.014 149.941 515.492 150.15V151.285C514.977 150.948 514.385 150.779 513.715 150.779C513.505 150.779 513.316 150.804 513.147 150.854C512.979 150.9 512.833 150.966 512.71 151.053C512.591 151.139 512.498 151.244 512.43 151.367C512.366 151.486 512.334 151.618 512.334 151.764C512.334 151.946 512.366 152.099 512.43 152.222C512.498 152.345 512.596 152.454 512.724 152.55C512.851 152.646 513.006 152.732 513.188 152.81C513.371 152.887 513.578 152.971 513.811 153.062C514.12 153.181 514.398 153.304 514.645 153.432C514.891 153.555 515.1 153.696 515.273 153.855C515.447 154.01 515.579 154.19 515.67 154.396C515.766 154.601 515.813 154.844 515.813 155.127C515.813 155.473 515.736 155.774 515.581 156.029C515.431 156.285 515.228 156.496 514.973 156.665C514.717 156.834 514.424 156.959 514.091 157.041C513.758 157.123 513.41 157.164 513.045 157.164C512.325 157.164 511.701 157.025 511.172 156.747Z" fill="url(#paint4_linear_34_14932)"/>
<path d="M396.957 236.59C396.232 236.973 395.33 237.164 394.25 237.164C392.855 237.164 391.739 236.715 390.9 235.817C390.062 234.92 389.643 233.742 389.643 232.283C389.643 230.715 390.114 229.449 391.058 228.482C392.001 227.516 393.197 227.033 394.646 227.033C395.576 227.033 396.346 227.168 396.957 227.437V228.66C396.255 228.268 395.48 228.072 394.633 228.072C393.507 228.072 392.593 228.448 391.892 229.2C391.194 229.952 390.846 230.957 390.846 232.215C390.846 233.409 391.172 234.361 391.823 235.072C392.479 235.779 393.339 236.132 394.4 236.132C395.385 236.132 396.237 235.913 396.957 235.476V236.59ZM401.729 237.164C400.694 237.164 399.867 236.838 399.247 236.187C398.632 235.53 398.324 234.662 398.324 233.582C398.324 232.406 398.646 231.488 399.288 230.827C399.931 230.166 400.799 229.836 401.893 229.836C402.936 229.836 403.75 230.157 404.333 230.8C404.921 231.442 405.215 232.333 405.215 233.473C405.215 234.589 404.898 235.485 404.265 236.159C403.636 236.829 402.79 237.164 401.729 237.164ZM401.811 230.779C401.09 230.779 400.521 231.025 400.102 231.518C399.682 232.005 399.473 232.68 399.473 233.541C399.473 234.37 399.685 235.024 400.108 235.503C400.532 235.981 401.1 236.221 401.811 236.221C402.535 236.221 403.091 235.986 403.479 235.517C403.87 235.047 404.066 234.38 404.066 233.514C404.066 232.639 403.87 231.964 403.479 231.49C403.091 231.016 402.535 230.779 401.811 230.779ZM412.816 237H411.695V233.008C411.695 231.522 411.153 230.779 410.068 230.779C409.508 230.779 409.043 230.991 408.674 231.415C408.309 231.834 408.127 232.365 408.127 233.008V237H407.006V230H408.127V231.162H408.154C408.683 230.278 409.449 229.836 410.451 229.836C411.217 229.836 411.802 230.084 412.208 230.581C412.614 231.073 412.816 231.786 412.816 232.721V237ZM420.91 237H419.789V235.811H419.762C419.242 236.713 418.44 237.164 417.355 237.164C416.476 237.164 415.772 236.852 415.243 236.228C414.719 235.599 414.457 234.744 414.457 233.664C414.457 232.507 414.749 231.579 415.332 230.882C415.915 230.185 416.692 229.836 417.663 229.836C418.625 229.836 419.324 230.214 419.762 230.971H419.789V226.637H420.91V237ZM419.789 233.835V232.803C419.789 232.238 419.602 231.759 419.229 231.367C418.855 230.975 418.381 230.779 417.807 230.779C417.123 230.779 416.585 231.03 416.193 231.531C415.801 232.033 415.605 232.725 415.605 233.609C415.605 234.416 415.792 235.054 416.166 235.523C416.544 235.988 417.05 236.221 417.684 236.221C418.308 236.221 418.814 235.995 419.201 235.544C419.593 235.093 419.789 234.523 419.789 233.835ZM428.84 237H427.719V235.893H427.691C427.227 236.74 426.507 237.164 425.531 237.164C423.863 237.164 423.029 236.171 423.029 234.184V230H424.144V234.006C424.144 235.482 424.709 236.221 425.839 236.221C426.386 236.221 426.835 236.02 427.186 235.619C427.541 235.214 427.719 234.685 427.719 234.033V230H428.84V237ZM435.881 236.679C435.343 237.002 434.705 237.164 433.967 237.164C432.969 237.164 432.162 236.84 431.547 236.193C430.936 235.542 430.631 234.699 430.631 233.664C430.631 232.511 430.961 231.586 431.622 230.889C432.283 230.187 433.165 229.836 434.268 229.836C434.883 229.836 435.425 229.95 435.895 230.178V231.326C435.375 230.962 434.819 230.779 434.227 230.779C433.511 230.779 432.923 231.037 432.463 231.552C432.007 232.062 431.779 232.734 431.779 233.568C431.779 234.389 431.993 235.036 432.422 235.51C432.855 235.984 433.434 236.221 434.158 236.221C434.769 236.221 435.343 236.018 435.881 235.612V236.679ZM440.823 236.932C440.559 237.077 440.21 237.15 439.777 237.15C438.551 237.15 437.938 236.467 437.938 235.1V230.957H436.735V230H437.938V228.291L439.06 227.929V230H440.823V230.957H439.06V234.901C439.06 235.371 439.139 235.706 439.299 235.906C439.458 236.107 439.723 236.207 440.092 236.207C440.374 236.207 440.618 236.13 440.823 235.975V236.932ZM447.311 235.988H447.283V240.22H446.162V230H447.283V231.23H447.311C447.862 230.301 448.669 229.836 449.73 229.836C450.633 229.836 451.337 230.15 451.843 230.779C452.349 231.404 452.602 232.242 452.602 233.295C452.602 234.466 452.317 235.405 451.747 236.111C451.177 236.813 450.398 237.164 449.409 237.164C448.502 237.164 447.803 236.772 447.311 235.988ZM447.283 233.165V234.143C447.283 234.721 447.47 235.214 447.844 235.619C448.222 236.02 448.701 236.221 449.279 236.221C449.958 236.221 450.489 235.961 450.872 235.441C451.259 234.922 451.453 234.2 451.453 233.274C451.453 232.495 451.273 231.884 450.913 231.442C450.553 231 450.065 230.779 449.45 230.779C448.799 230.779 448.274 231.007 447.878 231.463C447.481 231.914 447.283 232.481 447.283 233.165ZM458.043 231.135C457.847 230.984 457.564 230.909 457.195 230.909C456.717 230.909 456.316 231.135 455.992 231.586C455.673 232.037 455.514 232.652 455.514 233.432V237H454.393V230H455.514V231.442H455.541C455.701 230.95 455.944 230.567 456.272 230.294C456.601 230.016 456.967 229.877 457.373 229.877C457.665 229.877 457.888 229.909 458.043 229.973V231.135ZM462.186 237.164C461.151 237.164 460.324 236.838 459.704 236.187C459.089 235.53 458.781 234.662 458.781 233.582C458.781 232.406 459.103 231.488 459.745 230.827C460.388 230.166 461.256 229.836 462.35 229.836C463.393 229.836 464.207 230.157 464.79 230.8C465.378 231.442 465.672 232.333 465.672 233.473C465.672 234.589 465.355 235.485 464.722 236.159C464.093 236.829 463.247 237.164 462.186 237.164ZM462.268 230.779C461.548 230.779 460.978 231.025 460.559 231.518C460.139 232.005 459.93 232.68 459.93 233.541C459.93 234.37 460.142 235.024 460.565 235.503C460.989 235.981 461.557 236.221 462.268 236.221C462.992 236.221 463.548 235.986 463.936 235.517C464.327 235.047 464.523 234.38 464.523 233.514C464.523 232.639 464.327 231.964 463.936 231.49C463.548 231.016 462.992 230.779 462.268 230.779ZM470.389 237.164C469.354 237.164 468.527 236.838 467.907 236.187C467.292 235.53 466.984 234.662 466.984 233.582C466.984 232.406 467.306 231.488 467.948 230.827C468.591 230.166 469.459 229.836 470.553 229.836C471.596 229.836 472.41 230.157 472.993 230.8C473.581 231.442 473.875 232.333 473.875 233.473C473.875 234.589 473.558 235.485 472.925 236.159C472.296 236.829 471.451 237.164 470.389 237.164ZM470.471 230.779C469.751 230.779 469.181 231.025 468.762 231.518C468.342 232.005 468.133 232.68 468.133 233.541C468.133 234.37 468.345 235.024 468.769 235.503C469.192 235.981 469.76 236.221 470.471 236.221C471.195 236.221 471.751 235.986 472.139 235.517C472.531 235.047 472.727 234.38 472.727 233.514C472.727 232.639 472.531 231.964 472.139 231.49C471.751 231.016 471.195 230.779 470.471 230.779ZM479.125 227.621C478.906 227.498 478.658 227.437 478.38 227.437C477.596 227.437 477.204 227.931 477.204 228.92V230H478.845V230.957H477.204V237H476.09V230.957H474.894V230H476.09V228.865C476.09 228.132 476.302 227.553 476.726 227.129C477.149 226.701 477.678 226.486 478.312 226.486C478.653 226.486 478.924 226.527 479.125 226.609V227.621ZM486.822 237.164C485.788 237.164 484.961 236.838 484.341 236.187C483.726 235.53 483.418 234.662 483.418 233.582C483.418 232.406 483.739 231.488 484.382 230.827C485.024 230.166 485.893 229.836 486.986 229.836C488.03 229.836 488.843 230.157 489.427 230.8C490.015 231.442 490.309 232.333 490.309 233.473C490.309 234.589 489.992 235.485 489.358 236.159C488.729 236.829 487.884 237.164 486.822 237.164ZM486.904 230.779C486.184 230.779 485.615 231.025 485.195 231.518C484.776 232.005 484.566 232.68 484.566 233.541C484.566 234.37 484.778 235.024 485.202 235.503C485.626 235.981 486.193 236.221 486.904 236.221C487.629 236.221 488.185 235.986 488.572 235.517C488.964 235.047 489.16 234.38 489.16 233.514C489.16 232.639 488.964 231.964 488.572 231.49C488.185 231.016 487.629 230.779 486.904 230.779ZM495.559 227.621C495.34 227.498 495.091 227.437 494.813 227.437C494.03 227.437 493.638 227.931 493.638 228.92V230H495.278V230.957H493.638V237H492.523V230.957H491.327V230H492.523V228.865C492.523 228.132 492.735 227.553 493.159 227.129C493.583 226.701 494.112 226.486 494.745 226.486C495.087 226.486 495.358 226.527 495.559 226.609V227.621ZM394.906 255.679C394.368 256.002 393.73 256.164 392.992 256.164C391.994 256.164 391.188 255.84 390.572 255.193C389.962 254.542 389.656 253.699 389.656 252.664C389.656 251.511 389.987 250.586 390.647 249.889C391.308 249.187 392.19 248.836 393.293 248.836C393.908 248.836 394.451 248.95 394.92 249.178V250.326C394.4 249.962 393.844 249.779 393.252 249.779C392.536 249.779 391.949 250.037 391.488 250.552C391.033 251.062 390.805 251.734 390.805 252.568C390.805 253.389 391.019 254.036 391.447 254.51C391.88 254.984 392.459 255.221 393.184 255.221C393.794 255.221 394.368 255.018 394.906 254.612V255.679ZM399.527 256.164C398.493 256.164 397.666 255.838 397.046 255.187C396.431 254.53 396.123 253.662 396.123 252.582C396.123 251.406 396.444 250.488 397.087 249.827C397.729 249.166 398.598 248.836 399.691 248.836C400.735 248.836 401.549 249.157 402.132 249.8C402.72 250.442 403.014 251.333 403.014 252.473C403.014 253.589 402.697 254.485 402.063 255.159C401.435 255.829 400.589 256.164 399.527 256.164ZM399.609 249.779C398.889 249.779 398.32 250.025 397.9 250.518C397.481 251.005 397.271 251.68 397.271 252.541C397.271 253.37 397.483 254.024 397.907 254.503C398.331 254.981 398.898 255.221 399.609 255.221C400.334 255.221 400.89 254.986 401.277 254.517C401.669 254.047 401.865 253.38 401.865 252.514C401.865 251.639 401.669 250.964 401.277 250.49C400.89 250.016 400.334 249.779 399.609 249.779ZM410.615 256H409.494V252.008C409.494 250.522 408.952 249.779 407.867 249.779C407.307 249.779 406.842 249.991 406.473 250.415C406.108 250.834 405.926 251.365 405.926 252.008V256H404.805V249H405.926V250.162H405.953C406.482 249.278 407.247 248.836 408.25 248.836C409.016 248.836 409.601 249.084 410.007 249.581C410.412 250.073 410.615 250.786 410.615 251.721V256ZM417.506 255.679C416.968 256.002 416.33 256.164 415.592 256.164C414.594 256.164 413.787 255.84 413.172 255.193C412.561 254.542 412.256 253.699 412.256 252.664C412.256 251.511 412.586 250.586 413.247 249.889C413.908 249.187 414.79 248.836 415.893 248.836C416.508 248.836 417.05 248.95 417.52 249.178V250.326C417 249.962 416.444 249.779 415.852 249.779C415.136 249.779 414.548 250.037 414.088 250.552C413.632 251.062 413.404 251.734 413.404 252.568C413.404 253.389 413.618 254.036 414.047 254.51C414.48 254.984 415.059 255.221 415.783 255.221C416.394 255.221 416.968 255.018 417.506 254.612V255.679ZM424.827 252.78H419.885C419.903 253.56 420.113 254.161 420.514 254.585C420.915 255.009 421.466 255.221 422.168 255.221C422.956 255.221 423.681 254.961 424.342 254.441V255.494C423.727 255.941 422.913 256.164 421.901 256.164C420.912 256.164 420.135 255.847 419.57 255.214C419.005 254.576 418.723 253.68 418.723 252.527C418.723 251.438 419.03 250.552 419.646 249.868C420.265 249.18 421.033 248.836 421.949 248.836C422.865 248.836 423.574 249.132 424.075 249.725C424.576 250.317 424.827 251.14 424.827 252.192V252.78ZM423.679 251.83C423.674 251.183 423.517 250.679 423.207 250.319C422.902 249.959 422.476 249.779 421.929 249.779C421.4 249.779 420.951 249.968 420.582 250.347C420.213 250.725 419.985 251.219 419.898 251.83H423.679ZM427.678 254.988H427.65V259.22H426.529V249H427.65V250.23H427.678C428.229 249.301 429.036 248.836 430.098 248.836C431 248.836 431.704 249.15 432.21 249.779C432.716 250.404 432.969 251.242 432.969 252.295C432.969 253.466 432.684 254.405 432.114 255.111C431.545 255.813 430.765 256.164 429.776 256.164C428.869 256.164 428.17 255.772 427.678 254.988ZM427.65 252.165V253.143C427.65 253.721 427.837 254.214 428.211 254.619C428.589 255.02 429.068 255.221 429.646 255.221C430.326 255.221 430.856 254.961 431.239 254.441C431.627 253.922 431.82 253.2 431.82 252.274C431.82 251.495 431.64 250.884 431.28 250.442C430.92 250 430.433 249.779 429.817 249.779C429.166 249.779 428.642 250.007 428.245 250.463C427.849 250.914 427.65 251.481 427.65 252.165ZM438.007 255.932C437.743 256.077 437.394 256.15 436.961 256.15C435.735 256.15 435.122 255.467 435.122 254.1V249.957H433.919V249H435.122V247.291L436.243 246.929V249H438.007V249.957H436.243V253.901C436.243 254.371 436.323 254.706 436.482 254.906C436.642 255.107 436.906 255.207 437.275 255.207C437.558 255.207 437.802 255.13 438.007 254.975V255.932Z" fill="url(#paint5_linear_34_14932)"/>
<path d="M391.434 197.295V201H390.285V191.197H392.979C394.027 191.197 394.838 191.452 395.412 191.963C395.991 192.473 396.28 193.193 396.28 194.123C396.28 195.053 395.959 195.814 395.316 196.406C394.678 196.999 393.815 197.295 392.726 197.295H391.434ZM391.434 192.236V196.256H392.637C393.43 196.256 394.034 196.076 394.448 195.716C394.868 195.351 395.077 194.839 395.077 194.178C395.077 192.883 394.312 192.236 392.78 192.236H391.434ZM399.104 201H397.982V190.637H399.104V201ZM406.384 201H405.263V199.906H405.235C404.748 200.745 404.03 201.164 403.082 201.164C402.385 201.164 401.838 200.979 401.441 200.61C401.049 200.241 400.854 199.751 400.854 199.141C400.854 197.833 401.624 197.072 403.164 196.857L405.263 196.563C405.263 195.374 404.782 194.779 403.82 194.779C402.977 194.779 402.216 195.066 401.537 195.641V194.492C402.225 194.055 403.018 193.836 403.916 193.836C405.561 193.836 406.384 194.706 406.384 196.447V201ZM405.263 197.459L403.574 197.691C403.055 197.764 402.663 197.894 402.398 198.081C402.134 198.263 402.002 198.589 402.002 199.059C402.002 199.4 402.123 199.681 402.364 199.899C402.61 200.114 402.936 200.221 403.342 200.221C403.898 200.221 404.356 200.027 404.716 199.64C405.08 199.248 405.263 198.753 405.263 198.156V197.459ZM414.307 201H413.186V197.008C413.186 195.522 412.643 194.779 411.559 194.779C410.998 194.779 410.533 194.991 410.164 195.415C409.799 195.834 409.617 196.365 409.617 197.008V201H408.496V194H409.617V195.162H409.645C410.173 194.278 410.939 193.836 411.941 193.836C412.707 193.836 413.293 194.084 413.698 194.581C414.104 195.073 414.307 195.786 414.307 196.721V201ZM426.242 201H425.121V199.811H425.094C424.574 200.713 423.772 201.164 422.688 201.164C421.808 201.164 421.104 200.852 420.575 200.228C420.051 199.599 419.789 198.744 419.789 197.664C419.789 196.507 420.081 195.579 420.664 194.882C421.247 194.185 422.024 193.836 422.995 193.836C423.957 193.836 424.656 194.214 425.094 194.971H425.121V190.637H426.242V201ZM425.121 197.835V196.803C425.121 196.238 424.934 195.759 424.561 195.367C424.187 194.975 423.713 194.779 423.139 194.779C422.455 194.779 421.917 195.03 421.525 195.531C421.133 196.033 420.938 196.725 420.938 197.609C420.938 198.416 421.124 199.054 421.498 199.523C421.876 199.988 422.382 200.221 423.016 200.221C423.64 200.221 424.146 199.995 424.533 199.544C424.925 199.093 425.121 198.523 425.121 197.835ZM434.138 197.78H429.195C429.214 198.56 429.423 199.161 429.824 199.585C430.225 200.009 430.777 200.221 431.479 200.221C432.267 200.221 432.992 199.961 433.652 199.441V200.494C433.037 200.941 432.224 201.164 431.212 201.164C430.223 201.164 429.446 200.847 428.881 200.214C428.316 199.576 428.033 198.68 428.033 197.527C428.033 196.438 428.341 195.552 428.956 194.868C429.576 194.18 430.344 193.836 431.26 193.836C432.176 193.836 432.884 194.132 433.386 194.725C433.887 195.317 434.138 196.14 434.138 197.192V197.78ZM432.989 196.83C432.985 196.183 432.827 195.679 432.518 195.319C432.212 194.959 431.786 194.779 431.239 194.779C430.711 194.779 430.262 194.968 429.893 195.347C429.523 195.725 429.296 196.219 429.209 196.83H432.989ZM436.988 199.988H436.961V204.22H435.84V194H436.961V195.23H436.988C437.54 194.301 438.346 193.836 439.408 193.836C440.311 193.836 441.015 194.15 441.521 194.779C442.026 195.404 442.279 196.242 442.279 197.295C442.279 198.466 441.994 199.405 441.425 200.111C440.855 200.813 440.076 201.164 439.087 201.164C438.18 201.164 437.48 200.772 436.988 199.988ZM436.961 197.165V198.143C436.961 198.721 437.148 199.214 437.521 199.619C437.9 200.02 438.378 200.221 438.957 200.221C439.636 200.221 440.167 199.961 440.55 199.441C440.937 198.922 441.131 198.2 441.131 197.274C441.131 196.495 440.951 195.884 440.591 195.442C440.231 195 439.743 194.779 439.128 194.779C438.476 194.779 437.952 195.007 437.556 195.463C437.159 195.914 436.961 196.481 436.961 197.165ZM445.191 201H444.07V190.637H445.191V201ZM450.387 201.164C449.352 201.164 448.525 200.838 447.905 200.187C447.29 199.53 446.982 198.662 446.982 197.582C446.982 196.406 447.304 195.488 447.946 194.827C448.589 194.166 449.457 193.836 450.551 193.836C451.594 193.836 452.408 194.157 452.991 194.8C453.579 195.442 453.873 196.333 453.873 197.473C453.873 198.589 453.556 199.485 452.923 200.159C452.294 200.829 451.449 201.164 450.387 201.164ZM450.469 194.779C449.749 194.779 449.179 195.025 448.76 195.518C448.34 196.005 448.131 196.68 448.131 197.541C448.131 198.37 448.343 199.024 448.767 199.503C449.19 199.981 449.758 200.221 450.469 200.221C451.193 200.221 451.749 199.986 452.137 199.517C452.529 199.047 452.725 198.38 452.725 197.514C452.725 196.639 452.529 195.964 452.137 195.49C451.749 195.016 451.193 194.779 450.469 194.779ZM461.235 194L458.016 202.121C457.441 203.57 456.635 204.295 455.596 204.295C455.304 204.295 455.06 204.265 454.864 204.206V203.201C455.106 203.283 455.327 203.324 455.527 203.324C456.092 203.324 456.516 202.987 456.799 202.312L457.359 200.986L454.625 194H455.869L457.763 199.387C457.785 199.455 457.833 199.633 457.906 199.92H457.947C457.97 199.811 458.016 199.637 458.084 199.4L460.073 194H461.235ZM472.385 201H471.264V196.98C471.264 196.206 471.143 195.645 470.901 195.299C470.664 194.952 470.263 194.779 469.698 194.779C469.22 194.779 468.812 194.998 468.475 195.436C468.142 195.873 467.976 196.397 467.976 197.008V201H466.854V196.844C466.854 195.467 466.324 194.779 465.262 194.779C464.77 194.779 464.364 194.987 464.045 195.401C463.726 195.812 463.566 196.347 463.566 197.008V201H462.445V194H463.566V195.107H463.594C464.09 194.26 464.815 193.836 465.768 193.836C466.246 193.836 466.663 193.97 467.019 194.239C467.374 194.504 467.618 194.852 467.75 195.285C468.27 194.319 469.044 193.836 470.074 193.836C471.615 193.836 472.385 194.786 472.385 196.687V201ZM480.13 197.78H475.188C475.206 198.56 475.415 199.161 475.816 199.585C476.217 200.009 476.769 200.221 477.471 200.221C478.259 200.221 478.984 199.961 479.645 199.441V200.494C479.029 200.941 478.216 201.164 477.204 201.164C476.215 201.164 475.438 200.847 474.873 200.214C474.308 199.576 474.025 198.68 474.025 197.527C474.025 196.438 474.333 195.552 474.948 194.868C475.568 194.18 476.336 193.836 477.252 193.836C478.168 193.836 478.877 194.132 479.378 194.725C479.879 195.317 480.13 196.14 480.13 197.192V197.78ZM478.981 196.83C478.977 196.183 478.82 195.679 478.51 195.319C478.204 194.959 477.778 194.779 477.231 194.779C476.703 194.779 476.254 194.968 475.885 195.347C475.516 195.725 475.288 196.219 475.201 196.83H478.981ZM487.643 201H486.521V197.008C486.521 195.522 485.979 194.779 484.895 194.779C484.334 194.779 483.869 194.991 483.5 195.415C483.135 195.834 482.953 196.365 482.953 197.008V201H481.832V194H482.953V195.162H482.98C483.509 194.278 484.275 193.836 485.277 193.836C486.043 193.836 486.629 194.084 487.034 194.581C487.44 195.073 487.643 195.786 487.643 196.721V201ZM493.009 200.932C492.744 201.077 492.396 201.15 491.963 201.15C490.737 201.15 490.124 200.467 490.124 199.1V194.957H488.921V194H490.124V192.291L491.245 191.929V194H493.009V194.957H491.245V198.901C491.245 199.371 491.325 199.706 491.484 199.906C491.644 200.107 491.908 200.207 492.277 200.207C492.56 200.207 492.804 200.13 493.009 199.975V200.932Z" fill="url(#paint6_linear_34_14932)"/>
<path d="M352 142.5C352 140.567 353.567 139 355.5 139H374.5C376.433 139 378 140.567 378 142.5V161.5C378 163.433 376.433 165 374.5 165H355.5C353.567 165 352 163.433 352 161.5V142.5Z" fill="url(#paint7_linear_34_14932)"/>
<path d="M352 142.5C352 140.567 353.567 139 355.5 139H374.5C376.433 139 378 140.567 378 142.5V161.5C378 163.433 376.433 165 374.5 165H355.5C353.567 165 352 163.433 352 161.5V142.5Z" fill="url(#paint8_radial_34_14932)" fill-opacity="0.2"/>
<path fill-rule="evenodd" clip-rule="evenodd" d="M374.5 140H355.5C354.119 140 353 141.119 353 142.5V161.5C353 162.881 354.119 164 355.5 164H374.5C375.881 164 377 162.881 377 161.5V142.5C377 141.119 375.881 140 374.5 140ZM355.5 139C353.567 139 352 140.567 352 142.5V161.5C352 163.433 353.567 165 355.5 165H374.5C376.433 165 378 163.433 378 161.5V142.5C378 140.567 376.433 139 374.5 139H355.5Z" fill="url(#paint9_linear_34_14932)"/>
<path d="M371.416 146.456L372.158 145.72C372.32 145.578 372.336 145.332 372.194 145.171C372.186 145.162 372.177 145.153 372.168 145.144L371.439 144.415C371.281 144.254 371.022 144.25 370.86 144.409C370.858 144.411 370.856 144.413 370.854 144.415L370.112 145.152L371.416 146.456Z" fill="url(#paint10_linear_34_14932)"/>
<path d="M368.75 154.604V153.979H367.188V156.271H366.875V156.896H370.938V149.604H369.179L368.554 150.229H370.312V152.104H367.083V152.729H370.312V153.979H369.792V154.604H370.312V156.271H367.812V154.604H368.75Z" fill="url(#paint11_linear_34_14932)"/>
<path d="M371.992 146.792L370.742 148.042H372.291V158.25H360.099C360.147 158.115 360.179 157.975 360.196 157.833L360.208 157.625V148.042H366.35L367.597 146.792H360.208V146.583C360.208 145.548 359.369 144.708 358.333 144.708C357.297 144.708 356.458 145.548 356.458 146.583V157.625L356.47 157.833C356.574 158.746 357.323 159.45 358.241 159.495V159.5H373.541V146.792H371.992ZM358.333 158.25C357.988 158.25 357.708 157.97 357.708 157.625C357.708 157.28 357.988 157 358.333 157C358.678 157 358.958 157.28 358.958 157.625C358.958 157.97 358.678 158.25 358.333 158.25ZM358.958 155.859C358.554 155.714 358.112 155.714 357.708 155.859V146.583C357.708 146.238 357.988 145.958 358.333 145.958C358.678 145.958 358.958 146.238 358.958 146.583V155.859Z" fill="url(#paint12_linear_34_14932)"/>
<path d="M364.166 150.229L364.79 149.604H361.562V156.896H365.625V156.271H365.312V153.979H363.75V154.604H364.687V156.271H362.187V154.604H362.708V153.979H362.187V152.729H363.335L363.542 152.104H362.187V150.229H364.166Z" fill="url(#paint13_linear_34_14932)"/>
<path d="M369.82 145.449L364.71 150.569L364.062 152.521L366.025 151.874L371.135 146.763L369.82 145.449ZM365.809 151.515L364.936 151.803L364.782 151.648L365.069 150.775C365.278 150.578 365.606 150.582 365.809 150.785C366.011 150.981 366.015 151.303 365.82 151.504C365.816 151.508 365.813 151.511 365.809 151.515Z" fill="url(#paint14_linear_34_14932)"/>
<path d="M352 186.5C352 184.567 353.567 183 355.5 183H374.5C376.433 183 378 184.567 378 186.5V205.5C378 207.433 376.433 209 374.5 209H355.5C353.567 209 352 207.433 352 205.5V186.5Z" fill="url(#paint15_linear_34_14932)"/>
<path d="M352 186.5C352 184.567 353.567 183 355.5 183H374.5C376.433 183 378 184.567 378 186.5V205.5C378 207.433 376.433 209 374.5 209H355.5C353.567 209 352 207.433 352 205.5V186.5Z" fill="url(#paint16_radial_34_14932)" fill-opacity="0.2"/>
<path fill-rule="evenodd" clip-rule="evenodd" d="M374.5 184H355.5C354.119 184 353 185.119 353 186.5V205.5C353 206.881 354.119 208 355.5 208H374.5C375.881 208 377 206.881 377 205.5V186.5C377 185.119 375.881 184 374.5 184ZM355.5 183C353.567 183 352 184.567 352 186.5V205.5C352 207.433 353.567 209 355.5 209H374.5C376.433 209 378 207.433 378 205.5V186.5C378 184.567 376.433 183 374.5 183H355.5Z" fill="url(#paint17_linear_34_14932)"/>
<path d="M371.75 188.25V204H358.25V188.25H362.75C362.75 187.939 362.809 187.649 362.926 187.38C363.043 187.11 363.204 186.87 363.409 186.659C363.614 186.448 363.852 186.287 364.121 186.176C364.391 186.064 364.684 186.006 365 186C365.311 186 365.601 186.059 365.87 186.176C366.14 186.293 366.38 186.454 366.591 186.659C366.802 186.864 366.963 187.102 367.074 187.371C367.186 187.641 367.244 187.934 367.25 188.25H371.75ZM361.625 189.375V190.5H368.375V189.375H366.125V188.25C366.125 188.092 366.096 187.945 366.037 187.811C365.979 187.676 365.899 187.559 365.8 187.459C365.7 187.359 365.58 187.277 365.439 187.213C365.299 187.148 365.152 187.119 365 187.125C364.842 187.125 364.695 187.154 364.561 187.213C364.426 187.271 364.309 187.351 364.209 187.45C364.109 187.55 364.027 187.67 363.963 187.811C363.898 187.951 363.869 188.098 363.875 188.25V189.375H361.625ZM370.625 189.375H369.5V191.625H360.5V189.375H359.375V202.875H370.625V189.375ZM367.065 192.319C367.312 192.319 367.54 192.363 367.751 192.451C367.962 192.539 368.149 192.662 368.313 192.82C368.478 192.979 368.601 193.163 368.683 193.374C368.765 193.585 368.812 193.813 368.823 194.06C368.823 194.288 368.779 194.511 368.691 194.728C368.604 194.944 368.478 195.135 368.313 195.299L363.69 199.966L360.544 200.563L361.203 197.479L365.826 192.82C365.99 192.656 366.181 192.533 366.397 192.451C366.614 192.369 366.837 192.325 367.065 192.319ZM367.514 194.508C367.637 194.373 367.698 194.224 367.698 194.06C367.698 193.878 367.64 193.731 367.522 193.62C367.405 193.509 367.253 193.45 367.065 193.444C366.983 193.444 366.904 193.456 366.828 193.479C366.752 193.503 366.685 193.547 366.626 193.611L362.24 198.032L362.003 199.14L363.137 198.92L367.514 194.508Z" fill="url(#paint18_linear_34_14932)"/>
<path d="M352 229.5C352 227.567 353.567 226 355.5 226H374.5C376.433 226 378 227.567 378 229.5V248.5C378 250.433 376.433 252 374.5 252H355.5C353.567 252 352 250.433 352 248.5V229.5Z" fill="url(#paint19_linear_34_14932)"/>
<path d="M352 229.5C352 227.567 353.567 226 355.5 226H374.5C376.433 226 378 227.567 378 229.5V248.5C378 250.433 376.433 252 374.5 252H355.5C353.567 252 352 250.433 352 248.5V229.5Z" fill="url(#paint20_radial_34_14932)" fill-opacity="0.2"/>
<path fill-rule="evenodd" clip-rule="evenodd" d="M374.5 227H355.5C354.119 227 353 228.119 353 229.5V248.5C353 249.881 354.119 251 355.5 251H374.5C375.881 251 377 249.881 377 248.5V229.5C377 228.119 375.881 227 374.5 227ZM355.5 226C353.567 226 352 227.567 352 229.5V248.5C352 250.433 353.567 252 355.5 252H374.5C376.433 252 378 250.433 378 248.5V229.5C378 227.567 376.433 226 374.5 226H355.5Z" fill="url(#paint21_linear_34_14932)"/>
<g clip-path="url(#clip0_34_14932)">
<path d="M359.05 234.508C359.626 232.865 361.192 231.688 363.031 231.688C363.342 231.688 363.593 231.436 363.593 231.125C363.593 230.814 363.342 230.562 363.031 230.562C360.703 230.562 358.722 232.051 357.99 234.129L357.769 233.686C357.63 233.408 357.291 233.295 357.014 233.434C356.736 233.573 356.623 233.911 356.762 234.189L357.746 236.158C357.824 236.311 357.966 236.422 358.134 236.457C358.302 236.492 358.478 236.448 358.61 236.339L360.297 234.932C360.536 234.733 360.568 234.378 360.37 234.14C360.171 233.901 359.816 233.869 359.577 234.068L359.05 234.508Z" fill="url(#paint22_linear_34_14932)"/>
<path d="M370.95 243.492C370.373 245.135 368.808 246.312 366.969 246.312C366.658 246.312 366.406 246.564 366.406 246.875C366.406 247.186 366.658 247.437 366.969 247.437C369.297 247.437 371.278 245.949 372.009 243.871L372.231 244.314C372.37 244.592 372.708 244.705 372.986 244.566C373.264 244.427 373.376 244.089 373.238 243.811L372.253 241.842C372.176 241.689 372.033 241.578 371.865 241.543C371.697 241.508 371.522 241.552 371.39 241.661L369.703 243.068C369.463 243.267 369.432 243.622 369.63 243.86C369.829 244.099 370.184 244.131 370.423 243.932L370.95 243.492Z" fill="url(#paint23_linear_34_14932)"/>
<path fill-rule="evenodd" clip-rule="evenodd" d="M365.563 230.562C364.32 230.562 363.313 231.57 363.313 232.813V237.313H358.813C357.57 237.313 356.562 238.32 356.562 239.563V245.188C356.562 246.43 357.57 247.438 358.813 247.438H364.438C365.68 247.438 366.688 246.43 366.688 245.188V240.688H371.188C372.43 240.688 373.438 239.68 373.438 238.438V232.813C373.438 231.57 372.43 230.562 371.188 230.562H365.563ZM366.688 239.563H371.188C371.809 239.563 372.313 239.059 372.313 238.438V232.813C372.313 232.191 371.809 231.688 371.188 231.688H365.563C364.941 231.688 364.438 232.191 364.438 232.813V237.313C365.68 237.313 366.688 238.32 366.688 239.563ZM357.688 239.563C357.688 238.941 358.191 238.438 358.813 238.438H364.438C365.059 238.438 365.563 238.941 365.563 239.563V245.188C365.563 245.809 365.059 246.313 364.438 246.313H358.813C358.191 246.313 357.688 245.809 357.688 245.188V239.563Z" fill="url(#paint24_linear_34_14932)"/>
</g>
<path d="M344.749 238.971C344.765 239.385 344.443 239.734 344.029 239.749L337.284 240.009C336.87 240.025 336.521 239.702 336.506 239.288C336.49 238.874 336.812 238.526 337.226 238.51L343.222 238.279L342.991 232.284C342.975 231.87 343.298 231.521 343.712 231.506C344.126 231.49 344.474 231.812 344.49 232.226L344.749 238.971ZM343.47 198.47C343.763 198.177 344.237 198.177 344.53 198.47C344.823 198.763 344.823 199.237 344.53 199.53L343.47 198.47ZM343.49 239.55C337.346 233.861 334.25 226.665 334.25 219.333C334.25 212.004 337.343 204.596 343.47 198.47L344.53 199.53C338.657 205.404 335.75 212.44 335.75 219.333C335.75 226.224 338.654 233.028 344.51 238.45L343.49 239.55Z" fill="#616161"/>
<path d="M344.75 194C344.75 194.414 344.414 194.75 344 194.75H337.25C336.836 194.75 336.5 194.414 336.5 194C336.5 193.586 336.836 193.25 337.25 193.25H343.25V187.25C343.25 186.836 343.586 186.5 344 186.5C344.414 186.5 344.75 186.836 344.75 187.25V194ZM343.459 148.48C343.746 148.182 344.221 148.172 344.52 148.459C344.818 148.746 344.828 149.221 344.541 149.52L343.459 148.48ZM343.47 194.53C330.671 181.732 330.686 161.765 343.459 148.48L344.541 149.52C332.314 162.235 332.329 181.268 344.53 193.47L343.47 194.53Z" fill="#616161"/>
<path d="M390.285 324V314.197H392.992C396.447 314.197 398.174 315.79 398.174 318.976C398.174 320.489 397.693 321.705 396.731 322.626C395.774 323.542 394.492 324 392.883 324H390.285ZM391.434 315.236V322.961H392.896C394.182 322.961 395.182 322.617 395.897 321.929C396.613 321.241 396.971 320.265 396.971 319.003C396.971 316.492 395.635 315.236 392.965 315.236H391.434ZM405.577 320.78H400.635C400.653 321.56 400.863 322.161 401.264 322.585C401.665 323.009 402.216 323.221 402.918 323.221C403.706 323.221 404.431 322.961 405.092 322.441V323.494C404.477 323.941 403.663 324.164 402.651 324.164C401.662 324.164 400.885 323.847 400.32 323.214C399.755 322.576 399.473 321.68 399.473 320.527C399.473 319.438 399.78 318.552 400.396 317.868C401.015 317.18 401.783 316.836 402.699 316.836C403.615 316.836 404.324 317.132 404.825 317.725C405.326 318.317 405.577 319.14 405.577 320.192V320.78ZM404.429 319.83C404.424 319.183 404.267 318.679 403.957 318.319C403.652 317.959 403.226 317.779 402.679 317.779C402.15 317.779 401.701 317.968 401.332 318.347C400.963 318.725 400.735 319.219 400.648 319.83H404.429ZM408.428 322.988H408.4V327.22H407.279V317H408.4V318.23H408.428C408.979 317.301 409.786 316.836 410.848 316.836C411.75 316.836 412.454 317.15 412.96 317.779C413.466 318.404 413.719 319.242 413.719 320.295C413.719 321.466 413.434 322.405 412.864 323.111C412.295 323.813 411.515 324.164 410.526 324.164C409.619 324.164 408.92 323.772 408.428 322.988ZM408.4 320.165V321.143C408.4 321.721 408.587 322.214 408.961 322.619C409.339 323.02 409.818 323.221 410.396 323.221C411.076 323.221 411.606 322.961 411.989 322.441C412.377 321.922 412.57 321.2 412.57 320.274C412.57 319.495 412.39 318.884 412.03 318.442C411.67 318 411.183 317.779 410.567 317.779C409.916 317.779 409.392 318.007 408.995 318.463C408.599 318.914 408.4 319.481 408.4 320.165ZM416.631 324H415.51V313.637H416.631V324ZM421.826 324.164C420.792 324.164 419.965 323.838 419.345 323.187C418.729 322.53 418.422 321.662 418.422 320.582C418.422 319.406 418.743 318.488 419.386 317.827C420.028 317.166 420.896 316.836 421.99 316.836C423.034 316.836 423.847 317.157 424.431 317.8C425.019 318.442 425.312 319.333 425.312 320.473C425.312 321.589 424.996 322.485 424.362 323.159C423.733 323.829 422.888 324.164 421.826 324.164ZM421.908 317.779C421.188 317.779 420.618 318.025 420.199 318.518C419.78 319.005 419.57 319.68 419.57 320.541C419.57 321.37 419.782 322.024 420.206 322.503C420.63 322.981 421.197 323.221 421.908 323.221C422.633 323.221 423.189 322.986 423.576 322.517C423.968 322.047 424.164 321.38 424.164 320.514C424.164 319.639 423.968 318.964 423.576 318.49C423.189 318.016 422.633 317.779 421.908 317.779ZM432.675 317L429.455 325.121C428.881 326.57 428.074 327.295 427.035 327.295C426.743 327.295 426.5 327.265 426.304 327.206V326.201C426.545 326.283 426.766 326.324 426.967 326.324C427.532 326.324 427.956 325.987 428.238 325.312L428.799 323.986L426.064 317H427.309L429.202 322.387C429.225 322.455 429.273 322.633 429.346 322.92H429.387C429.41 322.811 429.455 322.637 429.523 322.4L431.513 317H432.675ZM434.91 322.441L433.816 325.805H433.017L433.816 322.441H434.91ZM440.338 323.747V322.544C440.949 322.995 441.621 323.221 442.354 323.221C443.339 323.221 443.831 322.893 443.831 322.236C443.831 322.049 443.788 321.892 443.701 321.765C443.619 321.632 443.505 321.516 443.359 321.416C443.218 321.316 443.049 321.227 442.854 321.149C442.662 321.067 442.455 320.983 442.231 320.896C441.922 320.773 441.648 320.65 441.411 320.527C441.179 320.4 440.983 320.258 440.823 320.104C440.668 319.944 440.55 319.764 440.468 319.563C440.39 319.363 440.352 319.128 440.352 318.859C440.352 318.531 440.427 318.242 440.577 317.991C440.728 317.736 440.928 317.524 441.179 317.355C441.429 317.182 441.714 317.052 442.033 316.966C442.357 316.879 442.689 316.836 443.031 316.836C443.637 316.836 444.18 316.941 444.658 317.15V318.285C444.143 317.948 443.551 317.779 442.881 317.779C442.671 317.779 442.482 317.804 442.313 317.854C442.145 317.9 441.999 317.966 441.876 318.053C441.757 318.139 441.664 318.244 441.596 318.367C441.532 318.486 441.5 318.618 441.5 318.764C441.5 318.946 441.532 319.099 441.596 319.222C441.664 319.345 441.762 319.454 441.89 319.55C442.017 319.646 442.172 319.732 442.354 319.81C442.537 319.887 442.744 319.971 442.977 320.062C443.286 320.181 443.564 320.304 443.811 320.432C444.057 320.555 444.266 320.696 444.439 320.855C444.613 321.01 444.745 321.19 444.836 321.396C444.932 321.601 444.979 321.844 444.979 322.127C444.979 322.473 444.902 322.774 444.747 323.029C444.597 323.285 444.394 323.496 444.139 323.665C443.883 323.834 443.59 323.959 443.257 324.041C442.924 324.123 442.576 324.164 442.211 324.164C441.491 324.164 440.867 324.025 440.338 323.747ZM452.369 324H451.248V322.893H451.221C450.756 323.74 450.036 324.164 449.061 324.164C447.393 324.164 446.559 323.171 446.559 321.184V317H447.673V321.006C447.673 322.482 448.238 323.221 449.368 323.221C449.915 323.221 450.364 323.02 450.715 322.619C451.07 322.214 451.248 321.685 451.248 321.033V317H452.369V324ZM455.787 322.988H455.76V327.22H454.639V317H455.76V318.23H455.787C456.339 317.301 457.145 316.836 458.207 316.836C459.109 316.836 459.813 317.15 460.319 317.779C460.825 318.404 461.078 319.242 461.078 320.295C461.078 321.466 460.793 322.405 460.224 323.111C459.654 323.813 458.875 324.164 457.886 324.164C456.979 324.164 456.279 323.772 455.787 322.988ZM455.76 320.165V321.143C455.76 321.721 455.947 322.214 456.32 322.619C456.699 323.02 457.177 323.221 457.756 323.221C458.435 323.221 458.966 322.961 459.349 322.441C459.736 321.922 459.93 321.2 459.93 320.274C459.93 319.495 459.75 318.884 459.39 318.442C459.03 318 458.542 317.779 457.927 317.779C457.275 317.779 456.751 318.007 456.354 318.463C455.958 318.914 455.76 319.481 455.76 320.165ZM464.018 322.988H463.99V327.22H462.869V317H463.99V318.23H464.018C464.569 317.301 465.376 316.836 466.438 316.836C467.34 316.836 468.044 317.15 468.55 317.779C469.056 318.404 469.309 319.242 469.309 320.295C469.309 321.466 469.024 322.405 468.454 323.111C467.884 323.813 467.105 324.164 466.116 324.164C465.209 324.164 464.51 323.772 464.018 322.988ZM463.99 320.165V321.143C463.99 321.721 464.177 322.214 464.551 322.619C464.929 323.02 465.408 323.221 465.986 323.221C466.665 323.221 467.196 322.961 467.579 322.441C467.966 321.922 468.16 321.2 468.16 320.274C468.16 319.495 467.98 318.884 467.62 318.442C467.26 318 466.772 317.779 466.157 317.779C465.506 317.779 464.981 318.007 464.585 318.463C464.188 318.914 463.99 319.481 463.99 320.165ZM474.025 324.164C472.991 324.164 472.164 323.838 471.544 323.187C470.929 322.53 470.621 321.662 470.621 320.582C470.621 319.406 470.942 318.488 471.585 317.827C472.228 317.166 473.096 316.836 474.189 316.836C475.233 316.836 476.047 317.157 476.63 317.8C477.218 318.442 477.512 319.333 477.512 320.473C477.512 321.589 477.195 322.485 476.562 323.159C475.933 323.829 475.087 324.164 474.025 324.164ZM474.107 317.779C473.387 317.779 472.818 318.025 472.398 318.518C471.979 319.005 471.77 319.68 471.77 320.541C471.77 321.37 471.981 322.024 472.405 322.503C472.829 322.981 473.396 323.221 474.107 323.221C474.832 323.221 475.388 322.986 475.775 322.517C476.167 322.047 476.363 321.38 476.363 320.514C476.363 319.639 476.167 318.964 475.775 318.49C475.388 318.016 474.832 317.779 474.107 317.779ZM482.953 318.135C482.757 317.984 482.475 317.909 482.105 317.909C481.627 317.909 481.226 318.135 480.902 318.586C480.583 319.037 480.424 319.652 480.424 320.432V324H479.303V317H480.424V318.442H480.451C480.611 317.95 480.854 317.567 481.183 317.294C481.511 317.016 481.878 316.877 482.283 316.877C482.575 316.877 482.798 316.909 482.953 316.973V318.135ZM487.417 323.932C487.153 324.077 486.804 324.15 486.371 324.15C485.145 324.15 484.532 323.467 484.532 322.1V317.957H483.329V317H484.532V315.291L485.653 314.929V317H487.417V317.957H485.653V321.901C485.653 322.371 485.733 322.706 485.893 322.906C486.052 323.107 486.316 323.207 486.686 323.207C486.968 323.207 487.212 323.13 487.417 322.975V323.932ZM489.939 322.441L488.846 325.805H488.046L488.846 322.441H489.939ZM500.802 324H499.681V322.906H499.653C499.166 323.745 498.448 324.164 497.5 324.164C496.803 324.164 496.256 323.979 495.859 323.61C495.467 323.241 495.271 322.751 495.271 322.141C495.271 320.833 496.042 320.072 497.582 319.857L499.681 319.563C499.681 318.374 499.2 317.779 498.238 317.779C497.395 317.779 496.634 318.066 495.955 318.641V317.492C496.643 317.055 497.436 316.836 498.334 316.836C499.979 316.836 500.802 317.706 500.802 319.447V324ZM499.681 320.459L497.992 320.691C497.473 320.764 497.081 320.894 496.816 321.081C496.552 321.263 496.42 321.589 496.42 322.059C496.42 322.4 496.541 322.681 496.782 322.899C497.028 323.114 497.354 323.221 497.76 323.221C498.316 323.221 498.774 323.027 499.134 322.64C499.498 322.248 499.681 321.753 499.681 321.156V320.459ZM508.725 324H507.604V320.008C507.604 318.522 507.061 317.779 505.977 317.779C505.416 317.779 504.951 317.991 504.582 318.415C504.217 318.834 504.035 319.365 504.035 320.008V324H502.914V317H504.035V318.162H504.062C504.591 317.278 505.357 316.836 506.359 316.836C507.125 316.836 507.711 317.084 508.116 317.581C508.522 318.073 508.725 318.786 508.725 319.721V324ZM516.818 324H515.697V322.811H515.67C515.15 323.713 514.348 324.164 513.264 324.164C512.384 324.164 511.68 323.852 511.151 323.228C510.627 322.599 510.365 321.744 510.365 320.664C510.365 319.507 510.657 318.579 511.24 317.882C511.824 317.185 512.601 316.836 513.571 316.836C514.533 316.836 515.232 317.214 515.67 317.971H515.697V313.637H516.818V324ZM515.697 320.835V319.803C515.697 319.238 515.51 318.759 515.137 318.367C514.763 317.975 514.289 317.779 513.715 317.779C513.031 317.779 512.493 318.03 512.102 318.531C511.71 319.033 511.514 319.725 511.514 320.609C511.514 321.416 511.701 322.054 512.074 322.523C512.452 322.988 512.958 323.221 513.592 323.221C514.216 323.221 514.722 322.995 515.109 322.544C515.501 322.093 515.697 321.523 515.697 320.835ZM400.074 343H398.953V338.98C398.953 338.206 398.832 337.645 398.591 337.299C398.354 336.952 397.953 336.779 397.388 336.779C396.909 336.779 396.501 336.998 396.164 337.436C395.831 337.873 395.665 338.397 395.665 339.008V343H394.544V338.844C394.544 337.467 394.013 336.779 392.951 336.779C392.459 336.779 392.053 336.987 391.734 337.401C391.415 337.812 391.256 338.347 391.256 339.008V343H390.135V336H391.256V337.107H391.283C391.78 336.26 392.505 335.836 393.457 335.836C393.936 335.836 394.353 335.97 394.708 336.239C395.063 336.504 395.307 336.852 395.439 337.285C395.959 336.319 396.734 335.836 397.764 335.836C399.304 335.836 400.074 336.786 400.074 338.687V343ZM405.119 343.164C404.085 343.164 403.257 342.838 402.638 342.187C402.022 341.53 401.715 340.662 401.715 339.582C401.715 338.406 402.036 337.488 402.679 336.827C403.321 336.166 404.189 335.836 405.283 335.836C406.327 335.836 407.14 336.157 407.724 336.8C408.312 337.442 408.605 338.333 408.605 339.473C408.605 340.589 408.289 341.485 407.655 342.159C407.026 342.829 406.181 343.164 405.119 343.164ZM405.201 336.779C404.481 336.779 403.911 337.025 403.492 337.518C403.073 338.005 402.863 338.68 402.863 339.541C402.863 340.37 403.075 341.024 403.499 341.503C403.923 341.981 404.49 342.221 405.201 342.221C405.926 342.221 406.482 341.986 406.869 341.517C407.261 341.047 407.457 340.38 407.457 339.514C407.457 338.639 407.261 337.964 406.869 337.49C406.482 337.016 405.926 336.779 405.201 336.779ZM416.207 343H415.086V339.008C415.086 337.522 414.544 336.779 413.459 336.779C412.898 336.779 412.434 336.991 412.064 337.415C411.7 337.834 411.518 338.365 411.518 339.008V343H410.396V336H411.518V337.162H411.545C412.074 336.278 412.839 335.836 413.842 335.836C414.607 335.836 415.193 336.084 415.599 336.581C416.004 337.073 416.207 337.786 416.207 338.721V343ZM418.9 334.223C418.7 334.223 418.529 334.154 418.388 334.018C418.246 333.881 418.176 333.708 418.176 333.498C418.176 333.288 418.246 333.115 418.388 332.979C418.529 332.837 418.7 332.767 418.9 332.767C419.105 332.767 419.279 332.837 419.42 332.979C419.566 333.115 419.639 333.288 419.639 333.498C419.639 333.699 419.566 333.869 419.42 334.011C419.279 334.152 419.105 334.223 418.9 334.223ZM419.447 343H418.326V336H419.447V343ZM424.964 342.932C424.7 343.077 424.351 343.15 423.918 343.15C422.692 343.15 422.079 342.467 422.079 341.1V336.957H420.876V336H422.079V334.291L423.2 333.929V336H424.964V336.957H423.2V340.901C423.2 341.371 423.28 341.706 423.439 341.906C423.599 342.107 423.863 342.207 424.232 342.207C424.515 342.207 424.759 342.13 424.964 341.975V342.932ZM429.387 343.164C428.352 343.164 427.525 342.838 426.905 342.187C426.29 341.53 425.982 340.662 425.982 339.582C425.982 338.406 426.304 337.488 426.946 336.827C427.589 336.166 428.457 335.836 429.551 335.836C430.594 335.836 431.408 336.157 431.991 336.8C432.579 337.442 432.873 338.333 432.873 339.473C432.873 340.589 432.556 341.485 431.923 342.159C431.294 342.829 430.449 343.164 429.387 343.164ZM429.469 336.779C428.749 336.779 428.179 337.025 427.76 337.518C427.34 338.005 427.131 338.68 427.131 339.541C427.131 340.37 427.343 341.024 427.767 341.503C428.19 341.981 428.758 342.221 429.469 342.221C430.193 342.221 430.749 341.986 431.137 341.517C431.529 341.047 431.725 340.38 431.725 339.514C431.725 338.639 431.529 337.964 431.137 337.49C430.749 337.016 430.193 336.779 429.469 336.779ZM438.314 337.135C438.118 336.984 437.836 336.909 437.467 336.909C436.988 336.909 436.587 337.135 436.264 337.586C435.945 338.037 435.785 338.652 435.785 339.432V343H434.664V336H435.785V337.442H435.812C435.972 336.95 436.216 336.567 436.544 336.294C436.872 336.016 437.239 335.877 437.645 335.877C437.936 335.877 438.16 335.909 438.314 335.973V337.135Z" fill="url(#paint25_linear_34_14932)"/>
<path d="M396.957 289.59C396.232 289.973 395.33 290.164 394.25 290.164C392.855 290.164 391.739 289.715 390.9 288.817C390.062 287.92 389.643 286.742 389.643 285.283C389.643 283.715 390.114 282.449 391.058 281.482C392.001 280.516 393.197 280.033 394.646 280.033C395.576 280.033 396.346 280.168 396.957 280.437V281.66C396.255 281.268 395.48 281.072 394.633 281.072C393.507 281.072 392.593 281.448 391.892 282.2C391.194 282.952 390.846 283.957 390.846 285.215C390.846 286.409 391.172 287.361 391.823 288.072C392.479 288.779 393.339 289.132 394.4 289.132C395.385 289.132 396.237 288.913 396.957 288.476V289.59ZM402.453 284.135C402.257 283.984 401.975 283.909 401.605 283.909C401.127 283.909 400.726 284.135 400.402 284.586C400.083 285.037 399.924 285.652 399.924 286.432V290H398.803V283H399.924V284.442H399.951C400.111 283.95 400.354 283.567 400.683 283.294C401.011 283.016 401.378 282.877 401.783 282.877C402.075 282.877 402.298 282.909 402.453 282.973V284.135ZM409.296 286.78H404.354C404.372 287.56 404.581 288.161 404.982 288.585C405.383 289.009 405.935 289.221 406.637 289.221C407.425 289.221 408.15 288.961 408.811 288.441V289.494C408.195 289.941 407.382 290.164 406.37 290.164C405.381 290.164 404.604 289.847 404.039 289.214C403.474 288.576 403.191 287.68 403.191 286.527C403.191 285.438 403.499 284.552 404.114 283.868C404.734 283.18 405.502 282.836 406.418 282.836C407.334 282.836 408.043 283.132 408.544 283.725C409.045 284.317 409.296 285.14 409.296 286.192V286.78ZM408.147 285.83C408.143 285.183 407.986 284.679 407.676 284.319C407.37 283.959 406.944 283.779 406.397 283.779C405.869 283.779 405.42 283.968 405.051 284.347C404.682 284.725 404.454 285.219 404.367 285.83H408.147ZM416.009 290H414.888V288.906H414.86C414.373 289.745 413.655 290.164 412.707 290.164C412.01 290.164 411.463 289.979 411.066 289.61C410.674 289.241 410.479 288.751 410.479 288.141C410.479 286.833 411.249 286.072 412.789 285.857L414.888 285.563C414.888 284.374 414.407 283.779 413.445 283.779C412.602 283.779 411.841 284.066 411.162 284.641V283.492C411.85 283.055 412.643 282.836 413.541 282.836C415.186 282.836 416.009 283.706 416.009 285.447V290ZM414.888 286.459L413.199 286.691C412.68 286.764 412.288 286.894 412.023 287.081C411.759 287.263 411.627 287.589 411.627 288.059C411.627 288.4 411.748 288.681 411.989 288.899C412.235 289.114 412.561 289.221 412.967 289.221C413.523 289.221 413.981 289.027 414.341 288.64C414.705 288.248 414.888 287.753 414.888 287.156V286.459ZM421.368 289.932C421.104 290.077 420.755 290.15 420.322 290.15C419.096 290.15 418.483 289.467 418.483 288.1V283.957H417.28V283H418.483V281.291L419.604 280.929V283H421.368V283.957H419.604V287.901C419.604 288.371 419.684 288.706 419.844 288.906C420.003 289.107 420.268 289.207 420.637 289.207C420.919 289.207 421.163 289.13 421.368 288.975V289.932ZM428.491 286.78H423.549C423.567 287.56 423.777 288.161 424.178 288.585C424.579 289.009 425.13 289.221 425.832 289.221C426.62 289.221 427.345 288.961 428.006 288.441V289.494C427.391 289.941 426.577 290.164 425.565 290.164C424.576 290.164 423.799 289.847 423.234 289.214C422.669 288.576 422.387 287.68 422.387 286.527C422.387 285.438 422.694 284.552 423.31 283.868C423.929 283.18 424.697 282.836 425.613 282.836C426.529 282.836 427.238 283.132 427.739 283.725C428.241 284.317 428.491 285.14 428.491 286.192V286.78ZM427.343 285.83C427.338 285.183 427.181 284.679 426.871 284.319C426.566 283.959 426.14 283.779 425.593 283.779C425.064 283.779 424.615 283.968 424.246 284.347C423.877 284.725 423.649 285.219 423.562 285.83H427.343ZM439.046 290H437.925V288.906H437.897C437.41 289.745 436.692 290.164 435.744 290.164C435.047 290.164 434.5 289.979 434.104 289.61C433.712 289.241 433.516 288.751 433.516 288.141C433.516 286.833 434.286 286.072 435.826 285.857L437.925 285.563C437.925 284.374 437.444 283.779 436.482 283.779C435.639 283.779 434.878 284.066 434.199 284.641V283.492C434.887 283.055 435.68 282.836 436.578 282.836C438.223 282.836 439.046 283.706 439.046 285.447V290ZM437.925 286.459L436.236 286.691C435.717 286.764 435.325 286.894 435.061 287.081C434.796 287.263 434.664 287.589 434.664 288.059C434.664 288.4 434.785 288.681 435.026 288.899C435.272 289.114 435.598 289.221 436.004 289.221C436.56 289.221 437.018 289.027 437.378 288.64C437.743 288.248 437.925 287.753 437.925 287.156V286.459ZM446.969 290H445.848V286.008C445.848 284.522 445.305 283.779 444.221 283.779C443.66 283.779 443.195 283.991 442.826 284.415C442.462 284.834 442.279 285.365 442.279 286.008V290H441.158V283H442.279V284.162H442.307C442.835 283.278 443.601 282.836 444.604 282.836C445.369 282.836 445.955 283.084 446.36 283.581C446.766 284.073 446.969 284.786 446.969 285.721V290ZM455.062 290H453.941V288.811H453.914C453.395 289.713 452.592 290.164 451.508 290.164C450.628 290.164 449.924 289.852 449.396 289.228C448.871 288.599 448.609 287.744 448.609 286.664C448.609 285.507 448.901 284.579 449.484 283.882C450.068 283.185 450.845 282.836 451.815 282.836C452.777 282.836 453.477 283.214 453.914 283.971H453.941V279.637H455.062V290ZM453.941 286.835V285.803C453.941 285.238 453.755 284.759 453.381 284.367C453.007 283.975 452.533 283.779 451.959 283.779C451.275 283.779 450.738 284.03 450.346 284.531C449.954 285.033 449.758 285.725 449.758 286.609C449.758 287.416 449.945 288.054 450.318 288.523C450.697 288.988 451.202 289.221 451.836 289.221C452.46 289.221 452.966 288.995 453.354 288.544C453.745 288.093 453.941 287.523 453.941 286.835ZM464.421 289.932C464.157 290.077 463.808 290.15 463.375 290.15C462.149 290.15 461.536 289.467 461.536 288.1V283.957H460.333V283H461.536V281.291L462.657 280.929V283H464.421V283.957H462.657V287.901C462.657 288.371 462.737 288.706 462.896 288.906C463.056 289.107 463.32 289.207 463.689 289.207C463.972 289.207 464.216 289.13 464.421 288.975V289.932ZM471.544 286.78H466.602C466.62 287.56 466.829 288.161 467.23 288.585C467.632 289.009 468.183 289.221 468.885 289.221C469.673 289.221 470.398 288.961 471.059 288.441V289.494C470.443 289.941 469.63 290.164 468.618 290.164C467.629 290.164 466.852 289.847 466.287 289.214C465.722 288.576 465.439 287.68 465.439 286.527C465.439 285.438 465.747 284.552 466.362 283.868C466.982 283.18 467.75 282.836 468.666 282.836C469.582 282.836 470.291 283.132 470.792 283.725C471.293 284.317 471.544 285.14 471.544 286.192V286.78ZM470.396 285.83C470.391 285.183 470.234 284.679 469.924 284.319C469.618 283.959 469.192 283.779 468.646 283.779C468.117 283.779 467.668 283.968 467.299 284.347C466.93 284.725 466.702 285.219 466.615 285.83H470.396ZM472.822 289.747V288.544C473.433 288.995 474.105 289.221 474.839 289.221C475.823 289.221 476.315 288.893 476.315 288.236C476.315 288.049 476.272 287.892 476.186 287.765C476.104 287.632 475.99 287.516 475.844 287.416C475.702 287.316 475.534 287.227 475.338 287.149C475.146 287.067 474.939 286.983 474.716 286.896C474.406 286.773 474.132 286.65 473.896 286.527C473.663 286.4 473.467 286.258 473.308 286.104C473.153 285.944 473.034 285.764 472.952 285.563C472.875 285.363 472.836 285.128 472.836 284.859C472.836 284.531 472.911 284.242 473.062 283.991C473.212 283.736 473.412 283.524 473.663 283.355C473.914 283.182 474.199 283.052 474.518 282.966C474.841 282.879 475.174 282.836 475.516 282.836C476.122 282.836 476.664 282.941 477.143 283.15V284.285C476.628 283.948 476.035 283.779 475.365 283.779C475.156 283.779 474.966 283.804 474.798 283.854C474.629 283.9 474.483 283.966 474.36 284.053C474.242 284.139 474.148 284.244 474.08 284.367C474.016 284.486 473.984 284.618 473.984 284.764C473.984 284.946 474.016 285.099 474.08 285.222C474.148 285.345 474.246 285.454 474.374 285.55C474.502 285.646 474.657 285.732 474.839 285.81C475.021 285.887 475.229 285.971 475.461 286.062C475.771 286.181 476.049 286.304 476.295 286.432C476.541 286.555 476.751 286.696 476.924 286.855C477.097 287.01 477.229 287.19 477.32 287.396C477.416 287.601 477.464 287.844 477.464 288.127C477.464 288.473 477.386 288.774 477.231 289.029C477.081 289.285 476.878 289.496 476.623 289.665C476.368 289.834 476.074 289.959 475.741 290.041C475.409 290.123 475.06 290.164 474.695 290.164C473.975 290.164 473.351 290.025 472.822 289.747ZM482.44 289.932C482.176 290.077 481.827 290.15 481.395 290.15C480.169 290.15 479.556 289.467 479.556 288.1V283.957H478.353V283H479.556V281.291L480.677 280.929V283H482.44V283.957H480.677V287.901C480.677 288.371 480.757 288.706 480.916 288.906C481.076 289.107 481.34 289.207 481.709 289.207C481.992 289.207 482.235 289.13 482.44 288.975V289.932ZM492.551 289.679C492.013 290.002 491.375 290.164 490.637 290.164C489.639 290.164 488.832 289.84 488.217 289.193C487.606 288.542 487.301 287.699 487.301 286.664C487.301 285.511 487.631 284.586 488.292 283.889C488.953 283.187 489.835 282.836 490.938 282.836C491.553 282.836 492.095 282.95 492.564 283.178V284.326C492.045 283.962 491.489 283.779 490.896 283.779C490.181 283.779 489.593 284.037 489.133 284.552C488.677 285.062 488.449 285.734 488.449 286.568C488.449 287.389 488.663 288.036 489.092 288.51C489.525 288.984 490.104 289.221 490.828 289.221C491.439 289.221 492.013 289.018 492.551 288.612V289.679ZM497.172 290.164C496.137 290.164 495.31 289.838 494.69 289.187C494.075 288.53 493.768 287.662 493.768 286.582C493.768 285.406 494.089 284.488 494.731 283.827C495.374 283.166 496.242 282.836 497.336 282.836C498.38 282.836 499.193 283.157 499.776 283.8C500.364 284.442 500.658 285.333 500.658 286.473C500.658 287.589 500.341 288.485 499.708 289.159C499.079 289.829 498.234 290.164 497.172 290.164ZM497.254 283.779C496.534 283.779 495.964 284.025 495.545 284.518C495.126 285.005 494.916 285.68 494.916 286.541C494.916 287.37 495.128 288.024 495.552 288.503C495.976 288.981 496.543 289.221 497.254 289.221C497.979 289.221 498.535 288.986 498.922 288.517C499.314 288.047 499.51 287.38 499.51 286.514C499.51 285.639 499.314 284.964 498.922 284.49C498.535 284.016 497.979 283.779 497.254 283.779ZM508.26 290H507.139V286.008C507.139 284.522 506.596 283.779 505.512 283.779C504.951 283.779 504.486 283.991 504.117 284.415C503.753 284.834 503.57 285.365 503.57 286.008V290H502.449V283H503.57V284.162H503.598C504.126 283.278 504.892 282.836 505.895 282.836C506.66 282.836 507.246 283.084 507.651 283.581C508.057 284.073 508.26 284.786 508.26 285.721V290ZM513.626 289.932C513.362 290.077 513.013 290.15 512.58 290.15C511.354 290.15 510.741 289.467 510.741 288.1V283.957H509.538V283H510.741V281.291L511.862 280.929V283H513.626V283.957H511.862V287.901C511.862 288.371 511.942 288.706 512.102 288.906C512.261 289.107 512.525 289.207 512.895 289.207C513.177 289.207 513.421 289.13 513.626 288.975V289.932ZM520.749 286.78H515.807C515.825 287.56 516.035 288.161 516.436 288.585C516.837 289.009 517.388 289.221 518.09 289.221C518.878 289.221 519.603 288.961 520.264 288.441V289.494C519.648 289.941 518.835 290.164 517.823 290.164C516.834 290.164 516.057 289.847 515.492 289.214C514.927 288.576 514.645 287.68 514.645 286.527C514.645 285.438 514.952 284.552 515.567 283.868C516.187 283.18 516.955 282.836 517.871 282.836C518.787 282.836 519.496 283.132 519.997 283.725C520.498 284.317 520.749 285.14 520.749 286.192V286.78ZM519.601 285.83C519.596 285.183 519.439 284.679 519.129 284.319C518.824 283.959 518.397 283.779 517.851 283.779C517.322 283.779 516.873 283.968 516.504 284.347C516.135 284.725 515.907 285.219 515.82 285.83H519.601ZM528.262 290H527.141V286.008C527.141 284.522 526.598 283.779 525.514 283.779C524.953 283.779 524.488 283.991 524.119 284.415C523.755 284.834 523.572 285.365 523.572 286.008V290H522.451V283H523.572V284.162H523.6C524.128 283.278 524.894 282.836 525.896 282.836C526.662 282.836 527.248 283.084 527.653 283.581C528.059 284.073 528.262 284.786 528.262 285.721V290ZM533.628 289.932C533.364 290.077 533.015 290.15 532.582 290.15C531.356 290.15 530.743 289.467 530.743 288.1V283.957H529.54V283H530.743V281.291L531.864 280.929V283H533.628V283.957H531.864V287.901C531.864 288.371 531.944 288.706 532.104 288.906C532.263 289.107 532.527 289.207 532.896 289.207C533.179 289.207 533.423 289.13 533.628 288.975V289.932Z" fill="url(#paint26_linear_34_14932)"/>
<path d="M352 275.5C352 273.567 353.567 272 355.5 272H374.5C376.433 272 378 273.567 378 275.5V294.5C378 296.433 376.433 298 374.5 298H355.5C353.567 298 352 296.433 352 294.5V275.5Z" fill="url(#paint27_linear_34_14932)"/>
<path d="M352 275.5C352 273.567 353.567 272 355.5 272H374.5C376.433 272 378 273.567 378 275.5V294.5C378 296.433 376.433 298 374.5 298H355.5C353.567 298 352 296.433 352 294.5V275.5Z" fill="url(#paint28_radial_34_14932)" fill-opacity="0.2"/>
<path fill-rule="evenodd" clip-rule="evenodd" d="M374.5 273H355.5C354.119 273 353 274.119 353 275.5V294.5C353 295.881 354.119 297 355.5 297H374.5C375.881 297 377 295.881 377 294.5V275.5C377 274.119 375.881 273 374.5 273ZM355.5 272C353.567 272 352 273.567 352 275.5V294.5C352 296.433 353.567 298 355.5 298H374.5C376.433 298 378 296.433 378 294.5V275.5C378 273.567 376.433 272 374.5 272H355.5Z" fill="url(#paint29_linear_34_14932)"/>
<path d="M370.625 286.125H369.5V292.312C369.5 292.547 369.456 292.767 369.368 292.972C369.28 293.177 369.16 293.355 369.008 293.508C368.855 293.66 368.677 293.78 368.472 293.868C368.267 293.956 368.047 294 367.812 294C367.578 294 367.358 293.956 367.153 293.868C366.948 293.78 366.77 293.66 366.617 293.508C366.465 293.355 366.345 293.177 366.257 292.972C366.169 292.767 366.125 292.547 366.125 292.312V286.125H365V285H367.25V280.175L366.125 279.05V276H369.5V279.05L368.375 280.175V285H370.625V286.125ZM367.25 278.575L367.812 279.146L368.375 278.575V277.125H367.25V278.575ZM368.375 286.125H367.25V292.312C367.25 292.465 367.306 292.597 367.417 292.708C367.528 292.819 367.66 292.875 367.812 292.875C367.965 292.875 368.097 292.819 368.208 292.708C368.319 292.597 368.375 292.465 368.375 292.312V286.125ZM362.188 276C362.574 276 362.938 276.073 363.277 276.22C363.617 276.366 363.913 276.568 364.165 276.826C364.417 277.084 364.619 277.383 364.771 277.723C364.924 278.062 365 278.426 365 278.812C365 279.252 364.9 279.668 364.701 280.061C364.502 280.453 364.227 280.784 363.875 281.054V292.312C363.875 292.547 363.831 292.767 363.743 292.972C363.655 293.177 363.535 293.355 363.383 293.508C363.23 293.66 363.052 293.78 362.847 293.868C362.642 293.956 362.422 294 362.188 294C361.953 294 361.733 293.956 361.528 293.868C361.323 293.78 361.145 293.66 360.992 293.508C360.84 293.355 360.72 293.177 360.632 292.972C360.544 292.767 360.5 292.547 360.5 292.312V281.054C360.148 280.79 359.873 280.462 359.674 280.069C359.475 279.677 359.375 279.258 359.375 278.812C359.375 278.426 359.448 278.062 359.595 277.723C359.741 277.383 359.94 277.087 360.192 276.835C360.444 276.583 360.743 276.381 361.089 276.229C361.435 276.076 361.801 276 362.188 276ZM362.75 280.43C362.914 280.336 363.063 280.236 363.198 280.131C363.333 280.025 363.453 279.911 363.559 279.788C363.664 279.665 363.74 279.521 363.787 279.357C363.834 279.193 363.863 279.012 363.875 278.812C363.875 278.637 363.849 278.467 363.796 278.303C363.743 278.139 363.667 277.986 363.567 277.846C363.468 277.705 363.348 277.582 363.207 277.477C363.066 277.371 362.914 277.289 362.75 277.23V278.812L362.188 279.375L361.625 278.812V277.23C361.455 277.289 361.303 277.371 361.168 277.477C361.033 277.582 360.916 277.705 360.816 277.846C360.717 277.986 360.641 278.139 360.588 278.303C360.535 278.467 360.506 278.637 360.5 278.812C360.5 279.018 360.526 279.199 360.579 279.357C360.632 279.516 360.711 279.656 360.816 279.779C360.922 279.902 361.039 280.02 361.168 280.131C361.297 280.242 361.449 280.342 361.625 280.43V292.312C361.625 292.465 361.681 292.597 361.792 292.708C361.903 292.819 362.035 292.875 362.188 292.875C362.34 292.875 362.472 292.819 362.583 292.708C362.694 292.597 362.75 292.465 362.75 292.312V280.43Z" fill="url(#paint30_linear_34_14932)"/>
<path d="M352 318.5C352 316.567 353.567 315 355.5 315H374.5C376.433 315 378 316.567 378 318.5V337.5C378 339.433 376.433 341 374.5 341H355.5C353.567 341 352 339.433 352 337.5V318.5Z" fill="url(#paint31_linear_34_14932)"/>
<path d="M352 318.5C352 316.567 353.567 315 355.5 315H374.5C376.433 315 378 316.567 378 318.5V337.5C378 339.433 376.433 341 374.5 341H355.5C353.567 341 352 339.433 352 337.5V318.5Z" fill="url(#paint32_radial_34_14932)" fill-opacity="0.2"/>
<path fill-rule="evenodd" clip-rule="evenodd" d="M374.5 316H355.5C354.119 316 353 317.119 353 318.5V337.5C353 338.881 354.119 340 355.5 340H374.5C375.881 340 377 338.881 377 337.5V318.5C377 317.119 375.881 316 374.5 316ZM355.5 315C353.567 315 352 316.567 352 318.5V337.5C352 339.433 353.567 341 355.5 341H374.5C376.433 341 378 339.433 378 337.5V318.5C378 316.567 376.433 315 374.5 315H355.5Z" fill="url(#paint33_linear_34_14932)"/>
<path d="M365.883 324.192C366.076 323.993 366.306 323.835 366.56 323.726C366.815 323.617 367.088 323.56 367.365 323.558C367.641 323.556 367.916 323.609 368.171 323.714C368.427 323.819 368.66 323.974 368.855 324.17C369.05 324.366 369.205 324.599 369.309 324.855C369.413 325.111 369.466 325.386 369.463 325.662C369.46 325.939 369.402 326.212 369.293 326.466C369.183 326.72 369.024 326.95 368.825 327.142C368.432 327.521 367.905 327.73 367.359 327.724C366.813 327.719 366.29 327.499 365.905 327.112C365.519 326.725 365.3 326.203 365.296 325.656C365.293 325.11 365.503 324.584 365.883 324.192ZM367.942 325.075C367.864 324.998 367.772 324.937 367.671 324.895C367.569 324.854 367.461 324.832 367.351 324.833C367.242 324.833 367.133 324.855 367.032 324.897C366.931 324.94 366.84 325.001 366.763 325.079C366.685 325.157 366.624 325.249 366.583 325.35C366.541 325.452 366.52 325.56 366.52 325.67C366.521 325.779 366.543 325.887 366.585 325.988C366.627 326.089 366.689 326.181 366.767 326.258C366.924 326.414 367.136 326.501 367.357 326.5C367.578 326.5 367.79 326.411 367.946 326.254C368.102 326.097 368.189 325.885 368.188 325.664C368.187 325.443 368.099 325.231 367.942 325.075ZM372.925 321.6C372.814 321.247 372.618 320.926 372.355 320.664C372.093 320.403 371.771 320.209 371.417 320.1L370.867 319.925C368.867 319.3 366.7 319.842 365.217 321.317L364.383 322.15C363.823 321.732 363.131 321.528 362.434 321.577C361.736 321.626 361.08 321.924 360.583 322.417L359.542 323.458C359.3 323.7 359.3 324.092 359.542 324.342L360.875 325.667L360.725 325.817C360.15 326.383 360.15 327.308 360.725 327.875L361.142 328.292L359.975 328.958C359.893 329.006 359.823 329.072 359.771 329.151C359.718 329.23 359.684 329.319 359.671 329.413C359.658 329.507 359.667 329.603 359.696 329.693C359.726 329.783 359.776 329.865 359.842 329.933L363.083 333.183C363.151 333.251 363.234 333.302 363.325 333.333C363.416 333.363 363.513 333.372 363.608 333.359C363.703 333.346 363.794 333.312 363.873 333.258C363.953 333.205 364.019 333.133 364.067 333.05L364.733 331.883L365.15 332.3C365.717 332.867 366.633 332.867 367.208 332.3L367.35 332.15L368.683 333.483C368.925 333.717 369.317 333.717 369.558 333.483L370.6 332.442C371.095 331.945 371.394 331.287 371.443 330.587C371.492 329.888 371.287 329.194 370.867 328.633L371.7 327.8C372.423 327.077 372.936 326.17 373.183 325.178C373.429 324.185 373.401 323.144 373.1 322.167L372.925 321.608V321.6ZM371.042 321.283C371.375 321.392 371.625 321.642 371.733 321.975L371.9 322.525C372.383 324.075 371.967 325.775 370.817 326.917L366.317 331.417C366.233 331.5 366.108 331.5 366.025 331.417L361.608 327C361.588 326.981 361.572 326.957 361.561 326.931C361.55 326.906 361.545 326.878 361.545 326.85C361.545 326.822 361.55 326.794 361.561 326.768C361.572 326.743 361.588 326.719 361.608 326.7L366.108 322.2C366.671 321.638 367.377 321.24 368.149 321.049C368.922 320.858 369.732 320.882 370.492 321.117L371.042 321.283ZM369.967 329.533C370.155 329.851 370.233 330.222 370.188 330.589C370.143 330.955 369.977 331.296 369.717 331.558L369.117 332.15L368.233 331.267L369.967 329.533ZM361.467 323.3C361.729 323.04 362.07 322.874 362.436 322.829C362.803 322.784 363.174 322.861 363.492 323.05L361.75 324.783L360.875 323.9L361.458 323.3H361.467ZM363.817 330.967L363.383 331.717L361.3 329.633L362.05 329.208L363.817 330.967ZM360.575 333.333C360.685 333.215 360.746 333.058 360.743 332.896C360.74 332.734 360.674 332.58 360.56 332.465C360.445 332.351 360.291 332.285 360.129 332.282C359.967 332.279 359.81 332.34 359.692 332.45L357.625 334.517C357.515 334.635 357.455 334.792 357.457 334.954C357.46 335.116 357.526 335.27 357.64 335.385C357.755 335.499 357.909 335.565 358.071 335.568C358.233 335.57 358.39 335.51 358.508 335.4L360.575 333.333ZM358.958 330.833C359.2 331.083 359.2 331.475 358.958 331.717L358.067 332.6C357.948 332.71 357.792 332.77 357.63 332.768C357.468 332.765 357.313 332.699 357.199 332.585C357.084 332.47 357.019 332.316 357.016 332.154C357.013 331.992 357.073 331.835 357.183 331.717L358.067 330.833C358.317 330.583 358.708 330.583 358.958 330.833ZM362.192 334.958C362.253 334.901 362.302 334.832 362.337 334.755C362.371 334.679 362.389 334.596 362.391 334.512C362.392 334.428 362.377 334.345 362.345 334.267C362.314 334.189 362.267 334.118 362.208 334.059C362.148 334 362.078 333.953 362 333.922C361.922 333.89 361.839 333.875 361.755 333.876C361.671 333.878 361.588 333.896 361.511 333.93C361.435 333.964 361.366 334.014 361.308 334.075L360.425 334.958C360.315 335.077 360.255 335.233 360.257 335.395C360.26 335.557 360.326 335.712 360.44 335.826C360.555 335.941 360.709 336.006 360.871 336.009C361.033 336.012 361.19 335.952 361.308 335.842L362.192 334.958Z" fill="url(#paint34_linear_34_14932)"/>
<path d="M344.75 329.989C344.756 330.404 344.425 330.744 344.011 330.75L337.261 330.845C336.847 330.851 336.507 330.52 336.501 330.106C336.495 329.691 336.826 329.351 337.24 329.345L343.24 329.261L343.155 323.261C343.149 322.847 343.48 322.507 343.894 322.501C344.309 322.495 344.649 322.826 344.655 323.24L344.75 329.989ZM343.457 287.483C343.743 287.183 344.217 287.171 344.517 287.457C344.817 287.743 344.829 288.217 344.543 288.517L343.457 287.483ZM343.477 330.538C331.163 318.566 331.192 300.361 343.457 287.483L344.543 288.517C332.808 300.839 332.837 318.101 344.523 329.462L343.477 330.538Z" fill="#616161"/>
<path d="M344.749 283.971C344.765 284.385 344.443 284.734 344.029 284.749L337.284 285.009C336.87 285.025 336.521 284.702 336.506 284.288C336.49 283.874 336.812 283.526 337.226 283.51L343.222 283.279L342.991 277.284C342.975 276.87 343.298 276.521 343.712 276.506C344.126 276.49 344.474 276.812 344.49 277.226L344.749 283.971ZM343.47 243.47C343.763 243.177 344.237 243.177 344.53 243.47C344.823 243.763 344.823 244.237 344.53 244.53L343.47 243.47ZM343.49 284.55C337.346 278.861 334.25 271.665 334.25 264.333C334.25 257.004 337.343 249.596 343.47 243.47L344.53 244.53C338.657 250.404 335.75 257.44 335.75 264.333C335.75 271.224 338.654 278.028 344.51 283.45L343.49 284.55Z" fill="#616161"/>
<path d="M360.32 75.3255L365.501 66.5335L370.682 75.3255H360.32ZM376.644 85.4387H354.358L359.008 77.787H371.994L376.644 85.4387ZM376.674 85.4873C376.674 85.4873 376.674 85.4872 376.674 85.4869L376.674 85.4873ZM348.544 95.4933L353.168 87.8417H377.874L382.417 95.4046L348.544 95.4933Z" fill="white"/>
<path d="M360.32 75.3255L365.501 66.5335L370.682 75.3255H360.32ZM376.644 85.4387H354.358L359.008 77.787H371.994L376.644 85.4387ZM376.674 85.4873C376.674 85.4873 376.674 85.4872 376.674 85.4869L376.674 85.4873ZM348.544 95.4933L353.168 87.8417H377.874L382.417 95.4046L348.544 95.4933Z" fill="url(#paint35_linear_34_14932)" fill-opacity="0.33"/>
<path d="M360.32 75.3255L365.501 66.5335L370.682 75.3255H360.32ZM376.644 85.4387H354.358L359.008 77.787H371.994L376.644 85.4387ZM376.674 85.4873C376.674 85.4873 376.674 85.4872 376.674 85.4869L376.674 85.4873ZM348.544 95.4933L353.168 87.8417H377.874L382.417 95.4046L348.544 95.4933Z" stroke="url(#paint36_linear_34_14932)"/>
<path d="M352.886 87.3417H378.157L382.875 95.1954C383.062 95.5066 382.839 95.9035 382.477 95.9044L348.487 95.9934C348.123 95.9944 347.898 95.5955 348.087 95.2833L352.886 87.3417Z" fill="url(#paint37_linear_34_14932)"/>
<defs>
<filter id="filter0_f_34_14932" x="320" y="45" width="244" height="329" filterUnits="userSpaceOnUse" color-interpolation-filters="sRGB">
<feFlood flood-opacity="0" result="BackgroundImageFix"/>
<feBlend mode="normal" in="SourceGraphic" in2="BackgroundImageFix" result="shape"/>
<feGaussianBlur stdDeviation="2.5" result="effect1_foregroundBlur_34_14932"/>
</filter>
<radialGradient id="paint0_radial_34_14932" cx="0" cy="0" r="1" gradientUnits="userSpaceOnUse" gradientTransform="translate(132.812 45.8789) rotate(21.1819) scale(910.022 483.925)">
<stop offset="0.198869" stop-color="#8EE3E8"/>
<stop offset="1" stop-color="#19177E"/>
</radialGradient>
<linearGradient id="paint1_linear_34_14932" x1="357.933" y1="208.224" x2="459.175" y2="223.538" gradientUnits="userSpaceOnUse">
<stop stop-color="white"/>
<stop offset="1" stop-color="#FAFAFA"/>
</linearGradient>
<linearGradient id="paint2_linear_34_14932" x1="335" y1="262" x2="353.902" y2="349.937" gradientUnits="userSpaceOnUse">
<stop stop-color="#87415A"/>
<stop offset="1" stop-color="#521A32"/>
</linearGradient>
<linearGradient id="paint3_linear_34_14932" x1="389" y1="70" x2="394.387" y2="111.297" gradientUnits="userSpaceOnUse">
<stop stop-color="#87415A"/>
<stop offset="1" stop-color="#521A32"/>
</linearGradient>
<linearGradient id="paint4_linear_34_14932" x1="389" y1="135" x2="401.598" y2="196.416" gradientUnits="userSpaceOnUse">
<stop stop-color="#87415A"/>
<stop offset="1" stop-color="#521A32"/>
</linearGradient>
<linearGradient id="paint5_linear_34_14932" x1="389" y1="225" x2="401.598" y2="286.416" gradientUnits="userSpaceOnUse">
<stop stop-color="#87415A"/>
<stop offset="1" stop-color="#521A32"/>
</linearGradient>
<linearGradient id="paint6_linear_34_14932" x1="389" y1="179" x2="401.598" y2="240.416" gradientUnits="userSpaceOnUse">
<stop stop-color="#87415A"/>
<stop offset="1" stop-color="#521A32"/>
</linearGradient>
<linearGradient id="paint7_linear_34_14932" x1="359.222" y1="139" x2="362.511" y2="165.311" gradientUnits="userSpaceOnUse">
<stop stop-color="white"/>
<stop offset="1" stop-color="#EBEBEB"/>
</linearGradient>
<radialGradient id="paint8_radial_34_14932" cx="0" cy="0" r="1" gradientUnits="userSpaceOnUse" gradientTransform="translate(360.306 145.771) rotate(56.3099) scale(24.7381 21.408)">
<stop offset="0.177083" stop-color="white"/>
<stop offset="1" stop-color="#B8B8B8"/>
</radialGradient>
<linearGradient id="paint9_linear_34_14932" x1="360.396" y1="139" x2="363.897" y2="165.256" gradientUnits="userSpaceOnUse">
<stop stop-color="#BBBBBB"/>
<stop offset="1" stop-color="#888888"/>
</linearGradient>
<linearGradient id="paint10_linear_34_14932" x1="370.112" y1="144.292" x2="372.276" y2="146.471" gradientUnits="userSpaceOnUse">
<stop stop-color="#87415A"/>
<stop offset="1" stop-color="#521A32"/>
</linearGradient>
<linearGradient id="paint11_linear_34_14932" x1="366.875" y1="149.604" x2="373.075" y2="153.059" gradientUnits="userSpaceOnUse">
<stop stop-color="#87415A"/>
<stop offset="1" stop-color="#521A32"/>
</linearGradient>
<linearGradient id="paint12_linear_34_14932" x1="356.458" y1="144.708" x2="371.098" y2="161.616" gradientUnits="userSpaceOnUse">
<stop stop-color="#87415A"/>
<stop offset="1" stop-color="#521A32"/>
</linearGradient>
<linearGradient id="paint13_linear_34_14932" x1="361.562" y1="149.604" x2="367.763" y2="153.059" gradientUnits="userSpaceOnUse">
<stop stop-color="#87415A"/>
<stop offset="1" stop-color="#521A32"/>
</linearGradient>
<linearGradient id="paint14_linear_34_14932" x1="364.062" y1="145.449" x2="371.134" y2="152.522" gradientUnits="userSpaceOnUse">
<stop stop-color="#87415A"/>
<stop offset="1" stop-color="#521A32"/>
</linearGradient>
<linearGradient id="paint15_linear_34_14932" x1="359.222" y1="183" x2="362.511" y2="209.311" gradientUnits="userSpaceOnUse">
<stop stop-color="white"/>
<stop offset="1" stop-color="#EBEBEB"/>
</linearGradient>
<radialGradient id="paint16_radial_34_14932" cx="0" cy="0" r="1" gradientUnits="userSpaceOnUse" gradientTransform="translate(360.306 189.771) rotate(56.3099) scale(24.7381 21.408)">
<stop offset="0.177083" stop-color="white"/>
<stop offset="1" stop-color="#B8B8B8"/>
</radialGradient>
<linearGradient id="paint17_linear_34_14932" x1="360.396" y1="183" x2="363.897" y2="209.256" gradientUnits="userSpaceOnUse">
<stop stop-color="#BBBBBB"/>
<stop offset="1" stop-color="#888888"/>
</linearGradient>
<linearGradient id="paint18_linear_34_14932" x1="358.25" y1="186" x2="375.53" y2="198.96" gradientUnits="userSpaceOnUse">
<stop stop-color="#87415A"/>
<stop offset="1" stop-color="#521A32"/>
</linearGradient>
<linearGradient id="paint19_linear_34_14932" x1="359.222" y1="226" x2="362.511" y2="252.311" gradientUnits="userSpaceOnUse">
<stop stop-color="white"/>
<stop offset="1" stop-color="#EBEBEB"/>
</linearGradient>
<radialGradient id="paint20_radial_34_14932" cx="0" cy="0" r="1" gradientUnits="userSpaceOnUse" gradientTransform="translate(360.306 232.771) rotate(56.3099) scale(24.7381 21.408)">
<stop offset="0.177083" stop-color="white"/>
<stop offset="1" stop-color="#B8B8B8"/>
</radialGradient>
<linearGradient id="paint21_linear_34_14932" x1="360.396" y1="226" x2="363.897" y2="252.256" gradientUnits="userSpaceOnUse">
<stop stop-color="#BBBBBB"/>
<stop offset="1" stop-color="#888888"/>
</linearGradient>
<linearGradient id="paint22_linear_34_14932" x1="356.703" y1="230.562" x2="362.539" y2="237.372" gradientUnits="userSpaceOnUse">
<stop stop-color="#87415A"/>
<stop offset="1" stop-color="#521A32"/>
</linearGradient>
<linearGradient id="paint23_linear_34_14932" x1="366.406" y1="241.531" x2="372.243" y2="248.341" gradientUnits="userSpaceOnUse">
<stop stop-color="#87415A"/>
<stop offset="1" stop-color="#521A32"/>
</linearGradient>
<linearGradient id="paint24_linear_34_14932" x1="356.562" y1="230.562" x2="373.437" y2="247.437" gradientUnits="userSpaceOnUse">
<stop stop-color="#87415A"/>
<stop offset="1" stop-color="#521A32"/>
</linearGradient>
<linearGradient id="paint25_linear_34_14932" x1="389" y1="312" x2="401.598" y2="373.416" gradientUnits="userSpaceOnUse">
<stop stop-color="#87415A"/>
<stop offset="1" stop-color="#521A32"/>
</linearGradient>
<linearGradient id="paint26_linear_34_14932" x1="389" y1="274" x2="394.045" y2="313.353" gradientUnits="userSpaceOnUse">
<stop stop-color="#87415A"/>
<stop offset="1" stop-color="#521A32"/>
</linearGradient>
<linearGradient id="paint27_linear_34_14932" x1="359.222" y1="272" x2="362.511" y2="298.311" gradientUnits="userSpaceOnUse">
<stop stop-color="white"/>
<stop offset="1" stop-color="#EBEBEB"/>
</linearGradient>
<radialGradient id="paint28_radial_34_14932" cx="0" cy="0" r="1" gradientUnits="userSpaceOnUse" gradientTransform="translate(360.306 278.771) rotate(56.3099) scale(24.7381 21.408)">
<stop offset="0.177083" stop-color="white"/>
<stop offset="1" stop-color="#B8B8B8"/>
</radialGradient>
<linearGradient id="paint29_linear_34_14932" x1="360.396" y1="272" x2="363.897" y2="298.256" gradientUnits="userSpaceOnUse">
<stop stop-color="#BBBBBB"/>
<stop offset="1" stop-color="#888888"/>
</linearGradient>
<linearGradient id="paint30_linear_34_14932" x1="359.375" y1="276" x2="375.555" y2="286.112" gradientUnits="userSpaceOnUse">
<stop stop-color="#87415A"/>
<stop offset="1" stop-color="#521A32"/>
</linearGradient>
<linearGradient id="paint31_linear_34_14932" x1="359.222" y1="315" x2="362.511" y2="341.311" gradientUnits="userSpaceOnUse">
<stop stop-color="white"/>
<stop offset="1" stop-color="#EBEBEB"/>
</linearGradient>
<radialGradient id="paint32_radial_34_14932" cx="0" cy="0" r="1" gradientUnits="userSpaceOnUse" gradientTransform="translate(360.306 321.771) rotate(56.3099) scale(24.7381 21.408)">
<stop offset="0.177083" stop-color="white"/>
<stop offset="1" stop-color="#B8B8B8"/>
</radialGradient>
<linearGradient id="paint33_linear_34_14932" x1="360.396" y1="315" x2="363.897" y2="341.256" gradientUnits="userSpaceOnUse">
<stop stop-color="#BBBBBB"/>
<stop offset="1" stop-color="#888888"/>
</linearGradient>
<linearGradient id="paint34_linear_34_14932" x1="357.016" y1="319.669" x2="373.356" y2="336.002" gradientUnits="userSpaceOnUse">
<stop stop-color="#87415A"/>
<stop offset="1" stop-color="#521A32"/>
</linearGradient>
<linearGradient id="paint35_linear_34_14932" x1="352.934" y1="80.8768" x2="367.547" y2="84.3855" gradientUnits="userSpaceOnUse">
<stop stop-color="white"/>
<stop offset="1" stop-color="#FAFAFA"/>
</linearGradient>
<linearGradient id="paint36_linear_34_14932" x1="348.019" y1="66" x2="377.668" y2="100.523" gradientUnits="userSpaceOnUse">
<stop stop-color="#87415A"/>
<stop offset="1" stop-color="#521A32"/>
</linearGradient>
<linearGradient id="paint37_linear_34_14932" x1="348.019" y1="87.3417" x2="352.057" y2="103.645" gradientUnits="userSpaceOnUse">
<stop stop-color="#87415A"/>
<stop offset="1" stop-color="#521A32"/>
</linearGradient>
<clipPath id="clip0_34_14932">
<rect width="18" height="18" fill="white" transform="translate(356 230)"/>
</clipPath>
</defs>
</svg>
