<svg width="1121" height="938" viewBox="0 0 1121 938" fill="none" xmlns="http://www.w3.org/2000/svg">
<rect width="1121" height="938" fill="white"/>
<rect width="1121" height="938" fill="url(#paint0_linear_7_527)" fill-opacity="0.05"/>
<rect width="1121" height="938" fill="url(#paint1_radial_7_527)" fill-opacity="0.08"/>
<rect x="0.5" y="0.5" width="1120" height="937" stroke="#333333" stroke-opacity="0.2"/>
<g filter="url(#filter0_f_7_527)">
<rect x="101" y="310.618" width="307.38" height="203.037" rx="20" fill="#CCCCCC" fill-opacity="0.8"/>
</g>
<path d="M101 330.618C101 319.573 109.954 310.618 121 310.618H408.38V513.655H121C109.954 513.655 101 504.701 101 493.655V330.618Z" fill="white"/>
<path d="M101 330.618C101 319.573 109.954 310.618 121 310.618H408.38V513.655H121C109.954 513.655 101 504.701 101 493.655V330.618Z" fill="url(#paint2_linear_7_527)" fill-opacity="0.33"/>
<path d="M150.759 406H147.445L145.808 401.366H138.647L137.073 406H133.772L140.59 387.795H143.992L150.759 406ZM145.008 398.903L142.481 391.642C142.405 391.405 142.325 391.024 142.24 390.499H142.189C142.113 390.981 142.029 391.362 141.936 391.642L139.435 398.903H145.008ZM162.248 405.403C161.207 406.004 159.976 406.305 158.554 406.305C156.624 406.305 155.067 405.704 153.882 404.502C152.697 403.292 152.104 401.726 152.104 399.805C152.104 397.663 152.739 395.945 154.009 394.65C155.287 393.347 156.992 392.695 159.125 392.695C160.31 392.695 161.355 392.903 162.261 393.317V396.06C161.355 395.382 160.39 395.044 159.366 395.044C158.122 395.044 157.102 395.467 156.307 396.313C155.511 397.151 155.113 398.252 155.113 399.614C155.113 400.96 155.486 402.022 156.23 402.801C156.984 403.579 157.991 403.969 159.252 403.969C160.31 403.969 161.309 403.592 162.248 402.839V405.403ZM172.036 405.86C171.461 406.148 170.703 406.292 169.764 406.292C167.242 406.292 165.98 405.082 165.98 402.661V395.311H163.81V393H165.98V389.991L168.926 389.153V393H172.036V395.311H168.926V401.811C168.926 402.581 169.065 403.131 169.345 403.461C169.624 403.791 170.09 403.956 170.741 403.956C171.241 403.956 171.672 403.812 172.036 403.524V405.86ZM176.061 390.271C175.578 390.271 175.163 390.114 174.816 389.801C174.478 389.488 174.309 389.09 174.309 388.607C174.309 388.125 174.478 387.723 174.816 387.401C175.163 387.08 175.578 386.919 176.061 386.919C176.56 386.919 176.983 387.08 177.33 387.401C177.677 387.723 177.851 388.125 177.851 388.607C177.851 389.064 177.677 389.458 177.33 389.788C176.983 390.11 176.56 390.271 176.061 390.271ZM177.521 406H174.575V393H177.521V406ZM192.577 393L187.55 406H184.363L179.577 393H182.776L185.658 402.09C185.878 402.758 186.014 403.342 186.064 403.842H186.103C186.179 403.215 186.297 402.648 186.458 402.141L189.479 393H192.577ZM205.387 400.3H196.525C196.559 401.502 196.927 402.428 197.63 403.08C198.341 403.732 199.314 404.058 200.55 404.058C201.938 404.058 203.212 403.643 204.371 402.813V405.188C203.186 405.932 201.62 406.305 199.674 406.305C197.761 406.305 196.259 405.716 195.167 404.54C194.084 403.355 193.542 401.692 193.542 399.551C193.542 397.528 194.139 395.882 195.332 394.612C196.534 393.334 198.023 392.695 199.801 392.695C201.578 392.695 202.953 393.267 203.927 394.409C204.9 395.552 205.387 397.139 205.387 399.17V400.3ZM202.543 398.218C202.535 397.16 202.285 396.339 201.794 395.755C201.303 395.162 200.626 394.866 199.763 394.866C198.916 394.866 198.197 395.175 197.604 395.793C197.021 396.411 196.661 397.219 196.525 398.218H202.543ZM216.838 390.271C216.355 390.271 215.941 390.114 215.594 389.801C215.255 389.488 215.086 389.09 215.086 388.607C215.086 388.125 215.255 387.723 215.594 387.401C215.941 387.08 216.355 386.919 216.838 386.919C217.337 386.919 217.76 387.08 218.107 387.401C218.454 387.723 218.628 388.125 218.628 388.607C218.628 389.064 218.454 389.458 218.107 389.788C217.76 390.11 217.337 390.271 216.838 390.271ZM218.298 406H215.353V393H218.298V406ZM233.735 406H230.79V398.675C230.79 396.246 229.931 395.031 228.213 395.031C227.316 395.031 226.575 395.37 225.991 396.047C225.407 396.715 225.115 397.562 225.115 398.586V406H222.157V393H225.115V395.158H225.166C226.139 393.516 227.544 392.695 229.381 392.695C230.794 392.695 231.873 393.157 232.618 394.079C233.363 394.993 233.735 396.318 233.735 398.053V406ZM248.538 393L243.511 406H240.324L235.538 393H238.737L241.619 402.09C241.839 402.758 241.975 403.342 242.025 403.842H242.063C242.14 403.215 242.258 402.648 242.419 402.141L245.44 393H248.538ZM256.104 406.305C254.099 406.305 252.495 405.7 251.293 404.489C250.1 403.271 249.503 401.658 249.503 399.652C249.503 397.469 250.125 395.763 251.369 394.536C252.622 393.309 254.306 392.695 256.422 392.695C258.453 392.695 260.036 393.292 261.17 394.485C262.304 395.679 262.871 397.333 262.871 399.449C262.871 401.523 262.257 403.186 261.03 404.438C259.812 405.683 258.17 406.305 256.104 406.305ZM256.244 395.044C255.093 395.044 254.183 395.446 253.515 396.25C252.846 397.054 252.512 398.163 252.512 399.576C252.512 400.939 252.85 402.014 253.527 402.801C254.204 403.579 255.11 403.969 256.244 403.969C257.404 403.969 258.292 403.584 258.91 402.813C259.536 402.043 259.85 400.947 259.85 399.525C259.85 398.095 259.536 396.991 258.91 396.212C258.292 395.433 257.404 395.044 256.244 395.044ZM268.838 406H265.88V386.754H268.838V406ZM283.882 393L278.854 406H275.668L270.882 393H274.081L276.963 402.09C277.183 402.758 277.318 403.342 277.369 403.842H277.407C277.483 403.215 277.602 402.648 277.763 402.141L280.784 393H283.882ZM296.691 400.3H287.83C287.864 401.502 288.232 402.428 288.935 403.08C289.646 403.732 290.619 404.058 291.854 404.058C293.243 404.058 294.516 403.643 295.676 402.813V405.188C294.491 405.932 292.925 406.305 290.979 406.305C289.066 406.305 287.563 405.716 286.472 404.54C285.388 403.355 284.847 401.692 284.847 399.551C284.847 397.528 285.443 395.882 286.637 394.612C287.839 393.334 289.328 392.695 291.105 392.695C292.883 392.695 294.258 393.267 295.231 394.409C296.205 395.552 296.691 397.139 296.691 399.17V400.3ZM293.848 398.218C293.839 397.16 293.59 396.339 293.099 395.755C292.608 395.162 291.931 394.866 291.067 394.866C290.221 394.866 289.502 395.175 288.909 395.793C288.325 396.411 287.965 397.219 287.83 398.218H293.848ZM318.934 406H315.988V398.916C315.988 397.553 315.794 396.567 315.404 395.958C315.023 395.349 314.376 395.044 313.462 395.044C312.692 395.044 312.036 395.429 311.494 396.199C310.961 396.969 310.694 397.892 310.694 398.967V406H307.736V398.675C307.736 396.254 306.882 395.044 305.172 395.044C304.376 395.044 303.72 395.408 303.204 396.136C302.696 396.864 302.442 397.807 302.442 398.967V406H299.497V393H302.442V395.057H302.493C303.433 393.482 304.799 392.695 306.594 392.695C307.491 392.695 308.274 392.945 308.942 393.444C309.619 393.935 310.081 394.583 310.326 395.387C311.291 393.592 312.73 392.695 314.643 392.695C317.503 392.695 318.934 394.46 318.934 397.989V406ZM333.533 400.3H324.672C324.706 401.502 325.074 402.428 325.776 403.08C326.487 403.732 327.461 404.058 328.696 404.058C330.084 404.058 331.358 403.643 332.518 402.813V405.188C331.333 405.932 329.767 406.305 327.82 406.305C325.908 406.305 324.405 405.716 323.313 404.54C322.23 403.355 321.688 401.692 321.688 399.551C321.688 397.528 322.285 395.882 323.479 394.612C324.68 393.334 326.17 392.695 327.947 392.695C329.725 392.695 331.1 393.267 332.073 394.409C333.047 395.552 333.533 397.139 333.533 399.17V400.3ZM330.689 398.218C330.681 397.16 330.431 396.339 329.94 395.755C329.45 395.162 328.772 394.866 327.909 394.866C327.063 394.866 326.343 395.175 325.751 395.793C325.167 396.411 324.807 397.219 324.672 398.218H330.689ZM347.917 406H344.972V398.675C344.972 396.246 344.113 395.031 342.395 395.031C341.497 395.031 340.757 395.37 340.173 396.047C339.589 396.715 339.297 397.562 339.297 398.586V406H336.339V393H339.297V395.158H339.348C340.321 393.516 341.726 392.695 343.562 392.695C344.976 392.695 346.055 393.157 346.8 394.079C347.545 394.993 347.917 396.318 347.917 398.053V406ZM358.378 405.86C357.802 406.148 357.045 406.292 356.105 406.292C353.583 406.292 352.322 405.082 352.322 402.661V395.311H350.151V393H352.322V389.991L355.268 389.153V393H358.378V395.311H355.268V401.811C355.268 402.581 355.407 403.131 355.687 403.461C355.966 403.791 356.431 403.956 357.083 403.956C357.582 403.956 358.014 403.812 358.378 403.524V405.86ZM150.137 424.153C149.739 423.925 149.286 423.811 148.778 423.811C147.348 423.811 146.633 424.619 146.633 426.235V428H149.654V430.311H146.646V441H143.7V430.311H141.479V428H143.7V425.893C143.7 424.521 144.149 423.442 145.046 422.655C145.943 421.86 147.064 421.462 148.41 421.462C149.138 421.462 149.714 421.542 150.137 421.703V424.153ZM159.29 430.806C158.935 430.526 158.423 430.387 157.754 430.387C156.882 430.387 156.154 430.78 155.57 431.567C154.986 432.354 154.694 433.425 154.694 434.779V441H151.749V428H154.694V430.679H154.745C155.033 429.765 155.473 429.054 156.065 428.546C156.666 428.03 157.335 427.771 158.071 427.771C158.604 427.771 159.011 427.852 159.29 428.013V430.806ZM166.907 441.305C164.901 441.305 163.298 440.7 162.096 439.489C160.902 438.271 160.306 436.658 160.306 434.652C160.306 432.469 160.928 430.763 162.172 429.536C163.424 428.309 165.109 427.695 167.225 427.695C169.256 427.695 170.839 428.292 171.973 429.485C173.107 430.679 173.674 432.333 173.674 434.449C173.674 436.523 173.06 438.186 171.833 439.438C170.614 440.683 168.972 441.305 166.907 441.305ZM167.047 430.044C165.896 430.044 164.986 430.446 164.317 431.25C163.649 432.054 163.314 433.163 163.314 434.576C163.314 435.939 163.653 437.014 164.33 437.801C165.007 438.579 165.913 438.969 167.047 438.969C168.206 438.969 169.095 438.584 169.713 437.813C170.339 437.043 170.652 435.947 170.652 434.525C170.652 433.095 170.339 431.991 169.713 431.212C169.095 430.433 168.206 430.044 167.047 430.044ZM196.119 441H193.174V433.916C193.174 432.553 192.979 431.567 192.59 430.958C192.209 430.349 191.562 430.044 190.647 430.044C189.877 430.044 189.221 430.429 188.68 431.199C188.146 431.969 187.88 432.892 187.88 433.967V441H184.922V433.675C184.922 431.254 184.067 430.044 182.357 430.044C181.562 430.044 180.906 430.408 180.39 431.136C179.882 431.864 179.628 432.807 179.628 433.967V441H176.683V428H179.628V430.057H179.679C180.618 428.482 181.985 427.695 183.779 427.695C184.676 427.695 185.459 427.945 186.128 428.444C186.805 428.935 187.266 429.583 187.512 430.387C188.477 428.592 189.915 427.695 191.828 427.695C194.689 427.695 196.119 429.46 196.119 432.989V441ZM209.868 439.121H209.817V441H206.872V421.754H209.817V430.285H209.868C210.875 428.559 212.348 427.695 214.286 427.695C215.928 427.695 217.21 428.279 218.133 429.447C219.064 430.607 219.529 432.164 219.529 434.119C219.529 436.294 219.009 438.038 217.968 439.35C216.927 440.653 215.505 441.305 213.702 441.305C212.009 441.305 210.731 440.577 209.868 439.121ZM209.792 433.954V435.566C209.792 436.514 210.092 437.318 210.693 437.979C211.303 438.639 212.073 438.969 213.004 438.969C214.096 438.969 214.951 438.546 215.568 437.699C216.195 436.844 216.508 435.655 216.508 434.132C216.508 432.854 216.216 431.855 215.632 431.136C215.056 430.408 214.273 430.044 213.283 430.044C212.234 430.044 211.387 430.416 210.744 431.161C210.109 431.906 209.792 432.837 209.792 433.954ZM233.875 441H230.93V438.943H230.879C230.024 440.518 228.695 441.305 226.893 441.305C223.82 441.305 222.284 439.46 222.284 435.77V428H225.229V435.465C225.229 437.801 226.131 438.969 227.934 438.969C228.805 438.969 229.521 438.647 230.079 438.004C230.646 437.361 230.93 436.519 230.93 435.478V428H233.875V441ZM236.909 440.594V437.864C238.009 438.702 239.224 439.121 240.553 439.121C242.33 439.121 243.219 438.596 243.219 437.547C243.219 437.251 243.143 437.001 242.99 436.798C242.838 436.586 242.631 436.4 242.368 436.239C242.114 436.078 241.81 435.935 241.454 435.808C241.107 435.681 240.718 435.537 240.286 435.376C239.753 435.164 239.271 434.94 238.839 434.703C238.416 434.466 238.06 434.2 237.772 433.903C237.493 433.599 237.282 433.256 237.138 432.875C236.994 432.494 236.922 432.05 236.922 431.542C236.922 430.916 237.07 430.366 237.366 429.892C237.662 429.409 238.06 429.007 238.56 428.686C239.059 428.355 239.626 428.11 240.261 427.949C240.896 427.78 241.551 427.695 242.229 427.695C243.43 427.695 244.505 427.877 245.453 428.241V430.818C244.539 430.192 243.49 429.879 242.305 429.879C241.932 429.879 241.594 429.917 241.289 429.993C240.993 430.069 240.739 430.175 240.527 430.311C240.316 430.446 240.151 430.611 240.032 430.806C239.914 430.992 239.854 431.199 239.854 431.428C239.854 431.707 239.914 431.944 240.032 432.139C240.151 432.333 240.324 432.507 240.553 432.659C240.79 432.803 241.069 432.938 241.391 433.065C241.721 433.184 242.097 433.315 242.521 433.459C243.079 433.688 243.578 433.92 244.019 434.157C244.467 434.394 244.848 434.665 245.161 434.97C245.474 435.266 245.715 435.613 245.885 436.011C246.054 436.4 246.139 436.866 246.139 437.407C246.139 438.067 245.986 438.643 245.682 439.134C245.377 439.625 244.971 440.031 244.463 440.353C243.955 440.674 243.367 440.911 242.698 441.063C242.038 441.224 241.34 441.305 240.604 441.305C239.182 441.305 237.95 441.068 236.909 440.594ZM250.43 425.271C249.947 425.271 249.533 425.114 249.186 424.801C248.847 424.488 248.678 424.09 248.678 423.607C248.678 423.125 248.847 422.723 249.186 422.401C249.533 422.08 249.947 421.919 250.43 421.919C250.929 421.919 251.352 422.08 251.699 422.401C252.046 422.723 252.22 423.125 252.22 423.607C252.22 424.064 252.046 424.458 251.699 424.788C251.352 425.11 250.929 425.271 250.43 425.271ZM251.89 441H248.944V428H251.89V441ZM267.327 441H264.382V433.675C264.382 431.246 263.523 430.031 261.805 430.031C260.908 430.031 260.167 430.37 259.583 431.047C258.999 431.715 258.707 432.562 258.707 433.586V441H255.749V428H258.707V430.158H258.758C259.731 428.516 261.136 427.695 262.973 427.695C264.386 427.695 265.465 428.157 266.21 429.079C266.955 429.993 267.327 431.318 267.327 433.053V441ZM281.939 435.3H273.078C273.112 436.502 273.48 437.428 274.183 438.08C274.894 438.732 275.867 439.058 277.103 439.058C278.491 439.058 279.764 438.643 280.924 437.813V440.188C279.739 440.932 278.173 441.305 276.227 441.305C274.314 441.305 272.812 440.716 271.72 439.54C270.636 438.355 270.095 436.692 270.095 434.551C270.095 432.528 270.691 430.882 271.885 429.612C273.087 428.334 274.576 427.695 276.354 427.695C278.131 427.695 279.506 428.267 280.479 429.409C281.453 430.552 281.939 432.139 281.939 434.17V435.3ZM279.096 433.218C279.087 432.16 278.838 431.339 278.347 430.755C277.856 430.162 277.179 429.866 276.315 429.866C275.469 429.866 274.75 430.175 274.157 430.793C273.573 431.411 273.214 432.219 273.078 433.218H279.096ZM283.933 440.594V437.864C285.033 438.702 286.247 439.121 287.576 439.121C289.354 439.121 290.242 438.596 290.242 437.547C290.242 437.251 290.166 437.001 290.014 436.798C289.861 436.586 289.654 436.4 289.392 436.239C289.138 436.078 288.833 435.935 288.478 435.808C288.131 435.681 287.741 435.537 287.31 435.376C286.776 435.164 286.294 434.94 285.862 434.703C285.439 434.466 285.084 434.2 284.796 433.903C284.517 433.599 284.305 433.256 284.161 432.875C284.017 432.494 283.945 432.05 283.945 431.542C283.945 430.916 284.093 430.366 284.39 429.892C284.686 429.409 285.084 429.007 285.583 428.686C286.082 428.355 286.649 428.11 287.284 427.949C287.919 427.78 288.575 427.695 289.252 427.695C290.454 427.695 291.529 427.877 292.477 428.241V430.818C291.562 430.192 290.513 429.879 289.328 429.879C288.956 429.879 288.617 429.917 288.312 429.993C288.016 430.069 287.762 430.175 287.551 430.311C287.339 430.446 287.174 430.611 287.056 430.806C286.937 430.992 286.878 431.199 286.878 431.428C286.878 431.707 286.937 431.944 287.056 432.139C287.174 432.333 287.348 432.507 287.576 432.659C287.813 432.803 288.092 432.938 288.414 433.065C288.744 433.184 289.121 433.315 289.544 433.459C290.103 433.688 290.602 433.92 291.042 434.157C291.491 434.394 291.871 434.665 292.185 434.97C292.498 435.266 292.739 435.613 292.908 436.011C293.077 436.4 293.162 436.866 293.162 437.407C293.162 438.067 293.01 438.643 292.705 439.134C292.4 439.625 291.994 440.031 291.486 440.353C290.979 440.674 290.39 440.911 289.722 441.063C289.062 441.224 288.363 441.305 287.627 441.305C286.205 441.305 284.974 441.068 283.933 440.594ZM295.155 440.594V437.864C296.256 438.702 297.47 439.121 298.799 439.121C300.576 439.121 301.465 438.596 301.465 437.547C301.465 437.251 301.389 437.001 301.236 436.798C301.084 436.586 300.877 436.4 300.614 436.239C300.36 436.078 300.056 435.935 299.7 435.808C299.353 435.681 298.964 435.537 298.532 435.376C297.999 435.164 297.517 434.94 297.085 434.703C296.662 434.466 296.306 434.2 296.019 433.903C295.739 433.599 295.528 433.256 295.384 432.875C295.24 432.494 295.168 432.05 295.168 431.542C295.168 430.916 295.316 430.366 295.612 429.892C295.909 429.409 296.306 429.007 296.806 428.686C297.305 428.355 297.872 428.11 298.507 427.949C299.142 427.78 299.798 427.695 300.475 427.695C301.676 427.695 302.751 427.877 303.699 428.241V430.818C302.785 430.192 301.736 429.879 300.551 429.879C300.178 429.879 299.84 429.917 299.535 429.993C299.239 430.069 298.985 430.175 298.773 430.311C298.562 430.446 298.397 430.611 298.278 430.806C298.16 430.992 298.101 431.199 298.101 431.428C298.101 431.707 298.16 431.944 298.278 432.139C298.397 432.333 298.57 432.507 298.799 432.659C299.036 432.803 299.315 432.938 299.637 433.065C299.967 433.184 300.343 433.315 300.767 433.459C301.325 433.688 301.825 433.92 302.265 434.157C302.713 434.394 303.094 434.665 303.407 434.97C303.72 435.266 303.962 435.613 304.131 436.011C304.3 436.4 304.385 436.866 304.385 437.407C304.385 438.067 304.232 438.643 303.928 439.134C303.623 439.625 303.217 440.031 302.709 440.353C302.201 440.674 301.613 440.911 300.944 441.063C300.284 441.224 299.586 441.305 298.85 441.305C297.428 441.305 296.196 441.068 295.155 440.594ZM325.688 441H322.742V438.943H322.691C321.837 440.518 320.508 441.305 318.705 441.305C315.633 441.305 314.097 439.46 314.097 435.77V428H317.042V435.465C317.042 437.801 317.943 438.969 319.746 438.969C320.618 438.969 321.333 438.647 321.892 438.004C322.459 437.361 322.742 436.519 322.742 435.478V428H325.688V441ZM341.112 441H338.167V433.675C338.167 431.246 337.308 430.031 335.59 430.031C334.693 430.031 333.952 430.37 333.368 431.047C332.784 431.715 332.492 432.562 332.492 433.586V441H329.534V428H332.492V430.158H332.543C333.516 428.516 334.921 427.695 336.758 427.695C338.171 427.695 339.25 428.157 339.995 429.079C340.74 429.993 341.112 431.318 341.112 433.053V441ZM346.203 425.271C345.721 425.271 345.306 425.114 344.959 424.801C344.62 424.488 344.451 424.09 344.451 423.607C344.451 423.125 344.62 422.723 344.959 422.401C345.306 422.08 345.721 421.919 346.203 421.919C346.702 421.919 347.126 422.08 347.473 422.401C347.82 422.723 347.993 423.125 347.993 423.607C347.993 424.064 347.82 424.458 347.473 424.788C347.126 425.11 346.702 425.271 346.203 425.271ZM347.663 441H344.718V428H347.663V441ZM358.378 440.86C357.802 441.148 357.045 441.292 356.105 441.292C353.583 441.292 352.322 440.082 352.322 437.661V430.311H350.151V428H352.322V424.991L355.268 424.153V428H358.378V430.311H355.268V436.811C355.268 437.581 355.407 438.131 355.687 438.461C355.966 438.791 356.431 438.956 357.083 438.956C357.582 438.956 358.014 438.812 358.378 438.524V440.86Z" fill="black"/>
<g filter="url(#filter1_f_7_527)">
<rect x="100" y="527.755" width="307.38" height="204.447" rx="20" fill="#CCCCCC" fill-opacity="0.8"/>
</g>
<path d="M100 547.755C100 536.709 108.954 527.755 120 527.755H407.38V732.202H120C108.954 732.202 100 723.247 100 712.202V547.755Z" fill="white"/>
<path d="M100 547.755C100 536.709 108.954 527.755 120 527.755H407.38V732.202H120C108.954 732.202 100 723.247 100 712.202V547.755Z" fill="url(#paint3_linear_7_527)" fill-opacity="0.33"/>
<path d="M150.59 622.755H147.277L145.639 618.121H138.479L136.905 622.755H133.604L140.421 604.55H143.824L150.59 622.755ZM144.839 615.658L142.313 608.396C142.237 608.16 142.156 607.779 142.072 607.254H142.021C141.945 607.736 141.86 608.117 141.767 608.396L139.266 615.658H144.839ZM162.08 622.158C161.039 622.759 159.807 623.06 158.385 623.06C156.456 623.06 154.898 622.459 153.713 621.257C152.528 620.047 151.936 618.481 151.936 616.56C151.936 614.418 152.571 612.7 153.84 611.405C155.118 610.102 156.824 609.45 158.956 609.45C160.141 609.45 161.187 609.658 162.092 610.072V612.814C161.187 612.137 160.222 611.799 159.198 611.799C157.954 611.799 156.934 612.222 156.138 613.068C155.343 613.906 154.945 615.007 154.945 616.369C154.945 617.715 155.317 618.777 156.062 619.556C156.815 620.334 157.822 620.724 159.083 620.724C160.141 620.724 161.14 620.347 162.08 619.594V622.158ZM171.868 622.615C171.292 622.903 170.535 623.047 169.595 623.047C167.073 623.047 165.812 621.837 165.812 619.416V612.065H163.641V609.755H165.812V606.746L168.757 605.908V609.755H171.868V612.065H168.757V618.565C168.757 619.336 168.897 619.886 169.176 620.216C169.456 620.546 169.921 620.711 170.573 620.711C171.072 620.711 171.504 620.567 171.868 620.279V622.615ZM175.892 607.025C175.41 607.025 174.995 606.869 174.648 606.556C174.309 606.243 174.14 605.845 174.14 605.362C174.14 604.88 174.309 604.478 174.648 604.156C174.995 603.835 175.41 603.674 175.892 603.674C176.391 603.674 176.815 603.835 177.162 604.156C177.509 604.478 177.682 604.88 177.682 605.362C177.682 605.819 177.509 606.213 177.162 606.543C176.815 606.865 176.391 607.025 175.892 607.025ZM177.352 622.755H174.407V609.755H177.352V622.755ZM192.409 609.755L187.381 622.755H184.195L179.409 609.755H182.608L185.49 618.845C185.71 619.513 185.845 620.097 185.896 620.597H185.934C186.01 619.97 186.129 619.403 186.29 618.896L189.311 609.755H192.409ZM205.218 617.055H196.357C196.391 618.257 196.759 619.183 197.461 619.835C198.172 620.487 199.146 620.812 200.381 620.812C201.769 620.812 203.043 620.398 204.203 619.568V621.942C203.018 622.687 201.452 623.06 199.505 623.06C197.593 623.06 196.09 622.471 194.998 621.295C193.915 620.11 193.373 618.447 193.373 616.306C193.373 614.283 193.97 612.637 195.164 611.367C196.365 610.089 197.855 609.45 199.632 609.45C201.41 609.45 202.785 610.021 203.758 611.164C204.732 612.307 205.218 613.894 205.218 615.925V617.055ZM202.374 614.973C202.366 613.915 202.116 613.094 201.625 612.51C201.135 611.917 200.457 611.621 199.594 611.621C198.748 611.621 198.028 611.93 197.436 612.548C196.852 613.166 196.492 613.974 196.357 614.973H202.374ZM216.669 607.025C216.187 607.025 215.772 606.869 215.425 606.556C215.087 606.243 214.917 605.845 214.917 605.362C214.917 604.88 215.087 604.478 215.425 604.156C215.772 603.835 216.187 603.674 216.669 603.674C217.169 603.674 217.592 603.835 217.939 604.156C218.286 604.478 218.459 604.88 218.459 605.362C218.459 605.819 218.286 606.213 217.939 606.543C217.592 606.865 217.169 607.025 216.669 607.025ZM218.129 622.755H215.184V609.755H218.129V622.755ZM233.567 622.755H230.622V615.43C230.622 613.001 229.762 611.786 228.044 611.786C227.147 611.786 226.407 612.125 225.823 612.802C225.239 613.47 224.947 614.317 224.947 615.341V622.755H221.989V609.755H224.947V611.913H224.998C225.971 610.271 227.376 609.45 229.212 609.45C230.626 609.45 231.705 609.911 232.45 610.834C233.194 611.748 233.567 613.073 233.567 614.808V622.755ZM248.37 609.755L243.342 622.755H240.156L235.37 609.755H238.569L241.451 618.845C241.671 619.513 241.806 620.097 241.857 620.597H241.895C241.971 619.97 242.09 619.403 242.25 618.896L245.272 609.755H248.37ZM255.936 623.06C253.93 623.06 252.326 622.454 251.124 621.244C249.931 620.025 249.334 618.413 249.334 616.407C249.334 614.224 249.956 612.518 251.201 611.291C252.453 610.064 254.137 609.45 256.253 609.45C258.285 609.45 259.867 610.047 261.001 611.24C262.136 612.434 262.703 614.088 262.703 616.204C262.703 618.278 262.089 619.941 260.862 621.193C259.643 622.438 258.001 623.06 255.936 623.06ZM256.076 611.799C254.925 611.799 254.015 612.201 253.346 613.005C252.678 613.809 252.343 614.918 252.343 616.331C252.343 617.694 252.682 618.769 253.359 619.556C254.036 620.334 254.942 620.724 256.076 620.724C257.235 620.724 258.124 620.339 258.742 619.568C259.368 618.798 259.681 617.702 259.681 616.28C259.681 614.85 259.368 613.745 258.742 612.967C258.124 612.188 257.235 611.799 256.076 611.799ZM268.669 622.755H265.711V603.509H268.669V622.755ZM283.713 609.755L278.686 622.755H275.499L270.713 609.755H273.913L276.794 618.845C277.014 619.513 277.15 620.097 277.201 620.597H277.239C277.315 619.97 277.433 619.403 277.594 618.896L280.616 609.755H283.713ZM296.523 617.055H287.662C287.695 618.257 288.064 619.183 288.766 619.835C289.477 620.487 290.45 620.812 291.686 620.812C293.074 620.812 294.348 620.398 295.507 619.568V621.942C294.322 622.687 292.757 623.06 290.81 623.06C288.897 623.06 287.395 622.471 286.303 621.295C285.22 620.11 284.678 618.447 284.678 616.306C284.678 614.283 285.275 612.637 286.468 611.367C287.67 610.089 289.16 609.45 290.937 609.45C292.714 609.45 294.09 610.021 295.063 611.164C296.036 612.307 296.523 613.894 296.523 615.925V617.055ZM293.679 614.973C293.671 613.915 293.421 613.094 292.93 612.51C292.439 611.917 291.762 611.621 290.899 611.621C290.053 611.621 289.333 611.93 288.741 612.548C288.157 613.166 287.797 613.974 287.662 614.973H293.679ZM318.765 622.755H315.82V615.671C315.82 614.308 315.625 613.322 315.236 612.713C314.855 612.104 314.207 611.799 313.293 611.799C312.523 611.799 311.867 612.184 311.326 612.954C310.792 613.724 310.526 614.647 310.526 615.722V622.755H307.568V615.43C307.568 613.009 306.713 611.799 305.003 611.799C304.208 611.799 303.552 612.163 303.036 612.891C302.528 613.618 302.274 614.562 302.274 615.722V622.755H299.329V609.755H302.274V611.812H302.325C303.264 610.237 304.631 609.45 306.425 609.45C307.322 609.45 308.105 609.7 308.774 610.199C309.451 610.69 309.912 611.338 310.158 612.142C311.123 610.347 312.561 609.45 314.474 609.45C317.335 609.45 318.765 611.215 318.765 614.744V622.755ZM333.365 617.055H324.503C324.537 618.257 324.905 619.183 325.608 619.835C326.319 620.487 327.292 620.812 328.528 620.812C329.916 620.812 331.19 620.398 332.349 619.568V621.942C331.164 622.687 329.598 623.06 327.652 623.06C325.739 623.06 324.237 622.471 323.145 621.295C322.062 620.11 321.52 618.447 321.52 616.306C321.52 614.283 322.117 612.637 323.31 611.367C324.512 610.089 326.001 609.45 327.779 609.45C329.556 609.45 330.931 610.021 331.905 611.164C332.878 612.307 333.365 613.894 333.365 615.925V617.055ZM330.521 614.973C330.512 613.915 330.263 613.094 329.772 612.51C329.281 611.917 328.604 611.621 327.741 611.621C326.894 611.621 326.175 611.93 325.582 612.548C324.998 613.166 324.639 613.974 324.503 614.973H330.521ZM347.748 622.755H344.803V615.43C344.803 613.001 343.944 611.786 342.226 611.786C341.329 611.786 340.588 612.125 340.004 612.802C339.42 613.47 339.128 614.317 339.128 615.341V622.755H336.17V609.755H339.128V611.913H339.179C340.152 610.271 341.557 609.45 343.394 609.45C344.807 609.45 345.887 609.911 346.631 610.834C347.376 611.748 347.748 613.073 347.748 614.808V622.755ZM358.209 622.615C357.634 622.903 356.876 623.047 355.937 623.047C353.415 623.047 352.154 621.837 352.154 619.416V612.065H349.983V609.755H352.154V606.746L355.099 605.908V609.755H358.209V612.065H355.099V618.565C355.099 619.336 355.239 619.886 355.518 620.216C355.797 620.546 356.263 620.711 356.915 620.711C357.414 620.711 357.845 620.567 358.209 620.279V622.615ZM209.585 640.908C209.188 640.68 208.735 640.565 208.227 640.565C206.797 640.565 206.081 641.374 206.081 642.99V644.755H209.103V647.065H206.094V657.755H203.149V647.065H200.927V644.755H203.149V642.647C203.149 641.276 203.597 640.197 204.495 639.41C205.392 638.615 206.513 638.217 207.859 638.217C208.587 638.217 209.162 638.297 209.585 638.458V640.908ZM218.739 647.561C218.383 647.281 217.871 647.142 217.203 647.142C216.331 647.142 215.603 647.535 215.019 648.322C214.435 649.109 214.143 650.18 214.143 651.534V657.755H211.198V644.755H214.143V647.434H214.194C214.482 646.52 214.922 645.809 215.514 645.301C216.115 644.785 216.784 644.526 217.52 644.526C218.053 644.526 218.459 644.607 218.739 644.768V647.561ZM226.356 658.06C224.35 658.06 222.746 657.454 221.544 656.244C220.351 655.025 219.754 653.413 219.754 651.407C219.754 649.224 220.376 647.518 221.621 646.291C222.873 645.064 224.557 644.45 226.673 644.45C228.705 644.45 230.287 645.047 231.421 646.24C232.555 647.434 233.123 649.088 233.123 651.204C233.123 653.278 232.509 654.941 231.282 656.193C230.063 657.438 228.421 658.06 226.356 658.06ZM226.496 646.799C225.345 646.799 224.435 647.201 223.766 648.005C223.097 648.809 222.763 649.918 222.763 651.331C222.763 652.694 223.102 653.769 223.779 654.556C224.456 655.334 225.361 655.724 226.496 655.724C227.655 655.724 228.544 655.339 229.162 654.568C229.788 653.798 230.101 652.702 230.101 651.28C230.101 649.85 229.788 648.745 229.162 647.967C228.544 647.188 227.655 646.799 226.496 646.799ZM255.568 657.755H252.623V650.671C252.623 649.308 252.428 648.322 252.039 647.713C251.658 647.104 251.01 646.799 250.096 646.799C249.326 646.799 248.67 647.184 248.128 647.954C247.595 648.724 247.329 649.647 247.329 650.722V657.755H244.371V650.43C244.371 648.009 243.516 646.799 241.806 646.799C241.011 646.799 240.355 647.163 239.838 647.891C239.331 648.618 239.077 649.562 239.077 650.722V657.755H236.131V644.755H239.077V646.812H239.127C240.067 645.237 241.434 644.45 243.228 644.45C244.125 644.45 244.908 644.7 245.577 645.199C246.254 645.69 246.715 646.338 246.96 647.142C247.925 645.347 249.364 644.45 251.277 644.45C254.137 644.45 255.568 646.215 255.568 649.744V657.755ZM273.176 657.615C272.601 657.903 271.843 658.047 270.904 658.047C268.382 658.047 267.121 656.837 267.121 654.416V647.065H264.95V644.755H267.121V641.746L270.066 640.908V644.755H273.176V647.065H270.066V653.565C270.066 654.336 270.206 654.886 270.485 655.216C270.764 655.546 271.23 655.711 271.881 655.711C272.381 655.711 272.812 655.567 273.176 655.279V657.615ZM287.268 657.755H284.323V650.646C284.323 648.073 283.464 646.786 281.746 646.786C280.882 646.786 280.154 647.159 279.562 647.903C278.97 648.648 278.673 649.6 278.673 650.76V657.755H275.715V638.509H278.673V646.913H278.724C279.706 645.271 281.111 644.45 282.939 644.45C285.825 644.45 287.268 646.215 287.268 649.744V657.755ZM301.855 652.055H292.994C293.027 653.257 293.396 654.183 294.098 654.835C294.809 655.487 295.782 655.812 297.018 655.812C298.406 655.812 299.68 655.398 300.839 654.568V656.942C299.654 657.687 298.089 658.06 296.142 658.06C294.229 658.06 292.727 657.471 291.635 656.295C290.552 655.11 290.01 653.447 290.01 651.306C290.01 649.283 290.607 647.637 291.8 646.367C293.002 645.089 294.492 644.45 296.269 644.45C298.046 644.45 299.422 645.021 300.395 646.164C301.368 647.307 301.855 648.894 301.855 650.925V652.055ZM299.011 649.973C299.003 648.915 298.753 648.094 298.262 647.51C297.771 646.917 297.094 646.621 296.231 646.621C295.385 646.621 294.665 646.93 294.073 647.548C293.489 648.166 293.129 648.974 292.994 649.973H299.011ZM324.846 656.993C323.475 657.704 321.77 658.06 319.73 658.06C317.089 658.06 314.973 657.226 313.382 655.559C311.791 653.891 310.996 651.703 310.996 648.995C310.996 646.084 311.888 643.731 313.674 641.937C315.469 640.142 317.733 639.245 320.466 639.245C322.227 639.245 323.687 639.495 324.846 639.994V642.99C323.619 642.262 322.265 641.898 320.784 641.898C318.812 641.898 317.212 642.529 315.985 643.79C314.766 645.051 314.157 646.735 314.157 648.843C314.157 650.849 314.728 652.448 315.871 653.642C317.013 654.826 318.515 655.419 320.377 655.419C322.095 655.419 323.585 655.013 324.846 654.2V656.993ZM335.472 658.06C332.848 658.06 330.745 657.209 329.163 655.508C327.588 653.807 326.801 651.593 326.801 648.868C326.801 645.94 327.605 643.604 329.213 641.86C330.821 640.117 333.005 639.245 335.764 639.245C338.32 639.245 340.377 640.091 341.934 641.784C343.5 643.477 344.283 645.69 344.283 648.424C344.283 651.395 343.483 653.743 341.883 655.47C340.284 657.196 338.147 658.06 335.472 658.06ZM335.612 641.898C333.944 641.898 332.586 642.521 331.537 643.765C330.496 645.009 329.975 646.646 329.975 648.678C329.975 650.701 330.483 652.33 331.498 653.565C332.514 654.801 333.843 655.419 335.485 655.419C337.228 655.419 338.604 654.831 339.611 653.654C340.618 652.478 341.122 650.832 341.122 648.716C341.122 646.541 340.631 644.861 339.649 643.676C338.676 642.491 337.33 641.898 335.612 641.898ZM357.841 657.755H347.622V639.55H357.435V642.114H350.643V647.269H356.902V649.82H350.643V655.203H357.841V657.755Z" fill="black"/>
<path d="M406.88 311.118V513.155H384.879V311.118H406.88Z" fill="white"/>
<path d="M406.88 311.118V513.155H384.879V311.118H406.88Z" fill="url(#paint4_linear_7_527)" fill-opacity="0.1"/>
<path d="M406.88 311.118V513.155H384.879V311.118H406.88Z" stroke="#063D3B"/>
<path d="M407.38 527.755V732.202H384.379V527.755H407.38Z" fill="url(#paint5_linear_7_527)"/>
<rect x="458.61" y="527.755" width="156.827" height="204.447" fill="url(#paint6_linear_7_527)"/>
<rect x="459.11" y="309.708" width="155.827" height="203.447" fill="white"/>
<rect x="459.11" y="309.708" width="155.827" height="203.447" fill="url(#paint7_linear_7_527)" fill-opacity="0.1"/>
<rect x="459.11" y="309.708" width="155.827" height="203.447" stroke="#063D3B"/>
<rect x="625.892" y="630.683" width="156.827" height="101.518" fill="url(#paint8_linear_7_527)"/>
<rect x="626.392" y="309.708" width="155.827" height="307.785" fill="white"/>
<rect x="626.392" y="309.708" width="155.827" height="307.785" fill="url(#paint9_linear_7_527)" fill-opacity="0.1"/>
<rect x="626.392" y="309.708" width="155.827" height="307.785" stroke="#063D3B"/>
<path d="M503.006 429.322V423.521C505.111 424.81 507.353 425.455 509.731 425.455C511.521 425.455 512.917 425.032 513.92 424.187C514.937 423.328 515.445 422.168 515.445 420.707C515.445 417.656 513.29 416.131 508.979 416.131C507.389 416.131 505.555 416.252 503.479 416.496L504.639 399.308H520.945V404.851H509.817L509.387 411.017C510.49 410.932 511.442 410.889 512.244 410.889C515.41 410.889 517.887 411.719 519.678 413.381C521.468 415.042 522.363 417.277 522.363 420.084C522.363 423.192 521.296 425.734 519.162 427.711C517.028 429.673 514.135 430.654 510.483 430.654C507.518 430.654 505.026 430.21 503.006 429.322ZM537.746 430.654C530.413 430.654 526.746 425.505 526.746 415.207C526.746 409.864 527.734 405.797 529.711 403.004C531.702 400.196 534.581 398.793 538.348 398.793C545.509 398.793 549.09 404.028 549.09 414.498C549.09 419.711 548.109 423.708 546.147 426.486C544.199 429.265 541.399 430.654 537.746 430.654ZM538.047 403.971C535.111 403.971 533.643 407.659 533.643 415.035C533.643 421.982 535.082 425.455 537.961 425.455C540.768 425.455 542.172 421.874 542.172 414.713C542.172 407.551 540.797 403.971 538.047 403.971ZM559.811 414.928C557.619 414.928 555.85 414.233 554.504 412.844C553.172 411.454 552.506 409.585 552.506 407.236C552.506 404.672 553.215 402.639 554.633 401.135C556.065 399.631 557.97 398.879 560.348 398.879C562.625 398.879 564.401 399.559 565.676 400.92C566.965 402.28 567.609 404.193 567.609 406.656C567.609 409.191 566.901 411.204 565.483 412.693C564.065 414.183 562.174 414.928 559.811 414.928ZM560.219 402.66C558.128 402.66 557.082 404.114 557.082 407.021C557.082 409.771 558.078 411.146 560.068 411.146C562.102 411.146 563.119 409.714 563.119 406.849C563.119 404.057 562.152 402.66 560.219 402.66ZM582.305 399.308L562.238 430.117H556.996L577.02 399.308H582.305ZM578.996 430.547C576.805 430.547 575.036 429.852 573.69 428.463C572.358 427.073 571.692 425.204 571.692 422.855C571.692 420.292 572.401 418.258 573.818 416.754C575.251 415.25 577.156 414.498 579.533 414.498C581.825 414.498 583.608 415.171 584.883 416.517C586.158 417.864 586.795 419.769 586.795 422.232C586.795 424.767 586.086 426.787 584.668 428.291C583.25 429.795 581.359 430.547 578.996 430.547ZM579.34 418.279C577.263 418.279 576.225 419.733 576.225 422.641C576.225 425.391 577.234 426.766 579.254 426.766C581.288 426.766 582.305 425.333 582.305 422.469C582.305 421.137 582.033 420.105 581.488 419.375C580.944 418.644 580.228 418.279 579.34 418.279Z" fill="url(#paint10_linear_7_527)"/>
<path d="M503.006 647.869V642.068C505.111 643.357 507.353 644.002 509.731 644.002C511.521 644.002 512.917 643.579 513.92 642.734C514.937 641.875 515.445 640.715 515.445 639.254C515.445 636.203 513.29 634.677 508.979 634.677C507.389 634.677 505.555 634.799 503.479 635.043L504.639 617.855H520.945V623.398H509.817L509.387 629.564C510.49 629.478 511.442 629.435 512.244 629.435C515.41 629.435 517.887 630.266 519.678 631.927C521.468 633.589 522.363 635.823 522.363 638.631C522.363 641.739 521.296 644.281 519.162 646.258C517.028 648.22 514.135 649.201 510.483 649.201C507.518 649.201 505.026 648.757 503.006 647.869ZM537.746 649.201C530.413 649.201 526.746 644.052 526.746 633.754C526.746 628.411 527.734 624.343 529.711 621.551C531.702 618.743 534.581 617.34 538.348 617.34C545.509 617.34 549.09 622.575 549.09 633.045C549.09 638.258 548.109 642.254 546.147 645.033C544.199 647.812 541.399 649.201 537.746 649.201ZM538.047 622.517C535.111 622.517 533.643 626.205 533.643 633.582C533.643 640.528 535.082 644.002 537.961 644.002C540.768 644.002 542.172 640.421 542.172 633.259C542.172 626.098 540.797 622.517 538.047 622.517ZM559.811 633.474C557.619 633.474 555.85 632.78 554.504 631.39C553.172 630.001 552.506 628.132 552.506 625.783C552.506 623.219 553.215 621.185 554.633 619.681C556.065 618.177 557.97 617.426 560.348 617.426C562.625 617.426 564.401 618.106 565.676 619.467C566.965 620.827 567.609 622.739 567.609 625.203C567.609 627.738 566.901 629.75 565.483 631.24C564.065 632.73 562.174 633.474 559.811 633.474ZM560.219 621.207C558.128 621.207 557.082 622.661 557.082 625.568C557.082 628.318 558.078 629.693 560.068 629.693C562.102 629.693 563.119 628.261 563.119 625.396C563.119 622.603 562.152 621.207 560.219 621.207ZM582.305 617.855L562.238 648.664H556.996L577.02 617.855H582.305ZM578.996 649.093C576.805 649.093 575.036 648.399 573.69 647.009C572.358 645.62 571.692 643.751 571.692 641.402C571.692 638.838 572.401 636.804 573.818 635.301C575.251 633.797 577.156 633.045 579.533 633.045C581.825 633.045 583.608 633.718 584.883 635.064C586.158 636.411 586.795 638.315 586.795 640.779C586.795 643.314 586.086 645.334 584.668 646.838C583.25 648.342 581.359 649.093 578.996 649.093ZM579.34 636.826C577.263 636.826 576.225 638.28 576.225 641.187C576.225 643.937 577.234 645.312 579.254 645.312C581.288 645.312 582.305 643.88 582.305 641.015C582.305 639.683 582.033 638.652 581.488 637.922C580.944 637.191 580.228 636.826 579.34 636.826Z" fill="#FAFAFA"/>
<path d="M690.741 403.219C689.366 405.696 688.134 408.024 687.046 410.201C685.957 412.364 684.997 414.505 684.167 416.625C683.336 418.73 682.627 420.879 682.04 423.07C681.452 425.247 680.973 427.596 680.6 430.117H673.51C673.911 427.725 674.441 425.419 675.1 423.199C675.759 420.979 676.518 418.831 677.378 416.754C678.251 414.663 679.211 412.629 680.256 410.652C681.316 408.676 682.434 406.742 683.608 404.851H669.299V399.308H690.741V403.219ZM695.596 429.322V423.521C697.702 424.81 699.943 425.455 702.321 425.455C704.111 425.455 705.508 425.032 706.51 424.187C707.527 423.328 708.036 422.168 708.036 420.707C708.036 417.656 705.88 416.131 701.569 416.131C699.979 416.131 698.146 416.252 696.069 416.496L697.229 399.308H713.536V404.851H702.407L701.977 411.017C703.08 410.932 704.033 410.889 704.835 410.889C708 410.889 710.478 411.719 712.268 413.381C714.059 415.042 714.954 417.277 714.954 420.084C714.954 423.192 713.887 425.734 711.753 427.711C709.618 429.673 706.725 430.654 703.073 430.654C700.108 430.654 697.616 430.21 695.596 429.322ZM727.092 414.928C724.901 414.928 723.132 414.233 721.786 412.844C720.454 411.454 719.788 409.585 719.788 407.236C719.788 404.672 720.497 402.639 721.915 401.135C723.347 399.631 725.252 398.879 727.63 398.879C729.907 398.879 731.683 399.559 732.958 400.92C734.247 402.28 734.891 404.193 734.891 406.656C734.891 409.191 734.182 411.204 732.764 412.693C731.346 414.183 729.456 414.928 727.092 414.928ZM727.501 402.66C725.409 402.66 724.364 404.114 724.364 407.021C724.364 409.771 725.359 411.146 727.35 411.146C729.384 411.146 730.401 409.714 730.401 406.849C730.401 404.057 729.434 402.66 727.501 402.66ZM749.587 399.308L729.52 430.117H724.278L744.301 399.308H749.587ZM746.278 430.547C744.087 430.547 742.318 429.852 740.971 428.463C739.639 427.073 738.973 425.204 738.973 422.855C738.973 420.292 739.682 418.258 741.1 416.754C742.533 415.25 744.437 414.498 746.815 414.498C749.107 414.498 750.89 415.171 752.165 416.517C753.439 417.864 754.077 419.769 754.077 422.232C754.077 424.767 753.368 426.787 751.95 428.291C750.532 429.795 748.641 430.547 746.278 430.547ZM746.622 418.279C744.545 418.279 743.506 419.733 743.506 422.641C743.506 425.391 744.516 426.766 746.536 426.766C748.57 426.766 749.587 425.333 749.587 422.469C749.587 421.137 749.314 420.105 748.77 419.375C748.226 418.644 747.51 418.279 746.622 418.279Z" fill="url(#paint11_linear_7_527)"/>
<path d="M676.454 690.974H689.516V696.603H669.02V694.283C669.02 692.707 669.285 691.296 669.815 690.05C670.345 688.79 671.011 687.666 671.813 686.677C672.615 685.675 673.489 684.794 674.434 684.035C675.394 683.261 676.303 682.567 677.163 681.951C678.065 681.306 678.853 680.69 679.526 680.103C680.213 679.516 680.786 678.936 681.245 678.363C681.717 677.776 682.068 677.188 682.297 676.601C682.527 676 682.641 675.362 682.641 674.689C682.641 673.371 682.269 672.376 681.524 671.703C680.779 671.029 679.641 670.693 678.108 670.693C675.458 670.693 672.923 671.746 670.503 673.851V667.878C673.181 666.145 676.203 665.279 679.569 665.279C681.13 665.279 682.527 665.487 683.758 665.902C685.005 666.303 686.057 666.883 686.917 667.642C687.776 668.401 688.428 669.325 688.872 670.414C689.33 671.488 689.559 672.691 689.559 674.023C689.559 675.441 689.337 676.701 688.893 677.804C688.463 678.907 687.883 679.91 687.153 680.812C686.437 681.714 685.606 682.545 684.661 683.304C683.715 684.049 682.734 684.772 681.717 685.474C681.03 685.961 680.364 686.448 679.719 686.935C679.089 687.408 678.531 687.88 678.044 688.353C677.557 688.811 677.17 689.263 676.883 689.707C676.597 690.151 676.454 690.573 676.454 690.974ZM695.596 695.808V690.007C697.702 691.296 699.943 691.941 702.321 691.941C704.111 691.941 705.508 691.518 706.51 690.673C707.527 689.814 708.036 688.654 708.036 687.193C708.036 684.142 705.88 682.617 701.569 682.617C699.979 682.617 698.146 682.738 696.069 682.982L697.229 665.794H713.536V671.337H702.407L701.977 677.503C703.08 677.418 704.033 677.375 704.835 677.375C708 677.375 710.478 678.205 712.268 679.867C714.059 681.528 714.954 683.763 714.954 686.57C714.954 689.678 713.887 692.22 711.753 694.197C709.618 696.159 706.725 697.14 703.073 697.14C700.108 697.14 697.616 696.696 695.596 695.808ZM727.092 681.414C724.901 681.414 723.132 680.719 721.786 679.33C720.454 677.94 719.788 676.071 719.788 673.722C719.788 671.158 720.497 669.125 721.915 667.621C723.347 666.117 725.252 665.365 727.63 665.365C729.907 665.365 731.683 666.045 732.958 667.406C734.247 668.766 734.891 670.679 734.891 673.142C734.891 675.677 734.182 677.69 732.764 679.179C731.346 680.669 729.456 681.414 727.092 681.414ZM727.501 669.146C725.409 669.146 724.364 670.6 724.364 673.507C724.364 676.257 725.359 677.632 727.35 677.632C729.384 677.632 730.401 676.2 730.401 673.335C730.401 670.543 729.434 669.146 727.501 669.146ZM749.587 665.794L729.52 696.603H724.278L744.301 665.794H749.587ZM746.278 697.033C744.087 697.033 742.318 696.338 740.971 694.949C739.639 693.559 738.973 691.69 738.973 689.341C738.973 686.778 739.682 684.744 741.1 683.24C742.533 681.736 744.437 680.984 746.815 680.984C749.107 680.984 750.89 681.657 752.165 683.003C753.439 684.35 754.077 686.255 754.077 688.718C754.077 691.253 753.368 693.273 751.95 694.777C750.532 696.281 748.641 697.033 746.278 697.033ZM746.622 684.765C744.545 684.765 743.506 686.219 743.506 689.126C743.506 691.876 744.516 693.251 746.536 693.251C748.57 693.251 749.587 691.819 749.587 688.955C749.587 687.623 749.314 686.591 748.77 685.861C748.226 685.13 747.51 684.765 746.622 684.765Z" fill="#FAFAFA"/>
<rect x="793.173" y="723.742" width="156.827" height="8.45987" fill="url(#paint12_linear_7_527)"/>
<rect x="793.673" y="309.708" width="155.827" height="399.434" fill="white"/>
<rect x="793.673" y="309.708" width="155.827" height="399.434" fill="url(#paint13_linear_7_527)" fill-opacity="0.1"/>
<rect x="793.673" y="309.708" width="155.827" height="399.434" stroke="#063D3B"/>
<path d="M857.872 413.23C857.872 415.966 857.571 418.415 856.97 420.578C856.368 422.726 855.487 424.545 854.327 426.035C853.181 427.525 851.778 428.67 850.116 429.473C848.455 430.26 846.571 430.654 844.466 430.654C841.945 430.654 839.775 430.253 837.956 429.451V423.865C839.575 424.925 841.523 425.455 843.8 425.455C846.135 425.455 847.961 424.66 849.278 423.07C850.596 421.48 851.262 419.182 851.276 416.174L851.148 416.131C849.787 418.15 847.717 419.16 844.939 419.16C843.678 419.16 842.511 418.924 841.437 418.451C840.377 417.978 839.453 417.327 838.665 416.496C837.892 415.651 837.283 414.648 836.839 413.488C836.409 412.328 836.194 411.053 836.194 409.664C836.194 408.045 836.459 406.57 836.989 405.238C837.519 403.906 838.257 402.76 839.202 401.801C840.162 400.841 841.308 400.103 842.64 399.588C843.972 399.058 845.447 398.793 847.066 398.793C848.741 398.793 850.245 399.122 851.577 399.781C852.909 400.426 854.041 401.364 854.972 402.596C855.917 403.827 856.633 405.338 857.12 407.129C857.622 408.919 857.872 410.953 857.872 413.23ZM851.019 409.621C851.019 408.833 850.918 408.096 850.718 407.408C850.517 406.706 850.238 406.105 849.88 405.603C849.522 405.102 849.085 404.708 848.569 404.422C848.054 404.121 847.488 403.971 846.872 403.971C846.285 403.971 845.741 404.099 845.239 404.357C844.752 404.615 844.33 404.973 843.972 405.432C843.614 405.876 843.334 406.413 843.134 407.043C842.933 407.673 842.833 408.353 842.833 409.084C842.833 409.886 842.933 410.602 843.134 411.232C843.334 411.848 843.614 412.371 843.972 412.801C844.344 413.23 844.788 413.56 845.304 413.789C845.819 414.004 846.392 414.111 847.023 414.111C847.624 414.111 848.168 413.997 848.655 413.767C849.142 413.524 849.558 413.202 849.901 412.801C850.26 412.4 850.532 411.927 850.718 411.383C850.918 410.838 851.019 410.251 851.019 409.621ZM861.546 421.824C861.546 420.965 861.668 420.141 861.911 419.353C862.169 418.551 862.549 417.814 863.05 417.141C863.551 416.453 864.174 415.844 864.919 415.314C865.678 414.77 866.566 414.326 867.583 413.982C866.022 413.209 864.812 412.221 863.952 411.017C863.093 409.8 862.663 408.454 862.663 406.978C862.663 405.804 862.907 404.715 863.394 403.713C863.895 402.71 864.582 401.844 865.456 401.113C866.33 400.383 867.368 399.817 868.571 399.416C869.789 399.001 871.114 398.793 872.546 398.793C874.007 398.793 875.346 399.001 876.564 399.416C877.781 399.817 878.827 400.383 879.7 401.113C880.588 401.829 881.276 402.682 881.763 403.67C882.25 404.658 882.493 405.732 882.493 406.892C882.493 408.353 882.035 409.685 881.118 410.889C880.202 412.077 878.934 413.058 877.316 413.832C878.318 414.176 879.199 414.62 879.958 415.164C880.717 415.694 881.355 416.303 881.87 416.99C882.386 417.678 882.773 418.43 883.03 419.246C883.288 420.048 883.417 420.886 883.417 421.76C883.417 423.077 883.152 424.28 882.622 425.369C882.092 426.443 881.34 427.374 880.366 428.162C879.407 428.935 878.254 429.537 876.907 429.967C875.575 430.396 874.1 430.611 872.482 430.611C870.892 430.611 869.424 430.404 868.077 429.988C866.745 429.558 865.592 428.957 864.618 428.183C863.659 427.41 862.907 426.486 862.362 425.412C861.818 424.323 861.546 423.127 861.546 421.824ZM867.97 421.244C867.97 421.946 868.077 422.576 868.292 423.135C868.507 423.693 868.815 424.166 869.216 424.553C869.617 424.939 870.09 425.24 870.634 425.455C871.193 425.655 871.816 425.756 872.503 425.756C873.162 425.756 873.763 425.648 874.308 425.433C874.866 425.219 875.346 424.918 875.747 424.531C876.148 424.144 876.463 423.672 876.693 423.113C876.922 422.555 877.036 421.932 877.036 421.244C877.036 420.628 876.929 420.041 876.714 419.482C876.499 418.924 876.191 418.444 875.79 418.043C875.389 417.627 874.909 417.298 874.351 417.055C873.806 416.811 873.191 416.689 872.503 416.689C871.859 416.689 871.257 416.804 870.698 417.033C870.14 417.248 869.66 417.563 869.259 417.978C868.858 418.379 868.543 418.859 868.314 419.418C868.084 419.976 867.97 420.585 867.97 421.244ZM868.915 407.601C868.915 408.146 869.008 408.661 869.194 409.148C869.395 409.621 869.66 410.036 869.989 410.394C870.319 410.738 870.706 411.01 871.15 411.211C871.608 411.411 872.088 411.512 872.589 411.512C873.105 411.512 873.584 411.411 874.028 411.211C874.472 411.01 874.859 410.731 875.189 410.373C875.532 410.015 875.797 409.599 875.984 409.127C876.184 408.654 876.284 408.146 876.284 407.601C876.284 407.043 876.191 406.527 876.005 406.055C875.819 405.568 875.554 405.152 875.21 404.808C874.881 404.45 874.487 404.171 874.028 403.971C873.584 403.77 873.105 403.67 872.589 403.67C872.045 403.67 871.543 403.777 871.085 403.992C870.641 404.193 870.254 404.472 869.925 404.83C869.61 405.174 869.359 405.589 869.173 406.076C869.001 406.549 868.915 407.057 868.915 407.601ZM894.374 414.928C892.183 414.928 890.414 414.233 889.068 412.844C887.735 411.454 887.069 409.585 887.069 407.236C887.069 404.672 887.778 402.639 889.196 401.135C890.629 399.631 892.534 398.879 894.911 398.879C897.189 398.879 898.965 399.559 900.239 400.92C901.528 402.28 902.173 404.193 902.173 406.656C902.173 409.191 901.464 411.204 900.046 412.693C898.628 414.183 896.737 414.928 894.374 414.928ZM894.782 402.66C892.691 402.66 891.646 404.114 891.646 407.021C891.646 409.771 892.641 411.146 894.632 411.146C896.666 411.146 897.683 409.714 897.683 406.849C897.683 404.057 896.716 402.66 894.782 402.66ZM916.868 399.308L896.802 430.117H891.56L911.583 399.308H916.868ZM913.56 430.547C911.368 430.547 909.599 429.852 908.253 428.463C906.921 427.073 906.255 425.204 906.255 422.855C906.255 420.292 906.964 418.258 908.382 416.754C909.814 415.25 911.719 414.498 914.097 414.498C916.388 414.498 918.172 415.171 919.446 416.517C920.721 417.864 921.359 419.769 921.359 422.232C921.359 424.767 920.65 426.787 919.232 428.291C917.814 429.795 915.923 430.547 913.56 430.547ZM913.903 418.279C911.827 418.279 910.788 419.733 910.788 422.641C910.788 425.391 911.798 426.766 913.818 426.766C915.851 426.766 916.868 425.333 916.868 422.469C916.868 421.137 916.596 420.105 916.052 419.375C915.508 418.644 914.791 418.279 913.903 418.279Z" fill="url(#paint14_linear_7_527)"/>
<path d="M471.61 230H460.692V211.795H471.191V215.134H464.793V219.184H470.747V222.51H464.793V226.674H471.61V230ZM486.692 217L482.401 223.297L486.667 230H482.046L480.167 226.496C480.015 226.217 479.833 225.823 479.621 225.315H479.57C479.443 225.671 479.27 226.052 479.05 226.458L477.158 230H472.55L476.942 223.525L472.816 217H477.463L479.316 220.644C479.562 221.126 479.735 221.532 479.837 221.862H479.888C480.023 221.465 480.205 221.05 480.434 220.618L482.325 217H486.692ZM492.57 228.489H492.52V235.979H488.508V217H492.52V218.955H492.57C493.561 217.44 494.953 216.683 496.747 216.683C498.431 216.683 499.73 217.262 500.645 218.422C501.567 219.573 502.028 221.143 502.028 223.132C502.028 225.299 501.491 227.038 500.416 228.35C499.35 229.661 497.928 230.317 496.15 230.317C494.585 230.317 493.391 229.708 492.57 228.489ZM492.456 223.157V224.198C492.456 225.095 492.693 225.827 493.167 226.395C493.641 226.962 494.263 227.245 495.033 227.245C495.947 227.245 496.654 226.894 497.153 226.191C497.661 225.48 497.915 224.478 497.915 223.183C497.915 220.897 497.026 219.755 495.249 219.755C494.428 219.755 493.755 220.068 493.23 220.694C492.714 221.312 492.456 222.133 492.456 223.157ZM516.311 224.643H507.83C507.965 226.53 509.155 227.474 511.397 227.474C512.828 227.474 514.085 227.135 515.168 226.458V229.353C513.966 229.996 512.405 230.317 510.483 230.317C508.384 230.317 506.755 229.738 505.596 228.578C504.436 227.41 503.856 225.785 503.856 223.703C503.856 221.545 504.483 219.835 505.735 218.574C506.988 217.313 508.528 216.683 510.356 216.683C512.252 216.683 513.716 217.245 514.749 218.371C515.79 219.497 516.311 221.024 516.311 222.954V224.643ZM512.591 222.18C512.591 220.318 511.838 219.387 510.331 219.387C509.688 219.387 509.129 219.653 508.655 220.187C508.19 220.72 507.906 221.384 507.805 222.18H512.591ZM527.178 220.618C526.695 220.356 526.132 220.225 525.489 220.225C524.618 220.225 523.936 220.546 523.445 221.189C522.954 221.824 522.709 222.692 522.709 223.792V230H518.697V217H522.709V219.412H522.76C523.395 217.652 524.537 216.771 526.188 216.771C526.611 216.771 526.941 216.822 527.178 216.924V220.618ZM537.677 229.848C537.084 230.161 536.191 230.317 534.998 230.317C532.171 230.317 530.758 228.849 530.758 225.912V219.958H528.65V217H530.758V214.194L534.757 213.052V217H537.677V219.958H534.757V225.214C534.757 226.568 535.294 227.245 536.369 227.245C536.792 227.245 537.228 227.122 537.677 226.877V229.848ZM541.98 214.943C541.303 214.943 540.749 214.744 540.317 214.347C539.886 213.94 539.67 213.445 539.67 212.861C539.67 212.26 539.886 211.77 540.317 211.389C540.749 211.008 541.303 210.817 541.98 210.817C542.666 210.817 543.22 211.008 543.644 211.389C544.075 211.77 544.291 212.26 544.291 212.861C544.291 213.471 544.075 213.97 543.644 214.359C543.22 214.749 542.666 214.943 541.98 214.943ZM543.961 230H539.949V217H543.961V230ZM546.487 229.657V226.407C547.147 226.805 547.803 227.101 548.455 227.296C549.115 227.491 549.737 227.588 550.321 227.588C551.032 227.588 551.591 227.491 551.997 227.296C552.412 227.101 552.619 226.805 552.619 226.407C552.619 226.153 552.526 225.942 552.34 225.772C552.154 225.603 551.912 225.455 551.616 225.328C551.328 225.201 551.011 225.087 550.664 224.985C550.317 224.884 549.983 224.77 549.661 224.643C549.145 224.448 548.688 224.241 548.29 224.021C547.901 223.792 547.571 223.53 547.3 223.233C547.037 222.937 546.834 222.594 546.69 222.205C546.555 221.816 546.487 221.354 546.487 220.821C546.487 220.093 546.644 219.467 546.957 218.942C547.279 218.418 547.702 217.99 548.227 217.66C548.76 217.322 549.365 217.076 550.042 216.924C550.728 216.763 551.438 216.683 552.175 216.683C552.75 216.683 553.334 216.729 553.927 216.822C554.519 216.907 555.103 217.034 555.679 217.203V220.301C555.171 220.005 554.625 219.785 554.041 219.641C553.465 219.488 552.898 219.412 552.34 219.412C552.077 219.412 551.828 219.438 551.591 219.488C551.362 219.531 551.159 219.598 550.981 219.691C550.804 219.776 550.664 219.89 550.562 220.034C550.461 220.17 550.41 220.326 550.41 220.504C550.41 220.741 550.486 220.944 550.639 221.113C550.791 221.283 550.99 221.431 551.235 221.558C551.481 221.676 551.752 221.786 552.048 221.888C552.353 221.981 552.653 222.078 552.949 222.18C553.482 222.366 553.965 222.569 554.396 222.789C554.828 223.009 555.196 223.267 555.501 223.563C555.814 223.86 556.051 224.207 556.212 224.604C556.381 225.002 556.466 225.476 556.466 226.026C556.466 226.797 556.297 227.457 555.958 228.007C555.628 228.549 555.184 228.993 554.625 229.34C554.075 229.678 553.436 229.924 552.708 230.076C551.989 230.237 551.24 230.317 550.461 230.317C549.031 230.317 547.706 230.097 546.487 229.657ZM570.469 224.643H561.988C562.124 226.53 563.313 227.474 565.556 227.474C566.986 227.474 568.243 227.135 569.326 226.458V229.353C568.124 229.996 566.563 230.317 564.642 230.317C562.543 230.317 560.913 229.738 559.754 228.578C558.594 227.41 558.015 225.785 558.015 223.703C558.015 221.545 558.641 219.835 559.894 218.574C561.146 217.313 562.687 216.683 564.515 216.683C566.41 216.683 567.875 217.245 568.907 218.371C569.948 219.497 570.469 221.024 570.469 222.954V224.643ZM566.749 222.18C566.749 220.318 565.996 219.387 564.489 219.387C563.846 219.387 563.287 219.653 562.813 220.187C562.348 220.72 562.064 221.384 561.963 222.18H566.749ZM582.072 214.943C581.395 214.943 580.841 214.744 580.409 214.347C579.978 213.94 579.762 213.445 579.762 212.861C579.762 212.26 579.978 211.77 580.409 211.389C580.841 211.008 581.395 210.817 582.072 210.817C582.758 210.817 583.312 211.008 583.735 211.389C584.167 211.77 584.383 212.26 584.383 212.861C584.383 213.471 584.167 213.97 583.735 214.359C583.312 214.749 582.758 214.943 582.072 214.943ZM584.053 230H580.041V217H584.053V230ZM599.985 230H595.986V222.776C595.986 220.762 595.267 219.755 593.828 219.755C593.134 219.755 592.563 220.021 592.114 220.555C591.666 221.088 591.441 221.765 591.441 222.586V230H587.43V217H591.441V219.057H591.492C592.449 217.474 593.841 216.683 595.669 216.683C598.547 216.683 599.985 218.468 599.985 222.04V230ZM618.216 229.848C617.623 230.161 616.73 230.317 615.537 230.317C612.71 230.317 611.297 228.849 611.297 225.912V219.958H609.189V217H611.297V214.194L615.296 213.052V217H618.216V219.958H615.296V225.214C615.296 226.568 615.833 227.245 616.908 227.245C617.331 227.245 617.767 227.122 618.216 226.877V229.848ZM632.968 230H628.969V222.611C628.969 220.707 628.275 219.755 626.887 219.755C626.176 219.755 625.6 220.021 625.16 220.555C624.72 221.088 624.5 221.765 624.5 222.586V230H620.488V210.754H624.5V218.93H624.551C625.533 217.432 626.866 216.683 628.55 216.683C631.495 216.683 632.968 218.46 632.968 222.015V230ZM647.834 224.643H639.354C639.489 226.53 640.678 227.474 642.921 227.474C644.351 227.474 645.608 227.135 646.691 226.458V229.353C645.49 229.996 643.928 230.317 642.007 230.317C639.908 230.317 638.279 229.738 637.119 228.578C635.96 227.41 635.38 225.785 635.38 223.703C635.38 221.545 636.006 219.835 637.259 218.574C638.511 217.313 640.052 216.683 641.88 216.683C643.776 216.683 645.24 217.245 646.272 218.371C647.313 219.497 647.834 221.024 647.834 222.954V224.643ZM644.114 222.18C644.114 220.318 643.361 219.387 641.854 219.387C641.211 219.387 640.653 219.653 640.179 220.187C639.713 220.72 639.43 221.384 639.328 222.18H644.114ZM661.469 228.489H661.418V230H657.406V210.754H661.418V218.955H661.469C662.459 217.44 663.868 216.683 665.696 216.683C667.372 216.683 668.663 217.258 669.568 218.409C670.474 219.56 670.927 221.134 670.927 223.132C670.927 225.299 670.398 227.038 669.34 228.35C668.282 229.661 666.868 230.317 665.1 230.317C663.5 230.317 662.29 229.708 661.469 228.489ZM661.354 223.005V224.338C661.354 225.176 661.596 225.87 662.078 226.42C662.561 226.97 663.178 227.245 663.932 227.245C664.846 227.245 665.552 226.894 666.052 226.191C666.56 225.48 666.813 224.478 666.813 223.183C666.813 222.108 666.581 221.27 666.115 220.669C665.658 220.06 665.002 219.755 664.147 219.755C663.343 219.755 662.675 220.055 662.142 220.656C661.617 221.257 661.354 222.04 661.354 223.005ZM685.882 230H681.883V228.02H681.819C680.829 229.551 679.505 230.317 677.846 230.317C674.833 230.317 673.326 228.493 673.326 224.846V217H677.325V224.49C677.325 226.327 678.053 227.245 679.509 227.245C680.228 227.245 680.804 226.995 681.235 226.496C681.667 225.988 681.883 225.303 681.883 224.439V217H685.882V230ZM688.421 229.657V226.407C689.081 226.805 689.737 227.101 690.389 227.296C691.049 227.491 691.671 227.588 692.255 227.588C692.966 227.588 693.524 227.491 693.931 227.296C694.345 227.101 694.553 226.805 694.553 226.407C694.553 226.153 694.46 225.942 694.273 225.772C694.087 225.603 693.846 225.455 693.55 225.328C693.262 225.201 692.945 225.087 692.598 224.985C692.251 224.884 691.916 224.77 691.595 224.643C691.078 224.448 690.621 224.241 690.224 224.021C689.834 223.792 689.504 223.53 689.233 223.233C688.971 222.937 688.768 222.594 688.624 222.205C688.489 221.816 688.421 221.354 688.421 220.821C688.421 220.093 688.577 219.467 688.891 218.942C689.212 218.418 689.635 217.99 690.16 217.66C690.693 217.322 691.299 217.076 691.976 216.924C692.661 216.763 693.372 216.683 694.108 216.683C694.684 216.683 695.268 216.729 695.86 216.822C696.453 216.907 697.037 217.034 697.612 217.203V220.301C697.104 220.005 696.559 219.785 695.975 219.641C695.399 219.488 694.832 219.412 694.273 219.412C694.011 219.412 693.761 219.438 693.524 219.488C693.296 219.531 693.093 219.598 692.915 219.691C692.737 219.776 692.598 219.89 692.496 220.034C692.395 220.17 692.344 220.326 692.344 220.504C692.344 220.741 692.42 220.944 692.572 221.113C692.725 221.283 692.924 221.431 693.169 221.558C693.414 221.676 693.685 221.786 693.981 221.888C694.286 221.981 694.587 222.078 694.883 222.18C695.416 222.366 695.898 222.569 696.33 222.789C696.762 223.009 697.13 223.267 697.435 223.563C697.748 223.86 697.985 224.207 698.146 224.604C698.315 225.002 698.399 225.476 698.399 226.026C698.399 226.797 698.23 227.457 697.892 228.007C697.562 228.549 697.117 228.993 696.559 229.34C696.008 229.678 695.369 229.924 694.642 230.076C693.922 230.237 693.173 230.317 692.395 230.317C690.964 230.317 689.64 230.097 688.421 229.657ZM702.754 214.943C702.077 214.943 701.522 214.744 701.091 214.347C700.659 213.94 700.443 213.445 700.443 212.861C700.443 212.26 700.659 211.77 701.091 211.389C701.522 211.008 702.077 210.817 702.754 210.817C703.439 210.817 703.994 211.008 704.417 211.389C704.849 211.77 705.064 212.26 705.064 212.861C705.064 213.471 704.849 213.97 704.417 214.359C703.994 214.749 703.439 214.943 702.754 214.943ZM704.734 230H700.723V217H704.734V230ZM720.667 230H716.668V222.776C716.668 220.762 715.949 219.755 714.51 219.755C713.816 219.755 713.244 220.021 712.796 220.555C712.347 221.088 712.123 221.765 712.123 222.586V230H708.111V217H712.123V219.057H712.174C713.13 217.474 714.522 216.683 716.351 216.683C719.228 216.683 720.667 218.468 720.667 222.04V230ZM735.533 224.643H727.053C727.188 226.53 728.377 227.474 730.62 227.474C732.05 227.474 733.307 227.135 734.391 226.458V229.353C733.189 229.996 731.627 230.317 729.706 230.317C727.607 230.317 725.978 229.738 724.818 228.578C723.659 227.41 723.079 225.785 723.079 223.703C723.079 221.545 723.705 219.835 724.958 218.574C726.211 217.313 727.751 216.683 729.579 216.683C731.475 216.683 732.939 217.245 733.972 218.371C735.013 219.497 735.533 221.024 735.533 222.954V224.643ZM731.813 222.18C731.813 220.318 731.06 219.387 729.554 219.387C728.91 219.387 728.352 219.653 727.878 220.187C727.412 220.72 727.129 221.384 727.027 222.18H731.813ZM737.069 229.657V226.407C737.729 226.805 738.385 227.101 739.037 227.296C739.697 227.491 740.319 227.588 740.903 227.588C741.614 227.588 742.173 227.491 742.579 227.296C742.994 227.101 743.201 226.805 743.201 226.407C743.201 226.153 743.108 225.942 742.922 225.772C742.736 225.603 742.494 225.455 742.198 225.328C741.91 225.201 741.593 225.087 741.246 224.985C740.899 224.884 740.565 224.77 740.243 224.643C739.727 224.448 739.27 224.241 738.872 224.021C738.483 223.792 738.153 223.53 737.882 223.233C737.619 222.937 737.416 222.594 737.272 222.205C737.137 221.816 737.069 221.354 737.069 220.821C737.069 220.093 737.226 219.467 737.539 218.942C737.861 218.418 738.284 217.99 738.809 217.66C739.342 217.322 739.947 217.076 740.624 216.924C741.31 216.763 742.021 216.683 742.757 216.683C743.332 216.683 743.916 216.729 744.509 216.822C745.101 216.907 745.685 217.034 746.261 217.203V220.301C745.753 220.005 745.207 219.785 744.623 219.641C744.048 219.488 743.48 219.412 742.922 219.412C742.66 219.412 742.41 219.438 742.173 219.488C741.944 219.531 741.741 219.598 741.563 219.691C741.386 219.776 741.246 219.89 741.145 220.034C741.043 220.17 740.992 220.326 740.992 220.504C740.992 220.741 741.068 220.944 741.221 221.113C741.373 221.283 741.572 221.431 741.817 221.558C742.063 221.676 742.334 221.786 742.63 221.888C742.935 221.981 743.235 222.078 743.531 222.18C744.064 222.366 744.547 222.569 744.979 222.789C745.41 223.009 745.778 223.267 746.083 223.563C746.396 223.86 746.633 224.207 746.794 224.604C746.963 225.002 747.048 225.476 747.048 226.026C747.048 226.797 746.879 227.457 746.54 228.007C746.21 228.549 745.766 228.993 745.207 229.34C744.657 229.678 744.018 229.924 743.29 230.076C742.571 230.237 741.822 230.317 741.043 230.317C739.613 230.317 738.288 230.097 737.069 229.657ZM748.521 229.657V226.407C749.181 226.805 749.837 227.101 750.488 227.296C751.148 227.491 751.771 227.588 752.354 227.588C753.065 227.588 753.624 227.491 754.03 227.296C754.445 227.101 754.652 226.805 754.652 226.407C754.652 226.153 754.559 225.942 754.373 225.772C754.187 225.603 753.946 225.455 753.649 225.328C753.362 225.201 753.044 225.087 752.697 224.985C752.35 224.884 752.016 224.77 751.694 224.643C751.178 224.448 750.721 224.241 750.323 224.021C749.934 223.792 749.604 223.53 749.333 223.233C749.071 222.937 748.868 222.594 748.724 222.205C748.588 221.816 748.521 221.354 748.521 220.821C748.521 220.093 748.677 219.467 748.99 218.942C749.312 218.418 749.735 217.99 750.26 217.66C750.793 217.322 751.398 217.076 752.075 216.924C752.761 216.763 753.472 216.683 754.208 216.683C754.784 216.683 755.368 216.729 755.96 216.822C756.552 216.907 757.136 217.034 757.712 217.203V220.301C757.204 220.005 756.658 219.785 756.074 219.641C755.499 219.488 754.932 219.412 754.373 219.412C754.111 219.412 753.861 219.438 753.624 219.488C753.396 219.531 753.192 219.598 753.015 219.691C752.837 219.776 752.697 219.89 752.596 220.034C752.494 220.17 752.443 220.326 752.443 220.504C752.443 220.741 752.52 220.944 752.672 221.113C752.824 221.283 753.023 221.431 753.269 221.558C753.514 221.676 753.785 221.786 754.081 221.888C754.386 221.981 754.686 222.078 754.982 222.18C755.516 222.366 755.998 222.569 756.43 222.789C756.861 223.009 757.229 223.267 757.534 223.563C757.847 223.86 758.084 224.207 758.245 224.604C758.414 225.002 758.499 225.476 758.499 226.026C758.499 226.797 758.33 227.457 757.991 228.007C757.661 228.549 757.217 228.993 756.658 229.34C756.108 229.678 755.469 229.924 754.741 230.076C754.022 230.237 753.273 230.317 752.494 230.317C751.064 230.317 749.739 230.097 748.521 229.657ZM780.36 230H776.361V228.02H776.298C775.308 229.551 773.983 230.317 772.324 230.317C769.311 230.317 767.805 228.493 767.805 224.846V217H771.804V224.49C771.804 226.327 772.532 227.245 773.987 227.245C774.707 227.245 775.282 226.995 775.714 226.496C776.146 225.988 776.361 225.303 776.361 224.439V217H780.36V230ZM796.306 230H792.307V222.776C792.307 220.762 791.587 219.755 790.148 219.755C789.454 219.755 788.883 220.021 788.435 220.555C787.986 221.088 787.762 221.765 787.762 222.586V230H783.75V217H787.762V219.057H787.812C788.769 217.474 790.161 216.683 791.989 216.683C794.867 216.683 796.306 218.468 796.306 222.04V230ZM801.523 214.943C800.846 214.943 800.292 214.744 799.86 214.347C799.429 213.94 799.213 213.445 799.213 212.861C799.213 212.26 799.429 211.77 799.86 211.389C800.292 211.008 800.846 210.817 801.523 210.817C802.209 210.817 802.763 211.008 803.187 211.389C803.618 211.77 803.834 212.26 803.834 212.861C803.834 213.471 803.618 213.97 803.187 214.359C802.763 214.749 802.209 214.943 801.523 214.943ZM803.504 230H799.492V217H803.504V230ZM814.739 229.848C814.147 230.161 813.254 230.317 812.061 230.317C809.234 230.317 807.82 228.849 807.82 225.912V219.958H805.713V217H807.82V214.194L811.819 213.052V217H814.739V219.958H811.819V225.214C811.819 226.568 812.357 227.245 813.432 227.245C813.855 227.245 814.291 227.122 814.739 226.877V229.848Z" fill="black" fill-opacity="0.6"/>
<path d="M458.61 252.629C456.953 252.629 455.61 253.972 455.61 255.629C455.61 257.286 456.953 258.629 458.61 258.629V252.629ZM952.122 257.75C953.293 256.579 953.293 254.679 952.122 253.508L933.03 234.416C931.858 233.244 929.959 233.244 928.787 234.416C927.616 235.587 927.616 237.487 928.787 238.659L945.758 255.629L928.787 272.6C927.616 273.771 927.616 275.671 928.787 276.842C929.959 278.014 931.858 278.014 933.03 276.842L952.122 257.75ZM458.61 258.629L950 258.629V252.629L458.61 252.629V258.629Z" fill="black" fill-opacity="0.6"/>
<path d="M473.477 815.785H468.284V830.651H464.171V815.785H459.004V812.446H473.477V815.785ZM477.564 815.594C476.887 815.594 476.333 815.395 475.901 814.997C475.47 814.591 475.254 814.096 475.254 813.512C475.254 812.911 475.47 812.42 475.901 812.039C476.333 811.659 476.887 811.468 477.564 811.468C478.25 811.468 478.804 811.659 479.228 812.039C479.659 812.42 479.875 812.911 479.875 813.512C479.875 814.121 479.659 814.621 479.228 815.01C478.804 815.399 478.25 815.594 477.564 815.594ZM479.545 830.651H475.533V817.651H479.545V830.651ZM503.564 830.651H499.565V823.237C499.565 821.349 498.871 820.406 497.483 820.406C496.823 820.406 496.286 820.689 495.871 821.256C495.456 821.823 495.249 822.53 495.249 823.376V830.651H491.237V823.161C491.237 821.324 490.556 820.406 489.193 820.406C488.508 820.406 487.958 820.676 487.543 821.218C487.137 821.76 486.934 822.496 486.934 823.427V830.651H482.922V817.651H486.934V819.682H486.984C487.399 818.988 487.979 818.425 488.724 817.994C489.477 817.553 490.298 817.333 491.187 817.333C493.023 817.333 494.28 818.142 494.957 819.758C495.947 818.142 497.403 817.333 499.324 817.333C502.151 817.333 503.564 819.077 503.564 822.564V830.651ZM518.418 825.293H509.938C510.073 827.181 511.262 828.124 513.505 828.124C514.935 828.124 516.192 827.786 517.275 827.109V830.003C516.074 830.647 514.512 830.968 512.591 830.968C510.492 830.968 508.863 830.388 507.703 829.229C506.544 828.061 505.964 826.436 505.964 824.354C505.964 822.196 506.59 820.486 507.843 819.225C509.095 817.964 510.636 817.333 512.464 817.333C514.36 817.333 515.824 817.896 516.856 819.022C517.897 820.148 518.418 821.675 518.418 823.605V825.293ZM514.698 822.83C514.698 820.968 513.945 820.037 512.438 820.037C511.795 820.037 511.237 820.304 510.763 820.837C510.297 821.37 510.014 822.035 509.912 822.83H514.698Z" fill="black" fill-opacity="0.6"/>
<path d="M458.61 788.421C456.953 788.421 455.61 789.764 455.61 791.421C455.61 793.078 456.953 794.421 458.61 794.421V788.421ZM952.122 793.542C953.293 792.371 953.293 790.471 952.122 789.3L933.03 770.208C931.858 769.036 929.959 769.036 928.787 770.208C927.616 771.379 927.616 773.279 928.787 774.45L945.758 791.421L928.787 808.391C927.616 809.563 927.616 811.462 928.787 812.634C929.959 813.806 931.858 813.806 933.03 812.634L952.122 793.542ZM458.61 794.421L950 794.421V788.421L458.61 788.421V794.421Z" fill="black" fill-opacity="0.6"/>
<path d="M118.29 137H103.769V112.787H117.733V117.228H109.223V122.614H117.142V127.038H109.223V132.576H118.29V137ZM138.113 119.71L131.68 137H125.601L119.472 119.71H125.179L128.184 130.364C128.522 131.569 128.719 132.593 128.775 133.437H128.843C128.922 132.638 129.13 131.648 129.468 130.466L132.541 119.71H138.113ZM148.294 137.422C145.413 137.422 143.144 136.617 141.49 135.008C139.846 133.387 139.024 131.192 139.024 128.423C139.024 125.563 139.88 123.329 141.591 121.719C143.302 120.098 145.615 119.288 148.531 119.288C151.401 119.288 153.652 120.098 155.285 121.719C156.917 123.329 157.733 125.462 157.733 128.119C157.733 130.989 156.889 133.257 155.2 134.923C153.523 136.589 151.221 137.422 148.294 137.422ZM148.429 123.374C147.169 123.374 146.189 123.807 145.491 124.674C144.793 125.541 144.445 126.768 144.445 128.355C144.445 131.676 145.784 133.336 148.463 133.336C151.018 133.336 152.296 131.631 152.296 128.22C152.296 124.989 151.007 123.374 148.429 123.374ZM166.53 137H161.194V111.403H166.53V137ZM187.45 137H182.131V134.366H182.047C180.73 136.403 178.968 137.422 176.762 137.422C172.755 137.422 170.751 134.996 170.751 130.145V119.71H176.07V129.672C176.07 132.115 177.038 133.336 178.974 133.336C179.931 133.336 180.696 133.004 181.27 132.34C181.844 131.664 182.131 130.753 182.131 129.604V119.71H187.45V137ZM202.41 136.797C201.622 137.214 200.434 137.422 198.847 137.422C195.088 137.422 193.208 135.469 193.208 131.563V123.644H190.405V119.71H193.208V115.978L198.526 114.459V119.71H202.41V123.644H198.526V130.634C198.526 132.435 199.241 133.336 200.671 133.336C201.234 133.336 201.813 133.173 202.41 132.846V136.797ZM208.134 116.975C207.233 116.975 206.496 116.71 205.922 116.181C205.348 115.641 205.061 114.982 205.061 114.206C205.061 113.406 205.348 112.753 205.922 112.247C206.496 111.74 207.233 111.487 208.134 111.487C209.046 111.487 209.783 111.74 210.346 112.247C210.92 112.753 211.207 113.406 211.207 114.206C211.207 115.016 210.92 115.68 210.346 116.198C209.783 116.716 209.046 116.975 208.134 116.975ZM210.768 137H205.432V119.71H210.768V137ZM223.499 137.422C220.617 137.422 218.349 136.617 216.694 135.008C215.051 133.387 214.229 131.192 214.229 128.423C214.229 125.563 215.085 123.329 216.796 121.719C218.507 120.098 220.82 119.288 223.735 119.288C226.606 119.288 228.857 120.098 230.489 121.719C232.121 123.329 232.938 125.462 232.938 128.119C232.938 130.989 232.093 133.257 230.405 134.923C228.728 136.589 226.426 137.422 223.499 137.422ZM223.634 123.374C222.373 123.374 221.394 123.807 220.696 124.674C219.998 125.541 219.649 126.768 219.649 128.355C219.649 131.676 220.989 133.336 223.668 133.336C226.223 133.336 227.501 131.631 227.501 128.22C227.501 124.989 226.212 123.374 223.634 123.374ZM253.098 137H247.779V127.393C247.779 124.714 246.822 123.374 244.909 123.374C243.986 123.374 243.226 123.729 242.629 124.438C242.033 125.147 241.735 126.047 241.735 127.139V137H236.399V119.71H241.735V122.445H241.802C243.074 120.34 244.926 119.288 247.357 119.288C251.184 119.288 253.098 121.663 253.098 126.413V137ZM275.133 137.422C272.251 137.422 269.983 136.617 268.328 135.008C266.685 133.387 265.863 131.192 265.863 128.423C265.863 125.563 266.718 123.329 268.429 121.719C270.14 120.098 272.454 119.288 275.369 119.288C278.239 119.288 280.491 120.098 282.123 121.719C283.755 123.329 284.571 125.462 284.571 128.119C284.571 130.989 283.727 133.257 282.038 134.923C280.361 136.589 278.059 137.422 275.133 137.422ZM275.268 123.374C274.007 123.374 273.028 123.807 272.33 124.674C271.632 125.541 271.283 126.768 271.283 128.355C271.283 131.676 272.622 133.336 275.301 133.336C277.857 133.336 279.134 131.631 279.134 128.22C279.134 124.989 277.845 123.374 275.268 123.374ZM298.771 115.489C298.085 115.219 297.426 115.084 296.796 115.084C295.085 115.084 294.229 116.012 294.229 117.87V119.71H298.18V123.644H294.229V137H288.911V123.644H286.006V119.71H288.911V117.566C288.911 115.596 289.552 114.009 290.835 112.804C292.119 111.6 293.863 110.997 296.07 110.997C297.15 110.997 298.051 111.11 298.771 111.335V115.489ZM313.022 116.975C312.121 116.975 311.384 116.71 310.81 116.181C310.236 115.641 309.949 114.982 309.949 114.206C309.949 113.406 310.236 112.753 310.81 112.247C311.384 111.74 312.121 111.487 313.022 111.487C313.934 111.487 314.671 111.74 315.234 112.247C315.808 112.753 316.095 113.406 316.095 114.206C316.095 115.016 315.808 115.68 315.234 116.198C314.671 116.716 313.934 116.975 313.022 116.975ZM315.656 137H310.32V119.71H315.656V137ZM336.846 137H331.528V127.393C331.528 124.714 330.571 123.374 328.657 123.374C327.734 123.374 326.974 123.729 326.378 124.438C325.781 125.147 325.483 126.047 325.483 127.139V137H320.147V119.71H325.483V122.445H325.551C326.823 120.34 328.674 119.288 331.106 119.288C334.933 119.288 336.846 121.663 336.846 126.413V137ZM357.547 119.71L351.114 137H345.036L338.906 119.71H344.613L347.619 130.364C347.957 131.569 348.154 132.593 348.21 133.437H348.277C348.356 132.638 348.564 131.648 348.902 130.466L351.975 119.71H357.547ZM367.729 137.422C364.847 137.422 362.579 136.617 360.924 135.008C359.281 133.387 358.459 131.192 358.459 128.423C358.459 125.563 359.314 123.329 361.025 121.719C362.736 120.098 365.05 119.288 367.965 119.288C370.835 119.288 373.087 120.098 374.719 121.719C376.351 123.329 377.167 125.462 377.167 128.119C377.167 130.989 376.323 133.257 374.635 134.923C372.957 136.589 370.655 137.422 367.729 137.422ZM367.864 123.374C366.603 123.374 365.624 123.807 364.926 124.674C364.228 125.541 363.879 126.768 363.879 128.355C363.879 131.676 365.218 133.336 367.898 133.336C370.453 133.336 371.73 131.631 371.73 128.22C371.73 124.989 370.441 123.374 367.864 123.374ZM385.964 137H380.629V111.403H385.964V137ZM406.918 119.71L400.485 137H394.407L388.277 119.71H393.984L396.99 130.364C397.328 131.569 397.525 132.593 397.581 133.437H397.648C397.727 132.638 397.935 131.648 398.273 130.466L401.346 119.71H406.918ZM424.394 129.875H413.115C413.295 132.385 414.877 133.64 417.86 133.64C419.762 133.64 421.433 133.19 422.874 132.289V136.139C421.276 136.994 419.199 137.422 416.644 137.422C413.852 137.422 411.685 136.651 410.143 135.109C408.601 133.556 407.83 131.394 407.83 128.625C407.83 125.755 408.663 123.481 410.329 121.804C411.995 120.126 414.044 119.288 416.475 119.288C418.996 119.288 420.944 120.036 422.317 121.534C423.702 123.031 424.394 125.062 424.394 127.629V129.875ZM419.447 126.599C419.447 124.123 418.445 122.884 416.441 122.884C415.586 122.884 414.843 123.239 414.212 123.948C413.593 124.657 413.216 125.541 413.081 126.599H419.447ZM455.023 137H449.704V127.139C449.704 124.629 448.781 123.374 446.935 123.374C446.057 123.374 445.342 123.751 444.791 124.505C444.239 125.259 443.963 126.199 443.963 127.325V137H438.628V127.038C438.628 124.595 437.722 123.374 435.909 123.374C434.998 123.374 434.266 123.734 433.714 124.455C433.174 125.175 432.904 126.154 432.904 127.393V137H427.568V119.71H432.904V122.412H432.971C433.523 121.489 434.294 120.74 435.285 120.166C436.286 119.581 437.378 119.288 438.56 119.288C441.003 119.288 442.675 120.363 443.575 122.513C444.892 120.363 446.828 119.288 449.383 119.288C453.143 119.288 455.023 121.607 455.023 126.244V137ZM474.778 129.875H463.499C463.679 132.385 465.261 133.64 468.244 133.64C470.146 133.64 471.818 133.19 473.258 132.289V136.139C471.66 136.994 469.583 137.422 467.028 137.422C464.236 137.422 462.069 136.651 460.527 135.109C458.985 133.556 458.214 131.394 458.214 128.625C458.214 125.755 459.047 123.481 460.713 121.804C462.379 120.126 464.428 119.288 466.859 119.288C469.381 119.288 471.328 120.036 472.701 121.534C474.086 123.031 474.778 125.062 474.778 127.629V129.875ZM469.831 126.599C469.831 124.123 468.829 122.884 466.825 122.884C465.97 122.884 465.227 123.239 464.597 123.948C463.977 124.657 463.6 125.541 463.465 126.599H469.831ZM494.651 137H489.333V127.393C489.333 124.714 488.376 123.374 486.462 123.374C485.539 123.374 484.779 123.729 484.183 124.438C483.586 125.147 483.288 126.047 483.288 127.139V137H477.952V119.71H483.288V122.445H483.356C484.628 120.34 486.479 119.288 488.911 119.288C492.738 119.288 494.651 121.663 494.651 126.413V137ZM509.341 136.797C508.553 137.214 507.366 137.422 505.779 137.422C502.019 137.422 500.139 135.469 500.139 131.563V123.644H497.336V119.71H500.139V115.978L505.458 114.459V119.71H509.341V123.644H505.458V130.634C505.458 132.435 506.172 133.336 507.602 133.336C508.165 133.336 508.745 133.173 509.341 132.846V136.797ZM533.199 115.489C532.513 115.219 531.854 115.084 531.224 115.084C529.513 115.084 528.657 116.012 528.657 117.87V119.71H532.608V123.644H528.657V137H523.339V123.644H520.434V119.71H523.339V117.566C523.339 115.596 523.98 114.009 525.264 112.804C526.547 111.6 528.292 110.997 530.498 110.997C531.578 110.997 532.479 111.11 533.199 111.335V115.489ZM546.471 124.522C545.829 124.173 545.081 123.999 544.225 123.999C543.066 123.999 542.16 124.426 541.507 125.282C540.854 126.126 540.527 127.28 540.527 128.743V137H535.192V119.71H540.527V122.918H540.595C541.439 120.577 542.959 119.406 545.154 119.406C545.717 119.406 546.156 119.474 546.471 119.609V124.522ZM557.074 137.422C554.193 137.422 551.925 136.617 550.27 135.008C548.626 133.387 547.805 131.192 547.805 128.423C547.805 125.563 548.66 123.329 550.371 121.719C552.082 120.098 554.395 119.288 557.311 119.288C560.181 119.288 562.433 120.098 564.065 121.719C565.697 123.329 566.513 125.462 566.513 128.119C566.513 130.989 565.669 133.257 563.98 134.923C562.303 136.589 560.001 137.422 557.074 137.422ZM557.21 123.374C555.949 123.374 554.969 123.807 554.272 124.674C553.574 125.541 553.225 126.768 553.225 128.355C553.225 131.676 554.564 133.336 557.243 133.336C559.799 133.336 561.076 131.631 561.076 128.22C561.076 124.989 559.787 123.374 557.21 123.374ZM597.429 137H592.11V127.139C592.11 124.629 591.187 123.374 589.341 123.374C588.463 123.374 587.748 123.751 587.197 124.505C586.645 125.259 586.37 126.199 586.37 127.325V137H581.034V127.038C581.034 124.595 580.128 123.374 578.315 123.374C577.404 123.374 576.672 123.734 576.12 124.455C575.58 125.175 575.31 126.154 575.31 127.393V137H569.974V119.71H575.31V122.412H575.378C575.929 121.489 576.7 120.74 577.691 120.166C578.693 119.581 579.784 119.288 580.966 119.288C583.409 119.288 585.081 120.363 585.981 122.513C587.298 120.363 589.234 119.288 591.79 119.288C595.549 119.288 597.429 121.607 597.429 126.244V137ZM629.088 136.139C627.321 136.994 625.013 137.422 622.165 137.422C618.451 137.422 615.529 136.33 613.402 134.146C611.275 131.963 610.211 129.053 610.211 125.417C610.211 121.545 611.404 118.404 613.79 115.995C616.188 113.586 619.295 112.382 623.111 112.382C625.475 112.382 627.467 112.68 629.088 113.277V118.528C627.467 117.56 625.621 117.076 623.55 117.076C621.276 117.076 619.441 117.791 618.045 119.22C616.65 120.65 615.952 122.586 615.952 125.029C615.952 127.37 616.61 129.239 617.927 130.634C619.244 132.019 621.017 132.711 623.246 132.711C625.373 132.711 627.321 132.193 629.088 131.158V136.139ZM643.102 137.422C639.635 137.422 636.81 136.296 634.626 134.045C632.442 131.783 631.351 128.839 631.351 125.214C631.351 121.387 632.459 118.292 634.677 115.928C636.894 113.564 639.832 112.382 643.491 112.382C646.946 112.382 649.738 113.513 651.866 115.776C654.004 118.038 655.074 121.021 655.074 124.725C655.074 128.529 653.965 131.597 651.747 133.927C649.541 136.257 646.659 137.422 643.102 137.422ZM643.339 117.076C641.425 117.076 639.905 117.796 638.78 119.237C637.654 120.667 637.091 122.564 637.091 124.927C637.091 127.325 637.654 129.222 638.78 130.618C639.905 132.013 641.38 132.711 643.204 132.711C645.083 132.711 646.575 132.036 647.678 130.685C648.781 129.323 649.333 127.438 649.333 125.029C649.333 122.518 648.798 120.565 647.729 119.17C646.659 117.774 645.196 117.076 643.339 117.076ZM673.63 137H659.109V112.787H673.073V117.228H664.563V122.614H672.482V127.038H664.563V132.576H673.63V137ZM696.998 136.797C696.211 137.214 695.023 137.422 693.436 137.422C689.676 137.422 687.796 135.469 687.796 131.563V123.644H684.993V119.71H687.796V115.978L693.115 114.459V119.71H696.998V123.644H693.115V130.634C693.115 132.435 693.83 133.336 695.259 133.336C695.822 133.336 696.402 133.173 696.998 132.846V136.797ZM708.126 137.422C705.244 137.422 702.976 136.617 701.321 135.008C699.678 133.387 698.856 131.192 698.856 128.423C698.856 125.563 699.711 123.329 701.422 121.719C703.133 120.098 705.447 119.288 708.362 119.288C711.232 119.288 713.484 120.098 715.116 121.719C716.748 123.329 717.564 125.462 717.564 128.119C717.564 130.989 716.72 133.257 715.031 134.923C713.354 136.589 711.052 137.422 708.126 137.422ZM708.261 123.374C707 123.374 706.021 123.807 705.323 124.674C704.625 125.541 704.276 126.768 704.276 128.355C704.276 131.676 705.615 133.336 708.294 133.336C710.85 133.336 712.127 131.631 712.127 128.22C712.127 124.989 710.838 123.374 708.261 123.374ZM735.985 134.991H735.918V137H730.582V111.403H735.918V122.31H735.985C737.302 120.295 739.177 119.288 741.608 119.288C743.837 119.288 745.553 120.053 746.758 121.584C747.962 123.115 748.565 125.209 748.565 127.865C748.565 130.747 747.861 133.06 746.454 134.805C745.047 136.55 743.167 137.422 740.814 137.422C738.687 137.422 737.077 136.612 735.985 134.991ZM735.833 127.696V129.469C735.833 130.584 736.154 131.507 736.796 132.238C737.437 132.97 738.259 133.336 739.261 133.336C740.477 133.336 741.417 132.869 742.081 131.935C742.756 130.989 743.094 129.655 743.094 127.933C743.094 126.503 742.784 125.389 742.165 124.59C741.557 123.779 740.685 123.374 739.548 123.374C738.479 123.374 737.589 123.774 736.88 124.573C736.182 125.372 735.833 126.413 735.833 127.696ZM768.455 137H763.136V134.366H763.052C761.735 136.403 759.973 137.422 757.767 137.422C753.759 137.422 751.756 134.996 751.756 130.145V119.71H757.074V129.672C757.074 132.115 758.043 133.336 759.979 133.336C760.935 133.336 761.701 133.004 762.275 132.34C762.849 131.664 763.136 130.753 763.136 129.604V119.71H768.455V137ZM771.832 136.544V132.222C772.71 132.751 773.582 133.145 774.449 133.404C775.327 133.662 776.154 133.792 776.931 133.792C777.877 133.792 778.619 133.662 779.16 133.404C779.711 133.145 779.987 132.751 779.987 132.222C779.987 131.884 779.863 131.603 779.616 131.377C779.368 131.152 779.047 130.955 778.653 130.786C778.271 130.618 777.848 130.466 777.387 130.331C776.925 130.195 776.481 130.043 776.053 129.875C775.366 129.616 774.758 129.34 774.229 129.047C773.712 128.743 773.273 128.394 772.912 128C772.563 127.606 772.293 127.151 772.102 126.633C771.922 126.115 771.832 125.501 771.832 124.792C771.832 123.824 772.04 122.991 772.457 122.293C772.884 121.595 773.447 121.027 774.145 120.588C774.854 120.138 775.659 119.811 776.56 119.609C777.471 119.395 778.417 119.288 779.396 119.288C780.162 119.288 780.938 119.35 781.726 119.474C782.514 119.586 783.291 119.755 784.056 119.98V124.1C783.381 123.706 782.655 123.413 781.878 123.222C781.113 123.019 780.359 122.918 779.616 122.918C779.267 122.918 778.935 122.952 778.619 123.019C778.316 123.076 778.045 123.166 777.809 123.29C777.573 123.402 777.387 123.554 777.252 123.745C777.117 123.926 777.049 124.134 777.049 124.37C777.049 124.685 777.151 124.956 777.353 125.181C777.556 125.406 777.82 125.603 778.147 125.772C778.473 125.929 778.833 126.076 779.227 126.211C779.633 126.334 780.032 126.464 780.426 126.599C781.135 126.847 781.777 127.117 782.351 127.409C782.925 127.702 783.415 128.045 783.82 128.439C784.236 128.833 784.552 129.295 784.766 129.824C784.991 130.353 785.103 130.983 785.103 131.715C785.103 132.739 784.878 133.617 784.428 134.349C783.989 135.07 783.398 135.66 782.655 136.122C781.923 136.572 781.073 136.899 780.105 137.101C779.149 137.315 778.152 137.422 777.117 137.422C775.214 137.422 773.453 137.129 771.832 136.544ZM790.895 116.975C789.994 116.975 789.257 116.71 788.683 116.181C788.109 115.641 787.822 114.982 787.822 114.206C787.822 113.406 788.109 112.753 788.683 112.247C789.257 111.74 789.994 111.487 790.895 111.487C791.806 111.487 792.544 111.74 793.107 112.247C793.681 112.753 793.968 113.406 793.968 114.206C793.968 115.016 793.681 115.68 793.107 116.198C792.544 116.716 791.806 116.975 790.895 116.975ZM793.529 137H788.193V119.71H793.529V137ZM814.719 137H809.4V127.393C809.4 124.714 808.444 123.374 806.53 123.374C805.607 123.374 804.847 123.729 804.251 124.438C803.654 125.147 803.356 126.047 803.356 127.139V137H798.02V119.71H803.356V122.445H803.423C804.695 120.34 806.547 119.288 808.978 119.288C812.805 119.288 814.719 121.663 814.719 126.413V137ZM834.491 129.875H823.212C823.392 132.385 824.974 133.64 827.957 133.64C829.859 133.64 831.531 133.19 832.972 132.289V136.139C831.373 136.994 829.296 137.422 826.741 137.422C823.949 137.422 821.783 136.651 820.24 135.109C818.698 133.556 817.927 131.394 817.927 128.625C817.927 125.755 818.76 123.481 820.426 121.804C822.092 120.126 824.141 119.288 826.572 119.288C829.094 119.288 831.041 120.036 832.414 121.534C833.799 123.031 834.491 125.062 834.491 127.629V129.875ZM829.544 126.599C829.544 124.123 828.542 122.884 826.538 122.884C825.683 122.884 824.94 123.239 824.31 123.948C823.691 124.657 823.313 125.541 823.178 126.599H829.544ZM836.534 136.544V132.222C837.412 132.751 838.285 133.145 839.151 133.404C840.029 133.662 840.857 133.792 841.633 133.792C842.579 133.792 843.322 133.662 843.862 133.404C844.414 133.145 844.69 132.751 844.69 132.222C844.69 131.884 844.566 131.603 844.318 131.377C844.07 131.152 843.75 130.955 843.356 130.786C842.973 130.618 842.551 130.466 842.089 130.331C841.628 130.195 841.183 130.043 840.755 129.875C840.069 129.616 839.461 129.34 838.932 129.047C838.414 128.743 837.975 128.394 837.615 128C837.266 127.606 836.996 127.151 836.804 126.633C836.624 126.115 836.534 125.501 836.534 124.792C836.534 123.824 836.742 122.991 837.159 122.293C837.587 121.595 838.15 121.027 838.847 120.588C839.557 120.138 840.361 119.811 841.262 119.609C842.174 119.395 843.119 119.288 844.099 119.288C844.864 119.288 845.641 119.35 846.429 119.474C847.217 119.586 847.993 119.755 848.759 119.98V124.1C848.083 123.706 847.357 123.413 846.581 123.222C845.815 123.019 845.061 122.918 844.318 122.918C843.969 122.918 843.637 122.952 843.322 123.019C843.018 123.076 842.748 123.166 842.511 123.29C842.275 123.402 842.089 123.554 841.954 123.745C841.819 123.926 841.752 124.134 841.752 124.37C841.752 124.685 841.853 124.956 842.056 125.181C842.258 125.406 842.523 125.603 842.849 125.772C843.176 125.929 843.536 126.076 843.93 126.211C844.335 126.334 844.735 126.464 845.129 126.599C845.838 126.847 846.479 127.117 847.053 127.409C847.627 127.702 848.117 128.045 848.522 128.439C848.939 128.833 849.254 129.295 849.468 129.824C849.693 130.353 849.806 130.983 849.806 131.715C849.806 132.739 849.58 133.617 849.13 134.349C848.691 135.07 848.1 135.66 847.357 136.122C846.626 136.572 845.776 136.899 844.808 137.101C843.851 137.315 842.855 137.422 841.819 137.422C839.917 137.422 838.155 137.129 836.534 136.544ZM851.764 136.544V132.222C852.642 132.751 853.515 133.145 854.381 133.404C855.259 133.662 856.087 133.792 856.863 133.792C857.809 133.792 858.552 133.662 859.092 133.404C859.644 133.145 859.92 132.751 859.92 132.222C859.92 131.884 859.796 131.603 859.548 131.377C859.3 131.152 858.98 130.955 858.586 130.786C858.203 130.618 857.781 130.466 857.319 130.331C856.858 130.195 856.413 130.043 855.985 129.875C855.299 129.616 854.691 129.34 854.162 129.047C853.644 128.743 853.205 128.394 852.845 128C852.496 127.606 852.226 127.151 852.034 126.633C851.854 126.115 851.764 125.501 851.764 124.792C851.764 123.824 851.972 122.991 852.389 122.293C852.817 121.595 853.38 121.027 854.077 120.588C854.787 120.138 855.591 119.811 856.492 119.609C857.404 119.395 858.349 119.288 859.329 119.288C860.094 119.288 860.871 119.35 861.659 119.474C862.447 119.586 863.223 119.755 863.989 119.98V124.1C863.313 123.706 862.587 123.413 861.811 123.222C861.045 123.019 860.291 122.918 859.548 122.918C859.199 122.918 858.867 122.952 858.552 123.019C858.248 123.076 857.978 123.166 857.741 123.29C857.505 123.402 857.319 123.554 857.184 123.745C857.049 123.926 856.982 124.134 856.982 124.37C856.982 124.685 857.083 124.956 857.286 125.181C857.488 125.406 857.753 125.603 858.079 125.772C858.406 125.929 858.766 126.076 859.16 126.211C859.565 126.334 859.965 126.464 860.359 126.599C861.068 126.847 861.709 127.117 862.283 127.409C862.858 127.702 863.347 128.045 863.752 128.439C864.169 128.833 864.484 129.295 864.698 129.824C864.923 130.353 865.036 130.983 865.036 131.715C865.036 132.739 864.811 133.617 864.36 134.349C863.921 135.07 863.33 135.66 862.587 136.122C861.856 136.572 861.006 136.899 860.038 137.101C859.081 137.315 858.085 137.422 857.049 137.422C855.147 137.422 853.385 137.129 851.764 136.544ZM894.111 137H888.793V134.366H888.708C887.391 136.403 885.629 137.422 883.423 137.422C879.416 137.422 877.412 134.996 877.412 130.145V119.71H882.731V129.672C882.731 132.115 883.699 133.336 885.635 133.336C886.592 133.336 887.357 133.004 887.931 132.34C888.506 131.664 888.793 130.753 888.793 129.604V119.71H894.111V137ZM915.319 137H910V127.393C910 124.714 909.043 123.374 907.129 123.374C906.206 123.374 905.447 123.729 904.85 124.438C904.253 125.147 903.955 126.047 903.955 127.139V137H898.62V119.71H903.955V122.445H904.023C905.295 120.34 907.146 119.288 909.578 119.288C913.405 119.288 915.319 121.663 915.319 126.413V137ZM922.258 116.975C921.358 116.975 920.62 116.71 920.046 116.181C919.472 115.641 919.185 114.982 919.185 114.206C919.185 113.406 919.472 112.753 920.046 112.247C920.62 111.74 921.358 111.487 922.258 111.487C923.17 111.487 923.907 111.74 924.47 112.247C925.044 112.753 925.331 113.406 925.331 114.206C925.331 115.016 925.044 115.68 924.47 116.198C923.907 116.716 923.17 116.975 922.258 116.975ZM924.892 137H919.557V119.71H924.892V137ZM939.835 136.797C939.047 137.214 937.86 137.422 936.273 137.422C932.513 137.422 930.633 135.469 930.633 131.563V123.644H927.83V119.71H930.633V115.978L935.952 114.459V119.71H939.835V123.644H935.952V130.634C935.952 132.435 936.667 133.336 938.096 133.336C938.659 133.336 939.239 133.173 939.835 132.846V136.797ZM941.726 136.544V132.222C942.604 132.751 943.477 133.145 944.343 133.404C945.221 133.662 946.049 133.792 946.825 133.792C947.771 133.792 948.514 133.662 949.054 133.404C949.606 133.145 949.882 132.751 949.882 132.222C949.882 131.884 949.758 131.603 949.51 131.377C949.263 131.152 948.942 130.955 948.548 130.786C948.165 130.618 947.743 130.466 947.281 130.331C946.82 130.195 946.375 130.043 945.947 129.875C945.261 129.616 944.653 129.34 944.124 129.047C943.606 128.743 943.167 128.394 942.807 128C942.458 127.606 942.188 127.151 941.996 126.633C941.816 126.115 941.726 125.501 941.726 124.792C941.726 123.824 941.935 122.991 942.351 122.293C942.779 121.595 943.342 121.027 944.039 120.588C944.749 120.138 945.553 119.811 946.454 119.609C947.366 119.395 948.311 119.288 949.291 119.288C950.056 119.288 950.833 119.35 951.621 119.474C952.409 119.586 953.185 119.755 953.951 119.98V124.1C953.275 123.706 952.549 123.413 951.773 123.222C951.007 123.019 950.253 122.918 949.51 122.918C949.161 122.918 948.829 122.952 948.514 123.019C948.21 123.076 947.94 123.166 947.703 123.29C947.467 123.402 947.281 123.554 947.146 123.745C947.011 123.926 946.944 124.134 946.944 124.37C946.944 124.685 947.045 124.956 947.248 125.181C947.45 125.406 947.715 125.603 948.041 125.772C948.368 125.929 948.728 126.076 949.122 126.211C949.527 126.334 949.927 126.464 950.321 126.599C951.03 126.847 951.671 127.117 952.245 127.409C952.82 127.702 953.309 128.045 953.714 128.439C954.131 128.833 954.446 129.295 954.66 129.824C954.885 130.353 954.998 130.983 954.998 131.715C954.998 132.739 954.773 133.617 954.322 134.349C953.883 135.07 953.292 135.66 952.549 136.122C951.818 136.572 950.968 136.899 950 137.101C949.043 137.315 948.047 137.422 947.011 137.422C945.109 137.422 943.347 137.129 941.726 136.544Z" fill="black" fill-opacity="0.6"/>
<line x1="101" y1="161" x2="1021" y2="161" stroke="#616161" stroke-opacity="0.33" stroke-width="2"/>
<defs>
<filter id="filter0_f_7_527" x="91" y="300.618" width="327.38" height="223.037" filterUnits="userSpaceOnUse" color-interpolation-filters="sRGB">
<feFlood flood-opacity="0" result="BackgroundImageFix"/>
<feBlend mode="normal" in="SourceGraphic" in2="BackgroundImageFix" result="shape"/>
<feGaussianBlur stdDeviation="5" result="effect1_foregroundBlur_7_527"/>
</filter>
<filter id="filter1_f_7_527" x="90" y="517.755" width="327.38" height="224.447" filterUnits="userSpaceOnUse" color-interpolation-filters="sRGB">
<feFlood flood-opacity="0" result="BackgroundImageFix"/>
<feBlend mode="normal" in="SourceGraphic" in2="BackgroundImageFix" result="shape"/>
<feGaussianBlur stdDeviation="5" result="effect1_foregroundBlur_7_527"/>
</filter>
<linearGradient id="paint0_linear_7_527" x1="560.5" y1="0" x2="560.5" y2="938" gradientUnits="userSpaceOnUse">
<stop stop-color="white" stop-opacity="0"/>
<stop offset="1" stop-color="#D0D0D0"/>
</linearGradient>
<radialGradient id="paint1_radial_7_527" cx="0" cy="0" r="1" gradientUnits="userSpaceOnUse" gradientTransform="translate(308.573 95.1562) rotate(38.4712) scale(1195.37 1098.96)">
<stop stop-color="#FFB800" stop-opacity="0.6"/>
<stop offset="0.255208" stop-color="#E8E48E"/>
<stop offset="0.776042" stop-color="#177E71" stop-opacity="0.6"/>
<stop offset="1" stop-color="#17597E"/>
</radialGradient>
<linearGradient id="paint2_linear_7_527" x1="144.261" y1="411.325" x2="268.213" y2="450.02" gradientUnits="userSpaceOnUse">
<stop stop-color="white"/>
<stop offset="1" stop-color="#FAFAFA"/>
</linearGradient>
<linearGradient id="paint3_linear_7_527" x1="143.261" y1="629.161" x2="267.364" y2="667.637" gradientUnits="userSpaceOnUse">
<stop stop-color="white"/>
<stop offset="1" stop-color="#FAFAFA"/>
</linearGradient>
<linearGradient id="paint4_linear_7_527" x1="407.38" y1="310.618" x2="361.96" y2="315.764" gradientUnits="userSpaceOnUse">
<stop stop-color="#209782"/>
<stop offset="1" stop-color="#0C695A"/>
</linearGradient>
<linearGradient id="paint5_linear_7_527" x1="407.38" y1="527.755" x2="361.952" y2="532.866" gradientUnits="userSpaceOnUse">
<stop stop-color="#125247"/>
<stop offset="1" stop-color="#013129"/>
</linearGradient>
<linearGradient id="paint6_linear_7_527" x1="458.61" y1="527.755" x2="656.074" y2="679.225" gradientUnits="userSpaceOnUse">
<stop stop-color="#125247"/>
<stop offset="1" stop-color="#013129"/>
</linearGradient>
<linearGradient id="paint7_linear_7_527" x1="458.61" y1="309.208" x2="656.074" y2="460.678" gradientUnits="userSpaceOnUse">
<stop stop-color="#209782"/>
<stop offset="1" stop-color="#0C695A"/>
</linearGradient>
<linearGradient id="paint8_linear_7_527" x1="625.892" y1="630.683" x2="718.512" y2="773.764" gradientUnits="userSpaceOnUse">
<stop stop-color="#125247"/>
<stop offset="1" stop-color="#013129"/>
</linearGradient>
<linearGradient id="paint9_linear_7_527" x1="625.892" y1="309.208" x2="875.229" y2="435.842" gradientUnits="userSpaceOnUse">
<stop stop-color="#209782"/>
<stop offset="1" stop-color="#0C695A"/>
</linearGradient>
<linearGradient id="paint10_linear_7_527" x1="497.294" y1="381.117" x2="552.503" y2="466.802" gradientUnits="userSpaceOnUse">
<stop stop-color="#125247"/>
<stop offset="1" stop-color="#013129"/>
</linearGradient>
<linearGradient id="paint11_linear_7_527" x1="664.576" y1="381.117" x2="719.785" y2="466.802" gradientUnits="userSpaceOnUse">
<stop stop-color="#125247"/>
<stop offset="1" stop-color="#013129"/>
</linearGradient>
<linearGradient id="paint12_linear_7_527" x1="793.173" y1="723.742" x2="794.083" y2="740.613" gradientUnits="userSpaceOnUse">
<stop stop-color="#125247"/>
<stop offset="1" stop-color="#013129"/>
</linearGradient>
<linearGradient id="paint13_linear_7_527" x1="793.173" y1="309.208" x2="1065.12" y2="415.712" gradientUnits="userSpaceOnUse">
<stop stop-color="#209782"/>
<stop offset="1" stop-color="#0C695A"/>
</linearGradient>
<linearGradient id="paint14_linear_7_527" x1="831.857" y1="381.117" x2="887.067" y2="466.802" gradientUnits="userSpaceOnUse">
<stop stop-color="#125247"/>
<stop offset="1" stop-color="#013129"/>
</linearGradient>
</defs>
</svg>
