<svg id="Layer_1" data-name="Layer 1" xmlns="http://www.w3.org/2000/svg" viewBox="0 0 140 140"><defs><style>.cls-1{fill:#fff;stroke:#000;}.cls-1,.cls-2{stroke-miterlimit:10;stroke-width:2px;}.cls-2{fill:none;stroke:#f2c811;}</style></defs><title>PowerBI_documentation-illustrations (002)</title><path class="cls-1" d="M76.29,25h27.34A3.37,3.37,0,0,1,107,28.38v87.24a3.37,3.37,0,0,1-3.37,3.38H34.37A3.37,3.37,0,0,1,31,115.62V28.38A3.37,3.37,0,0,1,34.37,25H76.29Z"/><polyline class="cls-1" points="93 33 101 33 101 113 37 113 37 33 45 33"/><path class="cls-1" d="M89.73,29H77c0-.12,0-.19,0-.32a7.92,7.92,0,0,0-15.84,0c0,.13,0,.2,0,.32H48.51A3.52,3.52,0,0,0,45,32.41V37H93V32.41A3.32,3.32,0,0,0,89.73,29ZM69.12,31.32a2.64,2.64,0,1,1,2.67-2.64A2.66,2.66,0,0,1,69.12,31.32Z"/><rect class="cls-1" x="47" y="47" width="14" height="14"/><polyline class="cls-2" points="50.74 51.97 54.07 55.29 65.21 44.16"/><line class="cls-2" x1="68" y1="51" x2="94" y2="51"/><line class="cls-2" x1="68" y1="57" x2="86" y2="57"/><rect class="cls-1" x="47" y="69" width="14" height="14"/><line class="cls-1" x1="68" y1="73" x2="94" y2="73"/><line class="cls-1" x1="68" y1="79" x2="86" y2="79"/><rect class="cls-1" x="47" y="91" width="14" height="14"/><line class="cls-1" x1="68" y1="95" x2="94" y2="95"/><line class="cls-1" x1="68" y1="101" x2="86" y2="101"/></svg>