<svg width="842" height="572" viewBox="0 0 842 572" fill="none" xmlns="http://www.w3.org/2000/svg">
<rect x="0.5" y="0.5" width="841" height="571" fill="white"/>
<rect x="0.5" y="0.5" width="841" height="571" fill="url(#paint0_radial_32_3560)" fill-opacity="0.075"/>
<rect x="0.5" y="0.5" width="841" height="571" stroke="#14063D"/>
<path opacity="0.5" d="M419.811 78.0859C420.185 76.9342 421.815 76.9342 422.189 78.0859L470.353 226.321C470.721 227.454 471.777 228.221 472.969 228.221H628.832C630.043 228.221 630.547 229.771 629.567 230.482L503.471 322.097C502.507 322.797 502.104 324.038 502.472 325.171L550.636 473.406C551.01 474.558 549.692 475.516 548.713 474.804L422.616 383.19C421.653 382.489 420.347 382.489 419.384 383.19L293.287 474.804C292.308 475.516 290.99 474.558 291.364 473.406L339.528 325.171C339.896 324.038 339.493 322.797 338.529 322.097L212.433 230.482C211.453 229.771 211.957 228.221 213.168 228.221H369.031C370.223 228.221 371.279 227.454 371.647 226.321L419.811 78.0859Z" fill="url(#paint1_radial_32_3560)" stroke="url(#paint2_linear_32_3560)" stroke-width="1.5"/>
<path d="M398.5 272.75C398.5 269.298 395.702 266.5 392.25 266.5H369.75C366.298 266.5 363.5 269.298 363.5 272.75V295.25C363.5 298.702 366.298 301.5 369.75 301.5H392.25C395.702 301.5 398.5 298.702 398.5 295.25V272.75ZM366 295.25V291.5H373.5V299H369.75L369.389 298.983C367.487 298.801 366 297.199 366 295.25ZM386 291.5V299H376V291.5H386ZM392.25 299H388.5V291.5H396V295.25L395.983 295.611C395.801 297.513 394.199 299 392.25 299ZM386 279V289H376V279H386ZM388.5 279H396V289H388.5V279ZM386 269V276.5H376V269H386ZM388.5 269H392.25L392.611 269.017C394.513 269.199 396 270.801 396 272.75V276.5H388.5V269ZM373.5 269V276.5H366V272.75L366.017 272.389C366.199 270.487 367.801 269 369.75 269H373.5ZM373.5 279V289H366V279H373.5Z" fill="url(#paint3_linear_32_3560)"/>
<path d="M413.148 282.355V278.605C413.828 279.176 414.566 279.605 415.363 279.895C416.16 280.176 416.965 280.316 417.777 280.316C418.254 280.316 418.668 280.273 419.02 280.188C419.379 280.102 419.676 279.984 419.91 279.836C420.152 279.68 420.332 279.5 420.449 279.297C420.566 279.086 420.625 278.859 420.625 278.617C420.625 278.289 420.531 277.996 420.344 277.738C420.156 277.48 419.898 277.242 419.57 277.023C419.25 276.805 418.867 276.594 418.422 276.391C417.977 276.188 417.496 275.98 416.98 275.77C415.668 275.223 414.688 274.555 414.039 273.766C413.398 272.977 413.078 272.023 413.078 270.906C413.078 270.031 413.254 269.281 413.605 268.656C413.957 268.023 414.434 267.504 415.035 267.098C415.645 266.691 416.348 266.395 417.145 266.207C417.941 266.012 418.785 265.914 419.676 265.914C420.551 265.914 421.324 265.969 421.996 266.078C422.676 266.18 423.301 266.34 423.871 266.559V270.062C423.59 269.867 423.281 269.695 422.945 269.547C422.617 269.398 422.277 269.277 421.926 269.184C421.574 269.082 421.223 269.008 420.871 268.961C420.527 268.914 420.199 268.891 419.887 268.891C419.457 268.891 419.066 268.934 418.715 269.02C418.363 269.098 418.066 269.211 417.824 269.359C417.582 269.508 417.395 269.688 417.262 269.898C417.129 270.102 417.062 270.332 417.062 270.59C417.062 270.871 417.137 271.125 417.285 271.352C417.434 271.57 417.645 271.781 417.918 271.984C418.191 272.18 418.523 272.375 418.914 272.57C419.305 272.758 419.746 272.953 420.238 273.156C420.91 273.438 421.512 273.738 422.043 274.059C422.582 274.371 423.043 274.727 423.426 275.125C423.809 275.523 424.102 275.98 424.305 276.496C424.508 277.004 424.609 277.598 424.609 278.277C424.609 279.215 424.43 280.004 424.07 280.645C423.719 281.277 423.238 281.793 422.629 282.191C422.02 282.582 421.309 282.863 420.496 283.035C419.691 283.207 418.84 283.293 417.941 283.293C417.02 283.293 416.141 283.215 415.305 283.059C414.477 282.902 413.758 282.668 413.148 282.355ZM436.996 283H433.492V281.277H433.445C432.641 282.621 431.449 283.293 429.871 283.293C428.707 283.293 427.789 282.965 427.117 282.309C426.453 281.645 426.121 280.762 426.121 279.66C426.121 277.332 427.5 275.988 430.258 275.629L433.516 275.195C433.516 273.883 432.805 273.227 431.383 273.227C429.953 273.227 428.594 273.652 427.305 274.504V271.715C427.82 271.449 428.523 271.215 429.414 271.012C430.312 270.809 431.129 270.707 431.863 270.707C435.285 270.707 436.996 272.414 436.996 275.828V283ZM433.516 278.125V277.316L431.336 277.598C430.133 277.754 429.531 278.297 429.531 279.227C429.531 279.648 429.676 279.996 429.965 280.27C430.262 280.535 430.66 280.668 431.16 280.668C431.855 280.668 432.422 280.43 432.859 279.953C433.297 279.469 433.516 278.859 433.516 278.125ZM443.629 283H439.926V265.234H443.629V283ZM457.527 278.055H449.699C449.824 279.797 450.922 280.668 452.992 280.668C454.312 280.668 455.473 280.355 456.473 279.73V282.402C455.363 282.996 453.922 283.293 452.148 283.293C450.211 283.293 448.707 282.758 447.637 281.688C446.566 280.609 446.031 279.109 446.031 277.188C446.031 275.195 446.609 273.617 447.766 272.453C448.922 271.289 450.344 270.707 452.031 270.707C453.781 270.707 455.133 271.227 456.086 272.266C457.047 273.305 457.527 274.715 457.527 276.496V278.055ZM454.094 275.781C454.094 274.062 453.398 273.203 452.008 273.203C451.414 273.203 450.898 273.449 450.461 273.941C450.031 274.434 449.77 275.047 449.676 275.781H454.094ZM458.945 282.684V279.684C459.555 280.051 460.16 280.324 460.762 280.504C461.371 280.684 461.945 280.773 462.484 280.773C463.141 280.773 463.656 280.684 464.031 280.504C464.414 280.324 464.605 280.051 464.605 279.684C464.605 279.449 464.52 279.254 464.348 279.098C464.176 278.941 463.953 278.805 463.68 278.688C463.414 278.57 463.121 278.465 462.801 278.371C462.48 278.277 462.172 278.172 461.875 278.055C461.398 277.875 460.977 277.684 460.609 277.48C460.25 277.27 459.945 277.027 459.695 276.754C459.453 276.48 459.266 276.164 459.133 275.805C459.008 275.445 458.945 275.02 458.945 274.527C458.945 273.855 459.09 273.277 459.379 272.793C459.676 272.309 460.066 271.914 460.551 271.609C461.043 271.297 461.602 271.07 462.227 270.93C462.859 270.781 463.516 270.707 464.195 270.707C464.727 270.707 465.266 270.75 465.812 270.836C466.359 270.914 466.898 271.031 467.43 271.188V274.047C466.961 273.773 466.457 273.57 465.918 273.438C465.387 273.297 464.863 273.227 464.348 273.227C464.105 273.227 463.875 273.25 463.656 273.297C463.445 273.336 463.258 273.398 463.094 273.484C462.93 273.562 462.801 273.668 462.707 273.801C462.613 273.926 462.566 274.07 462.566 274.234C462.566 274.453 462.637 274.641 462.777 274.797C462.918 274.953 463.102 275.09 463.328 275.207C463.555 275.316 463.805 275.418 464.078 275.512C464.359 275.598 464.637 275.688 464.91 275.781C465.402 275.953 465.848 276.141 466.246 276.344C466.645 276.547 466.984 276.785 467.266 277.059C467.555 277.332 467.773 277.652 467.922 278.02C468.078 278.387 468.156 278.824 468.156 279.332C468.156 280.043 468 280.652 467.688 281.16C467.383 281.66 466.973 282.07 466.457 282.391C465.949 282.703 465.359 282.93 464.688 283.07C464.023 283.219 463.332 283.293 462.613 283.293C461.293 283.293 460.07 283.09 458.945 282.684Z" fill="url(#paint4_linear_32_3560)"/>
<path d="M417.703 292.633C417.458 292.492 417.18 292.422 416.867 292.422C415.987 292.422 415.547 292.919 415.547 293.914V295H417.406V296.422H415.555V303H413.742V296.422H412.375V295H413.742V293.703C413.742 292.859 414.018 292.195 414.57 291.711C415.122 291.221 415.812 290.977 416.641 290.977C417.089 290.977 417.443 291.026 417.703 291.125V292.633ZM424.836 303H423.078V301.75H423.047C422.495 302.708 421.685 303.188 420.617 303.188C419.831 303.188 419.214 302.974 418.766 302.547C418.323 302.12 418.102 301.555 418.102 300.852C418.102 299.341 418.971 298.461 420.711 298.211L423.086 297.875C423.086 296.734 422.544 296.164 421.461 296.164C420.508 296.164 419.648 296.492 418.883 297.148V295.562C419.727 295.062 420.701 294.812 421.805 294.812C423.826 294.812 424.836 295.807 424.836 297.797V303ZM423.086 299.07L421.406 299.305C420.885 299.372 420.492 299.5 420.227 299.688C419.966 299.87 419.836 300.193 419.836 300.656C419.836 300.995 419.956 301.273 420.195 301.492C420.44 301.706 420.766 301.812 421.172 301.812C421.724 301.812 422.18 301.62 422.539 301.234C422.904 300.844 423.086 300.354 423.086 299.766V299.07ZM432.781 302.633C432.141 303.003 431.383 303.188 430.508 303.188C429.32 303.188 428.362 302.818 427.633 302.078C426.904 301.333 426.539 300.37 426.539 299.188C426.539 297.87 426.93 296.812 427.711 296.016C428.497 295.214 429.547 294.812 430.859 294.812C431.589 294.812 432.232 294.94 432.789 295.195V296.883C432.232 296.466 431.638 296.258 431.008 296.258C430.242 296.258 429.615 296.518 429.125 297.039C428.635 297.555 428.391 298.232 428.391 299.07C428.391 299.898 428.62 300.552 429.078 301.031C429.542 301.51 430.161 301.75 430.938 301.75C431.589 301.75 432.203 301.518 432.781 301.055V302.633ZM438.805 302.914C438.451 303.091 437.984 303.18 437.406 303.18C435.854 303.18 435.078 302.435 435.078 300.945V296.422H433.742V295H435.078V293.148L436.891 292.633V295H438.805V296.422H436.891V300.422C436.891 300.896 436.977 301.234 437.148 301.438C437.32 301.641 437.607 301.742 438.008 301.742C438.315 301.742 438.581 301.654 438.805 301.477V302.914ZM448.992 302.914C448.638 303.091 448.172 303.18 447.594 303.18C446.042 303.18 445.266 302.435 445.266 300.945V296.422H443.93V295H445.266V293.148L447.078 292.633V295H448.992V296.422H447.078V300.422C447.078 300.896 447.164 301.234 447.336 301.438C447.508 301.641 447.794 301.742 448.195 301.742C448.503 301.742 448.768 301.654 448.992 301.477V302.914ZM456.695 303H454.938V301.75H454.906C454.354 302.708 453.544 303.188 452.477 303.188C451.69 303.188 451.073 302.974 450.625 302.547C450.182 302.12 449.961 301.555 449.961 300.852C449.961 299.341 450.831 298.461 452.57 298.211L454.945 297.875C454.945 296.734 454.404 296.164 453.32 296.164C452.367 296.164 451.508 296.492 450.742 297.148V295.562C451.586 295.062 452.56 294.812 453.664 294.812C455.685 294.812 456.695 295.807 456.695 297.797V303ZM454.945 299.07L453.266 299.305C452.745 299.372 452.352 299.5 452.086 299.688C451.826 299.87 451.695 300.193 451.695 300.656C451.695 300.995 451.815 301.273 452.055 301.492C452.299 301.706 452.625 301.812 453.031 301.812C453.583 301.812 454.039 301.62 454.398 301.234C454.763 300.844 454.945 300.354 454.945 299.766V299.07ZM460.758 301.844H460.727V303H458.914V291.156H460.727V296.406H460.758C461.378 295.344 462.284 294.812 463.477 294.812C464.487 294.812 465.276 295.172 465.844 295.891C466.417 296.604 466.703 297.562 466.703 298.766C466.703 300.104 466.383 301.177 465.742 301.984C465.102 302.786 464.227 303.188 463.117 303.188C462.076 303.188 461.289 302.74 460.758 301.844ZM460.711 298.664V299.656C460.711 300.24 460.896 300.734 461.266 301.141C461.641 301.547 462.115 301.75 462.688 301.75C463.359 301.75 463.885 301.49 464.266 300.969C464.651 300.443 464.844 299.711 464.844 298.773C464.844 297.987 464.664 297.372 464.305 296.93C463.951 296.482 463.469 296.258 462.859 296.258C462.214 296.258 461.693 296.487 461.297 296.945C460.906 297.404 460.711 297.977 460.711 298.664ZM470.375 303H468.555V291.156H470.375V303ZM479.516 299.492H474.062C474.083 300.232 474.31 300.802 474.742 301.203C475.18 301.604 475.779 301.805 476.539 301.805C477.393 301.805 478.177 301.549 478.891 301.039V302.5C478.161 302.958 477.198 303.188 476 303.188C474.823 303.188 473.898 302.826 473.227 302.102C472.56 301.372 472.227 300.349 472.227 299.031C472.227 297.786 472.594 296.773 473.328 295.992C474.068 295.206 474.984 294.812 476.078 294.812C477.172 294.812 478.018 295.164 478.617 295.867C479.216 296.57 479.516 297.547 479.516 298.797V299.492ZM477.766 298.211C477.76 297.56 477.607 297.055 477.305 296.695C477.003 296.331 476.586 296.148 476.055 296.148C475.534 296.148 475.091 296.339 474.727 296.719C474.367 297.099 474.146 297.596 474.062 298.211H477.766Z" fill="url(#paint5_linear_32_3560)"/>
<path d="M321.75 66C321.75 57.5777 328.578 50.75 337 50.75H505C513.422 50.75 520.25 57.5777 520.25 66V95C520.25 103.422 513.422 110.25 505 110.25H337C328.578 110.25 321.75 103.422 321.75 95V66Z" fill="white"/>
<path d="M321.75 66C321.75 57.5777 328.578 50.75 337 50.75H505C513.422 50.75 520.25 57.5777 520.25 66V95C520.25 103.422 513.422 110.25 505 110.25H337C328.578 110.25 321.75 103.422 321.75 95V66Z" stroke="#E1E1E1" stroke-width="1.5"/>
<path d="M365.75 72.625C365.75 70.2088 363.791 68.25 361.375 68.25H345.625C343.209 68.25 341.25 70.2088 341.25 72.625V88.375C341.25 90.7912 343.209 92.75 345.625 92.75H361.375C363.791 92.75 365.75 90.7912 365.75 88.375V72.625ZM343 88.375V85.75H348.25V91H345.625L345.372 90.988C344.041 90.8608 343 89.7395 343 88.375ZM357 85.75V91H350V85.75H357ZM361.375 91H358.75V85.75H364V88.375L363.988 88.6278C363.861 89.9589 362.739 91 361.375 91ZM357 77V84H350V77H357ZM358.75 77H364V84H358.75V77ZM357 70V75.25H350V70H357ZM358.75 70H361.375L361.628 70.012C362.959 70.1392 364 71.2605 364 72.625V75.25H358.75V70ZM348.25 70V75.25H343V72.625L343.012 72.3722C343.139 71.0411 344.261 70 345.625 70H348.25ZM348.25 77V84H343V77H348.25Z" fill="#242424"/>
<path d="M389.234 71.4375V75.5H387.383V64.2969H390.781C392.068 64.2969 393.065 64.5964 393.773 65.1953C394.482 65.7943 394.836 66.638 394.836 67.7266C394.836 68.8151 394.466 69.7057 393.727 70.3984C392.987 71.0911 391.987 71.4375 390.727 71.4375H389.234ZM389.234 65.8281V69.9219H390.438C391.234 69.9219 391.841 69.737 392.258 69.3672C392.674 68.9974 392.883 68.4766 392.883 67.8047C392.883 66.487 392.117 65.8281 390.586 65.8281H389.234ZM401.18 69.2266C400.961 69.0547 400.646 68.9688 400.234 68.9688C399.698 68.9688 399.25 69.2109 398.891 69.6953C398.531 70.1797 398.352 70.8385 398.352 71.6719V75.5H396.539V67.5H398.352V69.1484H398.383C398.56 68.5859 398.831 68.1484 399.195 67.8359C399.565 67.5182 399.977 67.3594 400.43 67.3594C400.758 67.3594 401.008 67.4089 401.18 67.5078V69.2266ZM405.867 75.6875C404.633 75.6875 403.646 75.3151 402.906 74.5703C402.172 73.8203 401.805 72.8281 401.805 71.5938C401.805 70.25 402.188 69.2005 402.953 68.4453C403.724 67.6901 404.76 67.3125 406.062 67.3125C407.312 67.3125 408.286 67.6797 408.984 68.4141C409.682 69.1484 410.031 70.1667 410.031 71.4688C410.031 72.7448 409.654 73.7682 408.898 74.5391C408.148 75.3047 407.138 75.6875 405.867 75.6875ZM405.953 68.7578C405.245 68.7578 404.685 69.0052 404.273 69.5C403.862 69.9948 403.656 70.6771 403.656 71.5469C403.656 72.3854 403.865 73.0469 404.281 73.5312C404.698 74.0104 405.255 74.25 405.953 74.25C406.667 74.25 407.214 74.013 407.594 73.5391C407.979 73.0651 408.172 72.3906 408.172 71.5156C408.172 70.6354 407.979 69.9557 407.594 69.4766C407.214 68.9974 406.667 68.7578 405.953 68.7578ZM419.156 75.5H417.344V74.1406H417.312C416.729 75.1719 415.831 75.6875 414.617 75.6875C413.633 75.6875 412.844 75.3307 412.25 74.6172C411.661 73.8984 411.367 72.9219 411.367 71.6875C411.367 70.3646 411.693 69.3047 412.344 68.5078C413 67.7109 413.872 67.3125 414.961 67.3125C416.039 67.3125 416.823 67.7448 417.312 68.6094H417.344V63.6562H419.156V75.5ZM417.367 71.8438V70.7969C417.367 70.2292 417.182 69.7474 416.812 69.3516C416.443 68.9557 415.971 68.7578 415.398 68.7578C414.721 68.7578 414.188 69.0104 413.797 69.5156C413.411 70.0208 413.219 70.7214 413.219 71.6172C413.219 72.4297 413.404 73.0729 413.773 73.5469C414.148 74.0156 414.651 74.25 415.281 74.25C415.901 74.25 416.404 74.0234 416.789 73.5703C417.174 73.112 417.367 72.5365 417.367 71.8438ZM428.5 75.5H426.688V74.2344H426.656C426.13 75.2031 425.312 75.6875 424.203 75.6875C422.312 75.6875 421.367 74.5521 421.367 72.2812V67.5H423.18V72.0938C423.18 73.5312 423.734 74.25 424.844 74.25C425.38 74.25 425.82 74.0521 426.164 73.6562C426.513 73.2604 426.688 72.7422 426.688 72.1016V67.5H428.5V75.5ZM436.594 75.1328C435.953 75.5026 435.195 75.6875 434.32 75.6875C433.133 75.6875 432.174 75.3177 431.445 74.5781C430.716 73.8333 430.352 72.8698 430.352 71.6875C430.352 70.3698 430.742 69.3125 431.523 68.5156C432.31 67.7135 433.359 67.3125 434.672 67.3125C435.401 67.3125 436.044 67.4401 436.602 67.6953V69.3828C436.044 68.9661 435.451 68.7578 434.82 68.7578C434.055 68.7578 433.427 69.0182 432.938 69.5391C432.448 70.0547 432.203 70.7318 432.203 71.5703C432.203 72.3984 432.432 73.0521 432.891 73.5312C433.354 74.0104 433.974 74.25 434.75 74.25C435.401 74.25 436.016 74.0182 436.594 73.5547V75.1328ZM442.617 75.4141C442.263 75.5911 441.797 75.6797 441.219 75.6797C439.667 75.6797 438.891 74.9349 438.891 73.4453V68.9219H437.555V67.5H438.891V65.6484L440.703 65.1328V67.5H442.617V68.9219H440.703V72.9219C440.703 73.3958 440.789 73.7344 440.961 73.9375C441.133 74.1406 441.419 74.2422 441.82 74.2422C442.128 74.2422 442.393 74.1536 442.617 73.9766V75.4141Z" fill="#333333"/>
<path d="M392.855 93.5H391.774V92.353H391.748C391.247 93.2231 390.474 93.6582 389.428 93.6582C388.58 93.6582 387.901 93.3572 387.391 92.7551C386.885 92.1487 386.633 91.3247 386.633 90.2832C386.633 89.167 386.914 88.2727 387.477 87.6003C388.039 86.928 388.788 86.5918 389.724 86.5918C390.652 86.5918 391.326 86.9565 391.748 87.686H391.774V83.5068H392.855V93.5ZM391.774 90.448V89.4526C391.774 88.9077 391.594 88.4463 391.234 88.0684C390.874 87.6904 390.417 87.5015 389.863 87.5015C389.204 87.5015 388.685 87.7432 388.307 88.2266C387.929 88.71 387.74 89.3779 387.74 90.2305C387.74 91.0083 387.92 91.6235 388.281 92.0762C388.646 92.5244 389.133 92.7485 389.744 92.7485C390.346 92.7485 390.834 92.531 391.208 92.0959C391.585 91.6609 391.774 91.1116 391.774 90.448ZM395.598 85.0361C395.404 85.0361 395.24 84.9702 395.103 84.8384C394.967 84.7065 394.899 84.5396 394.899 84.3374C394.899 84.1353 394.967 83.9683 395.103 83.8364C395.24 83.7002 395.404 83.6321 395.598 83.6321C395.795 83.6321 395.962 83.7002 396.099 83.8364C396.239 83.9683 396.31 84.1353 396.31 84.3374C396.31 84.5308 396.239 84.6956 396.099 84.8318C395.962 84.968 395.795 85.0361 395.598 85.0361ZM396.125 93.5H395.044V86.75H396.125V93.5ZM407.898 93.5H406.817V89.624C406.817 88.877 406.7 88.3364 406.468 88.0024C406.239 87.6685 405.852 87.5015 405.307 87.5015C404.846 87.5015 404.453 87.7124 404.127 88.1343C403.807 88.5562 403.646 89.0615 403.646 89.6504V93.5H402.565V89.4922C402.565 88.165 402.053 87.5015 401.029 87.5015C400.555 87.5015 400.164 87.7014 399.856 88.1013C399.548 88.4968 399.395 89.0132 399.395 89.6504V93.5H398.313V86.75H399.395V87.8179H399.421C399.9 87.0005 400.599 86.5918 401.517 86.5918C401.979 86.5918 402.381 86.7214 402.723 86.9807C403.066 87.2356 403.301 87.5718 403.429 87.9893C403.93 87.0576 404.677 86.5918 405.67 86.5918C407.155 86.5918 407.898 87.5081 407.898 89.3406V93.5ZM415.366 90.3953H410.601C410.618 91.1467 410.82 91.7268 411.207 92.1355C411.594 92.5442 412.125 92.7485 412.802 92.7485C413.562 92.7485 414.261 92.498 414.898 91.9971V93.0122C414.305 93.4429 413.521 93.6582 412.545 93.6582C411.592 93.6582 410.842 93.3528 410.297 92.7419C409.752 92.1267 409.48 91.2632 409.48 90.1514C409.48 89.1011 409.777 88.2463 410.37 87.5872C410.968 86.9236 411.708 86.5918 412.591 86.5918C413.475 86.5918 414.158 86.8774 414.641 87.4487C415.125 88.02 415.366 88.8132 415.366 89.8284V90.3953ZM414.259 89.479C414.255 88.855 414.103 88.3694 413.804 88.0222C413.51 87.675 413.099 87.5015 412.572 87.5015C412.062 87.5015 411.629 87.6838 411.273 88.0486C410.917 88.4133 410.697 88.8901 410.614 89.479H414.259ZM422.611 93.5H421.53V89.6504C421.53 88.2178 421.007 87.5015 419.961 87.5015C419.42 87.5015 418.972 87.7058 418.616 88.1145C418.265 88.5188 418.089 89.0308 418.089 89.6504V93.5H417.008V86.75H418.089V87.8706H418.115C418.625 87.0181 419.363 86.5918 420.33 86.5918C421.068 86.5918 421.633 86.8313 422.024 87.3103C422.415 87.7849 422.611 88.4727 422.611 89.3735V93.5ZM424.246 93.2561V92.0959C424.834 92.531 425.483 92.7485 426.19 92.7485C427.139 92.7485 427.614 92.4321 427.614 91.7993C427.614 91.6191 427.572 91.4675 427.489 91.3445C427.41 91.217 427.3 91.105 427.159 91.0083C427.023 90.9116 426.86 90.8259 426.671 90.7512C426.487 90.6721 426.287 90.5908 426.072 90.5073C425.773 90.3887 425.509 90.27 425.281 90.1514C425.056 90.0283 424.867 89.8921 424.714 89.7427C424.564 89.5889 424.45 89.4153 424.371 89.2219C424.296 89.0286 424.259 88.8022 424.259 88.543C424.259 88.2266 424.331 87.9475 424.476 87.7058C424.621 87.4597 424.815 87.2554 425.056 87.0928C425.298 86.9258 425.573 86.8005 425.88 86.717C426.192 86.6335 426.513 86.5918 426.843 86.5918C427.427 86.5918 427.95 86.6929 428.412 86.895V87.9893C427.915 87.6641 427.344 87.5015 426.698 87.5015C426.496 87.5015 426.313 87.5256 426.151 87.574C425.988 87.6179 425.847 87.6816 425.729 87.7651C425.615 87.8486 425.524 87.9497 425.458 88.0684C425.397 88.1826 425.366 88.3101 425.366 88.4507C425.366 88.6265 425.397 88.7737 425.458 88.8923C425.524 89.011 425.619 89.1165 425.742 89.2087C425.865 89.301 426.014 89.3845 426.19 89.4592C426.366 89.5339 426.566 89.6152 426.79 89.7031C427.089 89.8174 427.357 89.936 427.594 90.0591C427.832 90.1777 428.034 90.314 428.201 90.4678C428.368 90.6172 428.495 90.7908 428.583 90.9885C428.675 91.1863 428.721 91.4214 428.721 91.6938C428.721 92.0278 428.647 92.3179 428.497 92.564C428.352 92.8101 428.157 93.0144 427.911 93.177C427.665 93.3396 427.381 93.4604 427.06 93.5396C426.74 93.6187 426.403 93.6582 426.052 93.6582C425.357 93.6582 424.755 93.5242 424.246 93.2561ZM430.943 85.0361C430.75 85.0361 430.585 84.9702 430.448 84.8384C430.312 84.7065 430.244 84.5396 430.244 84.3374C430.244 84.1353 430.312 83.9683 430.448 83.8364C430.585 83.7002 430.75 83.6321 430.943 83.6321C431.141 83.6321 431.308 83.7002 431.444 83.8364C431.584 83.9683 431.655 84.1353 431.655 84.3374C431.655 84.5308 431.584 84.6956 431.444 84.8318C431.308 84.968 431.141 85.0361 430.943 85.0361ZM431.47 93.5H430.389V86.75H431.47V93.5ZM436.48 93.6582C435.482 93.6582 434.685 93.344 434.087 92.7156C433.494 92.0828 433.197 91.2456 433.197 90.2041C433.197 89.0703 433.507 88.1848 434.127 87.5476C434.746 86.9104 435.583 86.5918 436.638 86.5918C437.645 86.5918 438.429 86.9016 438.991 87.5212C439.558 88.1409 439.842 89 439.842 90.0986C439.842 91.1753 439.536 92.0388 438.926 92.6892C438.319 93.3352 437.504 93.6582 436.48 93.6582ZM436.559 87.5015C435.865 87.5015 435.315 87.7388 434.911 88.2134C434.507 88.6836 434.305 89.334 434.305 90.1646C434.305 90.9644 434.509 91.595 434.918 92.0564C435.326 92.5178 435.874 92.7485 436.559 92.7485C437.258 92.7485 437.794 92.5222 438.167 92.0696C438.545 91.6169 438.734 90.9731 438.734 90.1382C438.734 89.2944 438.545 88.644 438.167 88.187C437.794 87.73 437.258 87.5015 436.559 87.5015ZM447.172 93.5H446.091V89.6504C446.091 88.2178 445.568 87.5015 444.522 87.5015C443.981 87.5015 443.533 87.7058 443.177 88.1145C442.826 88.5188 442.65 89.0308 442.65 89.6504V93.5H441.569V86.75H442.65V87.8706H442.676C443.186 87.0181 443.924 86.5918 444.891 86.5918C445.629 86.5918 446.194 86.8313 446.585 87.3103C446.976 87.7849 447.172 88.4727 447.172 89.3735V93.5ZM456.051 93.4341C455.796 93.5747 455.46 93.645 455.042 93.645C453.86 93.645 453.269 92.9858 453.269 91.6675V87.6729H452.109V86.75H453.269V85.1021L454.35 84.7527V86.75H456.051V87.6729H454.35V91.4763C454.35 91.929 454.427 92.252 454.581 92.4453C454.735 92.6387 454.99 92.7354 455.346 92.7354C455.618 92.7354 455.853 92.6606 456.051 92.5112V93.4341ZM462.326 93.5H461.245V92.4453H461.219C460.749 93.2539 460.057 93.6582 459.143 93.6582C458.47 93.6582 457.943 93.4802 457.561 93.1243C457.183 92.7683 456.994 92.2959 456.994 91.707C456.994 90.4458 457.736 89.7119 459.222 89.5054L461.245 89.2219C461.245 88.075 460.782 87.5015 459.854 87.5015C459.042 87.5015 458.308 87.7783 457.653 88.332V87.2246C458.316 86.8027 459.081 86.5918 459.947 86.5918C461.533 86.5918 462.326 87.4312 462.326 89.1099V93.5ZM461.245 90.0854L459.617 90.3096C459.116 90.3799 458.738 90.5051 458.483 90.6853C458.229 90.8611 458.101 91.1753 458.101 91.6279C458.101 91.9575 458.218 92.2278 458.45 92.4387C458.688 92.6453 459.002 92.7485 459.393 92.7485C459.929 92.7485 460.371 92.5618 460.718 92.1882C461.07 91.8103 461.245 91.3335 461.245 90.7578V90.0854ZM465.471 92.5244H465.444V93.5H464.363V83.5068H465.444V87.9365H465.471C466.002 87.04 466.78 86.5918 467.804 86.5918C468.67 86.5918 469.347 86.895 469.834 87.5015C470.327 88.1035 470.573 88.9121 470.573 89.9272C470.573 91.0566 470.298 91.9619 469.749 92.6431C469.199 93.3198 468.448 93.6582 467.494 93.6582C466.602 93.6582 465.928 93.2803 465.471 92.5244ZM465.444 89.802V90.7446C465.444 91.3027 465.625 91.7773 465.985 92.1685C466.35 92.5552 466.811 92.7485 467.369 92.7485C468.024 92.7485 468.536 92.498 468.905 91.9971C469.279 91.4961 469.465 90.7996 469.465 89.9075C469.465 89.156 469.292 88.5671 468.945 88.1409C468.597 87.7146 468.127 87.5015 467.534 87.5015C466.906 87.5015 466.4 87.7212 466.018 88.1606C465.635 88.5957 465.444 89.1428 465.444 89.802ZM473.381 93.5H472.3V83.5068H473.381V93.5ZM480.994 90.3953H476.229C476.246 91.1467 476.448 91.7268 476.835 92.1355C477.222 92.5442 477.753 92.7485 478.43 92.7485C479.19 92.7485 479.889 92.498 480.526 91.9971V93.0122C479.933 93.4429 479.149 93.6582 478.173 93.6582C477.219 93.6582 476.47 93.3528 475.925 92.7419C475.38 92.1267 475.108 91.2632 475.108 90.1514C475.108 89.1011 475.405 88.2463 475.998 87.5872C476.595 86.9236 477.336 86.5918 478.219 86.5918C479.103 86.5918 479.786 86.8774 480.269 87.4487C480.753 88.02 480.994 88.8132 480.994 89.8284V90.3953ZM479.887 89.479C479.883 88.855 479.731 88.3694 479.432 88.0222C479.138 87.675 478.727 87.5015 478.199 87.5015C477.69 87.5015 477.257 87.6838 476.901 88.0486C476.545 88.4133 476.325 88.8901 476.242 89.479H479.887Z" fill="#333333"/>
<path d="M150.75 445C150.75 436.578 157.578 429.75 166 429.75H334C342.422 429.75 349.25 436.578 349.25 445V474C349.25 482.422 342.422 489.25 334 489.25H166C157.578 489.25 150.75 482.422 150.75 474V445Z" fill="white"/>
<path d="M150.75 445C150.75 436.578 157.578 429.75 166 429.75H334C342.422 429.75 349.25 436.578 349.25 445V474C349.25 482.422 342.422 489.25 334 489.25H166C157.578 489.25 150.75 482.422 150.75 474V445Z" stroke="#E1E1E1" stroke-width="1.5"/>
<path d="M194.75 451.625C194.75 449.209 192.791 447.25 190.375 447.25H174.625C172.209 447.25 170.25 449.209 170.25 451.625V467.375C170.25 469.791 172.209 471.75 174.625 471.75H190.375C192.791 471.75 194.75 469.791 194.75 467.375V451.625ZM172 467.375V464.75H177.25V470H174.625L174.372 469.988C173.041 469.861 172 468.739 172 467.375ZM186 464.75V470H179V464.75H186ZM190.375 470H187.75V464.75H193V467.375L192.988 467.628C192.861 468.959 191.739 470 190.375 470ZM186 456V463H179V456H186ZM187.75 456H193V463H187.75V456ZM186 449V454.25H179V449H186ZM187.75 449H190.375L190.628 449.012C191.959 449.139 193 450.261 193 451.625V454.25H187.75V449ZM177.25 449V454.25H172V451.625L172.012 451.372C172.139 450.041 173.261 449 174.625 449H177.25ZM177.25 456V463H172V456H177.25Z" fill="#242424"/>
<path d="M222.672 454.5H216.383V443.297H222.422V444.875H218.242V448.047H222.094V449.617H218.242V452.93H222.672V454.5ZM236.422 454.5H234.609V450.141C234.609 449.302 234.49 448.695 234.25 448.32C234.016 447.945 233.617 447.758 233.055 447.758C232.581 447.758 232.177 447.995 231.844 448.469C231.516 448.943 231.352 449.51 231.352 450.172V454.5H229.531V449.992C229.531 448.503 229.005 447.758 227.953 447.758C227.464 447.758 227.06 447.982 226.742 448.43C226.43 448.878 226.273 449.458 226.273 450.172V454.5H224.461V446.5H226.273V447.766H226.305C226.883 446.797 227.724 446.312 228.828 446.312C229.38 446.312 229.862 446.466 230.273 446.773C230.69 447.076 230.974 447.474 231.125 447.969C231.719 446.865 232.604 446.312 233.781 446.312C235.542 446.312 236.422 447.398 236.422 449.57V454.5ZM240.477 453.32H240.445V458.18H238.633V446.5H240.445V447.906H240.477C241.096 446.844 242.003 446.312 243.195 446.312C244.211 446.312 245.003 446.669 245.57 447.383C246.138 448.096 246.422 449.055 246.422 450.258C246.422 451.591 246.102 452.659 245.461 453.461C244.82 454.263 243.945 454.664 242.836 454.664C241.815 454.664 241.029 454.216 240.477 453.32ZM240.43 450.164V451.156C240.43 451.74 240.615 452.234 240.984 452.641C241.359 453.047 241.833 453.25 242.406 453.25C243.078 453.25 243.604 452.99 243.984 452.469C244.37 451.943 244.562 451.211 244.562 450.273C244.562 449.487 244.383 448.872 244.023 448.43C243.669 447.982 243.188 447.758 242.578 447.758C241.932 447.758 241.411 447.987 241.016 448.445C240.625 448.904 240.43 449.477 240.43 450.164ZM250.094 454.5H248.273V442.656H250.094V454.5ZM256.008 454.688C254.773 454.688 253.786 454.315 253.047 453.57C252.312 452.82 251.945 451.828 251.945 450.594C251.945 449.25 252.328 448.201 253.094 447.445C253.865 446.69 254.901 446.312 256.203 446.312C257.453 446.312 258.427 446.68 259.125 447.414C259.823 448.148 260.172 449.167 260.172 450.469C260.172 451.745 259.794 452.768 259.039 453.539C258.289 454.305 257.279 454.688 256.008 454.688ZM256.094 447.758C255.385 447.758 254.826 448.005 254.414 448.5C254.003 448.995 253.797 449.677 253.797 450.547C253.797 451.385 254.005 452.047 254.422 452.531C254.839 453.01 255.396 453.25 256.094 453.25C256.807 453.25 257.354 453.013 257.734 452.539C258.12 452.065 258.312 451.391 258.312 450.516C258.312 449.635 258.12 448.956 257.734 448.477C257.354 447.997 256.807 447.758 256.094 447.758ZM268.953 446.5L265.344 455.781C264.594 457.438 263.542 458.266 262.188 458.266C261.807 458.266 261.49 458.232 261.234 458.164V456.656C261.521 456.75 261.781 456.797 262.016 456.797C262.693 456.797 263.198 456.464 263.531 455.797L264.07 454.484L260.891 446.5H262.898L264.805 452.312C264.826 452.385 264.872 452.578 264.945 452.891H264.984C265.01 452.771 265.057 452.583 265.125 452.328L267.125 446.5H268.953ZM276.812 450.992H271.359C271.38 451.732 271.607 452.302 272.039 452.703C272.477 453.104 273.076 453.305 273.836 453.305C274.69 453.305 275.474 453.049 276.188 452.539V454C275.458 454.458 274.495 454.688 273.297 454.688C272.12 454.688 271.195 454.326 270.523 453.602C269.857 452.872 269.523 451.849 269.523 450.531C269.523 449.286 269.891 448.273 270.625 447.492C271.365 446.706 272.281 446.312 273.375 446.312C274.469 446.312 275.315 446.664 275.914 447.367C276.513 448.07 276.812 449.047 276.812 450.297V450.992ZM275.062 449.711C275.057 449.06 274.904 448.555 274.602 448.195C274.299 447.831 273.883 447.648 273.352 447.648C272.831 447.648 272.388 447.839 272.023 448.219C271.664 448.599 271.443 449.096 271.359 449.711H275.062ZM285.312 450.992H279.859C279.88 451.732 280.107 452.302 280.539 452.703C280.977 453.104 281.576 453.305 282.336 453.305C283.19 453.305 283.974 453.049 284.688 452.539V454C283.958 454.458 282.995 454.688 281.797 454.688C280.62 454.688 279.695 454.326 279.023 453.602C278.357 452.872 278.023 451.849 278.023 450.531C278.023 449.286 278.391 448.273 279.125 447.492C279.865 446.706 280.781 446.312 281.875 446.312C282.969 446.312 283.815 446.664 284.414 447.367C285.013 448.07 285.312 449.047 285.312 450.297V450.992ZM283.562 449.711C283.557 449.06 283.404 448.555 283.102 448.195C282.799 447.831 282.383 447.648 281.852 447.648C281.331 447.648 280.888 447.839 280.523 448.219C280.164 448.599 279.943 449.096 279.859 449.711H283.562Z" fill="#333333"/>
<path d="M221.855 472.5H220.774V471.353H220.748C220.247 472.223 219.474 472.658 218.428 472.658C217.58 472.658 216.901 472.357 216.391 471.755C215.885 471.149 215.633 470.325 215.633 469.283C215.633 468.167 215.914 467.273 216.477 466.6C217.039 465.928 217.788 465.592 218.724 465.592C219.652 465.592 220.326 465.957 220.748 466.686H220.774V462.507H221.855V472.5ZM220.774 469.448V468.453C220.774 467.908 220.594 467.446 220.234 467.068C219.874 466.69 219.417 466.501 218.863 466.501C218.204 466.501 217.685 466.743 217.307 467.227C216.929 467.71 216.74 468.378 216.74 469.23C216.74 470.008 216.92 470.624 217.281 471.076C217.646 471.524 218.133 471.749 218.744 471.749C219.346 471.749 219.834 471.531 220.208 471.096C220.585 470.661 220.774 470.112 220.774 469.448ZM224.598 464.036C224.404 464.036 224.24 463.97 224.103 463.838C223.967 463.707 223.899 463.54 223.899 463.337C223.899 463.135 223.967 462.968 224.103 462.836C224.24 462.7 224.404 462.632 224.598 462.632C224.795 462.632 224.962 462.7 225.099 462.836C225.239 462.968 225.31 463.135 225.31 463.337C225.31 463.531 225.239 463.696 225.099 463.832C224.962 463.968 224.795 464.036 224.598 464.036ZM225.125 472.5H224.044V465.75H225.125V472.5ZM236.898 472.5H235.817V468.624C235.817 467.877 235.7 467.336 235.468 467.002C235.239 466.668 234.852 466.501 234.307 466.501C233.846 466.501 233.453 466.712 233.127 467.134C232.807 467.556 232.646 468.062 232.646 468.65V472.5H231.565V468.492C231.565 467.165 231.053 466.501 230.029 466.501C229.555 466.501 229.164 466.701 228.856 467.101C228.548 467.497 228.395 468.013 228.395 468.65V472.5H227.313V465.75H228.395V466.818H228.421C228.9 466 229.599 465.592 230.517 465.592C230.979 465.592 231.381 465.721 231.723 465.981C232.066 466.236 232.301 466.572 232.429 466.989C232.93 466.058 233.677 465.592 234.67 465.592C236.155 465.592 236.898 466.508 236.898 468.341V472.5ZM244.366 469.395H239.601C239.618 470.147 239.82 470.727 240.207 471.135C240.594 471.544 241.125 471.749 241.802 471.749C242.562 471.749 243.261 471.498 243.898 470.997V472.012C243.305 472.443 242.521 472.658 241.545 472.658C240.592 472.658 239.842 472.353 239.297 471.742C238.752 471.127 238.48 470.263 238.48 469.151C238.48 468.101 238.777 467.246 239.37 466.587C239.968 465.924 240.708 465.592 241.591 465.592C242.475 465.592 243.158 465.877 243.641 466.449C244.125 467.02 244.366 467.813 244.366 468.828V469.395ZM243.259 468.479C243.255 467.855 243.103 467.369 242.804 467.022C242.51 466.675 242.099 466.501 241.572 466.501C241.062 466.501 240.629 466.684 240.273 467.049C239.917 467.413 239.697 467.89 239.614 468.479H243.259ZM251.611 472.5H250.53V468.65C250.53 467.218 250.007 466.501 248.961 466.501C248.42 466.501 247.972 466.706 247.616 467.115C247.265 467.519 247.089 468.031 247.089 468.65V472.5H246.008V465.75H247.089V466.871H247.115C247.625 466.018 248.363 465.592 249.33 465.592C250.068 465.592 250.633 465.831 251.024 466.31C251.415 466.785 251.611 467.473 251.611 468.374V472.5ZM253.246 472.256V471.096C253.834 471.531 254.483 471.749 255.19 471.749C256.139 471.749 256.614 471.432 256.614 470.799C256.614 470.619 256.572 470.468 256.489 470.344C256.41 470.217 256.3 470.105 256.159 470.008C256.023 469.912 255.86 469.826 255.671 469.751C255.487 469.672 255.287 469.591 255.072 469.507C254.773 469.389 254.509 469.27 254.281 469.151C254.056 469.028 253.867 468.892 253.714 468.743C253.564 468.589 253.45 468.415 253.371 468.222C253.296 468.029 253.259 467.802 253.259 467.543C253.259 467.227 253.331 466.948 253.476 466.706C253.621 466.46 253.815 466.255 254.056 466.093C254.298 465.926 254.573 465.801 254.88 465.717C255.192 465.634 255.513 465.592 255.843 465.592C256.427 465.592 256.95 465.693 257.412 465.895V466.989C256.915 466.664 256.344 466.501 255.698 466.501C255.496 466.501 255.313 466.526 255.151 466.574C254.988 466.618 254.847 466.682 254.729 466.765C254.615 466.849 254.524 466.95 254.458 467.068C254.397 467.183 254.366 467.31 254.366 467.451C254.366 467.626 254.397 467.774 254.458 467.892C254.524 468.011 254.619 468.116 254.742 468.209C254.865 468.301 255.014 468.385 255.19 468.459C255.366 468.534 255.566 468.615 255.79 468.703C256.089 468.817 256.357 468.936 256.594 469.059C256.832 469.178 257.034 469.314 257.201 469.468C257.368 469.617 257.495 469.791 257.583 469.989C257.675 470.186 257.721 470.421 257.721 470.694C257.721 471.028 257.647 471.318 257.497 471.564C257.352 471.81 257.157 472.014 256.911 472.177C256.665 472.34 256.381 472.46 256.06 472.54C255.74 472.619 255.403 472.658 255.052 472.658C254.357 472.658 253.755 472.524 253.246 472.256ZM259.943 464.036C259.75 464.036 259.585 463.97 259.448 463.838C259.312 463.707 259.244 463.54 259.244 463.337C259.244 463.135 259.312 462.968 259.448 462.836C259.585 462.7 259.75 462.632 259.943 462.632C260.141 462.632 260.308 462.7 260.444 462.836C260.584 462.968 260.655 463.135 260.655 463.337C260.655 463.531 260.584 463.696 260.444 463.832C260.308 463.968 260.141 464.036 259.943 464.036ZM260.47 472.5H259.389V465.75H260.47V472.5ZM265.48 472.658C264.482 472.658 263.685 472.344 263.087 471.716C262.494 471.083 262.197 470.246 262.197 469.204C262.197 468.07 262.507 467.185 263.127 466.548C263.746 465.91 264.583 465.592 265.638 465.592C266.645 465.592 267.429 465.902 267.991 466.521C268.558 467.141 268.842 468 268.842 469.099C268.842 470.175 268.536 471.039 267.926 471.689C267.319 472.335 266.504 472.658 265.48 472.658ZM265.559 466.501C264.865 466.501 264.315 466.739 263.911 467.213C263.507 467.684 263.305 468.334 263.305 469.165C263.305 469.964 263.509 470.595 263.918 471.056C264.326 471.518 264.874 471.749 265.559 471.749C266.258 471.749 266.794 471.522 267.167 471.07C267.545 470.617 267.734 469.973 267.734 469.138C267.734 468.294 267.545 467.644 267.167 467.187C266.794 466.73 266.258 466.501 265.559 466.501ZM276.172 472.5H275.091V468.65C275.091 467.218 274.568 466.501 273.522 466.501C272.981 466.501 272.533 466.706 272.177 467.115C271.826 467.519 271.65 468.031 271.65 468.65V472.5H270.569V465.75H271.65V466.871H271.676C272.186 466.018 272.924 465.592 273.891 465.592C274.629 465.592 275.194 465.831 275.585 466.31C275.976 466.785 276.172 467.473 276.172 468.374V472.5ZM285.051 472.434C284.796 472.575 284.46 472.645 284.042 472.645C282.86 472.645 282.269 471.986 282.269 470.667V466.673H281.109V465.75H282.269V464.102L283.35 463.753V465.75H285.051V466.673H283.35V470.476C283.35 470.929 283.427 471.252 283.581 471.445C283.735 471.639 283.99 471.735 284.346 471.735C284.618 471.735 284.853 471.661 285.051 471.511V472.434ZM291.326 472.5H290.245V471.445H290.219C289.749 472.254 289.057 472.658 288.143 472.658C287.47 472.658 286.943 472.48 286.561 472.124C286.183 471.768 285.994 471.296 285.994 470.707C285.994 469.446 286.736 468.712 288.222 468.505L290.245 468.222C290.245 467.075 289.782 466.501 288.854 466.501C288.042 466.501 287.308 466.778 286.653 467.332V466.225C287.316 465.803 288.081 465.592 288.947 465.592C290.533 465.592 291.326 466.431 291.326 468.11V472.5ZM290.245 469.085L288.617 469.31C288.116 469.38 287.738 469.505 287.483 469.685C287.229 469.861 287.101 470.175 287.101 470.628C287.101 470.958 287.218 471.228 287.45 471.439C287.688 471.645 288.002 471.749 288.393 471.749C288.929 471.749 289.371 471.562 289.718 471.188C290.07 470.81 290.245 470.333 290.245 469.758V469.085ZM294.471 471.524H294.444V472.5H293.363V462.507H294.444V466.937H294.471C295.002 466.04 295.78 465.592 296.804 465.592C297.67 465.592 298.347 465.895 298.834 466.501C299.327 467.104 299.573 467.912 299.573 468.927C299.573 470.057 299.298 470.962 298.749 471.643C298.199 472.32 297.448 472.658 296.494 472.658C295.602 472.658 294.928 472.28 294.471 471.524ZM294.444 468.802V469.745C294.444 470.303 294.625 470.777 294.985 471.168C295.35 471.555 295.811 471.749 296.369 471.749C297.024 471.749 297.536 471.498 297.905 470.997C298.279 470.496 298.465 469.8 298.465 468.907C298.465 468.156 298.292 467.567 297.945 467.141C297.597 466.715 297.127 466.501 296.534 466.501C295.906 466.501 295.4 466.721 295.018 467.161C294.635 467.596 294.444 468.143 294.444 468.802ZM302.381 472.5H301.3V462.507H302.381V472.5ZM309.994 469.395H305.229C305.246 470.147 305.448 470.727 305.835 471.135C306.222 471.544 306.753 471.749 307.43 471.749C308.19 471.749 308.889 471.498 309.526 470.997V472.012C308.933 472.443 308.149 472.658 307.173 472.658C306.219 472.658 305.47 472.353 304.925 471.742C304.38 471.127 304.108 470.263 304.108 469.151C304.108 468.101 304.405 467.246 304.998 466.587C305.595 465.924 306.336 465.592 307.219 465.592C308.103 465.592 308.786 465.877 309.269 466.449C309.753 467.02 309.994 467.813 309.994 468.828V469.395ZM308.887 468.479C308.883 467.855 308.731 467.369 308.432 467.022C308.138 466.675 307.727 466.501 307.199 466.501C306.69 466.501 306.257 466.684 305.901 467.049C305.545 467.413 305.325 467.89 305.242 468.479H308.887Z" fill="#333333"/>
<path d="M492.75 445C492.75 436.578 499.578 429.75 508 429.75H676C684.422 429.75 691.25 436.578 691.25 445V474C691.25 482.422 684.422 489.25 676 489.25H508C499.578 489.25 492.75 482.422 492.75 474V445Z" fill="white"/>
<path d="M492.75 445C492.75 436.578 499.578 429.75 508 429.75H676C684.422 429.75 691.25 436.578 691.25 445V474C691.25 482.422 684.422 489.25 676 489.25H508C499.578 489.25 492.75 482.422 492.75 474V445Z" stroke="#E1E1E1" stroke-width="1.5"/>
<path d="M536.75 451.625C536.75 449.209 534.791 447.25 532.375 447.25H516.625C514.209 447.25 512.25 449.209 512.25 451.625V467.375C512.25 469.791 514.209 471.75 516.625 471.75H532.375C534.791 471.75 536.75 469.791 536.75 467.375V451.625ZM514 467.375V464.75H519.25V470H516.625L516.372 469.988C515.041 469.861 514 468.739 514 467.375ZM528 464.75V470H521V464.75H528ZM532.375 470H529.75V464.75H535V467.375L534.988 467.628C534.861 468.959 533.739 470 532.375 470ZM528 456V463H521V456H528ZM529.75 456H535V463H529.75V456ZM528 449V454.25H521V449H528ZM529.75 449H532.375L532.628 449.012C533.959 449.139 535 450.261 535 451.625V454.25H529.75V449ZM519.25 449V454.25H514V451.625L514.012 451.372C514.139 450.041 515.261 449 516.625 449H519.25ZM519.25 456V463H514V456H519.25Z" fill="#242424"/>
<path d="M567.039 454.5H564.867L563.078 451.5C562.917 451.224 562.758 450.99 562.602 450.797C562.451 450.599 562.294 450.438 562.133 450.312C561.977 450.188 561.805 450.096 561.617 450.039C561.43 449.982 561.219 449.953 560.984 449.953H560.234V454.5H558.383V443.297H562.07C562.596 443.297 563.081 443.359 563.523 443.484C563.966 443.609 564.352 443.799 564.68 444.055C565.008 444.305 565.263 444.62 565.445 445C565.633 445.375 565.727 445.815 565.727 446.32C565.727 446.716 565.667 447.081 565.547 447.414C565.432 447.742 565.266 448.036 565.047 448.297C564.833 448.552 564.573 448.771 564.266 448.953C563.964 449.135 563.622 449.276 563.242 449.375V449.406C563.445 449.521 563.622 449.648 563.773 449.789C563.924 449.924 564.068 450.065 564.203 450.211C564.339 450.357 564.471 450.523 564.602 450.711C564.737 450.893 564.885 451.107 565.047 451.352L567.039 454.5ZM560.234 444.805V448.445H561.781C562.068 448.445 562.331 448.401 562.57 448.312C562.815 448.224 563.026 448.096 563.203 447.93C563.38 447.763 563.518 447.56 563.617 447.32C563.716 447.081 563.766 446.812 563.766 446.516C563.766 445.979 563.596 445.56 563.258 445.258C562.919 444.956 562.432 444.805 561.797 444.805H560.234ZM574.5 450.992H569.047C569.068 451.732 569.294 452.302 569.727 452.703C570.164 453.104 570.763 453.305 571.523 453.305C572.378 453.305 573.161 453.049 573.875 452.539V454C573.146 454.458 572.182 454.688 570.984 454.688C569.807 454.688 568.883 454.326 568.211 453.602C567.544 452.872 567.211 451.849 567.211 450.531C567.211 449.286 567.578 448.273 568.312 447.492C569.052 446.706 569.969 446.312 571.062 446.312C572.156 446.312 573.003 446.664 573.602 447.367C574.201 448.07 574.5 449.047 574.5 450.297V450.992ZM572.75 449.711C572.745 449.06 572.591 448.555 572.289 448.195C571.987 447.831 571.57 447.648 571.039 447.648C570.518 447.648 570.076 447.839 569.711 448.219C569.352 448.599 569.13 449.096 569.047 449.711H572.75ZM575.727 454.25V452.57C576.404 453.086 577.151 453.344 577.969 453.344C579.062 453.344 579.609 453.021 579.609 452.375C579.609 452.193 579.562 452.039 579.469 451.914C579.375 451.784 579.247 451.669 579.086 451.57C578.93 451.471 578.742 451.383 578.523 451.305C578.31 451.227 578.07 451.138 577.805 451.039C577.477 450.909 577.18 450.771 576.914 450.625C576.654 450.479 576.435 450.315 576.258 450.133C576.086 449.945 575.956 449.734 575.867 449.5C575.779 449.266 575.734 448.992 575.734 448.68C575.734 448.294 575.826 447.956 576.008 447.664C576.19 447.367 576.435 447.12 576.742 446.922C577.049 446.719 577.398 446.568 577.789 446.469C578.18 446.365 578.583 446.312 579 446.312C579.74 446.312 580.401 446.424 580.984 446.648V448.234C580.422 447.849 579.776 447.656 579.047 447.656C578.818 447.656 578.609 447.68 578.422 447.727C578.24 447.773 578.083 447.839 577.953 447.922C577.823 448.005 577.721 448.107 577.648 448.227C577.576 448.341 577.539 448.469 577.539 448.609C577.539 448.781 577.576 448.927 577.648 449.047C577.721 449.167 577.828 449.273 577.969 449.367C578.115 449.456 578.286 449.539 578.484 449.617C578.688 449.69 578.919 449.771 579.18 449.859C579.523 450 579.831 450.143 580.102 450.289C580.378 450.435 580.612 450.602 580.805 450.789C580.997 450.971 581.146 451.185 581.25 451.43C581.354 451.669 581.406 451.956 581.406 452.289C581.406 452.695 581.312 453.049 581.125 453.352C580.938 453.654 580.688 453.904 580.375 454.102C580.062 454.299 579.701 454.445 579.289 454.539C578.883 454.638 578.453 454.688 578 454.688C577.125 454.688 576.367 454.542 575.727 454.25ZM589.906 450.992H584.453C584.474 451.732 584.701 452.302 585.133 452.703C585.57 453.104 586.169 453.305 586.93 453.305C587.784 453.305 588.568 453.049 589.281 452.539V454C588.552 454.458 587.589 454.688 586.391 454.688C585.214 454.688 584.289 454.326 583.617 453.602C582.951 452.872 582.617 451.849 582.617 450.531C582.617 449.286 582.984 448.273 583.719 447.492C584.458 446.706 585.375 446.312 586.469 446.312C587.562 446.312 588.409 446.664 589.008 447.367C589.607 448.07 589.906 449.047 589.906 450.297V450.992ZM588.156 449.711C588.151 449.06 587.997 448.555 587.695 448.195C587.393 447.831 586.977 447.648 586.445 447.648C585.924 447.648 585.482 447.839 585.117 448.219C584.758 448.599 584.536 449.096 584.453 449.711H588.156ZM593.453 454.5H591.633V442.656H593.453V454.5ZM597.641 454.5H595.82V442.656H597.641V454.5ZM606.781 450.992H601.328C601.349 451.732 601.576 452.302 602.008 452.703C602.445 453.104 603.044 453.305 603.805 453.305C604.659 453.305 605.443 453.049 606.156 452.539V454C605.427 454.458 604.464 454.688 603.266 454.688C602.089 454.688 601.164 454.326 600.492 453.602C599.826 452.872 599.492 451.849 599.492 450.531C599.492 449.286 599.859 448.273 600.594 447.492C601.333 446.706 602.25 446.312 603.344 446.312C604.438 446.312 605.284 446.664 605.883 447.367C606.482 448.07 606.781 449.047 606.781 450.297V450.992ZM605.031 449.711C605.026 449.06 604.872 448.555 604.57 448.195C604.268 447.831 603.852 447.648 603.32 447.648C602.799 447.648 602.357 447.839 601.992 448.219C601.633 448.599 601.411 449.096 601.328 449.711H605.031ZM613.148 448.227C612.93 448.055 612.615 447.969 612.203 447.969C611.667 447.969 611.219 448.211 610.859 448.695C610.5 449.18 610.32 449.839 610.32 450.672V454.5H608.508V446.5H610.32V448.148H610.352C610.529 447.586 610.799 447.148 611.164 446.836C611.534 446.518 611.945 446.359 612.398 446.359C612.727 446.359 612.977 446.409 613.148 446.508V448.227Z" fill="#333333"/>
<path d="M563.855 472.5H562.774V471.353H562.748C562.247 472.223 561.474 472.658 560.428 472.658C559.58 472.658 558.901 472.357 558.391 471.755C557.885 471.149 557.633 470.325 557.633 469.283C557.633 468.167 557.914 467.273 558.477 466.6C559.039 465.928 559.788 465.592 560.724 465.592C561.652 465.592 562.326 465.957 562.748 466.686H562.774V462.507H563.855V472.5ZM562.774 469.448V468.453C562.774 467.908 562.594 467.446 562.234 467.068C561.874 466.69 561.417 466.501 560.863 466.501C560.204 466.501 559.685 466.743 559.307 467.227C558.929 467.71 558.74 468.378 558.74 469.23C558.74 470.008 558.92 470.624 559.281 471.076C559.646 471.524 560.133 471.749 560.744 471.749C561.346 471.749 561.834 471.531 562.208 471.096C562.585 470.661 562.774 470.112 562.774 469.448ZM566.598 464.036C566.404 464.036 566.24 463.97 566.103 463.838C565.967 463.707 565.899 463.54 565.899 463.337C565.899 463.135 565.967 462.968 566.103 462.836C566.24 462.7 566.404 462.632 566.598 462.632C566.795 462.632 566.962 462.7 567.099 462.836C567.239 462.968 567.31 463.135 567.31 463.337C567.31 463.531 567.239 463.696 567.099 463.832C566.962 463.968 566.795 464.036 566.598 464.036ZM567.125 472.5H566.044V465.75H567.125V472.5ZM578.898 472.5H577.817V468.624C577.817 467.877 577.7 467.336 577.468 467.002C577.239 466.668 576.852 466.501 576.307 466.501C575.846 466.501 575.453 466.712 575.127 467.134C574.807 467.556 574.646 468.062 574.646 468.65V472.5H573.565V468.492C573.565 467.165 573.053 466.501 572.029 466.501C571.555 466.501 571.164 466.701 570.856 467.101C570.548 467.497 570.395 468.013 570.395 468.65V472.5H569.313V465.75H570.395V466.818H570.421C570.9 466 571.599 465.592 572.517 465.592C572.979 465.592 573.381 465.721 573.723 465.981C574.066 466.236 574.301 466.572 574.429 466.989C574.93 466.058 575.677 465.592 576.67 465.592C578.155 465.592 578.898 466.508 578.898 468.341V472.5ZM586.366 469.395H581.601C581.618 470.147 581.82 470.727 582.207 471.135C582.594 471.544 583.125 471.749 583.802 471.749C584.562 471.749 585.261 471.498 585.898 470.997V472.012C585.305 472.443 584.521 472.658 583.545 472.658C582.592 472.658 581.842 472.353 581.297 471.742C580.752 471.127 580.48 470.263 580.48 469.151C580.48 468.101 580.777 467.246 581.37 466.587C581.968 465.924 582.708 465.592 583.591 465.592C584.475 465.592 585.158 465.877 585.641 466.449C586.125 467.02 586.366 467.813 586.366 468.828V469.395ZM585.259 468.479C585.255 467.855 585.103 467.369 584.804 467.022C584.51 466.675 584.099 466.501 583.572 466.501C583.062 466.501 582.629 466.684 582.273 467.049C581.917 467.413 581.697 467.89 581.614 468.479H585.259ZM593.611 472.5H592.53V468.65C592.53 467.218 592.007 466.501 590.961 466.501C590.42 466.501 589.972 466.706 589.616 467.115C589.265 467.519 589.089 468.031 589.089 468.65V472.5H588.008V465.75H589.089V466.871H589.115C589.625 466.018 590.363 465.592 591.33 465.592C592.068 465.592 592.633 465.831 593.024 466.31C593.415 466.785 593.611 467.473 593.611 468.374V472.5ZM595.246 472.256V471.096C595.834 471.531 596.483 471.749 597.19 471.749C598.139 471.749 598.614 471.432 598.614 470.799C598.614 470.619 598.572 470.468 598.489 470.344C598.41 470.217 598.3 470.105 598.159 470.008C598.023 469.912 597.86 469.826 597.671 469.751C597.487 469.672 597.287 469.591 597.072 469.507C596.773 469.389 596.509 469.27 596.281 469.151C596.056 469.028 595.867 468.892 595.714 468.743C595.564 468.589 595.45 468.415 595.371 468.222C595.296 468.029 595.259 467.802 595.259 467.543C595.259 467.227 595.331 466.948 595.476 466.706C595.621 466.46 595.815 466.255 596.056 466.093C596.298 465.926 596.573 465.801 596.88 465.717C597.192 465.634 597.513 465.592 597.843 465.592C598.427 465.592 598.95 465.693 599.412 465.895V466.989C598.915 466.664 598.344 466.501 597.698 466.501C597.496 466.501 597.313 466.526 597.151 466.574C596.988 466.618 596.847 466.682 596.729 466.765C596.615 466.849 596.524 466.95 596.458 467.068C596.397 467.183 596.366 467.31 596.366 467.451C596.366 467.626 596.397 467.774 596.458 467.892C596.524 468.011 596.619 468.116 596.742 468.209C596.865 468.301 597.014 468.385 597.19 468.459C597.366 468.534 597.566 468.615 597.79 468.703C598.089 468.817 598.357 468.936 598.594 469.059C598.832 469.178 599.034 469.314 599.201 469.468C599.368 469.617 599.495 469.791 599.583 469.989C599.675 470.186 599.721 470.421 599.721 470.694C599.721 471.028 599.647 471.318 599.497 471.564C599.352 471.81 599.157 472.014 598.911 472.177C598.665 472.34 598.381 472.46 598.06 472.54C597.74 472.619 597.403 472.658 597.052 472.658C596.357 472.658 595.755 472.524 595.246 472.256ZM601.943 464.036C601.75 464.036 601.585 463.97 601.448 463.838C601.312 463.707 601.244 463.54 601.244 463.337C601.244 463.135 601.312 462.968 601.448 462.836C601.585 462.7 601.75 462.632 601.943 462.632C602.141 462.632 602.308 462.7 602.444 462.836C602.584 462.968 602.655 463.135 602.655 463.337C602.655 463.531 602.584 463.696 602.444 463.832C602.308 463.968 602.141 464.036 601.943 464.036ZM602.47 472.5H601.389V465.75H602.47V472.5ZM607.48 472.658C606.482 472.658 605.685 472.344 605.087 471.716C604.494 471.083 604.197 470.246 604.197 469.204C604.197 468.07 604.507 467.185 605.127 466.548C605.746 465.91 606.583 465.592 607.638 465.592C608.645 465.592 609.429 465.902 609.991 466.521C610.558 467.141 610.842 468 610.842 469.099C610.842 470.175 610.536 471.039 609.926 471.689C609.319 472.335 608.504 472.658 607.48 472.658ZM607.559 466.501C606.865 466.501 606.315 466.739 605.911 467.213C605.507 467.684 605.305 468.334 605.305 469.165C605.305 469.964 605.509 470.595 605.918 471.056C606.326 471.518 606.874 471.749 607.559 471.749C608.258 471.749 608.794 471.522 609.167 471.07C609.545 470.617 609.734 469.973 609.734 469.138C609.734 468.294 609.545 467.644 609.167 467.187C608.794 466.73 608.258 466.501 607.559 466.501ZM618.172 472.5H617.091V468.65C617.091 467.218 616.568 466.501 615.522 466.501C614.981 466.501 614.533 466.706 614.177 467.115C613.826 467.519 613.65 468.031 613.65 468.65V472.5H612.569V465.75H613.65V466.871H613.676C614.186 466.018 614.924 465.592 615.891 465.592C616.629 465.592 617.194 465.831 617.585 466.31C617.976 466.785 618.172 467.473 618.172 468.374V472.5ZM627.051 472.434C626.796 472.575 626.46 472.645 626.042 472.645C624.86 472.645 624.269 471.986 624.269 470.667V466.673H623.109V465.75H624.269V464.102L625.35 463.753V465.75H627.051V466.673H625.35V470.476C625.35 470.929 625.427 471.252 625.581 471.445C625.735 471.639 625.99 471.735 626.346 471.735C626.618 471.735 626.853 471.661 627.051 471.511V472.434ZM633.326 472.5H632.245V471.445H632.219C631.749 472.254 631.057 472.658 630.143 472.658C629.47 472.658 628.943 472.48 628.561 472.124C628.183 471.768 627.994 471.296 627.994 470.707C627.994 469.446 628.736 468.712 630.222 468.505L632.245 468.222C632.245 467.075 631.782 466.501 630.854 466.501C630.042 466.501 629.308 466.778 628.653 467.332V466.225C629.316 465.803 630.081 465.592 630.947 465.592C632.533 465.592 633.326 466.431 633.326 468.11V472.5ZM632.245 469.085L630.617 469.31C630.116 469.38 629.738 469.505 629.483 469.685C629.229 469.861 629.101 470.175 629.101 470.628C629.101 470.958 629.218 471.228 629.45 471.439C629.688 471.645 630.002 471.749 630.393 471.749C630.929 471.749 631.371 471.562 631.718 471.188C632.07 470.81 632.245 470.333 632.245 469.758V469.085ZM636.471 471.524H636.444V472.5H635.363V462.507H636.444V466.937H636.471C637.002 466.04 637.78 465.592 638.804 465.592C639.67 465.592 640.347 465.895 640.834 466.501C641.327 467.104 641.573 467.912 641.573 468.927C641.573 470.057 641.298 470.962 640.749 471.643C640.199 472.32 639.448 472.658 638.494 472.658C637.602 472.658 636.928 472.28 636.471 471.524ZM636.444 468.802V469.745C636.444 470.303 636.625 470.777 636.985 471.168C637.35 471.555 637.811 471.749 638.369 471.749C639.024 471.749 639.536 471.498 639.905 470.997C640.279 470.496 640.465 469.8 640.465 468.907C640.465 468.156 640.292 467.567 639.945 467.141C639.597 466.715 639.127 466.501 638.534 466.501C637.906 466.501 637.4 466.721 637.018 467.161C636.635 467.596 636.444 468.143 636.444 468.802ZM644.381 472.5H643.3V462.507H644.381V472.5ZM651.994 469.395H647.229C647.246 470.147 647.448 470.727 647.835 471.135C648.222 471.544 648.753 471.749 649.43 471.749C650.19 471.749 650.889 471.498 651.526 470.997V472.012C650.933 472.443 650.149 472.658 649.173 472.658C648.219 472.658 647.47 472.353 646.925 471.742C646.38 471.127 646.108 470.263 646.108 469.151C646.108 468.101 646.405 467.246 646.998 466.587C647.595 465.924 648.336 465.592 649.219 465.592C650.103 465.592 650.786 465.877 651.269 466.449C651.753 467.02 651.994 467.813 651.994 468.828V469.395ZM650.887 468.479C650.883 467.855 650.731 467.369 650.432 467.022C650.138 466.675 649.727 466.501 649.199 466.501C648.69 466.501 648.257 466.684 647.901 467.049C647.545 467.413 647.325 467.89 647.242 468.479H650.887Z" fill="#333333"/>
<path d="M592.75 221C592.75 212.578 599.578 205.75 608 205.75H776C784.422 205.75 791.25 212.578 791.25 221V250C791.25 258.422 784.422 265.25 776 265.25H608C599.578 265.25 592.75 258.422 592.75 250V221Z" fill="white"/>
<path d="M592.75 221C592.75 212.578 599.578 205.75 608 205.75H776C784.422 205.75 791.25 212.578 791.25 221V250C791.25 258.422 784.422 265.25 776 265.25H608C599.578 265.25 592.75 258.422 592.75 250V221Z" stroke="#E1E1E1" stroke-width="1.5"/>
<path d="M636.75 227.625C636.75 225.209 634.791 223.25 632.375 223.25H616.625C614.209 223.25 612.25 225.209 612.25 227.625V243.375C612.25 245.791 614.209 247.75 616.625 247.75H632.375C634.791 247.75 636.75 245.791 636.75 243.375V227.625ZM614 243.375V240.75H619.25V246H616.625L616.372 245.988C615.041 245.861 614 244.739 614 243.375ZM628 240.75V246H621V240.75H628ZM632.375 246H629.75V240.75H635V243.375L634.988 243.628C634.861 244.959 633.739 246 632.375 246ZM628 232V239H621V232H628ZM629.75 232H635V239H629.75V232ZM628 225V230.25H621V225H628ZM629.75 225H632.375L632.628 225.012C633.959 225.139 635 226.261 635 227.625V230.25H629.75V225ZM619.25 225V230.25H614V227.625L614.012 227.372C614.139 226.041 615.261 225 616.625 225H619.25ZM619.25 232V239H614V232H619.25Z" fill="#242424"/>
<path d="M658.383 230.5V219.297H661.617C665.747 219.297 667.812 221.117 667.812 224.758C667.812 226.487 667.24 227.878 666.094 228.93C664.948 229.977 663.411 230.5 661.484 230.5H658.383ZM660.234 220.875V228.93H661.719C663.026 228.93 664.042 228.57 664.766 227.852C665.495 227.133 665.859 226.117 665.859 224.805C665.859 222.185 664.503 220.875 661.789 220.875H660.234ZM675.805 230.5H674.047V229.25H674.016C673.464 230.208 672.654 230.688 671.586 230.688C670.799 230.688 670.182 230.474 669.734 230.047C669.292 229.62 669.07 229.055 669.07 228.352C669.07 226.841 669.94 225.961 671.68 225.711L674.055 225.375C674.055 224.234 673.513 223.664 672.43 223.664C671.477 223.664 670.617 223.992 669.852 224.648V223.062C670.695 222.562 671.669 222.312 672.773 222.312C674.794 222.312 675.805 223.307 675.805 225.297V230.5ZM674.055 226.57L672.375 226.805C671.854 226.872 671.461 227 671.195 227.188C670.935 227.37 670.805 227.693 670.805 228.156C670.805 228.495 670.924 228.773 671.164 228.992C671.409 229.206 671.734 229.312 672.141 229.312C672.693 229.312 673.148 229.12 673.508 228.734C673.872 228.344 674.055 227.854 674.055 227.266V226.57ZM682.242 230.414C681.888 230.591 681.422 230.68 680.844 230.68C679.292 230.68 678.516 229.935 678.516 228.445V223.922H677.18V222.5H678.516V220.648L680.328 220.133V222.5H682.242V223.922H680.328V227.922C680.328 228.396 680.414 228.734 680.586 228.938C680.758 229.141 681.044 229.242 681.445 229.242C681.753 229.242 682.018 229.154 682.242 228.977V230.414ZM690.484 226.992H685.031C685.052 227.732 685.279 228.302 685.711 228.703C686.148 229.104 686.747 229.305 687.508 229.305C688.362 229.305 689.146 229.049 689.859 228.539V230C689.13 230.458 688.167 230.688 686.969 230.688C685.792 230.688 684.867 230.326 684.195 229.602C683.529 228.872 683.195 227.849 683.195 226.531C683.195 225.286 683.562 224.273 684.297 223.492C685.036 222.706 685.953 222.312 687.047 222.312C688.141 222.312 688.987 222.664 689.586 223.367C690.185 224.07 690.484 225.047 690.484 226.297V226.992ZM688.734 225.711C688.729 225.06 688.576 224.555 688.273 224.195C687.971 223.831 687.555 223.648 687.023 223.648C686.503 223.648 686.06 223.839 685.695 224.219C685.336 224.599 685.115 225.096 685.031 225.711H688.734Z" fill="#333333"/>
<path d="M663.855 248.5H662.774V247.353H662.748C662.247 248.223 661.474 248.658 660.428 248.658C659.58 248.658 658.901 248.357 658.391 247.755C657.885 247.149 657.633 246.325 657.633 245.283C657.633 244.167 657.914 243.273 658.477 242.6C659.039 241.928 659.788 241.592 660.724 241.592C661.652 241.592 662.326 241.957 662.748 242.686H662.774V238.507H663.855V248.5ZM662.774 245.448V244.453C662.774 243.908 662.594 243.446 662.234 243.068C661.874 242.69 661.417 242.501 660.863 242.501C660.204 242.501 659.685 242.743 659.307 243.227C658.929 243.71 658.74 244.378 658.74 245.23C658.74 246.008 658.92 246.624 659.281 247.076C659.646 247.524 660.133 247.749 660.744 247.749C661.346 247.749 661.834 247.531 662.208 247.096C662.585 246.661 662.774 246.112 662.774 245.448ZM666.598 240.036C666.404 240.036 666.24 239.97 666.103 239.838C665.967 239.707 665.899 239.54 665.899 239.337C665.899 239.135 665.967 238.968 666.103 238.836C666.24 238.7 666.404 238.632 666.598 238.632C666.795 238.632 666.962 238.7 667.099 238.836C667.239 238.968 667.31 239.135 667.31 239.337C667.31 239.531 667.239 239.696 667.099 239.832C666.962 239.968 666.795 240.036 666.598 240.036ZM667.125 248.5H666.044V241.75H667.125V248.5ZM678.898 248.5H677.817V244.624C677.817 243.877 677.7 243.336 677.468 243.002C677.239 242.668 676.852 242.501 676.307 242.501C675.846 242.501 675.453 242.712 675.127 243.134C674.807 243.556 674.646 244.062 674.646 244.65V248.5H673.565V244.492C673.565 243.165 673.053 242.501 672.029 242.501C671.555 242.501 671.164 242.701 670.856 243.101C670.548 243.497 670.395 244.013 670.395 244.65V248.5H669.313V241.75H670.395V242.818H670.421C670.9 242 671.599 241.592 672.517 241.592C672.979 241.592 673.381 241.721 673.723 241.981C674.066 242.236 674.301 242.572 674.429 242.989C674.93 242.058 675.677 241.592 676.67 241.592C678.155 241.592 678.898 242.508 678.898 244.341V248.5ZM686.366 245.395H681.601C681.618 246.147 681.82 246.727 682.207 247.135C682.594 247.544 683.125 247.749 683.802 247.749C684.562 247.749 685.261 247.498 685.898 246.997V248.012C685.305 248.443 684.521 248.658 683.545 248.658C682.592 248.658 681.842 248.353 681.297 247.742C680.752 247.127 680.48 246.263 680.48 245.151C680.48 244.101 680.777 243.246 681.37 242.587C681.968 241.924 682.708 241.592 683.591 241.592C684.475 241.592 685.158 241.877 685.641 242.449C686.125 243.02 686.366 243.813 686.366 244.828V245.395ZM685.259 244.479C685.255 243.855 685.103 243.369 684.804 243.022C684.51 242.675 684.099 242.501 683.572 242.501C683.062 242.501 682.629 242.684 682.273 243.049C681.917 243.413 681.697 243.89 681.614 244.479H685.259ZM693.611 248.5H692.53V244.65C692.53 243.218 692.007 242.501 690.961 242.501C690.42 242.501 689.972 242.706 689.616 243.115C689.265 243.519 689.089 244.031 689.089 244.65V248.5H688.008V241.75H689.089V242.871H689.115C689.625 242.018 690.363 241.592 691.33 241.592C692.068 241.592 692.633 241.831 693.024 242.31C693.415 242.785 693.611 243.473 693.611 244.374V248.5ZM695.246 248.256V247.096C695.834 247.531 696.483 247.749 697.19 247.749C698.139 247.749 698.614 247.432 698.614 246.799C698.614 246.619 698.572 246.468 698.489 246.344C698.41 246.217 698.3 246.105 698.159 246.008C698.023 245.912 697.86 245.826 697.671 245.751C697.487 245.672 697.287 245.591 697.072 245.507C696.773 245.389 696.509 245.27 696.281 245.151C696.056 245.028 695.867 244.892 695.714 244.743C695.564 244.589 695.45 244.415 695.371 244.222C695.296 244.029 695.259 243.802 695.259 243.543C695.259 243.227 695.331 242.948 695.476 242.706C695.621 242.46 695.815 242.255 696.056 242.093C696.298 241.926 696.573 241.801 696.88 241.717C697.192 241.634 697.513 241.592 697.843 241.592C698.427 241.592 698.95 241.693 699.412 241.895V242.989C698.915 242.664 698.344 242.501 697.698 242.501C697.496 242.501 697.313 242.526 697.151 242.574C696.988 242.618 696.847 242.682 696.729 242.765C696.615 242.849 696.524 242.95 696.458 243.068C696.397 243.183 696.366 243.31 696.366 243.451C696.366 243.626 696.397 243.774 696.458 243.892C696.524 244.011 696.619 244.116 696.742 244.209C696.865 244.301 697.014 244.385 697.19 244.459C697.366 244.534 697.566 244.615 697.79 244.703C698.089 244.817 698.357 244.936 698.594 245.059C698.832 245.178 699.034 245.314 699.201 245.468C699.368 245.617 699.495 245.791 699.583 245.989C699.675 246.186 699.721 246.421 699.721 246.694C699.721 247.028 699.647 247.318 699.497 247.564C699.352 247.81 699.157 248.014 698.911 248.177C698.665 248.34 698.381 248.46 698.06 248.54C697.74 248.619 697.403 248.658 697.052 248.658C696.357 248.658 695.755 248.524 695.246 248.256ZM701.943 240.036C701.75 240.036 701.585 239.97 701.448 239.838C701.312 239.707 701.244 239.54 701.244 239.337C701.244 239.135 701.312 238.968 701.448 238.836C701.585 238.7 701.75 238.632 701.943 238.632C702.141 238.632 702.308 238.7 702.444 238.836C702.584 238.968 702.655 239.135 702.655 239.337C702.655 239.531 702.584 239.696 702.444 239.832C702.308 239.968 702.141 240.036 701.943 240.036ZM702.47 248.5H701.389V241.75H702.47V248.5ZM707.48 248.658C706.482 248.658 705.685 248.344 705.087 247.716C704.494 247.083 704.197 246.246 704.197 245.204C704.197 244.07 704.507 243.185 705.127 242.548C705.746 241.91 706.583 241.592 707.638 241.592C708.645 241.592 709.429 241.902 709.991 242.521C710.558 243.141 710.842 244 710.842 245.099C710.842 246.175 710.536 247.039 709.926 247.689C709.319 248.335 708.504 248.658 707.48 248.658ZM707.559 242.501C706.865 242.501 706.315 242.739 705.911 243.213C705.507 243.684 705.305 244.334 705.305 245.165C705.305 245.964 705.509 246.595 705.918 247.056C706.326 247.518 706.874 247.749 707.559 247.749C708.258 247.749 708.794 247.522 709.167 247.07C709.545 246.617 709.734 245.973 709.734 245.138C709.734 244.294 709.545 243.644 709.167 243.187C708.794 242.73 708.258 242.501 707.559 242.501ZM718.172 248.5H717.091V244.65C717.091 243.218 716.568 242.501 715.522 242.501C714.981 242.501 714.533 242.706 714.177 243.115C713.826 243.519 713.65 244.031 713.65 244.65V248.5H712.569V241.75H713.65V242.871H713.676C714.186 242.018 714.924 241.592 715.891 241.592C716.629 241.592 717.194 241.831 717.585 242.31C717.976 242.785 718.172 243.473 718.172 244.374V248.5ZM727.051 248.434C726.796 248.575 726.46 248.645 726.042 248.645C724.86 248.645 724.269 247.986 724.269 246.667V242.673H723.109V241.75H724.269V240.102L725.35 239.753V241.75H727.051V242.673H725.35V246.476C725.35 246.929 725.427 247.252 725.581 247.445C725.735 247.639 725.99 247.735 726.346 247.735C726.618 247.735 726.853 247.661 727.051 247.511V248.434ZM733.326 248.5H732.245V247.445H732.219C731.749 248.254 731.057 248.658 730.143 248.658C729.47 248.658 728.943 248.48 728.561 248.124C728.183 247.768 727.994 247.296 727.994 246.707C727.994 245.446 728.736 244.712 730.222 244.505L732.245 244.222C732.245 243.075 731.782 242.501 730.854 242.501C730.042 242.501 729.308 242.778 728.653 243.332V242.225C729.316 241.803 730.081 241.592 730.947 241.592C732.533 241.592 733.326 242.431 733.326 244.11V248.5ZM732.245 245.085L730.617 245.31C730.116 245.38 729.738 245.505 729.483 245.685C729.229 245.861 729.101 246.175 729.101 246.628C729.101 246.958 729.218 247.228 729.45 247.439C729.688 247.645 730.002 247.749 730.393 247.749C730.929 247.749 731.371 247.562 731.718 247.188C732.07 246.81 732.245 246.333 732.245 245.758V245.085ZM736.471 247.524H736.444V248.5H735.363V238.507H736.444V242.937H736.471C737.002 242.04 737.78 241.592 738.804 241.592C739.67 241.592 740.347 241.895 740.834 242.501C741.327 243.104 741.573 243.912 741.573 244.927C741.573 246.057 741.298 246.962 740.749 247.643C740.199 248.32 739.448 248.658 738.494 248.658C737.602 248.658 736.928 248.28 736.471 247.524ZM736.444 244.802V245.745C736.444 246.303 736.625 246.777 736.985 247.168C737.35 247.555 737.811 247.749 738.369 247.749C739.024 247.749 739.536 247.498 739.905 246.997C740.279 246.496 740.465 245.8 740.465 244.907C740.465 244.156 740.292 243.567 739.945 243.141C739.597 242.715 739.127 242.501 738.534 242.501C737.906 242.501 737.4 242.721 737.018 243.161C736.635 243.596 736.444 244.143 736.444 244.802ZM744.381 248.5H743.3V238.507H744.381V248.5ZM751.994 245.395H747.229C747.246 246.147 747.448 246.727 747.835 247.135C748.222 247.544 748.753 247.749 749.43 247.749C750.19 247.749 750.889 247.498 751.526 246.997V248.012C750.933 248.443 750.149 248.658 749.173 248.658C748.219 248.658 747.47 248.353 746.925 247.742C746.38 247.127 746.108 246.263 746.108 245.151C746.108 244.101 746.405 243.246 746.998 242.587C747.595 241.924 748.336 241.592 749.219 241.592C750.103 241.592 750.786 241.877 751.269 242.449C751.753 243.02 751.994 243.813 751.994 244.828V245.395ZM750.887 244.479C750.883 243.855 750.731 243.369 750.432 243.022C750.138 242.675 749.727 242.501 749.199 242.501C748.69 242.501 748.257 242.684 747.901 243.049C747.545 243.413 747.325 243.89 747.242 244.479H750.887Z" fill="#333333"/>
<path d="M50.75 221C50.75 212.578 57.5777 205.75 66 205.75H234C242.422 205.75 249.25 212.578 249.25 221V250C249.25 258.422 242.422 265.25 234 265.25H66C57.5777 265.25 50.75 258.422 50.75 250V221Z" fill="white"/>
<path d="M50.75 221C50.75 212.578 57.5777 205.75 66 205.75H234C242.422 205.75 249.25 212.578 249.25 221V250C249.25 258.422 242.422 265.25 234 265.25H66C57.5777 265.25 50.75 258.422 50.75 250V221Z" stroke="#E1E1E1" stroke-width="1.5"/>
<path d="M94.75 227.625C94.75 225.209 92.7912 223.25 90.375 223.25H74.625C72.2088 223.25 70.25 225.209 70.25 227.625V243.375C70.25 245.791 72.2088 247.75 74.625 247.75H90.375C92.7912 247.75 94.75 245.791 94.75 243.375V227.625ZM72 243.375V240.75H77.25V246H74.625L74.3722 245.988C73.0411 245.861 72 244.739 72 243.375ZM86 240.75V246H79V240.75H86ZM90.375 246H87.75V240.75H93V243.375L92.988 243.628C92.8608 244.959 91.7395 246 90.375 246ZM86 232V239H79V232H86ZM87.75 232H93V239H87.75V232ZM86 225V230.25H79V225H86ZM87.75 225H90.375L90.6278 225.012C91.9589 225.139 93 226.261 93 227.625V230.25H87.75V225ZM77.25 225V230.25H72V227.625L72.012 227.372C72.1392 226.041 73.2605 225 74.625 225H77.25ZM77.25 232V239H72V232H77.25Z" fill="#242424"/>
<path d="M115.867 230.055V228.141C116.039 228.297 116.242 228.438 116.477 228.562C116.716 228.688 116.969 228.794 117.234 228.883C117.5 228.966 117.766 229.031 118.031 229.078C118.297 229.125 118.542 229.148 118.766 229.148C119.547 229.148 120.128 229.018 120.508 228.758C120.893 228.497 121.086 228.12 121.086 227.625C121.086 227.359 121.021 227.13 120.891 226.938C120.766 226.74 120.589 226.56 120.359 226.398C120.13 226.237 119.859 226.083 119.547 225.938C119.24 225.786 118.909 225.63 118.555 225.469C118.174 225.266 117.82 225.06 117.492 224.852C117.164 224.643 116.878 224.414 116.633 224.164C116.393 223.909 116.203 223.622 116.062 223.305C115.927 222.987 115.859 222.615 115.859 222.188C115.859 221.661 115.977 221.206 116.211 220.82C116.451 220.43 116.763 220.109 117.148 219.859C117.539 219.604 117.982 219.417 118.477 219.297C118.971 219.172 119.477 219.109 119.992 219.109C121.164 219.109 122.018 219.242 122.555 219.508V221.344C121.919 220.885 121.102 220.656 120.102 220.656C119.826 220.656 119.549 220.682 119.273 220.734C119.003 220.786 118.758 220.872 118.539 220.992C118.326 221.112 118.151 221.266 118.016 221.453C117.88 221.641 117.812 221.867 117.812 222.133C117.812 222.383 117.865 222.599 117.969 222.781C118.073 222.964 118.224 223.13 118.422 223.281C118.625 223.432 118.87 223.581 119.156 223.727C119.448 223.867 119.784 224.021 120.164 224.188C120.555 224.391 120.922 224.604 121.266 224.828C121.615 225.052 121.919 225.299 122.18 225.57C122.445 225.841 122.654 226.143 122.805 226.477C122.961 226.805 123.039 227.18 123.039 227.602C123.039 228.169 122.924 228.648 122.695 229.039C122.466 229.43 122.156 229.747 121.766 229.992C121.38 230.237 120.935 230.414 120.43 230.523C119.924 230.633 119.391 230.688 118.828 230.688C118.641 230.688 118.409 230.672 118.133 230.641C117.862 230.615 117.583 230.573 117.297 230.516C117.01 230.464 116.74 230.398 116.484 230.32C116.229 230.242 116.023 230.154 115.867 230.055ZM131.039 230.5H129.281V229.25H129.25C128.698 230.208 127.888 230.688 126.82 230.688C126.034 230.688 125.417 230.474 124.969 230.047C124.526 229.62 124.305 229.055 124.305 228.352C124.305 226.841 125.174 225.961 126.914 225.711L129.289 225.375C129.289 224.234 128.747 223.664 127.664 223.664C126.711 223.664 125.852 223.992 125.086 224.648V223.062C125.93 222.562 126.904 222.312 128.008 222.312C130.029 222.312 131.039 223.307 131.039 225.297V230.5ZM129.289 226.57L127.609 226.805C127.089 226.872 126.695 227 126.43 227.188C126.169 227.37 126.039 227.693 126.039 228.156C126.039 228.495 126.159 228.773 126.398 228.992C126.643 229.206 126.969 229.312 127.375 229.312C127.927 229.312 128.383 229.12 128.742 228.734C129.107 228.344 129.289 227.854 129.289 227.266V226.57ZM135.078 230.5H133.258V218.656H135.078V230.5ZM144.219 226.992H138.766C138.786 227.732 139.013 228.302 139.445 228.703C139.883 229.104 140.482 229.305 141.242 229.305C142.096 229.305 142.88 229.049 143.594 228.539V230C142.865 230.458 141.901 230.688 140.703 230.688C139.526 230.688 138.602 230.326 137.93 229.602C137.263 228.872 136.93 227.849 136.93 226.531C136.93 225.286 137.297 224.273 138.031 223.492C138.771 222.706 139.688 222.312 140.781 222.312C141.875 222.312 142.721 222.664 143.32 223.367C143.919 224.07 144.219 225.047 144.219 226.297V226.992ZM142.469 225.711C142.464 225.06 142.31 224.555 142.008 224.195C141.706 223.831 141.289 223.648 140.758 223.648C140.237 223.648 139.794 223.839 139.43 224.219C139.07 224.599 138.849 225.096 138.766 225.711H142.469ZM145.445 230.25V228.57C146.122 229.086 146.87 229.344 147.688 229.344C148.781 229.344 149.328 229.021 149.328 228.375C149.328 228.193 149.281 228.039 149.188 227.914C149.094 227.784 148.966 227.669 148.805 227.57C148.648 227.471 148.461 227.383 148.242 227.305C148.029 227.227 147.789 227.138 147.523 227.039C147.195 226.909 146.898 226.771 146.633 226.625C146.372 226.479 146.154 226.315 145.977 226.133C145.805 225.945 145.674 225.734 145.586 225.5C145.497 225.266 145.453 224.992 145.453 224.68C145.453 224.294 145.544 223.956 145.727 223.664C145.909 223.367 146.154 223.12 146.461 222.922C146.768 222.719 147.117 222.568 147.508 222.469C147.898 222.365 148.302 222.312 148.719 222.312C149.458 222.312 150.12 222.424 150.703 222.648V224.234C150.141 223.849 149.495 223.656 148.766 223.656C148.536 223.656 148.328 223.68 148.141 223.727C147.958 223.773 147.802 223.839 147.672 223.922C147.542 224.005 147.44 224.107 147.367 224.227C147.294 224.341 147.258 224.469 147.258 224.609C147.258 224.781 147.294 224.927 147.367 225.047C147.44 225.167 147.547 225.273 147.688 225.367C147.833 225.456 148.005 225.539 148.203 225.617C148.406 225.69 148.638 225.771 148.898 225.859C149.242 226 149.549 226.143 149.82 226.289C150.096 226.435 150.331 226.602 150.523 226.789C150.716 226.971 150.865 227.185 150.969 227.43C151.073 227.669 151.125 227.956 151.125 228.289C151.125 228.695 151.031 229.049 150.844 229.352C150.656 229.654 150.406 229.904 150.094 230.102C149.781 230.299 149.419 230.445 149.008 230.539C148.602 230.638 148.172 230.688 147.719 230.688C146.844 230.688 146.086 230.542 145.445 230.25ZM164.648 220.875H161.43V230.5H159.57V220.875H156.359V219.297H164.648V220.875ZM171.297 226.992H165.844C165.865 227.732 166.091 228.302 166.523 228.703C166.961 229.104 167.56 229.305 168.32 229.305C169.174 229.305 169.958 229.049 170.672 228.539V230C169.943 230.458 168.979 230.688 167.781 230.688C166.604 230.688 165.68 230.326 165.008 229.602C164.341 228.872 164.008 227.849 164.008 226.531C164.008 225.286 164.375 224.273 165.109 223.492C165.849 222.706 166.766 222.312 167.859 222.312C168.953 222.312 169.799 222.664 170.398 223.367C170.997 224.07 171.297 225.047 171.297 226.297V226.992ZM169.547 225.711C169.542 225.06 169.388 224.555 169.086 224.195C168.784 223.831 168.367 223.648 167.836 223.648C167.315 223.648 166.872 223.839 166.508 224.219C166.148 224.599 165.927 225.096 165.844 225.711H169.547ZM177.664 224.227C177.445 224.055 177.13 223.969 176.719 223.969C176.182 223.969 175.734 224.211 175.375 224.695C175.016 225.18 174.836 225.839 174.836 226.672V230.5H173.023V222.5H174.836V224.148H174.867C175.044 223.586 175.315 223.148 175.68 222.836C176.049 222.518 176.461 222.359 176.914 222.359C177.242 222.359 177.492 222.409 177.664 222.508V224.227ZM183.586 224.227C183.367 224.055 183.052 223.969 182.641 223.969C182.104 223.969 181.656 224.211 181.297 224.695C180.938 225.18 180.758 225.839 180.758 226.672V230.5H178.945V222.5H180.758V224.148H180.789C180.966 223.586 181.237 223.148 181.602 222.836C181.971 222.518 182.383 222.359 182.836 222.359C183.164 222.359 183.414 222.409 183.586 222.508V224.227ZM185.781 220.82C185.484 220.82 185.229 220.724 185.016 220.531C184.807 220.339 184.703 220.094 184.703 219.797C184.703 219.5 184.807 219.253 185.016 219.055C185.229 218.857 185.484 218.758 185.781 218.758C186.089 218.758 186.349 218.857 186.562 219.055C186.776 219.253 186.883 219.5 186.883 219.797C186.883 220.078 186.776 220.32 186.562 220.523C186.349 220.721 186.089 220.82 185.781 220.82ZM186.68 230.5H184.867V222.5H186.68V230.5ZM193.273 230.414C192.919 230.591 192.453 230.68 191.875 230.68C190.323 230.68 189.547 229.935 189.547 228.445V223.922H188.211V222.5H189.547V220.648L191.359 220.133V222.5H193.273V223.922H191.359V227.922C191.359 228.396 191.445 228.734 191.617 228.938C191.789 229.141 192.076 229.242 192.477 229.242C192.784 229.242 193.049 229.154 193.273 228.977V230.414ZM198.289 230.688C197.055 230.688 196.068 230.315 195.328 229.57C194.594 228.82 194.227 227.828 194.227 226.594C194.227 225.25 194.609 224.201 195.375 223.445C196.146 222.69 197.182 222.312 198.484 222.312C199.734 222.312 200.708 222.68 201.406 223.414C202.104 224.148 202.453 225.167 202.453 226.469C202.453 227.745 202.076 228.768 201.32 229.539C200.57 230.305 199.56 230.688 198.289 230.688ZM198.375 223.758C197.667 223.758 197.107 224.005 196.695 224.5C196.284 224.995 196.078 225.677 196.078 226.547C196.078 227.385 196.286 228.047 196.703 228.531C197.12 229.01 197.677 229.25 198.375 229.25C199.089 229.25 199.635 229.013 200.016 228.539C200.401 228.065 200.594 227.391 200.594 226.516C200.594 225.635 200.401 224.956 200.016 224.477C199.635 223.997 199.089 223.758 198.375 223.758ZM208.945 224.227C208.727 224.055 208.411 223.969 208 223.969C207.464 223.969 207.016 224.211 206.656 224.695C206.297 225.18 206.117 225.839 206.117 226.672V230.5H204.305V222.5H206.117V224.148H206.148C206.326 223.586 206.596 223.148 206.961 222.836C207.331 222.518 207.742 222.359 208.195 222.359C208.523 222.359 208.773 222.409 208.945 222.508V224.227ZM217.797 222.5L214.188 231.781C213.438 233.438 212.385 234.266 211.031 234.266C210.651 234.266 210.333 234.232 210.078 234.164V232.656C210.365 232.75 210.625 232.797 210.859 232.797C211.536 232.797 212.042 232.464 212.375 231.797L212.914 230.484L209.734 222.5H211.742L213.648 228.312C213.669 228.385 213.716 228.578 213.789 228.891H213.828C213.854 228.771 213.901 228.583 213.969 228.328L215.969 222.5H217.797Z" fill="#333333"/>
<path d="M121.855 248.5H120.774V247.353H120.748C120.247 248.223 119.474 248.658 118.428 248.658C117.58 248.658 116.901 248.357 116.391 247.755C115.885 247.149 115.633 246.325 115.633 245.283C115.633 244.167 115.914 243.273 116.477 242.6C117.039 241.928 117.788 241.592 118.724 241.592C119.652 241.592 120.326 241.957 120.748 242.686H120.774V238.507H121.855V248.5ZM120.774 245.448V244.453C120.774 243.908 120.594 243.446 120.234 243.068C119.874 242.69 119.417 242.501 118.863 242.501C118.204 242.501 117.685 242.743 117.307 243.227C116.929 243.71 116.74 244.378 116.74 245.23C116.74 246.008 116.92 246.624 117.281 247.076C117.646 247.524 118.133 247.749 118.744 247.749C119.346 247.749 119.834 247.531 120.208 247.096C120.585 246.661 120.774 246.112 120.774 245.448ZM124.598 240.036C124.404 240.036 124.24 239.97 124.103 239.838C123.967 239.707 123.899 239.54 123.899 239.337C123.899 239.135 123.967 238.968 124.103 238.836C124.24 238.7 124.404 238.632 124.598 238.632C124.795 238.632 124.962 238.7 125.099 238.836C125.239 238.968 125.31 239.135 125.31 239.337C125.31 239.531 125.239 239.696 125.099 239.832C124.962 239.968 124.795 240.036 124.598 240.036ZM125.125 248.5H124.044V241.75H125.125V248.5ZM136.898 248.5H135.817V244.624C135.817 243.877 135.7 243.336 135.468 243.002C135.239 242.668 134.852 242.501 134.307 242.501C133.846 242.501 133.453 242.712 133.127 243.134C132.807 243.556 132.646 244.062 132.646 244.65V248.5H131.565V244.492C131.565 243.165 131.053 242.501 130.029 242.501C129.555 242.501 129.164 242.701 128.856 243.101C128.548 243.497 128.395 244.013 128.395 244.65V248.5H127.313V241.75H128.395V242.818H128.421C128.9 242 129.599 241.592 130.517 241.592C130.979 241.592 131.381 241.721 131.723 241.981C132.066 242.236 132.301 242.572 132.429 242.989C132.93 242.058 133.677 241.592 134.67 241.592C136.155 241.592 136.898 242.508 136.898 244.341V248.5ZM144.366 245.395H139.601C139.618 246.147 139.82 246.727 140.207 247.135C140.594 247.544 141.125 247.749 141.802 247.749C142.562 247.749 143.261 247.498 143.898 246.997V248.012C143.305 248.443 142.521 248.658 141.545 248.658C140.592 248.658 139.842 248.353 139.297 247.742C138.752 247.127 138.48 246.263 138.48 245.151C138.48 244.101 138.777 243.246 139.37 242.587C139.968 241.924 140.708 241.592 141.591 241.592C142.475 241.592 143.158 241.877 143.641 242.449C144.125 243.02 144.366 243.813 144.366 244.828V245.395ZM143.259 244.479C143.255 243.855 143.103 243.369 142.804 243.022C142.51 242.675 142.099 242.501 141.572 242.501C141.062 242.501 140.629 242.684 140.273 243.049C139.917 243.413 139.697 243.89 139.614 244.479H143.259ZM151.611 248.5H150.53V244.65C150.53 243.218 150.007 242.501 148.961 242.501C148.42 242.501 147.972 242.706 147.616 243.115C147.265 243.519 147.089 244.031 147.089 244.65V248.5H146.008V241.75H147.089V242.871H147.115C147.625 242.018 148.363 241.592 149.33 241.592C150.068 241.592 150.633 241.831 151.024 242.31C151.415 242.785 151.611 243.473 151.611 244.374V248.5ZM153.246 248.256V247.096C153.834 247.531 154.483 247.749 155.19 247.749C156.139 247.749 156.614 247.432 156.614 246.799C156.614 246.619 156.572 246.468 156.489 246.344C156.41 246.217 156.3 246.105 156.159 246.008C156.023 245.912 155.86 245.826 155.671 245.751C155.487 245.672 155.287 245.591 155.072 245.507C154.773 245.389 154.509 245.27 154.281 245.151C154.056 245.028 153.867 244.892 153.714 244.743C153.564 244.589 153.45 244.415 153.371 244.222C153.296 244.029 153.259 243.802 153.259 243.543C153.259 243.227 153.331 242.948 153.476 242.706C153.621 242.46 153.815 242.255 154.056 242.093C154.298 241.926 154.573 241.801 154.88 241.717C155.192 241.634 155.513 241.592 155.843 241.592C156.427 241.592 156.95 241.693 157.412 241.895V242.989C156.915 242.664 156.344 242.501 155.698 242.501C155.496 242.501 155.313 242.526 155.151 242.574C154.988 242.618 154.847 242.682 154.729 242.765C154.615 242.849 154.524 242.95 154.458 243.068C154.397 243.183 154.366 243.31 154.366 243.451C154.366 243.626 154.397 243.774 154.458 243.892C154.524 244.011 154.619 244.116 154.742 244.209C154.865 244.301 155.014 244.385 155.19 244.459C155.366 244.534 155.566 244.615 155.79 244.703C156.089 244.817 156.357 244.936 156.594 245.059C156.832 245.178 157.034 245.314 157.201 245.468C157.368 245.617 157.495 245.791 157.583 245.989C157.675 246.186 157.721 246.421 157.721 246.694C157.721 247.028 157.647 247.318 157.497 247.564C157.352 247.81 157.157 248.014 156.911 248.177C156.665 248.34 156.381 248.46 156.06 248.54C155.74 248.619 155.403 248.658 155.052 248.658C154.357 248.658 153.755 248.524 153.246 248.256ZM159.943 240.036C159.75 240.036 159.585 239.97 159.448 239.838C159.312 239.707 159.244 239.54 159.244 239.337C159.244 239.135 159.312 238.968 159.448 238.836C159.585 238.7 159.75 238.632 159.943 238.632C160.141 238.632 160.308 238.7 160.444 238.836C160.584 238.968 160.655 239.135 160.655 239.337C160.655 239.531 160.584 239.696 160.444 239.832C160.308 239.968 160.141 240.036 159.943 240.036ZM160.47 248.5H159.389V241.75H160.47V248.5ZM165.48 248.658C164.482 248.658 163.685 248.344 163.087 247.716C162.494 247.083 162.197 246.246 162.197 245.204C162.197 244.07 162.507 243.185 163.127 242.548C163.746 241.91 164.583 241.592 165.638 241.592C166.645 241.592 167.429 241.902 167.991 242.521C168.558 243.141 168.842 244 168.842 245.099C168.842 246.175 168.536 247.039 167.926 247.689C167.319 248.335 166.504 248.658 165.48 248.658ZM165.559 242.501C164.865 242.501 164.315 242.739 163.911 243.213C163.507 243.684 163.305 244.334 163.305 245.165C163.305 245.964 163.509 246.595 163.918 247.056C164.326 247.518 164.874 247.749 165.559 247.749C166.258 247.749 166.794 247.522 167.167 247.07C167.545 246.617 167.734 245.973 167.734 245.138C167.734 244.294 167.545 243.644 167.167 243.187C166.794 242.73 166.258 242.501 165.559 242.501ZM176.172 248.5H175.091V244.65C175.091 243.218 174.568 242.501 173.522 242.501C172.981 242.501 172.533 242.706 172.177 243.115C171.826 243.519 171.65 244.031 171.65 244.65V248.5H170.569V241.75H171.65V242.871H171.676C172.186 242.018 172.924 241.592 173.891 241.592C174.629 241.592 175.194 241.831 175.585 242.31C175.976 242.785 176.172 243.473 176.172 244.374V248.5ZM185.051 248.434C184.796 248.575 184.46 248.645 184.042 248.645C182.86 248.645 182.269 247.986 182.269 246.667V242.673H181.109V241.75H182.269V240.102L183.35 239.753V241.75H185.051V242.673H183.35V246.476C183.35 246.929 183.427 247.252 183.581 247.445C183.735 247.639 183.99 247.735 184.346 247.735C184.618 247.735 184.853 247.661 185.051 247.511V248.434ZM191.326 248.5H190.245V247.445H190.219C189.749 248.254 189.057 248.658 188.143 248.658C187.47 248.658 186.943 248.48 186.561 248.124C186.183 247.768 185.994 247.296 185.994 246.707C185.994 245.446 186.736 244.712 188.222 244.505L190.245 244.222C190.245 243.075 189.782 242.501 188.854 242.501C188.042 242.501 187.308 242.778 186.653 243.332V242.225C187.316 241.803 188.081 241.592 188.947 241.592C190.533 241.592 191.326 242.431 191.326 244.11V248.5ZM190.245 245.085L188.617 245.31C188.116 245.38 187.738 245.505 187.483 245.685C187.229 245.861 187.101 246.175 187.101 246.628C187.101 246.958 187.218 247.228 187.45 247.439C187.688 247.645 188.002 247.749 188.393 247.749C188.929 247.749 189.371 247.562 189.718 247.188C190.07 246.81 190.245 246.333 190.245 245.758V245.085ZM194.471 247.524H194.444V248.5H193.363V238.507H194.444V242.937H194.471C195.002 242.04 195.78 241.592 196.804 241.592C197.67 241.592 198.347 241.895 198.834 242.501C199.327 243.104 199.573 243.912 199.573 244.927C199.573 246.057 199.298 246.962 198.749 247.643C198.199 248.32 197.448 248.658 196.494 248.658C195.602 248.658 194.928 248.28 194.471 247.524ZM194.444 244.802V245.745C194.444 246.303 194.625 246.777 194.985 247.168C195.35 247.555 195.811 247.749 196.369 247.749C197.024 247.749 197.536 247.498 197.905 246.997C198.279 246.496 198.465 245.8 198.465 244.907C198.465 244.156 198.292 243.567 197.945 243.141C197.597 242.715 197.127 242.501 196.534 242.501C195.906 242.501 195.4 242.721 195.018 243.161C194.635 243.596 194.444 244.143 194.444 244.802ZM202.381 248.5H201.3V238.507H202.381V248.5ZM209.994 245.395H205.229C205.246 246.147 205.448 246.727 205.835 247.135C206.222 247.544 206.753 247.749 207.43 247.749C208.19 247.749 208.889 247.498 209.526 246.997V248.012C208.933 248.443 208.149 248.658 207.173 248.658C206.219 248.658 205.47 248.353 204.925 247.742C204.38 247.127 204.108 246.263 204.108 245.151C204.108 244.101 204.405 243.246 204.998 242.587C205.595 241.924 206.336 241.592 207.219 241.592C208.103 241.592 208.786 241.877 209.269 242.449C209.753 243.02 209.994 243.813 209.994 244.828V245.395ZM208.887 244.479C208.883 243.855 208.731 243.369 208.432 243.022C208.138 242.675 207.727 242.501 207.199 242.501C206.69 242.501 206.257 242.684 205.901 243.049C205.545 243.413 205.325 243.89 205.242 244.479H208.887Z" fill="#333333"/>
<defs>
<radialGradient id="paint0_radial_32_3560" cx="0" cy="0" r="1" gradientUnits="userSpaceOnUse" gradientTransform="translate(126.502 62.6318) rotate(29.0478) scale(924.514 619.381)">
<stop offset="0.198869" stop-color="#CFAF47"/>
<stop offset="1" stop-color="#5A409C"/>
</radialGradient>
<radialGradient id="paint1_radial_32_3560" cx="0" cy="0" r="1" gradientUnits="userSpaceOnUse" gradientTransform="translate(421 287) rotate(55.9779) scale(215.366 214.304)">
<stop stop-color="#8F34EA" stop-opacity="0.1"/>
<stop offset="1" stop-color="#611DA4" stop-opacity="0.25"/>
</radialGradient>
<linearGradient id="paint2_linear_32_3560" x1="-607.571" y1="72" x2="548.131" y2="1921.11" gradientUnits="userSpaceOnUse">
<stop stop-color="#7751B8"/>
<stop offset="1" stop-color="#5A409C"/>
</linearGradient>
<linearGradient id="paint3_linear_32_3560" x1="301" y1="266.5" x2="390.888" y2="410.32" gradientUnits="userSpaceOnUse">
<stop stop-color="#7751B8"/>
<stop offset="1" stop-color="#5A409C"/>
</linearGradient>
<linearGradient id="paint4_linear_32_3560" x1="310.214" y1="257" x2="367.342" y2="419.813" gradientUnits="userSpaceOnUse">
<stop stop-color="#7751B8"/>
<stop offset="1" stop-color="#5A409C"/>
</linearGradient>
<linearGradient id="paint5_linear_32_3560" x1="288.786" y1="286" x2="310.815" y2="401.81" gradientUnits="userSpaceOnUse">
<stop stop-color="#7751B8"/>
<stop offset="1" stop-color="#5A409C"/>
</linearGradient>
</defs>
</svg>
