<svg width="842" height="572" viewBox="0 0 842 572" fill="none" xmlns="http://www.w3.org/2000/svg">
<rect x="0.5" y="0.5" width="841" height="571" fill="white"/>
<rect x="0.5" y="0.5" width="841" height="571" fill="url(#paint0_radial_32_4811)" fill-opacity="0.075"/>
<rect x="0.5" y="0.5" width="841" height="571" stroke="#14063D"/>
<path opacity="0.5" d="M419.811 78.0859C420.185 76.9342 421.815 76.9342 422.189 78.0859L470.353 226.321C470.721 227.454 471.777 228.221 472.969 228.221H628.832C630.043 228.221 630.547 229.771 629.567 230.482L503.471 322.097C502.507 322.797 502.104 324.038 502.472 325.171L550.636 473.406C551.01 474.558 549.692 475.516 548.713 474.804L422.616 383.19C421.653 382.489 420.347 382.489 419.384 383.19L293.287 474.804C292.308 475.516 290.99 474.558 291.364 473.406L339.528 325.171C339.896 324.038 339.493 322.797 338.529 322.097L212.433 230.482C211.453 229.771 211.957 228.221 213.168 228.221H369.031C370.223 228.221 371.279 227.454 371.647 226.321L419.811 78.0859Z" fill="url(#paint1_radial_32_4811)" stroke="url(#paint2_linear_32_4811)" stroke-width="1.5"/>
<path d="M406.5 282.75C406.5 279.298 403.702 276.5 400.25 276.5H377.75C374.298 276.5 371.5 279.298 371.5 282.75V305.25C371.5 308.702 374.298 311.5 377.75 311.5H400.25C403.702 311.5 406.5 308.702 406.5 305.25V282.75ZM374 305.25V301.5H381.5V309H377.75L377.389 308.983C375.487 308.801 374 307.199 374 305.25ZM394 301.5V309H384V301.5H394ZM400.25 309H396.5V301.5H404V305.25L403.983 305.611C403.801 307.513 402.199 309 400.25 309ZM394 289V299H384V289H394ZM396.5 289H404V299H396.5V289ZM394 279V286.5H384V279H394ZM396.5 279H400.25L400.611 279.017C402.513 279.199 404 280.801 404 282.75V286.5H396.5V279ZM381.5 279V286.5H374V282.75L374.017 282.389C374.199 280.487 375.801 279 377.75 279H381.5ZM381.5 289V299H374V289H381.5Z" fill="url(#paint3_linear_32_4811)"/>
<path d="M431.637 272.277H425.707V276.402H431.156V279.473H425.707V286H421.922V269.195H431.637V272.277ZM443.309 286H439.805V284.277H439.758C438.953 285.621 437.762 286.293 436.184 286.293C435.02 286.293 434.102 285.965 433.43 285.309C432.766 284.645 432.434 283.762 432.434 282.66C432.434 280.332 433.812 278.988 436.57 278.629L439.828 278.195C439.828 276.883 439.117 276.227 437.695 276.227C436.266 276.227 434.906 276.652 433.617 277.504V274.715C434.133 274.449 434.836 274.215 435.727 274.012C436.625 273.809 437.441 273.707 438.176 273.707C441.598 273.707 443.309 275.414 443.309 278.828V286ZM439.828 281.125V280.316L437.648 280.598C436.445 280.754 435.844 281.297 435.844 282.227C435.844 282.648 435.988 282.996 436.277 283.27C436.574 283.535 436.973 283.668 437.473 283.668C438.168 283.668 438.734 283.43 439.172 282.953C439.609 282.469 439.828 281.859 439.828 281.125ZM455.332 285.566C454.496 286.051 453.289 286.293 451.711 286.293C449.867 286.293 448.375 285.734 447.234 284.617C446.094 283.5 445.523 282.059 445.523 280.293C445.523 278.254 446.133 276.648 447.352 275.477C448.578 274.297 450.215 273.707 452.262 273.707C453.676 273.707 454.699 273.895 455.332 274.27V277.41C454.559 276.832 453.695 276.543 452.742 276.543C451.68 276.543 450.836 276.855 450.211 277.48C449.594 278.098 449.285 278.953 449.285 280.047C449.285 281.109 449.582 281.945 450.176 282.555C450.77 283.156 451.586 283.457 452.625 283.457C453.547 283.457 454.449 283.168 455.332 282.59V285.566ZM465.023 285.859C464.477 286.148 463.652 286.293 462.551 286.293C459.941 286.293 458.637 284.938 458.637 282.227V276.73H456.691V274H458.637V271.41L462.328 270.355V274H465.023V276.73H462.328V281.582C462.328 282.832 462.824 283.457 463.816 283.457C464.207 283.457 464.609 283.344 465.023 283.117V285.859ZM428.812 317.859C428.266 318.148 427.441 318.293 426.34 318.293C423.73 318.293 422.426 316.938 422.426 314.227V308.73H420.48V306H422.426V303.41L426.117 302.355V306H428.812V308.73H426.117V313.582C426.117 314.832 426.613 315.457 427.605 315.457C427.996 315.457 428.398 315.344 428.812 315.117V317.859ZM440.895 318H437.391V316.277H437.344C436.539 317.621 435.348 318.293 433.77 318.293C432.605 318.293 431.688 317.965 431.016 317.309C430.352 316.645 430.02 315.762 430.02 314.66C430.02 312.332 431.398 310.988 434.156 310.629L437.414 310.195C437.414 308.883 436.703 308.227 435.281 308.227C433.852 308.227 432.492 308.652 431.203 309.504V306.715C431.719 306.449 432.422 306.215 433.312 306.012C434.211 305.809 435.027 305.707 435.762 305.707C439.184 305.707 440.895 307.414 440.895 310.828V318ZM437.414 313.125V312.316L435.234 312.598C434.031 312.754 433.43 313.297 433.43 314.227C433.43 314.648 433.574 314.996 433.863 315.27C434.16 315.535 434.559 315.668 435.059 315.668C435.754 315.668 436.32 315.43 436.758 314.953C437.195 314.469 437.414 313.859 437.414 313.125ZM447.574 316.605H447.527V318H443.824V300.234H447.527V307.805H447.574C448.488 306.406 449.789 305.707 451.477 305.707C453.023 305.707 454.215 306.238 455.051 307.301C455.887 308.363 456.305 309.816 456.305 311.66C456.305 313.66 455.816 315.266 454.84 316.477C453.863 317.688 452.559 318.293 450.926 318.293C449.449 318.293 448.332 317.73 447.574 316.605ZM447.469 311.543V312.773C447.469 313.547 447.691 314.188 448.137 314.695C448.582 315.203 449.152 315.457 449.848 315.457C450.691 315.457 451.344 315.133 451.805 314.484C452.273 313.828 452.508 312.902 452.508 311.707C452.508 310.715 452.293 309.941 451.863 309.387C451.441 308.824 450.836 308.543 450.047 308.543C449.305 308.543 448.688 308.82 448.195 309.375C447.711 309.93 447.469 310.652 447.469 311.543ZM462.41 318H458.707V300.234H462.41V318ZM476.309 313.055H468.48C468.605 314.797 469.703 315.668 471.773 315.668C473.094 315.668 474.254 315.355 475.254 314.73V317.402C474.145 317.996 472.703 318.293 470.93 318.293C468.992 318.293 467.488 317.758 466.418 316.688C465.348 315.609 464.812 314.109 464.812 312.188C464.812 310.195 465.391 308.617 466.547 307.453C467.703 306.289 469.125 305.707 470.812 305.707C472.562 305.707 473.914 306.227 474.867 307.266C475.828 308.305 476.309 309.715 476.309 311.496V313.055ZM472.875 310.781C472.875 309.062 472.18 308.203 470.789 308.203C470.195 308.203 469.68 308.449 469.242 308.941C468.812 309.434 468.551 310.047 468.457 310.781H472.875Z" fill="url(#paint4_linear_32_4811)"/>
<path d="M321.75 66C321.75 57.5777 328.578 50.75 337 50.75H505C513.422 50.75 520.25 57.5777 520.25 66V95C520.25 103.422 513.422 110.25 505 110.25H337C328.578 110.25 321.75 103.422 321.75 95V66Z" fill="white"/>
<path d="M321.75 66C321.75 57.5777 328.578 50.75 337 50.75H505C513.422 50.75 520.25 57.5777 520.25 66V95C520.25 103.422 513.422 110.25 505 110.25H337C328.578 110.25 321.75 103.422 321.75 95V66Z" stroke="#E1E1E1" stroke-width="1.5"/>
<path d="M365.75 72.625C365.75 70.2088 363.791 68.25 361.375 68.25H345.625C343.209 68.25 341.25 70.2088 341.25 72.625V88.375C341.25 90.7912 343.209 92.75 345.625 92.75H361.375C363.791 92.75 365.75 90.7912 365.75 88.375V72.625ZM343 88.375V85.75H348.25V91H345.625L345.372 90.988C344.041 90.8608 343 89.7395 343 88.375ZM357 85.75V91H350V85.75H357ZM361.375 91H358.75V85.75H364V88.375L363.988 88.6278C363.861 89.9589 362.739 91 361.375 91ZM357 77V84H350V77H357ZM358.75 77H364V84H358.75V77ZM357 70V75.25H350V70H357ZM358.75 70H361.375L361.628 70.012C362.959 70.1392 364 71.2605 364 72.625V75.25H358.75V70ZM348.25 70V75.25H343V72.625L343.012 72.3722C343.139 71.0411 344.261 70 345.625 70H348.25ZM348.25 77V84H343V77H348.25Z" fill="#242424"/>
<path d="M387.383 87V75.7969H390.617C394.747 75.7969 396.812 77.6172 396.812 81.2578C396.812 82.987 396.24 84.3776 395.094 85.4297C393.948 86.4766 392.411 87 390.484 87H387.383ZM389.234 77.375V85.4297H390.719C392.026 85.4297 393.042 85.0703 393.766 84.3516C394.495 83.6328 394.859 82.6172 394.859 81.3047C394.859 78.6849 393.503 77.375 390.789 77.375H389.234ZM399.578 77.3203C399.281 77.3203 399.026 77.224 398.812 77.0312C398.604 76.8385 398.5 76.5938 398.5 76.2969C398.5 76 398.604 75.7526 398.812 75.5547C399.026 75.3568 399.281 75.2578 399.578 75.2578C399.885 75.2578 400.146 75.3568 400.359 75.5547C400.573 75.7526 400.68 76 400.68 76.2969C400.68 76.5781 400.573 76.8203 400.359 77.0234C400.146 77.2214 399.885 77.3203 399.578 77.3203ZM400.477 87H398.664V79H400.477V87ZM414.812 87H413V82.6406C413 81.8021 412.88 81.1953 412.641 80.8203C412.406 80.4453 412.008 80.2578 411.445 80.2578C410.971 80.2578 410.568 80.4948 410.234 80.9688C409.906 81.4427 409.742 82.0104 409.742 82.6719V87H407.922V82.4922C407.922 81.0026 407.396 80.2578 406.344 80.2578C405.854 80.2578 405.451 80.4818 405.133 80.9297C404.82 81.3776 404.664 81.9583 404.664 82.6719V87H402.852V79H404.664V80.2656H404.695C405.273 79.2969 406.115 78.8125 407.219 78.8125C407.771 78.8125 408.253 78.9661 408.664 79.2734C409.081 79.5755 409.365 79.974 409.516 80.4688C410.109 79.3646 410.995 78.8125 412.172 78.8125C413.932 78.8125 414.812 79.8984 414.812 82.0703V87ZM423.797 83.4922H418.344C418.365 84.2318 418.591 84.8021 419.023 85.2031C419.461 85.6042 420.06 85.8047 420.82 85.8047C421.674 85.8047 422.458 85.5495 423.172 85.0391V86.5C422.443 86.9583 421.479 87.1875 420.281 87.1875C419.104 87.1875 418.18 86.8255 417.508 86.1016C416.841 85.3724 416.508 84.349 416.508 83.0312C416.508 81.7865 416.875 80.7734 417.609 79.9922C418.349 79.2057 419.266 78.8125 420.359 78.8125C421.453 78.8125 422.299 79.1641 422.898 79.8672C423.497 80.5703 423.797 81.5469 423.797 82.7969V83.4922ZM422.047 82.2109C422.042 81.5599 421.888 81.0547 421.586 80.6953C421.284 80.3307 420.867 80.1484 420.336 80.1484C419.815 80.1484 419.372 80.3385 419.008 80.7188C418.648 81.099 418.427 81.5964 418.344 82.2109H422.047ZM432.648 87H430.836V82.4922C430.836 80.9974 430.307 80.25 429.25 80.25C428.698 80.25 428.242 80.4583 427.883 80.875C427.523 81.2865 427.344 81.8073 427.344 82.4375V87H425.523V79H427.344V80.3281H427.375C427.974 79.3177 428.839 78.8125 429.969 78.8125C430.839 78.8125 431.503 79.0964 431.961 79.6641C432.419 80.2266 432.648 81.0417 432.648 82.1094V87ZM434.367 86.75V85.0703C435.044 85.5859 435.792 85.8438 436.609 85.8438C437.703 85.8438 438.25 85.5208 438.25 84.875C438.25 84.6927 438.203 84.5391 438.109 84.4141C438.016 84.2839 437.888 84.1693 437.727 84.0703C437.57 83.9714 437.383 83.8828 437.164 83.8047C436.951 83.7266 436.711 83.638 436.445 83.5391C436.117 83.4089 435.82 83.2708 435.555 83.125C435.294 82.9792 435.076 82.8151 434.898 82.6328C434.727 82.4453 434.596 82.2344 434.508 82C434.419 81.7656 434.375 81.4922 434.375 81.1797C434.375 80.7943 434.466 80.4557 434.648 80.1641C434.831 79.8672 435.076 79.6198 435.383 79.4219C435.69 79.2188 436.039 79.0677 436.43 78.9688C436.82 78.8646 437.224 78.8125 437.641 78.8125C438.38 78.8125 439.042 78.9245 439.625 79.1484V80.7344C439.062 80.349 438.417 80.1562 437.688 80.1562C437.458 80.1562 437.25 80.1797 437.062 80.2266C436.88 80.2734 436.724 80.3385 436.594 80.4219C436.464 80.5052 436.362 80.6068 436.289 80.7266C436.216 80.8411 436.18 80.9688 436.18 81.1094C436.18 81.2812 436.216 81.4271 436.289 81.5469C436.362 81.6667 436.469 81.7734 436.609 81.8672C436.755 81.9557 436.927 82.0391 437.125 82.1172C437.328 82.1901 437.56 82.2708 437.82 82.3594C438.164 82.5 438.471 82.6432 438.742 82.7891C439.018 82.9349 439.253 83.1016 439.445 83.2891C439.638 83.4714 439.786 83.6849 439.891 83.9297C439.995 84.1693 440.047 84.4557 440.047 84.7891C440.047 85.1953 439.953 85.5495 439.766 85.8516C439.578 86.1536 439.328 86.4036 439.016 86.6016C438.703 86.7995 438.341 86.9453 437.93 87.0391C437.523 87.138 437.094 87.1875 436.641 87.1875C435.766 87.1875 435.008 87.0417 434.367 86.75ZM442.688 77.3203C442.391 77.3203 442.135 77.224 441.922 77.0312C441.714 76.8385 441.609 76.5938 441.609 76.2969C441.609 76 441.714 75.7526 441.922 75.5547C442.135 75.3568 442.391 75.2578 442.688 75.2578C442.995 75.2578 443.255 75.3568 443.469 75.5547C443.682 75.7526 443.789 76 443.789 76.2969C443.789 76.5781 443.682 76.8203 443.469 77.0234C443.255 77.2214 442.995 77.3203 442.688 77.3203ZM443.586 87H441.773V79H443.586V87ZM449.508 87.1875C448.273 87.1875 447.286 86.8151 446.547 86.0703C445.812 85.3203 445.445 84.3281 445.445 83.0938C445.445 81.75 445.828 80.7005 446.594 79.9453C447.365 79.1901 448.401 78.8125 449.703 78.8125C450.953 78.8125 451.927 79.1797 452.625 79.9141C453.323 80.6484 453.672 81.6667 453.672 82.9688C453.672 84.2448 453.294 85.2682 452.539 86.0391C451.789 86.8047 450.779 87.1875 449.508 87.1875ZM449.594 80.2578C448.885 80.2578 448.326 80.5052 447.914 81C447.503 81.4948 447.297 82.1771 447.297 83.0469C447.297 83.8854 447.505 84.5469 447.922 85.0312C448.339 85.5104 448.896 85.75 449.594 85.75C450.307 85.75 450.854 85.513 451.234 85.0391C451.62 84.5651 451.812 83.8906 451.812 83.0156C451.812 82.1354 451.62 81.4557 451.234 80.9766C450.854 80.4974 450.307 80.2578 449.594 80.2578ZM462.648 87H460.836V82.4922C460.836 80.9974 460.307 80.25 459.25 80.25C458.698 80.25 458.242 80.4583 457.883 80.875C457.523 81.2865 457.344 81.8073 457.344 82.4375V87H455.523V79H457.344V80.3281H457.375C457.974 79.3177 458.839 78.8125 459.969 78.8125C460.839 78.8125 461.503 79.0964 461.961 79.6641C462.419 80.2266 462.648 81.0417 462.648 82.1094V87ZM473.492 86.9141C473.138 87.0911 472.672 87.1797 472.094 87.1797C470.542 87.1797 469.766 86.4349 469.766 84.9453V80.4219H468.43V79H469.766V77.1484L471.578 76.6328V79H473.492V80.4219H471.578V84.4219C471.578 84.8958 471.664 85.2344 471.836 85.4375C472.008 85.6406 472.294 85.7422 472.695 85.7422C473.003 85.7422 473.268 85.6536 473.492 85.4766V86.9141ZM481.195 87H479.438V85.75H479.406C478.854 86.7083 478.044 87.1875 476.977 87.1875C476.19 87.1875 475.573 86.974 475.125 86.5469C474.682 86.1198 474.461 85.5547 474.461 84.8516C474.461 83.3411 475.331 82.4609 477.07 82.2109L479.445 81.875C479.445 80.7344 478.904 80.1641 477.82 80.1641C476.867 80.1641 476.008 80.4922 475.242 81.1484V79.5625C476.086 79.0625 477.06 78.8125 478.164 78.8125C480.185 78.8125 481.195 79.8073 481.195 81.7969V87ZM479.445 83.0703L477.766 83.3047C477.245 83.3724 476.852 83.5 476.586 83.6875C476.326 83.8698 476.195 84.1927 476.195 84.6562C476.195 84.9948 476.315 85.2734 476.555 85.4922C476.799 85.7057 477.125 85.8125 477.531 85.8125C478.083 85.8125 478.539 85.6198 478.898 85.2344C479.263 84.8438 479.445 84.3542 479.445 83.7656V83.0703ZM485.258 85.8438H485.227V87H483.414V75.1562H485.227V80.4062H485.258C485.878 79.3438 486.784 78.8125 487.977 78.8125C488.987 78.8125 489.776 79.1719 490.344 79.8906C490.917 80.6042 491.203 81.5625 491.203 82.7656C491.203 84.1042 490.883 85.1771 490.242 85.9844C489.602 86.7865 488.727 87.1875 487.617 87.1875C486.576 87.1875 485.789 86.7396 485.258 85.8438ZM485.211 82.6641V83.6562C485.211 84.2396 485.396 84.7344 485.766 85.1406C486.141 85.5469 486.615 85.75 487.188 85.75C487.859 85.75 488.385 85.4896 488.766 84.9688C489.151 84.4427 489.344 83.7109 489.344 82.7734C489.344 81.987 489.164 81.3724 488.805 80.9297C488.451 80.4818 487.969 80.2578 487.359 80.2578C486.714 80.2578 486.193 80.487 485.797 80.9453C485.406 81.4036 485.211 81.9766 485.211 82.6641ZM494.875 87H493.055V75.1562H494.875V87ZM504.016 83.4922H498.562C498.583 84.2318 498.81 84.8021 499.242 85.2031C499.68 85.6042 500.279 85.8047 501.039 85.8047C501.893 85.8047 502.677 85.5495 503.391 85.0391V86.5C502.661 86.9583 501.698 87.1875 500.5 87.1875C499.323 87.1875 498.398 86.8255 497.727 86.1016C497.06 85.3724 496.727 84.349 496.727 83.0312C496.727 81.7865 497.094 80.7734 497.828 79.9922C498.568 79.2057 499.484 78.8125 500.578 78.8125C501.672 78.8125 502.518 79.1641 503.117 79.8672C503.716 80.5703 504.016 81.5469 504.016 82.7969V83.4922ZM502.266 82.2109C502.26 81.5599 502.107 81.0547 501.805 80.6953C501.503 80.3307 501.086 80.1484 500.555 80.1484C500.034 80.1484 499.591 80.3385 499.227 80.7188C498.867 81.099 498.646 81.5964 498.562 82.2109H502.266Z" fill="#333333"/>
<path d="M425.164 213.66L421.953 214.094L424.25 216.566L422.117 218.031L420.512 215.055L418.906 218.031L416.762 216.566L419.07 214.094L415.859 213.66L416.691 211.293L419.645 212.559L419.141 209.195H421.883L421.379 212.559L424.309 211.293L425.164 213.66Z" fill="#5A409C"/>
<path d="M504.164 274.66L500.953 275.094L503.25 277.566L501.117 279.031L499.512 276.055L497.906 279.031L495.762 277.566L498.07 275.094L494.859 274.66L495.691 272.293L498.645 273.559L498.141 270.195H500.883L500.379 273.559L503.309 272.293L504.164 274.66Z" fill="#5A409C"/>
<path d="M469.164 353.66L465.953 354.094L468.25 356.566L466.117 358.031L464.512 355.055L462.906 358.031L460.762 356.566L463.07 354.094L459.859 353.66L460.691 351.293L463.645 352.559L463.141 349.195H465.883L465.379 352.559L468.309 351.293L469.164 353.66Z" fill="#5A409C"/>
<path d="M344.164 270.66L340.953 271.094L343.25 273.566L341.117 275.031L339.512 272.055L337.906 275.031L335.762 273.566L338.07 271.094L334.859 270.66L335.691 268.293L338.645 269.559L338.141 266.195H340.883L340.379 269.559L343.309 268.293L344.164 270.66Z" fill="#5A409C"/>
<path d="M384.164 353.66L380.953 354.094L383.25 356.566L381.117 358.031L379.512 355.055L377.906 358.031L375.762 356.566L378.07 354.094L374.859 353.66L375.691 351.293L378.645 352.559L378.141 349.195H380.883L380.379 352.559L383.309 351.293L384.164 353.66Z" fill="#5A409C"/>
<path d="M422.848 148.82V166H419.156V152.992C418.953 153.172 418.711 153.344 418.43 153.508C418.156 153.664 417.863 153.809 417.551 153.941C417.238 154.066 416.914 154.176 416.578 154.27C416.242 154.355 415.91 154.418 415.582 154.457V151.34C416.543 151.059 417.449 150.699 418.301 150.262C419.152 149.824 419.922 149.344 420.609 148.82H422.848Z" fill="#5A409C"/>
<path d="M558.848 239.82V257H555.156V243.992C554.953 244.172 554.711 244.344 554.43 244.508C554.156 244.664 553.863 244.809 553.551 244.941C553.238 245.066 552.914 245.176 552.578 245.27C552.242 245.355 551.91 245.418 551.582 245.457V242.34C552.543 242.059 553.449 241.699 554.301 241.262C555.152 240.824 555.922 240.344 556.609 239.82H558.848Z" fill="#5A409C"/>
<path d="M277.848 239.82V257H274.156V243.992C273.953 244.172 273.711 244.344 273.43 244.508C273.156 244.664 272.863 244.809 272.551 244.941C272.238 245.066 271.914 245.176 271.578 245.27C271.242 245.355 270.91 245.418 270.582 245.457V242.34C271.543 242.059 272.449 241.699 273.301 241.262C274.152 240.824 274.922 240.344 275.609 239.82H277.848Z" fill="#5A409C"/>
<path d="M342.848 395.82V413H339.156V399.992C338.953 400.172 338.711 400.344 338.43 400.508C338.156 400.664 337.863 400.809 337.551 400.941C337.238 401.066 336.914 401.176 336.578 401.27C336.242 401.355 335.91 401.418 335.582 401.457V398.34C336.543 398.059 337.449 397.699 338.301 397.262C339.152 396.824 339.922 396.344 340.609 395.82H342.848Z" fill="#5A409C"/>
<path d="M504.848 395.82V413H501.156V399.992C500.953 400.172 500.711 400.344 500.43 400.508C500.156 400.664 499.863 400.809 499.551 400.941C499.238 401.066 498.914 401.176 498.578 401.27C498.242 401.355 497.91 401.418 497.582 401.457V398.34C498.543 398.059 499.449 397.699 500.301 397.262C501.152 396.824 501.922 396.344 502.609 395.82H504.848Z" fill="#5A409C"/>
<path d="M150.75 445C150.75 436.578 157.578 429.75 166 429.75H334C342.422 429.75 349.25 436.578 349.25 445V474C349.25 482.422 342.422 489.25 334 489.25H166C157.578 489.25 150.75 482.422 150.75 474V445Z" fill="white"/>
<path d="M150.75 445C150.75 436.578 157.578 429.75 166 429.75H334C342.422 429.75 349.25 436.578 349.25 445V474C349.25 482.422 342.422 489.25 334 489.25H166C157.578 489.25 150.75 482.422 150.75 474V445Z" stroke="#E1E1E1" stroke-width="1.5"/>
<path d="M194.75 451.625C194.75 449.209 192.791 447.25 190.375 447.25H174.625C172.209 447.25 170.25 449.209 170.25 451.625V467.375C170.25 469.791 172.209 471.75 174.625 471.75H190.375C192.791 471.75 194.75 469.791 194.75 467.375V451.625ZM172 467.375V464.75H177.25V470H174.625L174.372 469.988C173.041 469.861 172 468.739 172 467.375ZM186 464.75V470H179V464.75H186ZM190.375 470H187.75V464.75H193V467.375L192.988 467.628C192.861 468.959 191.739 470 190.375 470ZM186 456V463H179V456H186ZM187.75 456H193V463H187.75V456ZM186 449V454.25H179V449H186ZM187.75 449H190.375L190.628 449.012C191.959 449.139 193 450.261 193 451.625V454.25H187.75V449ZM177.25 449V454.25H172V451.625L172.012 451.372C172.139 450.041 173.261 449 174.625 449H177.25ZM177.25 456V463H172V456H177.25Z" fill="#242424"/>
<path d="M216.383 466V454.797H219.617C223.747 454.797 225.812 456.617 225.812 460.258C225.812 461.987 225.24 463.378 224.094 464.43C222.948 465.477 221.411 466 219.484 466H216.383ZM218.234 456.375V464.43H219.719C221.026 464.43 222.042 464.07 222.766 463.352C223.495 462.633 223.859 461.617 223.859 460.305C223.859 457.685 222.503 456.375 219.789 456.375H218.234ZM228.578 456.32C228.281 456.32 228.026 456.224 227.812 456.031C227.604 455.839 227.5 455.594 227.5 455.297C227.5 455 227.604 454.753 227.812 454.555C228.026 454.357 228.281 454.258 228.578 454.258C228.885 454.258 229.146 454.357 229.359 454.555C229.573 454.753 229.68 455 229.68 455.297C229.68 455.578 229.573 455.82 229.359 456.023C229.146 456.221 228.885 456.32 228.578 456.32ZM229.477 466H227.664V458H229.477V466ZM243.812 466H242V461.641C242 460.802 241.88 460.195 241.641 459.82C241.406 459.445 241.008 459.258 240.445 459.258C239.971 459.258 239.568 459.495 239.234 459.969C238.906 460.443 238.742 461.01 238.742 461.672V466H236.922V461.492C236.922 460.003 236.396 459.258 235.344 459.258C234.854 459.258 234.451 459.482 234.133 459.93C233.82 460.378 233.664 460.958 233.664 461.672V466H231.852V458H233.664V459.266H233.695C234.273 458.297 235.115 457.812 236.219 457.812C236.771 457.812 237.253 457.966 237.664 458.273C238.081 458.576 238.365 458.974 238.516 459.469C239.109 458.365 239.995 457.812 241.172 457.812C242.932 457.812 243.812 458.898 243.812 461.07V466ZM252.797 462.492H247.344C247.365 463.232 247.591 463.802 248.023 464.203C248.461 464.604 249.06 464.805 249.82 464.805C250.674 464.805 251.458 464.549 252.172 464.039V465.5C251.443 465.958 250.479 466.188 249.281 466.188C248.104 466.188 247.18 465.826 246.508 465.102C245.841 464.372 245.508 463.349 245.508 462.031C245.508 460.786 245.875 459.773 246.609 458.992C247.349 458.206 248.266 457.812 249.359 457.812C250.453 457.812 251.299 458.164 251.898 458.867C252.497 459.57 252.797 460.547 252.797 461.797V462.492ZM251.047 461.211C251.042 460.56 250.888 460.055 250.586 459.695C250.284 459.331 249.867 459.148 249.336 459.148C248.815 459.148 248.372 459.339 248.008 459.719C247.648 460.099 247.427 460.596 247.344 461.211H251.047ZM261.648 466H259.836V461.492C259.836 459.997 259.307 459.25 258.25 459.25C257.698 459.25 257.242 459.458 256.883 459.875C256.523 460.286 256.344 460.807 256.344 461.438V466H254.523V458H256.344V459.328H256.375C256.974 458.318 257.839 457.812 258.969 457.812C259.839 457.812 260.503 458.096 260.961 458.664C261.419 459.227 261.648 460.042 261.648 461.109V466ZM263.367 465.75V464.07C264.044 464.586 264.792 464.844 265.609 464.844C266.703 464.844 267.25 464.521 267.25 463.875C267.25 463.693 267.203 463.539 267.109 463.414C267.016 463.284 266.888 463.169 266.727 463.07C266.57 462.971 266.383 462.883 266.164 462.805C265.951 462.727 265.711 462.638 265.445 462.539C265.117 462.409 264.82 462.271 264.555 462.125C264.294 461.979 264.076 461.815 263.898 461.633C263.727 461.445 263.596 461.234 263.508 461C263.419 460.766 263.375 460.492 263.375 460.18C263.375 459.794 263.466 459.456 263.648 459.164C263.831 458.867 264.076 458.62 264.383 458.422C264.69 458.219 265.039 458.068 265.43 457.969C265.82 457.865 266.224 457.812 266.641 457.812C267.38 457.812 268.042 457.924 268.625 458.148V459.734C268.062 459.349 267.417 459.156 266.688 459.156C266.458 459.156 266.25 459.18 266.062 459.227C265.88 459.273 265.724 459.339 265.594 459.422C265.464 459.505 265.362 459.607 265.289 459.727C265.216 459.841 265.18 459.969 265.18 460.109C265.18 460.281 265.216 460.427 265.289 460.547C265.362 460.667 265.469 460.773 265.609 460.867C265.755 460.956 265.927 461.039 266.125 461.117C266.328 461.19 266.56 461.271 266.82 461.359C267.164 461.5 267.471 461.643 267.742 461.789C268.018 461.935 268.253 462.102 268.445 462.289C268.638 462.471 268.786 462.685 268.891 462.93C268.995 463.169 269.047 463.456 269.047 463.789C269.047 464.195 268.953 464.549 268.766 464.852C268.578 465.154 268.328 465.404 268.016 465.602C267.703 465.799 267.341 465.945 266.93 466.039C266.523 466.138 266.094 466.188 265.641 466.188C264.766 466.188 264.008 466.042 263.367 465.75ZM271.688 456.32C271.391 456.32 271.135 456.224 270.922 456.031C270.714 455.839 270.609 455.594 270.609 455.297C270.609 455 270.714 454.753 270.922 454.555C271.135 454.357 271.391 454.258 271.688 454.258C271.995 454.258 272.255 454.357 272.469 454.555C272.682 454.753 272.789 455 272.789 455.297C272.789 455.578 272.682 455.82 272.469 456.023C272.255 456.221 271.995 456.32 271.688 456.32ZM272.586 466H270.773V458H272.586V466ZM278.508 466.188C277.273 466.188 276.286 465.815 275.547 465.07C274.812 464.32 274.445 463.328 274.445 462.094C274.445 460.75 274.828 459.701 275.594 458.945C276.365 458.19 277.401 457.812 278.703 457.812C279.953 457.812 280.927 458.18 281.625 458.914C282.323 459.648 282.672 460.667 282.672 461.969C282.672 463.245 282.294 464.268 281.539 465.039C280.789 465.805 279.779 466.188 278.508 466.188ZM278.594 459.258C277.885 459.258 277.326 459.505 276.914 460C276.503 460.495 276.297 461.177 276.297 462.047C276.297 462.885 276.505 463.547 276.922 464.031C277.339 464.51 277.896 464.75 278.594 464.75C279.307 464.75 279.854 464.513 280.234 464.039C280.62 463.565 280.812 462.891 280.812 462.016C280.812 461.135 280.62 460.456 280.234 459.977C279.854 459.497 279.307 459.258 278.594 459.258ZM291.648 466H289.836V461.492C289.836 459.997 289.307 459.25 288.25 459.25C287.698 459.25 287.242 459.458 286.883 459.875C286.523 460.286 286.344 460.807 286.344 461.438V466H284.523V458H286.344V459.328H286.375C286.974 458.318 287.839 457.812 288.969 457.812C289.839 457.812 290.503 458.096 290.961 458.664C291.419 459.227 291.648 460.042 291.648 461.109V466ZM302.492 465.914C302.138 466.091 301.672 466.18 301.094 466.18C299.542 466.18 298.766 465.435 298.766 463.945V459.422H297.43V458H298.766V456.148L300.578 455.633V458H302.492V459.422H300.578V463.422C300.578 463.896 300.664 464.234 300.836 464.438C301.008 464.641 301.294 464.742 301.695 464.742C302.003 464.742 302.268 464.654 302.492 464.477V465.914ZM310.195 466H308.438V464.75H308.406C307.854 465.708 307.044 466.188 305.977 466.188C305.19 466.188 304.573 465.974 304.125 465.547C303.682 465.12 303.461 464.555 303.461 463.852C303.461 462.341 304.331 461.461 306.07 461.211L308.445 460.875C308.445 459.734 307.904 459.164 306.82 459.164C305.867 459.164 305.008 459.492 304.242 460.148V458.562C305.086 458.062 306.06 457.812 307.164 457.812C309.185 457.812 310.195 458.807 310.195 460.797V466ZM308.445 462.07L306.766 462.305C306.245 462.372 305.852 462.5 305.586 462.688C305.326 462.87 305.195 463.193 305.195 463.656C305.195 463.995 305.315 464.273 305.555 464.492C305.799 464.706 306.125 464.812 306.531 464.812C307.083 464.812 307.539 464.62 307.898 464.234C308.263 463.844 308.445 463.354 308.445 462.766V462.07ZM314.258 464.844H314.227V466H312.414V454.156H314.227V459.406H314.258C314.878 458.344 315.784 457.812 316.977 457.812C317.987 457.812 318.776 458.172 319.344 458.891C319.917 459.604 320.203 460.562 320.203 461.766C320.203 463.104 319.883 464.177 319.242 464.984C318.602 465.786 317.727 466.188 316.617 466.188C315.576 466.188 314.789 465.74 314.258 464.844ZM314.211 461.664V462.656C314.211 463.24 314.396 463.734 314.766 464.141C315.141 464.547 315.615 464.75 316.188 464.75C316.859 464.75 317.385 464.49 317.766 463.969C318.151 463.443 318.344 462.711 318.344 461.773C318.344 460.987 318.164 460.372 317.805 459.93C317.451 459.482 316.969 459.258 316.359 459.258C315.714 459.258 315.193 459.487 314.797 459.945C314.406 460.404 314.211 460.977 314.211 461.664ZM323.875 466H322.055V454.156H323.875V466ZM333.016 462.492H327.562C327.583 463.232 327.81 463.802 328.242 464.203C328.68 464.604 329.279 464.805 330.039 464.805C330.893 464.805 331.677 464.549 332.391 464.039V465.5C331.661 465.958 330.698 466.188 329.5 466.188C328.323 466.188 327.398 465.826 326.727 465.102C326.06 464.372 325.727 463.349 325.727 462.031C325.727 460.786 326.094 459.773 326.828 458.992C327.568 458.206 328.484 457.812 329.578 457.812C330.672 457.812 331.518 458.164 332.117 458.867C332.716 459.57 333.016 460.547 333.016 461.797V462.492ZM331.266 461.211C331.26 460.56 331.107 460.055 330.805 459.695C330.503 459.331 330.086 459.148 329.555 459.148C329.034 459.148 328.591 459.339 328.227 459.719C327.867 460.099 327.646 460.596 327.562 461.211H331.266Z" fill="#333333"/>
<path d="M492.75 445C492.75 436.578 499.578 429.75 508 429.75H676C684.422 429.75 691.25 436.578 691.25 445V474C691.25 482.422 684.422 489.25 676 489.25H508C499.578 489.25 492.75 482.422 492.75 474V445Z" fill="white"/>
<path d="M492.75 445C492.75 436.578 499.578 429.75 508 429.75H676C684.422 429.75 691.25 436.578 691.25 445V474C691.25 482.422 684.422 489.25 676 489.25H508C499.578 489.25 492.75 482.422 492.75 474V445Z" stroke="#E1E1E1" stroke-width="1.5"/>
<path d="M536.75 451.625C536.75 449.209 534.791 447.25 532.375 447.25H516.625C514.209 447.25 512.25 449.209 512.25 451.625V467.375C512.25 469.791 514.209 471.75 516.625 471.75H532.375C534.791 471.75 536.75 469.791 536.75 467.375V451.625ZM514 467.375V464.75H519.25V470H516.625L516.372 469.988C515.041 469.861 514 468.739 514 467.375ZM528 464.75V470H521V464.75H528ZM532.375 470H529.75V464.75H535V467.375L534.988 467.628C534.861 468.959 533.739 470 532.375 470ZM528 456V463H521V456H528ZM529.75 456H535V463H529.75V456ZM528 449V454.25H521V449H528ZM529.75 449H532.375L532.628 449.012C533.959 449.139 535 450.261 535 451.625V454.25H529.75V449ZM519.25 449V454.25H514V451.625L514.012 451.372C514.139 450.041 515.261 449 516.625 449H519.25ZM519.25 456V463H514V456H519.25Z" fill="#242424"/>
<path d="M558.383 466V454.797H561.617C565.747 454.797 567.812 456.617 567.812 460.258C567.812 461.987 567.24 463.378 566.094 464.43C564.948 465.477 563.411 466 561.484 466H558.383ZM560.234 456.375V464.43H561.719C563.026 464.43 564.042 464.07 564.766 463.352C565.495 462.633 565.859 461.617 565.859 460.305C565.859 457.685 564.503 456.375 561.789 456.375H560.234ZM570.578 456.32C570.281 456.32 570.026 456.224 569.812 456.031C569.604 455.839 569.5 455.594 569.5 455.297C569.5 455 569.604 454.753 569.812 454.555C570.026 454.357 570.281 454.258 570.578 454.258C570.885 454.258 571.146 454.357 571.359 454.555C571.573 454.753 571.68 455 571.68 455.297C571.68 455.578 571.573 455.82 571.359 456.023C571.146 456.221 570.885 456.32 570.578 456.32ZM571.477 466H569.664V458H571.477V466ZM585.812 466H584V461.641C584 460.802 583.88 460.195 583.641 459.82C583.406 459.445 583.008 459.258 582.445 459.258C581.971 459.258 581.568 459.495 581.234 459.969C580.906 460.443 580.742 461.01 580.742 461.672V466H578.922V461.492C578.922 460.003 578.396 459.258 577.344 459.258C576.854 459.258 576.451 459.482 576.133 459.93C575.82 460.378 575.664 460.958 575.664 461.672V466H573.852V458H575.664V459.266H575.695C576.273 458.297 577.115 457.812 578.219 457.812C578.771 457.812 579.253 457.966 579.664 458.273C580.081 458.576 580.365 458.974 580.516 459.469C581.109 458.365 581.995 457.812 583.172 457.812C584.932 457.812 585.812 458.898 585.812 461.07V466ZM594.797 462.492H589.344C589.365 463.232 589.591 463.802 590.023 464.203C590.461 464.604 591.06 464.805 591.82 464.805C592.674 464.805 593.458 464.549 594.172 464.039V465.5C593.443 465.958 592.479 466.188 591.281 466.188C590.104 466.188 589.18 465.826 588.508 465.102C587.841 464.372 587.508 463.349 587.508 462.031C587.508 460.786 587.875 459.773 588.609 458.992C589.349 458.206 590.266 457.812 591.359 457.812C592.453 457.812 593.299 458.164 593.898 458.867C594.497 459.57 594.797 460.547 594.797 461.797V462.492ZM593.047 461.211C593.042 460.56 592.888 460.055 592.586 459.695C592.284 459.331 591.867 459.148 591.336 459.148C590.815 459.148 590.372 459.339 590.008 459.719C589.648 460.099 589.427 460.596 589.344 461.211H593.047ZM603.648 466H601.836V461.492C601.836 459.997 601.307 459.25 600.25 459.25C599.698 459.25 599.242 459.458 598.883 459.875C598.523 460.286 598.344 460.807 598.344 461.438V466H596.523V458H598.344V459.328H598.375C598.974 458.318 599.839 457.812 600.969 457.812C601.839 457.812 602.503 458.096 602.961 458.664C603.419 459.227 603.648 460.042 603.648 461.109V466ZM605.367 465.75V464.07C606.044 464.586 606.792 464.844 607.609 464.844C608.703 464.844 609.25 464.521 609.25 463.875C609.25 463.693 609.203 463.539 609.109 463.414C609.016 463.284 608.888 463.169 608.727 463.07C608.57 462.971 608.383 462.883 608.164 462.805C607.951 462.727 607.711 462.638 607.445 462.539C607.117 462.409 606.82 462.271 606.555 462.125C606.294 461.979 606.076 461.815 605.898 461.633C605.727 461.445 605.596 461.234 605.508 461C605.419 460.766 605.375 460.492 605.375 460.18C605.375 459.794 605.466 459.456 605.648 459.164C605.831 458.867 606.076 458.62 606.383 458.422C606.69 458.219 607.039 458.068 607.43 457.969C607.82 457.865 608.224 457.812 608.641 457.812C609.38 457.812 610.042 457.924 610.625 458.148V459.734C610.062 459.349 609.417 459.156 608.688 459.156C608.458 459.156 608.25 459.18 608.062 459.227C607.88 459.273 607.724 459.339 607.594 459.422C607.464 459.505 607.362 459.607 607.289 459.727C607.216 459.841 607.18 459.969 607.18 460.109C607.18 460.281 607.216 460.427 607.289 460.547C607.362 460.667 607.469 460.773 607.609 460.867C607.755 460.956 607.927 461.039 608.125 461.117C608.328 461.19 608.56 461.271 608.82 461.359C609.164 461.5 609.471 461.643 609.742 461.789C610.018 461.935 610.253 462.102 610.445 462.289C610.638 462.471 610.786 462.685 610.891 462.93C610.995 463.169 611.047 463.456 611.047 463.789C611.047 464.195 610.953 464.549 610.766 464.852C610.578 465.154 610.328 465.404 610.016 465.602C609.703 465.799 609.341 465.945 608.93 466.039C608.523 466.138 608.094 466.188 607.641 466.188C606.766 466.188 606.008 466.042 605.367 465.75ZM613.688 456.32C613.391 456.32 613.135 456.224 612.922 456.031C612.714 455.839 612.609 455.594 612.609 455.297C612.609 455 612.714 454.753 612.922 454.555C613.135 454.357 613.391 454.258 613.688 454.258C613.995 454.258 614.255 454.357 614.469 454.555C614.682 454.753 614.789 455 614.789 455.297C614.789 455.578 614.682 455.82 614.469 456.023C614.255 456.221 613.995 456.32 613.688 456.32ZM614.586 466H612.773V458H614.586V466ZM620.508 466.188C619.273 466.188 618.286 465.815 617.547 465.07C616.812 464.32 616.445 463.328 616.445 462.094C616.445 460.75 616.828 459.701 617.594 458.945C618.365 458.19 619.401 457.812 620.703 457.812C621.953 457.812 622.927 458.18 623.625 458.914C624.323 459.648 624.672 460.667 624.672 461.969C624.672 463.245 624.294 464.268 623.539 465.039C622.789 465.805 621.779 466.188 620.508 466.188ZM620.594 459.258C619.885 459.258 619.326 459.505 618.914 460C618.503 460.495 618.297 461.177 618.297 462.047C618.297 462.885 618.505 463.547 618.922 464.031C619.339 464.51 619.896 464.75 620.594 464.75C621.307 464.75 621.854 464.513 622.234 464.039C622.62 463.565 622.812 462.891 622.812 462.016C622.812 461.135 622.62 460.456 622.234 459.977C621.854 459.497 621.307 459.258 620.594 459.258ZM633.648 466H631.836V461.492C631.836 459.997 631.307 459.25 630.25 459.25C629.698 459.25 629.242 459.458 628.883 459.875C628.523 460.286 628.344 460.807 628.344 461.438V466H626.523V458H628.344V459.328H628.375C628.974 458.318 629.839 457.812 630.969 457.812C631.839 457.812 632.503 458.096 632.961 458.664C633.419 459.227 633.648 460.042 633.648 461.109V466ZM644.492 465.914C644.138 466.091 643.672 466.18 643.094 466.18C641.542 466.18 640.766 465.435 640.766 463.945V459.422H639.43V458H640.766V456.148L642.578 455.633V458H644.492V459.422H642.578V463.422C642.578 463.896 642.664 464.234 642.836 464.438C643.008 464.641 643.294 464.742 643.695 464.742C644.003 464.742 644.268 464.654 644.492 464.477V465.914ZM652.195 466H650.438V464.75H650.406C649.854 465.708 649.044 466.188 647.977 466.188C647.19 466.188 646.573 465.974 646.125 465.547C645.682 465.12 645.461 464.555 645.461 463.852C645.461 462.341 646.331 461.461 648.07 461.211L650.445 460.875C650.445 459.734 649.904 459.164 648.82 459.164C647.867 459.164 647.008 459.492 646.242 460.148V458.562C647.086 458.062 648.06 457.812 649.164 457.812C651.185 457.812 652.195 458.807 652.195 460.797V466ZM650.445 462.07L648.766 462.305C648.245 462.372 647.852 462.5 647.586 462.688C647.326 462.87 647.195 463.193 647.195 463.656C647.195 463.995 647.315 464.273 647.555 464.492C647.799 464.706 648.125 464.812 648.531 464.812C649.083 464.812 649.539 464.62 649.898 464.234C650.263 463.844 650.445 463.354 650.445 462.766V462.07ZM656.258 464.844H656.227V466H654.414V454.156H656.227V459.406H656.258C656.878 458.344 657.784 457.812 658.977 457.812C659.987 457.812 660.776 458.172 661.344 458.891C661.917 459.604 662.203 460.562 662.203 461.766C662.203 463.104 661.883 464.177 661.242 464.984C660.602 465.786 659.727 466.188 658.617 466.188C657.576 466.188 656.789 465.74 656.258 464.844ZM656.211 461.664V462.656C656.211 463.24 656.396 463.734 656.766 464.141C657.141 464.547 657.615 464.75 658.188 464.75C658.859 464.75 659.385 464.49 659.766 463.969C660.151 463.443 660.344 462.711 660.344 461.773C660.344 460.987 660.164 460.372 659.805 459.93C659.451 459.482 658.969 459.258 658.359 459.258C657.714 459.258 657.193 459.487 656.797 459.945C656.406 460.404 656.211 460.977 656.211 461.664ZM665.875 466H664.055V454.156H665.875V466ZM675.016 462.492H669.562C669.583 463.232 669.81 463.802 670.242 464.203C670.68 464.604 671.279 464.805 672.039 464.805C672.893 464.805 673.677 464.549 674.391 464.039V465.5C673.661 465.958 672.698 466.188 671.5 466.188C670.323 466.188 669.398 465.826 668.727 465.102C668.06 464.372 667.727 463.349 667.727 462.031C667.727 460.786 668.094 459.773 668.828 458.992C669.568 458.206 670.484 457.812 671.578 457.812C672.672 457.812 673.518 458.164 674.117 458.867C674.716 459.57 675.016 460.547 675.016 461.797V462.492ZM673.266 461.211C673.26 460.56 673.107 460.055 672.805 459.695C672.503 459.331 672.086 459.148 671.555 459.148C671.034 459.148 670.591 459.339 670.227 459.719C669.867 460.099 669.646 460.596 669.562 461.211H673.266Z" fill="#333333"/>
<path d="M592.75 221C592.75 212.578 599.578 205.75 608 205.75H776C784.422 205.75 791.25 212.578 791.25 221V250C791.25 258.422 784.422 265.25 776 265.25H608C599.578 265.25 592.75 258.422 592.75 250V221Z" fill="white"/>
<path d="M592.75 221C592.75 212.578 599.578 205.75 608 205.75H776C784.422 205.75 791.25 212.578 791.25 221V250C791.25 258.422 784.422 265.25 776 265.25H608C599.578 265.25 592.75 258.422 592.75 250V221Z" stroke="#E1E1E1" stroke-width="1.5"/>
<path d="M636.75 227.625C636.75 225.209 634.791 223.25 632.375 223.25H616.625C614.209 223.25 612.25 225.209 612.25 227.625V243.375C612.25 245.791 614.209 247.75 616.625 247.75H632.375C634.791 247.75 636.75 245.791 636.75 243.375V227.625ZM614 243.375V240.75H619.25V246H616.625L616.372 245.988C615.041 245.861 614 244.739 614 243.375ZM628 240.75V246H621V240.75H628ZM632.375 246H629.75V240.75H635V243.375L634.988 243.628C634.861 244.959 633.739 246 632.375 246ZM628 232V239H621V232H628ZM629.75 232H635V239H629.75V232ZM628 225V230.25H621V225H628ZM629.75 225H632.375L632.628 225.012C633.959 225.139 635 226.261 635 227.625V230.25H629.75V225ZM619.25 225V230.25H614V227.625L614.012 227.372C614.139 226.041 615.261 225 616.625 225H619.25ZM619.25 232V239H614V232H619.25Z" fill="#242424"/>
<path d="M658.383 242V230.797H661.617C665.747 230.797 667.812 232.617 667.812 236.258C667.812 237.987 667.24 239.378 666.094 240.43C664.948 241.477 663.411 242 661.484 242H658.383ZM660.234 232.375V240.43H661.719C663.026 240.43 664.042 240.07 664.766 239.352C665.495 238.633 665.859 237.617 665.859 236.305C665.859 233.685 664.503 232.375 661.789 232.375H660.234ZM670.578 232.32C670.281 232.32 670.026 232.224 669.812 232.031C669.604 231.839 669.5 231.594 669.5 231.297C669.5 231 669.604 230.753 669.812 230.555C670.026 230.357 670.281 230.258 670.578 230.258C670.885 230.258 671.146 230.357 671.359 230.555C671.573 230.753 671.68 231 671.68 231.297C671.68 231.578 671.573 231.82 671.359 232.023C671.146 232.221 670.885 232.32 670.578 232.32ZM671.477 242H669.664V234H671.477V242ZM685.812 242H684V237.641C684 236.802 683.88 236.195 683.641 235.82C683.406 235.445 683.008 235.258 682.445 235.258C681.971 235.258 681.568 235.495 681.234 235.969C680.906 236.443 680.742 237.01 680.742 237.672V242H678.922V237.492C678.922 236.003 678.396 235.258 677.344 235.258C676.854 235.258 676.451 235.482 676.133 235.93C675.82 236.378 675.664 236.958 675.664 237.672V242H673.852V234H675.664V235.266H675.695C676.273 234.297 677.115 233.812 678.219 233.812C678.771 233.812 679.253 233.966 679.664 234.273C680.081 234.576 680.365 234.974 680.516 235.469C681.109 234.365 681.995 233.812 683.172 233.812C684.932 233.812 685.812 234.898 685.812 237.07V242ZM694.797 238.492H689.344C689.365 239.232 689.591 239.802 690.023 240.203C690.461 240.604 691.06 240.805 691.82 240.805C692.674 240.805 693.458 240.549 694.172 240.039V241.5C693.443 241.958 692.479 242.188 691.281 242.188C690.104 242.188 689.18 241.826 688.508 241.102C687.841 240.372 687.508 239.349 687.508 238.031C687.508 236.786 687.875 235.773 688.609 234.992C689.349 234.206 690.266 233.812 691.359 233.812C692.453 233.812 693.299 234.164 693.898 234.867C694.497 235.57 694.797 236.547 694.797 237.797V238.492ZM693.047 237.211C693.042 236.56 692.888 236.055 692.586 235.695C692.284 235.331 691.867 235.148 691.336 235.148C690.815 235.148 690.372 235.339 690.008 235.719C689.648 236.099 689.427 236.596 689.344 237.211H693.047ZM703.648 242H701.836V237.492C701.836 235.997 701.307 235.25 700.25 235.25C699.698 235.25 699.242 235.458 698.883 235.875C698.523 236.286 698.344 236.807 698.344 237.438V242H696.523V234H698.344V235.328H698.375C698.974 234.318 699.839 233.812 700.969 233.812C701.839 233.812 702.503 234.096 702.961 234.664C703.419 235.227 703.648 236.042 703.648 237.109V242ZM705.367 241.75V240.07C706.044 240.586 706.792 240.844 707.609 240.844C708.703 240.844 709.25 240.521 709.25 239.875C709.25 239.693 709.203 239.539 709.109 239.414C709.016 239.284 708.888 239.169 708.727 239.07C708.57 238.971 708.383 238.883 708.164 238.805C707.951 238.727 707.711 238.638 707.445 238.539C707.117 238.409 706.82 238.271 706.555 238.125C706.294 237.979 706.076 237.815 705.898 237.633C705.727 237.445 705.596 237.234 705.508 237C705.419 236.766 705.375 236.492 705.375 236.18C705.375 235.794 705.466 235.456 705.648 235.164C705.831 234.867 706.076 234.62 706.383 234.422C706.69 234.219 707.039 234.068 707.43 233.969C707.82 233.865 708.224 233.812 708.641 233.812C709.38 233.812 710.042 233.924 710.625 234.148V235.734C710.062 235.349 709.417 235.156 708.688 235.156C708.458 235.156 708.25 235.18 708.062 235.227C707.88 235.273 707.724 235.339 707.594 235.422C707.464 235.505 707.362 235.607 707.289 235.727C707.216 235.841 707.18 235.969 707.18 236.109C707.18 236.281 707.216 236.427 707.289 236.547C707.362 236.667 707.469 236.773 707.609 236.867C707.755 236.956 707.927 237.039 708.125 237.117C708.328 237.19 708.56 237.271 708.82 237.359C709.164 237.5 709.471 237.643 709.742 237.789C710.018 237.935 710.253 238.102 710.445 238.289C710.638 238.471 710.786 238.685 710.891 238.93C710.995 239.169 711.047 239.456 711.047 239.789C711.047 240.195 710.953 240.549 710.766 240.852C710.578 241.154 710.328 241.404 710.016 241.602C709.703 241.799 709.341 241.945 708.93 242.039C708.523 242.138 708.094 242.188 707.641 242.188C706.766 242.188 706.008 242.042 705.367 241.75ZM713.688 232.32C713.391 232.32 713.135 232.224 712.922 232.031C712.714 231.839 712.609 231.594 712.609 231.297C712.609 231 712.714 230.753 712.922 230.555C713.135 230.357 713.391 230.258 713.688 230.258C713.995 230.258 714.255 230.357 714.469 230.555C714.682 230.753 714.789 231 714.789 231.297C714.789 231.578 714.682 231.82 714.469 232.023C714.255 232.221 713.995 232.32 713.688 232.32ZM714.586 242H712.773V234H714.586V242ZM720.508 242.188C719.273 242.188 718.286 241.815 717.547 241.07C716.812 240.32 716.445 239.328 716.445 238.094C716.445 236.75 716.828 235.701 717.594 234.945C718.365 234.19 719.401 233.812 720.703 233.812C721.953 233.812 722.927 234.18 723.625 234.914C724.323 235.648 724.672 236.667 724.672 237.969C724.672 239.245 724.294 240.268 723.539 241.039C722.789 241.805 721.779 242.188 720.508 242.188ZM720.594 235.258C719.885 235.258 719.326 235.505 718.914 236C718.503 236.495 718.297 237.177 718.297 238.047C718.297 238.885 718.505 239.547 718.922 240.031C719.339 240.51 719.896 240.75 720.594 240.75C721.307 240.75 721.854 240.513 722.234 240.039C722.62 239.565 722.812 238.891 722.812 238.016C722.812 237.135 722.62 236.456 722.234 235.977C721.854 235.497 721.307 235.258 720.594 235.258ZM733.648 242H731.836V237.492C731.836 235.997 731.307 235.25 730.25 235.25C729.698 235.25 729.242 235.458 728.883 235.875C728.523 236.286 728.344 236.807 728.344 237.438V242H726.523V234H728.344V235.328H728.375C728.974 234.318 729.839 233.812 730.969 233.812C731.839 233.812 732.503 234.096 732.961 234.664C733.419 235.227 733.648 236.042 733.648 237.109V242ZM744.492 241.914C744.138 242.091 743.672 242.18 743.094 242.18C741.542 242.18 740.766 241.435 740.766 239.945V235.422H739.43V234H740.766V232.148L742.578 231.633V234H744.492V235.422H742.578V239.422C742.578 239.896 742.664 240.234 742.836 240.438C743.008 240.641 743.294 240.742 743.695 240.742C744.003 240.742 744.268 240.654 744.492 240.477V241.914ZM752.195 242H750.438V240.75H750.406C749.854 241.708 749.044 242.188 747.977 242.188C747.19 242.188 746.573 241.974 746.125 241.547C745.682 241.12 745.461 240.555 745.461 239.852C745.461 238.341 746.331 237.461 748.07 237.211L750.445 236.875C750.445 235.734 749.904 235.164 748.82 235.164C747.867 235.164 747.008 235.492 746.242 236.148V234.562C747.086 234.062 748.06 233.812 749.164 233.812C751.185 233.812 752.195 234.807 752.195 236.797V242ZM750.445 238.07L748.766 238.305C748.245 238.372 747.852 238.5 747.586 238.688C747.326 238.87 747.195 239.193 747.195 239.656C747.195 239.995 747.315 240.273 747.555 240.492C747.799 240.706 748.125 240.812 748.531 240.812C749.083 240.812 749.539 240.62 749.898 240.234C750.263 239.844 750.445 239.354 750.445 238.766V238.07ZM756.258 240.844H756.227V242H754.414V230.156H756.227V235.406H756.258C756.878 234.344 757.784 233.812 758.977 233.812C759.987 233.812 760.776 234.172 761.344 234.891C761.917 235.604 762.203 236.562 762.203 237.766C762.203 239.104 761.883 240.177 761.242 240.984C760.602 241.786 759.727 242.188 758.617 242.188C757.576 242.188 756.789 241.74 756.258 240.844ZM756.211 237.664V238.656C756.211 239.24 756.396 239.734 756.766 240.141C757.141 240.547 757.615 240.75 758.188 240.75C758.859 240.75 759.385 240.49 759.766 239.969C760.151 239.443 760.344 238.711 760.344 237.773C760.344 236.987 760.164 236.372 759.805 235.93C759.451 235.482 758.969 235.258 758.359 235.258C757.714 235.258 757.193 235.487 756.797 235.945C756.406 236.404 756.211 236.977 756.211 237.664ZM765.875 242H764.055V230.156H765.875V242ZM775.016 238.492H769.562C769.583 239.232 769.81 239.802 770.242 240.203C770.68 240.604 771.279 240.805 772.039 240.805C772.893 240.805 773.677 240.549 774.391 240.039V241.5C773.661 241.958 772.698 242.188 771.5 242.188C770.323 242.188 769.398 241.826 768.727 241.102C768.06 240.372 767.727 239.349 767.727 238.031C767.727 236.786 768.094 235.773 768.828 234.992C769.568 234.206 770.484 233.812 771.578 233.812C772.672 233.812 773.518 234.164 774.117 234.867C774.716 235.57 775.016 236.547 775.016 237.797V238.492ZM773.266 237.211C773.26 236.56 773.107 236.055 772.805 235.695C772.503 235.331 772.086 235.148 771.555 235.148C771.034 235.148 770.591 235.339 770.227 235.719C769.867 236.099 769.646 236.596 769.562 237.211H773.266Z" fill="#333333"/>
<path d="M50.75 221C50.75 212.578 57.5777 205.75 66 205.75H234C242.422 205.75 249.25 212.578 249.25 221V250C249.25 258.422 242.422 265.25 234 265.25H66C57.5777 265.25 50.75 258.422 50.75 250V221Z" fill="white"/>
<path d="M50.75 221C50.75 212.578 57.5777 205.75 66 205.75H234C242.422 205.75 249.25 212.578 249.25 221V250C249.25 258.422 242.422 265.25 234 265.25H66C57.5777 265.25 50.75 258.422 50.75 250V221Z" stroke="#E1E1E1" stroke-width="1.5"/>
<path d="M94.75 227.625C94.75 225.209 92.7912 223.25 90.375 223.25H74.625C72.2088 223.25 70.25 225.209 70.25 227.625V243.375C70.25 245.791 72.2088 247.75 74.625 247.75H90.375C92.7912 247.75 94.75 245.791 94.75 243.375V227.625ZM72 243.375V240.75H77.25V246H74.625L74.3722 245.988C73.0411 245.861 72 244.739 72 243.375ZM86 240.75V246H79V240.75H86ZM90.375 246H87.75V240.75H93V243.375L92.988 243.628C92.8608 244.959 91.7395 246 90.375 246ZM86 232V239H79V232H86ZM87.75 232H93V239H87.75V232ZM86 225V230.25H79V225H86ZM87.75 225H90.375L90.6278 225.012C91.9589 225.139 93 226.261 93 227.625V230.25H87.75V225ZM77.25 225V230.25H72V227.625L72.012 227.372C72.1392 226.041 73.2605 225 74.625 225H77.25ZM77.25 232V239H72V232H77.25Z" fill="#242424"/>
<path d="M116.383 242V230.797H119.617C123.747 230.797 125.812 232.617 125.812 236.258C125.812 237.987 125.24 239.378 124.094 240.43C122.948 241.477 121.411 242 119.484 242H116.383ZM118.234 232.375V240.43H119.719C121.026 240.43 122.042 240.07 122.766 239.352C123.495 238.633 123.859 237.617 123.859 236.305C123.859 233.685 122.503 232.375 119.789 232.375H118.234ZM128.578 232.32C128.281 232.32 128.026 232.224 127.812 232.031C127.604 231.839 127.5 231.594 127.5 231.297C127.5 231 127.604 230.753 127.812 230.555C128.026 230.357 128.281 230.258 128.578 230.258C128.885 230.258 129.146 230.357 129.359 230.555C129.573 230.753 129.68 231 129.68 231.297C129.68 231.578 129.573 231.82 129.359 232.023C129.146 232.221 128.885 232.32 128.578 232.32ZM129.477 242H127.664V234H129.477V242ZM143.812 242H142V237.641C142 236.802 141.88 236.195 141.641 235.82C141.406 235.445 141.008 235.258 140.445 235.258C139.971 235.258 139.568 235.495 139.234 235.969C138.906 236.443 138.742 237.01 138.742 237.672V242H136.922V237.492C136.922 236.003 136.396 235.258 135.344 235.258C134.854 235.258 134.451 235.482 134.133 235.93C133.82 236.378 133.664 236.958 133.664 237.672V242H131.852V234H133.664V235.266H133.695C134.273 234.297 135.115 233.812 136.219 233.812C136.771 233.812 137.253 233.966 137.664 234.273C138.081 234.576 138.365 234.974 138.516 235.469C139.109 234.365 139.995 233.812 141.172 233.812C142.932 233.812 143.812 234.898 143.812 237.07V242ZM152.797 238.492H147.344C147.365 239.232 147.591 239.802 148.023 240.203C148.461 240.604 149.06 240.805 149.82 240.805C150.674 240.805 151.458 240.549 152.172 240.039V241.5C151.443 241.958 150.479 242.188 149.281 242.188C148.104 242.188 147.18 241.826 146.508 241.102C145.841 240.372 145.508 239.349 145.508 238.031C145.508 236.786 145.875 235.773 146.609 234.992C147.349 234.206 148.266 233.812 149.359 233.812C150.453 233.812 151.299 234.164 151.898 234.867C152.497 235.57 152.797 236.547 152.797 237.797V238.492ZM151.047 237.211C151.042 236.56 150.888 236.055 150.586 235.695C150.284 235.331 149.867 235.148 149.336 235.148C148.815 235.148 148.372 235.339 148.008 235.719C147.648 236.099 147.427 236.596 147.344 237.211H151.047ZM161.648 242H159.836V237.492C159.836 235.997 159.307 235.25 158.25 235.25C157.698 235.25 157.242 235.458 156.883 235.875C156.523 236.286 156.344 236.807 156.344 237.438V242H154.523V234H156.344V235.328H156.375C156.974 234.318 157.839 233.812 158.969 233.812C159.839 233.812 160.503 234.096 160.961 234.664C161.419 235.227 161.648 236.042 161.648 237.109V242ZM163.367 241.75V240.07C164.044 240.586 164.792 240.844 165.609 240.844C166.703 240.844 167.25 240.521 167.25 239.875C167.25 239.693 167.203 239.539 167.109 239.414C167.016 239.284 166.888 239.169 166.727 239.07C166.57 238.971 166.383 238.883 166.164 238.805C165.951 238.727 165.711 238.638 165.445 238.539C165.117 238.409 164.82 238.271 164.555 238.125C164.294 237.979 164.076 237.815 163.898 237.633C163.727 237.445 163.596 237.234 163.508 237C163.419 236.766 163.375 236.492 163.375 236.18C163.375 235.794 163.466 235.456 163.648 235.164C163.831 234.867 164.076 234.62 164.383 234.422C164.69 234.219 165.039 234.068 165.43 233.969C165.82 233.865 166.224 233.812 166.641 233.812C167.38 233.812 168.042 233.924 168.625 234.148V235.734C168.062 235.349 167.417 235.156 166.688 235.156C166.458 235.156 166.25 235.18 166.062 235.227C165.88 235.273 165.724 235.339 165.594 235.422C165.464 235.505 165.362 235.607 165.289 235.727C165.216 235.841 165.18 235.969 165.18 236.109C165.18 236.281 165.216 236.427 165.289 236.547C165.362 236.667 165.469 236.773 165.609 236.867C165.755 236.956 165.927 237.039 166.125 237.117C166.328 237.19 166.56 237.271 166.82 237.359C167.164 237.5 167.471 237.643 167.742 237.789C168.018 237.935 168.253 238.102 168.445 238.289C168.638 238.471 168.786 238.685 168.891 238.93C168.995 239.169 169.047 239.456 169.047 239.789C169.047 240.195 168.953 240.549 168.766 240.852C168.578 241.154 168.328 241.404 168.016 241.602C167.703 241.799 167.341 241.945 166.93 242.039C166.523 242.138 166.094 242.188 165.641 242.188C164.766 242.188 164.008 242.042 163.367 241.75ZM171.688 232.32C171.391 232.32 171.135 232.224 170.922 232.031C170.714 231.839 170.609 231.594 170.609 231.297C170.609 231 170.714 230.753 170.922 230.555C171.135 230.357 171.391 230.258 171.688 230.258C171.995 230.258 172.255 230.357 172.469 230.555C172.682 230.753 172.789 231 172.789 231.297C172.789 231.578 172.682 231.82 172.469 232.023C172.255 232.221 171.995 232.32 171.688 232.32ZM172.586 242H170.773V234H172.586V242ZM178.508 242.188C177.273 242.188 176.286 241.815 175.547 241.07C174.812 240.32 174.445 239.328 174.445 238.094C174.445 236.75 174.828 235.701 175.594 234.945C176.365 234.19 177.401 233.812 178.703 233.812C179.953 233.812 180.927 234.18 181.625 234.914C182.323 235.648 182.672 236.667 182.672 237.969C182.672 239.245 182.294 240.268 181.539 241.039C180.789 241.805 179.779 242.188 178.508 242.188ZM178.594 235.258C177.885 235.258 177.326 235.505 176.914 236C176.503 236.495 176.297 237.177 176.297 238.047C176.297 238.885 176.505 239.547 176.922 240.031C177.339 240.51 177.896 240.75 178.594 240.75C179.307 240.75 179.854 240.513 180.234 240.039C180.62 239.565 180.812 238.891 180.812 238.016C180.812 237.135 180.62 236.456 180.234 235.977C179.854 235.497 179.307 235.258 178.594 235.258ZM191.648 242H189.836V237.492C189.836 235.997 189.307 235.25 188.25 235.25C187.698 235.25 187.242 235.458 186.883 235.875C186.523 236.286 186.344 236.807 186.344 237.438V242H184.523V234H186.344V235.328H186.375C186.974 234.318 187.839 233.812 188.969 233.812C189.839 233.812 190.503 234.096 190.961 234.664C191.419 235.227 191.648 236.042 191.648 237.109V242ZM202.492 241.914C202.138 242.091 201.672 242.18 201.094 242.18C199.542 242.18 198.766 241.435 198.766 239.945V235.422H197.43V234H198.766V232.148L200.578 231.633V234H202.492V235.422H200.578V239.422C200.578 239.896 200.664 240.234 200.836 240.438C201.008 240.641 201.294 240.742 201.695 240.742C202.003 240.742 202.268 240.654 202.492 240.477V241.914ZM210.195 242H208.438V240.75H208.406C207.854 241.708 207.044 242.188 205.977 242.188C205.19 242.188 204.573 241.974 204.125 241.547C203.682 241.12 203.461 240.555 203.461 239.852C203.461 238.341 204.331 237.461 206.07 237.211L208.445 236.875C208.445 235.734 207.904 235.164 206.82 235.164C205.867 235.164 205.008 235.492 204.242 236.148V234.562C205.086 234.062 206.06 233.812 207.164 233.812C209.185 233.812 210.195 234.807 210.195 236.797V242ZM208.445 238.07L206.766 238.305C206.245 238.372 205.852 238.5 205.586 238.688C205.326 238.87 205.195 239.193 205.195 239.656C205.195 239.995 205.315 240.273 205.555 240.492C205.799 240.706 206.125 240.812 206.531 240.812C207.083 240.812 207.539 240.62 207.898 240.234C208.263 239.844 208.445 239.354 208.445 238.766V238.07ZM214.258 240.844H214.227V242H212.414V230.156H214.227V235.406H214.258C214.878 234.344 215.784 233.812 216.977 233.812C217.987 233.812 218.776 234.172 219.344 234.891C219.917 235.604 220.203 236.562 220.203 237.766C220.203 239.104 219.883 240.177 219.242 240.984C218.602 241.786 217.727 242.188 216.617 242.188C215.576 242.188 214.789 241.74 214.258 240.844ZM214.211 237.664V238.656C214.211 239.24 214.396 239.734 214.766 240.141C215.141 240.547 215.615 240.75 216.188 240.75C216.859 240.75 217.385 240.49 217.766 239.969C218.151 239.443 218.344 238.711 218.344 237.773C218.344 236.987 218.164 236.372 217.805 235.93C217.451 235.482 216.969 235.258 216.359 235.258C215.714 235.258 215.193 235.487 214.797 235.945C214.406 236.404 214.211 236.977 214.211 237.664ZM223.875 242H222.055V230.156H223.875V242ZM233.016 238.492H227.562C227.583 239.232 227.81 239.802 228.242 240.203C228.68 240.604 229.279 240.805 230.039 240.805C230.893 240.805 231.677 240.549 232.391 240.039V241.5C231.661 241.958 230.698 242.188 229.5 242.188C228.323 242.188 227.398 241.826 226.727 241.102C226.06 240.372 225.727 239.349 225.727 238.031C225.727 236.786 226.094 235.773 226.828 234.992C227.568 234.206 228.484 233.812 229.578 233.812C230.672 233.812 231.518 234.164 232.117 234.867C232.716 235.57 233.016 236.547 233.016 237.797V238.492ZM231.266 237.211C231.26 236.56 231.107 236.055 230.805 235.695C230.503 235.331 230.086 235.148 229.555 235.148C229.034 235.148 228.591 235.339 228.227 235.719C227.867 236.099 227.646 236.596 227.562 237.211H231.266Z" fill="#333333"/>
<path d="M326.433 266.902C326.931 266.663 327.141 266.065 326.902 265.567L323.007 257.454C322.768 256.956 322.171 256.746 321.673 256.985C321.175 257.224 320.965 257.821 321.204 258.319L324.666 265.531L317.454 268.993C316.956 269.232 316.746 269.829 316.985 270.327C317.224 270.825 317.821 271.035 318.319 270.796L326.433 266.902ZM326.331 265.057L289.331 252.057L288.669 253.943L325.669 266.943L326.331 265.057Z" fill="#5A409C"/>
<path d="M420.293 201.707C420.683 202.098 421.317 202.098 421.707 201.707L428.071 195.343C428.462 194.953 428.462 194.319 428.071 193.929C427.681 193.538 427.047 193.538 426.657 193.929L421 199.586L415.343 193.929C414.953 193.538 414.319 193.538 413.929 193.929C413.538 194.319 413.538 194.953 413.929 195.343L420.293 201.707ZM422 201L422 175L420 175L420 201L422 201Z" fill="#5A409C"/>
<path d="M372.988 361.848C372.904 361.302 372.394 360.928 371.848 361.012L362.953 362.38C362.407 362.464 362.032 362.975 362.116 363.521C362.2 364.066 362.711 364.441 363.257 364.357L371.164 363.14L372.38 371.047C372.464 371.593 372.975 371.968 373.521 371.884C374.066 371.8 374.441 371.289 374.357 370.743L372.988 361.848ZM371.194 361.409L349.194 391.409L350.806 392.591L372.806 362.591L371.194 361.409Z" fill="#5A409C"/>
<path d="M472.129 365.008C471.582 364.937 471.08 365.323 471.008 365.871L469.844 374.795C469.773 375.343 470.159 375.845 470.707 375.916C471.254 375.987 471.756 375.601 471.828 375.054L472.862 367.121L480.795 368.156C481.343 368.227 481.845 367.841 481.916 367.293C481.987 366.746 481.601 366.244 481.054 366.172L472.129 365.008ZM471.207 366.61L491.207 392.61L492.793 391.39L472.793 365.39L471.207 366.61Z" fill="#5A409C"/>
<path d="M511.081 268.606C510.863 269.114 511.098 269.702 511.606 269.919L519.878 273.464C520.386 273.682 520.974 273.447 521.191 272.939C521.409 272.432 521.174 271.844 520.666 271.626L513.313 268.475L516.464 261.122C516.682 260.614 516.447 260.026 515.939 259.809C515.432 259.591 514.844 259.826 514.626 260.334L511.081 268.606ZM512.371 269.928L542.371 257.928L541.629 256.072L511.629 268.072L512.371 269.928Z" fill="#5A409C"/>
<defs>
<radialGradient id="paint0_radial_32_4811" cx="0" cy="0" r="1" gradientUnits="userSpaceOnUse" gradientTransform="translate(126.502 62.6318) rotate(29.0478) scale(924.514 619.381)">
<stop offset="0.198869" stop-color="#CFAF47"/>
<stop offset="1" stop-color="#5A409C"/>
</radialGradient>
<radialGradient id="paint1_radial_32_4811" cx="0" cy="0" r="1" gradientUnits="userSpaceOnUse" gradientTransform="translate(421 287) rotate(55.9779) scale(215.366 214.304)">
<stop stop-color="#7934EA" stop-opacity="0.15"/>
<stop offset="1" stop-color="#711DA4" stop-opacity="0.25"/>
</radialGradient>
<linearGradient id="paint2_linear_32_4811" x1="-607.571" y1="72" x2="548.131" y2="1921.11" gradientUnits="userSpaceOnUse">
<stop stop-color="#7751B8"/>
<stop offset="1" stop-color="#5A409C"/>
</linearGradient>
<linearGradient id="paint3_linear_32_4811" x1="309" y1="276.5" x2="398.888" y2="420.32" gradientUnits="userSpaceOnUse">
<stop stop-color="#7751B8"/>
<stop offset="1" stop-color="#5A409C"/>
</linearGradient>
<linearGradient id="paint4_linear_32_4811" x1="318.214" y1="260" x2="490.174" y2="505.041" gradientUnits="userSpaceOnUse">
<stop stop-color="#7751B8"/>
<stop offset="1" stop-color="#5A409C"/>
</linearGradient>
</defs>
</svg>
