<svg xmlns="http://www.w3.org/2000/svg" width="24" height="24" viewBox="0 0 24 24"><path transform="scale(0.0117,-0.0117) translate(2, -2050)" d="M1728 896Q1754 896 1773 877Q1792 858 1792 832Q1792 806 1773 787Q1754 768 1728 768Q1702 768 1683 787Q1664 806 1664 832Q1664 858 1683 877Q1702 896 1728 896M1125 915Q1046 969 955 996.50Q864 1024 768 1024Q680 1024 598 1001Q516 978 445 936.50Q374 895 315.50 836.50Q257 778 215.50 707Q174 636 151 554Q128 472 128 384L0 384Q0 501 35.50 613Q71 725 136.50 820.50Q202 916 293.50 989.50Q385 1063 496 1102Q440 1138 395.50 1185Q351 1232 320 1288Q289 1344 272.50 1406.50Q256 1469 256 1536Q256 1642 296 1735.50Q336 1829 405.50 1898.50Q475 1968 568.50 2008Q662 2048 768 2048Q874 2048 967.50 2008Q1061 1968 1130.50 1898.50Q1200 1829 1240 1735.50Q1280 1642 1280 1536Q1280 1469 1263.50 1406.50Q1247 1344 1216 1288Q1185 1232 1140.50 1185Q1096 1138 1040 1102Q1121 1073 1196 1022L1125 915M384 1536Q384 1456 414 1386.50Q444 1317 496.50 1264.50Q549 1212 618.50 1182Q688 1152 768 1152Q847 1152 917 1182Q987 1212 1039.50 1264.50Q1092 1317 1122 1386.50Q1152 1456 1152 1536Q1152 1615 1122 1685Q1092 1755 1039.50 1807.50Q987 1860 917 1890Q847 1920 768 1920Q688 1920 618.50 1890Q549 1860 496.50 1807.50Q444 1755 414 1685Q384 1615 384 1536M1664 1152Q1743 1152 1813 1122Q1883 1092 1935.50 1039.50Q1988 987 2018 917Q2048 847 2048 768Q2048 688 2018 618.50Q1988 549 1935.50 496.50Q1883 444 1813 414Q1743 384 1664 384Q1599 384 1536 407L1536 256L1408 256L1408 128L1280 128L1280 0L896 0L896 282L1291 678Q1280 724 1280 768Q1280 847 1310 917Q1340 987 1392.50 1039.50Q1445 1092 1514.50 1122Q1584 1152 1664 1152M1664 512Q1717 512 1763.50 532Q1810 552 1845 587Q1880 622 1900 668.50Q1920 715 1920 768Q1920 821 1900 867.50Q1880 914 1845 949Q1810 984 1763.50 1004Q1717 1024 1664 1024Q1611 1024 1564.50 1004Q1518 984 1483 949Q1448 914 1428 867.50Q1408 821 1408 768Q1408 733 1417 704Q1426 675 1438 643L1024 230L1024 128L1152 128L1152 256L1280 256L1280 384L1408 384L1408 475L1501 567Q1541 544 1578 528Q1615 512 1664 512Z"/></svg>