<svg xmlns="http://www.w3.org/2000/svg" width="24" height="24" viewBox="0 0 24 24"><path transform="scale(0.0117,-0.0117) translate(2, -2050)" d="M1760 1792Q1820 1792 1872.50 1769.50Q1925 1747 1964 1708Q2003 1669 2025.50 1616.50Q2048 1564 2048 1504L2048 736Q2048 680 2028 631Q2008 582 1973.50 544Q1939 506 1892.50 481.50Q1846 457 1792 451L1792 579Q1819 585 1842.50 599Q1866 613 1883.50 634Q1901 655 1910.50 681Q1920 707 1920 736L1920 1504Q1920 1537 1907.50 1566Q1895 1595 1873 1617Q1851 1639 1822 1651.50Q1793 1664 1760 1664L288 1664Q255 1664 226 1651.50Q197 1639 175 1617Q153 1595 140.50 1566Q128 1537 128 1504L128 736Q128 703 140.50 674Q153 645 175 623Q197 601 226 588.50Q255 576 288 576L320 576L320 448L288 448Q228 448 175.50 470.50Q123 493 84 532Q45 571 22.50 623.50Q0 676 0 736L0 1504Q0 1564 22.50 1616.50Q45 1669 84 1708Q123 1747 175.50 1769.50Q228 1792 288 1792L1760 1792M576 736Q603 736 626 726Q649 716 666.50 698.50Q684 681 694 658Q704 635 704 608L704 416Q704 389 694 366Q684 343 666.50 325.50Q649 308 626 298Q603 288 576 288Q549 288 526 298Q503 308 485.50 325.50Q468 343 458 366Q448 389 448 416L448 608Q448 635 458 658Q468 681 485.50 698.50Q503 716 526 726Q549 736 576 736M896 1120Q923 1120 946 1110Q969 1100 986.50 1082.50Q1004 1065 1014 1042Q1024 1019 1024 992L1024 416Q1024 389 1014 366Q1004 343 986.50 325.50Q969 308 946 298Q923 288 896 288Q869 288 846 298Q823 308 805.50 325.50Q788 343 778 366Q768 389 768 416L768 992Q768 1019 778 1042Q788 1065 805.50 1082.50Q823 1100 846 1110Q869 1120 896 1120M1216 992Q1243 992 1266 982Q1289 972 1306.50 954.50Q1324 937 1334 914Q1344 891 1344 864L1344 416Q1344 389 1334 366Q1324 343 1306.50 325.50Q1289 308 1266 298Q1243 288 1216 288Q1189 288 1166 298Q1143 308 1125.50 325.50Q1108 343 1098 366Q1088 389 1088 416L1088 864Q1088 891 1098 914Q1108 937 1125.50 954.50Q1143 972 1166 982Q1189 992 1216 992M1536 1376Q1563 1376 1586 1366Q1609 1356 1626.50 1338.50Q1644 1321 1654 1298Q1664 1275 1664 1248L1664 416Q1664 389 1654 366Q1644 343 1626.50 325.50Q1609 308 1586 298Q1563 288 1536 288Q1509 288 1486 298Q1463 308 1445.50 325.50Q1428 343 1418 366Q1408 389 1408 416L1408 1248Q1408 1275 1418 1298Q1428 1321 1445.50 1338.50Q1463 1356 1486 1366Q1509 1376 1536 1376Z"/></svg>