<svg xmlns="http://www.w3.org/2000/svg" width="24" height="24" viewBox="0 0 24 24"><path transform="scale(0.0117,-0.0117) translate(2, -2050)" d="M640 1664L2048 1664L2048 512L640 512L640 1664M1920 640L1920 1536L768 1536L768 640L1920 640M128 1024L128 1152L512 1152L512 1024L128 1024M0 1280L0 1408L512 1408L512 1280L0 1280M256 768L256 896L512 896L512 768L256 768M1792 1408L1792 1280L896 1280L896 1408L1792 1408M1408 768L1408 1152L1792 1152L1792 768L1408 768M1536 1024L1536 896L1664 896L1664 1024L1536 1024M1280 896L1280 768L896 768L896 896L1280 896M1280 1152L1280 1024L896 1024L896 1152L1280 1152Z"/></svg>