<?xml version="1.0" encoding="utf-8"?>
<!-- Generator: Adobe Illustrator 22.1.0, SVG Export Plug-In . SVG Version: 6.00 Build 0)  -->
<svg version="1.1" id="Layer_1" xmlns="http://www.w3.org/2000/svg" xmlns:xlink="http://www.w3.org/1999/xlink" x="0px" y="0px"
	 width="32px" height="32px" viewBox="0 0 32 32" enable-background="new 0 0 32 32" xml:space="preserve">
<path fill="#F1C817" d="M27,18c0.271,0,0.505,0.099,0.703,0.297S28,18.729,28,19s-0.099,0.505-0.297,0.703S27.271,20,27,20
	s-0.505-0.099-0.703-0.297S26,19.271,26,19s0.099-0.505,0.297-0.703S26.729,18,27,18 M17.578,17.703
	c-0.823-0.563-1.708-0.987-2.656-1.273S13,16,12,16c-0.917,0-1.802,0.12-2.656,0.359s-1.651,0.576-2.391,1.008
	S5.539,18.32,4.93,18.93s-1.13,1.284-1.563,2.023s-0.768,1.536-1.008,2.391C2.12,24.198,2,25.083,2,26H0
	c0-1.219,0.185-2.411,0.555-3.578s0.896-2.247,1.578-3.242s1.5-1.875,2.453-2.641s2.008-1.352,3.164-1.758
	c-0.583-0.375-1.107-0.807-1.57-1.297S5.323,12.458,5,11.875s-0.57-1.201-0.742-1.852S4,8.698,4,8c0-1.104,0.208-2.143,0.625-3.117
	S5.612,3.06,6.336,2.336s1.573-1.294,2.547-1.711S10.896,0,12,0s2.143,0.208,3.117,0.625s1.823,0.987,2.547,1.711
	s1.294,1.573,1.711,2.547S20,6.896,20,8c0,0.698-0.086,1.372-0.258,2.023S19.323,11.292,19,11.875s-0.716,1.12-1.18,1.609
	s-0.987,0.922-1.57,1.297c0.844,0.302,1.656,0.719,2.438,1.25L17.578,17.703 M6,8c0,0.833,0.156,1.612,0.469,2.336
	s0.742,1.359,1.289,1.906s1.182,0.977,1.906,1.289S11.167,14,12,14c0.823,0,1.599-0.156,2.328-0.469s1.367-0.742,1.914-1.289
	s0.977-1.182,1.289-1.906S18,8.833,18,8c0-0.823-0.156-1.599-0.469-2.328s-0.742-1.367-1.289-1.914s-1.185-0.977-1.914-1.289
	S12.823,2,12,2c-0.833,0-1.612,0.156-2.336,0.469S8.305,3.211,7.758,3.758S6.781,4.943,6.469,5.672S6,7.177,6,8 M26,14
	c0.823,0,1.599,0.156,2.328,0.469s1.367,0.742,1.914,1.289s0.977,1.185,1.289,1.914S32,19.177,32,20
	c0,0.833-0.156,1.612-0.469,2.336s-0.742,1.359-1.289,1.906s-1.185,0.977-1.914,1.289S26.823,26,26,26c-0.677,0-1.344-0.12-2-0.359
	V28h-2v2h-2v2h-6v-4.406l6.172-6.188C20.057,20.927,20,20.458,20,20c0-0.823,0.156-1.599,0.469-2.328s0.742-1.367,1.289-1.914
	s1.182-0.977,1.906-1.289S25.167,14,26,14 M26,24c0.552,0,1.07-0.104,1.555-0.313s0.909-0.495,1.273-0.859s0.651-0.789,0.859-1.273
	S30,20.552,30,20s-0.104-1.07-0.313-1.555s-0.495-0.909-0.859-1.273s-0.789-0.651-1.273-0.859S26.552,16,26,16
	s-1.07,0.104-1.555,0.313s-0.909,0.495-1.273,0.859s-0.651,0.789-0.859,1.273S22,19.448,22,20c0,0.365,0.047,0.698,0.141,1
	s0.203,0.62,0.328,0.953L16,28.406V30h2v-2h2v-2h2v-1.422l1.453-1.438c0.417,0.24,0.818,0.443,1.203,0.609S25.49,24,26,24z"/>
</svg>
