<?xml version="1.0" encoding="utf-8"?>
<!-- Generator: Adobe Illustrator 22.1.0, SVG Export Plug-In . SVG Version: 6.00 Build 0)  -->
<svg version="1.1" id="Layer_1" xmlns="http://www.w3.org/2000/svg" xmlns:xlink="http://www.w3.org/1999/xlink" x="0px" y="0px"
	 width="46px" height="26px" viewBox="0 0 46 26" enable-background="new 0 0 46 26" xml:space="preserve">
<path fill="#F1C817" d="M46,26H14V0h32V26z M16,24h28V2H16V24z M40,6H20v2h20V6z M29,12h-9v2h9V12z M29,18h-9v2h9V18z M40,20h-8v-8
	h8V20z M34,18h4v-4h-4V18z M12,6H0v2h12V6z M12,12H3v2h9V12z M12,18H6v2h6V18z"/>
</svg>
