<?xml version="1.0" encoding="utf-8"?>
<!-- Generator: Adobe Illustrator 22.1.0, SVG Export Plug-In . SVG Version: 6.00 Build 0)  -->
<svg version="1.1" id="Layer_1" xmlns="http://www.w3.org/2000/svg" xmlns:xlink="http://www.w3.org/1999/xlink" x="0px" y="0px"
	 width="128px" height="128px" viewBox="0 0 128 128" enable-background="new 0 0 128 128" xml:space="preserve">
<path fill="#F1C817" d="M108,72c1.083,0,2.021,0.396,2.813,1.188S112,74.917,112,76s-0.396,2.021-1.188,2.813S109.083,80,108,80
	s-2.021-0.396-2.813-1.188S104,77.083,104,76s0.396-2.021,1.188-2.813S106.917,72,108,72 M70.313,70.813
	c-3.292-2.25-6.833-3.948-10.625-5.094S52,64,48,64c-3.667,0-7.208,0.479-10.625,1.438s-6.604,2.302-9.563,4.031
	s-5.656,3.813-8.094,6.25s-4.521,5.135-6.25,8.094s-3.073,6.146-4.031,9.563C8.479,96.792,8,100.333,8,104H0
	c0-4.875,0.74-9.646,2.219-14.313s3.583-8.99,6.313-12.969s6-7.5,9.813-10.563S26.375,60.75,31,59.125
	c-2.333-1.5-4.427-3.229-6.281-5.188S21.292,49.833,20,47.5s-2.281-4.802-2.969-7.406S16,34.792,16,32
	c0-4.417,0.833-8.573,2.5-12.469s3.948-7.292,6.844-10.188S31.635,4.167,35.531,2.5S43.583,0,48,0s8.573,0.833,12.469,2.5
	s7.292,3.948,10.188,6.844s5.177,6.292,6.844,10.188S80,27.583,80,32c0,2.792-0.344,5.49-1.031,8.094S77.292,45.167,76,47.5
	s-2.865,4.479-4.719,6.438S67.333,57.625,65,59.125c3.375,1.208,6.625,2.875,9.75,5L70.313,70.813 M24,32
	c0,3.333,0.625,6.448,1.875,9.344s2.969,5.438,5.156,7.625s4.729,3.906,7.625,5.156S44.667,56,48,56
	c3.292,0,6.396-0.625,9.313-1.875s5.469-2.969,7.656-5.156s3.906-4.729,5.156-7.625S72,35.333,72,32
	c0-3.292-0.625-6.396-1.875-9.313s-2.969-5.469-5.156-7.656s-4.74-3.906-7.656-5.156S51.292,8,48,8
	c-3.333,0-6.448,0.625-9.344,1.875s-5.438,2.969-7.625,5.156s-3.906,4.74-5.156,7.656S24,28.708,24,32 M104,56
	c3.292,0,6.396,0.625,9.313,1.875s5.469,2.969,7.656,5.156s3.906,4.74,5.156,7.656S128,76.708,128,80
	c0,3.333-0.625,6.448-1.875,9.344s-2.969,5.438-5.156,7.625s-4.74,3.906-7.656,5.156S107.292,104,104,104
	c-2.708,0-5.375-0.479-8-1.438V112h-8v8h-8v8H56v-17.625l24.688-24.75C80.229,83.708,80,81.833,80,80
	c0-3.292,0.625-6.396,1.875-9.313s2.969-5.469,5.156-7.656s4.729-3.906,7.625-5.156S100.667,56,104,56 M104,96
	c2.208,0,4.281-0.417,6.219-1.25s3.635-1.979,5.094-3.438s2.604-3.156,3.438-5.094S120,82.208,120,80s-0.417-4.281-1.25-6.219
	s-1.979-3.635-3.438-5.094s-3.156-2.604-5.094-3.438S106.208,64,104,64s-4.281,0.417-6.219,1.25s-3.635,1.979-5.094,3.438
	s-2.604,3.156-3.438,5.094S88,77.792,88,80c0,1.458,0.188,2.792,0.563,4s0.813,2.479,1.313,3.813L64,113.625V120h8v-8h8v-8h8v-5.688
	l5.813-5.75c1.667,0.958,3.271,1.771,4.813,2.438S101.958,96,104,96z"/>
<rect fill="none" width="128" height="128"/>
</svg>
