<?xml version="1.0" encoding="utf-8"?>
<!-- Generator: Adobe Illustrator 22.1.0, SVG Export Plug-In . SVG Version: 6.00 Build 0)  -->
<svg version="1.1" id="Layer_1" xmlns="http://www.w3.org/2000/svg" xmlns:xlink="http://www.w3.org/1999/xlink" x="0px" y="0px"
	 width="34px" height="32px" viewBox="0 0 34 32" enable-background="new 0 0 34 32" xml:space="preserve">
<path fill="#F1C817" d="M32.879,1.122c-1.445-1.446-3.969-1.446-5.414,0L14.449,14.137C12.476,14.613,11,16.382,11,18.5
	c0,1.379-1.122,2.5-2.5,2.5H4v2h11.5c2.118,0,3.887-1.475,4.363-3.449L32.879,6.536C34.371,5.042,34.371,2.614,32.879,1.122z
	 M17.105,14.309l2.219-2.219c1.063,0.637,1.949,1.523,2.586,2.586l-2.219,2.219C19.234,15.707,18.293,14.766,17.105,14.309z
	 M15.5,21h-3.26C12.72,20.284,13,19.424,13,18.5c0-1.379,1.122-2.5,2.5-2.5s2.5,1.121,2.5,2.5S16.878,21,15.5,21z M31.465,5.122
	l-8.092,8.092c-0.687-1.02-1.566-1.899-2.586-2.586l8.092-8.091c0.691-0.691,1.895-0.691,2.586,0
	C32.178,3.249,32.178,4.409,31.465,5.122z M18,27v3h5v2H11v-2h5v-3H0V7h18.758l-2,2H2v16h30V10.243l2-2V27H18z"/>
</svg>
