<svg id="Layer_1" data-name="Layer 1" xmlns="http://www.w3.org/2000/svg" viewBox="0 0 400 140"><defs><style>.cls-1,.cls-3,.cls-4,.cls-6,.cls-7{fill:none;}.cls-1{stroke:#ccc;}.cls-1,.cls-2,.cls-3,.cls-4,.cls-5,.cls-6,.cls-7{stroke-miterlimit:10;stroke-width:2px;}.cls-2,.cls-5{fill:#fff;}.cls-2,.cls-4{stroke:#000;}.cls-2{stroke-linecap:round;}.cls-3{stroke:#f4ca00;}.cls-5,.cls-6{stroke:#231f20;}.cls-7{stroke:#f2c811;}</style></defs><line class="cls-1" x1="276" y1="103" x2="291" y2="103"/><line class="cls-1" x1="296" y1="103" x2="301" y2="103"/><line class="cls-1" x1="306" y1="103" x2="331" y2="103"/><line class="cls-1" x1="285" y1="93" x2="339" y2="93"/><line class="cls-1" x1="276" y1="83" x2="315" y2="83"/><line class="cls-1" x1="322" y1="83" x2="331" y2="83"/><path class="cls-1" d="M68,50H92"/><path class="cls-1" d="M119,50h17"/><path class="cls-1" d="M98,50h14"/><path class="cls-1" d="M109,60h33"/><line class="cls-1" x1="88" y1="60" x2="102" y2="60"/><line class="cls-1" x1="76" y1="60" x2="82" y2="60"/><line class="cls-1" x1="57" y1="60" x2="71" y2="60"/><line class="cls-1" x1="74" y1="40" x2="117" y2="40"/><line class="cls-1" x1="124" y1="40" x2="139" y2="40"/><rect class="cls-2" x="120.06" y="15" width="152.12" height="95.46"/><rect class="cls-2" x="127.82" y="23.54" width="152.12" height="95.46"/><rect class="cls-2" x="133.25" y="28.19" width="142.03" height="73.73"/><rect class="cls-3" x="228.72" y="105.81" width="18.63" height="8.54"/><rect class="cls-2" x="256.66" y="105.81" width="18.63" height="8.54"/><line class="cls-3" x1="210.09" y1="46.04" x2="195.34" y2="83.3"/><path class="cls-4" d="M222.51,53c.77,0,21,10.87,21,10.87v1.55l-21,10.86"/><path class="cls-4" d="M181.37,76.31c-.77,0-21-10.86-21-10.86V63.9l21-10.87"/><rect class="cls-5" x="94.05" y="68.77" width="51.95" height="58.81"/><polygon class="cls-6" points="145.57 68.77 94.05 68.77 94.05 68.77 145.57 68.77 145.57 68.77"/><polygon class="cls-7" points="140.88 78.16 111.27 78.16 111.27 78.16 140.88 78.16 140.88 78.16"/><polygon class="cls-6" points="145.57 88.38 94.05 88.38 94.05 88.38 145.57 88.38 145.57 88.38"/><polygon class="cls-7" points="140.88 98.18 111.27 98.18 111.27 98.18 140.88 98.18 140.88 98.18"/><polygon class="cls-6" points="145.57 107.98 94.05 107.98 94.05 107.98 145.57 107.98 145.57 107.98"/><polygon class="cls-7" points="140.88 117.91 111.27 117.91 111.27 117.91 140.88 117.91 140.88 117.91"/><circle class="cls-4" cx="102.8" cy="78.16" r="3.02"/><circle class="cls-4" cx="102.8" cy="98.18" r="3.02"/><circle class="cls-4" cx="102.8" cy="118.2" r="3.02"/><rect class="cls-2" x="265.29" y="37.16" width="53.71" height="35.84"/><polygon class="cls-3" points="272.93 66.22 310.66 66.22 310.66 43.43 300.13 54.52 291.36 49.59 285.22 58.21 277.32 54.52 272.93 66.22"/><line class="cls-1" x1="64" y1="100" x2="78" y2="100"/><line class="cls-1" x1="83" y1="100" x2="87" y2="100"/><line class="cls-1" x1="44" y1="110" x2="58" y2="110"/><line class="cls-1" x1="63" y1="110" x2="87" y2="110"/></svg>