<svg id="Layer_1" data-name="Layer 1" xmlns="http://www.w3.org/2000/svg" viewBox="0 0 400 140"><defs><style>.cls-1,.cls-3,.cls-5{fill:none;}.cls-1{stroke:#ccc;}.cls-1,.cls-2,.cls-3,.cls-4,.cls-5,.cls-6{stroke-miterlimit:10;stroke-width:2px;}.cls-2,.cls-4,.cls-6{fill:#fff;}.cls-2,.cls-4,.cls-5{stroke:#000;}.cls-2{stroke-linecap:round;}.cls-3,.cls-6{stroke:#f2c811;}</style></defs><line class="cls-1" x1="372" y1="34.32" x2="326.06" y2="34.32"/><line class="cls-1" x1="312.9" y1="34.32" x2="290" y2="34.32"/><line class="cls-1" x1="280" y1="44.48" x2="354.03" y2="44.48"/><line class="cls-1" x1="290" y1="55" x2="296.58" y2="55"/><line class="cls-1" x1="309.74" y1="55" x2="350.87" y2="55"/><rect class="cls-2" x="126.8" y="18.2" width="146.39" height="93.94"/><rect class="cls-2" x="133.95" y="24.84" width="132.1" height="80.66"/><path class="cls-2" d="M274.08,121.8H125.92a10.93,10.93,0,0,1-7.4-2.76L113,114c-.58-.54-.13-1.4.74-1.4H286.24c.87,0,1.32.86.74,1.4l-5.5,5.09A10.93,10.93,0,0,1,274.08,121.8Z"/><line class="cls-2" x1="181.5" y1="117.17" x2="218.5" y2="117.17"/><line class="cls-1" x1="120" y1="97.16" x2="59.13" y2="97.16"/><line class="cls-1" x1="49.61" y1="97.16" x2="36.58" y2="97.16"/><line class="cls-1" x1="31" y1="86.25" x2="76.94" y2="86.25"/><line class="cls-1" x1="87.1" y1="86.75" x2="120" y2="86.75"/><line class="cls-1" x1="120" y1="75.84" x2="45.97" y2="75.84"/><line class="cls-1" x1="104.26" y1="65.32" x2="63.13" y2="65.32"/><path class="cls-3" d="M311,88.79c-19,0-19-20-38-20s-19,20-38,20-19-20-38-20-19,20-38,20"/><rect class="cls-4" x="195" y="64" width="6" height="6"/><polyline class="cls-5" points="168 67 198 67 232 47"/><circle class="cls-4" cx="231" cy="47" r="2"/><circle class="cls-4" cx="167" cy="67" r="2"/><polygon class="cls-3" points="171.86 49.03 180.39 40.5 192.64 47.98 198.86 65.86 197.22 67.5 179.34 61.28 171.86 49.03"/><line class="cls-5" x1="198.04" y1="66.68" x2="185.5" y2="54.14"/><circle class="cls-4" cx="183" cy="51.64" r="3.53"/><rect class="cls-4" x="169.01" y="41.73" width="12.26" height="4.09" transform="translate(329.93 -49.11) rotate(135)"/><circle class="cls-4" cx="132.5" cy="58.5" r="17.5"/><circle class="cls-6" cx="107.5" cy="33.5" r="10.5"/><circle class="cls-6" cx="276.5" cy="98.5" r="7.5"/></svg>