<svg xmlns="http://www.w3.org/2000/svg" width="24" height="24" viewBox="0 0 24 24"><path transform="scale(0.0117,-0.0117) translate(2, -2050)" d="M1920 1792L1920 128L0 128L0 1792L256 1792L256 1920L640 1920Q728 1920 809.50 1893Q891 1866 960 1812Q1029 1866 1110.50 1893Q1192 1920 1280 1920L1664 1920L1664 1792L1920 1792M1280 1792Q1210 1792 1144 1768.50Q1078 1745 1024 1700L1024 446Q1083 479 1148 495.50Q1213 512 1280 512L1536 512L1536 1792L1280 1792M384 512L640 512Q707 512 772 495.50Q837 479 896 446L896 1700Q842 1745 776 1768.50Q710 1792 640 1792L384 1792L384 512M128 256L934 256Q902 287 869 310.50Q836 334 800.50 350.50Q765 367 725.50 375.50Q686 384 640 384L256 384L256 1664L128 1664L128 256M1792 1664L1664 1664L1664 384L1280 384Q1234 384 1194.50 375.50Q1155 367 1119.50 350.50Q1084 334 1051 310.50Q1018 287 986 256L1792 256L1792 1664Z"/></svg>