<svg id="Layer_1" data-name="Layer 1" xmlns="http://www.w3.org/2000/svg" viewBox="0 0 400 140"><defs><style>.cls-1,.cls-4,.cls-5,.cls-7,.cls-8{fill:none;}.cls-1{stroke:#ccc;}.cls-1,.cls-2,.cls-3,.cls-4,.cls-5,.cls-6,.cls-7,.cls-8{stroke-miterlimit:10;}.cls-1,.cls-2,.cls-3,.cls-4,.cls-5,.cls-6,.cls-8{stroke-width:2px;}.cls-2,.cls-3,.cls-6{fill:#fff;}.cls-2,.cls-3,.cls-4,.cls-7,.cls-8{stroke:#000;}.cls-2,.cls-8{stroke-linecap:round;}.cls-5,.cls-6{stroke:#f2c811;}</style></defs><line class="cls-1" x1="269" y1="91" x2="287" y2="91"/><line class="cls-1" x1="256" y1="83" x2="292" y2="83"/><line class="cls-1" x1="299" y1="83" x2="335" y2="83"/><line class="cls-1" x1="341" y1="83" x2="347" y2="83"/><line class="cls-1" x1="318" y1="91" x2="326" y2="91"/><line class="cls-1" x1="332" y1="91" x2="350" y2="91"/><line class="cls-1" x1="250" y1="40" x2="267" y2="40"/><line class="cls-1" x1="290" y1="40" x2="317" y2="40"/><line class="cls-1" x1="272" y1="40" x2="283" y2="40"/><line class="cls-1" x1="257" y1="48" x2="260" y2="48"/><line class="cls-1" x1="264" y1="48" x2="270" y2="48"/><line class="cls-1" x1="275" y1="48" x2="288" y2="48"/><line class="cls-1" x1="293" y1="48" x2="313" y2="48"/><line class="cls-1" x1="245" y1="56" x2="275" y2="56"/><line class="cls-1" x1="282" y1="56" x2="298" y2="56"/><line class="cls-1" x1="304" y1="56" x2="323" y2="56"/><rect class="cls-2" x="121.78" y="18.97" width="156.44" height="88"/><line class="cls-3" x1="200" y1="107.85" x2="200" y2="120.15"/><line class="cls-3" x1="184.18" y1="121.03" x2="215.82" y2="121.03"/><rect class="cls-3" x="177.91" y="86.32" width="44.6" height="13.68"/><rect class="cls-3" x="177.91" y="66.82" width="44.6" height="13.68"/><rect class="cls-3" x="227.3" y="66.82" width="44.6" height="33.18"/><line class="cls-4" x1="233.1" y1="86.41" x2="233.1" y2="93.41"/><line class="cls-4" x1="238.1" y1="86.41" x2="238.1" y2="95.41"/><line class="cls-4" x1="252.1" y1="86.41" x2="252.1" y2="95.41"/><line class="cls-4" x1="257.1" y1="86.41" x2="257.1" y2="92.41"/><line class="cls-5" x1="242.1" y1="86.41" x2="242.1" y2="75.41"/><line class="cls-5" x1="247.1" y1="86.41" x2="247.1" y2="78.41"/><line class="cls-5" x1="261.1" y1="86.41" x2="261.1" y2="78.41"/><line class="cls-5" x1="266.1" y1="86.41" x2="266.1" y2="71.41"/><polyline class="cls-4" points="182 76 192 72 203 76 210 72 218 75"/><circle class="cls-6" cx="182.5" cy="76.5" r="1.5"/><circle class="cls-6" cx="192.5" cy="71.5" r="1.5"/><circle class="cls-6" cx="202.5" cy="75.5" r="1.5"/><circle class="cls-6" cx="209.5" cy="72.5" r="1.5"/><circle class="cls-6" cx="217.5" cy="74.5" r="1.5"/><line class="cls-3" x1="181.5" y1="91.5" x2="214.5" y2="91.5"/><line class="cls-5" x1="181.5" y1="95.5" x2="205" y2="95.5"/><rect class="cls-3" x="227.12" y="27.07" width="44.6" height="33.18"/><path class="cls-4" d="M249.42,31.24a12.42,12.42,0,1,0,0,24.84"/><path class="cls-4" d="M249.42,56.08a12.42,12.42,0,0,0,12.42-12.42"/><path class="cls-5" d="M249.42,31.24a12.42,12.42,0,0,1,12.42,12.42H249.42Z"/><rect class="cls-3" x="128.43" y="27.07" width="44.6" height="33.18"/><circle class="cls-3" cx="155.5" cy="43.5" r="12.5"/><circle class="cls-3" cx="137" cy="36" r="3"/><circle class="cls-6" cx="142" cy="50" r="5"/><rect class="cls-3" x="128.43" y="66.82" width="44.6" height="33.18"/><polygon class="cls-2" points="131.22 71.83 133.12 78.63 126.48 76.58 102.54 52.65 107.29 47.9 131.22 71.83"/><line class="cls-2" x1="126.45" y1="76.29" x2="130.88" y2="71.86"/><rect class="cls-6" x="100.31" y="46.79" width="6.71" height="4.46" transform="translate(-4.3 87.66) rotate(-45)"/><path class="cls-7" d="M134,79c3.5,0,3.5,10,7,10s3.49-10,7-10,3.5,10,7,10,3.5-10,7-10,3.5,10,7,10"/><path class="cls-8" d="M134,79c3.5,0,3.5,10,7,10s3.49-10,7-10,3.5,10,7,10,3.5-10,7-10,3.5,10,7,10"/><rect class="cls-3" x="177.81" y="27.07" width="44.6" height="33.18"/><rect class="cls-2" x="187.11" y="42.66" width="11" height="11"/><rect class="cls-6" x="202.11" y="33.66" width="11" height="20"/><line class="cls-3" x1="182.11" y1="53.66" x2="218.11" y2="53.66"/><line class="cls-1" x1="111" y1="70" x2="50" y2="70"/><line class="cls-1" x1="39" y1="70" x2="44" y2="70"/><line class="cls-1" x1="100" y1="61" x2="91" y2="61"/><line class="cls-1" x1="84" y1="61" x2="50" y2="61"/><line class="cls-1" x1="91" y1="79" x2="100" y2="79"/><line class="cls-1" x1="107" y1="79" x2="112" y2="79"/><line class="cls-1" x1="84" y1="79" x2="43" y2="79"/><line class="cls-1" x1="295" y1="91" x2="313" y2="91"/></svg>