<svg id="Layer_1" data-name="Layer 1" xmlns="http://www.w3.org/2000/svg" viewBox="0 0 400 140"><defs><style>.cls-1,.cls-2,.cls-5{fill:#fff;}.cls-1,.cls-3,.cls-5,.cls-6{stroke:#000;}.cls-1,.cls-2,.cls-3,.cls-4,.cls-5,.cls-8{stroke-miterlimit:10;}.cls-1,.cls-2,.cls-3,.cls-4,.cls-5,.cls-6,.cls-7,.cls-8{stroke-width:2px;}.cls-2,.cls-7,.cls-8{stroke:#f2c811;}.cls-3,.cls-4,.cls-6,.cls-7,.cls-8{fill:none;}.cls-4{stroke:#ccc;}.cls-5,.cls-6,.cls-7{stroke-linecap:round;}.cls-6,.cls-7{stroke-linejoin:round;}</style></defs><rect class="cls-1" x="57.11" y="53.14" width="18.49" height="32.85"/><rect class="cls-2" x="85.33" y="59.71" width="18.49" height="26.28"/><rect class="cls-1" x="114.52" y="51.68" width="18.49" height="34.31"/><rect class="cls-2" x="144.68" y="40" width="18.49" height="45.99"/><line class="cls-3" x1="43" y1="85.99" x2="177.27" y2="85.99"/><line class="cls-4" x1="107" y1="106.16" x2="56.13" y2="106.16"/><line class="cls-4" x1="48.61" y1="106.16" x2="35.58" y2="106.16"/><line class="cls-4" x1="30" y1="97" x2="75.94" y2="97"/><line class="cls-4" x1="84.1" y1="97" x2="117" y2="97"/><line class="cls-4" x1="372" y1="38.32" x2="326.06" y2="38.32"/><line class="cls-4" x1="315.9" y1="38.32" x2="291" y2="38.32"/><line class="cls-4" x1="283" y1="48.48" x2="357.03" y2="48.48"/><line class="cls-4" x1="286" y1="68.16" x2="313.97" y2="68.16"/><line class="cls-4" x1="321.13" y1="68.16" x2="337.58" y2="68.16"/><line class="cls-4" x1="292" y1="58" x2="298.58" y2="58"/><line class="cls-4" x1="307.74" y1="58" x2="348.87" y2="58"/><rect class="cls-5" x="123.64" y="20.07" width="152.72" height="95.84"/><rect class="cls-5" x="129.09" y="25.74" width="142.59" height="74.02"/><path class="cls-1" d="M283,81.33A22.67,22.67,0,1,0,305.67,104"/><path class="cls-2" d="M283,81.33A22.67,22.67,0,0,1,305.67,104H283Z"/><path class="cls-6" d="M218.67,55.17l.86-3.68-.48-.29L215.42,49,215,46.2l3-3.8-2-3.21-.55.14-4.13,1L209,38.69l-.55-4.82L204.79,33l-.29.48-2.21,3.64-2.78.45-3.81-3-3.21,2,.14.55,1,4.13L192,43.52l-4.82.56-.86,3.68.48.29,3.64,2.2.45,2.79-3,3.8,2,3.21.55-.13,4.13-1,2.29,1.65.56,4.82,3.68.86.29-.48,2.2-3.63,2.79-.46,3.8,3,3.21-2-.13-.55-1-4.13,1.65-2.29Z"/><path class="cls-6" d="M247,85.22l2.72-3.55-.38-.55L246.53,77l.86-3.23,5.1-2.63-.59-4.43-.66-.12-4.94-.92-1.68-2.88,1.75-5.48-3.55-2.71-.55.38-4.15,2.85L234.9,57l-2.64-5.1-4.43.59-.12.66L226.8,58l-2.88,1.68L218.44,58l-2.71,3.55.37.55L219,66.22l-.86,3.22L213,72.08l.59,4.43.65.12,4.95.91,1.67,2.88-1.74,5.48,3.55,2.71.55-.38,4.14-2.85,3.23.86,2.63,5.1,4.43-.59.12-.65.92-4.95,2.88-1.68Z"/><path class="cls-7" d="M201.94,53.83a4.32,4.32,0,1,1,5.19-3.22A4.32,4.32,0,0,1,201.94,53.83Z"/><path class="cls-7" d="M229.64,75.66a5.12,5.12,0,1,1,7.17-1A5.11,5.11,0,0,1,229.64,75.66Z"/><rect class="cls-1" x="147.51" y="34.16" width="47.03" height="19.19"/><circle class="cls-1" cx="157.51" cy="43.76" r="1.98"/><path class="cls-8" d="M166.08,43.76h20.43"/><rect class="cls-1" x="147.51" y="52.19" width="47.03" height="19.19"/><circle class="cls-1" cx="157.51" cy="61.78" r="1.98"/><path class="cls-8" d="M166.08,61.78h20.43"/><rect class="cls-1" x="147.51" y="71" width="47.03" height="19.19"/><circle class="cls-1" cx="157.51" cy="80.59" r="1.98"/><path class="cls-8" d="M166.08,80.59h20.43"/></svg>