<?xml version="1.0" encoding="UTF-8"?>
<svg xmlns="http://www.w3.org/2000/svg" xmlns:xlink="http://www.w3.org/1999/xlink" width="135pt" height="101pt" viewBox="0 0 135 101" version="1.1">
<g id="surface1">
<path style=" stroke:none;fill-rule:nonzero;fill:rgb(94.509804%,78.431373%,9.019608%);fill-opacity:1;" d="M 32.964844 101 C 28.628906 101 25.117188 97.46875 25.117188 93.109375 L 25.117188 77.328125 C 25.117188 72.96875 28.628906 69.4375 32.964844 69.4375 C 37.300781 69.4375 40.8125 72.96875 40.8125 77.328125 L 40.8125 93.109375 C 40.8125 97.46875 37.300781 101 32.964844 101 Z M 62.789062 93.109375 L 62.789062 52.078125 C 62.789062 47.71875 59.277344 44.1875 54.941406 44.1875 C 50.605469 44.1875 47.09375 47.71875 47.09375 52.078125 L 47.09375 93.109375 C 47.09375 97.46875 50.605469 101 54.941406 101 C 59.277344 101 62.789062 97.46875 62.789062 93.109375 Z M 87.90625 93.109375 L 87.90625 61.546875 C 87.90625 57.1875 84.394531 53.65625 80.058594 53.65625 C 75.722656 53.65625 72.210938 57.1875 72.210938 61.546875 L 72.210938 93.109375 C 72.210938 97.46875 75.722656 101 80.058594 101 C 84.394531 101 87.90625 97.46875 87.90625 93.109375 Z M 109.882812 93.109375 L 109.882812 33.140625 C 109.882812 28.78125 106.371094 25.25 102.035156 25.25 C 97.699219 25.25 94.1875 28.78125 94.1875 33.140625 L 94.1875 93.109375 C 94.1875 97.46875 97.699219 101 102.035156 101 C 106.371094 101 109.882812 97.46875 109.882812 93.109375 Z M 119.300781 0 L 15.699219 0 C 7.042969 0 0 7.078125 0 15.78125 L 0 72.59375 C 0 81.296875 7.042969 88.375 15.699219 88.375 L 18.835938 88.375 L 18.835938 82.0625 L 15.699219 82.0625 C 10.503906 82.0625 6.277344 77.8125 6.277344 72.59375 L 6.277344 15.78125 C 6.277344 10.5625 10.503906 6.3125 15.699219 6.3125 L 119.300781 6.3125 C 124.496094 6.3125 128.722656 10.5625 128.722656 15.78125 L 128.722656 72.59375 C 128.722656 77.8125 124.496094 82.0625 119.300781 82.0625 L 116.164062 82.0625 L 116.164062 88.375 L 119.300781 88.375 C 127.957031 88.375 135 81.296875 135 72.59375 L 135 15.78125 C 135 7.078125 127.957031 0 119.300781 0 Z M 119.300781 0 "/>
</g>
</svg>
