<?xml version="1.0" encoding="utf-8"?>
<!-- Generator: Adobe Illustrator 22.1.0, SVG Export Plug-In . SVG Version: 6.00 Build 0)  -->
<svg version="1.1" id="Layer_1" xmlns="http://www.w3.org/2000/svg" xmlns:xlink="http://www.w3.org/1999/xlink" x="0px" y="0px"
	 width="43px" height="32px" viewBox="0 0 43 32" enable-background="new 0 0 43 32" xml:space="preserve">
<path fill="#F1C817" d="M10.5,32L10.5,32C9.119,32,8,30.881,8,29.5v-5c0-1.381,1.119-2.5,2.5-2.5h0c1.381,0,2.5,1.119,2.5,2.5v5
	C13,30.881,11.881,32,10.5,32z M20,29.5v-13c0-1.381-1.119-2.5-2.5-2.5h0c-1.381,0-2.5,1.119-2.5,2.5v13c0,1.381,1.119,2.5,2.5,2.5
	h0C18.881,32,20,30.881,20,29.5z M28,29.5v-10c0-1.381-1.119-2.5-2.5-2.5h0c-1.381,0-2.5,1.119-2.5,2.5v10
	c0,1.381,1.119,2.5,2.5,2.5h0C26.881,32,28,30.881,28,29.5z M35,29.5v-19C35,9.119,33.881,8,32.5,8h0C31.119,8,30,9.119,30,10.5v19
	c0,1.381,1.119,2.5,2.5,2.5h0C33.881,32,35,30.881,35,29.5z M38,0H5C2.243,0,0,2.243,0,5v18c0,2.757,2.243,5,5,5h1v-2H5
	c-1.654,0-3-1.346-3-3V5c0-1.654,1.346-3,3-3h33c1.654,0,3,1.346,3,3v18c0,1.654-1.346,3-3,3h-1v2h1c2.757,0,5-2.243,5-5V5
	C43,2.243,40.757,0,38,0z"/>
</svg>
