<?xml version="1.0" encoding="utf-8"?>
<!-- Generator: Adobe Illustrator 22.1.0, SVG Export Plug-In . SVG Version: 6.00 Build 0)  -->
<svg version="1.1" id="Layer_1" xmlns="http://www.w3.org/2000/svg" xmlns:xlink="http://www.w3.org/1999/xlink" x="0px" y="0px"
	 width="33px" height="32px" viewBox="0 0 33 32" enable-background="new 0 0 33 32" xml:space="preserve">
<path fill="#F1C817" d="M29,2V0h-6.5c-2.212,0-4.31,0.751-6,2.132C14.811,0.751,12.713,0,10.5,0H4v2H0v30h33V2H29z M27,2v24h-4.5
	c-1.796,0-3.512,0.503-5,1.427V3.92C18.877,2.684,20.634,2,22.5,2H27z M6,2h4.5c1.866,0,3.623,0.684,5,1.92v23.507
	C14.012,26.502,12.296,26,10.5,26H6V2z M2,4h2v24h6.5c1.906,0,3.699,0.713,5.089,2H2V4z M31,30H17.411c1.39-1.287,3.183-2,5.089-2
	H29V4h2V30z"/>
</svg>
