<?xml version="1.0" encoding="utf-8"?>
<!-- Generator: Adobe Illustrator 22.1.0, SVG Export Plug-In . SVG Version: 6.00 Build 0)  -->
<svg version="1.1" id="Layer_1" xmlns="http://www.w3.org/2000/svg" xmlns:xlink="http://www.w3.org/1999/xlink" x="0px" y="0px"
	 width="184px" height="104px" viewBox="0 0 184 104" enable-background="new 0 0 184 104" xml:space="preserve">
<path fill="#F1C817" d="M184,104H56V0h128V104z M64,96h112V8H64V96z M160,24H80v8h80V24z M116,48H80v8h36V48z M116,72H80v8h36V72z
	 M160,80h-32V48h32V80z M136,72h16V56h-16V72z M48,24H0v8h48V24z M48,48H12v8h36V48z M48,72H24v8h24V72z"/>
<rect fill="none" width="184" height="104"/>
</svg>
