<?xml version="1.0" encoding="utf-8"?>
<!-- Generator: Adobe Illustrator 22.1.0, SVG Export Plug-In . SVG Version: 6.00 Build 0)  -->
<svg version="1.1" id="Layer_1" xmlns="http://www.w3.org/2000/svg" xmlns:xlink="http://www.w3.org/1999/xlink" x="0px" y="0px"
	 width="132px" height="128px" viewBox="0 0 132 128" enable-background="new 0 0 132 128" xml:space="preserve">
<path fill="#F1C817" d="M116,8V0H90c-8.848,0-17.24,3.004-24,8.528C59.244,3.004,50.852,0,42,0H16v8H0v120h132V8H116z M108,8v96H90
	c-7.184,0-14.048,2.012-20,5.708V15.68C75.508,10.736,82.536,8,90,8H108z M24,8h18c7.464,0,14.492,2.736,20,7.68v94.028
	c-5.952-3.7-12.816-5.708-20-5.708H24V8z M8,16h8v96h26c7.624,0,14.796,2.852,20.356,8H8V16z M124,120H69.644
	c5.56-5.148,12.732-8,20.356-8h26V16h8V120z"/>
</svg>
