<svg id="Layer_1" data-name="Layer 1" xmlns="http://www.w3.org/2000/svg" viewBox="0 0 400 140"><defs><style>.cls-1,.cls-5,.cls-6{fill:none;}.cls-1{stroke:#ccc;}.cls-1,.cls-2,.cls-4,.cls-5,.cls-6,.cls-7{stroke-miterlimit:10;}.cls-1,.cls-2,.cls-3,.cls-4,.cls-5,.cls-6,.cls-7{stroke-width:2px;}.cls-2,.cls-3,.cls-4,.cls-7{fill:#fff;}.cls-2,.cls-3,.cls-4,.cls-6{stroke:#000;}.cls-2,.cls-3{stroke-linecap:round;}.cls-3{stroke-linejoin:round;}.cls-5,.cls-7{stroke:#f2c811;}</style></defs><line class="cls-1" x1="268" y1="91" x2="279" y2="91"/><line class="cls-1" x1="287" y1="91" x2="308" y2="91"/><line class="cls-1" x1="316" y1="91" x2="327" y2="91"/><line class="cls-1" x1="273" y1="101" x2="295" y2="101"/><line class="cls-1" x1="303" y1="101" x2="313" y2="101"/><line class="cls-1" x1="321" y1="101" x2="332" y2="101"/><line class="cls-1" x1="285" y1="79" x2="288" y2="79"/><line class="cls-1" x1="293" y1="79" x2="299" y2="79"/><line class="cls-1" x1="305" y1="79" x2="313" y2="79"/><line class="cls-1" x1="320" y1="79" x2="347" y2="79"/><rect class="cls-2" x="126.8" y="18.2" width="146.39" height="93.94"/><rect class="cls-2" x="133.95" y="24.84" width="132.1" height="80.66"/><path class="cls-2" d="M274.08,121.8H125.92a10.93,10.93,0,0,1-7.4-2.76L113,114c-.58-.54-.13-1.4.74-1.4H286.24c.87,0,1.32.86.74,1.4l-5.5,5.09A10.93,10.93,0,0,1,274.08,121.8Z"/><line class="cls-2" x1="181.5" y1="117.17" x2="218.5" y2="117.17"/><polyline id="_Path_" data-name="&lt;Path&gt;" class="cls-3" points="290.99 76.4 291 81.83 254.33 81.87 254.33 76.44"/><polyline id="_Path_2" data-name="&lt;Path&gt;" class="cls-3" points="254.33 79.18 254.28 34.8 279.68 34.77 290.96 46.03 290.99 76.26"/><polygon id="_Path_3" data-name="&lt;Path&gt;" class="cls-3" points="279.69 46.04 290.96 46.03 279.68 34.77 279.69 46.04"/><polyline id="_Path_4" data-name="&lt;Path&gt;" class="cls-3" points="288.2 73.61 288.2 79.04 251.54 79.08 251.53 73.65"/><polyline id="_Path_5" data-name="&lt;Path&gt;" class="cls-3" points="251.53 76.39 251.49 32.01 276.88 31.98 288.17 43.24 288.2 73.47"/><polygon id="_Path_6" data-name="&lt;Path&gt;" class="cls-3" points="276.89 43.25 288.17 43.24 276.88 31.98 276.89 43.25"/><path class="cls-4" d="M277.46,58.06a7.64,7.64,0,1,0-12.57,5.84,4.27,4.27,0,0,1,1.1,1.46l.06.13a5.94,5.94,0,0,1,.56,2.52v3.21a1,1,0,0,0,1,1h4.13a1,1,0,0,0,1-1v-3a5.92,5.92,0,0,1,.7-2.79h0A4.25,4.25,0,0,1,274.59,64,7.64,7.64,0,0,0,277.46,58.06Z"/><line class="cls-5" x1="269.88" y1="62.38" x2="269.88" y2="67.96"/><line class="cls-5" x1="261.46" y1="49.26" x2="263.94" y2="51.12"/><line class="cls-5" x1="269.88" y1="45.54" x2="269.88" y2="49.26"/><line class="cls-5" x1="278.18" y1="49.26" x2="275.7" y2="51.12"/><line class="cls-6" x1="266.55" y1="67.98" x2="272.72" y2="67.98"/><rect class="cls-4" x="83.2" y="58.02" width="32.79" height="40.98"/><rect class="cls-4" x="115.25" y="58.02" width="32.79" height="40.98"/><path class="cls-4" d="M115.8,96.49A44,44,0,0,0,101.63,94a64,64,0,0,0-14.19,1.67v-41A58.11,58.11,0,0,1,101.72,53a55.49,55.49,0,0,1,14.08,1.67Z"/><path class="cls-4" d="M143.8,96.49A44,44,0,0,0,129.63,94a64,64,0,0,0-14.19,1.67v-41A58.11,58.11,0,0,1,129.72,53a55.49,55.49,0,0,1,14.08,1.67Z"/><rect class="cls-4" x="164.25" y="42.24" width="71.5" height="11.18"/><rect class="cls-7" x="164.25" y="59.01" width="51.53" height="11.18"/><rect class="cls-4" x="164.25" y="76.58" width="63.51" height="11.18"/><line class="cls-6" x1="164.25" y1="36.65" x2="164.25" y2="93.35"/><path class="cls-1" d="M50,33H92"/><path class="cls-1" d="M100,33h12"/><line class="cls-1" x1="62" y1="42.33" x2="78" y2="42.33"/><line class="cls-1" x1="85" y1="42.33" x2="91" y2="42.33"/><line class="cls-1" x1="99" y1="42.33" x2="118" y2="42.33"/></svg>