<svg xmlns="http://www.w3.org/2000/svg" width="24" height="24" viewBox="0 0 24 24"><path transform="scale(0.0117,-0.0117) translate(2, -2050)" d="M1024 256L1024 128L1280 128L1280 0L640 0L640 128L896 128L896 256L0 256L0 1408L1024 1408L895 1280L128 1280L128 384L1792 384L1792 1152L1920 1280L1920 256L1024 256M512 640Q539 640 562 650Q585 660 602.50 677.50Q620 695 630 718Q640 741 640 768Q640 817 657.50 861Q675 905 705.50 939Q736 973 777.50 995.50Q819 1018 868 1023L1579 1734Q1607 1762 1644 1777Q1681 1792 1720 1792Q1761 1792 1797.50 1776.50Q1834 1761 1861 1734Q1888 1707 1903.50 1670.50Q1919 1634 1919 1592Q1919 1553 1904 1516Q1889 1479 1861 1451L1150 740Q1145 692 1123 650Q1101 608 1066.50 577.50Q1032 547 988.50 529.50Q945 512 896 512L256 512L256 640L512 640M1720 1664Q1691 1664 1670 1643L1225 1198Q1282 1154 1326 1097L1771 1542Q1792 1563 1792 1592Q1792 1622 1770.50 1643Q1749 1664 1720 1664M1042 1015Q1103 975 1143 914L1235 1005Q1193 1065 1133 1107L1042 1015M1024 768Q1024 795 1014 818Q1004 841 986.50 858.50Q969 876 946 886Q923 896 896 896Q869 896 846 886Q823 876 805.50 858.50Q788 841 778 818Q768 795 768 768Q768 700 734 640L896 640Q922 640 945.50 650Q969 660 986.50 677.50Q1004 695 1014 718.50Q1024 742 1024 768Z"/></svg>