<?xml version="1.0" encoding="utf-8"?>
<!-- Generator: Adobe Illustrator 22.1.0, SVG Export Plug-In . SVG Version: 6.00 Build 0)  -->
<svg version="1.1" id="Layer_1" xmlns="http://www.w3.org/2000/svg" xmlns:xlink="http://www.w3.org/1999/xlink" x="0px" y="0px"
	 width="136px" height="128px" viewBox="0 0 136 128" enable-background="new 0 0 136 128" xml:space="preserve">
<path fill="#F1C817" d="M131.51,4.406c-5.78-5.788-15.875-5.788-21.655,0l-52.062,52.1c-7.892,1.905-13.795,8.987-13.795,17.465
	c0,5.52-4.488,10.008-10,10.008H15.998v8.006h45.998c8.472,0,15.547-5.905,17.451-13.807l52.062-52.1
	C137.477,20.098,137.477,10.379,131.51,4.406z M68.416,57.195l8.876-8.883c4.252,2.55,7.796,6.097,10.344,10.352l-8.876,8.883
	C76.932,62.791,73.168,59.024,68.416,57.195z M61.996,83.979H48.957c1.92-2.866,3.04-6.309,3.04-10.008
	c0-5.52,4.488-10.008,10-10.008s10,4.487,10,10.008C71.996,79.492,67.508,83.979,61.996,83.979z M125.854,20.418L93.487,52.811
	c-2.748-4.083-6.264-7.602-10.344-10.352L115.51,10.07c2.764-2.766,7.58-2.766,10.344,0
	C128.706,12.921,128.706,17.564,125.854,20.418z M71.996,107.998v12.009h19.999v8.006H43.997v-8.006h19.999v-12.009H-0.001V27.936
	h75.029l-8,8.006H7.998v64.049h119.995V40.918l8-8.006v75.086H71.996z"/>
<rect x="0.004" y="0.013" fill="none" width="135.995" height="127.948"/>
</svg>
