<?xml version="1.0" encoding="utf-8"?>
<!-- Generator: Adobe Illustrator 22.1.0, SVG Export Plug-In . SVG Version: 6.00 Build 0)  -->
<svg version="1.1" id="Layer_1" xmlns="http://www.w3.org/2000/svg" xmlns:xlink="http://www.w3.org/1999/xlink" x="0px" y="0px"
	 width="172px" height="128px" viewBox="0 0 172 128" enable-background="new 0 0 172 128" xml:space="preserve">
<path fill="#F1C817" d="M42,128L42,128c-5.524,0-10-4.476-10-10V98c0-5.524,4.476-10,10-10l0,0c5.524,0,10,4.476,10,10v20
	C52,123.524,47.524,128,42,128z M80,118V66c0-5.524-4.476-10-10-10l0,0c-5.524,0-10,4.476-10,10v52c0,5.524,4.476,10,10,10l0,0
	C75.524,128,80,123.524,80,118z M112,118V78c0-5.524-4.476-10-10-10l0,0c-5.524,0-10,4.476-10,10v40c0,5.524,4.476,10,10,10l0,0
	C107.524,128,112,123.524,112,118z M140,118V42c0-5.524-4.476-10-10-10l0,0c-5.524,0-10,4.476-10,10v76c0,5.524,4.476,10,10,10l0,0
	C135.524,128,140,123.524,140,118z M152,0H20C8.972,0,0,8.972,0,20v72c0,11.028,8.972,20,20,20h4v-8h-4c-6.616,0-12-5.384-12-12V20
	c0-6.616,5.384-12,12-12h132c6.616,0,12,5.384,12,12v72c0,6.616-5.384,12-12,12h-4v8h4c11.028,0,20-8.972,20-20V20
	C172,8.972,163.028,0,152,0z"/>
</svg>
