<svg id="Layer_1" data-name="Layer 1" xmlns="http://www.w3.org/2000/svg" viewBox="0 0 400 140"><defs><style>.cls-1,.cls-5{fill:#fff;}.cls-1,.cls-3,.cls-5,.cls-6{stroke:#000;}.cls-1{stroke-linecap:round;}.cls-1,.cls-2,.cls-3,.cls-4,.cls-5,.cls-6{stroke-miterlimit:10;stroke-width:2px;}.cls-2,.cls-4,.cls-6{fill:none;}.cls-2{stroke:#f4ca00;}.cls-3{fill:#f4ca00;}.cls-4{stroke:#ccc;}</style></defs><rect class="cls-1" x="123.64" y="15.07" width="152.72" height="95.84"/><rect class="cls-1" x="129.09" y="20.74" width="142.59" height="74.02"/><line class="cls-2" x1="176.43" y1="72.65" x2="176.43" y2="85"/><line class="cls-3" x1="186.53" y1="59.19" x2="186.53" y2="85"/><line class="cls-2" x1="196.63" y1="59.19" x2="196.63" y2="85"/><line class="cls-3" x1="205.61" y1="47.96" x2="205.61" y2="85"/><line class="cls-2" x1="214.59" y1="65.92" x2="214.59" y2="85"/><line class="cls-3" x1="223.57" y1="32.25" x2="223.57" y2="85"/><line class="cls-4" x1="41" y1="30" x2="59" y2="30"/><line class="cls-4" x1="73" y1="30" x2="82" y2="30"/><line class="cls-4" x1="63" y1="30" x2="68" y2="30"/><line class="cls-4" x1="88" y1="30" x2="110" y2="30"/><line class="cls-4" x1="51" y1="40" x2="59" y2="40"/><line class="cls-4" x1="98" y1="40" x2="116" y2="40"/><line class="cls-4" x1="64" y1="40" x2="91" y2="40"/><line class="cls-4" x1="33" y1="51" x2="80" y2="51"/><line class="cls-4" x1="86" y1="51" x2="105" y2="51"/><line class="cls-4" x1="69" y1="61" x2="90" y2="61"/><line class="cls-4" x1="97" y1="61" x2="111" y2="61"/><line class="cls-4" x1="294" y1="46" x2="325" y2="46"/><line class="cls-4" x1="333" y1="46" x2="364" y2="46"/><line class="cls-4" x1="284" y1="56" x2="311" y2="56"/><line class="cls-4" x1="316" y1="56" x2="333" y2="56"/><line class="cls-4" x1="339" y1="56" x2="372" y2="56"/><line class="cls-4" x1="307" y1="67" x2="317" y2="67"/><line class="cls-4" x1="322" y1="67" x2="333" y2="67"/><line class="cls-4" x1="338" y1="67" x2="359" y2="67"/><line class="cls-4" x1="317" y1="78" x2="344" y2="78"/><line class="cls-4" x1="350" y1="78" x2="368" y2="78"/><line class="cls-4" x1="308" y1="89" x2="323" y2="89"/><line class="cls-4" x1="328" y1="89" x2="364" y2="89"/><rect class="cls-5" x="75.72" y="71.36" width="83.28" height="54.69"/><polyline class="cls-6" points="86.64 97.27 95.25 107.34 105.59 93.91 115.35 103.03 130.86 83.36 141.2 91.03 150.38 82.88"/><path class="cls-2" d="M89.51,112.14c1.15,1,6.31,5.76,6.31,5.76l12.07-11,11.48,11,11.49-18.71,9.76,5.76,10.34-11"/></svg>