<svg width="1500" height="935" viewBox="0 0 1500 935" fill="none" xmlns="http://www.w3.org/2000/svg">
<rect width="1500" height="935" fill="white"/>
<rect width="1500" height="935" fill="url(#paint0_linear_7_884)" fill-opacity="0.05"/>
<rect width="1500" height="935" fill="url(#paint1_radial_7_884)" fill-opacity="0.08"/>
<rect x="0.5" y="0.5" width="1499" height="934" stroke="#333333" stroke-opacity="0.2"/>
<g filter="url(#filter0_d_7_884)">
<path d="M364 654C364 648.477 368.477 644 374 644H583C585.695 644 588.275 645.088 590.157 647.016L629.186 687.016C632.976 690.901 632.976 697.099 629.186 700.984L590.157 740.984C588.275 742.912 585.695 744 583 744H374C368.477 744 364 739.523 364 734V654Z" fill="url(#paint2_linear_7_884)"/>
<path d="M364.5 654C364.5 648.753 368.753 644.5 374 644.5H583C585.56 644.5 588.012 645.533 589.8 647.366L628.828 687.366C632.429 691.056 632.429 696.944 628.828 700.634L589.8 740.634C588.012 742.467 585.56 743.5 583 743.5H374C368.753 743.5 364.5 739.247 364.5 734V654Z" stroke="#063D3B"/>
</g>
<g filter="url(#filter1_d_7_884)">
<path d="M702 654C702 648.477 706.477 644 712 644H921C923.695 644 926.275 645.088 928.157 647.016L967.186 687.016C970.976 690.901 970.976 697.099 967.186 700.984L928.157 740.984C926.275 742.912 923.695 744 921 744H712C706.477 744 702 739.523 702 734V654Z" fill="url(#paint3_linear_7_884)"/>
<path d="M702.5 654C702.5 648.753 706.753 644.5 712 644.5H921C923.56 644.5 926.012 645.533 927.8 647.366L966.828 687.366C970.429 691.056 970.429 696.944 966.828 700.634L927.8 740.634C926.012 742.467 923.56 743.5 921 743.5H712C706.753 743.5 702.5 739.247 702.5 734V654Z" stroke="#063D3B"/>
</g>
<g filter="url(#filter2_d_7_884)">
<path d="M1040 654C1040 648.477 1044.48 644 1050 644H1259C1261.69 644 1264.28 645.088 1266.16 647.016L1305.19 687.016C1308.98 690.901 1308.98 697.099 1305.19 700.984L1266.16 740.984C1264.28 742.912 1261.69 744 1259 744H1050C1044.48 744 1040 739.523 1040 734V654Z" fill="url(#paint4_linear_7_884)"/>
<path d="M1040.5 654C1040.5 648.753 1044.75 644.5 1050 644.5H1259C1261.56 644.5 1264.01 645.533 1265.8 647.366L1304.83 687.366C1308.43 691.056 1308.43 696.944 1304.83 700.634L1265.8 740.634C1264.01 742.467 1261.56 743.5 1259 743.5H1050C1044.75 743.5 1040.5 739.247 1040.5 734V654Z" stroke="#063D3B"/>
</g>
<path d="M457.184 691.344H447.762V698.92H456.445V702.453H447.762V713H443.578V687.793H457.184V691.344ZM473.812 713H469.857V710.188H469.787C468.545 712.344 466.723 713.422 464.32 713.422C462.551 713.422 461.162 712.941 460.154 711.98C459.158 711.02 458.66 709.748 458.66 708.166C458.66 704.768 460.617 702.787 464.531 702.225L469.875 701.469C469.875 698.902 468.656 697.619 466.219 697.619C464.074 697.619 462.141 698.357 460.418 699.834V696.266C462.316 695.141 464.508 694.578 466.992 694.578C471.539 694.578 473.812 696.816 473.812 701.293V713ZM469.875 704.158L466.096 704.686C464.924 704.838 464.039 705.125 463.441 705.547C462.855 705.957 462.562 706.684 462.562 707.727C462.562 708.488 462.832 709.115 463.371 709.607C463.922 710.088 464.654 710.328 465.568 710.328C466.811 710.328 467.836 709.895 468.645 709.027C469.465 708.148 469.875 707.047 469.875 705.723V704.158ZM482.953 710.398H482.883V713H478.805V686.352H482.883V698.164H482.953C484.348 695.773 486.387 694.578 489.07 694.578C491.344 694.578 493.119 695.387 494.396 697.004C495.686 698.609 496.33 700.766 496.33 703.473C496.33 706.484 495.609 708.898 494.168 710.715C492.727 712.52 490.758 713.422 488.262 713.422C485.918 713.422 484.148 712.414 482.953 710.398ZM482.848 703.244V705.477C482.848 706.789 483.264 707.902 484.096 708.816C484.939 709.73 486.006 710.188 487.295 710.188C488.807 710.188 489.99 709.602 490.846 708.43C491.713 707.246 492.146 705.6 492.146 703.49C492.146 701.721 491.742 700.338 490.934 699.342C490.137 698.334 489.053 697.83 487.682 697.83C486.229 697.83 485.057 698.346 484.166 699.377C483.287 700.408 482.848 701.697 482.848 703.244ZM510.938 698.885C510.445 698.498 509.736 698.305 508.811 698.305C507.604 698.305 506.596 698.85 505.787 699.939C504.979 701.029 504.574 702.512 504.574 704.387V713H500.496V695H504.574V698.709H504.645C505.043 697.443 505.652 696.459 506.473 695.756C507.305 695.041 508.23 694.684 509.25 694.684C509.988 694.684 510.551 694.795 510.938 695.018V698.885ZM515.877 691.221C515.209 691.221 514.635 691.004 514.154 690.57C513.686 690.137 513.451 689.586 513.451 688.918C513.451 688.25 513.686 687.693 514.154 687.248C514.635 686.803 515.209 686.58 515.877 686.58C516.568 686.58 517.154 686.803 517.635 687.248C518.115 687.693 518.355 688.25 518.355 688.918C518.355 689.551 518.115 690.096 517.635 690.553C517.154 690.998 516.568 691.221 515.877 691.221ZM517.898 713H513.82V695H517.898V713ZM536.127 712.174C534.686 713.006 532.98 713.422 531.012 713.422C528.34 713.422 526.184 712.59 524.543 710.926C522.902 709.25 522.082 707.082 522.082 704.422C522.082 701.457 522.961 699.078 524.719 697.285C526.488 695.48 528.85 694.578 531.803 694.578C533.443 694.578 534.891 694.865 536.145 695.439V699.236C534.891 698.299 533.555 697.83 532.137 697.83C530.414 697.83 529.002 698.416 527.9 699.588C526.799 700.748 526.248 702.271 526.248 704.158C526.248 706.021 526.764 707.492 527.795 708.57C528.838 709.648 530.232 710.188 531.979 710.188C533.443 710.188 534.826 709.666 536.127 708.623V712.174Z" fill="#063D3B"/>
<path d="M795.184 683.344H785.762V690.92H794.445V694.453H785.762V705H781.578V679.793H795.184V683.344ZM811.812 705H807.857V702.188H807.787C806.545 704.344 804.723 705.422 802.32 705.422C800.551 705.422 799.162 704.941 798.154 703.98C797.158 703.02 796.66 701.748 796.66 700.166C796.66 696.768 798.617 694.787 802.531 694.225L807.875 693.469C807.875 690.902 806.656 689.619 804.219 689.619C802.074 689.619 800.141 690.357 798.418 691.834V688.266C800.316 687.141 802.508 686.578 804.992 686.578C809.539 686.578 811.812 688.816 811.812 693.293V705ZM807.875 696.158L804.096 696.686C802.924 696.838 802.039 697.125 801.441 697.547C800.855 697.957 800.562 698.684 800.562 699.727C800.562 700.488 800.832 701.115 801.371 701.607C801.922 702.088 802.654 702.328 803.568 702.328C804.811 702.328 805.836 701.895 806.645 701.027C807.465 700.148 807.875 699.047 807.875 697.723V696.158ZM820.953 702.398H820.883V705H816.805V678.352H820.883V690.164H820.953C822.348 687.773 824.387 686.578 827.07 686.578C829.344 686.578 831.119 687.387 832.396 689.004C833.686 690.609 834.33 692.766 834.33 695.473C834.33 698.484 833.609 700.898 832.168 702.715C830.727 704.52 828.758 705.422 826.262 705.422C823.918 705.422 822.148 704.414 820.953 702.398ZM820.848 695.244V697.477C820.848 698.789 821.264 699.902 822.096 700.816C822.939 701.73 824.006 702.188 825.295 702.188C826.807 702.188 827.99 701.602 828.846 700.43C829.713 699.246 830.146 697.6 830.146 695.49C830.146 693.721 829.742 692.338 828.934 691.342C828.137 690.334 827.053 689.83 825.682 689.83C824.229 689.83 823.057 690.346 822.166 691.377C821.287 692.408 820.848 693.697 820.848 695.244ZM848.938 690.885C848.445 690.498 847.736 690.305 846.811 690.305C845.604 690.305 844.596 690.85 843.787 691.939C842.979 693.029 842.574 694.512 842.574 696.387V705H838.496V687H842.574V690.709H842.645C843.043 689.443 843.652 688.459 844.473 687.756C845.305 687.041 846.23 686.684 847.25 686.684C847.988 686.684 848.551 686.795 848.938 687.018V690.885ZM853.877 683.221C853.209 683.221 852.635 683.004 852.154 682.57C851.686 682.137 851.451 681.586 851.451 680.918C851.451 680.25 851.686 679.693 852.154 679.248C852.635 678.803 853.209 678.58 853.877 678.58C854.568 678.58 855.154 678.803 855.635 679.248C856.115 679.693 856.355 680.25 856.355 680.918C856.355 681.551 856.115 682.096 855.635 682.553C855.154 682.998 854.568 683.221 853.877 683.221ZM855.898 705H851.82V687H855.898V705ZM874.127 704.174C872.686 705.006 870.98 705.422 869.012 705.422C866.34 705.422 864.184 704.59 862.543 702.926C860.902 701.25 860.082 699.082 860.082 696.422C860.082 693.457 860.961 691.078 862.719 689.285C864.488 687.48 866.85 686.578 869.803 686.578C871.443 686.578 872.891 686.865 874.145 687.439V691.236C872.891 690.299 871.555 689.83 870.137 689.83C868.414 689.83 867.002 690.416 865.9 691.588C864.799 692.748 864.248 694.271 864.248 696.158C864.248 698.021 864.764 699.492 865.795 700.57C866.838 701.648 868.232 702.188 869.979 702.188C871.443 702.188 872.826 701.666 874.127 700.623V704.174Z" fill="#063D3B"/>
<path d="M1133.18 683.344H1123.76V690.92H1132.45V694.453H1123.76V705H1119.58V679.793H1133.18V683.344ZM1149.81 705H1145.86V702.188H1145.79C1144.54 704.344 1142.72 705.422 1140.32 705.422C1138.55 705.422 1137.16 704.941 1136.15 703.98C1135.16 703.02 1134.66 701.748 1134.66 700.166C1134.66 696.768 1136.62 694.787 1140.53 694.225L1145.88 693.469C1145.88 690.902 1144.66 689.619 1142.22 689.619C1140.07 689.619 1138.14 690.357 1136.42 691.834V688.266C1138.32 687.141 1140.51 686.578 1142.99 686.578C1147.54 686.578 1149.81 688.816 1149.81 693.293V705ZM1145.88 696.158L1142.1 696.686C1140.92 696.838 1140.04 697.125 1139.44 697.547C1138.86 697.957 1138.56 698.684 1138.56 699.727C1138.56 700.488 1138.83 701.115 1139.37 701.607C1139.92 702.088 1140.65 702.328 1141.57 702.328C1142.81 702.328 1143.84 701.895 1144.64 701.027C1145.46 700.148 1145.88 699.047 1145.88 697.723V696.158ZM1158.95 702.398H1158.88V705H1154.8V678.352H1158.88V690.164H1158.95C1160.35 687.773 1162.39 686.578 1165.07 686.578C1167.34 686.578 1169.12 687.387 1170.4 689.004C1171.69 690.609 1172.33 692.766 1172.33 695.473C1172.33 698.484 1171.61 700.898 1170.17 702.715C1168.73 704.52 1166.76 705.422 1164.26 705.422C1161.92 705.422 1160.15 704.414 1158.95 702.398ZM1158.85 695.244V697.477C1158.85 698.789 1159.26 699.902 1160.1 700.816C1160.94 701.73 1162.01 702.188 1163.29 702.188C1164.81 702.188 1165.99 701.602 1166.85 700.43C1167.71 699.246 1168.15 697.6 1168.15 695.49C1168.15 693.721 1167.74 692.338 1166.93 691.342C1166.14 690.334 1165.05 689.83 1163.68 689.83C1162.23 689.83 1161.06 690.346 1160.17 691.377C1159.29 692.408 1158.85 693.697 1158.85 695.244ZM1186.94 690.885C1186.45 690.498 1185.74 690.305 1184.81 690.305C1183.6 690.305 1182.6 690.85 1181.79 691.939C1180.98 693.029 1180.57 694.512 1180.57 696.387V705H1176.5V687H1180.57V690.709H1180.64C1181.04 689.443 1181.65 688.459 1182.47 687.756C1183.3 687.041 1184.23 686.684 1185.25 686.684C1185.99 686.684 1186.55 686.795 1186.94 687.018V690.885ZM1191.88 683.221C1191.21 683.221 1190.63 683.004 1190.15 682.57C1189.69 682.137 1189.45 681.586 1189.45 680.918C1189.45 680.25 1189.69 679.693 1190.15 679.248C1190.63 678.803 1191.21 678.58 1191.88 678.58C1192.57 678.58 1193.15 678.803 1193.63 679.248C1194.12 679.693 1194.36 680.25 1194.36 680.918C1194.36 681.551 1194.12 682.096 1193.63 682.553C1193.15 682.998 1192.57 683.221 1191.88 683.221ZM1193.9 705H1189.82V687H1193.9V705ZM1212.13 704.174C1210.69 705.006 1208.98 705.422 1207.01 705.422C1204.34 705.422 1202.18 704.59 1200.54 702.926C1198.9 701.25 1198.08 699.082 1198.08 696.422C1198.08 693.457 1198.96 691.078 1200.72 689.285C1202.49 687.48 1204.85 686.578 1207.8 686.578C1209.44 686.578 1210.89 686.865 1212.14 687.439V691.236C1210.89 690.299 1209.55 689.83 1208.14 689.83C1206.41 689.83 1205 690.416 1203.9 691.588C1202.8 692.748 1202.25 694.271 1202.25 696.158C1202.25 698.021 1202.76 699.492 1203.79 700.57C1204.84 701.648 1206.23 702.188 1207.98 702.188C1209.44 702.188 1210.83 701.666 1212.13 700.623V704.174Z" fill="#063D3B"/>
<path d="M221.398 142H213.148L210.758 134.523H198.805L196.438 142H188.234L200.469 108.391H209.445L221.398 142ZM209.023 128.711L205.414 117.414C205.148 116.57 204.961 115.562 204.852 114.391H204.664C204.586 115.375 204.391 116.352 204.078 117.32L200.422 128.711H209.023ZM232.367 139.211H232.273V153.039H224.867V118H232.273V121.609H232.367C234.195 118.812 236.766 117.414 240.078 117.414C243.188 117.414 245.586 118.484 247.273 120.625C248.977 122.75 249.828 125.648 249.828 129.32C249.828 133.32 248.836 136.531 246.852 138.953C244.883 141.375 242.258 142.586 238.977 142.586C236.086 142.586 233.883 141.461 232.367 139.211ZM232.156 129.367V131.289C232.156 132.945 232.594 134.297 233.469 135.344C234.344 136.391 235.492 136.914 236.914 136.914C238.602 136.914 239.906 136.266 240.828 134.969C241.766 133.656 242.234 131.805 242.234 129.414C242.234 125.195 240.594 123.086 237.312 123.086C235.797 123.086 234.555 123.664 233.586 124.82C232.633 125.961 232.156 127.477 232.156 129.367ZM262.133 139.211H262.039V153.039H254.633V118H262.039V121.609H262.133C263.961 118.812 266.531 117.414 269.844 117.414C272.953 117.414 275.352 118.484 277.039 120.625C278.742 122.75 279.594 125.648 279.594 129.32C279.594 133.32 278.602 136.531 276.617 138.953C274.648 141.375 272.023 142.586 268.742 142.586C265.852 142.586 263.648 141.461 262.133 139.211ZM261.922 129.367V131.289C261.922 132.945 262.359 134.297 263.234 135.344C264.109 136.391 265.258 136.914 266.68 136.914C268.367 136.914 269.672 136.266 270.594 134.969C271.531 133.656 272 131.805 272 129.414C272 125.195 270.359 123.086 267.078 123.086C265.562 123.086 264.32 123.664 263.352 124.82C262.398 125.961 261.922 127.477 261.922 129.367ZM300.055 124.68C299.164 124.195 298.125 123.953 296.938 123.953C295.328 123.953 294.07 124.547 293.164 125.734C292.258 126.906 291.805 128.508 291.805 130.539V142H284.398V118H291.805V122.453H291.898C293.07 119.203 295.18 117.578 298.227 117.578C299.008 117.578 299.617 117.672 300.055 117.859V124.68ZM314.773 142.586C310.773 142.586 307.625 141.469 305.328 139.234C303.047 136.984 301.906 133.938 301.906 130.094C301.906 126.125 303.094 123.023 305.469 120.789C307.844 118.539 311.055 117.414 315.102 117.414C319.086 117.414 322.211 118.539 324.477 120.789C326.742 123.023 327.875 125.984 327.875 129.672C327.875 133.656 326.703 136.805 324.359 139.117C322.031 141.43 318.836 142.586 314.773 142.586ZM314.961 123.086C313.211 123.086 311.852 123.688 310.883 124.891C309.914 126.094 309.43 127.797 309.43 130C309.43 134.609 311.289 136.914 315.008 136.914C318.555 136.914 320.328 134.547 320.328 129.812C320.328 125.328 318.539 123.086 314.961 123.086ZM352.18 142H345.172V138.555H345.078C343.469 141.242 341.086 142.586 337.93 142.586C335.602 142.586 333.766 141.93 332.422 140.617C331.094 139.289 330.43 137.523 330.43 135.32C330.43 130.664 333.188 127.977 338.703 127.258L345.219 126.391C345.219 123.766 343.797 122.453 340.953 122.453C338.094 122.453 335.375 123.305 332.797 125.008V119.43C333.828 118.898 335.234 118.43 337.016 118.023C338.812 117.617 340.445 117.414 341.914 117.414C348.758 117.414 352.18 120.828 352.18 127.656V142ZM345.219 132.25V130.633L340.859 131.195C338.453 131.508 337.25 132.594 337.25 134.453C337.25 135.297 337.539 135.992 338.117 136.539C338.711 137.07 339.508 137.336 340.508 137.336C341.898 137.336 343.031 136.859 343.906 135.906C344.781 134.938 345.219 133.719 345.219 132.25ZM376.227 141.133C374.555 142.102 372.141 142.586 368.984 142.586C365.297 142.586 362.312 141.469 360.031 139.234C357.75 137 356.609 134.117 356.609 130.586C356.609 126.508 357.828 123.297 360.266 120.953C362.719 118.594 365.992 117.414 370.086 117.414C372.914 117.414 374.961 117.789 376.227 118.539V124.82C374.68 123.664 372.953 123.086 371.047 123.086C368.922 123.086 367.234 123.711 365.984 124.961C364.75 126.195 364.133 127.906 364.133 130.094C364.133 132.219 364.727 133.891 365.914 135.109C367.102 136.312 368.734 136.914 370.812 136.914C372.656 136.914 374.461 136.336 376.227 135.18V141.133ZM404.141 142H396.758V128.359C396.758 124.844 395.477 123.086 392.914 123.086C391.602 123.086 390.539 123.578 389.727 124.562C388.914 125.547 388.508 126.797 388.508 128.312V142H381.102V106.469H388.508V121.562H388.602C390.414 118.797 392.875 117.414 395.984 117.414C401.422 117.414 404.141 120.695 404.141 127.258V142ZM431.586 132.109H415.93C416.18 135.594 418.375 137.336 422.516 137.336C425.156 137.336 427.477 136.711 429.477 135.461V140.805C427.258 141.992 424.375 142.586 420.828 142.586C416.953 142.586 413.945 141.516 411.805 139.375C409.664 137.219 408.594 134.219 408.594 130.375C408.594 126.391 409.75 123.234 412.062 120.906C414.375 118.578 417.219 117.414 420.594 117.414C424.094 117.414 426.797 118.453 428.703 120.531C430.625 122.609 431.586 125.43 431.586 128.992V132.109ZM424.719 127.562C424.719 124.125 423.328 122.406 420.547 122.406C419.359 122.406 418.328 122.898 417.453 123.883C416.594 124.867 416.07 126.094 415.883 127.562H424.719ZM434.422 141.367V135.367C435.641 136.102 436.852 136.648 438.055 137.008C439.273 137.367 440.422 137.547 441.5 137.547C442.812 137.547 443.844 137.367 444.594 137.008C445.359 136.648 445.742 136.102 445.742 135.367C445.742 134.898 445.57 134.508 445.227 134.195C444.883 133.883 444.438 133.609 443.891 133.375C443.359 133.141 442.773 132.93 442.133 132.742C441.492 132.555 440.875 132.344 440.281 132.109C439.328 131.75 438.484 131.367 437.75 130.961C437.031 130.539 436.422 130.055 435.922 129.508C435.438 128.961 435.062 128.328 434.797 127.609C434.547 126.891 434.422 126.039 434.422 125.055C434.422 123.711 434.711 122.555 435.289 121.586C435.883 120.617 436.664 119.828 437.633 119.219C438.617 118.594 439.734 118.141 440.984 117.859C442.25 117.562 443.562 117.414 444.922 117.414C445.984 117.414 447.062 117.5 448.156 117.672C449.25 117.828 450.328 118.062 451.391 118.375V124.094C450.453 123.547 449.445 123.141 448.367 122.875C447.305 122.594 446.258 122.453 445.227 122.453C444.742 122.453 444.281 122.5 443.844 122.594C443.422 122.672 443.047 122.797 442.719 122.969C442.391 123.125 442.133 123.336 441.945 123.602C441.758 123.852 441.664 124.141 441.664 124.469C441.664 124.906 441.805 125.281 442.086 125.594C442.367 125.906 442.734 126.18 443.188 126.414C443.641 126.633 444.141 126.836 444.688 127.023C445.25 127.195 445.805 127.375 446.352 127.562C447.336 127.906 448.227 128.281 449.023 128.688C449.82 129.094 450.5 129.57 451.062 130.117C451.641 130.664 452.078 131.305 452.375 132.039C452.688 132.773 452.844 133.648 452.844 134.664C452.844 136.086 452.531 137.305 451.906 138.32C451.297 139.32 450.477 140.141 449.445 140.781C448.43 141.406 447.25 141.859 445.906 142.141C444.578 142.438 443.195 142.586 441.758 142.586C439.117 142.586 436.672 142.18 434.422 141.367ZM484.906 141.719C483.812 142.297 482.164 142.586 479.961 142.586C474.742 142.586 472.133 139.875 472.133 134.453V123.461H468.242V118H472.133V112.82L479.516 110.711V118H484.906V123.461H479.516V133.164C479.516 135.664 480.508 136.914 482.492 136.914C483.273 136.914 484.078 136.688 484.906 136.234V141.719ZM500.352 142.586C496.352 142.586 493.203 141.469 490.906 139.234C488.625 136.984 487.484 133.938 487.484 130.094C487.484 126.125 488.672 123.023 491.047 120.789C493.422 118.539 496.633 117.414 500.68 117.414C504.664 117.414 507.789 118.539 510.055 120.789C512.32 123.023 513.453 125.984 513.453 129.672C513.453 133.656 512.281 136.805 509.938 139.117C507.609 141.43 504.414 142.586 500.352 142.586ZM500.539 123.086C498.789 123.086 497.43 123.688 496.461 124.891C495.492 126.094 495.008 127.797 495.008 130C495.008 134.609 496.867 136.914 500.586 136.914C504.133 136.914 505.906 134.547 505.906 129.812C505.906 125.328 504.117 123.086 500.539 123.086ZM555.055 139.258C555.055 143.711 553.766 147.156 551.188 149.594C548.609 152.047 544.875 153.273 539.984 153.273C536.75 153.273 534.188 152.812 532.297 151.891V145.656C534.766 147.094 537.258 147.812 539.773 147.812C542.273 147.812 544.211 147.148 545.586 145.82C546.961 144.508 547.648 142.719 547.648 140.453V138.555H547.555C545.867 141.242 543.375 142.586 540.078 142.586C537.016 142.586 534.586 141.508 532.789 139.352C530.992 137.195 530.094 134.305 530.094 130.68C530.094 126.617 531.094 123.391 533.094 121C535.094 118.609 537.727 117.414 540.992 117.414C543.914 117.414 546.102 118.539 547.555 120.789H547.648V118H555.055V139.258ZM547.742 130.469V128.57C547.742 127.055 547.289 125.766 546.383 124.703C545.492 123.625 544.328 123.086 542.891 123.086C541.25 123.086 539.961 123.727 539.023 125.008C538.086 126.289 537.617 128.094 537.617 130.422C537.617 132.422 538.062 134.008 538.953 135.18C539.844 136.336 541.062 136.914 542.609 136.914C544.141 136.914 545.375 136.328 546.312 135.156C547.266 133.969 547.742 132.406 547.742 130.469ZM572.68 142.586C568.68 142.586 565.531 141.469 563.234 139.234C560.953 136.984 559.812 133.938 559.812 130.094C559.812 126.125 561 123.023 563.375 120.789C565.75 118.539 568.961 117.414 573.008 117.414C576.992 117.414 580.117 118.539 582.383 120.789C584.648 123.023 585.781 125.984 585.781 129.672C585.781 133.656 584.609 136.805 582.266 139.117C579.938 141.43 576.742 142.586 572.68 142.586ZM572.867 123.086C571.117 123.086 569.758 123.688 568.789 124.891C567.82 126.094 567.336 127.797 567.336 130C567.336 134.609 569.195 136.914 572.914 136.914C576.461 136.914 578.234 134.547 578.234 129.812C578.234 125.328 576.445 123.086 572.867 123.086ZM613.438 118L604.508 142H596.07L587.562 118H595.484L599.656 132.789C600.125 134.461 600.398 135.883 600.477 137.055H600.57C600.68 135.945 600.969 134.57 601.438 132.93L605.703 118H613.438ZM637.695 132.109H622.039C622.289 135.594 624.484 137.336 628.625 137.336C631.266 137.336 633.586 136.711 635.586 135.461V140.805C633.367 141.992 630.484 142.586 626.938 142.586C623.062 142.586 620.055 141.516 617.914 139.375C615.773 137.219 614.703 134.219 614.703 130.375C614.703 126.391 615.859 123.234 618.172 120.906C620.484 118.578 623.328 117.414 626.703 117.414C630.203 117.414 632.906 118.453 634.812 120.531C636.734 122.609 637.695 125.43 637.695 128.992V132.109ZM630.828 127.562C630.828 124.125 629.438 122.406 626.656 122.406C625.469 122.406 624.438 122.898 623.562 123.883C622.703 124.867 622.18 126.094 621.992 127.562H630.828ZM657.758 124.68C656.867 124.195 655.828 123.953 654.641 123.953C653.031 123.953 651.773 124.547 650.867 125.734C649.961 126.906 649.508 128.508 649.508 130.539V142H642.102V118H649.508V122.453H649.602C650.773 119.203 652.883 117.578 655.93 117.578C656.711 117.578 657.32 117.672 657.758 117.859V124.68ZM684.547 142H677.164V128.664C677.164 124.945 675.836 123.086 673.18 123.086C671.898 123.086 670.844 123.578 670.016 124.562C669.188 125.547 668.773 126.797 668.773 128.312V142H661.367V118H668.773V121.797H668.867C670.633 118.875 673.203 117.414 676.578 117.414C681.891 117.414 684.547 120.711 684.547 127.305V142ZM710.398 142H703.391V138.555H703.297C701.688 141.242 699.305 142.586 696.148 142.586C693.82 142.586 691.984 141.93 690.641 140.617C689.312 139.289 688.648 137.523 688.648 135.32C688.648 130.664 691.406 127.977 696.922 127.258L703.438 126.391C703.438 123.766 702.016 122.453 699.172 122.453C696.312 122.453 693.594 123.305 691.016 125.008V119.43C692.047 118.898 693.453 118.43 695.234 118.023C697.031 117.617 698.664 117.414 700.133 117.414C706.977 117.414 710.398 120.828 710.398 127.656V142ZM703.438 132.25V130.633L699.078 131.195C696.672 131.508 695.469 132.594 695.469 134.453C695.469 135.297 695.758 135.992 696.336 136.539C696.93 137.07 697.727 137.336 698.727 137.336C700.117 137.336 701.25 136.859 702.125 135.906C703 134.938 703.438 133.719 703.438 132.25ZM739.438 142H732.055V128.664C732.055 124.945 730.727 123.086 728.07 123.086C726.789 123.086 725.734 123.578 724.906 124.562C724.078 125.547 723.664 126.797 723.664 128.312V142H716.258V118H723.664V121.797H723.758C725.523 118.875 728.094 117.414 731.469 117.414C736.781 117.414 739.438 120.711 739.438 127.305V142ZM763.508 141.133C761.836 142.102 759.422 142.586 756.266 142.586C752.578 142.586 749.594 141.469 747.312 139.234C745.031 137 743.891 134.117 743.891 130.586C743.891 126.508 745.109 123.297 747.547 120.953C750 118.594 753.273 117.414 757.367 117.414C760.195 117.414 762.242 117.789 763.508 118.539V124.82C761.961 123.664 760.234 123.086 758.328 123.086C756.203 123.086 754.516 123.711 753.266 124.961C752.031 126.195 751.414 127.906 751.414 130.094C751.414 132.219 752.008 133.891 753.195 135.109C754.383 136.312 756.016 136.914 758.094 136.914C759.938 136.914 761.742 136.336 763.508 135.18V141.133ZM789.945 132.109H774.289C774.539 135.594 776.734 137.336 780.875 137.336C783.516 137.336 785.836 136.711 787.836 135.461V140.805C785.617 141.992 782.734 142.586 779.188 142.586C775.312 142.586 772.305 141.516 770.164 139.375C768.023 137.219 766.953 134.219 766.953 130.375C766.953 126.391 768.109 123.234 770.422 120.906C772.734 118.578 775.578 117.414 778.953 117.414C782.453 117.414 785.156 118.453 787.062 120.531C788.984 122.609 789.945 125.43 789.945 128.992V132.109ZM783.078 127.562C783.078 124.125 781.688 122.406 778.906 122.406C777.719 122.406 776.688 122.898 775.812 123.883C774.953 124.867 774.43 126.094 774.242 127.562H783.078ZM815.117 139.211H815.023V153.039H807.617V118H815.023V121.609H815.117C816.945 118.812 819.516 117.414 822.828 117.414C825.938 117.414 828.336 118.484 830.023 120.625C831.727 122.75 832.578 125.648 832.578 129.32C832.578 133.32 831.586 136.531 829.602 138.953C827.633 141.375 825.008 142.586 821.727 142.586C818.836 142.586 816.633 141.461 815.117 139.211ZM814.906 129.367V131.289C814.906 132.945 815.344 134.297 816.219 135.344C817.094 136.391 818.242 136.914 819.664 136.914C821.352 136.914 822.656 136.266 823.578 134.969C824.516 133.656 824.984 131.805 824.984 129.414C824.984 125.195 823.344 123.086 820.062 123.086C818.547 123.086 817.305 123.664 816.336 124.82C815.383 125.961 814.906 127.477 814.906 129.367ZM844.789 142H837.383V106.469H844.789V142ZM870.992 142H863.984V138.555H863.891C862.281 141.242 859.898 142.586 856.742 142.586C854.414 142.586 852.578 141.93 851.234 140.617C849.906 139.289 849.242 137.523 849.242 135.32C849.242 130.664 852 127.977 857.516 127.258L864.031 126.391C864.031 123.766 862.609 122.453 859.766 122.453C856.906 122.453 854.188 123.305 851.609 125.008V119.43C852.641 118.898 854.047 118.43 855.828 118.023C857.625 117.617 859.258 117.414 860.727 117.414C867.57 117.414 870.992 120.828 870.992 127.656V142ZM864.031 132.25V130.633L859.672 131.195C857.266 131.508 856.062 132.594 856.062 134.453C856.062 135.297 856.352 135.992 856.93 136.539C857.523 137.07 858.32 137.336 859.32 137.336C860.711 137.336 861.844 136.859 862.719 135.906C863.594 134.938 864.031 133.719 864.031 132.25ZM900.031 142H892.648V128.664C892.648 124.945 891.32 123.086 888.664 123.086C887.383 123.086 886.328 123.578 885.5 124.562C884.672 125.547 884.258 126.797 884.258 128.312V142H876.852V118H884.258V121.797H884.352C886.117 118.875 888.688 117.414 892.062 117.414C897.375 117.414 900.031 120.711 900.031 127.305V142ZM929.094 142H921.711V128.664C921.711 124.945 920.383 123.086 917.727 123.086C916.445 123.086 915.391 123.578 914.562 124.562C913.734 125.547 913.32 126.797 913.32 128.312V142H905.914V118H913.32V121.797H913.414C915.18 118.875 917.75 117.414 921.125 117.414C926.438 117.414 929.094 120.711 929.094 127.305V142ZM938.727 114.203C937.477 114.203 936.453 113.836 935.656 113.102C934.859 112.352 934.461 111.438 934.461 110.359C934.461 109.25 934.859 108.344 935.656 107.641C936.453 106.938 937.477 106.586 938.727 106.586C939.992 106.586 941.016 106.938 941.797 107.641C942.594 108.344 942.992 109.25 942.992 110.359C942.992 111.484 942.594 112.406 941.797 113.125C941.016 113.844 939.992 114.203 938.727 114.203ZM942.383 142H934.977V118H942.383V142ZM971.797 142H964.414V128.664C964.414 124.945 963.086 123.086 960.43 123.086C959.148 123.086 958.094 123.578 957.266 124.562C956.438 125.547 956.023 126.797 956.023 128.312V142H948.617V118H956.023V121.797H956.117C957.883 118.875 960.453 117.414 963.828 117.414C969.141 117.414 971.797 120.711 971.797 127.305V142ZM1001.21 139.258C1001.21 143.711 999.922 147.156 997.344 149.594C994.766 152.047 991.031 153.273 986.141 153.273C982.906 153.273 980.344 152.812 978.453 151.891V145.656C980.922 147.094 983.414 147.812 985.93 147.812C988.43 147.812 990.367 147.148 991.742 145.82C993.117 144.508 993.805 142.719 993.805 140.453V138.555H993.711C992.023 141.242 989.531 142.586 986.234 142.586C983.172 142.586 980.742 141.508 978.945 139.352C977.148 137.195 976.25 134.305 976.25 130.68C976.25 126.617 977.25 123.391 979.25 121C981.25 118.609 983.883 117.414 987.148 117.414C990.07 117.414 992.258 118.539 993.711 120.789H993.805V118H1001.21V139.258ZM993.898 130.469V128.57C993.898 127.055 993.445 125.766 992.539 124.703C991.648 123.625 990.484 123.086 989.047 123.086C987.406 123.086 986.117 123.727 985.18 125.008C984.242 126.289 983.773 128.094 983.773 130.422C983.773 132.422 984.219 134.008 985.109 135.18C986 136.336 987.219 136.914 988.766 136.914C990.297 136.914 991.531 136.328 992.469 135.156C993.422 133.969 993.898 132.406 993.898 130.469Z" fill="black" fill-opacity="0.6"/>
<line x1="188" y1="168" x2="1312" y2="168" stroke="#616161" stroke-opacity="0.33" stroke-width="2"/>
<g filter="url(#filter3_d_7_884)">
<path d="M705 232C705 226.477 709.477 222 715 222H1243.56C1245.77 222 1247.91 222.728 1249.66 224.072L1301.69 264.072C1306.89 268.075 1306.89 275.925 1301.69 279.928L1249.66 319.928C1247.91 321.272 1245.77 322 1243.56 322H715C709.477 322 705 317.523 705 312V232Z" fill="url(#paint5_linear_7_884)"/>
</g>
<g filter="url(#filter4_d_7_884)">
<path d="M217 232C217 226.477 221.477 222 227 222H713.379C715.719 222 717.984 222.82 719.781 224.318L767.781 264.318C772.579 268.316 772.579 275.684 767.781 279.682L719.781 319.682C717.984 321.18 715.719 322 713.379 322H227C221.477 322 217 317.523 217 312V232Z" fill="url(#paint6_linear_7_884)"/>
<path d="M217.5 232C217.5 226.753 221.753 222.5 227 222.5H713.379C715.602 222.5 717.754 223.279 719.461 224.702L767.461 264.702C772.019 268.5 772.019 275.5 767.461 279.298L719.461 319.298C717.754 320.721 715.602 321.5 713.379 321.5H227C221.753 321.5 217.5 317.247 217.5 312V232Z" stroke="#063D3B"/>
</g>
<g filter="url(#filter5_d_7_884)">
<path d="M705 447C705 441.477 709.477 437 715 437H1243.56C1245.77 437 1247.91 437.728 1249.66 439.072L1301.69 479.072C1306.89 483.075 1306.89 490.925 1301.69 494.928L1249.66 534.928C1247.91 536.272 1245.77 537 1243.56 537H715C709.477 537 705 532.523 705 527V447Z" fill="url(#paint7_linear_7_884)"/>
<path d="M705.5 447C705.5 441.753 709.753 437.5 715 437.5H1243.56C1245.66 437.5 1247.69 438.192 1249.35 439.469L1301.38 479.469C1306.33 483.271 1306.33 490.729 1301.38 494.531L1249.35 534.531C1247.69 535.808 1245.66 536.5 1243.56 536.5H715C709.753 536.5 705.5 532.247 705.5 527V447Z" stroke="#063D3B"/>
</g>
<path d="M396.965 283H392.078L388.053 276.25C387.689 275.629 387.332 275.102 386.98 274.668C386.641 274.223 386.289 273.859 385.926 273.578C385.574 273.297 385.188 273.092 384.766 272.963C384.344 272.834 383.869 272.77 383.342 272.77H381.654V283H377.488V257.793H385.785C386.969 257.793 388.059 257.934 389.055 258.215C390.051 258.496 390.918 258.924 391.656 259.498C392.395 260.061 392.969 260.77 393.379 261.625C393.801 262.469 394.012 263.459 394.012 264.596C394.012 265.486 393.877 266.307 393.607 267.057C393.35 267.795 392.975 268.457 392.482 269.043C392.002 269.617 391.416 270.109 390.725 270.52C390.045 270.93 389.277 271.246 388.422 271.469V271.539C388.879 271.797 389.277 272.084 389.617 272.4C389.957 272.705 390.279 273.021 390.584 273.35C390.889 273.678 391.188 274.053 391.48 274.475C391.785 274.885 392.119 275.365 392.482 275.916L396.965 283ZM381.654 261.186V269.377H385.135C385.779 269.377 386.371 269.277 386.91 269.078C387.461 268.879 387.936 268.592 388.334 268.217C388.732 267.842 389.043 267.385 389.266 266.846C389.488 266.307 389.6 265.703 389.6 265.035C389.6 263.828 389.219 262.885 388.457 262.205C387.695 261.525 386.6 261.186 385.17 261.186H381.654ZM406.457 283.422C403.68 283.422 401.459 282.584 399.795 280.908C398.143 279.221 397.316 276.988 397.316 274.211C397.316 271.188 398.178 268.826 399.9 267.127C401.635 265.428 403.967 264.578 406.896 264.578C409.709 264.578 411.9 265.404 413.471 267.057C415.041 268.709 415.826 271 415.826 273.93C415.826 276.801 414.977 279.104 413.277 280.838C411.59 282.561 409.316 283.422 406.457 283.422ZM406.65 267.83C405.057 267.83 403.797 268.387 402.871 269.5C401.945 270.613 401.482 272.148 401.482 274.105C401.482 275.992 401.951 277.48 402.889 278.57C403.826 279.648 405.08 280.188 406.65 280.188C408.256 280.188 409.486 279.654 410.342 278.588C411.209 277.521 411.643 276.004 411.643 274.035C411.643 272.055 411.209 270.525 410.342 269.447C409.486 268.369 408.256 267.83 406.65 267.83ZM424.088 283H419.992V256.352H424.088V283ZM433.51 283H429.414V256.352H433.51V283ZM456.73 283.422C453.953 283.422 451.732 282.584 450.068 280.908C448.416 279.221 447.59 276.988 447.59 274.211C447.59 271.188 448.451 268.826 450.174 267.127C451.908 265.428 454.24 264.578 457.17 264.578C459.982 264.578 462.174 265.404 463.744 267.057C465.314 268.709 466.1 271 466.1 273.93C466.1 276.801 465.25 279.104 463.551 280.838C461.863 282.561 459.59 283.422 456.73 283.422ZM456.924 267.83C455.33 267.83 454.07 268.387 453.145 269.5C452.219 270.613 451.756 272.148 451.756 274.105C451.756 275.992 452.225 277.48 453.162 278.57C454.1 279.648 455.354 280.188 456.924 280.188C458.529 280.188 459.76 279.654 460.615 278.588C461.482 277.521 461.916 276.004 461.916 274.035C461.916 272.055 461.482 270.525 460.615 269.447C459.76 268.369 458.529 267.83 456.924 267.83ZM485.963 283H481.885V280.152H481.814C480.631 282.332 478.791 283.422 476.295 283.422C472.041 283.422 469.914 280.867 469.914 275.758V265H473.992V275.336C473.992 278.57 475.24 280.188 477.736 280.188C478.943 280.188 479.934 279.742 480.707 278.852C481.492 277.961 481.885 276.795 481.885 275.354V265H485.963V283ZM500.781 282.807C499.984 283.205 498.936 283.404 497.635 283.404C494.143 283.404 492.396 281.729 492.396 278.377V268.199H489.391V265H492.396V260.834L496.475 259.674V265H500.781V268.199H496.475V277.199C496.475 278.266 496.668 279.027 497.055 279.484C497.441 279.941 498.086 280.17 498.988 280.17C499.68 280.17 500.277 279.971 500.781 279.572V282.807ZM528.273 261.344H518.852V268.92H527.535V272.453H518.852V283H514.668V257.793H528.273V261.344ZM544.902 283H540.947V280.188H540.877C539.635 282.344 537.812 283.422 535.41 283.422C533.641 283.422 532.252 282.941 531.244 281.98C530.248 281.02 529.75 279.748 529.75 278.166C529.75 274.768 531.707 272.787 535.621 272.225L540.965 271.469C540.965 268.902 539.746 267.619 537.309 267.619C535.164 267.619 533.23 268.357 531.508 269.834V266.266C533.406 265.141 535.598 264.578 538.082 264.578C542.629 264.578 544.902 266.816 544.902 271.293V283ZM540.965 274.158L537.186 274.686C536.014 274.838 535.129 275.125 534.531 275.547C533.945 275.957 533.652 276.684 533.652 277.727C533.652 278.488 533.922 279.115 534.461 279.607C535.012 280.088 535.744 280.328 536.658 280.328C537.9 280.328 538.926 279.895 539.734 279.027C540.555 278.148 540.965 277.047 540.965 275.723V274.158ZM554.043 280.398H553.973V283H549.895V256.352H553.973V268.164H554.043C555.438 265.773 557.477 264.578 560.16 264.578C562.434 264.578 564.209 265.387 565.486 267.004C566.775 268.609 567.42 270.766 567.42 273.473C567.42 276.484 566.699 278.898 565.258 280.715C563.816 282.52 561.848 283.422 559.352 283.422C557.008 283.422 555.238 282.414 554.043 280.398ZM553.938 273.244V275.477C553.938 276.789 554.354 277.902 555.186 278.816C556.029 279.73 557.096 280.188 558.385 280.188C559.896 280.188 561.08 279.602 561.936 278.43C562.803 277.246 563.236 275.6 563.236 273.49C563.236 271.721 562.832 270.338 562.023 269.342C561.227 268.334 560.143 267.83 558.771 267.83C557.318 267.83 556.146 268.346 555.256 269.377C554.377 270.408 553.938 271.697 553.938 273.244ZM582.027 268.885C581.535 268.498 580.826 268.305 579.9 268.305C578.693 268.305 577.686 268.85 576.877 269.939C576.068 271.029 575.664 272.512 575.664 274.387V283H571.586V265H575.664V268.709H575.734C576.133 267.443 576.742 266.459 577.562 265.756C578.395 265.041 579.32 264.684 580.34 264.684C581.078 264.684 581.641 264.795 582.027 265.018V268.885ZM586.967 261.221C586.299 261.221 585.725 261.004 585.244 260.57C584.775 260.137 584.541 259.586 584.541 258.918C584.541 258.25 584.775 257.693 585.244 257.248C585.725 256.803 586.299 256.58 586.967 256.58C587.658 256.58 588.244 256.803 588.725 257.248C589.205 257.693 589.445 258.25 589.445 258.918C589.445 259.551 589.205 260.096 588.725 260.553C588.244 260.998 587.658 261.221 586.967 261.221ZM588.988 283H584.91V265H588.988V283ZM607.217 282.174C605.775 283.006 604.07 283.422 602.102 283.422C599.43 283.422 597.273 282.59 595.633 280.926C593.992 279.25 593.172 277.082 593.172 274.422C593.172 271.457 594.051 269.078 595.809 267.285C597.578 265.48 599.939 264.578 602.893 264.578C604.533 264.578 605.98 264.865 607.234 265.439V269.236C605.98 268.299 604.645 267.83 603.227 267.83C601.504 267.83 600.092 268.416 598.99 269.588C597.889 270.748 597.338 272.271 597.338 274.158C597.338 276.021 597.854 277.492 598.885 278.57C599.928 279.648 601.322 280.188 603.068 280.188C604.533 280.188 605.916 279.666 607.217 278.623V282.174Z" fill="#063D3B"/>
<path d="M914.465 498H909.578L905.553 491.25C905.189 490.629 904.832 490.102 904.48 489.668C904.141 489.223 903.789 488.859 903.426 488.578C903.074 488.297 902.688 488.092 902.266 487.963C901.844 487.834 901.369 487.77 900.842 487.77H899.154V498H894.988V472.793H903.285C904.469 472.793 905.559 472.934 906.555 473.215C907.551 473.496 908.418 473.924 909.156 474.498C909.895 475.061 910.469 475.77 910.879 476.625C911.301 477.469 911.512 478.459 911.512 479.596C911.512 480.486 911.377 481.307 911.107 482.057C910.85 482.795 910.475 483.457 909.982 484.043C909.502 484.617 908.916 485.109 908.225 485.52C907.545 485.93 906.777 486.246 905.922 486.469V486.539C906.379 486.797 906.777 487.084 907.117 487.4C907.457 487.705 907.779 488.021 908.084 488.35C908.389 488.678 908.688 489.053 908.98 489.475C909.285 489.885 909.619 490.365 909.982 490.916L914.465 498ZM899.154 476.186V484.377H902.635C903.279 484.377 903.871 484.277 904.41 484.078C904.961 483.879 905.436 483.592 905.834 483.217C906.232 482.842 906.543 482.385 906.766 481.846C906.988 481.307 907.1 480.703 907.1 480.035C907.1 478.828 906.719 477.885 905.957 477.205C905.195 476.525 904.1 476.186 902.67 476.186H899.154ZM923.957 498.422C921.18 498.422 918.959 497.584 917.295 495.908C915.643 494.221 914.816 491.988 914.816 489.211C914.816 486.188 915.678 483.826 917.4 482.127C919.135 480.428 921.467 479.578 924.396 479.578C927.209 479.578 929.4 480.404 930.971 482.057C932.541 483.709 933.326 486 933.326 488.93C933.326 491.801 932.477 494.104 930.777 495.838C929.09 497.561 926.816 498.422 923.957 498.422ZM924.15 482.83C922.557 482.83 921.297 483.387 920.371 484.5C919.445 485.613 918.982 487.148 918.982 489.105C918.982 490.992 919.451 492.48 920.389 493.57C921.326 494.648 922.58 495.188 924.15 495.188C925.756 495.188 926.986 494.654 927.842 493.588C928.709 492.521 929.143 491.004 929.143 489.035C929.143 487.055 928.709 485.525 927.842 484.447C926.986 483.369 925.756 482.83 924.15 482.83ZM941.588 498H937.492V471.352H941.588V498ZM951.01 498H946.914V471.352H951.01V498ZM974.23 498.422C971.453 498.422 969.232 497.584 967.568 495.908C965.916 494.221 965.09 491.988 965.09 489.211C965.09 486.188 965.951 483.826 967.674 482.127C969.408 480.428 971.74 479.578 974.67 479.578C977.482 479.578 979.674 480.404 981.244 482.057C982.814 483.709 983.6 486 983.6 488.93C983.6 491.801 982.75 494.104 981.051 495.838C979.363 497.561 977.09 498.422 974.23 498.422ZM974.424 482.83C972.83 482.83 971.57 483.387 970.645 484.5C969.719 485.613 969.256 487.148 969.256 489.105C969.256 490.992 969.725 492.48 970.662 493.57C971.6 494.648 972.854 495.188 974.424 495.188C976.029 495.188 977.26 494.654 978.115 493.588C978.982 492.521 979.416 491.004 979.416 489.035C979.416 487.055 978.982 485.525 978.115 484.447C977.26 483.369 976.029 482.83 974.424 482.83ZM1003.46 498H999.385V495.152H999.314C998.131 497.332 996.291 498.422 993.795 498.422C989.541 498.422 987.414 495.867 987.414 490.758V480H991.492V490.336C991.492 493.57 992.74 495.188 995.236 495.188C996.443 495.188 997.434 494.742 998.207 493.852C998.992 492.961 999.385 491.795 999.385 490.354V480H1003.46V498ZM1018.28 497.807C1017.48 498.205 1016.44 498.404 1015.13 498.404C1011.64 498.404 1009.9 496.729 1009.9 493.377V483.199H1006.89V480H1009.9V475.834L1013.97 474.674V480H1018.28V483.199H1013.97V492.199C1013.97 493.266 1014.17 494.027 1014.55 494.484C1014.94 494.941 1015.59 495.17 1016.49 495.17C1017.18 495.17 1017.78 494.971 1018.28 494.572V497.807ZM1045.77 476.344H1036.35V483.92H1045.04V487.453H1036.35V498H1032.17V472.793H1045.77V476.344ZM1062.4 498H1058.45V495.188H1058.38C1057.13 497.344 1055.31 498.422 1052.91 498.422C1051.14 498.422 1049.75 497.941 1048.74 496.98C1047.75 496.02 1047.25 494.748 1047.25 493.166C1047.25 489.768 1049.21 487.787 1053.12 487.225L1058.46 486.469C1058.46 483.902 1057.25 482.619 1054.81 482.619C1052.66 482.619 1050.73 483.357 1049.01 484.834V481.266C1050.91 480.141 1053.1 479.578 1055.58 479.578C1060.13 479.578 1062.4 481.816 1062.4 486.293V498ZM1058.46 489.158L1054.69 489.686C1053.51 489.838 1052.63 490.125 1052.03 490.547C1051.45 490.957 1051.15 491.684 1051.15 492.727C1051.15 493.488 1051.42 494.115 1051.96 494.607C1052.51 495.088 1053.24 495.328 1054.16 495.328C1055.4 495.328 1056.43 494.895 1057.23 494.027C1058.05 493.148 1058.46 492.047 1058.46 490.723V489.158ZM1071.54 495.398H1071.47V498H1067.39V471.352H1071.47V483.164H1071.54C1072.94 480.773 1074.98 479.578 1077.66 479.578C1079.93 479.578 1081.71 480.387 1082.99 482.004C1084.28 483.609 1084.92 485.766 1084.92 488.473C1084.92 491.484 1084.2 493.898 1082.76 495.715C1081.32 497.52 1079.35 498.422 1076.85 498.422C1074.51 498.422 1072.74 497.414 1071.54 495.398ZM1071.44 488.244V490.477C1071.44 491.789 1071.85 492.902 1072.69 493.816C1073.53 494.73 1074.6 495.188 1075.88 495.188C1077.4 495.188 1078.58 494.602 1079.44 493.43C1080.3 492.246 1080.74 490.6 1080.74 488.49C1080.74 486.721 1080.33 485.338 1079.52 484.342C1078.73 483.334 1077.64 482.83 1076.27 482.83C1074.82 482.83 1073.65 483.346 1072.76 484.377C1071.88 485.408 1071.44 486.697 1071.44 488.244ZM1099.53 483.885C1099.04 483.498 1098.33 483.305 1097.4 483.305C1096.19 483.305 1095.19 483.85 1094.38 484.939C1093.57 486.029 1093.16 487.512 1093.16 489.387V498H1089.09V480H1093.16V483.709H1093.23C1093.63 482.443 1094.24 481.459 1095.06 480.756C1095.89 480.041 1096.82 479.684 1097.84 479.684C1098.58 479.684 1099.14 479.795 1099.53 480.018V483.885ZM1104.47 476.221C1103.8 476.221 1103.22 476.004 1102.74 475.57C1102.28 475.137 1102.04 474.586 1102.04 473.918C1102.04 473.25 1102.28 472.693 1102.74 472.248C1103.22 471.803 1103.8 471.58 1104.47 471.58C1105.16 471.58 1105.74 471.803 1106.22 472.248C1106.71 472.693 1106.95 473.25 1106.95 473.918C1106.95 474.551 1106.71 475.096 1106.22 475.553C1105.74 475.998 1105.16 476.221 1104.47 476.221ZM1106.49 498H1102.41V480H1106.49V498ZM1124.72 497.174C1123.28 498.006 1121.57 498.422 1119.6 498.422C1116.93 498.422 1114.77 497.59 1113.13 495.926C1111.49 494.25 1110.67 492.082 1110.67 489.422C1110.67 486.457 1111.55 484.078 1113.31 482.285C1115.08 480.48 1117.44 479.578 1120.39 479.578C1122.03 479.578 1123.48 479.865 1124.73 480.439V484.236C1123.48 483.299 1122.14 482.83 1120.73 482.83C1119 482.83 1117.59 483.416 1116.49 484.588C1115.39 485.748 1114.84 487.271 1114.84 489.158C1114.84 491.021 1115.35 492.492 1116.38 493.57C1117.43 494.648 1118.82 495.188 1120.57 495.188C1122.03 495.188 1123.42 494.666 1124.72 493.623V497.174Z" fill="#063D3B"/>
<path d="M833.775 281.277C831.15 282.707 828.227 283.422 825.004 283.422C821.277 283.422 818.26 282.262 815.951 279.941C813.643 277.621 812.488 274.551 812.488 270.73C812.488 266.828 813.748 263.629 816.268 261.133C818.799 258.625 822.01 257.371 825.9 257.371C828.701 257.371 831.057 257.781 832.967 258.602V262.908C831.033 261.619 828.73 260.975 826.059 260.975C823.375 260.975 821.172 261.859 819.449 263.629C817.738 265.398 816.883 267.689 816.883 270.502C816.883 273.396 817.621 275.676 819.098 277.34C820.574 278.992 822.578 279.818 825.109 279.818C826.844 279.818 828.344 279.484 829.609 278.816V272.822H824.301V269.307H833.775V281.277ZM846.73 283.422C843.953 283.422 841.732 282.584 840.068 280.908C838.416 279.221 837.59 276.988 837.59 274.211C837.59 271.188 838.451 268.826 840.174 267.127C841.908 265.428 844.24 264.578 847.17 264.578C849.982 264.578 852.174 265.404 853.744 267.057C855.314 268.709 856.1 271 856.1 273.93C856.1 276.801 855.25 279.104 853.551 280.838C851.863 282.561 849.59 283.422 846.73 283.422ZM846.924 267.83C845.33 267.83 844.07 268.387 843.145 269.5C842.219 270.613 841.756 272.148 841.756 274.105C841.756 275.992 842.225 277.48 843.162 278.57C844.1 279.648 845.354 280.188 846.924 280.188C848.529 280.188 849.76 279.654 850.615 278.588C851.482 277.521 851.916 276.004 851.916 274.035C851.916 272.055 851.482 270.525 850.615 269.447C849.76 268.369 848.529 267.83 846.924 267.83ZM875.77 265L868.809 283H864.396L857.77 265H862.199L866.189 277.586C866.494 278.512 866.682 279.32 866.752 280.012H866.805C866.91 279.145 867.074 278.359 867.297 277.656L871.48 265H875.77ZM893.506 275.107H881.236C881.283 276.771 881.793 278.055 882.766 278.957C883.75 279.859 885.098 280.311 886.809 280.311C888.73 280.311 890.494 279.736 892.1 278.588V281.875C890.459 282.906 888.291 283.422 885.596 283.422C882.947 283.422 880.867 282.607 879.355 280.979C877.855 279.338 877.105 277.035 877.105 274.07C877.105 271.27 877.932 268.99 879.584 267.232C881.248 265.463 883.311 264.578 885.771 264.578C888.232 264.578 890.137 265.369 891.484 266.951C892.832 268.533 893.506 270.73 893.506 273.543V275.107ZM889.568 272.225C889.557 270.76 889.211 269.623 888.531 268.814C887.852 267.994 886.914 267.584 885.719 267.584C884.547 267.584 883.551 268.012 882.73 268.867C881.922 269.723 881.424 270.842 881.236 272.225H889.568ZM907.832 268.885C907.34 268.498 906.631 268.305 905.705 268.305C904.498 268.305 903.49 268.85 902.682 269.939C901.873 271.029 901.469 272.512 901.469 274.387V283H897.391V265H901.469V268.709H901.539C901.938 267.443 902.547 266.459 903.367 265.756C904.199 265.041 905.125 264.684 906.145 264.684C906.883 264.684 907.445 264.795 907.832 265.018V268.885ZM926.746 283H922.668V272.857C922.668 269.494 921.479 267.812 919.1 267.812C917.857 267.812 916.832 268.281 916.023 269.219C915.215 270.145 914.811 271.316 914.811 272.734V283H910.715V265H914.811V267.988H914.881C916.229 265.715 918.174 264.578 920.717 264.578C922.674 264.578 924.168 265.217 925.199 266.494C926.23 267.76 926.746 269.594 926.746 271.996V283ZM945.555 283H941.6V280.188H941.529C940.287 282.344 938.465 283.422 936.062 283.422C934.293 283.422 932.904 282.941 931.896 281.98C930.9 281.02 930.402 279.748 930.402 278.166C930.402 274.768 932.359 272.787 936.273 272.225L941.617 271.469C941.617 268.902 940.398 267.619 937.961 267.619C935.816 267.619 933.883 268.357 932.16 269.834V266.266C934.059 265.141 936.25 264.578 938.734 264.578C943.281 264.578 945.555 266.816 945.555 271.293V283ZM941.617 274.158L937.838 274.686C936.666 274.838 935.781 275.125 935.184 275.547C934.598 275.957 934.305 276.684 934.305 277.727C934.305 278.488 934.574 279.115 935.113 279.607C935.664 280.088 936.396 280.328 937.311 280.328C938.553 280.328 939.578 279.895 940.387 279.027C941.207 278.148 941.617 277.047 941.617 275.723V274.158ZM966.578 283H962.5V272.857C962.5 269.494 961.311 267.812 958.932 267.812C957.689 267.812 956.664 268.281 955.855 269.219C955.047 270.145 954.643 271.316 954.643 272.734V283H950.547V265H954.643V267.988H954.713C956.061 265.715 958.006 264.578 960.549 264.578C962.506 264.578 964 265.217 965.031 266.494C966.062 267.76 966.578 269.594 966.578 271.996V283ZM984.455 282.174C983.014 283.006 981.309 283.422 979.34 283.422C976.668 283.422 974.512 282.59 972.871 280.926C971.23 279.25 970.41 277.082 970.41 274.422C970.41 271.457 971.289 269.078 973.047 267.285C974.816 265.48 977.178 264.578 980.131 264.578C981.771 264.578 983.219 264.865 984.473 265.439V269.236C983.219 268.299 981.883 267.83 980.465 267.83C978.742 267.83 977.33 268.416 976.229 269.588C975.127 270.748 974.576 272.271 974.576 274.158C974.576 276.021 975.092 277.492 976.123 278.57C977.166 279.648 978.561 280.188 980.307 280.188C981.771 280.188 983.154 279.666 984.455 278.623V282.174ZM1003.76 275.107H991.486C991.533 276.771 992.043 278.055 993.016 278.957C994 279.859 995.348 280.311 997.059 280.311C998.98 280.311 1000.74 279.736 1002.35 278.588V281.875C1000.71 282.906 998.541 283.422 995.846 283.422C993.197 283.422 991.117 282.607 989.605 280.979C988.105 279.338 987.355 277.035 987.355 274.07C987.355 271.27 988.182 268.99 989.834 267.232C991.498 265.463 993.561 264.578 996.021 264.578C998.482 264.578 1000.39 265.369 1001.73 266.951C1003.08 268.533 1003.76 270.73 1003.76 273.543V275.107ZM999.818 272.225C999.807 270.76 999.461 269.623 998.781 268.814C998.102 267.994 997.164 267.584 995.969 267.584C994.797 267.584 993.801 268.012 992.98 268.867C992.172 269.723 991.674 270.842 991.486 272.225H999.818ZM1021.7 280.346H1021.63V291.279H1017.55V265H1021.63V268.164H1021.7C1023.1 265.773 1025.14 264.578 1027.82 264.578C1030.11 264.578 1031.89 265.381 1033.16 266.986C1034.44 268.592 1035.08 270.748 1035.08 273.455C1035.08 276.455 1034.36 278.857 1032.92 280.662C1031.48 282.467 1029.51 283.369 1027.01 283.369C1024.71 283.369 1022.95 282.361 1021.7 280.346ZM1021.6 273.244V275.477C1021.6 276.789 1022.01 277.902 1022.85 278.816C1023.69 279.73 1024.76 280.188 1026.04 280.188C1027.56 280.188 1028.74 279.602 1029.6 278.43C1030.46 277.246 1030.9 275.6 1030.9 273.49C1030.9 271.721 1030.49 270.338 1029.68 269.342C1028.89 268.334 1027.8 267.83 1026.43 267.83C1024.98 267.83 1023.81 268.346 1022.92 269.377C1022.04 270.408 1021.6 271.697 1021.6 273.244ZM1043.34 283H1039.25V256.352H1043.34V283ZM1062.48 283H1058.53V280.188H1058.46C1057.22 282.344 1055.39 283.422 1052.99 283.422C1051.22 283.422 1049.83 282.941 1048.83 281.98C1047.83 281.02 1047.33 279.748 1047.33 278.166C1047.33 274.768 1049.29 272.787 1053.2 272.225L1058.55 271.469C1058.55 268.902 1057.33 267.619 1054.89 267.619C1052.75 267.619 1050.81 268.357 1049.09 269.834V266.266C1050.99 265.141 1053.18 264.578 1055.66 264.578C1060.21 264.578 1062.48 266.816 1062.48 271.293V283ZM1058.55 274.158L1054.77 274.686C1053.6 274.838 1052.71 275.125 1052.11 275.547C1051.53 275.957 1051.23 276.684 1051.23 277.727C1051.23 278.488 1051.5 279.115 1052.04 279.607C1052.59 280.088 1053.33 280.328 1054.24 280.328C1055.48 280.328 1056.51 279.895 1057.32 279.027C1058.14 278.148 1058.55 277.047 1058.55 275.723V274.158ZM1083.51 283H1079.43V272.857C1079.43 269.494 1078.24 267.812 1075.86 267.812C1074.62 267.812 1073.59 268.281 1072.79 269.219C1071.98 270.145 1071.57 271.316 1071.57 272.734V283H1067.48V265H1071.57V267.988H1071.64C1072.99 265.715 1074.94 264.578 1077.48 264.578C1079.44 264.578 1080.93 265.217 1081.96 266.494C1082.99 267.76 1083.51 269.594 1083.51 271.996V283ZM1104.53 283H1100.45V272.857C1100.45 269.494 1099.26 267.812 1096.88 267.812C1095.64 267.812 1094.62 268.281 1093.81 269.219C1093 270.145 1092.6 271.316 1092.6 272.734V283H1088.5V265H1092.6V267.988H1092.67C1094.01 265.715 1095.96 264.578 1098.5 264.578C1100.46 264.578 1101.95 265.217 1102.98 266.494C1104.02 267.76 1104.53 269.594 1104.53 271.996V283ZM1111.58 261.221C1110.91 261.221 1110.34 261.004 1109.86 260.57C1109.39 260.137 1109.15 259.586 1109.15 258.918C1109.15 258.25 1109.39 257.693 1109.86 257.248C1110.34 256.803 1110.91 256.58 1111.58 256.58C1112.27 256.58 1112.86 256.803 1113.34 257.248C1113.82 257.693 1114.06 258.25 1114.06 258.918C1114.06 259.551 1113.82 260.096 1113.34 260.553C1112.86 260.998 1112.27 261.221 1111.58 261.221ZM1113.6 283H1109.52V265H1113.6V283ZM1134.98 283H1130.9V272.857C1130.9 269.494 1129.71 267.812 1127.33 267.812C1126.09 267.812 1125.06 268.281 1124.25 269.219C1123.45 270.145 1123.04 271.316 1123.04 272.734V283H1118.95V265H1123.04V267.988H1123.11C1124.46 265.715 1126.4 264.578 1128.95 264.578C1130.9 264.578 1132.4 265.217 1133.43 266.494C1134.46 267.76 1134.98 269.594 1134.98 271.996V283ZM1156.35 281.559C1156.35 288.168 1153.03 291.473 1146.38 291.473C1144.04 291.473 1142 291.08 1140.25 290.295V286.568C1142.22 287.693 1144.09 288.256 1145.86 288.256C1150.13 288.256 1152.27 286.152 1152.27 281.945V279.977H1152.2C1150.86 282.273 1148.83 283.422 1146.12 283.422C1143.93 283.422 1142.16 282.625 1140.81 281.031C1139.48 279.426 1138.81 277.275 1138.81 274.58C1138.81 271.521 1139.53 269.09 1140.97 267.285C1142.41 265.48 1144.39 264.578 1146.91 264.578C1149.29 264.578 1151.05 265.551 1152.2 267.496H1152.27V265H1156.35V281.559ZM1152.31 274.756V272.418C1152.31 271.152 1151.89 270.074 1151.04 269.184C1150.21 268.281 1149.17 267.83 1147.91 267.83C1146.37 267.83 1145.15 268.404 1144.28 269.553C1143.41 270.689 1142.97 272.283 1142.97 274.334C1142.97 276.104 1143.39 277.521 1144.22 278.588C1145.07 279.643 1146.18 280.17 1147.56 280.17C1148.97 280.17 1150.11 279.666 1150.99 278.658C1151.87 277.639 1152.31 276.338 1152.31 274.756Z" fill="#FAFAFA"/>
<g filter="url(#filter6_d_7_884)">
<path d="M217 447C217 441.477 221.477 437 227 437H713.379C715.719 437 717.984 437.82 719.781 439.318L767.781 479.318C772.579 483.316 772.579 490.684 767.781 494.682L719.781 534.682C717.984 536.18 715.719 537 713.379 537H227C221.477 537 217 532.523 217 527V447Z" fill="url(#paint8_linear_7_884)"/>
</g>
<g filter="url(#filter7_d_7_884)">
<path d="M217 742C217 736.477 221.477 732 227 732H436C438.695 732 441.275 733.088 443.157 735.016L482.186 775.016C485.976 778.901 485.976 785.099 482.186 788.984L443.157 828.984C441.275 830.912 438.695 832 436 832H227C221.477 832 217 827.523 217 822V742Z" fill="url(#paint9_linear_7_884)"/>
</g>
<g filter="url(#filter8_d_7_884)">
<path d="M555 742C555 736.477 559.477 732 565 732H774C776.695 732 779.275 733.088 781.157 735.016L820.186 775.016C823.976 778.901 823.976 785.099 820.186 788.984L781.157 828.984C779.275 830.912 776.695 832 774 832H565C559.477 832 555 827.523 555 822V742Z" fill="url(#paint10_linear_7_884)"/>
</g>
<g filter="url(#filter9_d_7_884)">
<path d="M893 742C893 736.477 897.477 732 903 732H1112C1114.69 732 1117.28 733.088 1119.16 735.016L1158.19 775.016C1161.98 778.901 1161.98 785.099 1158.19 788.984L1119.16 828.984C1117.28 830.912 1114.69 832 1112 832H903C897.477 832 893 827.523 893 822V742Z" fill="url(#paint11_linear_7_884)"/>
</g>
<path d="M340.275 496.277C337.65 497.707 334.727 498.422 331.504 498.422C327.777 498.422 324.76 497.262 322.451 494.941C320.143 492.621 318.988 489.551 318.988 485.73C318.988 481.828 320.248 478.629 322.768 476.133C325.299 473.625 328.51 472.371 332.4 472.371C335.201 472.371 337.557 472.781 339.467 473.602V477.908C337.533 476.619 335.23 475.975 332.559 475.975C329.875 475.975 327.672 476.859 325.949 478.629C324.238 480.398 323.383 482.689 323.383 485.502C323.383 488.396 324.121 490.676 325.598 492.34C327.074 493.992 329.078 494.818 331.609 494.818C333.344 494.818 334.844 494.484 336.109 493.816V487.822H330.801V484.307H340.275V496.277ZM353.23 498.422C350.453 498.422 348.232 497.584 346.568 495.908C344.916 494.221 344.09 491.988 344.09 489.211C344.09 486.188 344.951 483.826 346.674 482.127C348.408 480.428 350.74 479.578 353.67 479.578C356.482 479.578 358.674 480.404 360.244 482.057C361.814 483.709 362.6 486 362.6 488.93C362.6 491.801 361.75 494.104 360.051 495.838C358.363 497.561 356.09 498.422 353.23 498.422ZM353.424 482.83C351.83 482.83 350.57 483.387 349.645 484.5C348.719 485.613 348.256 487.148 348.256 489.105C348.256 490.992 348.725 492.48 349.662 493.57C350.6 494.648 351.854 495.188 353.424 495.188C355.029 495.188 356.26 494.654 357.115 493.588C357.982 492.521 358.416 491.004 358.416 489.035C358.416 487.055 357.982 485.525 357.115 484.447C356.26 483.369 355.029 482.83 353.424 482.83ZM382.27 480L375.309 498H370.896L364.27 480H368.699L372.689 492.586C372.994 493.512 373.182 494.32 373.252 495.012H373.305C373.41 494.145 373.574 493.359 373.797 492.656L377.98 480H382.27ZM400.006 490.107H387.736C387.783 491.771 388.293 493.055 389.266 493.957C390.25 494.859 391.598 495.311 393.309 495.311C395.23 495.311 396.994 494.736 398.6 493.588V496.875C396.959 497.906 394.791 498.422 392.096 498.422C389.447 498.422 387.367 497.607 385.855 495.979C384.355 494.338 383.605 492.035 383.605 489.07C383.605 486.27 384.432 483.99 386.084 482.232C387.748 480.463 389.811 479.578 392.271 479.578C394.732 479.578 396.637 480.369 397.984 481.951C399.332 483.533 400.006 485.73 400.006 488.543V490.107ZM396.068 487.225C396.057 485.76 395.711 484.623 395.031 483.814C394.352 482.994 393.414 482.584 392.219 482.584C391.047 482.584 390.051 483.012 389.23 483.867C388.422 484.723 387.924 485.842 387.736 487.225H396.068ZM414.332 483.885C413.84 483.498 413.131 483.305 412.205 483.305C410.998 483.305 409.99 483.85 409.182 484.939C408.373 486.029 407.969 487.512 407.969 489.387V498H403.891V480H407.969V483.709H408.039C408.438 482.443 409.047 481.459 409.867 480.756C410.699 480.041 411.625 479.684 412.645 479.684C413.383 479.684 413.945 479.795 414.332 480.018V483.885ZM433.246 498H429.168V487.857C429.168 484.494 427.979 482.812 425.6 482.812C424.357 482.812 423.332 483.281 422.523 484.219C421.715 485.145 421.311 486.316 421.311 487.734V498H417.215V480H421.311V482.988H421.381C422.729 480.715 424.674 479.578 427.217 479.578C429.174 479.578 430.668 480.217 431.699 481.494C432.73 482.76 433.246 484.594 433.246 486.996V498ZM452.055 498H448.1V495.188H448.029C446.787 497.344 444.965 498.422 442.562 498.422C440.793 498.422 439.404 497.941 438.396 496.98C437.4 496.02 436.902 494.748 436.902 493.166C436.902 489.768 438.859 487.787 442.773 487.225L448.117 486.469C448.117 483.902 446.898 482.619 444.461 482.619C442.316 482.619 440.383 483.357 438.66 484.834V481.266C440.559 480.141 442.75 479.578 445.234 479.578C449.781 479.578 452.055 481.816 452.055 486.293V498ZM448.117 489.158L444.338 489.686C443.166 489.838 442.281 490.125 441.684 490.547C441.098 490.957 440.805 491.684 440.805 492.727C440.805 493.488 441.074 494.115 441.613 494.607C442.164 495.088 442.896 495.328 443.811 495.328C445.053 495.328 446.078 494.895 446.887 494.027C447.707 493.148 448.117 492.047 448.117 490.723V489.158ZM473.078 498H469V487.857C469 484.494 467.811 482.812 465.432 482.812C464.189 482.812 463.164 483.281 462.355 484.219C461.547 485.145 461.143 486.316 461.143 487.734V498H457.047V480H461.143V482.988H461.213C462.561 480.715 464.506 479.578 467.049 479.578C469.006 479.578 470.5 480.217 471.531 481.494C472.562 482.76 473.078 484.594 473.078 486.996V498ZM490.955 497.174C489.514 498.006 487.809 498.422 485.84 498.422C483.168 498.422 481.012 497.59 479.371 495.926C477.73 494.25 476.91 492.082 476.91 489.422C476.91 486.457 477.789 484.078 479.547 482.285C481.316 480.48 483.678 479.578 486.631 479.578C488.271 479.578 489.719 479.865 490.973 480.439V484.236C489.719 483.299 488.383 482.83 486.965 482.83C485.242 482.83 483.83 483.416 482.729 484.588C481.627 485.748 481.076 487.271 481.076 489.158C481.076 491.021 481.592 492.492 482.623 493.57C483.666 494.648 485.061 495.188 486.807 495.188C488.271 495.188 489.654 494.666 490.955 493.623V497.174ZM510.256 490.107H497.986C498.033 491.771 498.543 493.055 499.516 493.957C500.5 494.859 501.848 495.311 503.559 495.311C505.48 495.311 507.244 494.736 508.85 493.588V496.875C507.209 497.906 505.041 498.422 502.346 498.422C499.697 498.422 497.617 497.607 496.105 495.979C494.605 494.338 493.855 492.035 493.855 489.07C493.855 486.27 494.682 483.99 496.334 482.232C497.998 480.463 500.061 479.578 502.521 479.578C504.982 479.578 506.887 480.369 508.234 481.951C509.582 483.533 510.256 485.73 510.256 488.543V490.107ZM506.318 487.225C506.307 485.76 505.961 484.623 505.281 483.814C504.602 482.994 503.664 482.584 502.469 482.584C501.297 482.584 500.301 483.012 499.48 483.867C498.672 484.723 498.174 485.842 497.986 487.225H506.318ZM528.203 495.346H528.133V506.279H524.055V480H528.133V483.164H528.203C529.598 480.773 531.637 479.578 534.32 479.578C536.605 479.578 538.387 480.381 539.664 481.986C540.941 483.592 541.58 485.748 541.58 488.455C541.58 491.455 540.859 493.857 539.418 495.662C537.977 497.467 536.008 498.369 533.512 498.369C531.215 498.369 529.445 497.361 528.203 495.346ZM528.098 488.244V490.477C528.098 491.789 528.514 492.902 529.346 493.816C530.189 494.73 531.256 495.188 532.545 495.188C534.057 495.188 535.24 494.602 536.096 493.43C536.963 492.246 537.396 490.6 537.396 488.49C537.396 486.721 536.992 485.338 536.184 484.342C535.387 483.334 534.303 482.83 532.932 482.83C531.479 482.83 530.307 483.346 529.416 484.377C528.537 485.408 528.098 486.697 528.098 488.244ZM549.842 498H545.746V471.352H549.842V498ZM568.984 498H565.029V495.188H564.959C563.717 497.344 561.895 498.422 559.492 498.422C557.723 498.422 556.334 497.941 555.326 496.98C554.33 496.02 553.832 494.748 553.832 493.166C553.832 489.768 555.789 487.787 559.703 487.225L565.047 486.469C565.047 483.902 563.828 482.619 561.391 482.619C559.246 482.619 557.312 483.357 555.59 484.834V481.266C557.488 480.141 559.68 479.578 562.164 479.578C566.711 479.578 568.984 481.816 568.984 486.293V498ZM565.047 489.158L561.268 489.686C560.096 489.838 559.211 490.125 558.613 490.547C558.027 490.957 557.734 491.684 557.734 492.727C557.734 493.488 558.004 494.115 558.543 494.607C559.094 495.088 559.826 495.328 560.74 495.328C561.982 495.328 563.008 494.895 563.816 494.027C564.637 493.148 565.047 492.047 565.047 490.723V489.158ZM590.008 498H585.93V487.857C585.93 484.494 584.74 482.812 582.361 482.812C581.119 482.812 580.094 483.281 579.285 484.219C578.477 485.145 578.072 486.316 578.072 487.734V498H573.977V480H578.072V482.988H578.143C579.49 480.715 581.436 479.578 583.979 479.578C585.936 479.578 587.43 480.217 588.461 481.494C589.492 482.76 590.008 484.594 590.008 486.996V498ZM611.031 498H606.953V487.857C606.953 484.494 605.764 482.812 603.385 482.812C602.143 482.812 601.117 483.281 600.309 484.219C599.5 485.145 599.096 486.316 599.096 487.734V498H595V480H599.096V482.988H599.166C600.514 480.715 602.459 479.578 605.002 479.578C606.959 479.578 608.453 480.217 609.484 481.494C610.516 482.76 611.031 484.594 611.031 486.996V498ZM618.08 476.221C617.412 476.221 616.838 476.004 616.357 475.57C615.889 475.137 615.654 474.586 615.654 473.918C615.654 473.25 615.889 472.693 616.357 472.248C616.838 471.803 617.412 471.58 618.08 471.58C618.771 471.58 619.357 471.803 619.838 472.248C620.318 472.693 620.559 473.25 620.559 473.918C620.559 474.551 620.318 475.096 619.838 475.553C619.357 475.998 618.771 476.221 618.08 476.221ZM620.102 498H616.023V480H620.102V498ZM641.477 498H637.398V487.857C637.398 484.494 636.209 482.812 633.83 482.812C632.588 482.812 631.562 483.281 630.754 484.219C629.945 485.145 629.541 486.316 629.541 487.734V498H625.445V480H629.541V482.988H629.611C630.959 480.715 632.904 479.578 635.447 479.578C637.404 479.578 638.898 480.217 639.93 481.494C640.961 482.76 641.477 484.594 641.477 486.996V498ZM662.852 496.559C662.852 503.168 659.529 506.473 652.885 506.473C650.541 506.473 648.496 506.08 646.75 505.295V501.568C648.719 502.693 650.588 503.256 652.357 503.256C656.635 503.256 658.773 501.152 658.773 496.945V494.977H658.703C657.355 497.273 655.328 498.422 652.621 498.422C650.43 498.422 648.66 497.625 647.312 496.031C645.977 494.426 645.309 492.275 645.309 489.58C645.309 486.521 646.029 484.09 647.471 482.285C648.912 480.48 650.893 479.578 653.412 479.578C655.791 479.578 657.555 480.551 658.703 482.496H658.773V480H662.852V496.559ZM658.809 489.756V487.418C658.809 486.152 658.387 485.074 657.543 484.184C656.711 483.281 655.668 482.83 654.414 482.83C652.867 482.83 651.654 483.404 650.775 484.553C649.908 485.689 649.475 487.283 649.475 489.334C649.475 491.104 649.891 492.521 650.723 493.588C651.566 494.643 652.68 495.17 654.062 495.17C655.469 495.17 656.611 494.666 657.49 493.658C658.369 492.639 658.809 491.338 658.809 489.756Z" fill="#FAFAFA"/>
<path d="M281.785 791.277C279.16 792.707 276.236 793.422 273.014 793.422C269.287 793.422 266.27 792.262 263.961 789.941C261.652 787.621 260.498 784.551 260.498 780.73C260.498 776.828 261.758 773.629 264.277 771.133C266.809 768.625 270.02 767.371 273.91 767.371C276.711 767.371 279.066 767.781 280.977 768.602V772.908C279.043 771.619 276.74 770.975 274.068 770.975C271.385 770.975 269.182 771.859 267.459 773.629C265.748 775.398 264.893 777.689 264.893 780.502C264.893 783.396 265.631 785.676 267.107 787.34C268.584 788.992 270.588 789.818 273.119 789.818C274.854 789.818 276.354 789.484 277.619 788.816V782.822H272.311V779.307H281.785V791.277ZM294.74 793.422C291.963 793.422 289.742 792.584 288.078 790.908C286.426 789.221 285.6 786.988 285.6 784.211C285.6 781.188 286.461 778.826 288.184 777.127C289.918 775.428 292.25 774.578 295.18 774.578C297.992 774.578 300.184 775.404 301.754 777.057C303.324 778.709 304.109 781 304.109 783.93C304.109 786.801 303.26 789.104 301.561 790.838C299.873 792.561 297.6 793.422 294.74 793.422ZM294.934 777.83C293.34 777.83 292.08 778.387 291.154 779.5C290.229 780.613 289.766 782.148 289.766 784.105C289.766 785.992 290.234 787.48 291.172 788.57C292.109 789.648 293.363 790.188 294.934 790.188C296.539 790.188 297.77 789.654 298.625 788.588C299.492 787.521 299.926 786.004 299.926 784.035C299.926 782.055 299.492 780.525 298.625 779.447C297.77 778.369 296.539 777.83 294.934 777.83ZM323.779 775L316.818 793H312.406L305.779 775H310.209L314.199 787.586C314.504 788.512 314.691 789.32 314.762 790.012H314.814C314.92 789.145 315.084 788.359 315.307 787.656L319.49 775H323.779ZM341.516 785.107H329.246C329.293 786.771 329.803 788.055 330.775 788.957C331.76 789.859 333.107 790.311 334.818 790.311C336.74 790.311 338.504 789.736 340.109 788.588V791.875C338.469 792.906 336.301 793.422 333.605 793.422C330.957 793.422 328.877 792.607 327.365 790.979C325.865 789.338 325.115 787.035 325.115 784.07C325.115 781.27 325.941 778.99 327.594 777.232C329.258 775.463 331.32 774.578 333.781 774.578C336.242 774.578 338.146 775.369 339.494 776.951C340.842 778.533 341.516 780.73 341.516 783.543V785.107ZM337.578 782.225C337.566 780.76 337.221 779.623 336.541 778.814C335.861 777.994 334.924 777.584 333.729 777.584C332.557 777.584 331.561 778.012 330.74 778.867C329.932 779.723 329.434 780.842 329.246 782.225H337.578ZM355.842 778.885C355.35 778.498 354.641 778.305 353.715 778.305C352.508 778.305 351.5 778.85 350.691 779.939C349.883 781.029 349.479 782.512 349.479 784.387V793H345.4V775H349.479V778.709H349.549C349.947 777.443 350.557 776.459 351.377 775.756C352.209 775.041 353.135 774.684 354.154 774.684C354.893 774.684 355.455 774.795 355.842 775.018V778.885ZM374.756 793H370.678V782.857C370.678 779.494 369.488 777.812 367.109 777.812C365.867 777.812 364.842 778.281 364.033 779.219C363.225 780.145 362.82 781.316 362.82 782.734V793H358.725V775H362.82V777.988H362.891C364.238 775.715 366.184 774.578 368.727 774.578C370.684 774.578 372.178 775.217 373.209 776.494C374.24 777.76 374.756 779.594 374.756 781.996V793ZM393.564 793H389.609V790.188H389.539C388.297 792.344 386.475 793.422 384.072 793.422C382.303 793.422 380.914 792.941 379.906 791.98C378.91 791.02 378.412 789.748 378.412 788.166C378.412 784.768 380.369 782.787 384.283 782.225L389.627 781.469C389.627 778.902 388.408 777.619 385.971 777.619C383.826 777.619 381.893 778.357 380.17 779.834V776.266C382.068 775.141 384.26 774.578 386.744 774.578C391.291 774.578 393.564 776.816 393.564 781.293V793ZM389.627 784.158L385.848 784.686C384.676 784.838 383.791 785.125 383.193 785.547C382.607 785.957 382.314 786.684 382.314 787.727C382.314 788.488 382.584 789.115 383.123 789.607C383.674 790.088 384.406 790.328 385.32 790.328C386.562 790.328 387.588 789.895 388.396 789.027C389.217 788.148 389.627 787.047 389.627 785.723V784.158ZM414.588 793H410.51V782.857C410.51 779.494 409.32 777.812 406.941 777.812C405.699 777.812 404.674 778.281 403.865 779.219C403.057 780.145 402.652 781.316 402.652 782.734V793H398.557V775H402.652V777.988H402.723C404.07 775.715 406.016 774.578 408.559 774.578C410.516 774.578 412.01 775.217 413.041 776.494C414.072 777.76 414.588 779.594 414.588 781.996V793ZM432.465 792.174C431.023 793.006 429.318 793.422 427.35 793.422C424.678 793.422 422.521 792.59 420.881 790.926C419.24 789.25 418.42 787.082 418.42 784.422C418.42 781.457 419.299 779.078 421.057 777.285C422.826 775.48 425.188 774.578 428.141 774.578C429.781 774.578 431.229 774.865 432.482 775.439V779.236C431.229 778.299 429.893 777.83 428.475 777.83C426.752 777.83 425.34 778.416 424.238 779.588C423.137 780.748 422.586 782.271 422.586 784.158C422.586 786.021 423.102 787.492 424.133 788.57C425.176 789.648 426.57 790.188 428.316 790.188C429.781 790.188 431.164 789.666 432.465 788.623V792.174ZM451.766 785.107H439.496C439.543 786.771 440.053 788.055 441.025 788.957C442.01 789.859 443.357 790.311 445.068 790.311C446.99 790.311 448.754 789.736 450.359 788.588V791.875C448.719 792.906 446.551 793.422 443.855 793.422C441.207 793.422 439.127 792.607 437.615 790.979C436.115 789.338 435.365 787.035 435.365 784.07C435.365 781.27 436.191 778.99 437.844 777.232C439.508 775.463 441.57 774.578 444.031 774.578C446.492 774.578 448.396 775.369 449.744 776.951C451.092 778.533 451.766 780.73 451.766 783.543V785.107ZM447.828 782.225C447.816 780.76 447.471 779.623 446.791 778.814C446.111 777.994 445.174 777.584 443.979 777.584C442.807 777.584 441.811 778.012 440.99 778.867C440.182 779.723 439.684 780.842 439.496 782.225H447.828Z" fill="#FAFAFA"/>
<path d="M605.785 791.277C603.16 792.707 600.236 793.422 597.014 793.422C593.287 793.422 590.27 792.262 587.961 789.941C585.652 787.621 584.498 784.551 584.498 780.73C584.498 776.828 585.758 773.629 588.277 771.133C590.809 768.625 594.02 767.371 597.91 767.371C600.711 767.371 603.066 767.781 604.977 768.602V772.908C603.043 771.619 600.74 770.975 598.068 770.975C595.385 770.975 593.182 771.859 591.459 773.629C589.748 775.398 588.893 777.689 588.893 780.502C588.893 783.396 589.631 785.676 591.107 787.34C592.584 788.992 594.588 789.818 597.119 789.818C598.854 789.818 600.354 789.484 601.619 788.816V782.822H596.311V779.307H605.785V791.277ZM618.74 793.422C615.963 793.422 613.742 792.584 612.078 790.908C610.426 789.221 609.6 786.988 609.6 784.211C609.6 781.188 610.461 778.826 612.184 777.127C613.918 775.428 616.25 774.578 619.18 774.578C621.992 774.578 624.184 775.404 625.754 777.057C627.324 778.709 628.109 781 628.109 783.93C628.109 786.801 627.26 789.104 625.561 790.838C623.873 792.561 621.6 793.422 618.74 793.422ZM618.934 777.83C617.34 777.83 616.08 778.387 615.154 779.5C614.229 780.613 613.766 782.148 613.766 784.105C613.766 785.992 614.234 787.48 615.172 788.57C616.109 789.648 617.363 790.188 618.934 790.188C620.539 790.188 621.77 789.654 622.625 788.588C623.492 787.521 623.926 786.004 623.926 784.035C623.926 782.055 623.492 780.525 622.625 779.447C621.77 778.369 620.539 777.83 618.934 777.83ZM647.779 775L640.818 793H636.406L629.779 775H634.209L638.199 787.586C638.504 788.512 638.691 789.32 638.762 790.012H638.814C638.92 789.145 639.084 788.359 639.307 787.656L643.49 775H647.779ZM665.516 785.107H653.246C653.293 786.771 653.803 788.055 654.775 788.957C655.76 789.859 657.107 790.311 658.818 790.311C660.74 790.311 662.504 789.736 664.109 788.588V791.875C662.469 792.906 660.301 793.422 657.605 793.422C654.957 793.422 652.877 792.607 651.365 790.979C649.865 789.338 649.115 787.035 649.115 784.07C649.115 781.27 649.941 778.99 651.594 777.232C653.258 775.463 655.32 774.578 657.781 774.578C660.242 774.578 662.146 775.369 663.494 776.951C664.842 778.533 665.516 780.73 665.516 783.543V785.107ZM661.578 782.225C661.566 780.76 661.221 779.623 660.541 778.814C659.861 777.994 658.924 777.584 657.729 777.584C656.557 777.584 655.561 778.012 654.74 778.867C653.932 779.723 653.434 780.842 653.246 782.225H661.578ZM679.842 778.885C679.35 778.498 678.641 778.305 677.715 778.305C676.508 778.305 675.5 778.85 674.691 779.939C673.883 781.029 673.479 782.512 673.479 784.387V793H669.4V775H673.479V778.709H673.549C673.947 777.443 674.557 776.459 675.377 775.756C676.209 775.041 677.135 774.684 678.154 774.684C678.893 774.684 679.455 774.795 679.842 775.018V778.885ZM698.756 793H694.678V782.857C694.678 779.494 693.488 777.812 691.109 777.812C689.867 777.812 688.842 778.281 688.033 779.219C687.225 780.145 686.82 781.316 686.82 782.734V793H682.725V775H686.82V777.988H686.891C688.238 775.715 690.184 774.578 692.727 774.578C694.684 774.578 696.178 775.217 697.209 776.494C698.24 777.76 698.756 779.594 698.756 781.996V793ZM717.564 793H713.609V790.188H713.539C712.297 792.344 710.475 793.422 708.072 793.422C706.303 793.422 704.914 792.941 703.906 791.98C702.91 791.02 702.412 789.748 702.412 788.166C702.412 784.768 704.369 782.787 708.283 782.225L713.627 781.469C713.627 778.902 712.408 777.619 709.971 777.619C707.826 777.619 705.893 778.357 704.17 779.834V776.266C706.068 775.141 708.26 774.578 710.744 774.578C715.291 774.578 717.564 776.816 717.564 781.293V793ZM713.627 784.158L709.848 784.686C708.676 784.838 707.791 785.125 707.193 785.547C706.607 785.957 706.314 786.684 706.314 787.727C706.314 788.488 706.584 789.115 707.123 789.607C707.674 790.088 708.406 790.328 709.32 790.328C710.562 790.328 711.588 789.895 712.396 789.027C713.217 788.148 713.627 787.047 713.627 785.723V784.158ZM738.588 793H734.51V782.857C734.51 779.494 733.32 777.812 730.941 777.812C729.699 777.812 728.674 778.281 727.865 779.219C727.057 780.145 726.652 781.316 726.652 782.734V793H722.557V775H726.652V777.988H726.723C728.07 775.715 730.016 774.578 732.559 774.578C734.516 774.578 736.01 775.217 737.041 776.494C738.072 777.76 738.588 779.594 738.588 781.996V793ZM756.465 792.174C755.023 793.006 753.318 793.422 751.35 793.422C748.678 793.422 746.521 792.59 744.881 790.926C743.24 789.25 742.42 787.082 742.42 784.422C742.42 781.457 743.299 779.078 745.057 777.285C746.826 775.48 749.188 774.578 752.141 774.578C753.781 774.578 755.229 774.865 756.482 775.439V779.236C755.229 778.299 753.893 777.83 752.475 777.83C750.752 777.83 749.34 778.416 748.238 779.588C747.137 780.748 746.586 782.271 746.586 784.158C746.586 786.021 747.102 787.492 748.133 788.57C749.176 789.648 750.57 790.188 752.316 790.188C753.781 790.188 755.164 789.666 756.465 788.623V792.174ZM775.766 785.107H763.496C763.543 786.771 764.053 788.055 765.025 788.957C766.01 789.859 767.357 790.311 769.068 790.311C770.99 790.311 772.754 789.736 774.359 788.588V791.875C772.719 792.906 770.551 793.422 767.855 793.422C765.207 793.422 763.127 792.607 761.615 790.979C760.115 789.338 759.365 787.035 759.365 784.07C759.365 781.27 760.191 778.99 761.844 777.232C763.508 775.463 765.57 774.578 768.031 774.578C770.492 774.578 772.396 775.369 773.744 776.951C775.092 778.533 775.766 780.73 775.766 783.543V785.107ZM771.828 782.225C771.816 780.76 771.471 779.623 770.791 778.814C770.111 777.994 769.174 777.584 767.979 777.584C766.807 777.584 765.811 778.012 764.99 778.867C764.182 779.723 763.684 780.842 763.496 782.225H771.828Z" fill="#FAFAFA"/>
<path d="M943.785 791.277C941.16 792.707 938.236 793.422 935.014 793.422C931.287 793.422 928.27 792.262 925.961 789.941C923.652 787.621 922.498 784.551 922.498 780.73C922.498 776.828 923.758 773.629 926.277 771.133C928.809 768.625 932.02 767.371 935.91 767.371C938.711 767.371 941.066 767.781 942.977 768.602V772.908C941.043 771.619 938.74 770.975 936.068 770.975C933.385 770.975 931.182 771.859 929.459 773.629C927.748 775.398 926.893 777.689 926.893 780.502C926.893 783.396 927.631 785.676 929.107 787.34C930.584 788.992 932.588 789.818 935.119 789.818C936.854 789.818 938.354 789.484 939.619 788.816V782.822H934.311V779.307H943.785V791.277ZM956.74 793.422C953.963 793.422 951.742 792.584 950.078 790.908C948.426 789.221 947.6 786.988 947.6 784.211C947.6 781.188 948.461 778.826 950.184 777.127C951.918 775.428 954.25 774.578 957.18 774.578C959.992 774.578 962.184 775.404 963.754 777.057C965.324 778.709 966.109 781 966.109 783.93C966.109 786.801 965.26 789.104 963.561 790.838C961.873 792.561 959.6 793.422 956.74 793.422ZM956.934 777.83C955.34 777.83 954.08 778.387 953.154 779.5C952.229 780.613 951.766 782.148 951.766 784.105C951.766 785.992 952.234 787.48 953.172 788.57C954.109 789.648 955.363 790.188 956.934 790.188C958.539 790.188 959.77 789.654 960.625 788.588C961.492 787.521 961.926 786.004 961.926 784.035C961.926 782.055 961.492 780.525 960.625 779.447C959.77 778.369 958.539 777.83 956.934 777.83ZM985.779 775L978.818 793H974.406L967.779 775H972.209L976.199 787.586C976.504 788.512 976.691 789.32 976.762 790.012H976.814C976.92 789.145 977.084 788.359 977.307 787.656L981.49 775H985.779ZM1003.52 785.107H991.246C991.293 786.771 991.803 788.055 992.775 788.957C993.76 789.859 995.107 790.311 996.818 790.311C998.74 790.311 1000.5 789.736 1002.11 788.588V791.875C1000.47 792.906 998.301 793.422 995.605 793.422C992.957 793.422 990.877 792.607 989.365 790.979C987.865 789.338 987.115 787.035 987.115 784.07C987.115 781.27 987.941 778.99 989.594 777.232C991.258 775.463 993.32 774.578 995.781 774.578C998.242 774.578 1000.15 775.369 1001.49 776.951C1002.84 778.533 1003.52 780.73 1003.52 783.543V785.107ZM999.578 782.225C999.566 780.76 999.221 779.623 998.541 778.814C997.861 777.994 996.924 777.584 995.729 777.584C994.557 777.584 993.561 778.012 992.74 778.867C991.932 779.723 991.434 780.842 991.246 782.225H999.578ZM1017.84 778.885C1017.35 778.498 1016.64 778.305 1015.71 778.305C1014.51 778.305 1013.5 778.85 1012.69 779.939C1011.88 781.029 1011.48 782.512 1011.48 784.387V793H1007.4V775H1011.48V778.709H1011.55C1011.95 777.443 1012.56 776.459 1013.38 775.756C1014.21 775.041 1015.13 774.684 1016.15 774.684C1016.89 774.684 1017.46 774.795 1017.84 775.018V778.885ZM1036.76 793H1032.68V782.857C1032.68 779.494 1031.49 777.812 1029.11 777.812C1027.87 777.812 1026.84 778.281 1026.03 779.219C1025.22 780.145 1024.82 781.316 1024.82 782.734V793H1020.72V775H1024.82V777.988H1024.89C1026.24 775.715 1028.18 774.578 1030.73 774.578C1032.68 774.578 1034.18 775.217 1035.21 776.494C1036.24 777.76 1036.76 779.594 1036.76 781.996V793ZM1055.56 793H1051.61V790.188H1051.54C1050.3 792.344 1048.47 793.422 1046.07 793.422C1044.3 793.422 1042.91 792.941 1041.91 791.98C1040.91 791.02 1040.41 789.748 1040.41 788.166C1040.41 784.768 1042.37 782.787 1046.28 782.225L1051.63 781.469C1051.63 778.902 1050.41 777.619 1047.97 777.619C1045.83 777.619 1043.89 778.357 1042.17 779.834V776.266C1044.07 775.141 1046.26 774.578 1048.74 774.578C1053.29 774.578 1055.56 776.816 1055.56 781.293V793ZM1051.63 784.158L1047.85 784.686C1046.68 784.838 1045.79 785.125 1045.19 785.547C1044.61 785.957 1044.31 786.684 1044.31 787.727C1044.31 788.488 1044.58 789.115 1045.12 789.607C1045.67 790.088 1046.41 790.328 1047.32 790.328C1048.56 790.328 1049.59 789.895 1050.4 789.027C1051.22 788.148 1051.63 787.047 1051.63 785.723V784.158ZM1076.59 793H1072.51V782.857C1072.51 779.494 1071.32 777.812 1068.94 777.812C1067.7 777.812 1066.67 778.281 1065.87 779.219C1065.06 780.145 1064.65 781.316 1064.65 782.734V793H1060.56V775H1064.65V777.988H1064.72C1066.07 775.715 1068.02 774.578 1070.56 774.578C1072.52 774.578 1074.01 775.217 1075.04 776.494C1076.07 777.76 1076.59 779.594 1076.59 781.996V793ZM1094.46 792.174C1093.02 793.006 1091.32 793.422 1089.35 793.422C1086.68 793.422 1084.52 792.59 1082.88 790.926C1081.24 789.25 1080.42 787.082 1080.42 784.422C1080.42 781.457 1081.3 779.078 1083.06 777.285C1084.83 775.48 1087.19 774.578 1090.14 774.578C1091.78 774.578 1093.23 774.865 1094.48 775.439V779.236C1093.23 778.299 1091.89 777.83 1090.47 777.83C1088.75 777.83 1087.34 778.416 1086.24 779.588C1085.14 780.748 1084.59 782.271 1084.59 784.158C1084.59 786.021 1085.1 787.492 1086.13 788.57C1087.18 789.648 1088.57 790.188 1090.32 790.188C1091.78 790.188 1093.16 789.666 1094.46 788.623V792.174ZM1113.77 785.107H1101.5C1101.54 786.771 1102.05 788.055 1103.03 788.957C1104.01 789.859 1105.36 790.311 1107.07 790.311C1108.99 790.311 1110.75 789.736 1112.36 788.588V791.875C1110.72 792.906 1108.55 793.422 1105.86 793.422C1103.21 793.422 1101.13 792.607 1099.62 790.979C1098.12 789.338 1097.37 787.035 1097.37 784.07C1097.37 781.27 1098.19 778.99 1099.84 777.232C1101.51 775.463 1103.57 774.578 1106.03 774.578C1108.49 774.578 1110.4 775.369 1111.74 776.951C1113.09 778.533 1113.77 780.73 1113.77 783.543V785.107ZM1109.83 782.225C1109.82 780.76 1109.47 779.623 1108.79 778.814C1108.11 777.994 1107.17 777.584 1105.98 777.584C1104.81 777.584 1103.81 778.012 1102.99 778.867C1102.18 779.723 1101.68 780.842 1101.5 782.225H1109.83Z" fill="#FAFAFA"/>
<circle cx="217.25" cy="272.25" r="28.3755" fill="url(#paint12_linear_7_884)" stroke="#FAFAFA" stroke-width="1.75"/>
<path d="M220.522 260.398V284.02H216.783V264.974C216.107 265.458 215.376 265.871 214.592 266.215C213.819 266.548 212.932 266.843 211.933 267.101V263.911C212.556 263.707 213.158 263.492 213.738 263.266C214.318 263.041 214.887 262.788 215.446 262.509C216.015 262.23 216.585 261.918 217.154 261.574C217.734 261.231 218.33 260.838 218.943 260.398H220.522Z" fill="white"/>
<circle cx="217.25" cy="487.25" r="28.3755" fill="url(#paint13_linear_7_884)" stroke="#FAFAFA" stroke-width="1.75"/>
<path d="M224.163 499.02H209.661V497.232C209.661 496.501 209.763 495.819 209.967 495.185C210.172 494.541 210.445 493.939 210.789 493.38C211.133 492.811 211.536 492.279 211.998 491.785C212.46 491.28 212.954 490.797 213.48 490.335C214.007 489.862 214.544 489.411 215.091 488.982C215.639 488.541 216.176 488.101 216.703 487.66C217.197 487.241 217.648 486.833 218.056 486.436C218.465 486.027 218.814 485.608 219.104 485.179C219.394 484.749 219.619 484.298 219.78 483.825C219.942 483.342 220.022 482.821 220.022 482.262C220.022 481.65 219.925 481.118 219.732 480.667C219.549 480.205 219.286 479.824 218.943 479.523C218.61 479.212 218.212 478.981 217.75 478.83C217.288 478.669 216.783 478.588 216.236 478.588C215.29 478.588 214.329 478.809 213.351 479.249C212.374 479.69 211.434 480.35 210.531 481.231V477.638C211.004 477.283 211.482 476.977 211.966 476.719C212.449 476.451 212.948 476.231 213.464 476.059C213.98 475.876 214.522 475.742 215.091 475.656C215.661 475.57 216.268 475.527 216.912 475.527C217.954 475.527 218.9 475.667 219.748 475.946C220.597 476.214 221.322 476.617 221.924 477.154C222.525 477.681 222.987 478.341 223.309 479.136C223.642 479.931 223.809 480.844 223.809 481.876C223.809 482.81 223.691 483.653 223.454 484.405C223.229 485.147 222.901 485.839 222.471 486.484C222.052 487.129 221.542 487.741 220.941 488.321C220.339 488.901 219.668 489.497 218.926 490.109C218.303 490.614 217.68 491.108 217.057 491.592C216.445 492.065 215.892 492.532 215.398 492.994C214.903 493.445 214.501 493.901 214.189 494.363C213.888 494.815 213.738 495.271 213.738 495.733V495.814H224.163V499.02Z" fill="white"/>
<circle cx="217.25" cy="782.25" r="28.3755" fill="url(#paint14_linear_7_884)" stroke="#FAFAFA" stroke-width="1.75"/>
<path d="M210.064 793.166V789.653C211.568 790.846 213.265 791.442 215.156 791.442C216.692 791.442 217.917 791.093 218.83 790.395C219.754 789.696 220.216 788.751 220.216 787.559C220.216 784.938 218.212 783.627 214.205 783.627H212.417V780.63H214.125C217.68 780.63 219.458 779.395 219.458 776.924C219.458 774.647 218.072 773.508 215.301 773.508C213.754 773.508 212.299 774.061 210.934 775.168V771.848C212.503 770.967 214.356 770.527 216.493 770.527C218.545 770.527 220.189 771.043 221.424 772.074C222.659 773.105 223.277 774.426 223.277 776.038C223.277 779.078 221.73 781.033 218.636 781.903V781.967C220.301 782.129 221.617 782.714 222.584 783.724C223.551 784.723 224.034 785.974 224.034 787.478C224.034 789.551 223.256 791.227 221.698 792.505C220.14 793.773 218.089 794.407 215.543 794.407C213.255 794.407 211.428 793.993 210.064 793.166Z" fill="white"/>
<defs>
<filter id="filter0_d_7_884" x="357" y="639" width="282.028" height="114" filterUnits="userSpaceOnUse" color-interpolation-filters="sRGB">
<feFlood flood-opacity="0" result="BackgroundImageFix"/>
<feColorMatrix in="SourceAlpha" type="matrix" values="0 0 0 0 0 0 0 0 0 0 0 0 0 0 0 0 0 0 127 0" result="hardAlpha"/>
<feMorphology radius="3" operator="dilate" in="SourceAlpha" result="effect1_dropShadow_7_884"/>
<feOffset dy="2"/>
<feGaussianBlur stdDeviation="2"/>
<feComposite in2="hardAlpha" operator="out"/>
<feColorMatrix type="matrix" values="0 0 0 0 0 0 0 0 0 0 0 0 0 0 0 0 0 0 0.11 0"/>
<feBlend mode="normal" in2="BackgroundImageFix" result="effect1_dropShadow_7_884"/>
<feBlend mode="normal" in="SourceGraphic" in2="effect1_dropShadow_7_884" result="shape"/>
</filter>
<filter id="filter1_d_7_884" x="695" y="639" width="282.028" height="114" filterUnits="userSpaceOnUse" color-interpolation-filters="sRGB">
<feFlood flood-opacity="0" result="BackgroundImageFix"/>
<feColorMatrix in="SourceAlpha" type="matrix" values="0 0 0 0 0 0 0 0 0 0 0 0 0 0 0 0 0 0 127 0" result="hardAlpha"/>
<feMorphology radius="3" operator="dilate" in="SourceAlpha" result="effect1_dropShadow_7_884"/>
<feOffset dy="2"/>
<feGaussianBlur stdDeviation="2"/>
<feComposite in2="hardAlpha" operator="out"/>
<feColorMatrix type="matrix" values="0 0 0 0 0 0 0 0 0 0 0 0 0 0 0 0 0 0 0.11 0"/>
<feBlend mode="normal" in2="BackgroundImageFix" result="effect1_dropShadow_7_884"/>
<feBlend mode="normal" in="SourceGraphic" in2="effect1_dropShadow_7_884" result="shape"/>
</filter>
<filter id="filter2_d_7_884" x="1033" y="639" width="282.028" height="114" filterUnits="userSpaceOnUse" color-interpolation-filters="sRGB">
<feFlood flood-opacity="0" result="BackgroundImageFix"/>
<feColorMatrix in="SourceAlpha" type="matrix" values="0 0 0 0 0 0 0 0 0 0 0 0 0 0 0 0 0 0 127 0" result="hardAlpha"/>
<feMorphology radius="3" operator="dilate" in="SourceAlpha" result="effect1_dropShadow_7_884"/>
<feOffset dy="2"/>
<feGaussianBlur stdDeviation="2"/>
<feComposite in2="hardAlpha" operator="out"/>
<feColorMatrix type="matrix" values="0 0 0 0 0 0 0 0 0 0 0 0 0 0 0 0 0 0 0.11 0"/>
<feBlend mode="normal" in2="BackgroundImageFix" result="effect1_dropShadow_7_884"/>
<feBlend mode="normal" in="SourceGraphic" in2="effect1_dropShadow_7_884" result="shape"/>
</filter>
<filter id="filter3_d_7_884" x="698" y="217" width="614.593" height="114" filterUnits="userSpaceOnUse" color-interpolation-filters="sRGB">
<feFlood flood-opacity="0" result="BackgroundImageFix"/>
<feColorMatrix in="SourceAlpha" type="matrix" values="0 0 0 0 0 0 0 0 0 0 0 0 0 0 0 0 0 0 127 0" result="hardAlpha"/>
<feMorphology radius="3" operator="dilate" in="SourceAlpha" result="effect1_dropShadow_7_884"/>
<feOffset dy="2"/>
<feGaussianBlur stdDeviation="2"/>
<feComposite in2="hardAlpha" operator="out"/>
<feColorMatrix type="matrix" values="0 0 0 0 0 0 0 0 0 0 0 0 0 0 0 0 0 0 0.11 0"/>
<feBlend mode="normal" in2="BackgroundImageFix" result="effect1_dropShadow_7_884"/>
<feBlend mode="normal" in="SourceGraphic" in2="effect1_dropShadow_7_884" result="shape"/>
</filter>
<filter id="filter4_d_7_884" x="210" y="217" width="568.379" height="114" filterUnits="userSpaceOnUse" color-interpolation-filters="sRGB">
<feFlood flood-opacity="0" result="BackgroundImageFix"/>
<feColorMatrix in="SourceAlpha" type="matrix" values="0 0 0 0 0 0 0 0 0 0 0 0 0 0 0 0 0 0 127 0" result="hardAlpha"/>
<feMorphology radius="3" operator="dilate" in="SourceAlpha" result="effect1_dropShadow_7_884"/>
<feOffset dy="2"/>
<feGaussianBlur stdDeviation="2"/>
<feComposite in2="hardAlpha" operator="out"/>
<feColorMatrix type="matrix" values="0 0 0 0 0 0 0 0 0 0 0 0 0 0 0 0 0 0 0.11 0"/>
<feBlend mode="normal" in2="BackgroundImageFix" result="effect1_dropShadow_7_884"/>
<feBlend mode="normal" in="SourceGraphic" in2="effect1_dropShadow_7_884" result="shape"/>
</filter>
<filter id="filter5_d_7_884" x="698" y="432" width="614.593" height="114" filterUnits="userSpaceOnUse" color-interpolation-filters="sRGB">
<feFlood flood-opacity="0" result="BackgroundImageFix"/>
<feColorMatrix in="SourceAlpha" type="matrix" values="0 0 0 0 0 0 0 0 0 0 0 0 0 0 0 0 0 0 127 0" result="hardAlpha"/>
<feMorphology radius="3" operator="dilate" in="SourceAlpha" result="effect1_dropShadow_7_884"/>
<feOffset dy="2"/>
<feGaussianBlur stdDeviation="2"/>
<feComposite in2="hardAlpha" operator="out"/>
<feColorMatrix type="matrix" values="0 0 0 0 0 0 0 0 0 0 0 0 0 0 0 0 0 0 0.11 0"/>
<feBlend mode="normal" in2="BackgroundImageFix" result="effect1_dropShadow_7_884"/>
<feBlend mode="normal" in="SourceGraphic" in2="effect1_dropShadow_7_884" result="shape"/>
</filter>
<filter id="filter6_d_7_884" x="210" y="432" width="568.379" height="114" filterUnits="userSpaceOnUse" color-interpolation-filters="sRGB">
<feFlood flood-opacity="0" result="BackgroundImageFix"/>
<feColorMatrix in="SourceAlpha" type="matrix" values="0 0 0 0 0 0 0 0 0 0 0 0 0 0 0 0 0 0 127 0" result="hardAlpha"/>
<feMorphology radius="3" operator="dilate" in="SourceAlpha" result="effect1_dropShadow_7_884"/>
<feOffset dy="2"/>
<feGaussianBlur stdDeviation="2"/>
<feComposite in2="hardAlpha" operator="out"/>
<feColorMatrix type="matrix" values="0 0 0 0 0 0 0 0 0 0 0 0 0 0 0 0 0 0 0.11 0"/>
<feBlend mode="normal" in2="BackgroundImageFix" result="effect1_dropShadow_7_884"/>
<feBlend mode="normal" in="SourceGraphic" in2="effect1_dropShadow_7_884" result="shape"/>
</filter>
<filter id="filter7_d_7_884" x="210" y="727" width="282.028" height="114" filterUnits="userSpaceOnUse" color-interpolation-filters="sRGB">
<feFlood flood-opacity="0" result="BackgroundImageFix"/>
<feColorMatrix in="SourceAlpha" type="matrix" values="0 0 0 0 0 0 0 0 0 0 0 0 0 0 0 0 0 0 127 0" result="hardAlpha"/>
<feMorphology radius="3" operator="dilate" in="SourceAlpha" result="effect1_dropShadow_7_884"/>
<feOffset dy="2"/>
<feGaussianBlur stdDeviation="2"/>
<feComposite in2="hardAlpha" operator="out"/>
<feColorMatrix type="matrix" values="0 0 0 0 0 0 0 0 0 0 0 0 0 0 0 0 0 0 0.11 0"/>
<feBlend mode="normal" in2="BackgroundImageFix" result="effect1_dropShadow_7_884"/>
<feBlend mode="normal" in="SourceGraphic" in2="effect1_dropShadow_7_884" result="shape"/>
</filter>
<filter id="filter8_d_7_884" x="548" y="727" width="282.028" height="114" filterUnits="userSpaceOnUse" color-interpolation-filters="sRGB">
<feFlood flood-opacity="0" result="BackgroundImageFix"/>
<feColorMatrix in="SourceAlpha" type="matrix" values="0 0 0 0 0 0 0 0 0 0 0 0 0 0 0 0 0 0 127 0" result="hardAlpha"/>
<feMorphology radius="3" operator="dilate" in="SourceAlpha" result="effect1_dropShadow_7_884"/>
<feOffset dy="2"/>
<feGaussianBlur stdDeviation="2"/>
<feComposite in2="hardAlpha" operator="out"/>
<feColorMatrix type="matrix" values="0 0 0 0 0 0 0 0 0 0 0 0 0 0 0 0 0 0 0.11 0"/>
<feBlend mode="normal" in2="BackgroundImageFix" result="effect1_dropShadow_7_884"/>
<feBlend mode="normal" in="SourceGraphic" in2="effect1_dropShadow_7_884" result="shape"/>
</filter>
<filter id="filter9_d_7_884" x="886" y="727" width="282.028" height="114" filterUnits="userSpaceOnUse" color-interpolation-filters="sRGB">
<feFlood flood-opacity="0" result="BackgroundImageFix"/>
<feColorMatrix in="SourceAlpha" type="matrix" values="0 0 0 0 0 0 0 0 0 0 0 0 0 0 0 0 0 0 127 0" result="hardAlpha"/>
<feMorphology radius="3" operator="dilate" in="SourceAlpha" result="effect1_dropShadow_7_884"/>
<feOffset dy="2"/>
<feGaussianBlur stdDeviation="2"/>
<feComposite in2="hardAlpha" operator="out"/>
<feColorMatrix type="matrix" values="0 0 0 0 0 0 0 0 0 0 0 0 0 0 0 0 0 0 0.11 0"/>
<feBlend mode="normal" in2="BackgroundImageFix" result="effect1_dropShadow_7_884"/>
<feBlend mode="normal" in="SourceGraphic" in2="effect1_dropShadow_7_884" result="shape"/>
</filter>
<linearGradient id="paint0_linear_7_884" x1="750" y1="0" x2="750" y2="935" gradientUnits="userSpaceOnUse">
<stop stop-color="white" stop-opacity="0"/>
<stop offset="1" stop-color="#D0D0D0"/>
</linearGradient>
<radialGradient id="paint1_radial_7_884" cx="0" cy="0" r="1" gradientUnits="userSpaceOnUse" gradientTransform="translate(412.899 94.8518) rotate(30.6232) scale(1455.24 1204.05)">
<stop stop-color="#FFB800" stop-opacity="0.6"/>
<stop offset="0.255208" stop-color="#E8E48E"/>
<stop offset="0.776042" stop-color="#177E71" stop-opacity="0.6"/>
<stop offset="1" stop-color="#17597E"/>
</radialGradient>
<linearGradient id="paint2_linear_7_884" x1="364" y1="644" x2="428.774" y2="820.186" gradientUnits="userSpaceOnUse">
<stop stop-color="white"/>
<stop offset="1" stop-color="#E5F3F1"/>
</linearGradient>
<linearGradient id="paint3_linear_7_884" x1="702" y1="644" x2="766.774" y2="820.186" gradientUnits="userSpaceOnUse">
<stop stop-color="white"/>
<stop offset="1" stop-color="#E5F3F1"/>
</linearGradient>
<linearGradient id="paint4_linear_7_884" x1="1040" y1="644" x2="1104.77" y2="820.186" gradientUnits="userSpaceOnUse">
<stop stop-color="white"/>
<stop offset="1" stop-color="#E5F3F1"/>
</linearGradient>
<linearGradient id="paint5_linear_7_884" x1="705" y1="222" x2="737.078" y2="416.715" gradientUnits="userSpaceOnUse">
<stop stop-color="#125247"/>
<stop offset="1" stop-color="#013129"/>
</linearGradient>
<linearGradient id="paint6_linear_7_884" x1="217" y1="222" x2="251.611" y2="415.819" gradientUnits="userSpaceOnUse">
<stop stop-color="white"/>
<stop offset="1" stop-color="#EFF6F5"/>
</linearGradient>
<linearGradient id="paint7_linear_7_884" x1="705" y1="437" x2="737.078" y2="631.715" gradientUnits="userSpaceOnUse">
<stop stop-color="white"/>
<stop offset="1" stop-color="#E5F3F1"/>
</linearGradient>
<linearGradient id="paint8_linear_7_884" x1="217" y1="437" x2="251.611" y2="630.819" gradientUnits="userSpaceOnUse">
<stop stop-color="#125247"/>
<stop offset="1" stop-color="#013129"/>
</linearGradient>
<linearGradient id="paint9_linear_7_884" x1="217" y1="732" x2="281.774" y2="908.186" gradientUnits="userSpaceOnUse">
<stop stop-color="#125247"/>
<stop offset="1" stop-color="#013129"/>
</linearGradient>
<linearGradient id="paint10_linear_7_884" x1="555" y1="732" x2="619.774" y2="908.186" gradientUnits="userSpaceOnUse">
<stop stop-color="#125247"/>
<stop offset="1" stop-color="#013129"/>
</linearGradient>
<linearGradient id="paint11_linear_7_884" x1="893" y1="732" x2="957.774" y2="908.186" gradientUnits="userSpaceOnUse">
<stop stop-color="#125247"/>
<stop offset="1" stop-color="#013129"/>
</linearGradient>
<linearGradient id="paint12_linear_7_884" x1="188" y1="243" x2="246.501" y2="301.501" gradientUnits="userSpaceOnUse">
<stop stop-color="#209782"/>
<stop offset="1" stop-color="#0C695A"/>
</linearGradient>
<linearGradient id="paint13_linear_7_884" x1="188" y1="458" x2="246.501" y2="516.501" gradientUnits="userSpaceOnUse">
<stop stop-color="#209782"/>
<stop offset="1" stop-color="#0C695A"/>
</linearGradient>
<linearGradient id="paint14_linear_7_884" x1="188" y1="753" x2="246.501" y2="811.501" gradientUnits="userSpaceOnUse">
<stop stop-color="#209782"/>
<stop offset="1" stop-color="#0C695A"/>
</linearGradient>
</defs>
</svg>
