<svg id="Layer_1" data-name="Layer 1" xmlns="http://www.w3.org/2000/svg" viewBox="0 0 400 140"><defs><style>.cls-1,.cls-3,.cls-6{fill:none;}.cls-1{stroke:#ccc;}.cls-1,.cls-2,.cls-3,.cls-4,.cls-5,.cls-6{stroke-miterlimit:10;stroke-width:2px;}.cls-2,.cls-4,.cls-5{fill:#fff;}.cls-2,.cls-3,.cls-5{stroke:#000;}.cls-2{stroke-linecap:round;}.cls-4,.cls-6{stroke:#f2c811;}</style></defs><title>PowerBI_Icon-Development</title><line class="cls-1" x1="351.67" y1="24.99" x2="302.73" y2="24.99"/><line class="cls-1" x1="292.57" y1="24.99" x2="269.67" y2="24.99"/><line class="cls-1" x1="259.67" y1="35.15" x2="333.7" y2="35.15"/><line class="cls-1" x1="269.67" y1="45.67" x2="280.25" y2="45.67"/><line class="cls-1" x1="289.41" y1="45.67" x2="330.54" y2="45.67"/><line class="cls-1" x1="135" y1="101.16" x2="74.13" y2="101.16"/><line class="cls-1" x1="64.61" y1="101.16" x2="51.58" y2="101.16"/><line class="cls-1" x1="46" y1="90.25" x2="91.94" y2="90.25"/><line class="cls-1" x1="102.1" y1="90.75" x2="135" y2="90.75"/><line class="cls-1" x1="135" y1="79.84" x2="60.97" y2="79.84"/><line class="cls-1" x1="119.26" y1="69.32" x2="78.13" y2="69.32"/><rect class="cls-2" x="126.8" y="18.2" width="146.39" height="93.94"/><rect class="cls-2" x="133.95" y="24.84" width="132.1" height="80.66"/><path class="cls-2" d="M274.08,121.8H125.92a10.93,10.93,0,0,1-7.4-2.76L113,114c-.58-.54-.13-1.4.74-1.4H286.24c.87,0,1.32.86.74,1.4l-5.5,5.09A10.93,10.93,0,0,1,274.08,121.8Z"/><line class="cls-2" x1="181.5" y1="117.17" x2="218.5" y2="117.17"/><circle class="cls-3" cx="224.25" cy="42.5" r="4.75"/><circle class="cls-3" cx="181.75" cy="82.75" r="4.75"/><circle class="cls-3" cx="224.11" cy="69.61" r="10.14"/><path class="cls-4" d="M201.51,86.61,181.9,67a11.49,11.49,0,1,1,16.24-16.25l3.37,3.37,3.37-3.37A11.49,11.49,0,0,1,221.12,67Z"/><path class="cls-3" d="M157,63c5.56,0,5.56,6,11.12,6s5.56-6,11.12-6,5.57,6,11.13,6,5.57-6,11.13-6"/><rect class="cls-5" x="248.83" y="54.56" width="69.67" height="45.19"/><rect class="cls-5" x="260.17" y="65.33" width="11.45" height="24.74"/><rect class="cls-4" x="277.64" y="70.28" width="11.45" height="19.79"/><rect class="cls-5" x="295.71" y="64.23" width="11.45" height="25.84"/><line class="cls-3" x1="254.48" y1="90.07" x2="312.85" y2="90.07"/><rect class="cls-5" x="95.82" y="34.38" width="52.9" height="39.56"/><line class="cls-3" x1="103.09" y1="57" x2="103.09" y2="65.1"/><line class="cls-3" x1="108.87" y1="57" x2="108.87" y2="67.41"/><line class="cls-3" x1="125.07" y1="57" x2="125.07" y2="67.41"/><line class="cls-3" x1="130.85" y1="57" x2="130.85" y2="63.94"/><line class="cls-6" x1="113.5" y1="57" x2="113.5" y2="44.28"/><line class="cls-6" x1="119.28" y1="57" x2="119.28" y2="47.75"/><line class="cls-6" x1="135.48" y1="57" x2="135.48" y2="47.75"/><line class="cls-6" x1="141.26" y1="57" x2="141.26" y2="39.65"/></svg>