<svg id="Layer_1" data-name="Layer 1" xmlns="http://www.w3.org/2000/svg" viewBox="0 0 400 140"><defs><style>.cls-1,.cls-2,.cls-5,.cls-6,.cls-8,.cls-9{fill:none;}.cls-1{stroke:#ccc;}.cls-1,.cls-3,.cls-4,.cls-5,.cls-6,.cls-7,.cls-8,.cls-9{stroke-miterlimit:10;}.cls-1,.cls-2,.cls-3,.cls-4,.cls-5,.cls-6,.cls-7,.cls-9{stroke-width:2px;}.cls-2,.cls-3,.cls-4,.cls-5,.cls-8,.cls-9{stroke:#000;}.cls-2,.cls-3,.cls-9{stroke-linecap:round;}.cls-2{stroke-linejoin:round;}.cls-3,.cls-4,.cls-7{fill:#fff;}.cls-6,.cls-7{stroke:#f2c811;}</style></defs><line class="cls-1" x1="256" y1="36.33" x2="267" y2="36.33"/><line class="cls-1" x1="275" y1="36.33" x2="296" y2="36.33"/><line class="cls-1" x1="304" y1="36.33" x2="315" y2="36.33"/><line class="cls-1" x1="261" y1="46.33" x2="283" y2="46.33"/><line class="cls-1" x1="291" y1="46.33" x2="301" y2="46.33"/><line class="cls-1" x1="309" y1="46.33" x2="320" y2="46.33"/><line class="cls-1" x1="273" y1="24.33" x2="276" y2="24.33"/><line class="cls-1" x1="281" y1="24.33" x2="287" y2="24.33"/><line class="cls-1" x1="293" y1="24.33" x2="301" y2="24.33"/><line class="cls-1" x1="308" y1="24.33" x2="335" y2="24.33"/><path class="cls-1" d="M65,82h42"/><path class="cls-1" d="M115,82h12"/><line class="cls-1" x1="77" y1="91.33" x2="93" y2="91.33"/><line class="cls-1" x1="100" y1="91.33" x2="106" y2="91.33"/><line class="cls-1" x1="114" y1="91.33" x2="133" y2="91.33"/><path class="cls-2" d="M131.14,60.14l1-4.38-.57-.35-4.33-2.62-.54-3.31L130.31,45l-2.37-3.82-.65.16-4.91,1.21-2.73-2L119,34.8l-4.38-1-.35.58-2.62,4.33-3.31.54-4.53-3.59L100,38l.16.64,1.2,4.92L99.4,46.29l-5.74.65-1,4.38.58.35,4.32,2.62.55,3.31-3.59,4.53L96.85,66l.65-.16,4.92-1.21,2.73,2,.65,5.74,4.38,1,.35-.57,2.62-4.32,3.31-.55,4.52,3.6,3.82-2.38-.15-.65-1.21-4.91,2-2.73Z"/><path class="cls-2" d="M111.23,58.55a5.14,5.14,0,1,1,6.18-3.84A5.14,5.14,0,0,1,111.23,58.55Z"/><path class="cls-2" d="M300.89,96.89l3.23-4.23-.45-.65-3.39-4.93,1-3.83,6.07-3.14-.71-5.27-.78-.14L300,73.61l-2-3.43,2.07-6.51-4.22-3.23-.65.45-4.93,3.39-3.84-1-3.14-6.07L278,57.9l-.15.77-1.09,5.89-3.43,2-6.51-2.08-3.23,4.23.45.65,3.4,4.93-1,3.84-6.07,3.13.7,5.27.78.15,5.88,1.08,2,3.43-2.07,6.51,4.22,3.23.65-.45,4.94-3.39,3.83,1,3.13,6.07,5.28-.7.14-.78L291,96.8l3.43-2Z"/><path class="cls-2" d="M280.18,85.52a6.09,6.09,0,1,1,8.53-1.14A6.09,6.09,0,0,1,280.18,85.52Z"/><rect class="cls-3" x="121.78" y="18.97" width="156.44" height="88"/><line class="cls-4" x1="200" y1="107.85" x2="200" y2="120.15"/><line class="cls-4" x1="184.18" y1="121.03" x2="215.82" y2="121.03"/><rect class="cls-4" x="177.91" y="86.32" width="44.6" height="13.68"/><rect class="cls-4" x="177.91" y="66.82" width="44.6" height="13.68"/><rect class="cls-4" x="227.3" y="66.82" width="44.6" height="33.18"/><line class="cls-5" x1="233.1" y1="86.41" x2="233.1" y2="93.41"/><line class="cls-5" x1="238.1" y1="86.41" x2="238.1" y2="95.41"/><line class="cls-5" x1="252.1" y1="86.41" x2="252.1" y2="95.41"/><line class="cls-5" x1="257.1" y1="86.41" x2="257.1" y2="92.41"/><line class="cls-6" x1="242.1" y1="86.41" x2="242.1" y2="75.41"/><line class="cls-6" x1="247.1" y1="86.41" x2="247.1" y2="78.41"/><line class="cls-6" x1="261.1" y1="86.41" x2="261.1" y2="78.41"/><line class="cls-6" x1="266.1" y1="86.41" x2="266.1" y2="71.41"/><polyline class="cls-5" points="182 76 192 72 203 76 210 72 218 75"/><circle class="cls-7" cx="182.5" cy="76.5" r="1.5"/><circle class="cls-7" cx="192.5" cy="71.5" r="1.5"/><circle class="cls-7" cx="202.5" cy="75.5" r="1.5"/><circle class="cls-7" cx="209.5" cy="72.5" r="1.5"/><circle class="cls-7" cx="217.5" cy="74.5" r="1.5"/><line class="cls-4" x1="181.5" y1="91.5" x2="214.5" y2="91.5"/><line class="cls-6" x1="181.5" y1="95.5" x2="205" y2="95.5"/><rect class="cls-4" x="227.12" y="27.07" width="44.6" height="33.18"/><path class="cls-5" d="M249.42,31.24a12.42,12.42,0,1,0,0,24.84"/><path class="cls-5" d="M249.42,56.08a12.42,12.42,0,0,0,12.42-12.42"/><path class="cls-6" d="M249.42,31.24a12.42,12.42,0,0,1,12.42,12.42H249.42Z"/><rect class="cls-4" x="128.43" y="27.07" width="44.6" height="33.18"/><circle class="cls-4" cx="155.5" cy="43.5" r="12.5"/><circle class="cls-4" cx="137" cy="36" r="3"/><circle class="cls-7" cx="142" cy="50" r="5"/><rect class="cls-4" x="128.43" y="66.82" width="44.6" height="33.18"/><path class="cls-8" d="M134,79c3.5,0,3.5,10,7,10s3.49-10,7-10,3.5,10,7,10,3.5-10,7-10,3.5,10,7,10"/><path class="cls-9" d="M134,79c3.5,0,3.5,10,7,10s3.49-10,7-10,3.5,10,7,10,3.5-10,7-10,3.5,10,7,10"/><rect class="cls-4" x="177.81" y="27.07" width="44.6" height="33.18"/><rect class="cls-3" x="187.11" y="42.66" width="11" height="11"/><rect class="cls-7" x="202.11" y="33.66" width="11" height="20"/><line class="cls-4" x1="182.11" y1="53.66" x2="218.11" y2="53.66"/></svg>