<svg id="Layer_1" data-name="Layer 1" xmlns="http://www.w3.org/2000/svg" viewBox="0 0 400 140"><defs><style>.cls-1,.cls-3,.cls-5{fill:none;}.cls-1{stroke:#ccc;}.cls-1,.cls-2,.cls-3,.cls-5{stroke-miterlimit:10;}.cls-1,.cls-2,.cls-3,.cls-4,.cls-5{stroke-width:2px;}.cls-2,.cls-4{fill:#fff;}.cls-2,.cls-4,.cls-5{stroke:#000;}.cls-2,.cls-3,.cls-4,.cls-5{stroke-linecap:round;}.cls-3{stroke:#f2c811;}.cls-4{stroke-linejoin:round;}</style></defs><line class="cls-1" x1="67.67" y1="92" x2="85.67" y2="92"/><line class="cls-1" x1="54.67" y1="84" x2="90.67" y2="84"/><line class="cls-1" x1="97.67" y1="84" x2="133.67" y2="84"/><line class="cls-1" x1="139.67" y1="84" x2="145.67" y2="84"/><line class="cls-1" x1="116.67" y1="92" x2="124.67" y2="92"/><line class="cls-1" x1="130.67" y1="92" x2="148.67" y2="92"/><line class="cls-1" x1="93.67" y1="92" x2="111.67" y2="92"/><line class="cls-1" x1="269" y1="70" x2="286" y2="70"/><line class="cls-1" x1="309" y1="70" x2="336" y2="70"/><line class="cls-1" x1="291" y1="70" x2="302" y2="70"/><line class="cls-1" x1="276" y1="78" x2="279" y2="78"/><line class="cls-1" x1="283" y1="78" x2="289" y2="78"/><line class="cls-1" x1="294" y1="78" x2="307" y2="78"/><line class="cls-1" x1="312" y1="78" x2="332" y2="78"/><line class="cls-1" x1="264" y1="86" x2="294" y2="86"/><line class="cls-1" x1="301" y1="86" x2="317" y2="86"/><line class="cls-1" x1="323" y1="86" x2="342" y2="86"/><line class="cls-1" x1="139" y1="59" x2="78" y2="59"/><line class="cls-1" x1="67" y1="59" x2="72" y2="59"/><line class="cls-1" x1="128" y1="50" x2="119" y2="50"/><line class="cls-1" x1="112" y1="50" x2="78" y2="50"/><line class="cls-1" x1="112" y1="68" x2="71" y2="68"/><rect class="cls-2" x="123.64" y="22.08" width="152.72" height="95.84"/><rect class="cls-2" x="129.09" y="27.75" width="142.59" height="74.02"/><line class="cls-3" x1="154.56" y1="59" x2="154.56" y2="68.33"/><path class="cls-3" d="M165.33,48H174V62h12.33"/><path class="cls-3" d="M165.33,82H174V68h12.33"/><rect class="cls-2" x="140.06" y="39" width="27.76" height="20"/><rect class="cls-2" x="140.06" y="70" width="27.76" height="20"/><polyline class="cls-3" points="211.67 64.67 221 64.67 221 81 228.67 81"/><rect class="cls-2" x="183.75" y="54" width="27.76" height="20"/><path class="cls-3" d="M243,68V47h43.33"/><line class="cls-4" x1="146.33" y1="46.33" x2="160.33" y2="46.33"/><line class="cls-4" x1="146.33" y1="52.33" x2="156.33" y2="52.33"/><rect class="cls-2" x="284.57" y="37.17" width="27.76" height="20"/><rect class="cls-2" x="229.07" y="68" width="27.76" height="20"/><rect class="cls-2" x="229.07" y="37.17" width="27.76" height="20"/><line class="cls-5" x1="147" y1="77.33" x2="151.67" y2="77.33"/><line class="cls-5" x1="147" y1="83.33" x2="159.67" y2="83.33"/><line class="cls-5" x1="188.5" y1="59.25" x2="198" y2="59.25"/><line class="cls-5" x1="192.75" y1="63.5" x2="205.25" y2="63.5"/><line class="cls-5" x1="192.75" y1="68" x2="201.25" y2="68"/><line class="cls-5" x1="234.75" y1="43.5" x2="250.75" y2="43.5"/><line class="cls-5" x1="234.75" y1="49.75" x2="242.75" y2="49.75"/><line class="cls-5" x1="234.75" y1="75" x2="245.75" y2="75"/><line class="cls-5" x1="234.75" y1="81.25" x2="242.75" y2="81.25"/><line class="cls-5" x1="291.75" y1="47.75" x2="302.75" y2="47.75"/><line class="cls-5" x1="289.75" y1="43.25" x2="300.75" y2="43.25"/><line class="cls-5" x1="291.75" y1="52.25" x2="299.75" y2="52.25"/></svg>