<svg id="Layer_1" data-name="Layer 1" xmlns="http://www.w3.org/2000/svg" viewBox="0 0 400 140"><defs><style>.cls-1,.cls-4,.cls-5,.cls-7,.cls-8{fill:none;}.cls-1{stroke:#ccc;}.cls-1,.cls-2,.cls-3,.cls-4,.cls-5,.cls-6,.cls-7,.cls-8{stroke-miterlimit:10;}.cls-1,.cls-2,.cls-3,.cls-4,.cls-5,.cls-6,.cls-8{stroke-width:2px;}.cls-2,.cls-3,.cls-6{fill:#fff;}.cls-2,.cls-3,.cls-4,.cls-7,.cls-8{stroke:#000;}.cls-2,.cls-8{stroke-linecap:round;}.cls-5,.cls-6{stroke:#f2c811;}</style></defs><line class="cls-1" x1="358" y1="42.32" x2="312.06" y2="42.32"/><line class="cls-1" x1="298.9" y1="42.32" x2="276" y2="42.32"/><line class="cls-1" x1="266" y1="52.48" x2="340.03" y2="52.48"/><line class="cls-1" x1="276" y1="63" x2="282.58" y2="63"/><line class="cls-1" x1="295.74" y1="63" x2="336.87" y2="63"/><line class="cls-1" x1="54" y1="55" x2="99.94" y2="55"/><line class="cls-1" x1="113.1" y1="55" x2="136" y2="55"/><line class="cls-1" x1="146" y1="44.84" x2="71.97" y2="44.84"/><line class="cls-1" x1="136" y1="34.32" x2="129.42" y2="34.32"/><line class="cls-1" x1="116.26" y1="34.32" x2="75.13" y2="34.32"/><line class="cls-1" x1="182" y1="95.32" x2="136.06" y2="95.32"/><line class="cls-1" x1="122.9" y1="95.32" x2="90" y2="95.32"/><line class="cls-1" x1="80" y1="105.48" x2="164.03" y2="105.48"/><line class="cls-1" x1="90" y1="116" x2="106.58" y2="116"/><line class="cls-1" x1="119.74" y1="116" x2="160.87" y2="116"/><rect class="cls-2" x="121.78" y="18.97" width="156.44" height="88"/><line class="cls-3" x1="200" y1="107.85" x2="200" y2="120.15"/><line class="cls-3" x1="184.18" y1="121.03" x2="215.82" y2="121.03"/><rect class="cls-3" x="177.91" y="86.32" width="44.6" height="13.68"/><rect class="cls-3" x="177.91" y="66.82" width="44.6" height="13.68"/><rect class="cls-3" x="227.3" y="66.82" width="44.6" height="33.18"/><line class="cls-4" x1="233.1" y1="86.41" x2="233.1" y2="93.41"/><line class="cls-4" x1="238.1" y1="86.41" x2="238.1" y2="95.41"/><line class="cls-4" x1="252.1" y1="86.41" x2="252.1" y2="95.41"/><line class="cls-4" x1="257.1" y1="86.41" x2="257.1" y2="92.41"/><line class="cls-5" x1="242.1" y1="86.41" x2="242.1" y2="75.41"/><line class="cls-5" x1="247.1" y1="86.41" x2="247.1" y2="78.41"/><line class="cls-5" x1="261.1" y1="86.41" x2="261.1" y2="78.41"/><line class="cls-5" x1="266.1" y1="86.41" x2="266.1" y2="71.41"/><polyline class="cls-4" points="182 76 192 72 203 76 210 72 218 75"/><circle class="cls-6" cx="182.5" cy="76.5" r="1.5"/><circle class="cls-6" cx="192.5" cy="71.5" r="1.5"/><circle class="cls-6" cx="202.5" cy="75.5" r="1.5"/><circle class="cls-6" cx="209.5" cy="72.5" r="1.5"/><circle class="cls-6" cx="217.5" cy="74.5" r="1.5"/><line class="cls-3" x1="181.5" y1="91.5" x2="214.5" y2="91.5"/><line class="cls-5" x1="181.5" y1="95.5" x2="205" y2="95.5"/><rect class="cls-3" x="227.12" y="27.07" width="44.6" height="33.18"/><path class="cls-4" d="M249.42,31.24a12.42,12.42,0,1,0,0,24.84"/><path class="cls-4" d="M249.42,56.08a12.42,12.42,0,0,0,12.42-12.42"/><path class="cls-5" d="M249.42,31.24a12.42,12.42,0,0,1,12.42,12.42H249.42Z"/><rect class="cls-3" x="128.43" y="27.07" width="44.6" height="33.18"/><circle class="cls-3" cx="155.5" cy="43.5" r="12.5"/><circle class="cls-3" cx="137" cy="36" r="3"/><circle class="cls-6" cx="142" cy="50" r="5"/><rect class="cls-3" x="128.43" y="66.82" width="44.6" height="33.18"/><path class="cls-7" d="M134,79c3.5,0,3.5,10,7,10s3.49-10,7-10,3.5,10,7,10,3.5-10,7-10,3.5,10,7,10"/><path class="cls-8" d="M134,79c3.5,0,3.5,10,7,10s3.49-10,7-10,3.5,10,7,10,3.5-10,7-10,3.5,10,7,10"/><rect class="cls-3" x="177.81" y="27.07" width="44.6" height="33.18"/><rect class="cls-2" x="187.11" y="42.66" width="11" height="11"/><rect class="cls-6" x="202.11" y="33.66" width="11" height="20"/><line class="cls-3" x1="182.11" y1="53.66" x2="218.11" y2="53.66"/><rect class="cls-3" x="259.25" y="72.9" width="29.75" height="48.14"/><rect class="cls-3" x="263.59" y="78.8" width="21.07" height="34.1"/><polyline class="cls-6" points="267 104 270.5 97.5 276 99 280 85"/></svg>