<svg id="Layer_1" data-name="Layer 1" xmlns="http://www.w3.org/2000/svg" viewBox="0 0 400 140"><defs><style>.cls-1,.cls-10,.cls-5,.cls-6,.cls-7,.cls-9{fill:none;}.cls-1{stroke:#ccc;}.cls-1,.cls-10,.cls-2,.cls-3,.cls-4,.cls-5,.cls-6,.cls-7,.cls-8,.cls-9{stroke-miterlimit:10;}.cls-1,.cls-10,.cls-2,.cls-3,.cls-4,.cls-5,.cls-6,.cls-7{stroke-width:2px;}.cls-2,.cls-3,.cls-4,.cls-8{fill:#fff;}.cls-10,.cls-2,.cls-3,.cls-5,.cls-8{stroke:#000;}.cls-10,.cls-2,.cls-9{stroke-linecap:round;}.cls-4,.cls-6,.cls-9{stroke:#f2c811;}.cls-7{stroke:#f4ca00;}.cls-9{stroke-width:2.26px;}</style></defs><title>PowerBI_Icon-Development</title><line class="cls-1" x1="348.83" y1="99.33" x2="317.83" y2="99.33"/><line class="cls-1" x1="309.83" y1="99.33" x2="278.83" y2="99.33"/><line class="cls-1" x1="358.83" y1="89.33" x2="331.83" y2="89.33"/><line class="cls-1" x1="326.83" y1="89.33" x2="309.83" y2="89.33"/><line class="cls-1" x1="303.83" y1="89.33" x2="260.83" y2="89.33"/><line class="cls-1" x1="335.83" y1="78.33" x2="325.83" y2="78.33"/><line class="cls-1" x1="320.83" y1="78.39" x2="309.83" y2="78.39"/><line class="cls-1" x1="304.83" y1="78.39" x2="283.83" y2="78.39"/><line class="cls-1" x1="325.83" y1="67.33" x2="298.83" y2="67.33"/><line class="cls-1" x1="292.83" y1="67.33" x2="284.83" y2="67.33"/><line class="cls-1" x1="334.83" y1="56.33" x2="319.83" y2="56.33"/><line class="cls-1" x1="314.83" y1="56.33" x2="278.83" y2="56.33"/><line class="cls-1" x1="278" y1="78.39" x2="273.5" y2="78.39"/><line class="cls-1" x1="138" y1="47" x2="77" y2="47"/><line class="cls-1" x1="66" y1="47" x2="71" y2="47"/><line class="cls-1" x1="127" y1="38" x2="118" y2="38"/><line class="cls-1" x1="111" y1="38" x2="77" y2="38"/><line class="cls-1" x1="111" y1="56" x2="70" y2="56"/><rect class="cls-2" x="126.8" y="18.2" width="146.39" height="93.94"/><path class="cls-2" d="M274.08,121.8H125.92a10.93,10.93,0,0,1-7.4-2.76L113,114c-.58-.54-.13-1.4.74-1.4H286.24c.87,0,1.32.86.74,1.4l-5.5,5.09A10.93,10.93,0,0,1,274.08,121.8Z"/><line class="cls-2" x1="181.5" y1="117.17" x2="218.5" y2="117.17"/><path class="cls-3" d="M268,34.22H132.75V26.27A2.28,2.28,0,0,1,135,24H265.73A2.28,2.28,0,0,1,268,26.27v8Z"/><circle class="cls-3" cx="140" cy="29.25" r="1.85"/><circle class="cls-4" cx="146.53" cy="29.25" r="1.85"/><circle class="cls-3" cx="153.63" cy="29.25" r="1.85"/><rect class="cls-3" x="132.75" y="33.87" width="135.25" height="72.15"/><rect class="cls-3" x="140.04" y="37.82" width="30.19" height="35.18" transform="translate(210.54 -99.73) rotate(90)"/><line class="cls-5" x1="152.61" y1="44.46" x2="145.41" y2="44.46"/><line class="cls-5" x1="152.61" y1="47.76" x2="143.35" y2="47.76"/><line class="cls-5" x1="152.61" y1="57" x2="143.35" y2="57"/><line class="cls-5" x1="152.61" y1="60.3" x2="146.44" y2="60.3"/><line class="cls-6" x1="152.61" y1="50.4" x2="163.92" y2="50.4"/><line class="cls-6" x1="152.61" y1="53.7" x2="160.84" y2="53.7"/><line class="cls-6" x1="152.61" y1="62.94" x2="160.84" y2="62.94"/><line class="cls-6" x1="152.61" y1="66.24" x2="168.04" y2="66.24"/><rect class="cls-2" x="177.79" y="40.4" width="42.92" height="30.02"/><polygon class="cls-7" points="183.96 66.38 214.11 66.38 214.11 45.13 205.7 57.43 198.68 51.96 193.78 61.53 187.47 57.43 183.96 66.38"/><rect class="cls-3" x="225.54" y="40.07" width="36.92" height="30.35"/><rect class="cls-2" x="233.24" y="54.33" width="9.1" height="10.06"/><rect class="cls-4" x="245.65" y="46.1" width="9.1" height="18.29"/><line class="cls-3" x1="229.1" y1="64.39" x2="258.89" y2="64.39"/><circle class="cls-3" cx="94.33" cy="88.85" r="13.33"/><path class="cls-8" d="M96.62,92.15a7.55,7.55,0,0,1,2.06,1.1,7.29,7.29,0,0,1,1.55,1.64,7.19,7.19,0,0,1,1,2,7.72,7.72,0,0,1,.35,2.3h-1.07a6.64,6.64,0,0,0-.49-2.54,6.13,6.13,0,0,0-3.39-3.39A6.86,6.86,0,0,0,92.34,93a7.32,7.32,0,0,0-1.55.64A6.42,6.42,0,0,0,88.5,96a6.4,6.4,0,0,0-.86,3.26H86.56a7.65,7.65,0,0,1,1.35-4.32,7.26,7.26,0,0,1,1.56-1.62,7.67,7.67,0,0,1,2-1.12,5,5,0,0,1-1.17-.85,5.35,5.35,0,0,1-1.45-2.43,5.37,5.37,0,0,1-.19-1.44,5.19,5.19,0,0,1,.42-2.08,5.39,5.39,0,0,1,1.14-1.71A5.52,5.52,0,0,1,92,82.51a5.41,5.41,0,0,1,4.18,0A5.33,5.33,0,0,1,99,85.36a5.19,5.19,0,0,1,.42,2.08,5.25,5.25,0,0,1-.2,1.43,5.45,5.45,0,0,1-.56,1.31,5.57,5.57,0,0,1-.88,1.12A5.17,5.17,0,0,1,96.62,92.15Zm-6.84-4.71a4.06,4.06,0,0,0,.34,1.67A4.25,4.25,0,0,0,91,90.47a4.3,4.3,0,0,0,1.36.92,4.21,4.21,0,0,0,1.66.34,4.26,4.26,0,0,0,1.67-.34,4.41,4.41,0,0,0,1.36-.92A4.6,4.6,0,0,0,98,89.11a4.25,4.25,0,0,0,0-3.33,4.6,4.6,0,0,0-.92-1.36,4.41,4.41,0,0,0-1.36-.92,4.09,4.09,0,0,0-1.67-.34,4,4,0,0,0-1.66.34,4.3,4.3,0,0,0-1.36.92,4.25,4.25,0,0,0-.92,1.36A4,4,0,0,0,89.78,87.44Z"/><rect class="cls-3" x="114.9" y="77.31" width="88.6" height="23.08" rx="4.92" ry="4.92"/><line class="cls-3" x1="106.77" y1="88.85" x2="114.9" y2="88.85"/><line class="cls-9" x1="121.68" y1="85.29" x2="191.75" y2="85.29"/><line class="cls-9" x1="122.13" y1="92.07" x2="176.38" y2="92.07"/><rect class="cls-2" x="209" y="77" width="53.5" height="23"/><path class="cls-10" d="M212.23,95.4s21.77-27.6,47.62,0"/></svg>