<svg id="Layer_1" data-name="Layer 1" xmlns="http://www.w3.org/2000/svg" viewBox="0 0 400 140"><defs><style>.cls-1,.cls-3,.cls-7,.cls-8,.cls-9{fill:none;}.cls-1{stroke:#ccc;}.cls-1,.cls-2,.cls-3,.cls-6,.cls-7,.cls-8,.cls-9{stroke-miterlimit:10;}.cls-1,.cls-2,.cls-3,.cls-4,.cls-5,.cls-6,.cls-7,.cls-8,.cls-9{stroke-width:2px;}.cls-2,.cls-4,.cls-5,.cls-6{fill:#fff;}.cls-2,.cls-4,.cls-9{stroke:#000;}.cls-2,.cls-4,.cls-5{stroke-linecap:round;}.cls-3{stroke:#f4ca00;}.cls-4,.cls-5{stroke-linejoin:round;}.cls-5,.cls-8{stroke:#f2c811;}.cls-6,.cls-7{stroke:#231f20;}</style></defs><title>PowerBI_Icon-Development</title><line class="cls-1" x1="244" y1="56.33" x2="289.94" y2="56.33"/><line class="cls-1" x1="303.1" y1="56.33" x2="326" y2="56.33"/><line class="cls-1" x1="336" y1="46.17" x2="261.97" y2="46.17"/><line class="cls-1" x1="326" y1="35.66" x2="319.42" y2="35.66"/><line class="cls-1" x1="306.26" y1="35.66" x2="265.13" y2="35.66"/><line class="cls-1" x1="115.33" y1="83.33" x2="100.33" y2="83.33"/><line class="cls-1" x1="95.33" y1="83.33" x2="90.33" y2="83.33"/><line class="cls-1" x1="85.33" y1="83.33" x2="60.33" y2="83.33"/><line class="cls-1" x1="106.33" y1="93.33" x2="52.33" y2="93.33"/><line class="cls-1" x1="115.33" y1="103.33" x2="76.33" y2="103.33"/><line class="cls-1" x1="69.33" y1="103.33" x2="60.33" y2="103.33"/><line class="cls-1" x1="92" y1="62.33" x2="106" y2="62.33"/><line class="cls-1" x1="111" y1="62.33" x2="115" y2="62.33"/><line class="cls-1" x1="72" y1="72.33" x2="86" y2="72.33"/><line class="cls-1" x1="91" y1="72.33" x2="115" y2="72.33"/><rect class="cls-2" x="117.14" y="18" width="165.72" height="104"/><rect class="cls-2" x="123.06" y="23.07" width="154.73" height="80.33"/><rect class="cls-3" x="227.06" y="107.63" width="20.29" height="9.3"/><rect class="cls-2" x="257.5" y="107.63" width="20.29" height="9.3"/><path class="cls-4" d="M260.44,68.66c0-.14,0-.27,0-.41l5.86-2.1-2.12-8.42L257.91,59a19.67,19.67,0,0,0-3.4-4.45l2.84-5.9-7.42-4.51-3.74,5.51a20.19,20.19,0,0,0-5.59-.8h-.29l-2.13-5.73-8.39,2.21,1.25,6a19.64,19.64,0,0,0-4.6,3.5L220.6,52.1l-4.37,7.5,5.33,3.48a20.07,20.07,0,0,0-.8,5.52l-6.12,2.86,2.88,8.19L223.09,78a20.09,20.09,0,0,0,3.8,5l-2.35,5.38,7.57,4.24,3.06-4.87a19.89,19.89,0,0,0,5.43.75h.65l2.19,5.57,8.35-2.37-1.34-5.81a19.74,19.74,0,0,0,4.62-3.65l5.83,2.68,4.39-7.48-5.52-3.62A19.93,19.93,0,0,0,260.44,68.66Z"/><circle class="cls-5" cx="240.46" cy="68.58" r="8.44"/><path class="cls-4" d="M212.1,53.43a2.48,2.48,0,0,0,0-.27l4-.87-.66-5.68-4.19.27a13,13,0,0,0-1.84-3.2l2.36-3.61-4.46-3.58-2.91,3.28a13.29,13.29,0,0,0-3.58-1l-.19,0-.9-3.93-5.67.72.3,4a13.08,13.08,0,0,0-3.31,1.89l-3.58-2.25L184,43.7l3.18,2.73a13.29,13.29,0,0,0-1,3.53L182,51.31l1.18,5.59,3.77-.6A13,13,0,0,0,189,59.9l-2,3.31,4.59,3.43L194,63.71a13,13,0,0,0,3.48,1l.43,0,.95,3.83,5.66-.83-.38-3.9a13.43,13.43,0,0,0,3.34-2L211,64.08l3.51-4.51-3.29-2.84A12.84,12.84,0,0,0,212.1,53.43Z"/><circle class="cls-5" cx="199.06" cy="51.65" r="5.56"/><rect class="cls-6" x="137.57" y="32.66" width="52.13" height="59.02"/><polygon class="cls-7" points="189.26 32.66 137.57 32.66 137.57 32.66 189.26 32.66 189.26 32.66"/><polygon class="cls-7" points="184.56 42.08 154.84 42.08 154.84 42.08 184.56 42.08 184.56 42.08"/><polygon class="cls-7" points="189.26 52.33 137.57 52.33 137.57 52.33 189.26 52.33 189.26 52.33"/><polygon class="cls-7" points="184.56 62.17 154.84 62.17 154.84 62.17 184.56 62.17 184.56 62.17"/><polygon class="cls-7" points="189.26 72 137.57 72 137.57 72 189.26 72 189.26 72"/><polygon class="cls-7" points="184.56 81.96 154.84 81.96 154.84 81.96 184.56 81.96 184.56 81.96"/><circle class="cls-8" cx="146.35" cy="42.08" r="3.03"/><circle class="cls-8" cx="146.35" cy="62.17" r="3.03"/><circle class="cls-8" cx="146.35" cy="82.26" r="3.03"/><circle class="cls-2" cx="285.67" cy="96.17" r="20.17"/><path class="cls-9" d="M279.38,90.42s.51-7.19,5.9-7.19S292,87.08,292,90.42c0,5.39-6.94,5.39-6.94,10.52v3.6"/><circle cx="285.1" cy="107.96" r="1.14"/></svg>