<svg id="Layer_1" data-name="Layer 1" xmlns="http://www.w3.org/2000/svg" viewBox="0 0 140 140"><defs><style>.cls-1,.cls-3{fill:none;}.cls-1{stroke:#013f4f;stroke-linejoin:round;opacity:0.1;}.cls-1,.cls-2,.cls-3{stroke-width:2px;}.cls-2{fill:#fff;stroke:#000;}.cls-2,.cls-3{stroke-miterlimit:10;}.cls-3{stroke:#f2c811;}</style></defs><title>PowerBI_Icon-Development</title><polygon class="cls-1" points="70.04 110.23 66.77 113.68 69.96 116.69 73.23 113.59 70.04 110.23"/><path class="cls-2" d="M77.82,24.31h26.45a3.38,3.38,0,0,1,3.38,3.38v88.37a3.38,3.38,0,0,1-3.38,3.39H35.73a3.38,3.38,0,0,1-3.38-3.39V27.69a3.38,3.38,0,0,1,3.38-3.38H77.82Z"/><polyline class="cls-2" points="94.23 33.59 101.56 33.59 101.56 113.36 38.44 113.36 38.44 33.59 45.77 33.59"/><path class="cls-2" d="M90.88,28.75H77.81c0-.12,0-.24,0-.37a7.83,7.83,0,1,0-15.66,0c0,.13,0,.25,0,.37H49.12a3.36,3.36,0,0,0-3.35,3.36V37.7H94.23V32.11A3.36,3.36,0,0,0,90.88,28.75ZM70,31a2.64,2.64,0,1,1,2.64-2.64A2.64,2.64,0,0,1,70,31Z"/><rect class="cls-2" x="46.57" y="45.47" width="14.5" height="14.5"/><polyline class="cls-3" points="50.74 50.94 54.07 54.27 65.21 43.13"/><rect class="cls-2" x="46.57" y="68.48" width="14.5" height="14.5"/><rect class="cls-2" x="46.57" y="91.49" width="14.5" height="14.5"/><line class="cls-3" x1="67.89" y1="50.67" x2="93.5" y2="50.67"/><line class="cls-3" x1="67.89" y1="55.79" x2="84.71" y2="55.79"/><line class="cls-2" x1="67.89" y1="73.09" x2="93.5" y2="73.09"/><line class="cls-2" x1="67.89" y1="78.21" x2="84.71" y2="78.21"/><line class="cls-2" x1="67.89" y1="96.45" x2="93.5" y2="96.45"/><line class="cls-2" x1="67.89" y1="101.57" x2="84.71" y2="101.57"/></svg>