<svg id="Layer_1" data-name="Layer 1" xmlns="http://www.w3.org/2000/svg" viewBox="0 0 140 140"><defs><style>.cls-1,.cls-2,.cls-3{fill:#fff;stroke-linecap:round;}.cls-1,.cls-3,.cls-4{stroke:#000;}.cls-1,.cls-2{stroke-linejoin:round;}.cls-1,.cls-2,.cls-3,.cls-4{stroke-width:2px;}.cls-2{stroke:#f2c811;}.cls-3,.cls-4{stroke-miterlimit:10;}.cls-4{fill:none;}</style></defs><title>PowerBI_Icon-Development</title><path class="cls-1" d="M23.18,75c0-.16,0-.32,0-.49L16.25,72l2.51-10,7.42,1.48a23.61,23.61,0,0,1,4-5.28l-3.36-7,8.8-5.34,4.43,6.54a23.46,23.46,0,0,1,6.63-1h.34l2.53-6.79,10,2.62L58,54.38a23.9,23.9,0,0,1,5.47,4.16l6.91-3.17,5.19,8.89-6.32,4.12a23.57,23.57,0,0,1,.94,6.55l7.27,3.39L74.08,88l-6.61-2A23.76,23.76,0,0,1,63,92l2.79,6.38-9,5-3.62-5.79a23.63,23.63,0,0,1-6.44.9l-.77,0-2.6,6.61-9.9-2.81L35,95.42a23.27,23.27,0,0,1-5.48-4.33l-6.91,3.19L17.43,85.4,24,81.1A23.56,23.56,0,0,1,23.18,75Z"/><circle class="cls-2" cx="46.87" cy="74.9" r="10"/><path class="cls-1" d="M85,55.85l0-.35-5.16-1.11.85-7.31,5.39.35a17,17,0,0,1,2.37-4.12l-3-4.64,5.74-4.61,3.75,4.21A17,17,0,0,1,99.42,37l.25,0,1.15-5.05,7.3.93L107.73,38A17,17,0,0,1,112,40.41l4.6-2.89,4.51,5.81L117,46.85a16.62,16.62,0,0,1,1.29,4.54l5.46,1.73-1.52,7.2-4.86-.77a16.54,16.54,0,0,1-2.64,4.62l2.58,4.26-5.89,4.41-3.12-3.76a16.89,16.89,0,0,1-4.47,1.24l-.55.06-1.22,4.92-7.28-1.06.48-5A16.94,16.94,0,0,1,91,66.65l-4.59,2.91-4.52-5.81,4.23-3.65A17,17,0,0,1,85,55.85Z"/><circle class="cls-2" cx="101.73" cy="53.56" r="7.15"/><circle class="cls-3" cx="93.35" cy="94.8" r="13.3"/><path class="cls-4" d="M89.21,91s.33-4.74,3.89-4.74,4.4,2.54,4.4,4.74c0,3.56-4.57,3.56-4.57,6.94v2.37"/><circle cx="92.98" cy="102.58" r="0.75"/></svg>