<svg id="Layer_1" data-name="Layer 1" xmlns="http://www.w3.org/2000/svg" viewBox="0 0 400 140"><defs><style>.cls-1,.cls-2,.cls-3{fill:none;}.cls-1,.cls-4,.cls-5,.cls-7{stroke:#000;}.cls-1,.cls-2,.cls-3,.cls-4,.cls-5,.cls-6{stroke-miterlimit:10;}.cls-1,.cls-2,.cls-3,.cls-4,.cls-5,.cls-6,.cls-7{stroke-width:2px;}.cls-2,.cls-6{stroke:#f2c811;}.cls-3{stroke:#ccc;}.cls-4,.cls-5,.cls-6,.cls-7{fill:#fff;}.cls-4,.cls-7{stroke-linecap:round;}.cls-7{stroke-linejoin:round;}</style></defs><circle class="cls-1" cx="100" cy="69" r="11"/><polyline class="cls-2" points="256.71 66.3 283.74 55.48 298.29 60.01 330.88 44.59"/><polyline class="cls-1" points="247.71 45.43 265.44 51.65 289.56 32.07 306.92 44.36 328.26 27.08"/><path class="cls-3" d="M71.5,33h42"/><path class="cls-3" d="M121.5,33h12"/><line class="cls-3" x1="63.5" y1="42.33" x2="79.5" y2="42.33"/><line class="cls-3" x1="86.5" y1="42.33" x2="92.5" y2="42.33"/><line class="cls-3" x1="100.5" y1="42.33" x2="139.5" y2="42.33"/><line class="cls-3" x1="269.5" y1="91" x2="280.5" y2="91"/><line class="cls-3" x1="288.5" y1="91" x2="309.5" y2="91"/><line class="cls-3" x1="317.5" y1="91" x2="328.5" y2="91"/><line class="cls-3" x1="274.5" y1="101" x2="296.5" y2="101"/><line class="cls-3" x1="304.5" y1="101" x2="314.5" y2="101"/><line class="cls-3" x1="322.5" y1="101" x2="333.5" y2="101"/><line class="cls-3" x1="266.5" y1="79" x2="289.5" y2="79"/><line class="cls-3" x1="294.5" y1="79" x2="300.5" y2="79"/><line class="cls-3" x1="306.5" y1="79" x2="314.5" y2="79"/><line class="cls-3" x1="321.5" y1="79" x2="348.5" y2="79"/><rect class="cls-4" x="126.8" y="18.2" width="146.39" height="93.94"/><rect class="cls-4" x="133.95" y="24.84" width="132.1" height="80.66"/><path class="cls-4" d="M274.08,121.8H125.92a10.93,10.93,0,0,1-7.4-2.76L113,114c-.58-.54-.13-1.4.74-1.4H286.24c.87,0,1.32.86.74,1.4l-5.5,5.09A10.93,10.93,0,0,1,274.08,121.8Z"/><line class="cls-4" x1="181.5" y1="117.17" x2="218.5" y2="117.17"/><rect class="cls-5" x="165.35" y="46.78" width="35.05" height="43.8"/><rect class="cls-5" x="199.6" y="46.78" width="35.05" height="43.8"/><path class="cls-5" d="M200.19,87.9a47,47,0,0,0-15.14-2.68A68.25,68.25,0,0,0,169.88,87V43.21a62,62,0,0,1,15.26-1.79,59.11,59.11,0,0,1,15.05,1.79Z"/><path class="cls-5" d="M230.12,87.9A47,47,0,0,0,215,85.22,68.22,68.22,0,0,0,199.81,87V43.21a62,62,0,0,1,15.26-1.79,59.11,59.11,0,0,1,15.05,1.79Z"/><circle class="cls-6" cx="119.5" cy="77.5" r="17.5"/><circle class="cls-5" cx="88.5" cy="93.5" r="6.5"/><path class="cls-7" d="M177.5,51.25h14.75"/><path class="cls-7" d="M177.5,57.69h14.75"/><path class="cls-7" d="M177.5,64.12h14.75"/><path class="cls-7" d="M177.5,70.56h14.75"/><path class="cls-7" d="M177.5,77h14.75"/><path class="cls-7" d="M207.5,51.25h14.75"/><path class="cls-7" d="M207.5,57.69h14.75"/><path class="cls-7" d="M207.5,64.12h14.75"/><path class="cls-7" d="M207.5,70.56h14.75"/><path class="cls-7" d="M207.5,77h14.75"/></svg>