<svg id="Layer_1" data-name="Layer 1" xmlns="http://www.w3.org/2000/svg" viewBox="0 0 140 140"><defs><style>.cls-1,.cls-4,.cls-5{fill:#fff;stroke-linecap:round;}.cls-1,.cls-3,.cls-4{stroke:#000;}.cls-1{stroke-linejoin:round;}.cls-1,.cls-2,.cls-3,.cls-4,.cls-5{stroke-width:2px;}.cls-2,.cls-3{fill:none;}.cls-2{stroke:#f4ca00;}.cls-2,.cls-3,.cls-4,.cls-5{stroke-miterlimit:10;}.cls-5{stroke:#f2c811;}</style></defs><title>PowerBI_Icon-Development</title><polyline id="_Path_" data-name="&lt;Path&gt;" class="cls-1" points="103.02 100.91 103.03 110.3 39.52 110.37 39.51 100.97"/><polyline id="_Path_2" data-name="&lt;Path&gt;" class="cls-1" points="39.52 105.72 39.43 28.85 83.41 28.8 102.96 48.3 103.02 100.66"/><polygon id="_Path_3" data-name="&lt;Path&gt;" class="cls-1" points="83.44 48.32 102.96 48.3 83.41 28.8 83.44 48.32"/><polyline id="_Path_4" data-name="&lt;Path&gt;" class="cls-1" points="98.17 96.07 98.18 105.47 34.68 105.54 34.67 96.14"/><polyline id="_Path_5" data-name="&lt;Path&gt;" class="cls-1" points="34.67 100.89 34.59 24.01 78.57 23.97 98.12 43.47 98.17 95.83"/><polygon id="_Path_6" data-name="&lt;Path&gt;" class="cls-1" points="78.59 43.49 98.12 43.47 78.57 23.97 78.59 43.49"/><line class="cls-2" x1="58.85" y1="42.86" x2="67.9" y2="42.86"/><line class="cls-3" x1="58.85" y1="49.94" x2="78.77" y2="49.94"/><line class="cls-3" x1="55.22" y1="57.01" x2="46.17" y2="57.01"/><line class="cls-2" x1="55.22" y1="62.68" x2="46.17" y2="62.68"/><line class="cls-3" x1="58.85" y1="66.92" x2="78.77" y2="66.92"/><line class="cls-2" x1="58.85" y1="74" x2="91.45" y2="74"/><line class="cls-3" x1="58.85" y1="82.49" x2="86.02" y2="82.49"/><line class="cls-3" x1="58.85" y1="95.22" x2="76.96" y2="95.22"/><rect class="cls-4" x="89.94" y="90.23" width="5.15" height="10.3" transform="translate(-40.23 89.38) rotate(-43.28)"/><path class="cls-5" d="M54.72,55.25A25,25,0,1,0,90,56.31,25,25,0,0,0,54.72,55.25ZM85.44,87.87a19.84,19.84,0,1,1,.84-28A19.83,19.83,0,0,1,85.44,87.87Z"/><rect class="cls-4" x="98.01" y="96.55" width="9.07" height="18.95" transform="translate(-44.8 99.15) rotate(-43.28)"/></svg>