<svg id="Layer_1" data-name="Layer 1" xmlns="http://www.w3.org/2000/svg" viewBox="0 0 400 140"><defs><style>.cls-1,.cls-3,.cls-4,.cls-6{fill:none;}.cls-1{stroke:#ccc;}.cls-1,.cls-2,.cls-3,.cls-4,.cls-5,.cls-6{stroke-miterlimit:10;}.cls-1,.cls-2,.cls-3,.cls-4,.cls-5,.cls-6,.cls-7{stroke-width:2px;}.cls-2,.cls-5,.cls-7,.cls-8{fill:#fff;}.cls-2,.cls-4,.cls-6,.cls-7{stroke:#000;}.cls-2,.cls-5,.cls-6,.cls-7{stroke-linecap:round;}.cls-3{stroke:#f4ca00;}.cls-5{stroke:#f2c811;}.cls-7{stroke-linejoin:round;}.cls-9{fill:#f2c811;}</style></defs><line class="cls-1" x1="264" y1="58.67" x2="279" y2="58.67"/><line class="cls-1" x1="284" y1="58.67" x2="289" y2="58.67"/><line class="cls-1" x1="294" y1="58.67" x2="319" y2="58.67"/><line class="cls-1" x1="273" y1="48.67" x2="327" y2="48.67"/><line class="cls-1" x1="264" y1="38.67" x2="303" y2="38.67"/><line class="cls-1" x1="309" y1="38.67" x2="313" y2="38.67"/><line class="cls-1" x1="281.33" y1="79.67" x2="273.33" y2="79.67"/><line class="cls-1" x1="268.33" y1="79.67" x2="264.33" y2="79.67"/><line class="cls-1" x1="307.33" y1="69.67" x2="293.33" y2="69.67"/><line class="cls-1" x1="288.33" y1="69.67" x2="264.33" y2="69.67"/><line class="cls-1" x1="131.33" y1="99.33" x2="100.33" y2="99.33"/><line class="cls-1" x1="92.33" y1="99.33" x2="61.33" y2="99.33"/><line class="cls-1" x1="141.33" y1="89.33" x2="114.33" y2="89.33"/><line class="cls-1" x1="109.33" y1="89.33" x2="92.33" y2="89.33"/><line class="cls-1" x1="86.33" y1="89.33" x2="43.33" y2="89.33"/><line class="cls-1" x1="118.33" y1="78.33" x2="108.33" y2="78.33"/><line class="cls-1" x1="103.33" y1="78.39" x2="92.33" y2="78.39"/><line class="cls-1" x1="87.33" y1="78.39" x2="66.33" y2="78.39"/><line class="cls-1" x1="108.33" y1="67.33" x2="81.33" y2="67.33"/><line class="cls-1" x1="75.33" y1="67.33" x2="67.33" y2="67.33"/><line class="cls-1" x1="117.33" y1="56.33" x2="102.33" y2="56.33"/><line class="cls-1" x1="97.33" y1="56.33" x2="61.33" y2="56.33"/><rect class="cls-2" x="126.8" y="18.2" width="146.39" height="93.94"/><rect class="cls-2" x="133.95" y="24.84" width="132.1" height="80.66"/><path class="cls-2" d="M274.08,121.8H125.92a10.93,10.93,0,0,1-7.4-2.76L113,114c-.58-.54-.13-1.4.74-1.4H286.24c.87,0,1.32.86.74,1.4l-5.5,5.09A10.93,10.93,0,0,1,274.08,121.8Z"/><line class="cls-2" x1="181.5" y1="117.17" x2="218.5" y2="117.17"/><rect class="cls-2" x="139.83" y="29.8" width="32.89" height="37.2"/><line class="cls-3" x1="151.51" y1="36.43" x2="155.84" y2="36.43"/><line class="cls-4" x1="151.51" y1="39.82" x2="161.05" y2="39.82"/><line class="cls-4" x1="149.77" y1="43.21" x2="145.43" y2="43.21"/><line class="cls-3" x1="149.77" y1="45.92" x2="145.43" y2="45.92"/><line class="cls-4" x1="151.51" y1="47.95" x2="161.05" y2="47.95"/><line class="cls-3" x1="151.51" y1="51.34" x2="167.12" y2="51.34"/><line class="cls-4" x1="151.51" y1="55.41" x2="164.52" y2="55.41"/><line class="cls-4" x1="149.77" y1="57.44" x2="146.3" y2="57.44"/><line class="cls-4" x1="151.51" y1="61.51" x2="160.18" y2="61.51"/><rect class="cls-2" x="234.34" y="29.8" width="24.88" height="37.2"/><rect class="cls-2" x="178.12" y="29.8" width="51.86" height="37.2"/><polygon class="cls-3" points="185.57 62 222 62 222 35.66 211.84 50.91 203.36 44.13 197.43 55.99 189.81 50.91 185.57 62"/><rect class="cls-2" x="238.78" y="36" width="6.22" height="25"/><rect class="cls-5" x="248.56" y="49" width="6.22" height="12"/><rect class="cls-2" x="178.12" y="72" width="80.88" height="25"/><path class="cls-6" d="M183,92s32.91-30,72,0"/><rect class="cls-2" x="140.12" y="72" width="32.88" height="25"/><rect class="cls-2" x="144" y="77" width="25" height="6"/><rect class="cls-5" x="148" y="86" width="17" height="6"/><polyline id="_Path_" data-name="&lt;Path&gt;" class="cls-7" points="109.49 86.86 109.48 92.82 149.79 92.87 149.8 86.9"/><polyline id="_Path_2" data-name="&lt;Path&gt;" class="cls-7" points="149.8 89.92 149.85 41.12 121.93 41.09 109.52 53.47 109.49 86.7"/><polygon id="_Path_3" data-name="&lt;Path&gt;" class="cls-7" points="121.92 53.48 109.52 53.47 121.93 41.09 121.92 53.48"/><polyline id="_Path_4" data-name="&lt;Path&gt;" class="cls-7" points="112.56 83.79 112.56 89.75 152.87 89.8 152.87 83.83"/><polyline id="_Path_5" data-name="&lt;Path&gt;" class="cls-7" points="152.87 86.85 152.92 38.05 125 38.02 112.6 50.4 112.56 83.63"/><polygon id="_Path_6" data-name="&lt;Path&gt;" class="cls-7" points="124.99 50.41 112.6 50.4 125 38.02 124.99 50.41"/><path class="cls-8" d="M123,79.5a1,1,0,0,1-1-1V64.78a1,1,0,0,1,1-1h2.14c0-2.17.18-4.93,2-6.82a8.2,8.2,0,0,1,10.66,0c1.61,1.65,1.94,5.07,2,6.82H142a1,1,0,0,1,1,1V78.5a1,1,0,0,1-1,1Zm12.33-15.72c0-2-.27-3.18-.74-3.66a3.94,3.94,0,0,0-4.18,0c-.47.48-.71,1.71-.74,3.66Z"/><path class="cls-9" d="M132.5,56a6.18,6.18,0,0,1,4.61,1.66c1.86,1.91,1.73,7.13,1.73,7.13v0H142V78.5H123V64.78h3.16v0h0c0-2.13-.13-5.22,1.73-7.13A6.18,6.18,0,0,1,132.5,56m-3.82,8.79h7.64c0-1.64,0-4.29-1-5.36a4.81,4.81,0,0,0-5.6,0c-1,1.07-1.06,3.72-1,5.36M132.5,54a8.09,8.09,0,0,0-6,2.27,9.62,9.62,0,0,0-2.3,6.52H123a2,2,0,0,0-2,2V78.5a2,2,0,0,0,2,2h19a2,2,0,0,0,2-2V64.78a2,2,0,0,0-2-2h-1.22c-.16-2-.66-4.91-2.23-6.52A8.09,8.09,0,0,0,132.5,54Zm-1.79,8.79c.1-1.49.36-1.89.43-2a2.2,2.2,0,0,1,1.36-.29,2.17,2.17,0,0,1,1.37.3,3.85,3.85,0,0,1,.42,2Z"/><line class="cls-1" x1="60.5" y1="78.39" x2="56" y2="78.39"/></svg>