<svg id="Layer_1" data-name="Layer 1" xmlns="http://www.w3.org/2000/svg" viewBox="0 0 400 140"><defs><style>.cls-1,.cls-4,.cls-5,.cls-7,.cls-8{fill:none;}.cls-1{stroke:#ccc;}.cls-1,.cls-2,.cls-3,.cls-4,.cls-5,.cls-6,.cls-7,.cls-8{stroke-miterlimit:10;}.cls-1,.cls-2,.cls-3,.cls-4,.cls-5,.cls-6,.cls-8,.cls-9{stroke-width:2px;}.cls-10,.cls-2,.cls-3,.cls-6,.cls-9{fill:#fff;}.cls-2,.cls-3,.cls-4,.cls-7,.cls-8,.cls-9{stroke:#000;}.cls-2,.cls-8{stroke-linecap:round;}.cls-5,.cls-6{stroke:#f2c811;}.cls-9{stroke-linecap:square;stroke-linejoin:round;}.cls-11{fill:#f2c811;}</style></defs><title>PowerBI_Icon-Development</title><line class="cls-1" x1="363" y1="45.99" x2="315.06" y2="45.99"/><line class="cls-1" x1="303.9" y1="45.99" x2="271" y2="45.99"/><line class="cls-1" x1="261" y1="56.15" x2="345.03" y2="56.15"/><line class="cls-1" x1="271" y1="66.67" x2="289.58" y2="66.67"/><line class="cls-1" x1="300.74" y1="66.67" x2="341.87" y2="66.67"/><line class="cls-1" x1="45.33" y1="31.33" x2="76.33" y2="31.33"/><line class="cls-1" x1="84.33" y1="31.33" x2="115.33" y2="31.33"/><line class="cls-1" x1="35.33" y1="41.33" x2="62.33" y2="41.33"/><line class="cls-1" x1="67.33" y1="41.33" x2="84.33" y2="41.33"/><line class="cls-1" x1="90.33" y1="41.33" x2="123.33" y2="41.33"/><line class="cls-1" x1="58.33" y1="52.33" x2="68.33" y2="52.33"/><line class="cls-1" x1="73.33" y1="52.33" x2="84.33" y2="52.33"/><line class="cls-1" x1="89.33" y1="52.33" x2="110.33" y2="52.33"/><line class="cls-1" x1="68.33" y1="63.33" x2="95.33" y2="63.33"/><line class="cls-1" x1="101.33" y1="63.33" x2="119.33" y2="63.33"/><line class="cls-1" x1="59.33" y1="74.33" x2="74.33" y2="74.33"/><line class="cls-1" x1="79.33" y1="74.33" x2="115.33" y2="74.33"/><path class="cls-1" d="M115.33,90h-9.66"/><path class="cls-1" d="M142.33,98.33H97"/><path class="cls-1" d="M148.33,90H136.67"/><path class="cls-1" d="M131.33,90h-9.66"/><rect class="cls-2" x="121.78" y="18.97" width="156.44" height="88"/><line class="cls-3" x1="200" y1="107.85" x2="200" y2="120.15"/><line class="cls-3" x1="184.18" y1="121.03" x2="215.82" y2="121.03"/><rect class="cls-3" x="177.91" y="86.32" width="44.6" height="13.68"/><rect class="cls-3" x="177.91" y="66.82" width="44.6" height="13.68"/><rect class="cls-3" x="227.3" y="66.82" width="44.6" height="33.18"/><line class="cls-4" x1="233.1" y1="86.41" x2="233.1" y2="93.41"/><line class="cls-4" x1="238.1" y1="86.41" x2="238.1" y2="95.41"/><line class="cls-4" x1="252.1" y1="86.41" x2="252.1" y2="95.41"/><line class="cls-4" x1="257.1" y1="86.41" x2="257.1" y2="92.41"/><line class="cls-5" x1="242.1" y1="86.41" x2="242.1" y2="75.41"/><line class="cls-5" x1="247.1" y1="86.41" x2="247.1" y2="78.41"/><line class="cls-5" x1="261.1" y1="86.41" x2="261.1" y2="78.41"/><line class="cls-5" x1="266.1" y1="86.41" x2="266.1" y2="71.41"/><polyline class="cls-4" points="182 76 192 72 203 76 210 72 218 75"/><circle class="cls-6" cx="182.5" cy="76.5" r="1.5"/><circle class="cls-6" cx="192.5" cy="71.5" r="1.5"/><circle class="cls-6" cx="202.5" cy="75.5" r="1.5"/><circle class="cls-6" cx="209.5" cy="72.5" r="1.5"/><circle class="cls-6" cx="217.5" cy="74.5" r="1.5"/><line class="cls-3" x1="181.5" y1="91.5" x2="214.5" y2="91.5"/><line class="cls-5" x1="181.5" y1="95.5" x2="205" y2="95.5"/><rect class="cls-3" x="227.12" y="27.07" width="44.6" height="33.18"/><path class="cls-4" d="M249.42,31.24a12.42,12.42,0,1,0,0,24.84"/><path class="cls-4" d="M249.42,56.08a12.42,12.42,0,0,0,12.42-12.42"/><path class="cls-5" d="M249.42,31.24a12.42,12.42,0,0,1,12.42,12.42H249.42Z"/><rect class="cls-3" x="128.43" y="27.07" width="44.6" height="33.18"/><circle class="cls-3" cx="155.5" cy="43.5" r="12.5"/><circle class="cls-3" cx="137" cy="36" r="3"/><circle class="cls-6" cx="142" cy="50" r="5"/><rect class="cls-3" x="128.43" y="66.82" width="44.6" height="33.18"/><path class="cls-7" d="M134,79c3.5,0,3.5,10,7,10s3.49-10,7-10,3.5,10,7,10,3.5-10,7-10,3.5,10,7,10"/><path class="cls-8" d="M134,79c3.5,0,3.5,10,7,10s3.49-10,7-10,3.5,10,7,10,3.5-10,7-10,3.5,10,7,10"/><rect class="cls-3" x="177.81" y="27.07" width="44.6" height="33.18"/><rect class="cls-2" x="187.11" y="42.66" width="11" height="11"/><rect class="cls-6" x="202.11" y="33.66" width="11" height="20"/><line class="cls-3" x1="182.11" y1="53.66" x2="218.11" y2="53.66"/><path class="cls-9" d="M296.52,96.12c0-5.13-.18-36.61-.18-36.3l-26-5.1v0h-.09v0l-26,5.1c0-.31-.19,31.17-.19,36.3,8.62,19.31,24.37,24.35,26.22,24.89v0h.09v0C272.16,120.47,287.9,115.43,296.52,96.12Z"/><path class="cls-10" d="M266.31,101l1.75-2.85-1.75-2.3v-3.8L268.09,89l-1.78-2.57v-2a10.7,10.7,0,1,1,7.9,0v18.89l-7.9,6.59Z"/><path class="cls-11" d="M270.26,64.7a9.71,9.71,0,0,1,2.95,19v19.14l-5.9,4.91v-6.39l2-3.19-2-2.58v-3.2l2-3.44-2-2.82V83.65a9.7,9.7,0,0,1,2.95-19m0-2A11.71,11.71,0,0,0,265.31,85v1.69l.36.51L266.91,89l-1.34,2.34-.26.46v4.4l.41.54,1.13,1.49-1.24,2-.3.49V112l3.28-2.73,5.9-4.92.72-.6V85a11.71,11.71,0,0,0-4.95-22.32Z"/><path class="cls-10" d="M270.26,73.07a2.48,2.48,0,1,1,2.47-2.47A2.48,2.48,0,0,1,270.26,73.07Z"/><path d="M270.26,69.12a1.48,1.48,0,1,1-1.48,1.48,1.47,1.47,0,0,1,1.48-1.48m0-2a3.48,3.48,0,1,0,3.47,3.48,3.48,3.48,0,0,0-3.47-3.48Z"/></svg>