<svg id="Layer_1" data-name="Layer 1" xmlns="http://www.w3.org/2000/svg" viewBox="0 0 400 140"><defs><style>.cls-1,.cls-4,.cls-5{fill:none;}.cls-1{stroke:#ccc;}.cls-1,.cls-2,.cls-3{stroke-miterlimit:10;}.cls-1,.cls-2,.cls-3,.cls-4,.cls-5,.cls-6,.cls-7{stroke-width:2px;}.cls-2,.cls-3,.cls-6,.cls-7{fill:#fff;}.cls-2,.cls-3,.cls-4,.cls-6{stroke:#000;}.cls-2,.cls-4,.cls-5,.cls-6,.cls-7{stroke-linecap:round;}.cls-4,.cls-5,.cls-6,.cls-7{stroke-linejoin:round;}.cls-5,.cls-7{stroke:#f2c811;}</style></defs><title>PowerBI_Icon-Development</title><line class="cls-1" x1="61.67" y1="63" x2="79.67" y2="63"/><line class="cls-1" x1="93.67" y1="63" x2="102.67" y2="63"/><line class="cls-1" x1="83.67" y1="63" x2="88.67" y2="63"/><line class="cls-1" x1="108.67" y1="63" x2="130.67" y2="63"/><line class="cls-1" x1="71.67" y1="73" x2="79.67" y2="73"/><line class="cls-1" x1="118.67" y1="73" x2="136.67" y2="73"/><line class="cls-1" x1="84.67" y1="73" x2="111.67" y2="73"/><line class="cls-1" x1="53.67" y1="84" x2="100.67" y2="84"/><line class="cls-1" x1="106.67" y1="84" x2="125.67" y2="84"/><line class="cls-1" x1="89.67" y1="94" x2="110.67" y2="94"/><line class="cls-1" x1="117.67" y1="94" x2="131.67" y2="94"/><line class="cls-1" x1="269.33" y1="79" x2="305.33" y2="79"/><line class="cls-1" x1="312.33" y1="79" x2="348.33" y2="79"/><line class="cls-1" x1="354.33" y1="79" x2="360.33" y2="79"/><line class="cls-1" x1="331.33" y1="87" x2="339.33" y2="87"/><line class="cls-1" x1="345.33" y1="87" x2="363.33" y2="87"/><line class="cls-1" x1="263.33" y1="36" x2="280.33" y2="36"/><line class="cls-1" x1="303.33" y1="36" x2="330.33" y2="36"/><line class="cls-1" x1="285.33" y1="36" x2="296.33" y2="36"/><line class="cls-1" x1="270.33" y1="44" x2="273.33" y2="44"/><line class="cls-1" x1="277.33" y1="44" x2="283.33" y2="44"/><line class="cls-1" x1="288.33" y1="44" x2="301.33" y2="44"/><line class="cls-1" x1="306.33" y1="44" x2="326.33" y2="44"/><line class="cls-1" x1="258.33" y1="52" x2="288.33" y2="52"/><line class="cls-1" x1="295.33" y1="52" x2="311.33" y2="52"/><line class="cls-1" x1="317.33" y1="52" x2="336.33" y2="52"/><line class="cls-1" x1="308.33" y1="87" x2="326.33" y2="87"/><rect class="cls-2" x="121.78" y="18.97" width="156.44" height="88"/><line class="cls-3" x1="200" y1="107.85" x2="200" y2="120.15"/><line class="cls-3" x1="184.18" y1="121.03" x2="215.82" y2="121.03"/><rect class="cls-4" x="127.83" y="28" width="43.71" height="31.86"/><polygon class="cls-5" points="132.9 54.11 137.65 48.37 143.35 49.93 149.06 41.06 158.08 47.84 166.63 36.36 166.63 54.11 132.9 54.11"/><rect class="cls-4" x="128.05" y="66.64" width="93.73" height="31.86"/><rect class="cls-4" x="177.86" y="28" width="43.71" height="31.86"/><polyline class="cls-5" points="184.53 50.52 187.33 41.73 190.52 50.95 193.72 37.34 198.91 53.59 201.97 44.59 206.9 48.32 210.9 34.27 214.89 51.83"/><rect class="cls-4" x="227.56" y="28.07" width="43.71" height="31.86"/><rect class="cls-4" x="231.91" y="34.46" width="35" height="6.79"/><rect class="cls-5" x="236.55" y="46.73" width="25.73" height="6.79"/><rect class="cls-4" x="227.56" y="66.64" width="43.71" height="31.86"/><rect class="cls-4" x="135" y="71.33" width="5.61" height="11"/><rect class="cls-5" x="145.29" y="74.5" width="5.61" height="7.84"/><rect class="cls-4" x="156.36" y="72.29" width="5.61" height="10.04"/><rect class="cls-5" x="197.82" y="74.5" width="5.61" height="7.84"/><rect class="cls-4" x="208.89" y="72.29" width="5.61" height="10.04"/><rect class="cls-4" x="188.78" y="83.83" width="5.61" height="11" transform="translate(383.17 178.67) rotate(180)"/><rect class="cls-5" x="178.49" y="83.83" width="5.61" height="7.84" transform="translate(362.6 175.5) rotate(180)"/><rect class="cls-4" x="167.42" y="83.83" width="5.61" height="4.92" transform="translate(340.46 172.58) rotate(180)"/><path class="cls-6" d="M290.7,75.76l.72-1.74,4.82-1.72v-4l-.56-.18-4.26-1.4L290.29,64l2.18-4.62-2.81-2.81-.52.26-4,2-2.74-1.14-1.72-4.81h-4l-.18.57-1.39,4.25-2.75,1.14-4.62-2.19L265,59.48l.26.53,2,4-1.14,2.73-4.81,1.73v4l.56.19L266.1,74l1.14,2.74-2.19,4.62,2.81,2.82.53-.27,4-2L275.13,83l1.72,4.82h4l.19-.56L282.4,83l1.72-.71"/><path class="cls-6" d="M280.89,66.24l-1.26-4.72A10,10,0,0,1,287,64.45h0a10,10,0,0,1,2.42,10.24l1.06,1,24,24a4.14,4.14,0,0,1,0,5.86l-.58.58a4.14,4.14,0,0,1-5.86,0l-24-24-1-1.06a10,10,0,0,1-10.24-2.42h0a9.92,9.92,0,0,1-2.92-7.36l4.81,1.29"/><circle class="cls-6" cx="310.75" cy="102.4" r="2.42"/><circle class="cls-7" cx="278.77" cy="70.42" r="4.55"/><path class="cls-6" d="M260.27,89l1.15-2.73-.33-.29-2.52-2.18,0-2.21,2.83-2.54-1.11-2.74-.44,0-3.33.23L255,75l.21-3.8-2.72-1.15-.29.33L250,72.91l-2.21,0-2.54-2.83-2.74,1.11,0,.44.23,3.33-1.57,1.55-3.8-.21L236.25,79l.33.29,2.52,2.18v2.21l-2.84,2.54L237.36,89l.44,0,3.33-.23,1.55,1.57-.21,3.8,2.73,1.15.29-.33,2.18-2.52,2.21,0,2.54,2.83,2.75-1.11,0-.44-.23-3.33,1.57-1.55Z"/><path class="cls-6" d="M275.08,110.25l1.07-2.52-.31-.27-2.33-2,0-2,2.62-2.34-1-2.54-.41,0-3.07.22-1.44-1.46.2-3.51-2.52-1.06-.27.3-2,2.33h-2l-2.35-2.62-2.53,1,0,.4.21,3.08-1.45,1.43L254,98.49,252.88,101l.31.26,2.33,2,0,2-2.62,2.34,1,2.54.41,0,3.07-.22,1.44,1.45-.2,3.51,2.52,1.07.27-.31,2-2.32h2l2.35,2.62,2.53-1,0-.41-.21-3.07,1.45-1.43Z"/><path class="cls-7" d="M247.52,85.77A3.39,3.39,0,1,1,252,84,3.4,3.4,0,0,1,247.52,85.77Z"/><path class="cls-7" d="M263.3,107.25a3.13,3.13,0,1,1,4.1-1.66A3.13,3.13,0,0,1,263.3,107.25Z"/></svg>