<svg id="Layer_1" data-name="Layer 1" xmlns="http://www.w3.org/2000/svg" viewBox="0 0 140 140"><defs><style>.cls-1,.cls-2,.cls-3{fill:#fff;stroke-width:2px;}.cls-1,.cls-2{stroke:#000;stroke-linecap:round;}.cls-1,.cls-3{stroke-linejoin:round;}.cls-2{stroke-miterlimit:10;}.cls-3{stroke:#f2c811;}</style></defs><title>PowerBI_documentation-illustrations</title><polygon id="_Path_" data-name="&lt;Path&gt;" class="cls-1" points="109.23 36.41 65.25 36.36 45.71 55.86 45.64 117.86 109.14 117.93 109.23 36.41"/><polygon id="_Path_2" data-name="&lt;Path&gt;" class="cls-1" points="65.23 55.88 45.71 55.86 65.25 36.36 65.23 55.88"/><polygon class="cls-1" points="101.8 29.26 57.81 29.21 38.27 48.72 38.2 110.72 101.71 110.78 101.8 29.26"/><polygon class="cls-1" points="57.8 48.74 38.27 48.72 57.81 29.21 57.8 48.74"/><polygon id="_Path_3" data-name="&lt;Path&gt;" class="cls-1" points="94.36 22.12 50.38 22.07 30.83 41.58 30.77 103.57 94.27 103.64 94.36 22.12"/><polygon id="_Path_4" data-name="&lt;Path&gt;" class="cls-1" points="50.36 41.6 30.83 41.58 50.38 22.07 50.36 41.6"/><circle class="cls-2" cx="62.56" cy="66.61" r="16.4"/><line class="cls-3" x1="62.56" y1="56.03" x2="62.56" y2="77.19"/><line class="cls-3" x1="73.14" y1="66.61" x2="51.98" y2="66.61"/></svg>