<svg id="Layer_1" data-name="Layer 1" xmlns="http://www.w3.org/2000/svg" viewBox="0 0 400 140"><defs><style>.cls-1,.cls-3,.cls-4,.cls-6{fill:none;}.cls-1{stroke:#ccc;}.cls-1,.cls-2,.cls-3,.cls-4,.cls-5,.cls-6{stroke-miterlimit:10;}.cls-1,.cls-2,.cls-3,.cls-4,.cls-5,.cls-6,.cls-7,.cls-8{stroke-width:2px;}.cls-2,.cls-5,.cls-7,.cls-8{fill:#fff;}.cls-2,.cls-4,.cls-6,.cls-7{stroke:#000;}.cls-2,.cls-5,.cls-6,.cls-7{stroke-linecap:round;}.cls-3{stroke:#f4ca00;}.cls-5,.cls-8{stroke:#f2c811;}.cls-7,.cls-8{stroke-linejoin:round;}</style></defs><title>See_All_140x400</title><line class="cls-1" x1="154.33" y1="72.32" x2="108.4" y2="72.32"/><line class="cls-1" x1="95.24" y1="72.32" x2="72.33" y2="72.32"/><line class="cls-1" x1="62.33" y1="82.48" x2="136.37" y2="82.48"/><line class="cls-1" x1="72.33" y1="93" x2="78.91" y2="93"/><line class="cls-1" x1="92.08" y1="93" x2="133.2" y2="93"/><line class="cls-1" x1="80.52" y1="44.67" x2="91.52" y2="44.67"/><line class="cls-1" x1="99.52" y1="44.67" x2="120.52" y2="44.67"/><line class="cls-1" x1="128.52" y1="44.67" x2="139.52" y2="44.67"/><line class="cls-1" x1="97.52" y1="32.67" x2="100.52" y2="32.67"/><line class="cls-1" x1="105.52" y1="32.67" x2="111.52" y2="32.67"/><line class="cls-1" x1="117.52" y1="32.67" x2="125.52" y2="32.67"/><line class="cls-1" x1="132.52" y1="32.67" x2="159.52" y2="32.67"/><line class="cls-1" x1="344" y1="57" x2="313" y2="57"/><line class="cls-1" x1="305" y1="57" x2="274" y2="57"/><line class="cls-1" x1="354" y1="67" x2="327" y2="67"/><line class="cls-1" x1="322" y1="67" x2="305" y2="67"/><line class="cls-1" x1="299" y1="67" x2="266" y2="67"/><line class="cls-1" x1="331" y1="78" x2="321" y2="78"/><line class="cls-1" x1="316" y1="78" x2="305" y2="78"/><line class="cls-1" x1="300" y1="78" x2="279" y2="78"/><rect class="cls-2" x="126.8" y="18.2" width="146.39" height="93.94"/><rect class="cls-2" x="133.95" y="24.84" width="132.1" height="80.66"/><path class="cls-2" d="M274.08,121.8H125.92a10.93,10.93,0,0,1-7.4-2.76L113,114c-.58-.54-.13-1.4.74-1.4H286.24c.87,0,1.32.86.74,1.4l-5.5,5.09A10.93,10.93,0,0,1,274.08,121.8Z"/><line class="cls-2" x1="181.5" y1="117.17" x2="218.5" y2="117.17"/><rect class="cls-2" x="139.83" y="29.8" width="32.89" height="37.2"/><line class="cls-3" x1="151.51" y1="36.43" x2="155.84" y2="36.43"/><line class="cls-4" x1="151.51" y1="39.82" x2="161.05" y2="39.82"/><line class="cls-4" x1="149.77" y1="43.21" x2="145.43" y2="43.21"/><line class="cls-3" x1="149.77" y1="45.92" x2="145.43" y2="45.92"/><line class="cls-4" x1="151.51" y1="47.95" x2="161.05" y2="47.95"/><line class="cls-3" x1="151.51" y1="51.34" x2="167.12" y2="51.34"/><line class="cls-4" x1="151.51" y1="55.41" x2="164.52" y2="55.41"/><line class="cls-4" x1="149.77" y1="57.44" x2="146.3" y2="57.44"/><line class="cls-4" x1="151.51" y1="61.51" x2="160.18" y2="61.51"/><rect class="cls-2" x="234.34" y="29.8" width="24.88" height="37.2"/><rect class="cls-2" x="178.12" y="29.8" width="51.86" height="37.2"/><polygon class="cls-3" points="185.57 62 222 62 222 35.66 211.84 50.91 203.36 44.13 197.43 55.99 189.81 50.91 185.57 62"/><rect class="cls-2" x="238.78" y="36" width="6.22" height="25"/><rect class="cls-5" x="248.56" y="49" width="6.22" height="12"/><rect class="cls-2" x="178.12" y="72" width="80.88" height="25"/><path class="cls-6" d="M183,92s32.91-30,72,0"/><rect class="cls-2" x="140.12" y="72" width="32.88" height="25"/><rect class="cls-2" x="144" y="77" width="25" height="6"/><rect class="cls-5" x="148" y="86" width="17" height="6"/><polygon id="_Path_" data-name="&lt;Path&gt;" class="cls-7" points="248.02 42.76 279.75 42.73 293.86 56.8 293.91 101.53 248.09 101.58 248.02 42.76"/><polygon id="_Path_2" data-name="&lt;Path&gt;" class="cls-7" points="279.77 56.81 293.86 56.8 279.75 42.73 279.77 56.81"/><polygon class="cls-7" points="253.14 37.61 284.87 37.57 298.97 51.65 299.02 96.38 253.2 96.43 253.14 37.61"/><polygon class="cls-7" points="284.89 51.66 298.97 51.65 284.87 37.57 284.89 51.66"/><polygon id="_Path_3" data-name="&lt;Path&gt;" class="cls-7" points="258.25 32.45 289.99 32.42 304.09 46.49 304.14 91.22 258.32 91.27 258.25 32.45"/><polygon id="_Path_4" data-name="&lt;Path&gt;" class="cls-7" points="290 46.51 304.09 46.49 289.99 32.42 290 46.51"/><circle class="cls-2" cx="280.7" cy="63.55" r="11.83"/><line class="cls-8" x1="280.7" y1="55.92" x2="280.7" y2="71.19"/><line class="cls-8" x1="273.06" y1="63.55" x2="288.33" y2="63.55"/></svg>