<svg id="Layer_1" data-name="Layer 1" xmlns="http://www.w3.org/2000/svg" viewBox="0 0 400 140"><defs><style>.cls-1,.cls-3,.cls-4,.cls-5{fill:none;}.cls-1{stroke:#ccc;}.cls-1,.cls-2,.cls-3,.cls-4,.cls-5,.cls-6{stroke-miterlimit:10;stroke-width:2px;}.cls-2,.cls-6{fill:#fff;}.cls-2,.cls-3,.cls-5{stroke:#000;}.cls-2,.cls-4,.cls-5,.cls-6{stroke-linecap:round;}.cls-4,.cls-6{stroke:#f2c811;}</style></defs><title>PowerBI_Icon-Development</title><path class="cls-1" d="M53.67,88h42"/><path class="cls-1" d="M103.67,88h12"/><line class="cls-1" x1="65.67" y1="97.33" x2="81.67" y2="97.33"/><line class="cls-1" x1="88.67" y1="97.33" x2="94.67" y2="97.33"/><line class="cls-1" x1="102.67" y1="97.33" x2="121.67" y2="97.33"/><line class="cls-1" x1="50.67" y1="49.67" x2="61.67" y2="49.67"/><line class="cls-1" x1="69.67" y1="49.67" x2="90.67" y2="49.67"/><line class="cls-1" x1="98.67" y1="49.67" x2="109.67" y2="49.67"/><line class="cls-1" x1="55.67" y1="60.67" x2="77.67" y2="60.67"/><line class="cls-1" x1="85.67" y1="60.67" x2="95.67" y2="60.67"/><line class="cls-1" x1="103.67" y1="60.67" x2="114.67" y2="60.67"/><line class="cls-1" x1="67.67" y1="37.67" x2="70.67" y2="37.67"/><line class="cls-1" x1="75.67" y1="37.67" x2="81.67" y2="37.67"/><line class="cls-1" x1="87.67" y1="37.67" x2="95.67" y2="37.67"/><line class="cls-1" x1="102.67" y1="37.67" x2="129.67" y2="37.67"/><rect class="cls-2" x="113.43" y="22.08" width="152.72" height="95.84"/><rect class="cls-2" x="118.89" y="27.75" width="142.59" height="74.02"/><rect class="cls-3" x="125.8" y="36.77" width="82.36" height="56.23"/><rect class="cls-3" x="215.1" y="36.77" width="38.7" height="20.86"/><rect class="cls-3" x="215.1" y="64.88" width="38.7" height="28.12"/><circle class="cls-2" cx="150.8" cy="61" r="14"/><circle class="cls-4" cx="161.3" cy="70.5" r="9.5"/><circle class="cls-4" cx="181.3" cy="52.5" r="5.5"/><circle class="cls-5" cx="191.3" cy="67.5" r="6.5"/><circle class="cls-5" cx="179.8" cy="78" r="4"/><path class="cls-5" d="M221.8,88s1-19,27-16"/><path class="cls-3" d="M218.8,45c3.75,0,3.75,6,7.5,6s3.74-9,7.49-9,3.75,11,7.5,11,3.76-8,7.51-8"/><path class="cls-2" d="M151.26,51.57H95.91a2.25,2.25,0,0,0-2.24,2.25V92.33l11.22-7.85h46.37a2.25,2.25,0,0,0,2.24-2.24V53.82A2.25,2.25,0,0,0,151.26,51.57Z"/><line class="cls-4" x1="101.33" y1="63.91" x2="145.09" y2="63.91"/><line class="cls-4" x1="101.33" y1="71.77" x2="133.87" y2="71.77"/><path class="cls-2" d="M226.26,33.75h55.67A2.26,2.26,0,0,1,284.19,36V74.75l-11.28-7.9H226.26A2.25,2.25,0,0,1,224,64.6V36A2.26,2.26,0,0,1,226.26,33.75Z"/><circle class="cls-6" cx="239.19" cy="50.44" r="2.86"/><circle class="cls-6" cx="253.49" cy="50.44" r="2.86"/><circle class="cls-6" cx="267.44" cy="50.44" r="2.86"/><path class="cls-2" d="M251.05,87.15h39.17a1.59,1.59,0,0,1,1.59,1.58V116l-7.94-5.56H251.05a1.59,1.59,0,0,1-1.59-1.59V88.73A1.59,1.59,0,0,1,251.05,87.15Z"/><line class="cls-6" x1="256.15" y1="96.24" x2="284.66" y2="96.24"/><line class="cls-6" x1="256.15" y1="102.87" x2="284.66" y2="102.87"/><line class="cls-1" x1="292" y1="56.67" x2="307" y2="56.67"/><line class="cls-1" x1="312" y1="56.67" x2="317" y2="56.67"/><line class="cls-1" x1="322" y1="56.67" x2="347" y2="56.67"/><line class="cls-1" x1="301" y1="46.67" x2="355" y2="46.67"/><line class="cls-1" x1="292" y1="36.67" x2="331" y2="36.67"/><line class="cls-1" x1="337" y1="36.67" x2="341" y2="36.67"/><line class="cls-1" x1="309.33" y1="77.67" x2="301.33" y2="77.67"/><line class="cls-1" x1="296.33" y1="77.67" x2="292.33" y2="77.67"/><line class="cls-1" x1="335.33" y1="67.67" x2="321.33" y2="67.67"/><line class="cls-1" x1="316.33" y1="67.67" x2="292.33" y2="67.67"/></svg>