<svg id="Layer_1" data-name="Layer 1" xmlns="http://www.w3.org/2000/svg" viewBox="0 0 400 140"><defs><style>.cls-1,.cls-3,.cls-4,.cls-5{fill:none;}.cls-1{stroke:#ccc;}.cls-1,.cls-2,.cls-3,.cls-4,.cls-5,.cls-6{stroke-miterlimit:10;stroke-width:2px;}.cls-2,.cls-6{fill:#fff;}.cls-2,.cls-3,.cls-5{stroke:#000;}.cls-2,.cls-4,.cls-5,.cls-6{stroke-linecap:round;}.cls-4,.cls-6{stroke:#f2c811;}</style></defs><line class="cls-1" x1="275" y1="32.33" x2="290.67" y2="32.33"/><line class="cls-1" x1="297" y1="32.33" x2="307.67" y2="32.33"/><line class="cls-1" x1="314" y1="32.33" x2="319.67" y2="32.33"/><line class="cls-1" x1="284.67" y1="40" x2="301" y2="40"/><line class="cls-1" x1="307.67" y1="40" x2="328" y2="40"/><path class="cls-1" d="M118.33,99H128"/><path class="cls-1" d="M91.33,90.67h45.34"/><path class="cls-1" d="M85.33,99H97"/><path class="cls-1" d="M102.33,99H112"/><line class="cls-1" x1="48.75" y1="59.5" x2="57.5" y2="59.5"/><line class="cls-1" x1="65" y1="59.5" x2="83.75" y2="59.5"/><line class="cls-1" x1="105.75" y1="59.5" x2="124.5" y2="59.5"/><line class="cls-1" x1="90.75" y1="59.5" x2="97.5" y2="59.5"/><path class="cls-1" d="M82.25,50h4"/><path class="cls-1" d="M61.25,50h14"/><path class="cls-1" d="M94.25,50h18"/><path class="cls-1" d="M120.25,50h18"/><path class="cls-1" d="M42.5,40.5H77"/><line class="cls-1" x1="85" y1="40.5" x2="92.5" y2="40.5"/><line class="cls-1" x1="100" y1="40.5" x2="117.5" y2="40.5"/><line class="cls-1" x1="54.25" y1="68.75" x2="72.5" y2="68.75"/><line class="cls-1" x1="79.25" y1="68.75" x2="83.5" y2="68.75"/><line class="cls-1" x1="90.25" y1="68.75" x2="113.5" y2="68.75"/><line class="cls-1" x1="336.67" y1="88.75" x2="327.92" y2="88.75"/><line class="cls-1" x1="320.42" y1="88.75" x2="301.67" y2="88.75"/><line class="cls-1" x1="279.67" y1="88.75" x2="260.92" y2="88.75"/><line class="cls-1" x1="294.67" y1="88.75" x2="287.92" y2="88.75"/><path class="cls-1" d="M303.17,98.25h-4"/><path class="cls-1" d="M324.17,98.25h-14"/><path class="cls-1" d="M291.17,98.25h-18"/><path class="cls-1" d="M265.17,98.25h-18"/><path class="cls-1" d="M342.92,107.75h-34.5"/><line class="cls-1" x1="300.42" y1="107.75" x2="292.92" y2="107.75"/><line class="cls-1" x1="285.42" y1="107.75" x2="267.92" y2="107.75"/><line class="cls-1" x1="331.17" y1="79.5" x2="312.92" y2="79.5"/><line class="cls-1" x1="306.17" y1="79.5" x2="301.92" y2="79.5"/><line class="cls-1" x1="295.17" y1="79.5" x2="271.92" y2="79.5"/><rect class="cls-2" x="123.64" y="22.08" width="152.72" height="95.84"/><rect class="cls-2" x="129.09" y="27.75" width="142.59" height="74.02"/><rect class="cls-3" x="136" y="36.77" width="82.36" height="56.23"/><rect class="cls-3" x="225.3" y="36.77" width="38.7" height="20.86"/><rect class="cls-3" x="225.3" y="64.88" width="38.7" height="28.12"/><circle class="cls-2" cx="161" cy="61" r="14"/><circle class="cls-4" cx="171.5" cy="70.5" r="9.5"/><circle class="cls-4" cx="191.5" cy="52.5" r="5.5"/><circle class="cls-5" cx="201.5" cy="67.5" r="6.5"/><circle class="cls-5" cx="190" cy="78" r="4"/><path class="cls-5" d="M232,88s1-19,27-16"/><path class="cls-3" d="M229,45c3.75,0,3.75,6,7.5,6s3.75-9,7.5-9,3.75,11,7.5,11,3.75-8,7.5-8"/><rect class="cls-2" x="275.99" y="70.95" width="4.78" height="9.55" transform="translate(23.81 211.46) rotate(-43.28)"/><path class="cls-6" d="M243.31,38.5a23.16,23.16,0,1,0,32.75,1A23.16,23.16,0,0,0,243.31,38.5Zm28.5,30.26a18.4,18.4,0,1,1,.78-26A18.41,18.41,0,0,1,271.81,68.76Z"/><rect class="cls-2" x="283.47" y="76.81" width="8.42" height="17.58" transform="translate(19.57 220.52) rotate(-43.28)"/></svg>