<svg id="Layer_1" data-name="Layer 1" xmlns="http://www.w3.org/2000/svg" viewBox="0 0 140 140"><defs><style>.cls-1,.cls-2,.cls-3{fill:#fff;}.cls-1,.cls-2{stroke:#000;}.cls-1{stroke-linecap:round;}.cls-1,.cls-2,.cls-3,.cls-4{stroke-miterlimit:10;stroke-width:2px;}.cls-3,.cls-4{stroke:#f2c811;}.cls-4{fill:none;}</style></defs><title>PowerBI_Icon-Development</title><rect class="cls-1" x="17.44" y="32.06" width="96.37" height="61.84"/><path class="cls-1" d="M114.39,100.26H16.86A7.19,7.19,0,0,1,12,98.45L8.36,95.09c-.38-.35-.08-.92.49-.92H122.4c.57,0,.87.57.48.92l-3.62,3.36A7.23,7.23,0,0,1,114.39,100.26Z"/><line class="cls-1" x1="53.44" y1="97.21" x2="77.8" y2="97.21"/><rect class="cls-2" x="22.92" y="39.17" width="37.25" height="27.72"/><circle class="cls-2" cx="45.54" cy="52.89" r="10.44"/><circle class="cls-2" cx="30.08" cy="46.63" r="2.51"/><circle class="cls-3" cx="34.26" cy="58.32" r="4.18"/><rect class="cls-2" x="71.07" y="39.17" width="37.25" height="27.72"/><rect class="cls-1" x="78.84" y="52.19" width="9.19" height="9.19"/><rect class="cls-3" x="91.37" y="44.67" width="9.19" height="16.71"/><line class="cls-2" x1="74.66" y1="61.38" x2="104.73" y2="61.38"/><rect class="cls-2" x="22.92" y="73.58" width="85.4" height="13.79"/><line class="cls-2" x1="29.79" y1="78.8" x2="92.98" y2="78.8"/><line class="cls-4" x1="29.79" y1="82.84" x2="74.79" y2="82.84"/><circle class="cls-2" cx="110.2" cy="88.34" r="21.61"/><polyline class="cls-4" points="99.78 91.12 104.73 96.08 121.33 79.49"/></svg>