<svg width="915" height="375" viewBox="0 0 915 375" fill="none" xmlns="http://www.w3.org/2000/svg">
<rect x="0.5" y="0.5" width="914" height="374" fill="white"/>
<rect x="0.5" y="0.5" width="914" height="374" fill="url(#paint0_radial_349_8604)" fill-opacity="0.075"/>
<rect x="0.5" y="0.5" width="914" height="374" stroke="#14063D"/>
<g filter="url(#filter0_d_349_8604)">
<rect x="50" y="50" width="815" height="61" rx="16" fill="white" shape-rendering="crispEdges"/>
<path d="M207.25 73.5C207.25 70.6005 209.601 68.25 212.5 68.25H226.5C229.399 68.25 231.75 70.6005 231.75 73.5V77.0518C231.169 76.9851 230.582 76.9828 230 77.045V75.25H209V87.5C209 89.433 210.567 91 212.5 91H218.611C218.217 91.5304 217.959 92.1294 217.835 92.75H212.5C209.601 92.75 207.25 90.3995 207.25 87.5V73.5ZM224.827 79.777L222.306 77.2563C221.965 76.9146 221.41 76.9146 221.069 77.2563C220.727 77.598 220.727 78.152 221.069 78.4937L223.83 81.2545C224.1 80.7347 224.433 80.2386 224.827 79.777ZM212.5 70C210.567 70 209 71.567 209 73.5L230 73.5C230 71.567 228.433 70 226.5 70H212.5ZM217.931 78.4937C218.273 78.152 218.273 77.598 217.931 77.2563C217.59 76.9146 217.035 76.9146 216.694 77.2563L212.319 81.6313C211.977 81.973 211.977 82.527 212.319 82.8687L216.694 87.2437C217.035 87.5854 217.59 87.5854 217.931 87.2437C218.273 86.902 218.273 86.348 217.931 86.0063L214.175 82.25L217.931 78.4937ZM231.56 78.7915C232.202 78.8663 232.386 79.6334 231.929 80.0902L230.222 81.7967C229.192 82.827 229.192 84.4975 230.222 85.5278C231.253 86.5581 232.923 86.5581 233.953 85.5278L235.66 83.8213C236.117 83.3645 236.884 83.5481 236.958 84.1898C237.169 85.9945 236.581 87.8743 235.197 89.2588C233.461 90.9953 230.945 91.4775 228.776 90.7055L224.004 95.4773C222.973 96.5076 221.303 96.5076 220.273 95.4773C219.242 94.447 219.242 92.7765 220.273 91.7462L225.045 86.9744C224.273 84.8052 224.755 82.2895 226.491 80.553C227.876 79.1685 229.756 78.5814 231.56 78.7915Z" fill="url(#paint1_linear_349_8604)"/>
<path d="M265.879 90.5H262.82L261.309 86.2227H254.699L253.246 90.5H250.199L256.492 73.6953H259.633L265.879 90.5ZM260.57 83.9492L258.238 77.2461C258.168 77.0273 258.094 76.6758 258.016 76.1914H257.969C257.898 76.6367 257.82 76.9883 257.734 77.2461L255.426 83.9492H260.57ZM270.66 88.7305H270.613V96.0195H267.895V78.5H270.613V80.6094H270.66C271.59 79.0156 272.949 78.2188 274.738 78.2188C276.262 78.2188 277.449 78.7539 278.301 79.8242C279.152 80.8945 279.578 82.332 279.578 84.1367C279.578 86.1367 279.098 87.7383 278.137 88.9414C277.176 90.1445 275.863 90.7461 274.199 90.7461C272.668 90.7461 271.488 90.0742 270.66 88.7305ZM270.59 83.9961V85.4844C270.59 86.3594 270.867 87.1016 271.422 87.7109C271.984 88.3203 272.695 88.625 273.555 88.625C274.562 88.625 275.352 88.2344 275.922 87.4531C276.5 86.6641 276.789 85.5664 276.789 84.1602C276.789 82.9805 276.52 82.0586 275.98 81.3945C275.449 80.7227 274.727 80.3867 273.812 80.3867C272.844 80.3867 272.062 80.7305 271.469 81.418C270.883 82.1055 270.59 82.9648 270.59 83.9961ZM285.121 88.7305H285.074V96.0195H282.355V78.5H285.074V80.6094H285.121C286.051 79.0156 287.41 78.2188 289.199 78.2188C290.723 78.2188 291.91 78.7539 292.762 79.8242C293.613 80.8945 294.039 82.332 294.039 84.1367C294.039 86.1367 293.559 87.7383 292.598 88.9414C291.637 90.1445 290.324 90.7461 288.66 90.7461C287.129 90.7461 285.949 90.0742 285.121 88.7305ZM285.051 83.9961V85.4844C285.051 86.3594 285.328 87.1016 285.883 87.7109C286.445 88.3203 287.156 88.625 288.016 88.625C289.023 88.625 289.812 88.2344 290.383 87.4531C290.961 86.6641 291.25 85.5664 291.25 84.1602C291.25 82.9805 290.98 82.0586 290.441 81.3945C289.91 80.7227 289.188 80.3867 288.273 80.3867C287.305 80.3867 286.523 80.7305 285.93 81.418C285.344 82.1055 285.051 82.9648 285.051 83.9961ZM303.777 81.0898C303.449 80.832 302.977 80.7031 302.359 80.7031C301.555 80.7031 300.883 81.0664 300.344 81.793C299.805 82.5195 299.535 83.5078 299.535 84.7578V90.5H296.816V78.5H299.535V80.9727H299.582C299.848 80.1289 300.254 79.4727 300.801 79.0039C301.355 78.5273 301.973 78.2891 302.652 78.2891C303.145 78.2891 303.52 78.3633 303.777 78.5117V81.0898ZM310.809 90.7812C308.957 90.7812 307.477 90.2227 306.367 89.1055C305.266 87.9805 304.715 86.4922 304.715 84.6406C304.715 82.625 305.289 81.0508 306.438 79.918C307.594 78.7852 309.148 78.2188 311.102 78.2188C312.977 78.2188 314.438 78.7695 315.484 79.8711C316.531 80.9727 317.055 82.5 317.055 84.4531C317.055 86.3672 316.488 87.9023 315.355 89.0586C314.23 90.207 312.715 90.7812 310.809 90.7812ZM310.938 80.3867C309.875 80.3867 309.035 80.7578 308.418 81.5C307.801 82.2422 307.492 83.2656 307.492 84.5703C307.492 85.8281 307.805 86.8203 308.43 87.5469C309.055 88.2656 309.891 88.625 310.938 88.625C312.008 88.625 312.828 88.2695 313.398 87.5586C313.977 86.8477 314.266 85.8359 314.266 84.5234C314.266 83.2031 313.977 82.1836 313.398 81.4648C312.828 80.7461 312.008 80.3867 310.938 80.3867ZM328.762 90.5H326.125V88.625H326.078C325.25 90.0625 324.035 90.7812 322.434 90.7812C321.254 90.7812 320.328 90.4609 319.656 89.8203C318.992 89.1797 318.66 88.332 318.66 87.2773C318.66 85.0117 319.965 83.6914 322.574 83.3164L326.137 82.8125C326.137 81.1016 325.324 80.2461 323.699 80.2461C322.27 80.2461 320.98 80.7383 319.832 81.7227V79.3438C321.098 78.5938 322.559 78.2188 324.215 78.2188C327.246 78.2188 328.762 79.7109 328.762 82.6953V90.5ZM326.137 84.6055L323.617 84.957C322.836 85.0586 322.246 85.25 321.848 85.5312C321.457 85.8047 321.262 86.2891 321.262 86.9844C321.262 87.4922 321.441 87.9102 321.801 88.2383C322.168 88.5586 322.656 88.7188 323.266 88.7188C324.094 88.7188 324.777 88.4297 325.316 87.8516C325.863 87.2656 326.137 86.5312 326.137 85.6484V84.6055ZM340.68 89.9492C339.719 90.5039 338.582 90.7812 337.27 90.7812C335.488 90.7812 334.051 90.2266 332.957 89.1172C331.863 88 331.316 86.5547 331.316 84.7812C331.316 82.8047 331.902 81.2188 333.074 80.0234C334.254 78.8203 335.828 78.2188 337.797 78.2188C338.891 78.2188 339.855 78.4102 340.691 78.793V81.3242C339.855 80.6992 338.965 80.3867 338.02 80.3867C336.871 80.3867 335.93 80.7773 335.195 81.5586C334.461 82.332 334.094 83.3477 334.094 84.6055C334.094 85.8477 334.438 86.8281 335.125 87.5469C335.82 88.2656 336.75 88.625 337.914 88.625C338.891 88.625 339.812 88.2773 340.68 87.582V89.9492ZM354.051 90.5H351.332V83.9375C351.332 81.5625 350.539 80.375 348.953 80.375C348.156 80.375 347.484 80.7188 346.938 81.4062C346.391 82.0938 346.117 82.9727 346.117 84.043V90.5H343.387V72.7344H346.117V80.4922H346.164C347.07 78.9766 348.367 78.2188 350.055 78.2188C352.719 78.2188 354.051 79.8477 354.051 83.1055V90.5ZM373.891 90.5H363.344V89.1992C363.344 88.668 363.418 88.1719 363.566 87.7109C363.715 87.2422 363.914 86.8047 364.164 86.3984C364.414 85.9844 364.707 85.5977 365.043 85.2383C365.379 84.8711 365.738 84.5195 366.121 84.1836C366.504 83.8398 366.895 83.5117 367.293 83.1992C367.691 82.8789 368.082 82.5586 368.465 82.2383C368.824 81.9336 369.152 81.6367 369.449 81.3477C369.746 81.0508 370 80.7461 370.211 80.4336C370.422 80.1211 370.586 79.793 370.703 79.4492C370.82 79.0977 370.879 78.7188 370.879 78.3125C370.879 77.8672 370.809 77.4805 370.668 77.1523C370.535 76.8164 370.344 76.5391 370.094 76.3203C369.852 76.0938 369.562 75.9258 369.227 75.8164C368.891 75.6992 368.523 75.6406 368.125 75.6406C367.438 75.6406 366.738 75.8008 366.027 76.1211C365.316 76.4414 364.633 76.9219 363.977 77.5625V74.9492C364.32 74.6914 364.668 74.4688 365.02 74.2812C365.371 74.0859 365.734 73.9258 366.109 73.8008C366.484 73.668 366.879 73.5703 367.293 73.5078C367.707 73.4453 368.148 73.4141 368.617 73.4141C369.375 73.4141 370.062 73.5156 370.68 73.7188C371.297 73.9141 371.824 74.207 372.262 74.5977C372.699 74.9805 373.035 75.4609 373.27 76.0391C373.512 76.6172 373.633 77.2812 373.633 78.0312C373.633 78.7109 373.547 79.3242 373.375 79.8711C373.211 80.4102 372.973 80.9141 372.66 81.3828C372.355 81.8516 371.984 82.2969 371.547 82.7188C371.109 83.1406 370.621 83.5742 370.082 84.0195C369.629 84.3867 369.176 84.7461 368.723 85.0977C368.277 85.4414 367.875 85.7812 367.516 86.1172C367.156 86.4453 366.863 86.7773 366.637 87.1133C366.418 87.4414 366.309 87.7734 366.309 88.1094V88.168H373.891V90.5ZM378.426 90.7578C377.957 90.7578 377.559 90.6055 377.23 90.3008C376.902 89.9883 376.738 89.6172 376.738 89.1875C376.738 88.75 376.902 88.375 377.23 88.0625C377.559 87.75 377.957 87.5938 378.426 87.5938C378.902 87.5938 379.305 87.75 379.633 88.0625C379.969 88.375 380.137 88.75 380.137 89.1875C380.137 89.6172 379.969 89.9883 379.633 90.3008C379.305 90.6055 378.902 90.7578 378.426 90.7578ZM378.426 81.4883C377.957 81.4883 377.559 81.3359 377.23 81.0312C376.902 80.7188 376.738 80.3477 376.738 79.918C376.738 79.4805 376.902 79.1055 377.23 78.793C377.559 78.4805 377.957 78.3242 378.426 78.3242C378.902 78.3242 379.305 78.4805 379.633 78.793C379.969 79.1055 380.137 79.4805 380.137 79.918C380.137 80.3477 379.969 80.7188 379.633 81.0312C379.305 81.3359 378.902 81.4883 378.426 81.4883ZM392.781 84.4062V90.5H390.004V73.6953H395.102C397.031 73.6953 398.527 74.1445 399.59 75.043C400.652 75.9414 401.184 77.207 401.184 78.8398C401.184 80.4727 400.629 81.8086 399.52 82.8477C398.41 83.8867 396.91 84.4062 395.02 84.4062H392.781ZM392.781 75.9922V82.1328H394.586C395.781 82.1328 396.691 81.8555 397.316 81.3008C397.941 80.7461 398.254 79.9648 398.254 78.957C398.254 76.9805 397.105 75.9922 394.809 75.9922H392.781ZM414.203 90.5H411.484V88.6016H411.438C410.648 90.0547 409.422 90.7812 407.758 90.7812C404.922 90.7812 403.504 89.0781 403.504 85.6719V78.5H406.223V85.3906C406.223 87.5469 407.055 88.625 408.719 88.625C409.523 88.625 410.184 88.3281 410.699 87.7344C411.223 87.1406 411.484 86.3633 411.484 85.4023V78.5H414.203V90.5ZM420.52 88.7656H420.473V90.5H417.754V72.7344H420.473V80.6094H420.52C421.449 79.0156 422.809 78.2188 424.598 78.2188C426.113 78.2188 427.297 78.7578 428.148 79.8359C429.008 80.9062 429.438 82.3438 429.438 84.1484C429.438 86.1562 428.957 87.7656 427.996 88.9766C427.035 90.1797 425.723 90.7812 424.059 90.7812C422.496 90.7812 421.316 90.1094 420.52 88.7656ZM420.449 83.9961V85.4844C420.449 86.3594 420.727 87.1016 421.281 87.7109C421.844 88.3203 422.555 88.625 423.414 88.625C424.422 88.625 425.211 88.2344 425.781 87.4531C426.359 86.6641 426.648 85.5664 426.648 84.1602C426.648 82.9805 426.379 82.0586 425.84 81.3945C425.309 80.7227 424.586 80.3867 423.672 80.3867C422.703 80.3867 421.922 80.7305 421.328 81.418C420.742 82.1055 420.449 82.9648 420.449 83.9961ZM434.945 90.5H432.215V72.7344H434.945V90.5ZM439.867 75.9805C439.422 75.9805 439.039 75.8359 438.719 75.5469C438.406 75.2578 438.25 74.8906 438.25 74.4453C438.25 74 438.406 73.6289 438.719 73.332C439.039 73.0352 439.422 72.8867 439.867 72.8867C440.328 72.8867 440.719 73.0352 441.039 73.332C441.359 73.6289 441.52 74 441.52 74.4453C441.52 74.8672 441.359 75.2305 441.039 75.5352C440.719 75.832 440.328 75.9805 439.867 75.9805ZM441.215 90.5H438.496V78.5H441.215V90.5ZM444.027 90.125V87.6055C445.043 88.3789 446.164 88.7656 447.391 88.7656C449.031 88.7656 449.852 88.2812 449.852 87.3125C449.852 87.0391 449.781 86.8086 449.641 86.6211C449.5 86.4258 449.309 86.2539 449.066 86.1055C448.832 85.957 448.551 85.8242 448.223 85.707C447.902 85.5898 447.543 85.457 447.145 85.3086C446.652 85.1133 446.207 84.9062 445.809 84.6875C445.418 84.4688 445.09 84.2227 444.824 83.9492C444.566 83.668 444.371 83.3516 444.238 83C444.105 82.6484 444.039 82.2383 444.039 81.7695C444.039 81.1914 444.176 80.6836 444.449 80.2461C444.723 79.8008 445.09 79.4297 445.551 79.1328C446.012 78.8281 446.535 78.6016 447.121 78.4531C447.707 78.2969 448.312 78.2188 448.938 78.2188C450.047 78.2188 451.039 78.3867 451.914 78.7227V81.1016C451.07 80.5234 450.102 80.2344 449.008 80.2344C448.664 80.2344 448.352 80.2695 448.07 80.3398C447.797 80.4102 447.562 80.5078 447.367 80.6328C447.172 80.7578 447.02 80.9102 446.91 81.0898C446.801 81.2617 446.746 81.4531 446.746 81.6641C446.746 81.9219 446.801 82.1406 446.91 82.3203C447.02 82.5 447.18 82.6602 447.391 82.8008C447.609 82.9336 447.867 83.0586 448.164 83.1758C448.469 83.2852 448.816 83.4062 449.207 83.5391C449.723 83.75 450.184 83.9648 450.59 84.1836C451.004 84.4023 451.355 84.6523 451.645 84.9336C451.934 85.207 452.156 85.5273 452.312 85.8945C452.469 86.2539 452.547 86.6836 452.547 87.1836C452.547 87.793 452.406 88.3242 452.125 88.7773C451.844 89.2305 451.469 89.6055 451 89.9023C450.531 90.1992 449.988 90.418 449.371 90.5586C448.762 90.707 448.117 90.7812 447.438 90.7812C446.125 90.7812 444.988 90.5625 444.027 90.125ZM465.801 90.5H463.082V83.9375C463.082 81.5625 462.289 80.375 460.703 80.375C459.906 80.375 459.234 80.7188 458.688 81.4062C458.141 82.0938 457.867 82.9727 457.867 84.043V90.5H455.137V72.7344H457.867V80.4922H457.914C458.82 78.9766 460.117 78.2188 461.805 78.2188C464.469 78.2188 465.801 79.8477 465.801 83.1055V90.5ZM482.5 74.9492C482.133 74.7383 481.715 74.6328 481.246 74.6328C479.926 74.6328 479.266 75.3789 479.266 76.8711V78.5H482.055V80.6328H479.277V90.5H476.559V80.6328H474.508V78.5H476.559V76.5547C476.559 75.2891 476.973 74.293 477.801 73.5664C478.629 72.832 479.664 72.4648 480.906 72.4648C481.578 72.4648 482.109 72.5391 482.5 72.6875V74.9492ZM490.949 81.0898C490.621 80.832 490.148 80.7031 489.531 80.7031C488.727 80.7031 488.055 81.0664 487.516 81.793C486.977 82.5195 486.707 83.5078 486.707 84.7578V90.5H483.988V78.5H486.707V80.9727H486.754C487.02 80.1289 487.426 79.4727 487.973 79.0039C488.527 78.5273 489.145 78.2891 489.824 78.2891C490.316 78.2891 490.691 78.3633 490.949 78.5117V81.0898ZM497.98 90.7812C496.129 90.7812 494.648 90.2227 493.539 89.1055C492.438 87.9805 491.887 86.4922 491.887 84.6406C491.887 82.625 492.461 81.0508 493.609 79.918C494.766 78.7852 496.32 78.2188 498.273 78.2188C500.148 78.2188 501.609 78.7695 502.656 79.8711C503.703 80.9727 504.227 82.5 504.227 84.4531C504.227 86.3672 503.66 87.9023 502.527 89.0586C501.402 90.207 499.887 90.7812 497.98 90.7812ZM498.109 80.3867C497.047 80.3867 496.207 80.7578 495.59 81.5C494.973 82.2422 494.664 83.2656 494.664 84.5703C494.664 85.8281 494.977 86.8203 495.602 87.5469C496.227 88.2656 497.062 88.625 498.109 88.625C499.18 88.625 500 88.2695 500.57 87.5586C501.148 86.8477 501.438 85.8359 501.438 84.5234C501.438 83.2031 501.148 82.1836 500.57 81.4648C500 80.7461 499.18 80.3867 498.109 80.3867ZM524.945 90.5H522.227V83.9609C522.227 82.7031 522.047 81.793 521.688 81.2305C521.336 80.668 520.738 80.3867 519.895 80.3867C519.184 80.3867 518.578 80.7422 518.078 81.4531C517.586 82.1641 517.34 83.0156 517.34 84.0078V90.5H514.609V83.7383C514.609 81.5039 513.82 80.3867 512.242 80.3867C511.508 80.3867 510.902 80.7227 510.426 81.3945C509.957 82.0664 509.723 82.9375 509.723 84.0078V90.5H507.004V78.5H509.723V80.3984H509.77C510.637 78.9453 511.898 78.2188 513.555 78.2188C514.383 78.2188 515.105 78.4492 515.723 78.9102C516.348 79.3633 516.773 79.9609 517 80.7031C517.891 79.0469 519.219 78.2188 520.984 78.2188C523.625 78.2188 524.945 79.8477 524.945 83.1055V90.5ZM541.199 90.3711C540.668 90.6367 539.969 90.7695 539.102 90.7695C536.773 90.7695 535.609 89.6523 535.609 87.418V80.6328H533.605V78.5H535.609V75.7227L538.328 74.9492V78.5H541.199V80.6328H538.328V86.6328C538.328 87.3438 538.457 87.8516 538.715 88.1562C538.973 88.4609 539.402 88.6133 540.004 88.6133C540.465 88.6133 540.863 88.4805 541.199 88.2148V90.3711ZM554.207 90.5H551.488V83.9375C551.488 81.5625 550.695 80.375 549.109 80.375C548.312 80.375 547.641 80.7188 547.094 81.4062C546.547 82.0938 546.273 82.9727 546.273 84.043V90.5H543.543V72.7344H546.273V80.4922H546.32C547.227 78.9766 548.523 78.2188 550.211 78.2188C552.875 78.2188 554.207 79.8477 554.207 83.1055V90.5ZM558.883 75.9805C558.438 75.9805 558.055 75.8359 557.734 75.5469C557.422 75.2578 557.266 74.8906 557.266 74.4453C557.266 74 557.422 73.6289 557.734 73.332C558.055 73.0352 558.438 72.8867 558.883 72.8867C559.344 72.8867 559.734 73.0352 560.055 73.332C560.375 73.6289 560.535 74 560.535 74.4453C560.535 74.8672 560.375 75.2305 560.055 75.5352C559.734 75.832 559.344 75.9805 558.883 75.9805ZM560.23 90.5H557.512V78.5H560.23V90.5ZM570.754 81.0898C570.426 80.832 569.953 80.7031 569.336 80.7031C568.531 80.7031 567.859 81.0664 567.32 81.793C566.781 82.5195 566.512 83.5078 566.512 84.7578V90.5H563.793V78.5H566.512V80.9727H566.559C566.824 80.1289 567.23 79.4727 567.777 79.0039C568.332 78.5273 568.949 78.2891 569.629 78.2891C570.121 78.2891 570.496 78.3633 570.754 78.5117V81.0898ZM583.375 90.5H580.656V88.4609H580.609C579.734 90.0078 578.387 90.7812 576.566 90.7812C575.09 90.7812 573.906 90.2461 573.016 89.1758C572.133 88.0977 571.691 86.6328 571.691 84.7812C571.691 82.7969 572.18 81.207 573.156 80.0117C574.141 78.8164 575.449 78.2188 577.082 78.2188C578.699 78.2188 579.875 78.8672 580.609 80.1641H580.656V72.7344H583.375V90.5ZM580.691 85.0156V83.4453C580.691 82.5938 580.414 81.8711 579.859 81.2773C579.305 80.6836 578.598 80.3867 577.738 80.3867C576.723 80.3867 575.922 80.7656 575.336 81.5234C574.758 82.2812 574.469 83.332 574.469 84.6758C574.469 85.8945 574.746 86.8594 575.301 87.5703C575.863 88.2734 576.617 88.625 577.562 88.625C578.492 88.625 579.246 88.2852 579.824 87.6055C580.402 86.918 580.691 86.0547 580.691 85.0156ZM593.242 84.9453H586.844V82.9414H593.242V84.9453ZM599.348 88.7305H599.301V96.0195H596.582V78.5H599.301V80.6094H599.348C600.277 79.0156 601.637 78.2188 603.426 78.2188C604.949 78.2188 606.137 78.7539 606.988 79.8242C607.84 80.8945 608.266 82.332 608.266 84.1367C608.266 86.1367 607.785 87.7383 606.824 88.9414C605.863 90.1445 604.551 90.7461 602.887 90.7461C601.355 90.7461 600.176 90.0742 599.348 88.7305ZM599.277 83.9961V85.4844C599.277 86.3594 599.555 87.1016 600.109 87.7109C600.672 88.3203 601.383 88.625 602.242 88.625C603.25 88.625 604.039 88.2344 604.609 87.4531C605.188 86.6641 605.477 85.5664 605.477 84.1602C605.477 82.9805 605.207 82.0586 604.668 81.3945C604.137 80.7227 603.414 80.3867 602.5 80.3867C601.531 80.3867 600.75 80.7305 600.156 81.418C599.57 82.1055 599.277 82.9648 599.277 83.9961ZM619.973 90.5H617.336V88.625H617.289C616.461 90.0625 615.246 90.7812 613.645 90.7812C612.465 90.7812 611.539 90.4609 610.867 89.8203C610.203 89.1797 609.871 88.332 609.871 87.2773C609.871 85.0117 611.176 83.6914 613.785 83.3164L617.348 82.8125C617.348 81.1016 616.535 80.2461 614.91 80.2461C613.48 80.2461 612.191 80.7383 611.043 81.7227V79.3438C612.309 78.5938 613.77 78.2188 615.426 78.2188C618.457 78.2188 619.973 79.7109 619.973 82.6953V90.5ZM617.348 84.6055L614.828 84.957C614.047 85.0586 613.457 85.25 613.059 85.5312C612.668 85.8047 612.473 86.2891 612.473 86.9844C612.473 87.4922 612.652 87.9102 613.012 88.2383C613.379 88.5586 613.867 88.7188 614.477 88.7188C615.305 88.7188 615.988 88.4297 616.527 87.8516C617.074 87.2656 617.348 86.5312 617.348 85.6484V84.6055ZM630.262 81.0898C629.934 80.832 629.461 80.7031 628.844 80.7031C628.039 80.7031 627.367 81.0664 626.828 81.793C626.289 82.5195 626.02 83.5078 626.02 84.7578V90.5H623.301V78.5H626.02V80.9727H626.066C626.332 80.1289 626.738 79.4727 627.285 79.0039C627.84 78.5273 628.457 78.2891 629.137 78.2891C629.629 78.2891 630.004 78.3633 630.262 78.5117V81.0898ZM639.215 90.3711C638.684 90.6367 637.984 90.7695 637.117 90.7695C634.789 90.7695 633.625 89.6523 633.625 87.418V80.6328H631.621V78.5H633.625V75.7227L636.344 74.9492V78.5H639.215V80.6328H636.344V86.6328C636.344 87.3438 636.473 87.8516 636.73 88.1562C636.988 88.4609 637.418 88.6133 638.02 88.6133C638.48 88.6133 638.879 88.4805 639.215 88.2148V90.3711ZM651.953 78.5L646.539 92.4219C645.414 94.9062 643.836 96.1484 641.805 96.1484C641.234 96.1484 640.758 96.0977 640.375 95.9961V93.7344C640.805 93.875 641.195 93.9453 641.547 93.9453C642.562 93.9453 643.32 93.4453 643.82 92.4453L644.629 90.4766L639.859 78.5H642.871L645.73 87.2188C645.762 87.3281 645.832 87.6172 645.941 88.0859H646C646.039 87.9062 646.109 87.625 646.211 87.2422L649.211 78.5H651.953ZM666.707 90.3711C666.176 90.6367 665.477 90.7695 664.609 90.7695C662.281 90.7695 661.117 89.6523 661.117 87.418V80.6328H659.113V78.5H661.117V75.7227L663.836 74.9492V78.5H666.707V80.6328H663.836V86.6328C663.836 87.3438 663.965 87.8516 664.223 88.1562C664.48 88.4609 664.91 88.6133 665.512 88.6133C665.973 88.6133 666.371 88.4805 666.707 88.2148V90.3711ZM674.23 90.7812C672.379 90.7812 670.898 90.2227 669.789 89.1055C668.688 87.9805 668.137 86.4922 668.137 84.6406C668.137 82.625 668.711 81.0508 669.859 79.918C671.016 78.7852 672.57 78.2188 674.523 78.2188C676.398 78.2188 677.859 78.7695 678.906 79.8711C679.953 80.9727 680.477 82.5 680.477 84.4531C680.477 86.3672 679.91 87.9023 678.777 89.0586C677.652 90.207 676.137 90.7812 674.23 90.7812ZM674.359 80.3867C673.297 80.3867 672.457 80.7578 671.84 81.5C671.223 82.2422 670.914 83.2656 670.914 84.5703C670.914 85.8281 671.227 86.8203 671.852 87.5469C672.477 88.2656 673.312 88.625 674.359 88.625C675.43 88.625 676.25 88.2695 676.82 87.5586C677.398 86.8477 677.688 85.8359 677.688 84.5234C677.688 83.2031 677.398 82.1836 676.82 81.4648C676.25 80.7461 675.43 80.3867 674.359 80.3867ZM688.574 90.7812C686.723 90.7812 685.242 90.2227 684.133 89.1055C683.031 87.9805 682.48 86.4922 682.48 84.6406C682.48 82.625 683.055 81.0508 684.203 79.918C685.359 78.7852 686.914 78.2188 688.867 78.2188C690.742 78.2188 692.203 78.7695 693.25 79.8711C694.297 80.9727 694.82 82.5 694.82 84.4531C694.82 86.3672 694.254 87.9023 693.121 89.0586C691.996 90.207 690.48 90.7812 688.574 90.7812ZM688.703 80.3867C687.641 80.3867 686.801 80.7578 686.184 81.5C685.566 82.2422 685.258 83.2656 685.258 84.5703C685.258 85.8281 685.57 86.8203 686.195 87.5469C686.82 88.2656 687.656 88.625 688.703 88.625C689.773 88.625 690.594 88.2695 691.164 87.5586C691.742 86.8477 692.031 85.8359 692.031 84.5234C692.031 83.2031 691.742 82.1836 691.164 81.4648C690.594 80.7461 689.773 80.3867 688.703 80.3867ZM700.328 90.5H697.598V72.7344H700.328V90.5ZM703.129 90.125V87.6055C704.145 88.3789 705.266 88.7656 706.492 88.7656C708.133 88.7656 708.953 88.2812 708.953 87.3125C708.953 87.0391 708.883 86.8086 708.742 86.6211C708.602 86.4258 708.41 86.2539 708.168 86.1055C707.934 85.957 707.652 85.8242 707.324 85.707C707.004 85.5898 706.645 85.457 706.246 85.3086C705.754 85.1133 705.309 84.9062 704.91 84.6875C704.52 84.4688 704.191 84.2227 703.926 83.9492C703.668 83.668 703.473 83.3516 703.34 83C703.207 82.6484 703.141 82.2383 703.141 81.7695C703.141 81.1914 703.277 80.6836 703.551 80.2461C703.824 79.8008 704.191 79.4297 704.652 79.1328C705.113 78.8281 705.637 78.6016 706.223 78.4531C706.809 78.2969 707.414 78.2188 708.039 78.2188C709.148 78.2188 710.141 78.3867 711.016 78.7227V81.1016C710.172 80.5234 709.203 80.2344 708.109 80.2344C707.766 80.2344 707.453 80.2695 707.172 80.3398C706.898 80.4102 706.664 80.5078 706.469 80.6328C706.273 80.7578 706.121 80.9102 706.012 81.0898C705.902 81.2617 705.848 81.4531 705.848 81.6641C705.848 81.9219 705.902 82.1406 706.012 82.3203C706.121 82.5 706.281 82.6602 706.492 82.8008C706.711 82.9336 706.969 83.0586 707.266 83.1758C707.57 83.2852 707.918 83.4062 708.309 83.5391C708.824 83.75 709.285 83.9648 709.691 84.1836C710.105 84.4023 710.457 84.6523 710.746 84.9336C711.035 85.207 711.258 85.5273 711.414 85.8945C711.57 86.2539 711.648 86.6836 711.648 87.1836C711.648 87.793 711.508 88.3242 711.227 88.7773C710.945 89.2305 710.57 89.6055 710.102 89.9023C709.633 90.1992 709.09 90.418 708.473 90.5586C707.863 90.707 707.219 90.7812 706.539 90.7812C705.227 90.7812 704.09 90.5625 703.129 90.125Z" fill="#333333"/>
</g>
<path d="M198.25 177C198.25 168.578 205.078 161.75 213.5 161.75H406.5C414.922 161.75 421.75 168.578 421.75 177V309C421.75 317.422 414.922 324.25 406.5 324.25H213.5C205.078 324.25 198.25 317.422 198.25 309V177Z" fill="white"/>
<path d="M198.25 177C198.25 168.578 205.078 161.75 213.5 161.75H406.5C414.922 161.75 421.75 168.578 421.75 177V309C421.75 317.422 414.922 324.25 406.5 324.25H213.5C205.078 324.25 198.25 317.422 198.25 309V177Z" stroke="#E1E1E1" stroke-width="1.5"/>
<g filter="url(#filter1_i_349_8604)">
<path d="M223.875 191.776C222.489 192.323 221.213 193.052 220.047 193.963C219.244 194.62 218.734 195.604 218.698 196.662L218.078 202.057C217.968 202.859 218.333 203.662 218.989 204.099C219.645 204.537 220.338 204.864 221.067 205.156H221.395V203.734C220.849 203.515 220.302 203.224 219.791 202.896C219.573 202.75 219.463 202.495 219.5 202.239L220.156 196.771V196.698C220.192 196.042 220.484 195.458 220.994 195.057C221.979 194.219 223.401 193.453 225.369 192.724C226.463 193.38 228.14 193.781 230 193.781C231.859 193.781 233.536 193.38 234.63 192.724C236.635 193.453 238.02 194.219 239.005 195.057C239.515 195.458 239.807 196.078 239.843 196.698L240.5 202.203C240.536 202.458 240.427 202.713 240.208 202.859C239.698 203.187 239.187 203.479 238.604 203.698V205.12H238.932C239.661 204.864 240.354 204.5 241.01 204.063C241.666 203.588 242.031 202.823 241.922 202.021L241.302 196.662C241.265 195.604 240.755 194.62 239.953 193.963C238.786 193.052 237.51 192.287 236.125 191.776C236.125 189.917 236.198 184.812 236.198 182.734C236.198 182.151 236.125 181.568 235.979 180.984C235.505 179.234 234.302 177.776 232.698 176.937C232.552 176.864 232.333 176.864 232.224 176.974L231.895 177.229L231.531 176.719C231.422 176.537 231.239 176.427 231.057 176.39C230.692 176.318 230.364 176.281 230 176.281C228.541 176.281 227.083 176.828 225.989 177.776C224.604 179.015 223.838 180.765 223.875 182.625V191.776ZM225.698 185.833L225.953 182.844H234.01L234.265 185.833C233.828 188.203 231.567 189.771 229.161 189.333C227.411 189.005 226.026 187.62 225.698 185.833ZM227.156 191.922C227.557 191.594 227.812 191.047 227.812 190.5V190.427C229.198 191.01 230.802 191.01 232.187 190.427V190.5C232.187 191.047 232.442 191.557 232.843 191.922C231.932 192.213 230.948 192.323 230 192.323C229.052 192.323 228.067 192.213 227.156 191.922Z" fill="url(#paint2_linear_349_8604)"/>
<path d="M237.875 196.807C237.875 196.297 237.474 195.896 236.964 195.896H223.073C222.563 195.896 222.162 196.297 222.162 196.807V205.885H219.391V206.359C219.391 206.87 219.792 207.271 220.302 207.271H239.735C240.245 207.271 240.646 206.87 240.646 206.359V205.885H237.875V196.807ZM228.104 202.823L227.594 203.333L225.552 201.292L227.594 199.25L228.104 199.76L226.573 201.292L228.104 202.823ZM229.49 203.588L228.833 203.297L230.547 199.177L231.203 199.469L229.49 203.588ZM232.406 203.37L231.896 202.859L233.427 201.328L231.896 199.797L232.406 199.287L234.448 201.328L232.406 203.37Z" fill="url(#paint3_linear_349_8604)"/>
<rect x="224.5" y="198" width="11" height="8" fill="url(#paint4_linear_349_8604)"/>
</g>
<path d="M271.695 186.031C270.852 186.469 269.802 186.688 268.547 186.688C266.922 186.688 265.62 186.174 264.641 185.148C263.661 184.122 263.172 182.776 263.172 181.109C263.172 179.318 263.721 177.87 264.82 176.766C265.924 175.661 267.318 175.109 269 175.109C270.083 175.109 270.982 175.263 271.695 175.57V177.414C270.94 176.966 270.107 176.742 269.195 176.742C267.982 176.742 266.997 177.13 266.242 177.906C265.492 178.682 265.117 179.719 265.117 181.016C265.117 182.25 265.469 183.234 266.172 183.969C266.875 184.698 267.799 185.062 268.945 185.062C270.003 185.062 270.919 184.812 271.695 184.312V186.031ZM277.164 186.688C275.93 186.688 274.943 186.315 274.203 185.57C273.469 184.82 273.102 183.828 273.102 182.594C273.102 181.25 273.484 180.201 274.25 179.445C275.021 178.69 276.057 178.312 277.359 178.312C278.609 178.312 279.583 178.68 280.281 179.414C280.979 180.148 281.328 181.167 281.328 182.469C281.328 183.745 280.951 184.768 280.195 185.539C279.445 186.305 278.435 186.688 277.164 186.688ZM277.25 179.758C276.542 179.758 275.982 180.005 275.57 180.5C275.159 180.995 274.953 181.677 274.953 182.547C274.953 183.385 275.161 184.047 275.578 184.531C275.995 185.01 276.552 185.25 277.25 185.25C277.964 185.25 278.51 185.013 278.891 184.539C279.276 184.065 279.469 183.391 279.469 182.516C279.469 181.635 279.276 180.956 278.891 180.477C278.51 179.997 277.964 179.758 277.25 179.758ZM290.305 186.5H288.492V181.992C288.492 180.497 287.964 179.75 286.906 179.75C286.354 179.75 285.898 179.958 285.539 180.375C285.18 180.786 285 181.307 285 181.938V186.5H283.18V178.5H285V179.828H285.031C285.63 178.818 286.495 178.312 287.625 178.312C288.495 178.312 289.159 178.596 289.617 179.164C290.076 179.727 290.305 180.542 290.305 181.609V186.5ZM296.742 186.414C296.388 186.591 295.922 186.68 295.344 186.68C293.792 186.68 293.016 185.935 293.016 184.445V179.922H291.68V178.5H293.016V176.648L294.828 176.133V178.5H296.742V179.922H294.828V183.922C294.828 184.396 294.914 184.734 295.086 184.938C295.258 185.141 295.544 185.242 295.945 185.242C296.253 185.242 296.518 185.154 296.742 184.977V186.414ZM304.984 182.992H299.531C299.552 183.732 299.779 184.302 300.211 184.703C300.648 185.104 301.247 185.305 302.008 185.305C302.862 185.305 303.646 185.049 304.359 184.539V186C303.63 186.458 302.667 186.688 301.469 186.688C300.292 186.688 299.367 186.326 298.695 185.602C298.029 184.872 297.695 183.849 297.695 182.531C297.695 181.286 298.062 180.273 298.797 179.492C299.536 178.706 300.453 178.312 301.547 178.312C302.641 178.312 303.487 178.664 304.086 179.367C304.685 180.07 304.984 181.047 304.984 182.297V182.992ZM303.234 181.711C303.229 181.06 303.076 180.555 302.773 180.195C302.471 179.831 302.055 179.648 301.523 179.648C301.003 179.648 300.56 179.839 300.195 180.219C299.836 180.599 299.615 181.096 299.531 181.711H303.234ZM313.836 186.5H312.023V181.992C312.023 180.497 311.495 179.75 310.438 179.75C309.885 179.75 309.43 179.958 309.07 180.375C308.711 180.786 308.531 181.307 308.531 181.938V186.5H306.711V178.5H308.531V179.828H308.562C309.161 178.818 310.026 178.312 311.156 178.312C312.026 178.312 312.69 178.596 313.148 179.164C313.607 179.727 313.836 180.542 313.836 181.609V186.5ZM320.273 186.414C319.919 186.591 319.453 186.68 318.875 186.68C317.323 186.68 316.547 185.935 316.547 184.445V179.922H315.211V178.5H316.547V176.648L318.359 176.133V178.5H320.273V179.922H318.359V183.922C318.359 184.396 318.445 184.734 318.617 184.938C318.789 185.141 319.076 185.242 319.477 185.242C319.784 185.242 320.049 185.154 320.273 184.977V186.414ZM331.969 186.133C331.328 186.503 330.57 186.688 329.695 186.688C328.508 186.688 327.549 186.318 326.82 185.578C326.091 184.833 325.727 183.87 325.727 182.688C325.727 181.37 326.117 180.312 326.898 179.516C327.685 178.714 328.734 178.312 330.047 178.312C330.776 178.312 331.419 178.44 331.977 178.695V180.383C331.419 179.966 330.826 179.758 330.195 179.758C329.43 179.758 328.802 180.018 328.312 180.539C327.823 181.055 327.578 181.732 327.578 182.57C327.578 183.398 327.807 184.052 328.266 184.531C328.729 185.01 329.349 185.25 330.125 185.25C330.776 185.25 331.391 185.018 331.969 184.555V186.133ZM338.414 180.227C338.195 180.055 337.88 179.969 337.469 179.969C336.932 179.969 336.484 180.211 336.125 180.695C335.766 181.18 335.586 181.839 335.586 182.672V186.5H333.773V178.5H335.586V180.148H335.617C335.794 179.586 336.065 179.148 336.43 178.836C336.799 178.518 337.211 178.359 337.664 178.359C337.992 178.359 338.242 178.409 338.414 178.508V180.227ZM346.328 182.992H340.875C340.896 183.732 341.122 184.302 341.555 184.703C341.992 185.104 342.591 185.305 343.352 185.305C344.206 185.305 344.99 185.049 345.703 184.539V186C344.974 186.458 344.01 186.688 342.812 186.688C341.635 186.688 340.711 186.326 340.039 185.602C339.372 184.872 339.039 183.849 339.039 182.531C339.039 181.286 339.406 180.273 340.141 179.492C340.88 178.706 341.797 178.312 342.891 178.312C343.984 178.312 344.831 178.664 345.43 179.367C346.029 180.07 346.328 181.047 346.328 182.297V182.992ZM344.578 181.711C344.573 181.06 344.419 180.555 344.117 180.195C343.815 179.831 343.398 179.648 342.867 179.648C342.346 179.648 341.904 179.839 341.539 180.219C341.18 180.599 340.958 181.096 340.875 181.711H344.578ZM354.195 186.5H352.438V185.25H352.406C351.854 186.208 351.044 186.688 349.977 186.688C349.19 186.688 348.573 186.474 348.125 186.047C347.682 185.62 347.461 185.055 347.461 184.352C347.461 182.841 348.331 181.961 350.07 181.711L352.445 181.375C352.445 180.234 351.904 179.664 350.82 179.664C349.867 179.664 349.008 179.992 348.242 180.648V179.062C349.086 178.562 350.06 178.312 351.164 178.312C353.185 178.312 354.195 179.307 354.195 181.297V186.5ZM352.445 182.57L350.766 182.805C350.245 182.872 349.852 183 349.586 183.188C349.326 183.37 349.195 183.693 349.195 184.156C349.195 184.495 349.315 184.773 349.555 184.992C349.799 185.206 350.125 185.312 350.531 185.312C351.083 185.312 351.539 185.12 351.898 184.734C352.263 184.344 352.445 183.854 352.445 183.266V182.57ZM360.633 186.414C360.279 186.591 359.812 186.68 359.234 186.68C357.682 186.68 356.906 185.935 356.906 184.445V179.922H355.57V178.5H356.906V176.648L358.719 176.133V178.5H360.633V179.922H358.719V183.922C358.719 184.396 358.805 184.734 358.977 184.938C359.148 185.141 359.435 185.242 359.836 185.242C360.143 185.242 360.409 185.154 360.633 184.977V186.414ZM365.648 186.688C364.414 186.688 363.427 186.315 362.688 185.57C361.953 184.82 361.586 183.828 361.586 182.594C361.586 181.25 361.969 180.201 362.734 179.445C363.505 178.69 364.542 178.312 365.844 178.312C367.094 178.312 368.068 178.68 368.766 179.414C369.464 180.148 369.812 181.167 369.812 182.469C369.812 183.745 369.435 184.768 368.68 185.539C367.93 186.305 366.919 186.688 365.648 186.688ZM365.734 179.758C365.026 179.758 364.466 180.005 364.055 180.5C363.643 180.995 363.438 181.677 363.438 182.547C363.438 183.385 363.646 184.047 364.062 184.531C364.479 185.01 365.036 185.25 365.734 185.25C366.448 185.25 366.995 185.013 367.375 184.539C367.76 184.065 367.953 183.391 367.953 182.516C367.953 181.635 367.76 180.956 367.375 180.477C366.995 179.997 366.448 179.758 365.734 179.758ZM376.305 180.227C376.086 180.055 375.771 179.969 375.359 179.969C374.823 179.969 374.375 180.211 374.016 180.695C373.656 181.18 373.477 181.839 373.477 182.672V186.5H371.664V178.5H373.477V180.148H373.508C373.685 179.586 373.956 179.148 374.32 178.836C374.69 178.518 375.102 178.359 375.555 178.359C375.883 178.359 376.133 178.409 376.305 178.508V180.227Z" fill="#333333"/>
<path d="M264.675 204.5H263.594V194.507H264.675V204.5ZM269.685 204.658C268.688 204.658 267.89 204.344 267.292 203.716C266.699 203.083 266.402 202.246 266.402 201.204C266.402 200.07 266.712 199.185 267.332 198.548C267.951 197.91 268.789 197.592 269.843 197.592C270.85 197.592 271.634 197.902 272.197 198.521C272.763 199.141 273.047 200 273.047 201.099C273.047 202.175 272.741 203.039 272.131 203.689C271.524 204.335 270.709 204.658 269.685 204.658ZM269.764 198.501C269.07 198.501 268.521 198.739 268.116 199.213C267.712 199.684 267.51 200.334 267.51 201.165C267.51 201.964 267.714 202.595 268.123 203.056C268.531 203.518 269.079 203.749 269.764 203.749C270.463 203.749 270.999 203.522 271.373 203.07C271.75 202.617 271.939 201.973 271.939 201.138C271.939 200.294 271.75 199.644 271.373 199.187C270.999 198.73 270.463 198.501 269.764 198.501ZM279.375 204.19C278.856 204.502 278.241 204.658 277.529 204.658C276.567 204.658 275.789 204.346 275.196 203.722C274.607 203.094 274.312 202.281 274.312 201.283C274.312 200.171 274.631 199.279 275.268 198.607C275.906 197.93 276.756 197.592 277.819 197.592C278.413 197.592 278.936 197.702 279.388 197.921V199.029C278.887 198.677 278.351 198.501 277.78 198.501C277.09 198.501 276.523 198.75 276.079 199.246C275.64 199.739 275.42 200.387 275.42 201.191C275.42 201.982 275.626 202.606 276.04 203.063C276.457 203.52 277.015 203.749 277.714 203.749C278.303 203.749 278.856 203.553 279.375 203.162V204.19ZM285.842 204.5H284.76V203.445H284.734C284.264 204.254 283.572 204.658 282.658 204.658C281.985 204.658 281.458 204.48 281.076 204.124C280.698 203.768 280.509 203.296 280.509 202.707C280.509 201.446 281.251 200.712 282.737 200.505L284.76 200.222C284.76 199.075 284.297 198.501 283.37 198.501C282.557 198.501 281.823 198.778 281.168 199.332V198.225C281.832 197.803 282.596 197.592 283.462 197.592C285.048 197.592 285.842 198.431 285.842 200.11V204.5ZM284.76 201.085L283.132 201.31C282.631 201.38 282.253 201.505 281.999 201.685C281.744 201.861 281.616 202.175 281.616 202.628C281.616 202.958 281.733 203.228 281.966 203.439C282.203 203.645 282.517 203.749 282.908 203.749C283.444 203.749 283.886 203.562 284.233 203.188C284.585 202.81 284.76 202.333 284.76 201.758V201.085ZM288.959 204.5H287.878V194.507H288.959V204.5ZM300.278 201.395H295.512C295.529 202.147 295.731 202.727 296.118 203.135C296.505 203.544 297.037 203.749 297.713 203.749C298.474 203.749 299.172 203.498 299.81 202.997V204.012C299.216 204.443 298.432 204.658 297.456 204.658C296.503 204.658 295.753 204.353 295.208 203.742C294.664 203.127 294.391 202.263 294.391 201.151C294.391 200.101 294.688 199.246 295.281 198.587C295.879 197.924 296.619 197.592 297.502 197.592C298.386 197.592 299.069 197.877 299.552 198.449C300.036 199.02 300.278 199.813 300.278 200.828V201.395ZM299.17 200.479C299.166 199.855 299.014 199.369 298.715 199.022C298.421 198.675 298.01 198.501 297.483 198.501C296.973 198.501 296.54 198.684 296.184 199.049C295.828 199.413 295.608 199.89 295.525 200.479H299.17ZM307.522 204.5H306.441V200.65C306.441 199.218 305.918 198.501 304.872 198.501C304.332 198.501 303.883 198.706 303.527 199.115C303.176 199.519 303 200.031 303 200.65V204.5H301.919V197.75H303V198.871H303.026C303.536 198.018 304.274 197.592 305.241 197.592C305.979 197.592 306.544 197.831 306.935 198.31C307.326 198.785 307.522 199.473 307.522 200.374V204.5ZM314.872 197.75L312.182 204.5H311.121L308.563 197.75H309.75L311.464 202.654C311.591 203.015 311.67 203.329 311.701 203.597H311.728C311.771 203.259 311.842 202.953 311.938 202.681L313.731 197.75H314.872ZM316.592 196.036C316.399 196.036 316.234 195.97 316.098 195.838C315.962 195.707 315.894 195.54 315.894 195.337C315.894 195.135 315.962 194.968 316.098 194.836C316.234 194.7 316.399 194.632 316.592 194.632C316.79 194.632 316.957 194.7 317.093 194.836C317.234 194.968 317.304 195.135 317.304 195.337C317.304 195.531 317.234 195.696 317.093 195.832C316.957 195.968 316.79 196.036 316.592 196.036ZM317.12 204.5H316.039V197.75H317.12V204.5ZM322.828 198.844C322.639 198.699 322.367 198.627 322.011 198.627C321.549 198.627 321.163 198.844 320.851 199.279C320.543 199.714 320.389 200.308 320.389 201.059V204.5H319.308V197.75H320.389V199.141H320.416C320.569 198.666 320.804 198.297 321.121 198.033C321.437 197.765 321.791 197.631 322.182 197.631C322.463 197.631 322.679 197.662 322.828 197.724V198.844ZM326.823 204.658C325.825 204.658 325.028 204.344 324.43 203.716C323.837 203.083 323.54 202.246 323.54 201.204C323.54 200.07 323.85 199.185 324.469 198.548C325.089 197.91 325.926 197.592 326.981 197.592C327.987 197.592 328.772 197.902 329.334 198.521C329.901 199.141 330.185 200 330.185 201.099C330.185 202.175 329.879 203.039 329.268 203.689C328.662 204.335 327.847 204.658 326.823 204.658ZM326.902 198.501C326.208 198.501 325.658 198.739 325.254 199.213C324.85 199.684 324.647 200.334 324.647 201.165C324.647 201.964 324.852 202.595 325.26 203.056C325.669 203.518 326.216 203.749 326.902 203.749C327.601 203.749 328.137 203.522 328.51 203.07C328.888 202.617 329.077 201.973 329.077 201.138C329.077 200.294 328.888 199.644 328.51 199.187C328.137 198.73 327.601 198.501 326.902 198.501ZM337.515 204.5H336.434V200.65C336.434 199.218 335.911 198.501 334.865 198.501C334.324 198.501 333.876 198.706 333.52 199.115C333.168 199.519 332.993 200.031 332.993 200.65V204.5H331.912V197.75H332.993V198.871H333.019C333.529 198.018 334.267 197.592 335.234 197.592C335.972 197.592 336.537 197.831 336.928 198.31C337.319 198.785 337.515 199.473 337.515 200.374V204.5ZM349.143 204.5H348.062V200.624C348.062 199.877 347.945 199.336 347.712 199.002C347.484 198.668 347.097 198.501 346.552 198.501C346.091 198.501 345.697 198.712 345.372 199.134C345.051 199.556 344.891 200.062 344.891 200.65V204.5H343.81V200.492C343.81 199.165 343.298 198.501 342.274 198.501C341.799 198.501 341.408 198.701 341.101 199.101C340.793 199.497 340.639 200.013 340.639 200.65V204.5H339.558V197.75H340.639V198.818H340.666C341.145 198 341.843 197.592 342.762 197.592C343.223 197.592 343.625 197.721 343.968 197.981C344.311 198.236 344.546 198.572 344.673 198.989C345.174 198.058 345.921 197.592 346.915 197.592C348.4 197.592 349.143 198.508 349.143 200.341V204.5ZM356.611 201.395H351.845C351.863 202.147 352.065 202.727 352.452 203.135C352.838 203.544 353.37 203.749 354.047 203.749C354.807 203.749 355.506 203.498 356.143 202.997V204.012C355.55 204.443 354.765 204.658 353.79 204.658C352.836 204.658 352.087 204.353 351.542 203.742C350.997 203.127 350.725 202.263 350.725 201.151C350.725 200.101 351.021 199.246 351.615 198.587C352.212 197.924 352.953 197.592 353.836 197.592C354.719 197.592 355.403 197.877 355.886 198.449C356.369 199.02 356.611 199.813 356.611 200.828V201.395ZM355.504 200.479C355.499 199.855 355.348 199.369 355.049 199.022C354.754 198.675 354.344 198.501 353.816 198.501C353.306 198.501 352.874 198.684 352.518 199.049C352.162 199.413 351.942 199.89 351.858 200.479H355.504ZM363.855 204.5H362.774V200.65C362.774 199.218 362.251 198.501 361.206 198.501C360.665 198.501 360.217 198.706 359.861 199.115C359.509 199.519 359.333 200.031 359.333 200.65V204.5H358.252V197.75H359.333V198.871H359.36C359.87 198.018 360.608 197.592 361.575 197.592C362.313 197.592 362.878 197.831 363.269 198.31C363.66 198.785 363.855 199.473 363.855 200.374V204.5ZM369.03 204.434C368.775 204.575 368.439 204.645 368.021 204.645C366.839 204.645 366.248 203.986 366.248 202.667V198.673H365.088V197.75H366.248V196.102L367.329 195.753V197.75H369.03V198.673H367.329V202.476C367.329 202.929 367.406 203.252 367.56 203.445C367.714 203.639 367.969 203.735 368.325 203.735C368.597 203.735 368.832 203.661 369.03 203.511V204.434Z" fill="#333333"/>
<path d="M212.5 222L407.5 222" stroke="#E1E1E1" stroke-width="2" stroke-linecap="round"/>
<g clip-path="url(#clip0_349_8604)">
<path d="M215.5 241.5C215.5 239.567 217.067 238 219 238H238C239.933 238 241.5 239.567 241.5 241.5V260.5C241.5 262.433 239.933 264 238 264H219C217.067 264 215.5 262.433 215.5 260.5V241.5Z" fill="url(#paint5_linear_349_8604)"/>
<path d="M215.5 241.5C215.5 239.567 217.067 238 219 238H238C239.933 238 241.5 239.567 241.5 241.5V260.5C241.5 262.433 239.933 264 238 264H219C217.067 264 215.5 262.433 215.5 260.5V241.5Z" fill="url(#paint6_radial_349_8604)" fill-opacity="0.2"/>
<path fill-rule="evenodd" clip-rule="evenodd" d="M238 239H219C217.619 239 216.5 240.119 216.5 241.5V260.5C216.5 261.881 217.619 263 219 263H238C239.381 263 240.5 261.881 240.5 260.5V241.5C240.5 240.119 239.381 239 238 239ZM219 238C217.067 238 215.5 239.567 215.5 241.5V260.5C215.5 262.433 217.067 264 219 264H238C239.933 264 241.5 262.433 241.5 260.5V241.5C241.5 239.567 239.933 238 238 238H219Z" fill="url(#paint7_linear_349_8604)"/>
<path d="M222.5 244.8C222.5 243.806 223.321 243 224.333 243H227.903C228.389 243 228.856 243.19 229.199 243.527L232.963 247.222C233.307 247.56 233.5 248.018 233.5 248.495V255.2C233.5 256.194 232.679 257 231.667 257H224.333C223.321 257 222.5 256.194 222.5 255.2V244.8ZM224.333 244.2C223.996 244.2 223.722 244.469 223.722 244.8V255.2C223.722 255.531 223.996 255.8 224.333 255.8H231.667C232.004 255.8 232.278 255.531 232.278 255.2V248.598H229.633C228.62 248.598 227.799 247.792 227.799 246.798V244.2H224.333ZM229.022 245.05V246.798C229.022 247.129 229.295 247.398 229.633 247.398H231.414L229.022 245.05Z" fill="#333333"/>
<path d="M224.5 257.852C224.754 258.521 225.44 259 226.246 259H231.593C233.751 259 235.5 257.372 235.5 255.364V250.862C235.5 250.405 235.305 249.967 234.958 249.644L234.266 249V255.364C234.266 256.738 233.069 257.852 231.593 257.852H224.5Z" fill="#333333"/>
</g>
<path d="M273.156 258H271.875V253.406C271.875 252.521 271.737 251.88 271.461 251.484C271.19 251.089 270.732 250.891 270.086 250.891C269.539 250.891 269.073 251.141 268.688 251.641C268.307 252.141 268.117 252.74 268.117 253.438V258H266.836V253.25C266.836 251.677 266.229 250.891 265.016 250.891C264.453 250.891 263.99 251.128 263.625 251.602C263.26 252.07 263.078 252.682 263.078 253.438V258H261.797V250H263.078V251.266H263.109C263.677 250.297 264.505 249.812 265.594 249.812C266.141 249.812 266.617 249.966 267.023 250.273C267.43 250.576 267.708 250.974 267.859 251.469C268.453 250.365 269.339 249.812 270.516 249.812C272.276 249.812 273.156 250.898 273.156 253.07V258ZM278.922 258.188C277.74 258.188 276.794 257.815 276.086 257.07C275.383 256.32 275.031 255.328 275.031 254.094C275.031 252.75 275.398 251.701 276.133 250.945C276.867 250.19 277.859 249.812 279.109 249.812C280.302 249.812 281.232 250.18 281.898 250.914C282.57 251.648 282.906 252.667 282.906 253.969C282.906 255.245 282.544 256.268 281.82 257.039C281.102 257.805 280.135 258.188 278.922 258.188ZM279.016 250.891C278.193 250.891 277.542 251.172 277.062 251.734C276.583 252.292 276.344 253.062 276.344 254.047C276.344 254.995 276.586 255.742 277.07 256.289C277.555 256.836 278.203 257.109 279.016 257.109C279.844 257.109 280.479 256.841 280.922 256.305C281.37 255.768 281.594 255.005 281.594 254.016C281.594 253.016 281.37 252.245 280.922 251.703C280.479 251.161 279.844 250.891 279.016 250.891ZM291.781 258H290.5V256.641H290.469C289.875 257.672 288.958 258.188 287.719 258.188C286.714 258.188 285.909 257.831 285.305 257.117C284.706 256.398 284.406 255.422 284.406 254.188C284.406 252.865 284.74 251.805 285.406 251.008C286.073 250.211 286.961 249.812 288.07 249.812C289.169 249.812 289.969 250.245 290.469 251.109H290.5V246.156H291.781V258ZM290.5 254.383V253.203C290.5 252.557 290.286 252.01 289.859 251.562C289.432 251.115 288.891 250.891 288.234 250.891C287.453 250.891 286.839 251.177 286.391 251.75C285.943 252.323 285.719 253.115 285.719 254.125C285.719 255.047 285.932 255.776 286.359 256.312C286.792 256.844 287.37 257.109 288.094 257.109C288.807 257.109 289.385 256.852 289.828 256.336C290.276 255.82 290.5 255.169 290.5 254.383ZM300.805 254.32H295.156C295.177 255.211 295.417 255.898 295.875 256.383C296.333 256.867 296.964 257.109 297.766 257.109C298.667 257.109 299.495 256.812 300.25 256.219V257.422C299.547 257.932 298.617 258.188 297.461 258.188C296.331 258.188 295.443 257.826 294.797 257.102C294.151 256.372 293.828 255.349 293.828 254.031C293.828 252.786 294.18 251.773 294.883 250.992C295.591 250.206 296.469 249.812 297.516 249.812C298.562 249.812 299.372 250.151 299.945 250.828C300.518 251.505 300.805 252.445 300.805 253.648V254.32ZM299.492 253.234C299.487 252.495 299.307 251.919 298.953 251.508C298.604 251.096 298.117 250.891 297.492 250.891C296.888 250.891 296.375 251.107 295.953 251.539C295.531 251.971 295.271 252.536 295.172 253.234H299.492ZM304.031 258H302.75V246.156H304.031V258ZM307.07 258.172C306.831 258.172 306.625 258.086 306.453 257.914C306.286 257.742 306.203 257.536 306.203 257.297C306.203 257.057 306.286 256.852 306.453 256.68C306.625 256.503 306.831 256.414 307.07 256.414C307.315 256.414 307.523 256.503 307.695 256.68C307.867 256.852 307.953 257.057 307.953 257.297C307.953 257.536 307.867 257.742 307.695 257.914C307.523 258.086 307.315 258.172 307.07 258.172ZM311.406 256.844H311.375V258H310.094V246.156H311.375V251.406H311.406C312.036 250.344 312.958 249.812 314.172 249.812C315.198 249.812 316 250.172 316.578 250.891C317.161 251.604 317.453 252.562 317.453 253.766C317.453 255.104 317.128 256.177 316.477 256.984C315.826 257.786 314.935 258.188 313.805 258.188C312.747 258.188 311.948 257.74 311.406 256.844ZM311.375 253.617V254.734C311.375 255.396 311.589 255.958 312.016 256.422C312.448 256.88 312.995 257.109 313.656 257.109C314.432 257.109 315.039 256.812 315.477 256.219C315.919 255.625 316.141 254.799 316.141 253.742C316.141 252.852 315.935 252.154 315.523 251.648C315.112 251.143 314.555 250.891 313.852 250.891C313.107 250.891 312.508 251.151 312.055 251.672C311.602 252.188 311.375 252.836 311.375 253.617ZM320.156 247.969C319.927 247.969 319.732 247.891 319.57 247.734C319.409 247.578 319.328 247.38 319.328 247.141C319.328 246.901 319.409 246.703 319.57 246.547C319.732 246.385 319.927 246.305 320.156 246.305C320.391 246.305 320.589 246.385 320.75 246.547C320.917 246.703 321 246.901 321 247.141C321 247.37 320.917 247.565 320.75 247.727C320.589 247.888 320.391 247.969 320.156 247.969ZM320.781 258H319.5V250H320.781V258ZM334.734 258H333.453V253.406C333.453 252.521 333.315 251.88 333.039 251.484C332.768 251.089 332.31 250.891 331.664 250.891C331.117 250.891 330.651 251.141 330.266 251.641C329.885 252.141 329.695 252.74 329.695 253.438V258H328.414V253.25C328.414 251.677 327.807 250.891 326.594 250.891C326.031 250.891 325.568 251.128 325.203 251.602C324.839 252.07 324.656 252.682 324.656 253.438V258H323.375V250H324.656V251.266H324.688C325.255 250.297 326.083 249.812 327.172 249.812C327.719 249.812 328.195 249.966 328.602 250.273C329.008 250.576 329.286 250.974 329.438 251.469C330.031 250.365 330.917 249.812 332.094 249.812C333.854 249.812 334.734 250.898 334.734 253.07V258ZM345.5 247.281C345.25 247.141 344.966 247.07 344.648 247.07C343.753 247.07 343.305 247.635 343.305 248.766V250H345.18V251.094H343.305V258H342.031V251.094H340.664V250H342.031V248.703C342.031 247.865 342.273 247.203 342.758 246.719C343.242 246.229 343.846 245.984 344.57 245.984C344.961 245.984 345.271 246.031 345.5 246.125V247.281ZM347.219 247.969C346.99 247.969 346.794 247.891 346.633 247.734C346.471 247.578 346.391 247.38 346.391 247.141C346.391 246.901 346.471 246.703 346.633 246.547C346.794 246.385 346.99 246.305 347.219 246.305C347.453 246.305 347.651 246.385 347.812 246.547C347.979 246.703 348.062 246.901 348.062 247.141C348.062 247.37 347.979 247.565 347.812 247.727C347.651 247.888 347.453 247.969 347.219 247.969ZM347.844 258H346.562V250H347.844V258ZM351.719 258H350.438V246.156H351.719V258ZM360.742 254.32H355.094C355.115 255.211 355.354 255.898 355.812 256.383C356.271 256.867 356.901 257.109 357.703 257.109C358.604 257.109 359.432 256.812 360.188 256.219V257.422C359.484 257.932 358.555 258.188 357.398 258.188C356.268 258.188 355.38 257.826 354.734 257.102C354.089 256.372 353.766 255.349 353.766 254.031C353.766 252.786 354.117 251.773 354.82 250.992C355.529 250.206 356.406 249.812 357.453 249.812C358.5 249.812 359.31 250.151 359.883 250.828C360.456 251.505 360.742 252.445 360.742 253.648V254.32ZM359.43 253.234C359.424 252.495 359.245 251.919 358.891 251.508C358.542 251.096 358.055 250.891 357.43 250.891C356.826 250.891 356.312 251.107 355.891 251.539C355.469 251.971 355.208 252.536 355.109 253.234H359.43ZM362.203 257.711V256.336C362.901 256.852 363.669 257.109 364.508 257.109C365.633 257.109 366.195 256.734 366.195 255.984C366.195 255.771 366.146 255.591 366.047 255.445C365.953 255.294 365.823 255.161 365.656 255.047C365.495 254.932 365.302 254.831 365.078 254.742C364.859 254.648 364.622 254.552 364.367 254.453C364.013 254.312 363.701 254.172 363.43 254.031C363.164 253.885 362.94 253.724 362.758 253.547C362.581 253.365 362.445 253.159 362.352 252.93C362.263 252.701 362.219 252.432 362.219 252.125C362.219 251.75 362.305 251.419 362.477 251.133C362.648 250.841 362.878 250.599 363.164 250.406C363.451 250.208 363.776 250.06 364.141 249.961C364.51 249.862 364.891 249.812 365.281 249.812C365.974 249.812 366.594 249.932 367.141 250.172V251.469C366.552 251.083 365.875 250.891 365.109 250.891C364.87 250.891 364.654 250.919 364.461 250.977C364.268 251.029 364.102 251.104 363.961 251.203C363.826 251.302 363.719 251.422 363.641 251.562C363.568 251.698 363.531 251.849 363.531 252.016C363.531 252.224 363.568 252.398 363.641 252.539C363.719 252.68 363.831 252.805 363.977 252.914C364.122 253.023 364.299 253.122 364.508 253.211C364.716 253.299 364.953 253.396 365.219 253.5C365.573 253.635 365.891 253.776 366.172 253.922C366.453 254.062 366.693 254.224 366.891 254.406C367.089 254.583 367.24 254.789 367.344 255.023C367.453 255.258 367.508 255.536 367.508 255.859C367.508 256.255 367.419 256.599 367.242 256.891C367.07 257.182 366.839 257.424 366.547 257.617C366.255 257.81 365.919 257.953 365.539 258.047C365.159 258.141 364.76 258.188 364.344 258.188C363.521 258.188 362.807 258.029 362.203 257.711Z" fill="#333333"/>
<g clip-path="url(#clip1_349_8604)">
<path d="M215.5 286.5C215.5 284.567 217.067 283 219 283H238C239.933 283 241.5 284.567 241.5 286.5V305.5C241.5 307.433 239.933 309 238 309H219C217.067 309 215.5 307.433 215.5 305.5V286.5Z" fill="url(#paint8_linear_349_8604)"/>
<path d="M215.5 286.5C215.5 284.567 217.067 283 219 283H238C239.933 283 241.5 284.567 241.5 286.5V305.5C241.5 307.433 239.933 309 238 309H219C217.067 309 215.5 307.433 215.5 305.5V286.5Z" fill="url(#paint9_radial_349_8604)" fill-opacity="0.2"/>
<path fill-rule="evenodd" clip-rule="evenodd" d="M238 284H219C217.619 284 216.5 285.119 216.5 286.5V305.5C216.5 306.881 217.619 308 219 308H238C239.381 308 240.5 306.881 240.5 305.5V286.5C240.5 285.119 239.381 284 238 284ZM219 283C217.067 283 215.5 284.567 215.5 286.5V305.5C215.5 307.433 217.067 309 219 309H238C239.933 309 241.5 307.433 241.5 305.5V286.5C241.5 284.567 239.933 283 238 283H219Z" fill="url(#paint10_linear_349_8604)"/>
<path d="M222.5 289.8C222.5 288.806 223.321 288 224.333 288H227.903C228.389 288 228.856 288.19 229.199 288.527L232.963 292.222C233.307 292.56 233.5 293.018 233.5 293.495V300.2C233.5 301.194 232.679 302 231.667 302H224.333C223.321 302 222.5 301.194 222.5 300.2V289.8ZM224.333 289.2C223.996 289.2 223.722 289.469 223.722 289.8V300.2C223.722 300.531 223.996 300.8 224.333 300.8H231.667C232.004 300.8 232.278 300.531 232.278 300.2V293.598H229.633C228.62 293.598 227.799 292.792 227.799 291.798V289.2H224.333ZM229.022 290.05V291.798C229.022 292.129 229.295 292.398 229.633 292.398H231.414L229.022 290.05Z" fill="#333333"/>
<path d="M224.5 302.852C224.754 303.521 225.44 304 226.246 304H231.593C233.751 304 235.5 302.372 235.5 300.364V295.862C235.5 295.405 235.305 294.967 234.958 294.644L234.266 294V300.364C234.266 301.738 233.069 302.852 231.593 302.852H224.5Z" fill="#333333"/>
</g>
<path d="M268.594 292.984H265.359V303H264.047V292.984H260.82V291.797H268.594V292.984ZM281.781 303H280.477V295.484C280.477 294.891 280.513 294.164 280.586 293.305H280.555C280.43 293.81 280.318 294.172 280.219 294.391L276.391 303H275.75L271.93 294.453C271.82 294.203 271.708 293.82 271.594 293.305H271.562C271.604 293.753 271.625 294.484 271.625 295.5V303H270.359V291.797H272.094L275.531 299.609C275.797 300.208 275.969 300.656 276.047 300.953H276.094C276.318 300.339 276.497 299.88 276.633 299.578L280.141 291.797H281.781V303ZM284.734 303V291.797H287.828C291.776 291.797 293.75 293.617 293.75 297.258C293.75 298.987 293.201 300.378 292.102 301.43C291.008 302.477 289.542 303 287.703 303H284.734ZM286.047 292.984V301.812H287.719C289.188 301.812 290.331 301.419 291.148 300.633C291.966 299.846 292.375 298.732 292.375 297.289C292.375 294.419 290.849 292.984 287.797 292.984H286.047ZM301.766 303H295.953V291.797H297.266V301.812H301.766V303ZM311.656 292.281C311.406 292.141 311.122 292.07 310.805 292.07C309.909 292.07 309.461 292.635 309.461 293.766V295H311.336V296.094H309.461V303H308.188V296.094H306.82V295H308.188V293.703C308.188 292.865 308.43 292.203 308.914 291.719C309.398 291.229 310.003 290.984 310.727 290.984C311.117 290.984 311.427 291.031 311.656 291.125V292.281ZM313.375 292.969C313.146 292.969 312.951 292.891 312.789 292.734C312.628 292.578 312.547 292.38 312.547 292.141C312.547 291.901 312.628 291.703 312.789 291.547C312.951 291.385 313.146 291.305 313.375 291.305C313.609 291.305 313.807 291.385 313.969 291.547C314.135 291.703 314.219 291.901 314.219 292.141C314.219 292.37 314.135 292.565 313.969 292.727C313.807 292.888 313.609 292.969 313.375 292.969ZM314 303H312.719V295H314V303ZM317.875 303H316.594V291.156H317.875V303ZM326.898 299.32H321.25C321.271 300.211 321.51 300.898 321.969 301.383C322.427 301.867 323.057 302.109 323.859 302.109C324.76 302.109 325.589 301.812 326.344 301.219V302.422C325.641 302.932 324.711 303.188 323.555 303.188C322.424 303.188 321.536 302.826 320.891 302.102C320.245 301.372 319.922 300.349 319.922 299.031C319.922 297.786 320.273 296.773 320.977 295.992C321.685 295.206 322.562 294.812 323.609 294.812C324.656 294.812 325.466 295.151 326.039 295.828C326.612 296.505 326.898 297.445 326.898 298.648V299.32ZM325.586 298.234C325.581 297.495 325.401 296.919 325.047 296.508C324.698 296.096 324.211 295.891 323.586 295.891C322.982 295.891 322.469 296.107 322.047 296.539C321.625 296.971 321.365 297.536 321.266 298.234H325.586ZM328.359 302.711V301.336C329.057 301.852 329.826 302.109 330.664 302.109C331.789 302.109 332.352 301.734 332.352 300.984C332.352 300.771 332.302 300.591 332.203 300.445C332.109 300.294 331.979 300.161 331.812 300.047C331.651 299.932 331.458 299.831 331.234 299.742C331.016 299.648 330.779 299.552 330.523 299.453C330.169 299.312 329.857 299.172 329.586 299.031C329.32 298.885 329.096 298.724 328.914 298.547C328.737 298.365 328.602 298.159 328.508 297.93C328.419 297.701 328.375 297.432 328.375 297.125C328.375 296.75 328.461 296.419 328.633 296.133C328.805 295.841 329.034 295.599 329.32 295.406C329.607 295.208 329.932 295.06 330.297 294.961C330.667 294.862 331.047 294.812 331.438 294.812C332.13 294.812 332.75 294.932 333.297 295.172V296.469C332.708 296.083 332.031 295.891 331.266 295.891C331.026 295.891 330.81 295.919 330.617 295.977C330.424 296.029 330.258 296.104 330.117 296.203C329.982 296.302 329.875 296.422 329.797 296.562C329.724 296.698 329.688 296.849 329.688 297.016C329.688 297.224 329.724 297.398 329.797 297.539C329.875 297.68 329.987 297.805 330.133 297.914C330.279 298.023 330.456 298.122 330.664 298.211C330.872 298.299 331.109 298.396 331.375 298.5C331.729 298.635 332.047 298.776 332.328 298.922C332.609 299.062 332.849 299.224 333.047 299.406C333.245 299.583 333.396 299.789 333.5 300.023C333.609 300.258 333.664 300.536 333.664 300.859C333.664 301.255 333.576 301.599 333.398 301.891C333.227 302.182 332.995 302.424 332.703 302.617C332.411 302.81 332.076 302.953 331.695 303.047C331.315 303.141 330.917 303.188 330.5 303.188C329.677 303.188 328.964 303.029 328.359 302.711Z" fill="#333333"/>
<path d="M493.25 177C493.25 168.578 500.078 161.75 508.5 161.75H701.5C709.922 161.75 716.75 168.578 716.75 177V264C716.75 272.422 709.922 279.25 701.5 279.25H508.5C500.078 279.25 493.25 272.422 493.25 264V177Z" fill="white"/>
<path d="M493.25 177C493.25 168.578 500.078 161.75 508.5 161.75H701.5C709.922 161.75 716.75 168.578 716.75 177V264C716.75 272.422 709.922 279.25 701.5 279.25H508.5C500.078 279.25 493.25 272.422 493.25 264V177Z" stroke="#E1E1E1" stroke-width="1.5"/>
<path d="M522.812 180.562C522.812 179.286 522.305 178.062 521.403 177.16C520.5 176.257 519.276 175.75 518 175.75C516.724 175.75 515.5 176.257 514.597 177.16C513.695 178.062 513.188 179.286 513.188 180.562C513.188 181.839 513.695 183.063 514.597 183.965C515.5 184.868 516.724 185.375 518 185.375C519.276 185.375 520.5 184.868 521.403 183.965C522.305 183.063 522.812 181.839 522.812 180.562ZM514.938 180.562C514.938 180.16 515.017 179.762 515.171 179.391C515.325 179.019 515.55 178.681 515.834 178.397C516.119 178.113 516.456 177.887 516.828 177.733C517.2 177.579 517.598 177.5 518 177.5C518.402 177.5 518.8 177.579 519.172 177.733C519.544 177.887 519.881 178.113 520.166 178.397C520.45 178.681 520.675 179.019 520.829 179.391C520.983 179.762 521.062 180.16 521.062 180.562C521.062 181.375 520.74 182.154 520.166 182.728C519.591 183.302 518.812 183.625 518 183.625C517.188 183.625 516.409 183.302 515.834 182.728C515.26 182.154 514.938 181.375 514.938 180.562ZM511.875 187.125H519.19C518.91 187.667 518.7 188.262 518.577 188.875H511.875C511.643 188.875 511.42 188.967 511.256 189.131C511.092 189.295 511 189.518 511 189.75V190.625C511 192.83 512.925 195.193 516.425 195.753C515.847 196.138 515.375 196.645 515.043 197.24C511.368 196.243 509.25 193.39 509.25 190.625V189.75C509.25 188.297 510.423 187.125 511.875 187.125ZM521.29 187.125C522.1 186.141 523.268 185.519 524.536 185.396C525.804 185.273 527.07 185.659 528.054 186.469C529.038 187.279 529.66 188.446 529.783 189.715C529.906 190.983 529.52 192.249 528.71 193.233C528.309 193.72 527.816 194.123 527.259 194.42C526.702 194.716 526.092 194.901 525.464 194.961C524.196 195.085 522.93 194.699 521.946 193.889C520.962 193.079 520.34 191.911 520.217 190.643C520.094 189.374 520.48 188.109 521.29 187.125ZM522.235 188.875C522.057 189.244 521.956 189.645 521.936 190.053C521.917 190.462 521.98 190.871 522.122 191.255C522.264 191.639 522.482 191.99 522.763 192.288C523.044 192.585 523.382 192.823 523.757 192.988C524.223 193.199 524.735 193.29 525.246 193.252C525.756 193.214 526.249 193.047 526.678 192.768C527.107 192.489 527.459 192.106 527.701 191.655C527.943 191.204 528.067 190.699 528.062 190.188C528.065 189.746 527.972 189.309 527.789 188.907C527.607 188.506 527.339 188.148 527.004 187.86C526.669 187.572 526.276 187.36 525.852 187.24C525.427 187.119 524.981 187.091 524.545 187.16C523.512 187.318 522.655 187.965 522.235 188.875ZM534.957 197.24C534.607 196.645 534.152 196.138 533.575 195.753C537.075 195.193 539 192.83 539 190.625V189.75C539 189.518 538.908 189.295 538.744 189.131C538.58 188.967 538.357 188.875 538.125 188.875H531.44C531.3 188.262 531.09 187.667 530.81 187.125H538.125C539.577 187.125 540.75 188.297 540.75 189.75V190.625C540.75 193.407 538.65 196.243 534.957 197.24ZM532.858 197.415C532.38 196.99 531.764 196.753 531.125 196.75H518.875C518.179 196.75 517.511 197.027 517.019 197.519C516.527 198.011 516.25 198.679 516.25 199.375V200.25C516.25 203.698 519.505 207.25 525 207.25C530.495 207.25 533.75 203.698 533.75 200.25V199.375C533.75 198.587 533.4 197.887 532.858 197.397V197.415ZM518 199.375C518 198.885 518.385 198.5 518.875 198.5H531.125C531.615 198.5 532 198.885 532 199.375V200.25C532 202.77 529.497 205.5 525 205.5C520.503 205.5 518 202.77 518 200.25V199.375ZM532 175.75C533.276 175.75 534.5 176.257 535.403 177.16C536.305 178.062 536.812 179.286 536.812 180.562C536.812 181.839 536.305 183.063 535.403 183.965C534.5 184.868 533.276 185.375 532 185.375C530.724 185.375 529.5 184.868 528.597 183.965C527.695 183.063 527.188 181.839 527.188 180.562C527.188 179.286 527.695 178.062 528.597 177.16C529.5 176.257 530.724 175.75 532 175.75ZM532 177.5C531.188 177.5 530.409 177.823 529.834 178.397C529.26 178.971 528.938 179.75 528.938 180.562C528.938 181.375 529.26 182.154 529.834 182.728C530.409 183.302 531.188 183.625 532 183.625C532.812 183.625 533.591 183.302 534.166 182.728C534.74 182.154 535.062 181.375 535.062 180.562C535.062 179.75 534.74 178.971 534.166 178.397C533.591 177.823 532.812 177.5 532 177.5Z" fill="url(#paint11_linear_349_8604)"/>
<path d="M564.93 188.375H560.742V191.742H564.602V193.312H560.742V198H558.883V186.797H564.93V188.375ZM572.32 198H570.562V196.75H570.531C569.979 197.708 569.169 198.188 568.102 198.188C567.315 198.188 566.698 197.974 566.25 197.547C565.807 197.12 565.586 196.555 565.586 195.852C565.586 194.341 566.456 193.461 568.195 193.211L570.57 192.875C570.57 191.734 570.029 191.164 568.945 191.164C567.992 191.164 567.133 191.492 566.367 192.148V190.562C567.211 190.062 568.185 189.812 569.289 189.812C571.31 189.812 572.32 190.807 572.32 192.797V198ZM570.57 194.07L568.891 194.305C568.37 194.372 567.977 194.5 567.711 194.688C567.451 194.87 567.32 195.193 567.32 195.656C567.32 195.995 567.44 196.273 567.68 196.492C567.924 196.706 568.25 196.812 568.656 196.812C569.208 196.812 569.664 196.62 570.023 196.234C570.388 195.844 570.57 195.354 570.57 194.766V194.07ZM576.383 196.844H576.352V198H574.539V186.156H576.352V191.406H576.383C577.003 190.344 577.909 189.812 579.102 189.812C580.112 189.812 580.901 190.172 581.469 190.891C582.042 191.604 582.328 192.562 582.328 193.766C582.328 195.104 582.008 196.177 581.367 196.984C580.727 197.786 579.852 198.188 578.742 198.188C577.701 198.188 576.914 197.74 576.383 196.844ZM576.336 193.664V194.656C576.336 195.24 576.521 195.734 576.891 196.141C577.266 196.547 577.74 196.75 578.312 196.75C578.984 196.75 579.51 196.49 579.891 195.969C580.276 195.443 580.469 194.711 580.469 193.773C580.469 192.987 580.289 192.372 579.93 191.93C579.576 191.482 579.094 191.258 578.484 191.258C577.839 191.258 577.318 191.487 576.922 191.945C576.531 192.404 576.336 192.977 576.336 193.664ZM588.82 191.727C588.602 191.555 588.286 191.469 587.875 191.469C587.339 191.469 586.891 191.711 586.531 192.195C586.172 192.68 585.992 193.339 585.992 194.172V198H584.18V190H585.992V191.648H586.023C586.201 191.086 586.471 190.648 586.836 190.336C587.206 190.018 587.617 189.859 588.07 189.859C588.398 189.859 588.648 189.909 588.82 190.008V191.727ZM591.016 188.32C590.719 188.32 590.464 188.224 590.25 188.031C590.042 187.839 589.938 187.594 589.938 187.297C589.938 187 590.042 186.753 590.25 186.555C590.464 186.357 590.719 186.258 591.016 186.258C591.323 186.258 591.583 186.357 591.797 186.555C592.01 186.753 592.117 187 592.117 187.297C592.117 187.578 592.01 187.82 591.797 188.023C591.583 188.221 591.323 188.32 591.016 188.32ZM591.914 198H590.102V190H591.914V198ZM600.016 197.633C599.375 198.003 598.617 198.188 597.742 198.188C596.555 198.188 595.596 197.818 594.867 197.078C594.138 196.333 593.773 195.37 593.773 194.188C593.773 192.87 594.164 191.812 594.945 191.016C595.732 190.214 596.781 189.812 598.094 189.812C598.823 189.812 599.466 189.94 600.023 190.195V191.883C599.466 191.466 598.872 191.258 598.242 191.258C597.477 191.258 596.849 191.518 596.359 192.039C595.87 192.555 595.625 193.232 595.625 194.07C595.625 194.898 595.854 195.552 596.312 196.031C596.776 196.51 597.396 196.75 598.172 196.75C598.823 196.75 599.438 196.518 600.016 196.055V197.633ZM616.984 190L614.625 198H612.727L611.273 192.578C611.216 192.37 611.18 192.135 611.164 191.875H611.133C611.122 192.052 611.076 192.281 610.992 192.562L609.414 198H607.555L605.203 190H607.078L608.531 195.766C608.578 195.938 608.609 196.167 608.625 196.453H608.68C608.695 196.234 608.737 196 608.805 195.75L610.422 190H612.125L613.562 195.789C613.609 195.971 613.643 196.201 613.664 196.477H613.719C613.729 196.284 613.768 196.055 613.836 195.789L615.258 190H616.984ZM621.82 198.188C620.586 198.188 619.599 197.815 618.859 197.07C618.125 196.32 617.758 195.328 617.758 194.094C617.758 192.75 618.141 191.701 618.906 190.945C619.677 190.19 620.714 189.812 622.016 189.812C623.266 189.812 624.24 190.18 624.938 190.914C625.635 191.648 625.984 192.667 625.984 193.969C625.984 195.245 625.607 196.268 624.852 197.039C624.102 197.805 623.091 198.188 621.82 198.188ZM621.906 191.258C621.198 191.258 620.638 191.505 620.227 192C619.815 192.495 619.609 193.177 619.609 194.047C619.609 194.885 619.818 195.547 620.234 196.031C620.651 196.51 621.208 196.75 621.906 196.75C622.62 196.75 623.167 196.513 623.547 196.039C623.932 195.565 624.125 194.891 624.125 194.016C624.125 193.135 623.932 192.456 623.547 191.977C623.167 191.497 622.62 191.258 621.906 191.258ZM632.477 191.727C632.258 191.555 631.943 191.469 631.531 191.469C630.995 191.469 630.547 191.711 630.188 192.195C629.828 192.68 629.648 193.339 629.648 194.172V198H627.836V190H629.648V191.648H629.68C629.857 191.086 630.128 190.648 630.492 190.336C630.862 190.018 631.273 189.859 631.727 189.859C632.055 189.859 632.305 189.909 632.477 190.008V191.727ZM641.016 198H638.719L635.609 194.156H635.578V198H633.758V186.156H635.578V193.664H635.609L638.547 190H640.727L637.422 193.859L641.016 198ZM641.664 197.75V196.07C642.341 196.586 643.089 196.844 643.906 196.844C645 196.844 645.547 196.521 645.547 195.875C645.547 195.693 645.5 195.539 645.406 195.414C645.312 195.284 645.185 195.169 645.023 195.07C644.867 194.971 644.68 194.883 644.461 194.805C644.247 194.727 644.008 194.638 643.742 194.539C643.414 194.409 643.117 194.271 642.852 194.125C642.591 193.979 642.372 193.815 642.195 193.633C642.023 193.445 641.893 193.234 641.805 193C641.716 192.766 641.672 192.492 641.672 192.18C641.672 191.794 641.763 191.456 641.945 191.164C642.128 190.867 642.372 190.62 642.68 190.422C642.987 190.219 643.336 190.068 643.727 189.969C644.117 189.865 644.521 189.812 644.938 189.812C645.677 189.812 646.339 189.924 646.922 190.148V191.734C646.359 191.349 645.714 191.156 644.984 191.156C644.755 191.156 644.547 191.18 644.359 191.227C644.177 191.273 644.021 191.339 643.891 191.422C643.76 191.505 643.659 191.607 643.586 191.727C643.513 191.841 643.477 191.969 643.477 192.109C643.477 192.281 643.513 192.427 643.586 192.547C643.659 192.667 643.766 192.773 643.906 192.867C644.052 192.956 644.224 193.039 644.422 193.117C644.625 193.19 644.857 193.271 645.117 193.359C645.461 193.5 645.768 193.643 646.039 193.789C646.315 193.935 646.549 194.102 646.742 194.289C646.935 194.471 647.083 194.685 647.188 194.93C647.292 195.169 647.344 195.456 647.344 195.789C647.344 196.195 647.25 196.549 647.062 196.852C646.875 197.154 646.625 197.404 646.312 197.602C646 197.799 645.638 197.945 645.227 198.039C644.82 198.138 644.391 198.188 643.938 198.188C643.062 198.188 642.305 198.042 641.664 197.75ZM650.914 196.82H650.883V201.68H649.07V190H650.883V191.406H650.914C651.534 190.344 652.44 189.812 653.633 189.812C654.648 189.812 655.44 190.169 656.008 190.883C656.576 191.596 656.859 192.555 656.859 193.758C656.859 195.091 656.539 196.159 655.898 196.961C655.258 197.763 654.383 198.164 653.273 198.164C652.253 198.164 651.466 197.716 650.914 196.82ZM650.867 193.664V194.656C650.867 195.24 651.052 195.734 651.422 196.141C651.797 196.547 652.271 196.75 652.844 196.75C653.516 196.75 654.042 196.49 654.422 195.969C654.807 195.443 655 194.711 655 193.773C655 192.987 654.82 192.372 654.461 191.93C654.107 191.482 653.625 191.258 653.016 191.258C652.37 191.258 651.849 191.487 651.453 191.945C651.062 192.404 650.867 192.977 650.867 193.664ZM664.664 198H662.906V196.75H662.875C662.323 197.708 661.513 198.188 660.445 198.188C659.659 198.188 659.042 197.974 658.594 197.547C658.151 197.12 657.93 196.555 657.93 195.852C657.93 194.341 658.799 193.461 660.539 193.211L662.914 192.875C662.914 191.734 662.372 191.164 661.289 191.164C660.336 191.164 659.477 191.492 658.711 192.148V190.562C659.555 190.062 660.529 189.812 661.633 189.812C663.654 189.812 664.664 190.807 664.664 192.797V198ZM662.914 194.07L661.234 194.305C660.714 194.372 660.32 194.5 660.055 194.688C659.794 194.87 659.664 195.193 659.664 195.656C659.664 195.995 659.784 196.273 660.023 196.492C660.268 196.706 660.594 196.812 661 196.812C661.552 196.812 662.008 196.62 662.367 196.234C662.732 195.844 662.914 195.354 662.914 194.766V194.07ZM672.609 197.633C671.969 198.003 671.211 198.188 670.336 198.188C669.148 198.188 668.19 197.818 667.461 197.078C666.732 196.333 666.367 195.37 666.367 194.188C666.367 192.87 666.758 191.812 667.539 191.016C668.326 190.214 669.375 189.812 670.688 189.812C671.417 189.812 672.06 189.94 672.617 190.195V191.883C672.06 191.466 671.466 191.258 670.836 191.258C670.07 191.258 669.443 191.518 668.953 192.039C668.464 192.555 668.219 193.232 668.219 194.07C668.219 194.898 668.448 195.552 668.906 196.031C669.37 196.51 669.99 196.75 670.766 196.75C671.417 196.75 672.031 196.518 672.609 196.055V197.633ZM681.188 194.492H675.734C675.755 195.232 675.982 195.802 676.414 196.203C676.852 196.604 677.451 196.805 678.211 196.805C679.065 196.805 679.849 196.549 680.562 196.039V197.5C679.833 197.958 678.87 198.188 677.672 198.188C676.495 198.188 675.57 197.826 674.898 197.102C674.232 196.372 673.898 195.349 673.898 194.031C673.898 192.786 674.266 191.773 675 190.992C675.74 190.206 676.656 189.812 677.75 189.812C678.844 189.812 679.69 190.164 680.289 190.867C680.888 191.57 681.188 192.547 681.188 193.797V194.492ZM679.438 193.211C679.432 192.56 679.279 192.055 678.977 191.695C678.674 191.331 678.258 191.148 677.727 191.148C677.206 191.148 676.763 191.339 676.398 191.719C676.039 192.099 675.818 192.596 675.734 193.211H679.438Z" fill="#333333"/>
<path d="M507.5 222L702.5 222" stroke="#E1E1E1" stroke-width="2" stroke-linecap="round"/>
<g clip-path="url(#clip2_349_8604)">
<path d="M510.5 241.5C510.5 239.567 512.067 238 514 238H533C534.933 238 536.5 239.567 536.5 241.5V260.5C536.5 262.433 534.933 264 533 264H514C512.067 264 510.5 262.433 510.5 260.5V241.5Z" fill="url(#paint12_linear_349_8604)"/>
<path d="M510.5 241.5C510.5 239.567 512.067 238 514 238H533C534.933 238 536.5 239.567 536.5 241.5V260.5C536.5 262.433 534.933 264 533 264H514C512.067 264 510.5 262.433 510.5 260.5V241.5Z" fill="url(#paint13_radial_349_8604)" fill-opacity="0.2"/>
<path fill-rule="evenodd" clip-rule="evenodd" d="M533 239H514C512.619 239 511.5 240.119 511.5 241.5V260.5C511.5 261.881 512.619 263 514 263H533C534.381 263 535.5 261.881 535.5 260.5V241.5C535.5 240.119 534.381 239 533 239ZM514 238C512.067 238 510.5 239.567 510.5 241.5V260.5C510.5 262.433 512.067 264 514 264H533C534.933 264 536.5 262.433 536.5 260.5V241.5C536.5 239.567 534.933 238 533 238H514Z" fill="url(#paint14_linear_349_8604)"/>
<path d="M517.25 249.5C518.217 249.5 519 248.717 519 247.75C519 246.784 518.217 246 517.25 246C516.284 246 515.5 246.784 515.5 247.75C515.5 248.717 516.284 249.5 517.25 249.5Z" fill="url(#paint15_linear_349_8604)"/>
<path d="M523.5 249.5C524.467 249.5 525.25 248.717 525.25 247.75C525.25 246.784 524.467 246 523.5 246C522.534 246 521.75 246.784 521.75 247.75C521.75 248.717 522.534 249.5 523.5 249.5Z" fill="url(#paint16_linear_349_8604)"/>
<path d="M519 254.25C519 255.217 518.217 256 517.25 256C516.284 256 515.5 255.217 515.5 254.25C515.5 253.284 516.284 252.5 517.25 252.5C518.217 252.5 519 253.284 519 254.25Z" fill="url(#paint17_linear_349_8604)"/>
<path d="M523.5 256C524.467 256 525.25 255.217 525.25 254.25C525.25 253.284 524.467 252.5 523.5 252.5C522.534 252.5 521.75 253.284 521.75 254.25C521.75 255.217 522.534 256 523.5 256Z" fill="url(#paint18_linear_349_8604)"/>
<path d="M531.5 247.75C531.5 248.717 530.717 249.5 529.75 249.5C528.784 249.5 528 248.717 528 247.75C528 246.784 528.784 246 529.75 246C530.717 246 531.5 246.784 531.5 247.75Z" fill="url(#paint19_linear_349_8604)"/>
</g>
<path d="M556.445 257.547V256C556.622 256.156 556.833 256.297 557.078 256.422C557.328 256.547 557.589 256.654 557.859 256.742C558.135 256.826 558.411 256.891 558.688 256.938C558.964 256.984 559.219 257.008 559.453 257.008C560.26 257.008 560.862 256.859 561.258 256.562C561.659 256.26 561.859 255.828 561.859 255.266C561.859 254.964 561.792 254.701 561.656 254.477C561.526 254.253 561.344 254.049 561.109 253.867C560.875 253.68 560.596 253.503 560.273 253.336C559.956 253.164 559.612 252.984 559.242 252.797C558.852 252.599 558.487 252.398 558.148 252.195C557.81 251.992 557.516 251.768 557.266 251.523C557.016 251.279 556.818 251.003 556.672 250.695C556.531 250.383 556.461 250.018 556.461 249.602C556.461 249.091 556.573 248.648 556.797 248.273C557.021 247.893 557.315 247.581 557.68 247.336C558.044 247.091 558.458 246.909 558.922 246.789C559.391 246.669 559.867 246.609 560.352 246.609C561.456 246.609 562.26 246.742 562.766 247.008V248.484C562.104 248.026 561.255 247.797 560.219 247.797C559.932 247.797 559.646 247.828 559.359 247.891C559.073 247.948 558.818 248.044 558.594 248.18C558.37 248.315 558.188 248.49 558.047 248.703C557.906 248.917 557.836 249.177 557.836 249.484C557.836 249.771 557.888 250.018 557.992 250.227C558.102 250.435 558.26 250.625 558.469 250.797C558.677 250.969 558.93 251.135 559.227 251.297C559.529 251.458 559.875 251.635 560.266 251.828C560.667 252.026 561.047 252.234 561.406 252.453C561.766 252.672 562.081 252.914 562.352 253.18C562.622 253.445 562.836 253.74 562.992 254.062C563.154 254.385 563.234 254.755 563.234 255.172C563.234 255.724 563.125 256.193 562.906 256.578C562.693 256.958 562.401 257.268 562.031 257.508C561.667 257.747 561.245 257.919 560.766 258.023C560.286 258.133 559.781 258.188 559.25 258.188C559.073 258.188 558.854 258.172 558.594 258.141C558.333 258.115 558.068 258.073 557.797 258.016C557.526 257.964 557.268 257.898 557.023 257.82C556.784 257.737 556.591 257.646 556.445 257.547ZM571.727 254.32H566.078C566.099 255.211 566.339 255.898 566.797 256.383C567.255 256.867 567.885 257.109 568.688 257.109C569.589 257.109 570.417 256.812 571.172 256.219V257.422C570.469 257.932 569.539 258.188 568.383 258.188C567.253 258.188 566.365 257.826 565.719 257.102C565.073 256.372 564.75 255.349 564.75 254.031C564.75 252.786 565.102 251.773 565.805 250.992C566.513 250.206 567.391 249.812 568.438 249.812C569.484 249.812 570.294 250.151 570.867 250.828C571.44 251.505 571.727 252.445 571.727 253.648V254.32ZM570.414 253.234C570.409 252.495 570.229 251.919 569.875 251.508C569.526 251.096 569.039 250.891 568.414 250.891C567.81 250.891 567.297 251.107 566.875 251.539C566.453 251.971 566.193 252.536 566.094 253.234H570.414ZM585.031 258H583.75V253.406C583.75 252.521 583.612 251.88 583.336 251.484C583.065 251.089 582.607 250.891 581.961 250.891C581.414 250.891 580.948 251.141 580.562 251.641C580.182 252.141 579.992 252.74 579.992 253.438V258H578.711V253.25C578.711 251.677 578.104 250.891 576.891 250.891C576.328 250.891 575.865 251.128 575.5 251.602C575.135 252.07 574.953 252.682 574.953 253.438V258H573.672V250H574.953V251.266H574.984C575.552 250.297 576.38 249.812 577.469 249.812C578.016 249.812 578.492 249.966 578.898 250.273C579.305 250.576 579.583 250.974 579.734 251.469C580.328 250.365 581.214 249.812 582.391 249.812C584.151 249.812 585.031 250.898 585.031 253.07V258ZM593.18 258H591.898V256.75H591.867C591.31 257.708 590.49 258.188 589.406 258.188C588.609 258.188 587.984 257.977 587.531 257.555C587.083 257.133 586.859 256.573 586.859 255.875C586.859 254.38 587.74 253.51 589.5 253.266L591.898 252.93C591.898 251.57 591.349 250.891 590.25 250.891C589.286 250.891 588.417 251.219 587.641 251.875V250.562C588.427 250.062 589.333 249.812 590.359 249.812C592.24 249.812 593.18 250.807 593.18 252.797V258ZM591.898 253.953L589.969 254.219C589.375 254.302 588.927 254.451 588.625 254.664C588.323 254.872 588.172 255.245 588.172 255.781C588.172 256.172 588.31 256.492 588.586 256.742C588.867 256.987 589.24 257.109 589.703 257.109C590.339 257.109 590.862 256.888 591.273 256.445C591.69 255.997 591.898 255.432 591.898 254.75V253.953ZM602.234 258H600.953V253.438C600.953 251.74 600.333 250.891 599.094 250.891C598.453 250.891 597.922 251.133 597.5 251.617C597.083 252.096 596.875 252.703 596.875 253.438V258H595.594V250H596.875V251.328H596.906C597.51 250.318 598.385 249.812 599.531 249.812C600.406 249.812 601.076 250.096 601.539 250.664C602.003 251.227 602.234 252.042 602.234 253.109V258ZM608.367 257.922C608.065 258.089 607.667 258.172 607.172 258.172C605.771 258.172 605.07 257.391 605.07 255.828V251.094H603.695V250H605.07V248.047L606.352 247.633V250H608.367V251.094H606.352V255.602C606.352 256.138 606.443 256.521 606.625 256.75C606.807 256.979 607.109 257.094 607.531 257.094C607.854 257.094 608.133 257.005 608.367 256.828V257.922ZM610.734 247.969C610.505 247.969 610.31 247.891 610.148 247.734C609.987 247.578 609.906 247.38 609.906 247.141C609.906 246.901 609.987 246.703 610.148 246.547C610.31 246.385 610.505 246.305 610.734 246.305C610.969 246.305 611.167 246.385 611.328 246.547C611.495 246.703 611.578 246.901 611.578 247.141C611.578 247.37 611.495 247.565 611.328 247.727C611.167 247.888 610.969 247.969 610.734 247.969ZM611.359 258H610.078V250H611.359V258ZM619.406 257.633C618.792 258.003 618.062 258.188 617.219 258.188C616.078 258.188 615.156 257.818 614.453 257.078C613.755 256.333 613.406 255.37 613.406 254.188C613.406 252.87 613.784 251.812 614.539 251.016C615.294 250.214 616.302 249.812 617.562 249.812C618.266 249.812 618.885 249.943 619.422 250.203V251.516C618.828 251.099 618.193 250.891 617.516 250.891C616.698 250.891 616.026 251.185 615.5 251.773C614.979 252.357 614.719 253.125 614.719 254.078C614.719 255.016 614.964 255.755 615.453 256.297C615.948 256.839 616.609 257.109 617.438 257.109C618.135 257.109 618.792 256.878 619.406 256.414V257.633ZM637.094 258H635.812V253.406C635.812 252.521 635.674 251.88 635.398 251.484C635.128 251.089 634.669 250.891 634.023 250.891C633.477 250.891 633.01 251.141 632.625 251.641C632.245 252.141 632.055 252.74 632.055 253.438V258H630.773V253.25C630.773 251.677 630.167 250.891 628.953 250.891C628.391 250.891 627.927 251.128 627.562 251.602C627.198 252.07 627.016 252.682 627.016 253.438V258H625.734V250H627.016V251.266H627.047C627.615 250.297 628.443 249.812 629.531 249.812C630.078 249.812 630.555 249.966 630.961 250.273C631.367 250.576 631.646 250.974 631.797 251.469C632.391 250.365 633.276 249.812 634.453 249.812C636.214 249.812 637.094 250.898 637.094 253.07V258ZM642.859 258.188C641.677 258.188 640.732 257.815 640.023 257.07C639.32 256.32 638.969 255.328 638.969 254.094C638.969 252.75 639.336 251.701 640.07 250.945C640.805 250.19 641.797 249.812 643.047 249.812C644.24 249.812 645.169 250.18 645.836 250.914C646.508 251.648 646.844 252.667 646.844 253.969C646.844 255.245 646.482 256.268 645.758 257.039C645.039 257.805 644.073 258.188 642.859 258.188ZM642.953 250.891C642.13 250.891 641.479 251.172 641 251.734C640.521 252.292 640.281 253.062 640.281 254.047C640.281 254.995 640.523 255.742 641.008 256.289C641.492 256.836 642.141 257.109 642.953 257.109C643.781 257.109 644.417 256.841 644.859 256.305C645.307 255.768 645.531 255.005 645.531 254.016C645.531 253.016 645.307 252.245 644.859 251.703C644.417 251.161 643.781 250.891 642.953 250.891ZM655.719 258H654.438V256.641H654.406C653.812 257.672 652.896 258.188 651.656 258.188C650.651 258.188 649.846 257.831 649.242 257.117C648.643 256.398 648.344 255.422 648.344 254.188C648.344 252.865 648.677 251.805 649.344 251.008C650.01 250.211 650.898 249.812 652.008 249.812C653.107 249.812 653.906 250.245 654.406 251.109H654.438V246.156H655.719V258ZM654.438 254.383V253.203C654.438 252.557 654.224 252.01 653.797 251.562C653.37 251.115 652.828 250.891 652.172 250.891C651.391 250.891 650.776 251.177 650.328 251.75C649.88 252.323 649.656 253.115 649.656 254.125C649.656 255.047 649.87 255.776 650.297 256.312C650.729 256.844 651.307 257.109 652.031 257.109C652.745 257.109 653.323 256.852 653.766 256.336C654.214 255.82 654.438 255.169 654.438 254.383ZM664.742 254.32H659.094C659.115 255.211 659.354 255.898 659.812 256.383C660.271 256.867 660.901 257.109 661.703 257.109C662.604 257.109 663.432 256.812 664.188 256.219V257.422C663.484 257.932 662.555 258.188 661.398 258.188C660.268 258.188 659.38 257.826 658.734 257.102C658.089 256.372 657.766 255.349 657.766 254.031C657.766 252.786 658.117 251.773 658.82 250.992C659.529 250.206 660.406 249.812 661.453 249.812C662.5 249.812 663.31 250.151 663.883 250.828C664.456 251.505 664.742 252.445 664.742 253.648V254.32ZM663.43 253.234C663.424 252.495 663.245 251.919 662.891 251.508C662.542 251.096 662.055 250.891 661.43 250.891C660.826 250.891 660.312 251.107 659.891 251.539C659.469 251.971 659.208 252.536 659.109 253.234H663.43ZM667.969 258H666.688V246.156H667.969V258ZM670.078 257.711V256.336C670.776 256.852 671.544 257.109 672.383 257.109C673.508 257.109 674.07 256.734 674.07 255.984C674.07 255.771 674.021 255.591 673.922 255.445C673.828 255.294 673.698 255.161 673.531 255.047C673.37 254.932 673.177 254.831 672.953 254.742C672.734 254.648 672.497 254.552 672.242 254.453C671.888 254.312 671.576 254.172 671.305 254.031C671.039 253.885 670.815 253.724 670.633 253.547C670.456 253.365 670.32 253.159 670.227 252.93C670.138 252.701 670.094 252.432 670.094 252.125C670.094 251.75 670.18 251.419 670.352 251.133C670.523 250.841 670.753 250.599 671.039 250.406C671.326 250.208 671.651 250.06 672.016 249.961C672.385 249.862 672.766 249.812 673.156 249.812C673.849 249.812 674.469 249.932 675.016 250.172V251.469C674.427 251.083 673.75 250.891 672.984 250.891C672.745 250.891 672.529 250.919 672.336 250.977C672.143 251.029 671.977 251.104 671.836 251.203C671.701 251.302 671.594 251.422 671.516 251.562C671.443 251.698 671.406 251.849 671.406 252.016C671.406 252.224 671.443 252.398 671.516 252.539C671.594 252.68 671.706 252.805 671.852 252.914C671.997 253.023 672.174 253.122 672.383 253.211C672.591 253.299 672.828 253.396 673.094 253.5C673.448 253.635 673.766 253.776 674.047 253.922C674.328 254.062 674.568 254.224 674.766 254.406C674.964 254.583 675.115 254.789 675.219 255.023C675.328 255.258 675.383 255.536 675.383 255.859C675.383 256.255 675.294 256.599 675.117 256.891C674.945 257.182 674.714 257.424 674.422 257.617C674.13 257.81 673.794 257.953 673.414 258.047C673.034 258.141 672.635 258.188 672.219 258.188C671.396 258.188 670.682 258.029 670.078 257.711Z" fill="#333333"/>
<path d="M475.561 194.061C476.146 193.475 476.146 192.525 475.561 191.939L466.015 182.393C465.429 181.808 464.479 181.808 463.893 182.393C463.308 182.979 463.308 183.929 463.893 184.515L472.379 193L463.893 201.485C463.308 202.071 463.308 203.021 463.893 203.607C464.479 204.192 465.429 204.192 466.015 203.607L475.561 194.061ZM422.5 191.5C421.672 191.5 421 192.172 421 193C421 193.828 421.672 194.5 422.5 194.5V191.5ZM474.5 191.5H422.5V194.5H474.5V191.5Z" fill="#616161"/>
<defs>
<filter id="filter0_d_349_8604" x="45" y="45" width="825" height="71" filterUnits="userSpaceOnUse" color-interpolation-filters="sRGB">
<feFlood flood-opacity="0" result="BackgroundImageFix"/>
<feColorMatrix in="SourceAlpha" type="matrix" values="0 0 0 0 0 0 0 0 0 0 0 0 0 0 0 0 0 0 127 0" result="hardAlpha"/>
<feOffset/>
<feGaussianBlur stdDeviation="2.5"/>
<feComposite in2="hardAlpha" operator="out"/>
<feColorMatrix type="matrix" values="0 0 0 0 0 0 0 0 0 0 0 0 0 0 0 0 0 0 0.25 0"/>
<feBlend mode="normal" in2="BackgroundImageFix" result="effect1_dropShadow_349_8604"/>
<feBlend mode="normal" in="SourceGraphic" in2="effect1_dropShadow_349_8604" result="shape"/>
</filter>
<filter id="filter1_i_349_8604" x="212.5" y="174" width="35" height="39" filterUnits="userSpaceOnUse" color-interpolation-filters="sRGB">
<feFlood flood-opacity="0" result="BackgroundImageFix"/>
<feBlend mode="normal" in="SourceGraphic" in2="BackgroundImageFix" result="shape"/>
<feColorMatrix in="SourceAlpha" type="matrix" values="0 0 0 0 0 0 0 0 0 0 0 0 0 0 0 0 0 0 127 0" result="hardAlpha"/>
<feOffset dy="4"/>
<feGaussianBlur stdDeviation="2"/>
<feComposite in2="hardAlpha" operator="arithmetic" k2="-1" k3="1"/>
<feColorMatrix type="matrix" values="0 0 0 0 0 0 0 0 0 0 0 0 0 0 0 0 0 0 0.25 0"/>
<feBlend mode="normal" in2="shape" result="effect1_innerShadow_349_8604"/>
</filter>
<radialGradient id="paint0_radial_349_8604" cx="0" cy="0" r="1" gradientUnits="userSpaceOnUse" gradientTransform="translate(137.47 41.0611) rotate(18.5243) scale(926.288 440.423)">
<stop offset="0.198869" stop-color="#8EE3E8"/>
<stop offset="1" stop-color="#19177E"/>
</radialGradient>
<linearGradient id="paint1_linear_349_8604" x1="207.25" y1="68.25" x2="235.199" y2="97.9454" gradientUnits="userSpaceOnUse">
<stop stop-color="#209782"/>
<stop offset="1" stop-color="#0C695A"/>
</linearGradient>
<linearGradient id="paint2_linear_349_8604" x1="218.059" y1="176.281" x2="246.421" y2="199.739" gradientUnits="userSpaceOnUse">
<stop stop-color="#22685C"/>
<stop offset="1" stop-color="#083831"/>
</linearGradient>
<linearGradient id="paint3_linear_349_8604" x1="219.391" y1="195.896" x2="228.855" y2="213.581" gradientUnits="userSpaceOnUse">
<stop stop-color="#22685C"/>
<stop offset="1" stop-color="#083831"/>
</linearGradient>
<linearGradient id="paint4_linear_349_8604" x1="224.5" y1="198" x2="232.111" y2="208.465" gradientUnits="userSpaceOnUse">
<stop stop-color="#22685C"/>
<stop offset="1" stop-color="#083831"/>
</linearGradient>
<linearGradient id="paint5_linear_349_8604" x1="222.722" y1="238" x2="226.011" y2="264.311" gradientUnits="userSpaceOnUse">
<stop stop-color="white"/>
<stop offset="1" stop-color="#EBEBEB"/>
</linearGradient>
<radialGradient id="paint6_radial_349_8604" cx="0" cy="0" r="1" gradientUnits="userSpaceOnUse" gradientTransform="translate(223.806 244.771) rotate(56.3099) scale(24.7381 21.408)">
<stop offset="0.177083" stop-color="white"/>
<stop offset="1" stop-color="#B8B8B8"/>
</radialGradient>
<linearGradient id="paint7_linear_349_8604" x1="223.896" y1="238" x2="227.397" y2="264.256" gradientUnits="userSpaceOnUse">
<stop stop-color="#BBBBBB"/>
<stop offset="1" stop-color="#888888"/>
</linearGradient>
<linearGradient id="paint8_linear_349_8604" x1="222.722" y1="283" x2="226.011" y2="309.311" gradientUnits="userSpaceOnUse">
<stop stop-color="white"/>
<stop offset="1" stop-color="#EBEBEB"/>
</linearGradient>
<radialGradient id="paint9_radial_349_8604" cx="0" cy="0" r="1" gradientUnits="userSpaceOnUse" gradientTransform="translate(223.806 289.771) rotate(56.3099) scale(24.7381 21.408)">
<stop offset="0.177083" stop-color="white"/>
<stop offset="1" stop-color="#B8B8B8"/>
</radialGradient>
<linearGradient id="paint10_linear_349_8604" x1="223.896" y1="283" x2="227.397" y2="309.256" gradientUnits="userSpaceOnUse">
<stop stop-color="#BBBBBB"/>
<stop offset="1" stop-color="#888888"/>
</linearGradient>
<linearGradient id="paint11_linear_349_8604" x1="509.25" y1="175.75" x2="540.75" y2="207.25" gradientUnits="userSpaceOnUse">
<stop stop-color="#209782"/>
<stop offset="1" stop-color="#0C695A"/>
</linearGradient>
<linearGradient id="paint12_linear_349_8604" x1="517.722" y1="238" x2="521.011" y2="264.311" gradientUnits="userSpaceOnUse">
<stop stop-color="white"/>
<stop offset="1" stop-color="#EBEBEB"/>
</linearGradient>
<radialGradient id="paint13_radial_349_8604" cx="0" cy="0" r="1" gradientUnits="userSpaceOnUse" gradientTransform="translate(518.806 244.771) rotate(56.3099) scale(24.7381 21.408)">
<stop offset="0.177083" stop-color="white"/>
<stop offset="1" stop-color="#B8B8B8"/>
</radialGradient>
<linearGradient id="paint14_linear_349_8604" x1="518.896" y1="238" x2="522.397" y2="264.256" gradientUnits="userSpaceOnUse">
<stop stop-color="#BBBBBB"/>
<stop offset="1" stop-color="#888888"/>
</linearGradient>
<linearGradient id="paint15_linear_349_8604" x1="515.5" y1="246" x2="524.489" y2="260.382" gradientUnits="userSpaceOnUse">
<stop stop-color="#7751B8"/>
<stop offset="1" stop-color="#5A409C"/>
</linearGradient>
<linearGradient id="paint16_linear_349_8604" x1="515.5" y1="246" x2="524.489" y2="260.382" gradientUnits="userSpaceOnUse">
<stop stop-color="#7751B8"/>
<stop offset="1" stop-color="#5A409C"/>
</linearGradient>
<linearGradient id="paint17_linear_349_8604" x1="515.5" y1="246" x2="524.489" y2="260.382" gradientUnits="userSpaceOnUse">
<stop stop-color="#7751B8"/>
<stop offset="1" stop-color="#5A409C"/>
</linearGradient>
<linearGradient id="paint18_linear_349_8604" x1="515.5" y1="246" x2="524.489" y2="260.382" gradientUnits="userSpaceOnUse">
<stop stop-color="#7751B8"/>
<stop offset="1" stop-color="#5A409C"/>
</linearGradient>
<linearGradient id="paint19_linear_349_8604" x1="515.5" y1="246" x2="524.489" y2="260.382" gradientUnits="userSpaceOnUse">
<stop stop-color="#7751B8"/>
<stop offset="1" stop-color="#5A409C"/>
</linearGradient>
<clipPath id="clip0_349_8604">
<rect width="32" height="32" fill="white" transform="translate(212.5 235)"/>
</clipPath>
<clipPath id="clip1_349_8604">
<rect width="32" height="32" fill="white" transform="translate(212.5 280)"/>
</clipPath>
<clipPath id="clip2_349_8604">
<rect width="32" height="32" fill="white" transform="translate(507.5 235)"/>
</clipPath>
</defs>
</svg>
