<svg width="884" height="419" viewBox="0 0 884 419" fill="none" xmlns="http://www.w3.org/2000/svg">
<rect width="884" height="419" fill="white"/>
<rect width="884" height="419" fill="url(#paint0_radial_34_14027)" fill-opacity="0.075"/>
<rect x="0.5" y="0.5" width="883" height="418" stroke="#333333" stroke-opacity="0.2"/>
<g filter="url(#filter0_f_34_14027)">
<rect x="325" y="50" width="234" height="319" rx="16" fill="#CCCCCC" fill-opacity="0.8"/>
</g>
<rect x="325" y="50" width="234" height="319" rx="16" fill="white"/>
<rect x="325" y="50" width="234" height="319" rx="16" fill="url(#paint1_linear_34_14027)" fill-opacity="0.33"/>
<rect x="335.5" y="173.5" width="213" height="45" rx="15.5" fill="#EFF5F4"/>
<rect x="335.5" y="173.5" width="213" height="45" rx="15.5" stroke="url(#paint2_linear_34_14027)"/>
<rect x="335.5" y="173.5" width="213" height="45" rx="15.5" fill="#EFF5F4"/>
<rect x="335.5" y="173.5" width="213" height="45" rx="15.5" stroke="url(#paint3_linear_34_14027)"/>
<rect x="335.5" y="173.5" width="213" height="45" rx="9.5" fill="#EFF5F4" stroke="url(#paint4_linear_34_14027)" stroke-dasharray="2 2"/>
<path d="M397.57 77.375H394.352V87H392.492V77.375H389.281V75.7969H397.57V77.375ZM403.602 87H401.844V85.75H401.812C401.26 86.7083 400.451 87.1875 399.383 87.1875C398.596 87.1875 397.979 86.974 397.531 86.5469C397.089 86.1198 396.867 85.5547 396.867 84.8516C396.867 83.3411 397.737 82.4609 399.477 82.2109L401.852 81.875C401.852 80.7344 401.31 80.1641 400.227 80.1641C399.273 80.1641 398.414 80.4922 397.648 81.1484V79.5625C398.492 79.0625 399.466 78.8125 400.57 78.8125C402.591 78.8125 403.602 79.8073 403.602 81.7969V87ZM401.852 83.0703L400.172 83.3047C399.651 83.3724 399.258 83.5 398.992 83.6875C398.732 83.8698 398.602 84.1927 398.602 84.6562C398.602 84.9948 398.721 85.2734 398.961 85.4922C399.206 85.7057 399.531 85.8125 399.938 85.8125C400.49 85.8125 400.945 85.6198 401.305 85.2344C401.669 84.8438 401.852 84.3542 401.852 83.7656V83.0703ZM411.547 86.6328C410.906 87.0026 410.148 87.1875 409.273 87.1875C408.086 87.1875 407.128 86.8177 406.398 86.0781C405.669 85.3333 405.305 84.3698 405.305 83.1875C405.305 81.8698 405.695 80.8125 406.477 80.0156C407.263 79.2135 408.312 78.8125 409.625 78.8125C410.354 78.8125 410.997 78.9401 411.555 79.1953V80.8828C410.997 80.4661 410.404 80.2578 409.773 80.2578C409.008 80.2578 408.38 80.5182 407.891 81.0391C407.401 81.5547 407.156 82.2318 407.156 83.0703C407.156 83.8984 407.385 84.5521 407.844 85.0312C408.307 85.5104 408.927 85.75 409.703 85.75C410.354 85.75 410.969 85.5182 411.547 85.0547V86.6328ZM417.57 86.9141C417.216 87.0911 416.75 87.1797 416.172 87.1797C414.62 87.1797 413.844 86.4349 413.844 84.9453V80.4219H412.508V79H413.844V77.1484L415.656 76.6328V79H417.57V80.4219H415.656V84.4219C415.656 84.8958 415.742 85.2344 415.914 85.4375C416.086 85.6406 416.372 85.7422 416.773 85.7422C417.081 85.7422 417.346 85.6536 417.57 85.4766V86.9141ZM420.047 77.3203C419.75 77.3203 419.495 77.224 419.281 77.0312C419.073 76.8385 418.969 76.5938 418.969 76.2969C418.969 76 419.073 75.7526 419.281 75.5547C419.495 75.3568 419.75 75.2578 420.047 75.2578C420.354 75.2578 420.615 75.3568 420.828 75.5547C421.042 75.7526 421.148 76 421.148 76.2969C421.148 76.5781 421.042 76.8203 420.828 77.0234C420.615 77.2214 420.354 77.3203 420.047 77.3203ZM420.945 87H419.133V79H420.945V87ZM429.047 86.6328C428.406 87.0026 427.648 87.1875 426.773 87.1875C425.586 87.1875 424.628 86.8177 423.898 86.0781C423.169 85.3333 422.805 84.3698 422.805 83.1875C422.805 81.8698 423.195 80.8125 423.977 80.0156C424.763 79.2135 425.812 78.8125 427.125 78.8125C427.854 78.8125 428.497 78.9401 429.055 79.1953V80.8828C428.497 80.4661 427.904 80.2578 427.273 80.2578C426.508 80.2578 425.88 80.5182 425.391 81.0391C424.901 81.5547 424.656 82.2318 424.656 83.0703C424.656 83.8984 424.885 84.5521 425.344 85.0312C425.807 85.5104 426.427 85.75 427.203 85.75C427.854 85.75 428.469 85.5182 429.047 85.0547V86.6328ZM436.992 87H435.234V85.75H435.203C434.651 86.7083 433.841 87.1875 432.773 87.1875C431.987 87.1875 431.37 86.974 430.922 86.5469C430.479 86.1198 430.258 85.5547 430.258 84.8516C430.258 83.3411 431.128 82.4609 432.867 82.2109L435.242 81.875C435.242 80.7344 434.701 80.1641 433.617 80.1641C432.664 80.1641 431.805 80.4922 431.039 81.1484V79.5625C431.883 79.0625 432.857 78.8125 433.961 78.8125C435.982 78.8125 436.992 79.8073 436.992 81.7969V87ZM435.242 83.0703L433.562 83.3047C433.042 83.3724 432.648 83.5 432.383 83.6875C432.122 83.8698 431.992 84.1927 431.992 84.6562C431.992 84.9948 432.112 85.2734 432.352 85.4922C432.596 85.7057 432.922 85.8125 433.328 85.8125C433.88 85.8125 434.336 85.6198 434.695 85.2344C435.06 84.8438 435.242 84.3542 435.242 83.7656V83.0703ZM441.031 87H439.211V75.1562H441.031V87ZM449.648 85.8203H449.617V90.6797H447.805V79H449.617V80.4062H449.648C450.268 79.3438 451.174 78.8125 452.367 78.8125C453.383 78.8125 454.174 79.1693 454.742 79.8828C455.31 80.5964 455.594 81.5547 455.594 82.7578C455.594 84.0911 455.273 85.1589 454.633 85.9609C453.992 86.763 453.117 87.1641 452.008 87.1641C450.987 87.1641 450.201 86.7161 449.648 85.8203ZM449.602 82.6641V83.6562C449.602 84.2396 449.786 84.7344 450.156 85.1406C450.531 85.5469 451.005 85.75 451.578 85.75C452.25 85.75 452.776 85.4896 453.156 84.9688C453.542 84.4427 453.734 83.7109 453.734 82.7734C453.734 81.987 453.555 81.3724 453.195 80.9297C452.841 80.4818 452.359 80.2578 451.75 80.2578C451.104 80.2578 450.583 80.487 450.188 80.9453C449.797 81.4036 449.602 81.9766 449.602 82.6641ZM459.266 87H457.445V75.1562H459.266V87ZM467.773 87H466.016V85.75H465.984C465.432 86.7083 464.622 87.1875 463.555 87.1875C462.768 87.1875 462.151 86.974 461.703 86.5469C461.26 86.1198 461.039 85.5547 461.039 84.8516C461.039 83.3411 461.909 82.4609 463.648 82.2109L466.023 81.875C466.023 80.7344 465.482 80.1641 464.398 80.1641C463.445 80.1641 462.586 80.4922 461.82 81.1484V79.5625C462.664 79.0625 463.638 78.8125 464.742 78.8125C466.763 78.8125 467.773 79.8073 467.773 81.7969V87ZM466.023 83.0703L464.344 83.3047C463.823 83.3724 463.43 83.5 463.164 83.6875C462.904 83.8698 462.773 84.1927 462.773 84.6562C462.773 84.9948 462.893 85.2734 463.133 85.4922C463.378 85.7057 463.703 85.8125 464.109 85.8125C464.661 85.8125 465.117 85.6198 465.477 85.2344C465.841 84.8438 466.023 84.3542 466.023 83.7656V83.0703ZM477.117 87H475.305V82.4922C475.305 80.9974 474.776 80.25 473.719 80.25C473.167 80.25 472.711 80.4583 472.352 80.875C471.992 81.2865 471.812 81.8073 471.812 82.4375V87H469.992V79H471.812V80.3281H471.844C472.443 79.3177 473.307 78.8125 474.438 78.8125C475.307 78.8125 475.971 79.0964 476.43 79.6641C476.888 80.2266 477.117 81.0417 477.117 82.1094V87ZM486.461 87H484.648V82.4922C484.648 80.9974 484.12 80.25 483.062 80.25C482.51 80.25 482.055 80.4583 481.695 80.875C481.336 81.2865 481.156 81.8073 481.156 82.4375V87H479.336V79H481.156V80.3281H481.188C481.786 79.3177 482.651 78.8125 483.781 78.8125C484.651 78.8125 485.315 79.0964 485.773 79.6641C486.232 80.2266 486.461 81.0417 486.461 82.1094V87ZM489.594 77.3203C489.297 77.3203 489.042 77.224 488.828 77.0312C488.62 76.8385 488.516 76.5938 488.516 76.2969C488.516 76 488.62 75.7526 488.828 75.5547C489.042 75.3568 489.297 75.2578 489.594 75.2578C489.901 75.2578 490.161 75.3568 490.375 75.5547C490.589 75.7526 490.695 76 490.695 76.2969C490.695 76.5781 490.589 76.8203 490.375 77.0234C490.161 77.2214 489.901 77.3203 489.594 77.3203ZM490.492 87H488.68V79H490.492V87ZM499.992 87H498.18V82.4922C498.18 80.9974 497.651 80.25 496.594 80.25C496.042 80.25 495.586 80.4583 495.227 80.875C494.867 81.2865 494.688 81.8073 494.688 82.4375V87H492.867V79H494.688V80.3281H494.719C495.318 79.3177 496.182 78.8125 497.312 78.8125C498.182 78.8125 498.846 79.0964 499.305 79.6641C499.763 80.2266 499.992 81.0417 499.992 82.1094V87ZM509.492 86.3594C509.492 89.2969 508.016 90.7656 505.062 90.7656C504.021 90.7656 503.112 90.5911 502.336 90.2422V88.5859C503.211 89.0859 504.042 89.3359 504.828 89.3359C506.729 89.3359 507.68 88.401 507.68 86.5312V85.6562H507.648C507.049 86.6771 506.148 87.1875 504.945 87.1875C503.971 87.1875 503.185 86.8333 502.586 86.125C501.992 85.4115 501.695 84.4557 501.695 83.2578C501.695 81.8984 502.016 80.8177 502.656 80.0156C503.297 79.2135 504.177 78.8125 505.297 78.8125C506.354 78.8125 507.138 79.2448 507.648 80.1094H507.68V79H509.492V86.3594ZM507.695 83.3359V82.2969C507.695 81.7344 507.508 81.2552 507.133 80.8594C506.763 80.4583 506.299 80.2578 505.742 80.2578C505.055 80.2578 504.516 80.513 504.125 81.0234C503.74 81.5286 503.547 82.237 503.547 83.1484C503.547 83.9349 503.732 84.5651 504.102 85.0391C504.477 85.5078 504.971 85.7422 505.586 85.7422C506.211 85.7422 506.719 85.5182 507.109 85.0703C507.5 84.6172 507.695 84.0391 507.695 83.3359Z" fill="url(#paint5_linear_34_14027)"/>
<path d="M331 111L553 111" stroke="#104C42" stroke-opacity="0.66" stroke-width="2" stroke-linecap="round"/>
<path d="M391.434 157H390.285V147.197H391.434V157ZM399.842 157H398.721V155.811H398.693C398.174 156.713 397.372 157.164 396.287 157.164C395.408 157.164 394.703 156.852 394.175 156.228C393.651 155.599 393.389 154.744 393.389 153.664C393.389 152.507 393.68 151.579 394.264 150.882C394.847 150.185 395.624 149.836 396.595 149.836C397.556 149.836 398.256 150.214 398.693 150.971H398.721V146.637H399.842V157ZM398.721 153.835V152.803C398.721 152.238 398.534 151.759 398.16 151.367C397.786 150.975 397.312 150.779 396.738 150.779C396.055 150.779 395.517 151.03 395.125 151.531C394.733 152.033 394.537 152.725 394.537 153.609C394.537 154.416 394.724 155.054 395.098 155.523C395.476 155.988 395.982 156.221 396.615 156.221C397.24 156.221 397.745 155.995 398.133 155.544C398.525 155.093 398.721 154.523 398.721 153.835ZM407.737 153.78H402.795C402.813 154.56 403.023 155.161 403.424 155.585C403.825 156.009 404.376 156.221 405.078 156.221C405.867 156.221 406.591 155.961 407.252 155.441V156.494C406.637 156.941 405.823 157.164 404.812 157.164C403.823 157.164 403.046 156.847 402.48 156.214C401.915 155.576 401.633 154.68 401.633 153.527C401.633 152.438 401.94 151.552 402.556 150.868C403.175 150.18 403.943 149.836 404.859 149.836C405.775 149.836 406.484 150.132 406.985 150.725C407.487 151.317 407.737 152.14 407.737 153.192V153.78ZM406.589 152.83C406.584 152.183 406.427 151.679 406.117 151.319C405.812 150.959 405.386 150.779 404.839 150.779C404.31 150.779 403.861 150.968 403.492 151.347C403.123 151.725 402.895 152.219 402.809 152.83H406.589ZM415.25 157H414.129V153.008C414.129 151.522 413.587 150.779 412.502 150.779C411.941 150.779 411.477 150.991 411.107 151.415C410.743 151.834 410.561 152.365 410.561 153.008V157H409.439V150H410.561V151.162H410.588C411.117 150.278 411.882 149.836 412.885 149.836C413.65 149.836 414.236 150.084 414.642 150.581C415.047 151.073 415.25 151.786 415.25 152.721V157ZM420.616 156.932C420.352 157.077 420.003 157.15 419.57 157.15C418.344 157.15 417.731 156.467 417.731 155.1V150.957H416.528V150H417.731V148.291L418.853 147.929V150H420.616V150.957H418.853V154.901C418.853 155.371 418.932 155.706 419.092 155.906C419.251 156.107 419.516 156.207 419.885 156.207C420.167 156.207 420.411 156.13 420.616 155.975V156.932ZM422.688 148.223C422.487 148.223 422.316 148.154 422.175 148.018C422.034 147.881 421.963 147.708 421.963 147.498C421.963 147.288 422.034 147.115 422.175 146.979C422.316 146.837 422.487 146.767 422.688 146.767C422.893 146.767 423.066 146.837 423.207 146.979C423.353 147.115 423.426 147.288 423.426 147.498C423.426 147.699 423.353 147.869 423.207 148.011C423.066 148.152 422.893 148.223 422.688 148.223ZM423.234 157H422.113V150H423.234V157ZM428.963 147.621C428.744 147.498 428.496 147.437 428.218 147.437C427.434 147.437 427.042 147.931 427.042 148.92V150H428.683V150.957H427.042V157H425.928V150.957H424.731V150H425.928V148.865C425.928 148.132 426.14 147.553 426.563 147.129C426.987 146.701 427.516 146.486 428.149 146.486C428.491 146.486 428.762 146.527 428.963 146.609V147.621ZM435.464 150L432.244 158.121C431.67 159.57 430.863 160.295 429.824 160.295C429.533 160.295 429.289 160.265 429.093 160.206V159.201C429.334 159.283 429.555 159.324 429.756 159.324C430.321 159.324 430.745 158.987 431.027 158.312L431.588 156.986L428.854 150H430.098L431.991 155.387C432.014 155.455 432.062 155.633 432.135 155.92H432.176C432.199 155.811 432.244 155.637 432.312 155.4L434.302 150H435.464ZM443.441 157.164C442.407 157.164 441.58 156.838 440.96 156.187C440.345 155.53 440.037 154.662 440.037 153.582C440.037 152.406 440.358 151.488 441.001 150.827C441.644 150.166 442.512 149.836 443.605 149.836C444.649 149.836 445.463 150.157 446.046 150.8C446.634 151.442 446.928 152.333 446.928 153.473C446.928 154.589 446.611 155.485 445.978 156.159C445.349 156.829 444.503 157.164 443.441 157.164ZM443.523 150.779C442.803 150.779 442.234 151.025 441.814 151.518C441.395 152.005 441.186 152.68 441.186 153.541C441.186 154.37 441.397 155.024 441.821 155.503C442.245 155.981 442.812 156.221 443.523 156.221C444.248 156.221 444.804 155.986 445.191 155.517C445.583 155.047 445.779 154.38 445.779 153.514C445.779 152.639 445.583 151.964 445.191 151.49C444.804 151.016 444.248 150.779 443.523 150.779ZM449.867 155.988H449.84V157H448.719V146.637H449.84V151.23H449.867C450.419 150.301 451.225 149.836 452.287 149.836C453.185 149.836 453.887 150.15 454.393 150.779C454.903 151.404 455.158 152.242 455.158 153.295C455.158 154.466 454.873 155.405 454.304 156.111C453.734 156.813 452.955 157.164 451.966 157.164C451.041 157.164 450.341 156.772 449.867 155.988ZM449.84 153.165V154.143C449.84 154.721 450.027 155.214 450.4 155.619C450.779 156.02 451.257 156.221 451.836 156.221C452.515 156.221 453.046 155.961 453.429 155.441C453.816 154.922 454.01 154.2 454.01 153.274C454.01 152.495 453.83 151.884 453.47 151.442C453.11 151 452.622 150.779 452.007 150.779C451.355 150.779 450.831 151.007 450.435 151.463C450.038 151.914 449.84 152.481 449.84 153.165ZM458.07 156.706C458.07 157.854 457.838 158.739 457.373 159.358C456.913 159.983 456.252 160.295 455.391 160.295C455.072 160.295 454.762 160.222 454.461 160.076V159.03C454.798 159.235 455.117 159.338 455.418 159.338C456.439 159.338 456.949 158.522 456.949 156.891V150H458.07V156.706ZM457.523 148.223C457.323 148.223 457.152 148.154 457.011 148.018C456.869 147.881 456.799 147.708 456.799 147.498C456.799 147.288 456.869 147.115 457.011 146.979C457.152 146.837 457.323 146.767 457.523 146.767C457.729 146.767 457.902 146.837 458.043 146.979C458.189 147.115 458.262 147.288 458.262 147.498C458.262 147.699 458.189 147.869 458.043 148.011C457.902 148.152 457.729 148.223 457.523 148.223ZM465.966 153.78H461.023C461.042 154.56 461.251 155.161 461.652 155.585C462.053 156.009 462.605 156.221 463.307 156.221C464.095 156.221 464.82 155.961 465.48 155.441V156.494C464.865 156.941 464.052 157.164 463.04 157.164C462.051 157.164 461.274 156.847 460.709 156.214C460.144 155.576 459.861 154.68 459.861 153.527C459.861 152.438 460.169 151.552 460.784 150.868C461.404 150.18 462.172 149.836 463.088 149.836C464.004 149.836 464.713 150.132 465.214 150.725C465.715 151.317 465.966 152.14 465.966 153.192V153.78ZM464.817 152.83C464.813 152.183 464.656 151.679 464.346 151.319C464.04 150.959 463.614 150.779 463.067 150.779C462.539 150.779 462.09 150.968 461.721 151.347C461.352 151.725 461.124 152.219 461.037 152.83H464.817ZM472.439 156.679C471.902 157.002 471.264 157.164 470.525 157.164C469.527 157.164 468.721 156.84 468.105 156.193C467.495 155.542 467.189 154.699 467.189 153.664C467.189 152.511 467.52 151.586 468.181 150.889C468.841 150.187 469.723 149.836 470.826 149.836C471.441 149.836 471.984 149.95 472.453 150.178V151.326C471.934 150.962 471.378 150.779 470.785 150.779C470.07 150.779 469.482 151.037 469.021 151.552C468.566 152.062 468.338 152.734 468.338 153.568C468.338 154.389 468.552 155.036 468.98 155.51C469.413 155.984 469.992 156.221 470.717 156.221C471.327 156.221 471.902 156.018 472.439 155.612V156.679ZM477.382 156.932C477.118 157.077 476.769 157.15 476.336 157.15C475.11 157.15 474.497 156.467 474.497 155.1V150.957H473.294V150H474.497V148.291L475.618 147.929V150H477.382V150.957H475.618V154.901C475.618 155.371 475.698 155.706 475.857 155.906C476.017 156.107 476.281 156.207 476.65 156.207C476.933 156.207 477.177 156.13 477.382 155.975V156.932ZM479.453 148.223C479.253 148.223 479.082 148.154 478.94 148.018C478.799 147.881 478.729 147.708 478.729 147.498C478.729 147.288 478.799 147.115 478.94 146.979C479.082 146.837 479.253 146.767 479.453 146.767C479.658 146.767 479.831 146.837 479.973 146.979C480.118 147.115 480.191 147.288 480.191 147.498C480.191 147.699 480.118 147.869 479.973 148.011C479.831 148.152 479.658 148.223 479.453 148.223ZM480 157H478.879V150H480V157ZM487.772 150L484.983 157H483.883L481.23 150H482.461L484.238 155.086C484.37 155.46 484.452 155.785 484.484 156.063H484.512C484.557 155.713 484.63 155.396 484.73 155.113L486.59 150H487.772ZM494.608 153.78H489.666C489.684 154.56 489.894 155.161 490.295 155.585C490.696 156.009 491.247 156.221 491.949 156.221C492.738 156.221 493.462 155.961 494.123 155.441V156.494C493.508 156.941 492.694 157.164 491.683 157.164C490.694 157.164 489.917 156.847 489.352 156.214C488.786 155.576 488.504 154.68 488.504 153.527C488.504 152.438 488.812 151.552 489.427 150.868C490.047 150.18 490.814 149.836 491.73 149.836C492.646 149.836 493.355 150.132 493.856 150.725C494.358 151.317 494.608 152.14 494.608 153.192V153.78ZM493.46 152.83C493.455 152.183 493.298 151.679 492.988 151.319C492.683 150.959 492.257 150.779 491.71 150.779C491.181 150.779 490.732 150.968 490.363 151.347C489.994 151.725 489.766 152.219 489.68 152.83H493.46ZM495.887 156.747V155.544C496.497 155.995 497.17 156.221 497.903 156.221C498.888 156.221 499.38 155.893 499.38 155.236C499.38 155.049 499.337 154.892 499.25 154.765C499.168 154.632 499.054 154.516 498.908 154.416C498.767 154.316 498.598 154.227 498.402 154.149C498.211 154.067 498.004 153.983 497.78 153.896C497.47 153.773 497.197 153.65 496.96 153.527C496.728 153.4 496.532 153.258 496.372 153.104C496.217 152.944 496.099 152.764 496.017 152.563C495.939 152.363 495.9 152.128 495.9 151.859C495.9 151.531 495.976 151.242 496.126 150.991C496.276 150.736 496.477 150.524 496.728 150.355C496.978 150.182 497.263 150.052 497.582 149.966C497.906 149.879 498.238 149.836 498.58 149.836C499.186 149.836 499.729 149.941 500.207 150.15V151.285C499.692 150.948 499.1 150.779 498.43 150.779C498.22 150.779 498.031 150.804 497.862 150.854C497.694 150.9 497.548 150.966 497.425 151.053C497.306 151.139 497.213 151.244 497.145 151.367C497.081 151.486 497.049 151.618 497.049 151.764C497.049 151.946 497.081 152.099 497.145 152.222C497.213 152.345 497.311 152.454 497.438 152.55C497.566 152.646 497.721 152.732 497.903 152.81C498.086 152.887 498.293 152.971 498.525 153.062C498.835 153.181 499.113 153.304 499.359 153.432C499.605 153.555 499.815 153.696 499.988 153.855C500.161 154.01 500.294 154.19 500.385 154.396C500.48 154.601 500.528 154.844 500.528 155.127C500.528 155.473 500.451 155.774 500.296 156.029C500.146 156.285 499.943 156.496 499.688 156.665C499.432 156.834 499.138 156.959 498.806 157.041C498.473 157.123 498.124 157.164 497.76 157.164C497.04 157.164 496.415 157.025 495.887 156.747Z" fill="url(#paint6_linear_34_14027)"/>
<path d="M397.312 234H395.945L394.305 231.252C394.154 230.997 394.008 230.78 393.867 230.603C393.726 230.42 393.58 230.272 393.43 230.158C393.284 230.044 393.124 229.962 392.951 229.912C392.783 229.857 392.591 229.83 392.377 229.83H391.434V234H390.285V224.197H393.211C393.639 224.197 394.034 224.252 394.394 224.361C394.758 224.466 395.073 224.628 395.337 224.847C395.606 225.065 395.815 225.339 395.966 225.667C396.116 225.991 396.191 226.371 396.191 226.809C396.191 227.15 396.139 227.465 396.034 227.752C395.934 228.035 395.788 228.287 395.597 228.511C395.41 228.734 395.182 228.925 394.913 229.085C394.649 229.24 394.35 229.361 394.018 229.447V229.475C394.182 229.548 394.323 229.632 394.441 229.728C394.564 229.819 394.681 229.928 394.79 230.056C394.899 230.183 395.007 230.329 395.111 230.493C395.221 230.653 395.341 230.84 395.474 231.054L397.312 234ZM391.434 225.236V228.791H392.992C393.279 228.791 393.544 228.748 393.785 228.661C394.031 228.575 394.243 228.451 394.421 228.292C394.599 228.128 394.738 227.93 394.838 227.697C394.938 227.46 394.988 227.196 394.988 226.904C394.988 226.38 394.817 225.972 394.476 225.681C394.138 225.384 393.648 225.236 393.006 225.236H391.434ZM403.731 230.78H398.789C398.807 231.56 399.017 232.161 399.418 232.585C399.819 233.009 400.37 233.221 401.072 233.221C401.861 233.221 402.585 232.961 403.246 232.441V233.494C402.631 233.941 401.817 234.164 400.806 234.164C399.817 234.164 399.04 233.847 398.475 233.214C397.91 232.576 397.627 231.68 397.627 230.527C397.627 229.438 397.935 228.552 398.55 227.868C399.17 227.18 399.938 226.836 400.854 226.836C401.77 226.836 402.478 227.132 402.979 227.725C403.481 228.317 403.731 229.14 403.731 230.192V230.78ZM402.583 229.83C402.578 229.183 402.421 228.679 402.111 228.319C401.806 227.959 401.38 227.779 400.833 227.779C400.304 227.779 399.855 227.968 399.486 228.347C399.117 228.725 398.889 229.219 398.803 229.83H402.583ZM410.937 227L408.147 234H407.047L404.395 227H405.625L407.402 232.086C407.535 232.46 407.617 232.785 407.648 233.063H407.676C407.721 232.713 407.794 232.396 407.895 232.113L409.754 227H410.937ZM412.721 225.223C412.52 225.223 412.349 225.154 412.208 225.018C412.067 224.881 411.996 224.708 411.996 224.498C411.996 224.288 412.067 224.115 412.208 223.979C412.349 223.837 412.52 223.767 412.721 223.767C412.926 223.767 413.099 223.837 413.24 223.979C413.386 224.115 413.459 224.288 413.459 224.498C413.459 224.699 413.386 224.869 413.24 225.011C413.099 225.152 412.926 225.223 412.721 225.223ZM413.268 234H412.146V227H413.268V234ZM415.113 233.747V232.544C415.724 232.995 416.396 233.221 417.13 233.221C418.114 233.221 418.606 232.893 418.606 232.236C418.606 232.049 418.563 231.892 418.477 231.765C418.395 231.632 418.281 231.516 418.135 231.416C417.993 231.316 417.825 231.227 417.629 231.149C417.438 231.067 417.23 230.983 417.007 230.896C416.697 230.773 416.424 230.65 416.187 230.527C415.954 230.4 415.758 230.258 415.599 230.104C415.444 229.944 415.325 229.764 415.243 229.563C415.166 229.363 415.127 229.128 415.127 228.859C415.127 228.531 415.202 228.242 415.353 227.991C415.503 227.736 415.703 227.524 415.954 227.355C416.205 227.182 416.49 227.052 416.809 226.966C417.132 226.879 417.465 226.836 417.807 226.836C418.413 226.836 418.955 226.941 419.434 227.15V228.285C418.919 227.948 418.326 227.779 417.656 227.779C417.447 227.779 417.257 227.804 417.089 227.854C416.92 227.9 416.774 227.966 416.651 228.053C416.533 228.139 416.439 228.244 416.371 228.367C416.307 228.486 416.275 228.618 416.275 228.764C416.275 228.946 416.307 229.099 416.371 229.222C416.439 229.345 416.537 229.454 416.665 229.55C416.793 229.646 416.948 229.732 417.13 229.81C417.312 229.887 417.52 229.971 417.752 230.062C418.062 230.181 418.34 230.304 418.586 230.432C418.832 230.555 419.042 230.696 419.215 230.855C419.388 231.01 419.52 231.19 419.611 231.396C419.707 231.601 419.755 231.844 419.755 232.127C419.755 232.473 419.677 232.774 419.522 233.029C419.372 233.285 419.169 233.496 418.914 233.665C418.659 233.834 418.365 233.959 418.032 234.041C417.7 234.123 417.351 234.164 416.986 234.164C416.266 234.164 415.642 234.025 415.113 233.747ZM427.11 230.78H422.168C422.186 231.56 422.396 232.161 422.797 232.585C423.198 233.009 423.749 233.221 424.451 233.221C425.24 233.221 425.964 232.961 426.625 232.441V233.494C426.01 233.941 425.196 234.164 424.185 234.164C423.196 234.164 422.419 233.847 421.854 233.214C421.288 232.576 421.006 231.68 421.006 230.527C421.006 229.438 421.313 228.552 421.929 227.868C422.549 227.18 423.316 226.836 424.232 226.836C425.148 226.836 425.857 227.132 426.358 227.725C426.86 228.317 427.11 229.14 427.11 230.192V230.78ZM425.962 229.83C425.957 229.183 425.8 228.679 425.49 228.319C425.185 227.959 424.759 227.779 424.212 227.779C423.683 227.779 423.234 227.968 422.865 228.347C422.496 228.725 422.268 229.219 422.182 229.83H425.962ZM433.803 232.988H433.775V237.22H432.654V227H433.775V228.23H433.803C434.354 227.301 435.161 226.836 436.223 226.836C437.125 226.836 437.829 227.15 438.335 227.779C438.841 228.404 439.094 229.242 439.094 230.295C439.094 231.466 438.809 232.405 438.239 233.111C437.67 233.813 436.89 234.164 435.901 234.164C434.994 234.164 434.295 233.772 433.803 232.988ZM433.775 230.165V231.143C433.775 231.721 433.962 232.214 434.336 232.619C434.714 233.02 435.193 233.221 435.771 233.221C436.451 233.221 436.981 232.961 437.364 232.441C437.752 231.922 437.945 231.2 437.945 230.274C437.945 229.495 437.765 228.884 437.405 228.442C437.045 228 436.558 227.779 435.942 227.779C435.291 227.779 434.767 228.007 434.37 228.463C433.974 228.914 433.775 229.481 433.775 230.165ZM442.006 234H440.885V223.637H442.006V234ZM449.286 234H448.165V232.906H448.138C447.65 233.745 446.932 234.164 445.984 234.164C445.287 234.164 444.74 233.979 444.344 233.61C443.952 233.241 443.756 232.751 443.756 232.141C443.756 230.833 444.526 230.072 446.066 229.857L448.165 229.563C448.165 228.374 447.684 227.779 446.723 227.779C445.88 227.779 445.118 228.066 444.439 228.641V227.492C445.128 227.055 445.921 226.836 446.818 226.836C448.464 226.836 449.286 227.706 449.286 229.447V234ZM448.165 230.459L446.477 230.691C445.957 230.764 445.565 230.894 445.301 231.081C445.036 231.263 444.904 231.589 444.904 232.059C444.904 232.4 445.025 232.681 445.267 232.899C445.513 233.114 445.839 233.221 446.244 233.221C446.8 233.221 447.258 233.027 447.618 232.64C447.983 232.248 448.165 231.753 448.165 231.156V230.459ZM457.209 234H456.088V230.008C456.088 228.522 455.546 227.779 454.461 227.779C453.9 227.779 453.436 227.991 453.066 228.415C452.702 228.834 452.52 229.365 452.52 230.008V234H451.398V227H452.52V228.162H452.547C453.076 227.278 453.841 226.836 454.844 226.836C455.609 226.836 456.195 227.084 456.601 227.581C457.006 228.073 457.209 228.786 457.209 229.721V234ZM465.139 234H464.018V230.008C464.018 228.522 463.475 227.779 462.391 227.779C461.83 227.779 461.365 227.991 460.996 228.415C460.632 228.834 460.449 229.365 460.449 230.008V234H459.328V227H460.449V228.162H460.477C461.005 227.278 461.771 226.836 462.773 226.836C463.539 226.836 464.125 227.084 464.53 227.581C464.936 228.073 465.139 228.786 465.139 229.721V234ZM467.832 225.223C467.632 225.223 467.461 225.154 467.319 225.018C467.178 224.881 467.107 224.708 467.107 224.498C467.107 224.288 467.178 224.115 467.319 223.979C467.461 223.837 467.632 223.767 467.832 223.767C468.037 223.767 468.21 223.837 468.352 223.979C468.497 224.115 468.57 224.288 468.57 224.498C468.57 224.699 468.497 224.869 468.352 225.011C468.21 225.152 468.037 225.223 467.832 225.223ZM468.379 234H467.258V227H468.379V234ZM476.459 234H475.338V230.008C475.338 228.522 474.796 227.779 473.711 227.779C473.15 227.779 472.686 227.991 472.316 228.415C471.952 228.834 471.77 229.365 471.77 230.008V234H470.648V227H471.77V228.162H471.797C472.326 227.278 473.091 226.836 474.094 226.836C474.859 226.836 475.445 227.084 475.851 227.581C476.256 228.073 476.459 228.786 476.459 229.721V234ZM484.553 233.439C484.553 236.01 483.322 237.295 480.861 237.295C479.995 237.295 479.239 237.131 478.592 236.803V235.682C479.38 236.119 480.132 236.338 480.848 236.338C482.57 236.338 483.432 235.422 483.432 233.59V232.824H483.404C482.871 233.717 482.069 234.164 480.998 234.164C480.128 234.164 479.426 233.854 478.893 233.234C478.364 232.61 478.1 231.774 478.1 230.726C478.1 229.536 478.384 228.59 478.954 227.889C479.528 227.187 480.312 226.836 481.306 226.836C482.249 226.836 482.949 227.214 483.404 227.971H483.432V227H484.553V233.439ZM483.432 230.835V229.803C483.432 229.247 483.243 228.771 482.864 228.374C482.491 227.978 482.023 227.779 481.463 227.779C480.77 227.779 480.228 228.032 479.836 228.538C479.444 229.039 479.248 229.743 479.248 230.65C479.248 231.43 479.435 232.054 479.809 232.523C480.187 232.988 480.686 233.221 481.306 233.221C481.935 233.221 482.445 232.997 482.837 232.551C483.233 232.104 483.432 231.532 483.432 230.835ZM391.283 251.988H391.256V256.22H390.135V246H391.256V247.23H391.283C391.835 246.301 392.641 245.836 393.703 245.836C394.605 245.836 395.31 246.15 395.815 246.779C396.321 247.404 396.574 248.242 396.574 249.295C396.574 250.466 396.289 251.405 395.72 252.111C395.15 252.813 394.371 253.164 393.382 253.164C392.475 253.164 391.775 252.772 391.283 251.988ZM391.256 249.165V250.143C391.256 250.721 391.443 251.214 391.816 251.619C392.195 252.02 392.673 252.221 393.252 252.221C393.931 252.221 394.462 251.961 394.845 251.441C395.232 250.922 395.426 250.2 395.426 249.274C395.426 248.495 395.246 247.884 394.886 247.442C394.526 247 394.038 246.779 393.423 246.779C392.771 246.779 392.247 247.007 391.851 247.463C391.454 247.914 391.256 248.481 391.256 249.165ZM403.991 249.78H399.049C399.067 250.56 399.277 251.161 399.678 251.585C400.079 252.009 400.63 252.221 401.332 252.221C402.12 252.221 402.845 251.961 403.506 251.441V252.494C402.891 252.941 402.077 253.164 401.065 253.164C400.076 253.164 399.299 252.847 398.734 252.214C398.169 251.576 397.887 250.68 397.887 249.527C397.887 248.438 398.194 247.552 398.81 246.868C399.429 246.18 400.197 245.836 401.113 245.836C402.029 245.836 402.738 246.132 403.239 246.725C403.741 247.317 403.991 248.14 403.991 249.192V249.78ZM402.843 248.83C402.838 248.183 402.681 247.679 402.371 247.319C402.066 246.959 401.64 246.779 401.093 246.779C400.564 246.779 400.115 246.968 399.746 247.347C399.377 247.725 399.149 248.219 399.062 248.83H402.843ZM409.344 247.135C409.148 246.984 408.865 246.909 408.496 246.909C408.018 246.909 407.617 247.135 407.293 247.586C406.974 248.037 406.814 248.652 406.814 249.432V253H405.693V246H406.814V247.442H406.842C407.001 246.95 407.245 246.567 407.573 246.294C407.901 246.016 408.268 245.877 408.674 245.877C408.965 245.877 409.189 245.909 409.344 245.973V247.135ZM411.135 244.223C410.934 244.223 410.763 244.154 410.622 244.018C410.481 243.881 410.41 243.708 410.41 243.498C410.41 243.288 410.481 243.115 410.622 242.979C410.763 242.837 410.934 242.767 411.135 242.767C411.34 242.767 411.513 242.837 411.654 242.979C411.8 243.115 411.873 243.288 411.873 243.498C411.873 243.699 411.8 243.869 411.654 244.011C411.513 244.152 411.34 244.223 411.135 244.223ZM411.682 253H410.561V246H411.682V253ZM416.877 253.164C415.842 253.164 415.015 252.838 414.396 252.187C413.78 251.53 413.473 250.662 413.473 249.582C413.473 248.406 413.794 247.488 414.437 246.827C415.079 246.166 415.947 245.836 417.041 245.836C418.085 245.836 418.898 246.157 419.481 246.8C420.069 247.442 420.363 248.333 420.363 249.473C420.363 250.589 420.047 251.485 419.413 252.159C418.784 252.829 417.939 253.164 416.877 253.164ZM416.959 246.779C416.239 246.779 415.669 247.025 415.25 247.518C414.831 248.005 414.621 248.68 414.621 249.541C414.621 250.37 414.833 251.024 415.257 251.503C415.681 251.981 416.248 252.221 416.959 252.221C417.684 252.221 418.24 251.986 418.627 251.517C419.019 251.047 419.215 250.38 419.215 249.514C419.215 248.639 419.019 247.964 418.627 247.49C418.24 247.016 417.684 246.779 416.959 246.779ZM428.129 253H427.008V251.811H426.98C426.461 252.713 425.659 253.164 424.574 253.164C423.695 253.164 422.991 252.852 422.462 252.228C421.938 251.599 421.676 250.744 421.676 249.664C421.676 248.507 421.967 247.579 422.551 246.882C423.134 246.185 423.911 245.836 424.882 245.836C425.843 245.836 426.543 246.214 426.98 246.971H427.008V242.637H428.129V253ZM427.008 249.835V248.803C427.008 248.238 426.821 247.759 426.447 247.367C426.074 246.975 425.6 246.779 425.025 246.779C424.342 246.779 423.804 247.03 423.412 247.531C423.02 248.033 422.824 248.725 422.824 249.609C422.824 250.416 423.011 251.054 423.385 251.523C423.763 251.988 424.269 252.221 424.902 252.221C425.527 252.221 426.033 251.995 426.42 251.544C426.812 251.093 427.008 250.523 427.008 249.835ZM430.973 244.223C430.772 244.223 430.601 244.154 430.46 244.018C430.319 243.881 430.248 243.708 430.248 243.498C430.248 243.288 430.319 243.115 430.46 242.979C430.601 242.837 430.772 242.767 430.973 242.767C431.178 242.767 431.351 242.837 431.492 242.979C431.638 243.115 431.711 243.288 431.711 243.498C431.711 243.699 431.638 243.869 431.492 244.011C431.351 244.152 431.178 244.223 430.973 244.223ZM431.52 253H430.398V246H431.52V253ZM438.561 252.679C438.023 253.002 437.385 253.164 436.646 253.164C435.648 253.164 434.842 252.84 434.227 252.193C433.616 251.542 433.311 250.699 433.311 249.664C433.311 248.511 433.641 247.586 434.302 246.889C434.963 246.187 435.844 245.836 436.947 245.836C437.562 245.836 438.105 245.95 438.574 246.178V247.326C438.055 246.962 437.499 246.779 436.906 246.779C436.191 246.779 435.603 247.037 435.143 247.552C434.687 248.062 434.459 248.734 434.459 249.568C434.459 250.389 434.673 251.036 435.102 251.51C435.535 251.984 436.113 252.221 436.838 252.221C437.449 252.221 438.023 252.018 438.561 251.612V252.679ZM445.267 253H444.146V251.906H444.118C443.631 252.745 442.913 253.164 441.965 253.164C441.268 253.164 440.721 252.979 440.324 252.61C439.932 252.241 439.736 251.751 439.736 251.141C439.736 249.833 440.507 249.072 442.047 248.857L444.146 248.563C444.146 247.374 443.665 246.779 442.703 246.779C441.86 246.779 441.099 247.066 440.42 247.641V246.492C441.108 246.055 441.901 245.836 442.799 245.836C444.444 245.836 445.267 246.706 445.267 248.447V253ZM444.146 249.459L442.457 249.691C441.938 249.764 441.546 249.894 441.281 250.081C441.017 250.263 440.885 250.589 440.885 251.059C440.885 251.4 441.006 251.681 441.247 251.899C441.493 252.114 441.819 252.221 442.225 252.221C442.781 252.221 443.239 252.027 443.599 251.64C443.963 251.248 444.146 250.753 444.146 250.156V249.459ZM448.5 253H447.379V242.637H448.5V253ZM451.891 253H450.77V242.637H451.891V253ZM459.731 246L456.512 254.121C455.938 255.57 455.131 256.295 454.092 256.295C453.8 256.295 453.556 256.265 453.36 256.206V255.201C453.602 255.283 453.823 255.324 454.023 255.324C454.589 255.324 455.012 254.987 455.295 254.312L455.855 252.986L453.121 246H454.365L456.259 251.387C456.282 251.455 456.329 251.633 456.402 251.92H456.443C456.466 251.811 456.512 251.637 456.58 251.4L458.569 246H459.731Z" fill="url(#paint7_linear_34_14027)"/>
<path d="M390.285 201V191.197H392.992C396.447 191.197 398.174 192.79 398.174 195.976C398.174 197.489 397.693 198.705 396.731 199.626C395.774 200.542 394.492 201 392.883 201H390.285ZM391.434 192.236V199.961H392.896C394.182 199.961 395.182 199.617 395.897 198.929C396.613 198.241 396.971 197.265 396.971 196.003C396.971 193.492 395.635 192.236 392.965 192.236H391.434ZM405.577 197.78H400.635C400.653 198.56 400.863 199.161 401.264 199.585C401.665 200.009 402.216 200.221 402.918 200.221C403.706 200.221 404.431 199.961 405.092 199.441V200.494C404.477 200.941 403.663 201.164 402.651 201.164C401.662 201.164 400.885 200.847 400.32 200.214C399.755 199.576 399.473 198.68 399.473 197.527C399.473 196.438 399.78 195.552 400.396 194.868C401.015 194.18 401.783 193.836 402.699 193.836C403.615 193.836 404.324 194.132 404.825 194.725C405.326 195.317 405.577 196.14 405.577 197.192V197.78ZM404.429 196.83C404.424 196.183 404.267 195.679 403.957 195.319C403.652 194.959 403.226 194.779 402.679 194.779C402.15 194.779 401.701 194.968 401.332 195.347C400.963 195.725 400.735 196.219 400.648 196.83H404.429ZM410.738 191.621C410.52 191.498 410.271 191.437 409.993 191.437C409.209 191.437 408.817 191.931 408.817 192.92V194H410.458V194.957H408.817V201H407.703V194.957H406.507V194H407.703V192.865C407.703 192.132 407.915 191.553 408.339 191.129C408.763 190.701 409.291 190.486 409.925 190.486C410.267 190.486 410.538 190.527 410.738 190.609V191.621ZM412.242 192.223C412.042 192.223 411.871 192.154 411.729 192.018C411.588 191.881 411.518 191.708 411.518 191.498C411.518 191.288 411.588 191.115 411.729 190.979C411.871 190.837 412.042 190.767 412.242 190.767C412.447 190.767 412.62 190.837 412.762 190.979C412.908 191.115 412.98 191.288 412.98 191.498C412.98 191.699 412.908 191.869 412.762 192.011C412.62 192.152 412.447 192.223 412.242 192.223ZM412.789 201H411.668V194H412.789V201ZM420.869 201H419.748V197.008C419.748 195.522 419.206 194.779 418.121 194.779C417.561 194.779 417.096 194.991 416.727 195.415C416.362 195.834 416.18 196.365 416.18 197.008V201H415.059V194H416.18V195.162H416.207C416.736 194.278 417.501 193.836 418.504 193.836C419.27 193.836 419.855 194.084 420.261 194.581C420.666 195.073 420.869 195.786 420.869 196.721V201ZM428.614 197.78H423.672C423.69 198.56 423.9 199.161 424.301 199.585C424.702 200.009 425.253 200.221 425.955 200.221C426.743 200.221 427.468 199.961 428.129 199.441V200.494C427.514 200.941 426.7 201.164 425.688 201.164C424.7 201.164 423.923 200.847 423.357 200.214C422.792 199.576 422.51 198.68 422.51 197.527C422.51 196.438 422.817 195.552 423.433 194.868C424.052 194.18 424.82 193.836 425.736 193.836C426.652 193.836 427.361 194.132 427.862 194.725C428.364 195.317 428.614 196.14 428.614 197.192V197.78ZM427.466 196.83C427.461 196.183 427.304 195.679 426.994 195.319C426.689 194.959 426.263 194.779 425.716 194.779C425.187 194.779 424.738 194.968 424.369 195.347C424 195.725 423.772 196.219 423.686 196.83H427.466ZM433.734 200.747V199.544C434.345 199.995 435.017 200.221 435.751 200.221C436.735 200.221 437.228 199.893 437.228 199.236C437.228 199.049 437.184 198.892 437.098 198.765C437.016 198.632 436.902 198.516 436.756 198.416C436.615 198.316 436.446 198.227 436.25 198.149C436.059 198.067 435.851 197.983 435.628 197.896C435.318 197.773 435.045 197.65 434.808 197.527C434.575 197.4 434.379 197.258 434.22 197.104C434.065 196.944 433.946 196.764 433.864 196.563C433.787 196.363 433.748 196.128 433.748 195.859C433.748 195.531 433.823 195.242 433.974 194.991C434.124 194.736 434.325 194.524 434.575 194.355C434.826 194.182 435.111 194.052 435.43 193.966C435.753 193.879 436.086 193.836 436.428 193.836C437.034 193.836 437.576 193.941 438.055 194.15V195.285C437.54 194.948 436.947 194.779 436.277 194.779C436.068 194.779 435.879 194.804 435.71 194.854C435.541 194.9 435.396 194.966 435.272 195.053C435.154 195.139 435.061 195.244 434.992 195.367C434.928 195.486 434.896 195.618 434.896 195.764C434.896 195.946 434.928 196.099 434.992 196.222C435.061 196.345 435.159 196.454 435.286 196.55C435.414 196.646 435.569 196.732 435.751 196.81C435.933 196.887 436.141 196.971 436.373 197.062C436.683 197.181 436.961 197.304 437.207 197.432C437.453 197.555 437.663 197.696 437.836 197.855C438.009 198.01 438.141 198.19 438.232 198.396C438.328 198.601 438.376 198.844 438.376 199.127C438.376 199.473 438.299 199.774 438.144 200.029C437.993 200.285 437.79 200.496 437.535 200.665C437.28 200.834 436.986 200.959 436.653 201.041C436.321 201.123 435.972 201.164 435.607 201.164C434.887 201.164 434.263 201.025 433.734 200.747ZM445.766 201H444.645V199.893H444.617C444.152 200.74 443.432 201.164 442.457 201.164C440.789 201.164 439.955 200.171 439.955 198.184V194H441.069V198.006C441.069 199.482 441.634 200.221 442.765 200.221C443.312 200.221 443.76 200.02 444.111 199.619C444.467 199.214 444.645 198.685 444.645 198.033V194H445.766V201ZM452.807 200.679C452.269 201.002 451.631 201.164 450.893 201.164C449.895 201.164 449.088 200.84 448.473 200.193C447.862 199.542 447.557 198.699 447.557 197.664C447.557 196.511 447.887 195.586 448.548 194.889C449.209 194.187 450.09 193.836 451.193 193.836C451.809 193.836 452.351 193.95 452.82 194.178V195.326C452.301 194.962 451.745 194.779 451.152 194.779C450.437 194.779 449.849 195.037 449.389 195.552C448.933 196.062 448.705 196.734 448.705 197.568C448.705 198.389 448.919 199.036 449.348 199.51C449.781 199.984 450.359 200.221 451.084 200.221C451.695 200.221 452.269 200.018 452.807 199.612V200.679ZM459.273 200.679C458.736 201.002 458.098 201.164 457.359 201.164C456.361 201.164 455.555 200.84 454.939 200.193C454.329 199.542 454.023 198.699 454.023 197.664C454.023 196.511 454.354 195.586 455.015 194.889C455.675 194.187 456.557 193.836 457.66 193.836C458.275 193.836 458.818 193.95 459.287 194.178V195.326C458.768 194.962 458.212 194.779 457.619 194.779C456.904 194.779 456.316 195.037 455.855 195.552C455.4 196.062 455.172 196.734 455.172 197.568C455.172 198.389 455.386 199.036 455.814 199.51C456.247 199.984 456.826 200.221 457.551 200.221C458.161 200.221 458.736 200.018 459.273 199.612V200.679ZM466.595 197.78H461.652C461.671 198.56 461.88 199.161 462.281 199.585C462.682 200.009 463.234 200.221 463.936 200.221C464.724 200.221 465.449 199.961 466.109 199.441V200.494C465.494 200.941 464.681 201.164 463.669 201.164C462.68 201.164 461.903 200.847 461.338 200.214C460.773 199.576 460.49 198.68 460.49 197.527C460.49 196.438 460.798 195.552 461.413 194.868C462.033 194.18 462.801 193.836 463.717 193.836C464.633 193.836 465.341 194.132 465.843 194.725C466.344 195.317 466.595 196.14 466.595 197.192V197.78ZM465.446 196.83C465.442 196.183 465.285 195.679 464.975 195.319C464.669 194.959 464.243 194.779 463.696 194.779C463.168 194.779 462.719 194.968 462.35 195.347C461.98 195.725 461.753 196.219 461.666 196.83H465.446ZM467.873 200.747V199.544C468.484 199.995 469.156 200.221 469.89 200.221C470.874 200.221 471.366 199.893 471.366 199.236C471.366 199.049 471.323 198.892 471.236 198.765C471.154 198.632 471.04 198.516 470.895 198.416C470.753 198.316 470.585 198.227 470.389 198.149C470.197 198.067 469.99 197.983 469.767 197.896C469.457 197.773 469.183 197.65 468.946 197.527C468.714 197.4 468.518 197.258 468.358 197.104C468.203 196.944 468.085 196.764 468.003 196.563C467.925 196.363 467.887 196.128 467.887 195.859C467.887 195.531 467.962 195.242 468.112 194.991C468.263 194.736 468.463 194.524 468.714 194.355C468.965 194.182 469.249 194.052 469.568 193.966C469.892 193.879 470.225 193.836 470.566 193.836C471.173 193.836 471.715 193.941 472.193 194.15V195.285C471.678 194.948 471.086 194.779 470.416 194.779C470.206 194.779 470.017 194.804 469.849 194.854C469.68 194.9 469.534 194.966 469.411 195.053C469.293 195.139 469.199 195.244 469.131 195.367C469.067 195.486 469.035 195.618 469.035 195.764C469.035 195.946 469.067 196.099 469.131 196.222C469.199 196.345 469.297 196.454 469.425 196.55C469.552 196.646 469.707 196.732 469.89 196.81C470.072 196.887 470.279 196.971 470.512 197.062C470.822 197.181 471.1 197.304 471.346 197.432C471.592 197.555 471.801 197.696 471.975 197.855C472.148 198.01 472.28 198.19 472.371 198.396C472.467 198.601 472.515 198.844 472.515 199.127C472.515 199.473 472.437 199.774 472.282 200.029C472.132 200.285 471.929 200.496 471.674 200.665C471.419 200.834 471.125 200.959 470.792 201.041C470.459 201.123 470.111 201.164 469.746 201.164C469.026 201.164 468.402 201.025 467.873 200.747ZM473.82 200.747V199.544C474.431 199.995 475.103 200.221 475.837 200.221C476.821 200.221 477.313 199.893 477.313 199.236C477.313 199.049 477.27 198.892 477.184 198.765C477.102 198.632 476.988 198.516 476.842 198.416C476.701 198.316 476.532 198.227 476.336 198.149C476.145 198.067 475.937 197.983 475.714 197.896C475.404 197.773 475.131 197.65 474.894 197.527C474.661 197.4 474.465 197.258 474.306 197.104C474.151 196.944 474.032 196.764 473.95 196.563C473.873 196.363 473.834 196.128 473.834 195.859C473.834 195.531 473.909 195.242 474.06 194.991C474.21 194.736 474.41 194.524 474.661 194.355C474.912 194.182 475.197 194.052 475.516 193.966C475.839 193.879 476.172 193.836 476.514 193.836C477.12 193.836 477.662 193.941 478.141 194.15V195.285C477.626 194.948 477.033 194.779 476.363 194.779C476.154 194.779 475.965 194.804 475.796 194.854C475.627 194.9 475.481 194.966 475.358 195.053C475.24 195.139 475.146 195.244 475.078 195.367C475.014 195.486 474.982 195.618 474.982 195.764C474.982 195.946 475.014 196.099 475.078 196.222C475.146 196.345 475.244 196.454 475.372 196.55C475.5 196.646 475.655 196.732 475.837 196.81C476.019 196.887 476.227 196.971 476.459 197.062C476.769 197.181 477.047 197.304 477.293 197.432C477.539 197.555 477.749 197.696 477.922 197.855C478.095 198.01 478.227 198.19 478.318 198.396C478.414 198.601 478.462 198.844 478.462 199.127C478.462 199.473 478.384 199.774 478.229 200.029C478.079 200.285 477.876 200.496 477.621 200.665C477.366 200.834 477.072 200.959 476.739 201.041C476.407 201.123 476.058 201.164 475.693 201.164C474.973 201.164 474.349 201.025 473.82 200.747Z" fill="url(#paint8_linear_34_14027)"/>
<path d="M352 142.5C352 140.567 353.567 139 355.5 139H374.5C376.433 139 378 140.567 378 142.5V161.5C378 163.433 376.433 165 374.5 165H355.5C353.567 165 352 163.433 352 161.5V142.5Z" fill="url(#paint9_linear_34_14027)"/>
<path d="M352 142.5C352 140.567 353.567 139 355.5 139H374.5C376.433 139 378 140.567 378 142.5V161.5C378 163.433 376.433 165 374.5 165H355.5C353.567 165 352 163.433 352 161.5V142.5Z" fill="url(#paint10_radial_34_14027)" fill-opacity="0.2"/>
<path fill-rule="evenodd" clip-rule="evenodd" d="M374.5 140H355.5C354.119 140 353 141.119 353 142.5V161.5C353 162.881 354.119 164 355.5 164H374.5C375.881 164 377 162.881 377 161.5V142.5C377 141.119 375.881 140 374.5 140ZM355.5 139C353.567 139 352 140.567 352 142.5V161.5C352 163.433 353.567 165 355.5 165H374.5C376.433 165 378 163.433 378 161.5V142.5C378 140.567 376.433 139 374.5 139H355.5Z" fill="url(#paint11_linear_34_14027)"/>
<path d="M367.013 157.186H372.851V160.106H367.013V157.186Z" fill="url(#paint12_linear_34_14027)"/>
<path d="M369.515 152.596V155.6L369.097 155.183C368.957 155.04 368.722 155.04 368.582 155.183C368.437 155.326 368.437 155.558 368.582 155.7L369.677 156.796C369.817 156.938 370.052 156.938 370.192 156.796L371.287 155.7C371.432 155.556 371.432 155.323 371.287 155.18C371.142 155.037 370.908 155.037 370.767 155.181L370.35 155.598V151.762H366.805L364.926 149.963L363.046 151.762H359.501V155.6L359.084 155.183C358.943 155.04 358.709 155.04 358.568 155.183C358.423 155.326 358.423 155.558 358.568 155.7L359.663 156.796C359.804 156.938 360.038 156.938 360.179 156.796L361.274 155.7C361.419 155.556 361.419 155.323 361.274 155.18C361.129 155.037 360.895 155.037 360.754 155.181L360.336 155.598V152.596H363.046L364.926 154.474L366.805 152.596H369.515Z" fill="url(#paint13_linear_34_14027)"/>
<path d="M357 157.186H362.838V160.106H357V157.186Z" fill="url(#paint14_linear_34_14027)"/>
<path d="M364.529 148.322L364.09 147.879C363.95 147.737 363.715 147.737 363.575 147.879C363.43 148.022 363.43 148.254 363.575 148.397L364.67 149.492C364.811 149.634 365.045 149.634 365.186 149.492L366.281 148.397C366.426 148.253 366.426 148.02 366.281 147.878C366.136 147.734 365.901 147.735 365.761 147.879L365.365 148.278V145.921H367.844V143H362.007V145.921H364.529V148.322Z" fill="url(#paint15_linear_34_14027)"/>
<path d="M352 186.5C352 184.567 353.567 183 355.5 183H374.5C376.433 183 378 184.567 378 186.5V205.5C378 207.433 376.433 209 374.5 209H355.5C353.567 209 352 207.433 352 205.5V186.5Z" fill="url(#paint16_linear_34_14027)"/>
<path d="M352 186.5C352 184.567 353.567 183 355.5 183H374.5C376.433 183 378 184.567 378 186.5V205.5C378 207.433 376.433 209 374.5 209H355.5C353.567 209 352 207.433 352 205.5V186.5Z" fill="url(#paint17_radial_34_14027)" fill-opacity="0.2"/>
<path fill-rule="evenodd" clip-rule="evenodd" d="M374.5 184H355.5C354.119 184 353 185.119 353 186.5V205.5C353 206.881 354.119 208 355.5 208H374.5C375.881 208 377 206.881 377 205.5V186.5C377 185.119 375.881 184 374.5 184ZM355.5 183C353.567 183 352 184.567 352 186.5V205.5C352 207.433 353.567 209 355.5 209H374.5C376.433 209 378 207.433 378 205.5V186.5C378 184.567 376.433 183 374.5 183H355.5Z" fill="url(#paint18_linear_34_14027)"/>
<path d="M370.542 195.957C369.813 196.711 369.121 197.192 367.611 197.36C368.008 196.962 368.471 196.564 368.868 196.082C369.037 195.894 369.35 195.475 369.35 195.454C369.705 194.868 369.916 194.198 369.916 193.465V190.743H371.379V193.926C371.402 193.968 371.444 195.014 370.542 195.957ZM360.136 195.957C359.215 195.014 359.257 193.968 359.257 193.926V190.722H360.725V193.444C360.725 194.177 360.931 194.847 361.291 195.433C361.291 195.454 361.604 195.894 361.772 196.061C362.188 196.543 362.628 196.941 363.025 197.338C361.562 197.171 360.847 196.69 360.136 195.957ZM372.66 193.863V189.466H369.934V188H365.33H360.725V189.466H358V193.842C358 194.051 358 195.496 359.197 196.773C360.347 197.988 361.749 198.616 364.199 198.658C364.386 198.972 364.493 199.328 364.493 199.705V202.427H363.446C362.983 202.427 362.609 202.804 362.609 203.264H361.562C361.099 203.264 360.725 203.641 360.725 204.102V204.521H369.934V204.102C369.934 203.641 369.56 203.264 369.098 203.264H368.05C368.05 202.804 367.676 202.427 367.214 202.427H366.167V199.726C366.167 199.349 366.274 198.993 366.461 198.679C368.911 198.637 370.313 197.988 371.463 196.794C372.66 195.538 372.66 194.072 372.66 193.863Z" fill="url(#paint19_linear_34_14027)"/>
<path d="M352 229.5C352 227.567 353.567 226 355.5 226H374.5C376.433 226 378 227.567 378 229.5V248.5C378 250.433 376.433 252 374.5 252H355.5C353.567 252 352 250.433 352 248.5V229.5Z" fill="url(#paint20_linear_34_14027)"/>
<path d="M352 229.5C352 227.567 353.567 226 355.5 226H374.5C376.433 226 378 227.567 378 229.5V248.5C378 250.433 376.433 252 374.5 252H355.5C353.567 252 352 250.433 352 248.5V229.5Z" fill="url(#paint21_radial_34_14027)" fill-opacity="0.2"/>
<path fill-rule="evenodd" clip-rule="evenodd" d="M374.5 227H355.5C354.119 227 353 228.119 353 229.5V248.5C353 249.881 354.119 251 355.5 251H374.5C375.881 251 377 249.881 377 248.5V229.5C377 228.119 375.881 227 374.5 227ZM355.5 226C353.567 226 352 227.567 352 229.5V248.5C352 250.433 353.567 252 355.5 252H374.5C376.433 252 378 250.433 378 248.5V229.5C378 227.567 376.433 226 374.5 226H355.5Z" fill="url(#paint22_linear_34_14027)"/>
<path d="M364.11 245.211C360.859 244.683 358.477 241.911 358.486 238.665C358.491 238.263 358.533 237.863 358.611 237.468H358.631L359.106 238.277C359.249 238.522 359.566 238.606 359.815 238.465C360.063 238.324 360.148 238.011 360.005 237.767L358.904 235.89C358.835 235.773 358.722 235.688 358.59 235.653C358.457 235.618 358.315 235.636 358.196 235.704L356.278 236.794C356.024 236.925 355.926 237.233 356.059 237.483C356.192 237.733 356.505 237.829 356.759 237.699C356.772 237.692 356.784 237.685 356.797 237.677L357.59 237.225C357.497 237.7 357.45 238.182 357.45 238.665C357.438 242.407 360.182 245.604 363.929 246.217H364.017C364.303 246.239 364.554 246.029 364.577 245.747C364.6 245.465 364.386 245.218 364.1 245.195L364.11 245.211Z" fill="url(#paint23_linear_34_14027)"/>
<path d="M373 238.665C373.001 237.753 372.837 236.848 372.515 235.993C372.415 235.728 372.116 235.594 371.848 235.693C371.579 235.791 371.443 236.086 371.543 236.35C372.841 239.786 371.066 243.607 367.578 244.885C367.553 244.894 367.528 244.903 367.503 244.912L367.975 244.1C368.118 243.855 368.032 243.542 367.783 243.401C367.534 243.26 367.216 243.345 367.073 243.59L365.984 245.471C365.842 245.716 365.928 246.028 366.176 246.168L368.086 247.243C368.335 247.384 368.653 247.299 368.796 247.054C368.939 246.809 368.854 246.496 368.604 246.355L367.796 245.903C370.923 244.834 373.015 241.926 373 238.665Z" fill="url(#paint24_linear_34_14027)"/>
<path d="M368.594 233.552C368.308 233.552 368.076 233.78 368.076 234.062C368.076 234.345 368.308 234.573 368.594 234.573H370.724C370.744 234.574 370.764 234.574 370.784 234.573C370.884 234.573 370.981 234.544 371.064 234.489L371.1 234.466L371.116 234.453L371.15 234.428C371.251 234.332 371.309 234.201 371.31 234.062V231.898C371.31 231.616 371.078 231.387 370.792 231.387C370.505 231.387 370.274 231.616 370.274 231.898V232.829C367.005 230.086 362.098 230.472 359.313 233.692C359.301 233.705 359.289 233.719 359.277 233.733C359.092 233.949 359.12 234.271 359.339 234.453C359.558 234.635 359.885 234.607 360.07 234.392C362.45 231.599 366.672 231.221 369.525 233.544L368.594 233.552Z" fill="url(#paint25_linear_34_14027)"/>
<path d="M344.75 244C344.75 244.414 344.414 244.75 344 244.75H337.25C336.836 244.75 336.5 244.414 336.5 244C336.5 243.586 336.836 243.25 337.25 243.25H343.25V237.25C343.25 236.836 343.586 236.5 344 236.5C344.414 236.5 344.75 236.836 344.75 237.25V244ZM343.45 198.49C343.731 198.187 344.206 198.168 344.51 198.45C344.813 198.731 344.832 199.206 344.55 199.51L343.45 198.49ZM343.47 244.53C330.666 231.727 330.694 212.266 343.45 198.49L344.55 199.51C332.306 212.734 332.334 231.273 344.53 243.47L343.47 244.53Z" fill="#628983"/>
<path d="M344.75 194C344.75 194.414 344.414 194.75 344 194.75H337.25C336.836 194.75 336.5 194.414 336.5 194C336.5 193.586 336.836 193.25 337.25 193.25H343.25V187.25C343.25 186.836 343.586 186.5 344 186.5C344.414 186.5 344.75 186.836 344.75 187.25V194ZM343.459 148.48C343.746 148.182 344.221 148.172 344.52 148.459C344.818 148.746 344.828 149.221 344.541 149.52L343.459 148.48ZM343.47 194.53C330.671 181.732 330.686 161.765 343.459 148.48L344.541 149.52C332.314 162.235 332.329 181.268 344.53 193.47L343.47 194.53Z" fill="#628983"/>
<path d="M360.32 75.3255L365.501 66.5335L370.682 75.3255H360.32ZM376.644 85.4387H354.358L359.008 77.787H371.994L376.644 85.4387ZM376.674 85.4873C376.674 85.4873 376.674 85.4872 376.674 85.4869L376.674 85.4873ZM348.544 95.4933L353.168 87.8417H377.874L382.417 95.4046L348.544 95.4933Z" fill="white"/>
<path d="M360.32 75.3255L365.501 66.5335L370.682 75.3255H360.32ZM376.644 85.4387H354.358L359.008 77.787H371.994L376.644 85.4387ZM376.674 85.4873C376.674 85.4873 376.674 85.4872 376.674 85.4869L376.674 85.4873ZM348.544 95.4933L353.168 87.8417H377.874L382.417 95.4046L348.544 95.4933Z" fill="url(#paint26_linear_34_14027)" fill-opacity="0.33"/>
<path d="M360.32 75.3255L365.501 66.5335L370.682 75.3255H360.32ZM376.644 85.4387H354.358L359.008 77.787H371.994L376.644 85.4387ZM376.674 85.4873C376.674 85.4873 376.674 85.4872 376.674 85.4869L376.674 85.4873ZM348.544 95.4933L353.168 87.8417H377.874L382.417 95.4046L348.544 95.4933Z" stroke="url(#paint27_linear_34_14027)"/>
<path d="M358.727 77.287L353.901 85.2276C353.712 85.5393 353.935 85.9387 354.299 85.9387H376.703C377.067 85.9387 377.29 85.5393 377.101 85.2277L372.275 77.287H358.727Z" fill="url(#paint28_linear_34_14027)"/>
<defs>
<filter id="filter0_f_34_14027" x="320" y="45" width="244" height="329" filterUnits="userSpaceOnUse" color-interpolation-filters="sRGB">
<feFlood flood-opacity="0" result="BackgroundImageFix"/>
<feBlend mode="normal" in="SourceGraphic" in2="BackgroundImageFix" result="shape"/>
<feGaussianBlur stdDeviation="2.5" result="effect1_foregroundBlur_34_14027"/>
</filter>
<radialGradient id="paint0_radial_34_14027" cx="0" cy="0" r="1" gradientUnits="userSpaceOnUse" gradientTransform="translate(132.812 45.8789) rotate(21.1819) scale(910.022 483.925)">
<stop offset="0.198869" stop-color="#8EE3E8"/>
<stop offset="1" stop-color="#19177E"/>
</radialGradient>
<linearGradient id="paint1_linear_34_14027" x1="357.933" y1="208.224" x2="459.175" y2="223.538" gradientUnits="userSpaceOnUse">
<stop stop-color="white"/>
<stop offset="1" stop-color="#FAFAFA"/>
</linearGradient>
<linearGradient id="paint2_linear_34_14027" x1="335" y1="173" x2="353.902" y2="260.937" gradientUnits="userSpaceOnUse">
<stop stop-color="#22685C"/>
<stop offset="1" stop-color="#083831"/>
</linearGradient>
<linearGradient id="paint3_linear_34_14027" x1="335" y1="173" x2="353.902" y2="260.937" gradientUnits="userSpaceOnUse">
<stop stop-color="#22685C"/>
<stop offset="1" stop-color="#083831"/>
</linearGradient>
<linearGradient id="paint4_linear_34_14027" x1="335" y1="173" x2="353.902" y2="260.937" gradientUnits="userSpaceOnUse">
<stop stop-color="#22685C"/>
<stop offset="1" stop-color="#083831"/>
</linearGradient>
<linearGradient id="paint5_linear_34_14027" x1="389" y1="70" x2="394.387" y2="111.297" gradientUnits="userSpaceOnUse">
<stop stop-color="#22685C"/>
<stop offset="1" stop-color="#083831"/>
</linearGradient>
<linearGradient id="paint6_linear_34_14027" x1="389" y1="135" x2="401.598" y2="196.416" gradientUnits="userSpaceOnUse">
<stop stop-color="#22685C"/>
<stop offset="1" stop-color="#083831"/>
</linearGradient>
<linearGradient id="paint7_linear_34_14027" x1="389" y1="222" x2="401.598" y2="283.416" gradientUnits="userSpaceOnUse">
<stop stop-color="#22685C"/>
<stop offset="1" stop-color="#083831"/>
</linearGradient>
<linearGradient id="paint8_linear_34_14027" x1="389" y1="179" x2="401.598" y2="240.416" gradientUnits="userSpaceOnUse">
<stop stop-color="#22685C"/>
<stop offset="1" stop-color="#083831"/>
</linearGradient>
<linearGradient id="paint9_linear_34_14027" x1="359.222" y1="139" x2="362.511" y2="165.311" gradientUnits="userSpaceOnUse">
<stop stop-color="white"/>
<stop offset="1" stop-color="#EBEBEB"/>
</linearGradient>
<radialGradient id="paint10_radial_34_14027" cx="0" cy="0" r="1" gradientUnits="userSpaceOnUse" gradientTransform="translate(360.306 145.771) rotate(56.3099) scale(24.7381 21.408)">
<stop offset="0.177083" stop-color="white"/>
<stop offset="1" stop-color="#B8B8B8"/>
</radialGradient>
<linearGradient id="paint11_linear_34_14027" x1="360.396" y1="139" x2="363.897" y2="165.256" gradientUnits="userSpaceOnUse">
<stop stop-color="#BBBBBB"/>
<stop offset="1" stop-color="#888888"/>
</linearGradient>
<linearGradient id="paint12_linear_34_14027" x1="367.013" y1="157.186" x2="369.35" y2="161.858" gradientUnits="userSpaceOnUse">
<stop stop-color="#22685C"/>
<stop offset="1" stop-color="#083831"/>
</linearGradient>
<linearGradient id="paint13_linear_34_14027" x1="358.459" y1="149.963" x2="364.24" y2="160.741" gradientUnits="userSpaceOnUse">
<stop stop-color="#22685C"/>
<stop offset="1" stop-color="#083831"/>
</linearGradient>
<linearGradient id="paint14_linear_34_14027" x1="357" y1="157.186" x2="359.337" y2="161.858" gradientUnits="userSpaceOnUse">
<stop stop-color="#22685C"/>
<stop offset="1" stop-color="#083831"/>
</linearGradient>
<linearGradient id="paint15_linear_34_14027" x1="362.007" y1="143" x2="368.556" y2="148.794" gradientUnits="userSpaceOnUse">
<stop stop-color="#22685C"/>
<stop offset="1" stop-color="#083831"/>
</linearGradient>
<linearGradient id="paint16_linear_34_14027" x1="359.222" y1="183" x2="362.511" y2="209.311" gradientUnits="userSpaceOnUse">
<stop stop-color="white"/>
<stop offset="1" stop-color="#EBEBEB"/>
</linearGradient>
<radialGradient id="paint17_radial_34_14027" cx="0" cy="0" r="1" gradientUnits="userSpaceOnUse" gradientTransform="translate(360.306 189.771) rotate(56.3099) scale(24.7381 21.408)">
<stop offset="0.177083" stop-color="white"/>
<stop offset="1" stop-color="#B8B8B8"/>
</radialGradient>
<linearGradient id="paint18_linear_34_14027" x1="360.396" y1="183" x2="363.897" y2="209.256" gradientUnits="userSpaceOnUse">
<stop stop-color="#BBBBBB"/>
<stop offset="1" stop-color="#888888"/>
</linearGradient>
<linearGradient id="paint19_linear_34_14027" x1="358" y1="188" x2="374.403" y2="202.556" gradientUnits="userSpaceOnUse">
<stop stop-color="#22685C"/>
<stop offset="1" stop-color="#083831"/>
</linearGradient>
<linearGradient id="paint20_linear_34_14027" x1="359.222" y1="226" x2="362.511" y2="252.311" gradientUnits="userSpaceOnUse">
<stop stop-color="white"/>
<stop offset="1" stop-color="#EBEBEB"/>
</linearGradient>
<radialGradient id="paint21_radial_34_14027" cx="0" cy="0" r="1" gradientUnits="userSpaceOnUse" gradientTransform="translate(360.306 232.771) rotate(56.3099) scale(24.7381 21.408)">
<stop offset="0.177083" stop-color="white"/>
<stop offset="1" stop-color="#B8B8B8"/>
</radialGradient>
<linearGradient id="paint22_linear_34_14027" x1="360.396" y1="226" x2="363.897" y2="252.256" gradientUnits="userSpaceOnUse">
<stop stop-color="#BBBBBB"/>
<stop offset="1" stop-color="#888888"/>
</linearGradient>
<linearGradient id="paint23_linear_34_14027" x1="356" y1="235.635" x2="366.354" y2="244.028" gradientUnits="userSpaceOnUse">
<stop stop-color="#22685C"/>
<stop offset="1" stop-color="#083831"/>
</linearGradient>
<linearGradient id="paint24_linear_34_14027" x1="365.916" y1="235.66" x2="376.26" y2="241.95" gradientUnits="userSpaceOnUse">
<stop stop-color="#22685C"/>
<stop offset="1" stop-color="#083831"/>
</linearGradient>
<linearGradient id="paint25_linear_34_14027" x1="359.155" y1="231" x2="361.089" y2="237.579" gradientUnits="userSpaceOnUse">
<stop stop-color="#22685C"/>
<stop offset="1" stop-color="#083831"/>
</linearGradient>
<linearGradient id="paint26_linear_34_14027" x1="352.934" y1="80.8768" x2="367.547" y2="84.3855" gradientUnits="userSpaceOnUse">
<stop stop-color="white"/>
<stop offset="1" stop-color="#FAFAFA"/>
</linearGradient>
<linearGradient id="paint27_linear_34_14027" x1="348.019" y1="66" x2="377.668" y2="100.523" gradientUnits="userSpaceOnUse">
<stop stop-color="#22685C"/>
<stop offset="1" stop-color="#083831"/>
</linearGradient>
<linearGradient id="paint28_linear_34_14027" x1="353.832" y1="77.287" x2="359.472" y2="92.4998" gradientUnits="userSpaceOnUse">
<stop stop-color="#22685C"/>
<stop offset="1" stop-color="#083831"/>
</linearGradient>
</defs>
</svg>
