<svg width="640" height="282" viewBox="0 0 640 282" fill="none" xmlns="http://www.w3.org/2000/svg">
<rect width="640" height="282" fill="white"/>
<rect width="640" height="282" fill="url(#paint0_radial_34_18263)" fill-opacity="0.075"/>
<rect x="0.5" y="0.5" width="639" height="281" stroke="#333333" stroke-opacity="0.2"/>
<g filter="url(#filter0_f_34_18263)">
<rect x="356" y="50" width="234" height="182" rx="16" fill="#CCCCCC" fill-opacity="0.8"/>
</g>
<rect x="356" y="50" width="234" height="182" rx="16" fill="white"/>
<rect x="356" y="50" width="234" height="182" rx="16" fill="url(#paint1_linear_34_18263)" fill-opacity="0.33"/>
<path d="M428.57 77.375H425.352V87H423.492V77.375H420.281V75.7969H428.57V77.375ZM434.602 87H432.844V85.75H432.812C432.26 86.7083 431.451 87.1875 430.383 87.1875C429.596 87.1875 428.979 86.974 428.531 86.5469C428.089 86.1198 427.867 85.5547 427.867 84.8516C427.867 83.3411 428.737 82.4609 430.477 82.2109L432.852 81.875C432.852 80.7344 432.31 80.1641 431.227 80.1641C430.273 80.1641 429.414 80.4922 428.648 81.1484V79.5625C429.492 79.0625 430.466 78.8125 431.57 78.8125C433.591 78.8125 434.602 79.8073 434.602 81.7969V87ZM432.852 83.0703L431.172 83.3047C430.651 83.3724 430.258 83.5 429.992 83.6875C429.732 83.8698 429.602 84.1927 429.602 84.6562C429.602 84.9948 429.721 85.2734 429.961 85.4922C430.206 85.7057 430.531 85.8125 430.938 85.8125C431.49 85.8125 431.945 85.6198 432.305 85.2344C432.669 84.8438 432.852 84.3542 432.852 83.7656V83.0703ZM442.547 86.6328C441.906 87.0026 441.148 87.1875 440.273 87.1875C439.086 87.1875 438.128 86.8177 437.398 86.0781C436.669 85.3333 436.305 84.3698 436.305 83.1875C436.305 81.8698 436.695 80.8125 437.477 80.0156C438.263 79.2135 439.312 78.8125 440.625 78.8125C441.354 78.8125 441.997 78.9401 442.555 79.1953V80.8828C441.997 80.4661 441.404 80.2578 440.773 80.2578C440.008 80.2578 439.38 80.5182 438.891 81.0391C438.401 81.5547 438.156 82.2318 438.156 83.0703C438.156 83.8984 438.385 84.5521 438.844 85.0312C439.307 85.5104 439.927 85.75 440.703 85.75C441.354 85.75 441.969 85.5182 442.547 85.0547V86.6328ZM448.57 86.9141C448.216 87.0911 447.75 87.1797 447.172 87.1797C445.62 87.1797 444.844 86.4349 444.844 84.9453V80.4219H443.508V79H444.844V77.1484L446.656 76.6328V79H448.57V80.4219H446.656V84.4219C446.656 84.8958 446.742 85.2344 446.914 85.4375C447.086 85.6406 447.372 85.7422 447.773 85.7422C448.081 85.7422 448.346 85.6536 448.57 85.4766V86.9141ZM451.047 77.3203C450.75 77.3203 450.495 77.224 450.281 77.0312C450.073 76.8385 449.969 76.5938 449.969 76.2969C449.969 76 450.073 75.7526 450.281 75.5547C450.495 75.3568 450.75 75.2578 451.047 75.2578C451.354 75.2578 451.615 75.3568 451.828 75.5547C452.042 75.7526 452.148 76 452.148 76.2969C452.148 76.5781 452.042 76.8203 451.828 77.0234C451.615 77.2214 451.354 77.3203 451.047 77.3203ZM451.945 87H450.133V79H451.945V87ZM460.047 86.6328C459.406 87.0026 458.648 87.1875 457.773 87.1875C456.586 87.1875 455.628 86.8177 454.898 86.0781C454.169 85.3333 453.805 84.3698 453.805 83.1875C453.805 81.8698 454.195 80.8125 454.977 80.0156C455.763 79.2135 456.812 78.8125 458.125 78.8125C458.854 78.8125 459.497 78.9401 460.055 79.1953V80.8828C459.497 80.4661 458.904 80.2578 458.273 80.2578C457.508 80.2578 456.88 80.5182 456.391 81.0391C455.901 81.5547 455.656 82.2318 455.656 83.0703C455.656 83.8984 455.885 84.5521 456.344 85.0312C456.807 85.5104 457.427 85.75 458.203 85.75C458.854 85.75 459.469 85.5182 460.047 85.0547V86.6328ZM467.992 87H466.234V85.75H466.203C465.651 86.7083 464.841 87.1875 463.773 87.1875C462.987 87.1875 462.37 86.974 461.922 86.5469C461.479 86.1198 461.258 85.5547 461.258 84.8516C461.258 83.3411 462.128 82.4609 463.867 82.2109L466.242 81.875C466.242 80.7344 465.701 80.1641 464.617 80.1641C463.664 80.1641 462.805 80.4922 462.039 81.1484V79.5625C462.883 79.0625 463.857 78.8125 464.961 78.8125C466.982 78.8125 467.992 79.8073 467.992 81.7969V87ZM466.242 83.0703L464.562 83.3047C464.042 83.3724 463.648 83.5 463.383 83.6875C463.122 83.8698 462.992 84.1927 462.992 84.6562C462.992 84.9948 463.112 85.2734 463.352 85.4922C463.596 85.7057 463.922 85.8125 464.328 85.8125C464.88 85.8125 465.336 85.6198 465.695 85.2344C466.06 84.8438 466.242 84.3542 466.242 83.7656V83.0703ZM472.031 87H470.211V75.1562H472.031V87ZM480.648 85.8203H480.617V90.6797H478.805V79H480.617V80.4062H480.648C481.268 79.3438 482.174 78.8125 483.367 78.8125C484.383 78.8125 485.174 79.1693 485.742 79.8828C486.31 80.5964 486.594 81.5547 486.594 82.7578C486.594 84.0911 486.273 85.1589 485.633 85.9609C484.992 86.763 484.117 87.1641 483.008 87.1641C481.987 87.1641 481.201 86.7161 480.648 85.8203ZM480.602 82.6641V83.6562C480.602 84.2396 480.786 84.7344 481.156 85.1406C481.531 85.5469 482.005 85.75 482.578 85.75C483.25 85.75 483.776 85.4896 484.156 84.9688C484.542 84.4427 484.734 83.7109 484.734 82.7734C484.734 81.987 484.555 81.3724 484.195 80.9297C483.841 80.4818 483.359 80.2578 482.75 80.2578C482.104 80.2578 481.583 80.487 481.188 80.9453C480.797 81.4036 480.602 81.9766 480.602 82.6641ZM490.266 87H488.445V75.1562H490.266V87ZM498.773 87H497.016V85.75H496.984C496.432 86.7083 495.622 87.1875 494.555 87.1875C493.768 87.1875 493.151 86.974 492.703 86.5469C492.26 86.1198 492.039 85.5547 492.039 84.8516C492.039 83.3411 492.909 82.4609 494.648 82.2109L497.023 81.875C497.023 80.7344 496.482 80.1641 495.398 80.1641C494.445 80.1641 493.586 80.4922 492.82 81.1484V79.5625C493.664 79.0625 494.638 78.8125 495.742 78.8125C497.763 78.8125 498.773 79.8073 498.773 81.7969V87ZM497.023 83.0703L495.344 83.3047C494.823 83.3724 494.43 83.5 494.164 83.6875C493.904 83.8698 493.773 84.1927 493.773 84.6562C493.773 84.9948 493.893 85.2734 494.133 85.4922C494.378 85.7057 494.703 85.8125 495.109 85.8125C495.661 85.8125 496.117 85.6198 496.477 85.2344C496.841 84.8438 497.023 84.3542 497.023 83.7656V83.0703ZM508.117 87H506.305V82.4922C506.305 80.9974 505.776 80.25 504.719 80.25C504.167 80.25 503.711 80.4583 503.352 80.875C502.992 81.2865 502.812 81.8073 502.812 82.4375V87H500.992V79H502.812V80.3281H502.844C503.443 79.3177 504.307 78.8125 505.438 78.8125C506.307 78.8125 506.971 79.0964 507.43 79.6641C507.888 80.2266 508.117 81.0417 508.117 82.1094V87ZM517.461 87H515.648V82.4922C515.648 80.9974 515.12 80.25 514.062 80.25C513.51 80.25 513.055 80.4583 512.695 80.875C512.336 81.2865 512.156 81.8073 512.156 82.4375V87H510.336V79H512.156V80.3281H512.188C512.786 79.3177 513.651 78.8125 514.781 78.8125C515.651 78.8125 516.315 79.0964 516.773 79.6641C517.232 80.2266 517.461 81.0417 517.461 82.1094V87ZM520.594 77.3203C520.297 77.3203 520.042 77.224 519.828 77.0312C519.62 76.8385 519.516 76.5938 519.516 76.2969C519.516 76 519.62 75.7526 519.828 75.5547C520.042 75.3568 520.297 75.2578 520.594 75.2578C520.901 75.2578 521.161 75.3568 521.375 75.5547C521.589 75.7526 521.695 76 521.695 76.2969C521.695 76.5781 521.589 76.8203 521.375 77.0234C521.161 77.2214 520.901 77.3203 520.594 77.3203ZM521.492 87H519.68V79H521.492V87ZM530.992 87H529.18V82.4922C529.18 80.9974 528.651 80.25 527.594 80.25C527.042 80.25 526.586 80.4583 526.227 80.875C525.867 81.2865 525.688 81.8073 525.688 82.4375V87H523.867V79H525.688V80.3281H525.719C526.318 79.3177 527.182 78.8125 528.312 78.8125C529.182 78.8125 529.846 79.0964 530.305 79.6641C530.763 80.2266 530.992 81.0417 530.992 82.1094V87ZM540.492 86.3594C540.492 89.2969 539.016 90.7656 536.062 90.7656C535.021 90.7656 534.112 90.5911 533.336 90.2422V88.5859C534.211 89.0859 535.042 89.3359 535.828 89.3359C537.729 89.3359 538.68 88.401 538.68 86.5312V85.6562H538.648C538.049 86.6771 537.148 87.1875 535.945 87.1875C534.971 87.1875 534.185 86.8333 533.586 86.125C532.992 85.4115 532.695 84.4557 532.695 83.2578C532.695 81.8984 533.016 80.8177 533.656 80.0156C534.297 79.2135 535.177 78.8125 536.297 78.8125C537.354 78.8125 538.138 79.2448 538.648 80.1094H538.68V79H540.492V86.3594ZM538.695 83.3359V82.2969C538.695 81.7344 538.508 81.2552 538.133 80.8594C537.763 80.4583 537.299 80.2578 536.742 80.2578C536.055 80.2578 535.516 80.513 535.125 81.0234C534.74 81.5286 534.547 82.237 534.547 83.1484C534.547 83.9349 534.732 84.5651 535.102 85.0391C535.477 85.5078 535.971 85.7422 536.586 85.7422C537.211 85.7422 537.719 85.5182 538.109 85.0703C538.5 84.6172 538.695 84.0391 538.695 83.3359Z" fill="url(#paint2_linear_34_18263)"/>
<path d="M362 111L584 111" stroke="#104C42" stroke-opacity="0.66" stroke-width="2" stroke-linecap="round"/>
<path d="M425.236 157.164C423.846 157.164 422.732 156.706 421.894 155.79C421.06 154.874 420.643 153.682 420.643 152.215C420.643 150.638 421.069 149.38 421.921 148.441C422.773 147.503 423.933 147.033 425.4 147.033C426.754 147.033 427.843 147.489 428.668 148.4C429.497 149.312 429.912 150.504 429.912 151.976C429.912 153.575 429.488 154.84 428.641 155.77C427.793 156.699 426.658 157.164 425.236 157.164ZM425.318 148.072C424.288 148.072 423.452 148.444 422.81 149.187C422.167 149.929 421.846 150.905 421.846 152.112C421.846 153.32 422.158 154.293 422.782 155.031C423.411 155.765 424.229 156.132 425.236 156.132C426.312 156.132 427.16 155.781 427.779 155.079C428.399 154.377 428.709 153.395 428.709 152.133C428.709 150.839 428.408 149.838 427.807 149.132C427.205 148.425 426.376 148.072 425.318 148.072ZM432.838 155.988H432.811V157H431.689V146.637H432.811V151.23H432.838C433.389 150.301 434.196 149.836 435.258 149.836C436.156 149.836 436.857 150.15 437.363 150.779C437.874 151.404 438.129 152.242 438.129 153.295C438.129 154.466 437.844 155.405 437.274 156.111C436.705 156.813 435.925 157.164 434.937 157.164C434.011 157.164 433.312 156.772 432.838 155.988ZM432.811 153.165V154.143C432.811 154.721 432.997 155.214 433.371 155.619C433.749 156.02 434.228 156.221 434.807 156.221C435.486 156.221 436.017 155.961 436.399 155.441C436.787 154.922 436.98 154.2 436.98 153.274C436.98 152.495 436.8 151.884 436.44 151.442C436.08 151 435.593 150.779 434.978 150.779C434.326 150.779 433.802 151.007 433.405 151.463C433.009 151.914 432.811 152.481 432.811 153.165ZM441.041 156.706C441.041 157.854 440.809 158.739 440.344 159.358C439.883 159.983 439.223 160.295 438.361 160.295C438.042 160.295 437.732 160.222 437.432 160.076V159.03C437.769 159.235 438.088 159.338 438.389 159.338C439.41 159.338 439.92 158.522 439.92 156.891V150H441.041V156.706ZM440.494 148.223C440.294 148.223 440.123 148.154 439.981 148.018C439.84 147.881 439.77 147.708 439.77 147.498C439.77 147.288 439.84 147.115 439.981 146.979C440.123 146.837 440.294 146.767 440.494 146.767C440.699 146.767 440.872 146.837 441.014 146.979C441.16 147.115 441.232 147.288 441.232 147.498C441.232 147.699 441.16 147.869 441.014 148.011C440.872 148.152 440.699 148.223 440.494 148.223ZM448.937 153.78H443.994C444.012 154.56 444.222 155.161 444.623 155.585C445.024 156.009 445.576 156.221 446.277 156.221C447.066 156.221 447.79 155.961 448.451 155.441V156.494C447.836 156.941 447.022 157.164 446.011 157.164C445.022 157.164 444.245 156.847 443.68 156.214C443.115 155.576 442.832 154.68 442.832 153.527C442.832 152.438 443.14 151.552 443.755 150.868C444.375 150.18 445.143 149.836 446.059 149.836C446.975 149.836 447.683 150.132 448.185 150.725C448.686 151.317 448.937 152.14 448.937 153.192V153.78ZM447.788 152.83C447.784 152.183 447.626 151.679 447.316 151.319C447.011 150.959 446.585 150.779 446.038 150.779C445.509 150.779 445.061 150.968 444.691 151.347C444.322 151.725 444.094 152.219 444.008 152.83H447.788ZM455.41 156.679C454.872 157.002 454.234 157.164 453.496 157.164C452.498 157.164 451.691 156.84 451.076 156.193C450.465 155.542 450.16 154.699 450.16 153.664C450.16 152.511 450.491 151.586 451.151 150.889C451.812 150.187 452.694 149.836 453.797 149.836C454.412 149.836 454.954 149.95 455.424 150.178V151.326C454.904 150.962 454.348 150.779 453.756 150.779C453.04 150.779 452.452 151.037 451.992 151.552C451.536 152.062 451.309 152.734 451.309 153.568C451.309 154.389 451.523 155.036 451.951 155.51C452.384 155.984 452.963 156.221 453.688 156.221C454.298 156.221 454.872 156.018 455.41 155.612V156.679ZM460.353 156.932C460.088 157.077 459.74 157.15 459.307 157.15C458.081 157.15 457.468 156.467 457.468 155.1V150.957H456.265V150H457.468V148.291L458.589 147.929V150H460.353V150.957H458.589V154.901C458.589 155.371 458.669 155.706 458.828 155.906C458.988 156.107 459.252 156.207 459.621 156.207C459.904 156.207 460.147 156.13 460.353 155.975V156.932ZM462.424 148.223C462.223 148.223 462.052 148.154 461.911 148.018C461.77 147.881 461.699 147.708 461.699 147.498C461.699 147.288 461.77 147.115 461.911 146.979C462.052 146.837 462.223 146.767 462.424 146.767C462.629 146.767 462.802 146.837 462.943 146.979C463.089 147.115 463.162 147.288 463.162 147.498C463.162 147.699 463.089 147.869 462.943 148.011C462.802 148.152 462.629 148.223 462.424 148.223ZM462.971 157H461.85V150H462.971V157ZM470.743 150L467.954 157H466.854L464.201 150H465.432L467.209 155.086C467.341 155.46 467.423 155.785 467.455 156.063H467.482C467.528 155.713 467.601 155.396 467.701 155.113L469.561 150H470.743ZM477.579 153.78H472.637C472.655 154.56 472.865 155.161 473.266 155.585C473.667 156.009 474.218 156.221 474.92 156.221C475.708 156.221 476.433 155.961 477.094 155.441V156.494C476.479 156.941 475.665 157.164 474.653 157.164C473.664 157.164 472.887 156.847 472.322 156.214C471.757 155.576 471.475 154.68 471.475 153.527C471.475 152.438 471.782 151.552 472.397 150.868C473.017 150.18 473.785 149.836 474.701 149.836C475.617 149.836 476.326 150.132 476.827 150.725C477.328 151.317 477.579 152.14 477.579 153.192V153.78ZM476.431 152.83C476.426 152.183 476.269 151.679 475.959 151.319C475.654 150.959 475.228 150.779 474.681 150.779C474.152 150.779 473.703 150.968 473.334 151.347C472.965 151.725 472.737 152.219 472.65 152.83H476.431ZM478.857 156.747V155.544C479.468 155.995 480.14 156.221 480.874 156.221C481.858 156.221 482.351 155.893 482.351 155.236C482.351 155.049 482.307 154.892 482.221 154.765C482.139 154.632 482.025 154.516 481.879 154.416C481.738 154.316 481.569 154.227 481.373 154.149C481.182 154.067 480.974 153.983 480.751 153.896C480.441 153.773 480.168 153.65 479.931 153.527C479.698 153.4 479.502 153.258 479.343 153.104C479.188 152.944 479.069 152.764 478.987 152.563C478.91 152.363 478.871 152.128 478.871 151.859C478.871 151.531 478.946 151.242 479.097 150.991C479.247 150.736 479.448 150.524 479.698 150.355C479.949 150.182 480.234 150.052 480.553 149.966C480.876 149.879 481.209 149.836 481.551 149.836C482.157 149.836 482.699 149.941 483.178 150.15V151.285C482.663 150.948 482.07 150.779 481.4 150.779C481.191 150.779 481.002 150.804 480.833 150.854C480.664 150.9 480.519 150.966 480.396 151.053C480.277 151.139 480.184 151.244 480.115 151.367C480.051 151.486 480.02 151.618 480.02 151.764C480.02 151.946 480.051 152.099 480.115 152.222C480.184 152.345 480.282 152.454 480.409 152.55C480.537 152.646 480.692 152.732 480.874 152.81C481.056 152.887 481.264 152.971 481.496 153.062C481.806 153.181 482.084 153.304 482.33 153.432C482.576 153.555 482.786 153.696 482.959 153.855C483.132 154.01 483.264 154.19 483.355 154.396C483.451 154.601 483.499 154.844 483.499 155.127C483.499 155.473 483.422 155.774 483.267 156.029C483.116 156.285 482.913 156.496 482.658 156.665C482.403 156.834 482.109 156.959 481.776 157.041C481.444 157.123 481.095 157.164 480.73 157.164C480.01 157.164 479.386 157.025 478.857 156.747Z" fill="url(#paint3_linear_34_18263)"/>
<path d="M428.107 201H426.508L422.721 196.516C422.579 196.347 422.493 196.233 422.461 196.174H422.434V201H421.285V191.197H422.434V195.805H422.461C422.525 195.704 422.611 195.593 422.721 195.47L426.385 191.197H427.813L423.609 195.9L428.107 201ZM430.555 197.295V201H429.406V191.197H432.1C433.148 191.197 433.959 191.452 434.533 191.963C435.112 192.473 435.401 193.193 435.401 194.123C435.401 195.053 435.08 195.814 434.438 196.406C433.799 196.999 432.936 197.295 431.847 197.295H430.555ZM430.555 192.236V196.256H431.758C432.551 196.256 433.155 196.076 433.569 195.716C433.989 195.351 434.198 194.839 434.198 194.178C434.198 192.883 433.433 192.236 431.901 192.236H430.555ZM438.402 201H437.254V191.197H438.402V201ZM440.412 200.747V199.544C441.023 199.995 441.695 200.221 442.429 200.221C443.413 200.221 443.905 199.893 443.905 199.236C443.905 199.049 443.862 198.892 443.775 198.765C443.693 198.632 443.579 198.516 443.434 198.416C443.292 198.316 443.124 198.227 442.928 198.149C442.736 198.067 442.529 197.983 442.306 197.896C441.996 197.773 441.722 197.65 441.485 197.527C441.253 197.4 441.057 197.258 440.897 197.104C440.743 196.944 440.624 196.764 440.542 196.563C440.465 196.363 440.426 196.128 440.426 195.859C440.426 195.531 440.501 195.242 440.651 194.991C440.802 194.736 441.002 194.524 441.253 194.355C441.504 194.182 441.788 194.052 442.107 193.966C442.431 193.879 442.764 193.836 443.105 193.836C443.712 193.836 444.254 193.941 444.732 194.15V195.285C444.217 194.948 443.625 194.779 442.955 194.779C442.745 194.779 442.556 194.804 442.388 194.854C442.219 194.9 442.073 194.966 441.95 195.053C441.832 195.139 441.738 195.244 441.67 195.367C441.606 195.486 441.574 195.618 441.574 195.764C441.574 195.946 441.606 196.099 441.67 196.222C441.738 196.345 441.836 196.454 441.964 196.55C442.091 196.646 442.246 196.732 442.429 196.81C442.611 196.887 442.818 196.971 443.051 197.062C443.361 197.181 443.639 197.304 443.885 197.432C444.131 197.555 444.34 197.696 444.514 197.855C444.687 198.01 444.819 198.19 444.91 198.396C445.006 198.601 445.054 198.844 445.054 199.127C445.054 199.473 444.976 199.774 444.821 200.029C444.671 200.285 444.468 200.496 444.213 200.665C443.958 200.834 443.664 200.959 443.331 201.041C442.998 201.123 442.65 201.164 442.285 201.164C441.565 201.164 440.941 201.025 440.412 200.747ZM453.551 201.164C452.516 201.164 451.689 200.838 451.069 200.187C450.454 199.53 450.146 198.662 450.146 197.582C450.146 196.406 450.468 195.488 451.11 194.827C451.753 194.166 452.621 193.836 453.715 193.836C454.758 193.836 455.572 194.157 456.155 194.8C456.743 195.442 457.037 196.333 457.037 197.473C457.037 198.589 456.72 199.485 456.087 200.159C455.458 200.829 454.613 201.164 453.551 201.164ZM453.633 194.779C452.913 194.779 452.343 195.025 451.924 195.518C451.505 196.005 451.295 196.68 451.295 197.541C451.295 198.37 451.507 199.024 451.931 199.503C452.354 199.981 452.922 200.221 453.633 200.221C454.357 200.221 454.913 199.986 455.301 199.517C455.693 199.047 455.889 198.38 455.889 197.514C455.889 196.639 455.693 195.964 455.301 195.49C454.913 195.016 454.357 194.779 453.633 194.779ZM462.479 195.135C462.283 194.984 462 194.909 461.631 194.909C461.152 194.909 460.751 195.135 460.428 195.586C460.109 196.037 459.949 196.652 459.949 197.432V201H458.828V194H459.949V195.442H459.977C460.136 194.95 460.38 194.567 460.708 194.294C461.036 194.016 461.403 193.877 461.809 193.877C462.1 193.877 462.324 193.909 462.479 193.973V195.135ZM471.639 201.164C470.249 201.164 469.134 200.706 468.296 199.79C467.462 198.874 467.045 197.682 467.045 196.215C467.045 194.638 467.471 193.38 468.323 192.441C469.175 191.503 470.335 191.033 471.803 191.033C473.156 191.033 474.245 191.489 475.07 192.4C475.9 193.312 476.314 194.504 476.314 195.976C476.314 197.575 475.891 198.84 475.043 199.77C474.195 200.699 473.061 201.164 471.639 201.164ZM471.721 192.072C470.691 192.072 469.854 192.444 469.212 193.187C468.569 193.929 468.248 194.905 468.248 196.112C468.248 197.32 468.56 198.293 469.185 199.031C469.813 199.765 470.632 200.132 471.639 200.132C472.714 200.132 473.562 199.781 474.182 199.079C474.801 198.377 475.111 197.395 475.111 196.133C475.111 194.839 474.811 193.838 474.209 193.132C473.607 192.425 472.778 192.072 471.721 192.072ZM485.064 201H483.465L479.678 196.516C479.536 196.347 479.45 196.233 479.418 196.174H479.391V201H478.242V191.197H479.391V195.805H479.418C479.482 195.704 479.568 195.593 479.678 195.47L483.342 191.197H484.771L480.566 195.9L485.064 201ZM493.391 201H492.023L490.383 198.252C490.232 197.997 490.087 197.78 489.945 197.603C489.804 197.42 489.658 197.272 489.508 197.158C489.362 197.044 489.202 196.962 489.029 196.912C488.861 196.857 488.669 196.83 488.455 196.83H487.512V201H486.363V191.197H489.289C489.717 191.197 490.112 191.252 490.472 191.361C490.836 191.466 491.151 191.628 491.415 191.847C491.684 192.065 491.894 192.339 492.044 192.667C492.194 192.991 492.27 193.371 492.27 193.809C492.27 194.15 492.217 194.465 492.112 194.752C492.012 195.035 491.866 195.287 491.675 195.511C491.488 195.734 491.26 195.925 490.991 196.085C490.727 196.24 490.428 196.361 490.096 196.447V196.475C490.26 196.548 490.401 196.632 490.52 196.728C490.643 196.819 490.759 196.928 490.868 197.056C490.978 197.183 491.085 197.329 491.189 197.493C491.299 197.653 491.42 197.84 491.552 198.054L493.391 201ZM487.512 192.236V195.791H489.07C489.357 195.791 489.622 195.748 489.863 195.661C490.109 195.575 490.321 195.451 490.499 195.292C490.677 195.128 490.816 194.93 490.916 194.697C491.016 194.46 491.066 194.196 491.066 193.904C491.066 193.38 490.896 192.972 490.554 192.681C490.216 192.384 489.727 192.236 489.084 192.236H487.512ZM494.17 200.747V199.544C494.781 199.995 495.453 200.221 496.187 200.221C497.171 200.221 497.663 199.893 497.663 199.236C497.663 199.049 497.62 198.892 497.533 198.765C497.451 198.632 497.337 198.516 497.191 198.416C497.05 198.316 496.882 198.227 496.686 198.149C496.494 198.067 496.287 197.983 496.063 197.896C495.754 197.773 495.48 197.65 495.243 197.527C495.011 197.4 494.815 197.258 494.655 197.104C494.5 196.944 494.382 196.764 494.3 196.563C494.222 196.363 494.184 196.128 494.184 195.859C494.184 195.531 494.259 195.242 494.409 194.991C494.56 194.736 494.76 194.524 495.011 194.355C495.261 194.182 495.546 194.052 495.865 193.966C496.189 193.879 496.521 193.836 496.863 193.836C497.469 193.836 498.012 193.941 498.49 194.15V195.285C497.975 194.948 497.383 194.779 496.713 194.779C496.503 194.779 496.314 194.804 496.146 194.854C495.977 194.9 495.831 194.966 495.708 195.053C495.59 195.139 495.496 195.244 495.428 195.367C495.364 195.486 495.332 195.618 495.332 195.764C495.332 195.946 495.364 196.099 495.428 196.222C495.496 196.345 495.594 196.454 495.722 196.55C495.849 196.646 496.004 196.732 496.187 196.81C496.369 196.887 496.576 196.971 496.809 197.062C497.118 197.181 497.396 197.304 497.643 197.432C497.889 197.555 498.098 197.696 498.271 197.855C498.445 198.01 498.577 198.19 498.668 198.396C498.764 198.601 498.812 198.844 498.812 199.127C498.812 199.473 498.734 199.774 498.579 200.029C498.429 200.285 498.226 200.496 497.971 200.665C497.715 200.834 497.422 200.959 497.089 201.041C496.756 201.123 496.408 201.164 496.043 201.164C495.323 201.164 494.699 201.025 494.17 200.747Z" fill="url(#paint4_linear_34_18263)"/>
<path d="M383 142.5C383 140.567 384.567 139 386.5 139H405.5C407.433 139 409 140.567 409 142.5V161.5C409 163.433 407.433 165 405.5 165H386.5C384.567 165 383 163.433 383 161.5V142.5Z" fill="url(#paint5_linear_34_18263)"/>
<path d="M383 142.5C383 140.567 384.567 139 386.5 139H405.5C407.433 139 409 140.567 409 142.5V161.5C409 163.433 407.433 165 405.5 165H386.5C384.567 165 383 163.433 383 161.5V142.5Z" fill="url(#paint6_radial_34_18263)" fill-opacity="0.2"/>
<path fill-rule="evenodd" clip-rule="evenodd" d="M405.5 140H386.5C385.119 140 384 141.119 384 142.5V161.5C384 162.881 385.119 164 386.5 164H405.5C406.881 164 408 162.881 408 161.5V142.5C408 141.119 406.881 140 405.5 140ZM386.5 139C384.567 139 383 140.567 383 142.5V161.5C383 163.433 384.567 165 386.5 165H405.5C407.433 165 409 163.433 409 161.5V142.5C409 140.567 407.433 139 405.5 139H386.5Z" fill="url(#paint7_linear_34_18263)"/>
<path d="M398.014 157.186H403.851V160.106H398.014V157.186Z" fill="url(#paint8_linear_34_18263)"/>
<path d="M400.514 152.596V155.6L400.097 155.183C399.956 155.04 399.722 155.04 399.581 155.183C399.436 155.326 399.436 155.558 399.581 155.7L400.676 156.795C400.817 156.938 401.051 156.938 401.192 156.795L402.287 155.7C402.432 155.556 402.432 155.323 402.287 155.18C402.142 155.036 401.908 155.037 401.767 155.181L401.349 155.598V151.762H397.804L395.925 149.963L394.046 151.762H390.501V155.6L390.083 155.183C389.943 155.04 389.708 155.04 389.568 155.183C389.423 155.326 389.423 155.558 389.568 155.7L390.663 156.795C390.803 156.938 391.038 156.938 391.178 156.795L392.273 155.7C392.418 155.556 392.418 155.323 392.273 155.18C392.129 155.036 391.894 155.037 391.754 155.181L391.336 155.598V152.596H394.046L395.925 154.474L397.804 152.596H400.514Z" fill="url(#paint9_linear_34_18263)"/>
<path d="M388 157.186H393.838V160.106H388V157.186Z" fill="url(#paint10_linear_34_18263)"/>
<path d="M395.529 148.322L395.09 147.879C394.95 147.737 394.715 147.737 394.575 147.879C394.43 148.022 394.43 148.254 394.575 148.397L395.67 149.492C395.811 149.634 396.045 149.634 396.186 149.492L397.281 148.397C397.426 148.253 397.426 148.02 397.281 147.878C397.136 147.734 396.901 147.735 396.761 147.879L396.365 148.278V145.921H398.844V143H393.007V145.921H395.529V148.322Z" fill="url(#paint11_linear_34_18263)"/>
<path d="M383 186.5C383 184.567 384.567 183 386.5 183H405.5C407.433 183 409 184.567 409 186.5V205.5C409 207.433 407.433 209 405.5 209H386.5C384.567 209 383 207.433 383 205.5V186.5Z" fill="url(#paint12_linear_34_18263)"/>
<path d="M383 186.5C383 184.567 384.567 183 386.5 183H405.5C407.433 183 409 184.567 409 186.5V205.5C409 207.433 407.433 209 405.5 209H386.5C384.567 209 383 207.433 383 205.5V186.5Z" fill="url(#paint13_radial_34_18263)" fill-opacity="0.2"/>
<path fill-rule="evenodd" clip-rule="evenodd" d="M405.5 184H386.5C385.119 184 384 185.119 384 186.5V205.5C384 206.881 385.119 208 386.5 208H405.5C406.881 208 408 206.881 408 205.5V186.5C408 185.119 406.881 184 405.5 184ZM386.5 183C384.567 183 383 184.567 383 186.5V205.5C383 207.433 384.567 209 386.5 209H405.5C407.433 209 409 207.433 409 205.5V186.5C409 184.567 407.433 183 405.5 183H386.5Z" fill="url(#paint14_linear_34_18263)"/>
<path d="M397.038 191.271V192.104C396.889 192.104 396.761 192.083 396.612 192.083C396.469 192.08 396.326 192.087 396.185 192.104V191.271C395.382 191.309 394.59 191.471 393.838 191.75L394.158 192.5C393.88 192.604 393.624 192.708 393.368 192.833L393.048 192.063C392.652 192.252 392.274 192.475 391.917 192.729L391 191.833C392.616 190.642 394.586 189.998 396.612 190C401.797 190 406 194.104 406 199.167V200H404.72V199.167C404.717 198.332 404.58 197.502 404.314 196.708L403.525 197.021C403.44 196.75 403.333 196.5 403.226 196.25L404.016 195.937C403.693 195.231 403.261 194.578 402.735 194L402.138 194.583C401.95 194.372 401.75 194.17 401.541 193.979L402.138 193.396C401.551 192.863 400.89 192.414 400.175 192.063L399.855 192.833C399.599 192.708 399.343 192.604 399.065 192.5L399.385 191.729C398.633 191.457 397.841 191.302 397.038 191.271Z" fill="url(#paint15_linear_34_18263)"/>
<path d="M387.823 195L388.815 195.736C388.561 196.026 388.337 196.329 388.146 196.644L389 196.918C388.885 197.123 388.769 197.346 388.677 197.551L387.823 197.295C387.536 197.947 387.388 198.629 387.385 199.315V200H386V199.315C385.995 197.772 386.632 196.265 387.823 195Z" fill="url(#paint16_linear_34_18263)"/>
<path d="M396.696 199.508C396.738 199.529 396.759 199.57 396.801 199.612C397.102 199.968 397.057 200.501 396.699 200.801C396.342 201.102 395.808 201.056 395.507 200.7C395.506 200.699 395.505 200.698 395.504 200.697L389 193L396.696 199.508Z" fill="url(#paint17_linear_34_18263)"/>
<path d="M375.75 194C375.75 194.414 375.414 194.75 375 194.75H368.25C367.836 194.75 367.5 194.414 367.5 194C367.5 193.586 367.836 193.25 368.25 193.25H374.25V187.25C374.25 186.836 374.586 186.5 375 186.5C375.414 186.5 375.75 186.836 375.75 187.25V194ZM374.459 148.48C374.746 148.182 375.221 148.172 375.52 148.459C375.818 148.746 375.828 149.221 375.541 149.52L374.459 148.48ZM374.47 194.53C361.671 181.732 361.686 161.765 374.459 148.48L375.541 149.52C363.314 162.235 363.329 181.268 375.53 193.47L374.47 194.53Z" fill="#628983"/>
<path d="M391.32 75.3255L396.501 66.5335L401.682 75.3255H391.32ZM407.644 85.4387H385.358L390.008 77.787H402.994L407.644 85.4387ZM407.674 85.4873C407.674 85.4873 407.674 85.4872 407.674 85.4869L407.674 85.4873ZM379.544 95.4933L384.168 87.8417H408.874L413.417 95.4046L379.544 95.4933Z" fill="white"/>
<path d="M391.32 75.3255L396.501 66.5335L401.682 75.3255H391.32ZM407.644 85.4387H385.358L390.008 77.787H402.994L407.644 85.4387ZM407.674 85.4873C407.674 85.4873 407.674 85.4872 407.674 85.4869L407.674 85.4873ZM379.544 95.4933L384.168 87.8417H408.874L413.417 95.4046L379.544 95.4933Z" fill="url(#paint18_linear_34_18263)" fill-opacity="0.33"/>
<path d="M391.32 75.3255L396.501 66.5335L401.682 75.3255H391.32ZM407.644 85.4387H385.358L390.008 77.787H402.994L407.644 85.4387ZM407.674 85.4873C407.674 85.4873 407.674 85.4872 407.674 85.4869L407.674 85.4873ZM379.544 95.4933L384.168 87.8417H408.874L413.417 95.4046L379.544 95.4933Z" stroke="url(#paint19_linear_34_18263)"/>
<path d="M389.727 77.287L384.901 85.2276C384.712 85.5393 384.935 85.9387 385.299 85.9387H407.703C408.067 85.9387 408.29 85.5393 408.101 85.2276L403.275 77.287H389.727Z" fill="url(#paint20_linear_34_18263)"/>
<g filter="url(#filter1_f_34_18263)">
<rect x="50" y="50" width="234" height="138" rx="16" fill="#CCCCCC" fill-opacity="0.8"/>
</g>
<rect x="50" y="50" width="234" height="138" rx="16" fill="white"/>
<rect x="50" y="50" width="234" height="138" rx="16" fill="url(#paint21_linear_34_18263)" fill-opacity="0.33"/>
<path d="M114.867 86.5547V84.6406C115.039 84.7969 115.242 84.9375 115.477 85.0625C115.716 85.1875 115.969 85.2943 116.234 85.3828C116.5 85.4661 116.766 85.5312 117.031 85.5781C117.297 85.625 117.542 85.6484 117.766 85.6484C118.547 85.6484 119.128 85.5182 119.508 85.2578C119.893 84.9974 120.086 84.6198 120.086 84.125C120.086 83.8594 120.021 83.6302 119.891 83.4375C119.766 83.2396 119.589 83.0599 119.359 82.8984C119.13 82.737 118.859 82.5833 118.547 82.4375C118.24 82.2865 117.909 82.1302 117.555 81.9688C117.174 81.7656 116.82 81.5599 116.492 81.3516C116.164 81.1432 115.878 80.9141 115.633 80.6641C115.393 80.4089 115.203 80.1224 115.062 79.8047C114.927 79.487 114.859 79.1146 114.859 78.6875C114.859 78.1615 114.977 77.7057 115.211 77.3203C115.451 76.9297 115.763 76.6094 116.148 76.3594C116.539 76.1042 116.982 75.9167 117.477 75.7969C117.971 75.6719 118.477 75.6094 118.992 75.6094C120.164 75.6094 121.018 75.7422 121.555 76.0078V77.8438C120.919 77.3854 120.102 77.1562 119.102 77.1562C118.826 77.1562 118.549 77.1823 118.273 77.2344C118.003 77.2865 117.758 77.3724 117.539 77.4922C117.326 77.612 117.151 77.7656 117.016 77.9531C116.88 78.1406 116.812 78.3672 116.812 78.6328C116.812 78.8828 116.865 79.099 116.969 79.2812C117.073 79.4635 117.224 79.6302 117.422 79.7812C117.625 79.9323 117.87 80.0807 118.156 80.2266C118.448 80.3672 118.784 80.5208 119.164 80.6875C119.555 80.8906 119.922 81.1042 120.266 81.3281C120.615 81.5521 120.919 81.7995 121.18 82.0703C121.445 82.3411 121.654 82.6432 121.805 82.9766C121.961 83.3047 122.039 83.6797 122.039 84.1016C122.039 84.6693 121.924 85.1484 121.695 85.5391C121.466 85.9297 121.156 86.2474 120.766 86.4922C120.38 86.737 119.935 86.9141 119.43 87.0234C118.924 87.1328 118.391 87.1875 117.828 87.1875C117.641 87.1875 117.409 87.1719 117.133 87.1406C116.862 87.1146 116.583 87.0729 116.297 87.0156C116.01 86.9635 115.74 86.8984 115.484 86.8203C115.229 86.7422 115.023 86.6536 114.867 86.5547ZM127.648 86.9141C127.294 87.0911 126.828 87.1797 126.25 87.1797C124.698 87.1797 123.922 86.4349 123.922 84.9453V80.4219H122.586V79H123.922V77.1484L125.734 76.6328V79H127.648V80.4219H125.734V84.4219C125.734 84.8958 125.82 85.2344 125.992 85.4375C126.164 85.6406 126.451 85.7422 126.852 85.7422C127.159 85.7422 127.424 85.6536 127.648 85.4766V86.9141ZM133.852 80.7266C133.633 80.5547 133.318 80.4688 132.906 80.4688C132.37 80.4688 131.922 80.7109 131.562 81.1953C131.203 81.6797 131.023 82.3385 131.023 83.1719V87H129.211V79H131.023V80.6484H131.055C131.232 80.0859 131.503 79.6484 131.867 79.3359C132.237 79.0182 132.648 78.8594 133.102 78.8594C133.43 78.8594 133.68 78.9089 133.852 79.0078V80.7266ZM141.273 87H139.516V85.75H139.484C138.932 86.7083 138.122 87.1875 137.055 87.1875C136.268 87.1875 135.651 86.974 135.203 86.5469C134.76 86.1198 134.539 85.5547 134.539 84.8516C134.539 83.3411 135.409 82.4609 137.148 82.2109L139.523 81.875C139.523 80.7344 138.982 80.1641 137.898 80.1641C136.945 80.1641 136.086 80.4922 135.32 81.1484V79.5625C136.164 79.0625 137.138 78.8125 138.242 78.8125C140.263 78.8125 141.273 79.8073 141.273 81.7969V87ZM139.523 83.0703L137.844 83.3047C137.323 83.3724 136.93 83.5 136.664 83.6875C136.404 83.8698 136.273 84.1927 136.273 84.6562C136.273 84.9948 136.393 85.2734 136.633 85.4922C136.878 85.7057 137.203 85.8125 137.609 85.8125C138.161 85.8125 138.617 85.6198 138.977 85.2344C139.341 84.8438 139.523 84.3542 139.523 83.7656V83.0703ZM147.711 86.9141C147.357 87.0911 146.891 87.1797 146.312 87.1797C144.76 87.1797 143.984 86.4349 143.984 84.9453V80.4219H142.648V79H143.984V77.1484L145.797 76.6328V79H147.711V80.4219H145.797V84.4219C145.797 84.8958 145.883 85.2344 146.055 85.4375C146.227 85.6406 146.513 85.7422 146.914 85.7422C147.221 85.7422 147.487 85.6536 147.711 85.4766V86.9141ZM155.953 83.4922H150.5C150.521 84.2318 150.747 84.8021 151.18 85.2031C151.617 85.6042 152.216 85.8047 152.977 85.8047C153.831 85.8047 154.615 85.5495 155.328 85.0391V86.5C154.599 86.9583 153.635 87.1875 152.438 87.1875C151.26 87.1875 150.336 86.8255 149.664 86.1016C148.997 85.3724 148.664 84.349 148.664 83.0312C148.664 81.7865 149.031 80.7734 149.766 79.9922C150.505 79.2057 151.422 78.8125 152.516 78.8125C153.609 78.8125 154.456 79.1641 155.055 79.8672C155.654 80.5703 155.953 81.5469 155.953 82.7969V83.4922ZM154.203 82.2109C154.198 81.5599 154.044 81.0547 153.742 80.6953C153.44 80.3307 153.023 80.1484 152.492 80.1484C151.971 80.1484 151.529 80.3385 151.164 80.7188C150.805 81.099 150.583 81.5964 150.5 82.2109H154.203ZM164.961 86.3594C164.961 89.2969 163.484 90.7656 160.531 90.7656C159.49 90.7656 158.581 90.5911 157.805 90.2422V88.5859C158.68 89.0859 159.51 89.3359 160.297 89.3359C162.198 89.3359 163.148 88.401 163.148 86.5312V85.6562H163.117C162.518 86.6771 161.617 87.1875 160.414 87.1875C159.44 87.1875 158.654 86.8333 158.055 86.125C157.461 85.4115 157.164 84.4557 157.164 83.2578C157.164 81.8984 157.484 80.8177 158.125 80.0156C158.766 79.2135 159.646 78.8125 160.766 78.8125C161.823 78.8125 162.607 79.2448 163.117 80.1094H163.148V79H164.961V86.3594ZM163.164 83.3359V82.2969C163.164 81.7344 162.977 81.2552 162.602 80.8594C162.232 80.4583 161.768 80.2578 161.211 80.2578C160.523 80.2578 159.984 80.513 159.594 81.0234C159.208 81.5286 159.016 82.237 159.016 83.1484C159.016 83.9349 159.201 84.5651 159.57 85.0391C159.945 85.5078 160.44 85.7422 161.055 85.7422C161.68 85.7422 162.188 85.5182 162.578 85.0703C162.969 84.6172 163.164 84.0391 163.164 83.3359ZM168.234 77.3203C167.938 77.3203 167.682 77.224 167.469 77.0312C167.26 76.8385 167.156 76.5938 167.156 76.2969C167.156 76 167.26 75.7526 167.469 75.5547C167.682 75.3568 167.938 75.2578 168.234 75.2578C168.542 75.2578 168.802 75.3568 169.016 75.5547C169.229 75.7526 169.336 76 169.336 76.2969C169.336 76.5781 169.229 76.8203 169.016 77.0234C168.802 77.2214 168.542 77.3203 168.234 77.3203ZM169.133 87H167.32V79H169.133V87ZM177.234 86.6328C176.594 87.0026 175.836 87.1875 174.961 87.1875C173.773 87.1875 172.815 86.8177 172.086 86.0781C171.357 85.3333 170.992 84.3698 170.992 83.1875C170.992 81.8698 171.383 80.8125 172.164 80.0156C172.951 79.2135 174 78.8125 175.312 78.8125C176.042 78.8125 176.685 78.9401 177.242 79.1953V80.8828C176.685 80.4661 176.091 80.2578 175.461 80.2578C174.695 80.2578 174.068 80.5182 173.578 81.0391C173.089 81.5547 172.844 82.2318 172.844 83.0703C172.844 83.8984 173.073 84.5521 173.531 85.0312C173.995 85.5104 174.615 85.75 175.391 85.75C176.042 85.75 176.656 85.5182 177.234 85.0547V86.6328ZM185.289 85.8203H185.258V90.6797H183.445V79H185.258V80.4062H185.289C185.909 79.3438 186.815 78.8125 188.008 78.8125C189.023 78.8125 189.815 79.1693 190.383 79.8828C190.951 80.5964 191.234 81.5547 191.234 82.7578C191.234 84.0911 190.914 85.1589 190.273 85.9609C189.633 86.763 188.758 87.1641 187.648 87.1641C186.628 87.1641 185.841 86.7161 185.289 85.8203ZM185.242 82.6641V83.6562C185.242 84.2396 185.427 84.7344 185.797 85.1406C186.172 85.5469 186.646 85.75 187.219 85.75C187.891 85.75 188.417 85.4896 188.797 84.9688C189.182 84.4427 189.375 83.7109 189.375 82.7734C189.375 81.987 189.195 81.3724 188.836 80.9297C188.482 80.4818 188 80.2578 187.391 80.2578C186.745 80.2578 186.224 80.487 185.828 80.9453C185.438 81.4036 185.242 81.9766 185.242 82.6641ZM194.906 87H193.086V75.1562H194.906V87ZM203.414 87H201.656V85.75H201.625C201.073 86.7083 200.263 87.1875 199.195 87.1875C198.409 87.1875 197.792 86.974 197.344 86.5469C196.901 86.1198 196.68 85.5547 196.68 84.8516C196.68 83.3411 197.549 82.4609 199.289 82.2109L201.664 81.875C201.664 80.7344 201.122 80.1641 200.039 80.1641C199.086 80.1641 198.227 80.4922 197.461 81.1484V79.5625C198.305 79.0625 199.279 78.8125 200.383 78.8125C202.404 78.8125 203.414 79.8073 203.414 81.7969V87ZM201.664 83.0703L199.984 83.3047C199.464 83.3724 199.07 83.5 198.805 83.6875C198.544 83.8698 198.414 84.1927 198.414 84.6562C198.414 84.9948 198.534 85.2734 198.773 85.4922C199.018 85.7057 199.344 85.8125 199.75 85.8125C200.302 85.8125 200.758 85.6198 201.117 85.2344C201.482 84.8438 201.664 84.3542 201.664 83.7656V83.0703ZM212.758 87H210.945V82.4922C210.945 80.9974 210.417 80.25 209.359 80.25C208.807 80.25 208.352 80.4583 207.992 80.875C207.633 81.2865 207.453 81.8073 207.453 82.4375V87H205.633V79H207.453V80.3281H207.484C208.083 79.3177 208.948 78.8125 210.078 78.8125C210.948 78.8125 211.612 79.0964 212.07 79.6641C212.529 80.2266 212.758 81.0417 212.758 82.1094V87ZM222.102 87H220.289V82.4922C220.289 80.9974 219.76 80.25 218.703 80.25C218.151 80.25 217.695 80.4583 217.336 80.875C216.977 81.2865 216.797 81.8073 216.797 82.4375V87H214.977V79H216.797V80.3281H216.828C217.427 79.3177 218.292 78.8125 219.422 78.8125C220.292 78.8125 220.956 79.0964 221.414 79.6641C221.872 80.2266 222.102 81.0417 222.102 82.1094V87ZM225.234 77.3203C224.938 77.3203 224.682 77.224 224.469 77.0312C224.26 76.8385 224.156 76.5938 224.156 76.2969C224.156 76 224.26 75.7526 224.469 75.5547C224.682 75.3568 224.938 75.2578 225.234 75.2578C225.542 75.2578 225.802 75.3568 226.016 75.5547C226.229 75.7526 226.336 76 226.336 76.2969C226.336 76.5781 226.229 76.8203 226.016 77.0234C225.802 77.2214 225.542 77.3203 225.234 77.3203ZM226.133 87H224.32V79H226.133V87ZM235.633 87H233.82V82.4922C233.82 80.9974 233.292 80.25 232.234 80.25C231.682 80.25 231.227 80.4583 230.867 80.875C230.508 81.2865 230.328 81.8073 230.328 82.4375V87H228.508V79H230.328V80.3281H230.359C230.958 79.3177 231.823 78.8125 232.953 78.8125C233.823 78.8125 234.487 79.0964 234.945 79.6641C235.404 80.2266 235.633 81.0417 235.633 82.1094V87ZM245.133 86.3594C245.133 89.2969 243.656 90.7656 240.703 90.7656C239.661 90.7656 238.753 90.5911 237.977 90.2422V88.5859C238.852 89.0859 239.682 89.3359 240.469 89.3359C242.37 89.3359 243.32 88.401 243.32 86.5312V85.6562H243.289C242.69 86.6771 241.789 87.1875 240.586 87.1875C239.612 87.1875 238.826 86.8333 238.227 86.125C237.633 85.4115 237.336 84.4557 237.336 83.2578C237.336 81.8984 237.656 80.8177 238.297 80.0156C238.938 79.2135 239.818 78.8125 240.938 78.8125C241.995 78.8125 242.779 79.2448 243.289 80.1094H243.32V79H245.133V86.3594ZM243.336 83.3359V82.2969C243.336 81.7344 243.148 81.2552 242.773 80.8594C242.404 80.4583 241.94 80.2578 241.383 80.2578C240.695 80.2578 240.156 80.513 239.766 81.0234C239.38 81.5286 239.188 82.237 239.188 83.1484C239.188 83.9349 239.372 84.5651 239.742 85.0391C240.117 85.5078 240.612 85.7422 241.227 85.7422C241.852 85.7422 242.359 85.5182 242.75 85.0703C243.141 84.6172 243.336 84.0391 243.336 83.3359Z" fill="url(#paint22_linear_34_18263)"/>
<path d="M56 111L279 111" stroke="#3F6384" stroke-opacity="0.66" stroke-width="2" stroke-linecap="round"/>
<path d="M115.285 157V147.197H118.074C118.922 147.197 119.594 147.405 120.091 147.819C120.588 148.234 120.836 148.774 120.836 149.439C120.836 149.995 120.686 150.479 120.385 150.889C120.084 151.299 119.669 151.59 119.141 151.764V151.791C119.801 151.868 120.33 152.119 120.727 152.543C121.123 152.962 121.321 153.509 121.321 154.184C121.321 155.022 121.021 155.701 120.419 156.221C119.817 156.74 119.059 157 118.143 157H115.285ZM116.434 148.236V151.401H117.609C118.238 151.401 118.733 151.251 119.093 150.95C119.453 150.645 119.633 150.216 119.633 149.665C119.633 148.713 119.006 148.236 117.753 148.236H116.434ZM116.434 152.434V155.961H117.992C118.667 155.961 119.188 155.801 119.558 155.482C119.931 155.163 120.118 154.726 120.118 154.17C120.118 153.012 119.33 152.434 117.753 152.434H116.434ZM124.459 157H123.311V147.197H124.459V157ZM136.709 156.439C136.709 159.01 135.479 160.295 133.018 160.295C132.152 160.295 131.395 160.131 130.748 159.803V158.682C131.536 159.119 132.288 159.338 133.004 159.338C134.727 159.338 135.588 158.422 135.588 156.59V155.824H135.561C135.027 156.717 134.225 157.164 133.154 157.164C132.284 157.164 131.582 156.854 131.049 156.234C130.52 155.61 130.256 154.774 130.256 153.726C130.256 152.536 130.541 151.59 131.11 150.889C131.685 150.187 132.468 149.836 133.462 149.836C134.405 149.836 135.105 150.214 135.561 150.971H135.588V150H136.709V156.439ZM135.588 153.835V152.803C135.588 152.247 135.399 151.771 135.021 151.374C134.647 150.978 134.18 150.779 133.619 150.779C132.926 150.779 132.384 151.032 131.992 151.538C131.6 152.039 131.404 152.743 131.404 153.65C131.404 154.43 131.591 155.054 131.965 155.523C132.343 155.988 132.842 156.221 133.462 156.221C134.091 156.221 134.601 155.997 134.993 155.551C135.39 155.104 135.588 154.532 135.588 153.835ZM141.904 157.164C140.87 157.164 140.043 156.838 139.423 156.187C138.808 155.53 138.5 154.662 138.5 153.582C138.5 152.406 138.821 151.488 139.464 150.827C140.106 150.166 140.975 149.836 142.068 149.836C143.112 149.836 143.925 150.157 144.509 150.8C145.097 151.442 145.391 152.333 145.391 153.473C145.391 154.589 145.074 155.485 144.44 156.159C143.812 156.829 142.966 157.164 141.904 157.164ZM141.986 150.779C141.266 150.779 140.697 151.025 140.277 151.518C139.858 152.005 139.648 152.68 139.648 153.541C139.648 154.37 139.86 155.024 140.284 155.503C140.708 155.981 141.275 156.221 141.986 156.221C142.711 156.221 143.267 155.986 143.654 155.517C144.046 155.047 144.242 154.38 144.242 153.514C144.242 152.639 144.046 151.964 143.654 151.49C143.267 151.016 142.711 150.779 141.986 150.779ZM152.192 157H151.071V155.906H151.044C150.556 156.745 149.839 157.164 148.891 157.164C148.193 157.164 147.646 156.979 147.25 156.61C146.858 156.241 146.662 155.751 146.662 155.141C146.662 153.833 147.432 153.072 148.973 152.857L151.071 152.563C151.071 151.374 150.59 150.779 149.629 150.779C148.786 150.779 148.025 151.066 147.346 151.641V150.492C148.034 150.055 148.827 149.836 149.725 149.836C151.37 149.836 152.192 150.706 152.192 152.447V157ZM151.071 153.459L149.383 153.691C148.863 153.764 148.471 153.894 148.207 154.081C147.943 154.263 147.811 154.589 147.811 155.059C147.811 155.4 147.931 155.681 148.173 155.899C148.419 156.114 148.745 156.221 149.15 156.221C149.706 156.221 150.164 156.027 150.524 155.64C150.889 155.248 151.071 154.753 151.071 154.156V153.459ZM155.426 157H154.305V146.637H155.426V157ZM157.271 156.747V155.544C157.882 155.995 158.554 156.221 159.288 156.221C160.272 156.221 160.765 155.893 160.765 155.236C160.765 155.049 160.721 154.892 160.635 154.765C160.553 154.632 160.439 154.516 160.293 154.416C160.152 154.316 159.983 154.227 159.787 154.149C159.596 154.067 159.388 153.983 159.165 153.896C158.855 153.773 158.582 153.65 158.345 153.527C158.112 153.4 157.916 153.258 157.757 153.104C157.602 152.944 157.483 152.764 157.401 152.563C157.324 152.363 157.285 152.128 157.285 151.859C157.285 151.531 157.36 151.242 157.511 150.991C157.661 150.736 157.862 150.524 158.112 150.355C158.363 150.182 158.648 150.052 158.967 149.966C159.29 149.879 159.623 149.836 159.965 149.836C160.571 149.836 161.113 149.941 161.592 150.15V151.285C161.077 150.948 160.484 150.779 159.814 150.779C159.605 150.779 159.416 150.804 159.247 150.854C159.078 150.9 158.933 150.966 158.81 151.053C158.691 151.139 158.598 151.244 158.529 151.367C158.465 151.486 158.434 151.618 158.434 151.764C158.434 151.946 158.465 152.099 158.529 152.222C158.598 152.345 158.696 152.454 158.823 152.55C158.951 152.646 159.106 152.732 159.288 152.81C159.47 152.887 159.678 152.971 159.91 153.062C160.22 153.181 160.498 153.304 160.744 153.432C160.99 153.555 161.2 153.696 161.373 153.855C161.546 154.01 161.678 154.19 161.77 154.396C161.865 154.601 161.913 154.844 161.913 155.127C161.913 155.473 161.836 155.774 161.681 156.029C161.53 156.285 161.327 156.496 161.072 156.665C160.817 156.834 160.523 156.959 160.19 157.041C159.858 157.123 159.509 157.164 159.145 157.164C158.424 157.164 157.8 157.025 157.271 156.747Z" fill="url(#paint23_linear_34_18263)"/>
<path d="M77 142.5C77 140.567 78.567 139 80.5 139H99.5C101.433 139 103 140.567 103 142.5V161.5C103 163.433 101.433 165 99.5 165H80.5C78.567 165 77 163.433 77 161.5V142.5Z" fill="url(#paint24_linear_34_18263)"/>
<path d="M77 142.5C77 140.567 78.567 139 80.5 139H99.5C101.433 139 103 140.567 103 142.5V161.5C103 163.433 101.433 165 99.5 165H80.5C78.567 165 77 163.433 77 161.5V142.5Z" fill="url(#paint25_radial_34_18263)" fill-opacity="0.2"/>
<path fill-rule="evenodd" clip-rule="evenodd" d="M99.5 140H80.5C79.1193 140 78 141.119 78 142.5V161.5C78 162.881 79.1193 164 80.5 164H99.5C100.881 164 102 162.881 102 161.5V142.5C102 141.119 100.881 140 99.5 140ZM80.5 139C78.567 139 77 140.567 77 142.5V161.5C77 163.433 78.567 165 80.5 165H99.5C101.433 165 103 163.433 103 161.5V142.5C103 140.567 101.433 139 99.5 139H80.5Z" fill="url(#paint26_linear_34_18263)"/>
<path d="M97.1484 145.051L96.9206 143L94.4142 145.506L94.551 146.691L90.9054 150.337C90.5863 150.177 90.2217 150.063 89.8344 150.063C88.5812 150.063 87.5557 151.089 87.5557 152.342C87.5557 153.595 88.5812 154.62 89.8344 154.62C91.0876 154.62 92.1127 153.595 92.1127 152.342C92.1127 151.955 92.0218 151.613 91.8622 151.294L95.5079 147.648L96.6929 147.785L99.199 145.278L97.1484 145.051Z" fill="url(#paint27_linear_34_18263)"/>
<path d="M97.3309 148.423L97.035 148.742L96.6018 148.696L96.1232 148.628C96.7614 149.722 97.1486 150.974 97.1486 152.342C97.1486 156.352 93.8676 159.633 89.8574 159.633C85.8472 159.633 82.5661 156.352 82.5661 152.342C82.5661 148.332 85.8472 145.051 89.8574 145.051C91.2015 145.051 92.4775 145.415 93.5716 146.076L93.5257 145.62L93.4576 145.164L93.7767 144.846L93.9358 144.686C92.7057 144.048 91.3384 143.683 89.8574 143.683C85.0726 143.683 81.1992 147.557 81.1992 152.342C81.1992 157.127 85.0726 161 89.8574 161C94.6422 161 98.516 157.127 98.516 152.342C98.516 150.861 98.1514 149.494 97.4905 148.286L97.3309 148.423Z" fill="url(#paint28_linear_34_18263)"/>
<path d="M93.6623 150.792C93.8673 151.271 93.9587 151.795 93.9587 152.342C93.9587 154.597 92.1127 156.443 89.8571 156.443C87.6015 156.443 85.756 154.597 85.756 152.342C85.756 150.086 87.6015 148.24 89.8571 148.24C90.404 148.24 90.9281 148.354 91.4067 148.537L92.4318 147.511C91.6572 147.101 90.7913 146.873 89.8571 146.873C86.8497 146.873 84.3887 149.334 84.3887 152.342C84.3887 155.349 86.8497 157.81 89.8571 157.81C92.865 157.81 95.3256 155.349 95.3256 152.342C95.3256 151.408 95.0978 150.542 94.6878 149.767L93.6623 150.792Z" fill="url(#paint29_linear_34_18263)"/>
<path d="M85.301 75.3255L90.4825 66.5335L95.6639 75.3255H85.301ZM101.626 85.4387H79.3392L83.9894 77.787H96.9756L101.626 85.4387ZM101.655 85.4873C101.655 85.4873 101.655 85.4872 101.655 85.4869L101.655 85.4873ZM73.5256 95.4933L78.1498 87.8417H102.855L107.399 95.4046L73.5256 95.4933Z" fill="white"/>
<path d="M85.301 75.3255L90.4825 66.5335L95.6639 75.3255H85.301ZM101.626 85.4387H79.3392L83.9894 77.787H96.9756L101.626 85.4387ZM101.655 85.4873C101.655 85.4873 101.655 85.4872 101.655 85.4869L101.655 85.4873ZM73.5256 95.4933L78.1498 87.8417H102.855L107.399 95.4046L73.5256 95.4933Z" fill="url(#paint30_linear_34_18263)" fill-opacity="0.33"/>
<path d="M85.301 75.3255L90.4825 66.5335L95.6639 75.3255H85.301ZM101.626 85.4387H79.3392L83.9894 77.787H96.9756L101.626 85.4387ZM101.655 85.4873C101.655 85.4873 101.655 85.4872 101.655 85.4869L101.655 85.4873ZM73.5256 95.4933L78.1498 87.8417H102.855L107.399 95.4046L73.5256 95.4933Z" stroke="url(#paint31_linear_34_18263)"/>
<path d="M90.0812 66.2297C90.2617 65.9234 90.7034 65.9234 90.8839 66.2297L96.1232 75.1199C96.3069 75.4316 96.0829 75.8255 95.7218 75.8255H85.2433C84.8823 75.8255 84.6582 75.4316 84.842 75.1199L90.0812 66.2297Z" fill="url(#paint32_linear_34_18263)"/>
<path d="M376.061 83.0607C376.646 82.4749 376.646 81.5251 376.061 80.9393L366.515 71.3934C365.929 70.8076 364.979 70.8076 364.393 71.3934C363.808 71.9792 363.808 72.9289 364.393 73.5147L372.879 82L364.393 90.4853C363.808 91.0711 363.808 92.0208 364.393 92.6066C364.979 93.1924 365.929 93.1924 366.515 92.6066L376.061 83.0607ZM272 80.5C271.172 80.5 270.5 81.1716 270.5 82C270.5 82.8284 271.172 83.5 272 83.5V80.5ZM375 80.5H272V83.5H375V80.5Z" fill="#616161"/>
<defs>
<filter id="filter0_f_34_18263" x="351" y="45" width="244" height="192" filterUnits="userSpaceOnUse" color-interpolation-filters="sRGB">
<feFlood flood-opacity="0" result="BackgroundImageFix"/>
<feBlend mode="normal" in="SourceGraphic" in2="BackgroundImageFix" result="shape"/>
<feGaussianBlur stdDeviation="2.5" result="effect1_foregroundBlur_34_18263"/>
</filter>
<filter id="filter1_f_34_18263" x="45" y="45" width="244" height="148" filterUnits="userSpaceOnUse" color-interpolation-filters="sRGB">
<feFlood flood-opacity="0" result="BackgroundImageFix"/>
<feBlend mode="normal" in="SourceGraphic" in2="BackgroundImageFix" result="shape"/>
<feGaussianBlur stdDeviation="2.5" result="effect1_foregroundBlur_34_18263"/>
</filter>
<radialGradient id="paint0_radial_34_18263" cx="0" cy="0" r="1" gradientUnits="userSpaceOnUse" gradientTransform="translate(96.1537 30.8779) rotate(19.811) scale(652.973 328.623)">
<stop offset="0.198869" stop-color="#8EE3E8"/>
<stop offset="1" stop-color="#19177E"/>
</radialGradient>
<linearGradient id="paint1_linear_34_18263" x1="388.933" y1="140.272" x2="485.69" y2="165.925" gradientUnits="userSpaceOnUse">
<stop stop-color="white"/>
<stop offset="1" stop-color="#FAFAFA"/>
</linearGradient>
<linearGradient id="paint2_linear_34_18263" x1="420" y1="70" x2="425.387" y2="111.297" gradientUnits="userSpaceOnUse">
<stop stop-color="#22685C"/>
<stop offset="1" stop-color="#083831"/>
</linearGradient>
<linearGradient id="paint3_linear_34_18263" x1="420" y1="135" x2="432.598" y2="196.416" gradientUnits="userSpaceOnUse">
<stop stop-color="#22685C"/>
<stop offset="1" stop-color="#083831"/>
</linearGradient>
<linearGradient id="paint4_linear_34_18263" x1="420" y1="179" x2="432.598" y2="240.416" gradientUnits="userSpaceOnUse">
<stop stop-color="#22685C"/>
<stop offset="1" stop-color="#083831"/>
</linearGradient>
<linearGradient id="paint5_linear_34_18263" x1="390.222" y1="139" x2="393.511" y2="165.311" gradientUnits="userSpaceOnUse">
<stop stop-color="white"/>
<stop offset="1" stop-color="#EBEBEB"/>
</linearGradient>
<radialGradient id="paint6_radial_34_18263" cx="0" cy="0" r="1" gradientUnits="userSpaceOnUse" gradientTransform="translate(391.306 145.771) rotate(56.3099) scale(24.7381 21.408)">
<stop offset="0.177083" stop-color="white"/>
<stop offset="1" stop-color="#B8B8B8"/>
</radialGradient>
<linearGradient id="paint7_linear_34_18263" x1="391.396" y1="139" x2="394.897" y2="165.256" gradientUnits="userSpaceOnUse">
<stop stop-color="#BBBBBB"/>
<stop offset="1" stop-color="#888888"/>
</linearGradient>
<linearGradient id="paint8_linear_34_18263" x1="398.014" y1="157.186" x2="400.351" y2="161.858" gradientUnits="userSpaceOnUse">
<stop stop-color="#22685C"/>
<stop offset="1" stop-color="#083831"/>
</linearGradient>
<linearGradient id="paint9_linear_34_18263" x1="389.459" y1="149.963" x2="395.24" y2="160.74" gradientUnits="userSpaceOnUse">
<stop stop-color="#22685C"/>
<stop offset="1" stop-color="#083831"/>
</linearGradient>
<linearGradient id="paint10_linear_34_18263" x1="388" y1="157.186" x2="390.337" y2="161.858" gradientUnits="userSpaceOnUse">
<stop stop-color="#22685C"/>
<stop offset="1" stop-color="#083831"/>
</linearGradient>
<linearGradient id="paint11_linear_34_18263" x1="393.007" y1="143" x2="399.556" y2="148.794" gradientUnits="userSpaceOnUse">
<stop stop-color="#22685C"/>
<stop offset="1" stop-color="#083831"/>
</linearGradient>
<linearGradient id="paint12_linear_34_18263" x1="390.222" y1="183" x2="393.511" y2="209.311" gradientUnits="userSpaceOnUse">
<stop stop-color="white"/>
<stop offset="1" stop-color="#EBEBEB"/>
</linearGradient>
<radialGradient id="paint13_radial_34_18263" cx="0" cy="0" r="1" gradientUnits="userSpaceOnUse" gradientTransform="translate(391.306 189.771) rotate(56.3099) scale(24.7381 21.408)">
<stop offset="0.177083" stop-color="white"/>
<stop offset="1" stop-color="#B8B8B8"/>
</radialGradient>
<linearGradient id="paint14_linear_34_18263" x1="391.396" y1="183" x2="394.897" y2="209.256" gradientUnits="userSpaceOnUse">
<stop stop-color="#BBBBBB"/>
<stop offset="1" stop-color="#888888"/>
</linearGradient>
<linearGradient id="paint15_linear_34_18263" x1="391" y1="190" x2="400.231" y2="203.846" gradientUnits="userSpaceOnUse">
<stop stop-color="#22685C"/>
<stop offset="1" stop-color="#083831"/>
</linearGradient>
<linearGradient id="paint16_linear_34_18263" x1="386" y1="195" x2="390.412" y2="197.647" gradientUnits="userSpaceOnUse">
<stop stop-color="#22685C"/>
<stop offset="1" stop-color="#083831"/>
</linearGradient>
<linearGradient id="paint17_linear_34_18263" x1="389" y1="193" x2="397" y2="201" gradientUnits="userSpaceOnUse">
<stop stop-color="#22685C"/>
<stop offset="1" stop-color="#083831"/>
</linearGradient>
<linearGradient id="paint18_linear_34_18263" x1="383.934" y1="80.8768" x2="398.547" y2="84.3855" gradientUnits="userSpaceOnUse">
<stop stop-color="white"/>
<stop offset="1" stop-color="#FAFAFA"/>
</linearGradient>
<linearGradient id="paint19_linear_34_18263" x1="379.019" y1="66" x2="408.668" y2="100.523" gradientUnits="userSpaceOnUse">
<stop stop-color="#22685C"/>
<stop offset="1" stop-color="#083831"/>
</linearGradient>
<linearGradient id="paint20_linear_34_18263" x1="384.832" y1="77.287" x2="390.472" y2="92.4997" gradientUnits="userSpaceOnUse">
<stop stop-color="#22685C"/>
<stop offset="1" stop-color="#083831"/>
</linearGradient>
<linearGradient id="paint21_linear_34_18263" x1="82.9333" y1="118.448" x2="175.209" y2="150.713" gradientUnits="userSpaceOnUse">
<stop stop-color="white"/>
<stop offset="1" stop-color="#FAFAFA"/>
</linearGradient>
<linearGradient id="paint22_linear_34_18263" x1="114" y1="70" x2="119.387" y2="111.297" gradientUnits="userSpaceOnUse">
<stop stop-color="#416587"/>
<stop offset="1" stop-color="#1A3052"/>
</linearGradient>
<linearGradient id="paint23_linear_34_18263" x1="114" y1="135" x2="126.598" y2="196.416" gradientUnits="userSpaceOnUse">
<stop stop-color="#416587"/>
<stop offset="1" stop-color="#1A3052"/>
</linearGradient>
<linearGradient id="paint24_linear_34_18263" x1="84.2222" y1="139" x2="87.5111" y2="165.311" gradientUnits="userSpaceOnUse">
<stop stop-color="white"/>
<stop offset="1" stop-color="#EBEBEB"/>
</linearGradient>
<radialGradient id="paint25_radial_34_18263" cx="0" cy="0" r="1" gradientUnits="userSpaceOnUse" gradientTransform="translate(85.3056 145.771) rotate(56.3099) scale(24.7381 21.408)">
<stop offset="0.177083" stop-color="white"/>
<stop offset="1" stop-color="#B8B8B8"/>
</radialGradient>
<linearGradient id="paint26_linear_34_18263" x1="85.3958" y1="139" x2="88.8966" y2="165.256" gradientUnits="userSpaceOnUse">
<stop stop-color="#BBBBBB"/>
<stop offset="1" stop-color="#888888"/>
</linearGradient>
<linearGradient id="paint27_linear_34_18263" x1="87.5557" y1="143" x2="99.1758" y2="154.643" gradientUnits="userSpaceOnUse">
<stop stop-color="#416587"/>
<stop offset="1" stop-color="#1A3052"/>
</linearGradient>
<linearGradient id="paint28_linear_34_18263" x1="81.1992" y1="143.683" x2="98.516" y2="161" gradientUnits="userSpaceOnUse">
<stop stop-color="#416587"/>
<stop offset="1" stop-color="#1A3052"/>
</linearGradient>
<linearGradient id="paint29_linear_34_18263" x1="84.3887" y1="146.873" x2="95.3256" y2="157.81" gradientUnits="userSpaceOnUse">
<stop stop-color="#416587"/>
<stop offset="1" stop-color="#1A3052"/>
</linearGradient>
<linearGradient id="paint30_linear_34_18263" x1="77.9152" y1="80.8768" x2="92.5284" y2="84.3855" gradientUnits="userSpaceOnUse">
<stop stop-color="white"/>
<stop offset="1" stop-color="#FAFAFA"/>
</linearGradient>
<linearGradient id="paint31_linear_34_18263" x1="73" y1="66" x2="102.649" y2="100.523" gradientUnits="userSpaceOnUse">
<stop stop-color="#416587"/>
<stop offset="1" stop-color="#1A3052"/>
</linearGradient>
<linearGradient id="paint32_linear_34_18263" x1="84.7764" y1="66" x2="94.4928" y2="77.2857" gradientUnits="userSpaceOnUse">
<stop stop-color="#416587"/>
<stop offset="1" stop-color="#1A3052"/>
</linearGradient>
</defs>
</svg>
