<svg width="834" height="325" viewBox="0 0 834 325" fill="none" xmlns="http://www.w3.org/2000/svg">
<rect width="834" height="325" fill="white"/>
<rect width="834" height="325" fill="url(#paint0_radial_34_18630)" fill-opacity="0.075"/>
<rect x="0.5" y="0.5" width="833" height="324" stroke="#333333" stroke-opacity="0.2"/>
<g filter="url(#filter0_f_34_18630)">
<rect x="40" y="137" width="767" height="61" rx="16" fill="#CCCCCC" fill-opacity="0.8"/>
</g>
<rect x="40" y="137" width="767" height="61" rx="16" fill="white"/>
<rect x="40" y="137" width="767" height="61" rx="16" fill="url(#paint1_linear_34_18630)" fill-opacity="0.33"/>
<path d="M110.867 173.555V171.641C111.039 171.797 111.242 171.938 111.477 172.062C111.716 172.188 111.969 172.294 112.234 172.383C112.5 172.466 112.766 172.531 113.031 172.578C113.297 172.625 113.542 172.648 113.766 172.648C114.547 172.648 115.128 172.518 115.508 172.258C115.893 171.997 116.086 171.62 116.086 171.125C116.086 170.859 116.021 170.63 115.891 170.438C115.766 170.24 115.589 170.06 115.359 169.898C115.13 169.737 114.859 169.583 114.547 169.438C114.24 169.286 113.909 169.13 113.555 168.969C113.174 168.766 112.82 168.56 112.492 168.352C112.164 168.143 111.878 167.914 111.633 167.664C111.393 167.409 111.203 167.122 111.062 166.805C110.927 166.487 110.859 166.115 110.859 165.688C110.859 165.161 110.977 164.706 111.211 164.32C111.451 163.93 111.763 163.609 112.148 163.359C112.539 163.104 112.982 162.917 113.477 162.797C113.971 162.672 114.477 162.609 114.992 162.609C116.164 162.609 117.018 162.742 117.555 163.008V164.844C116.919 164.385 116.102 164.156 115.102 164.156C114.826 164.156 114.549 164.182 114.273 164.234C114.003 164.286 113.758 164.372 113.539 164.492C113.326 164.612 113.151 164.766 113.016 164.953C112.88 165.141 112.812 165.367 112.812 165.633C112.812 165.883 112.865 166.099 112.969 166.281C113.073 166.464 113.224 166.63 113.422 166.781C113.625 166.932 113.87 167.081 114.156 167.227C114.448 167.367 114.784 167.521 115.164 167.688C115.555 167.891 115.922 168.104 116.266 168.328C116.615 168.552 116.919 168.799 117.18 169.07C117.445 169.341 117.654 169.643 117.805 169.977C117.961 170.305 118.039 170.68 118.039 171.102C118.039 171.669 117.924 172.148 117.695 172.539C117.466 172.93 117.156 173.247 116.766 173.492C116.38 173.737 115.935 173.914 115.43 174.023C114.924 174.133 114.391 174.188 113.828 174.188C113.641 174.188 113.409 174.172 113.133 174.141C112.862 174.115 112.583 174.073 112.297 174.016C112.01 173.964 111.74 173.898 111.484 173.82C111.229 173.742 111.023 173.654 110.867 173.555ZM123.648 173.914C123.294 174.091 122.828 174.18 122.25 174.18C120.698 174.18 119.922 173.435 119.922 171.945V167.422H118.586V166H119.922V164.148L121.734 163.633V166H123.648V167.422H121.734V171.422C121.734 171.896 121.82 172.234 121.992 172.438C122.164 172.641 122.451 172.742 122.852 172.742C123.159 172.742 123.424 172.654 123.648 172.477V173.914ZM129.852 167.727C129.633 167.555 129.318 167.469 128.906 167.469C128.37 167.469 127.922 167.711 127.562 168.195C127.203 168.68 127.023 169.339 127.023 170.172V174H125.211V166H127.023V167.648H127.055C127.232 167.086 127.503 166.648 127.867 166.336C128.237 166.018 128.648 165.859 129.102 165.859C129.43 165.859 129.68 165.909 129.852 166.008V167.727ZM137.273 174H135.516V172.75H135.484C134.932 173.708 134.122 174.188 133.055 174.188C132.268 174.188 131.651 173.974 131.203 173.547C130.76 173.12 130.539 172.555 130.539 171.852C130.539 170.341 131.409 169.461 133.148 169.211L135.523 168.875C135.523 167.734 134.982 167.164 133.898 167.164C132.945 167.164 132.086 167.492 131.32 168.148V166.562C132.164 166.062 133.138 165.812 134.242 165.812C136.263 165.812 137.273 166.807 137.273 168.797V174ZM135.523 170.07L133.844 170.305C133.323 170.372 132.93 170.5 132.664 170.688C132.404 170.87 132.273 171.193 132.273 171.656C132.273 171.995 132.393 172.273 132.633 172.492C132.878 172.706 133.203 172.812 133.609 172.812C134.161 172.812 134.617 172.62 134.977 172.234C135.341 171.844 135.523 171.354 135.523 170.766V170.07ZM143.711 173.914C143.357 174.091 142.891 174.18 142.312 174.18C140.76 174.18 139.984 173.435 139.984 171.945V167.422H138.648V166H139.984V164.148L141.797 163.633V166H143.711V167.422H141.797V171.422C141.797 171.896 141.883 172.234 142.055 172.438C142.227 172.641 142.513 172.742 142.914 172.742C143.221 172.742 143.487 172.654 143.711 172.477V173.914ZM151.953 170.492H146.5C146.521 171.232 146.747 171.802 147.18 172.203C147.617 172.604 148.216 172.805 148.977 172.805C149.831 172.805 150.615 172.549 151.328 172.039V173.5C150.599 173.958 149.635 174.188 148.438 174.188C147.26 174.188 146.336 173.826 145.664 173.102C144.997 172.372 144.664 171.349 144.664 170.031C144.664 168.786 145.031 167.773 145.766 166.992C146.505 166.206 147.422 165.812 148.516 165.812C149.609 165.812 150.456 166.164 151.055 166.867C151.654 167.57 151.953 168.547 151.953 169.797V170.492ZM150.203 169.211C150.198 168.56 150.044 168.055 149.742 167.695C149.44 167.331 149.023 167.148 148.492 167.148C147.971 167.148 147.529 167.339 147.164 167.719C146.805 168.099 146.583 168.596 146.5 169.211H150.203ZM160.961 173.359C160.961 176.297 159.484 177.766 156.531 177.766C155.49 177.766 154.581 177.591 153.805 177.242V175.586C154.68 176.086 155.51 176.336 156.297 176.336C158.198 176.336 159.148 175.401 159.148 173.531V172.656H159.117C158.518 173.677 157.617 174.188 156.414 174.188C155.44 174.188 154.654 173.833 154.055 173.125C153.461 172.411 153.164 171.456 153.164 170.258C153.164 168.898 153.484 167.818 154.125 167.016C154.766 166.214 155.646 165.812 156.766 165.812C157.823 165.812 158.607 166.245 159.117 167.109H159.148V166H160.961V173.359ZM159.164 170.336V169.297C159.164 168.734 158.977 168.255 158.602 167.859C158.232 167.458 157.768 167.258 157.211 167.258C156.523 167.258 155.984 167.513 155.594 168.023C155.208 168.529 155.016 169.237 155.016 170.148C155.016 170.935 155.201 171.565 155.57 172.039C155.945 172.508 156.44 172.742 157.055 172.742C157.68 172.742 158.188 172.518 158.578 172.07C158.969 171.617 159.164 171.039 159.164 170.336ZM164.234 164.32C163.938 164.32 163.682 164.224 163.469 164.031C163.26 163.839 163.156 163.594 163.156 163.297C163.156 163 163.26 162.753 163.469 162.555C163.682 162.357 163.938 162.258 164.234 162.258C164.542 162.258 164.802 162.357 165.016 162.555C165.229 162.753 165.336 163 165.336 163.297C165.336 163.578 165.229 163.82 165.016 164.023C164.802 164.221 164.542 164.32 164.234 164.32ZM165.133 174H163.32V166H165.133V174ZM173.234 173.633C172.594 174.003 171.836 174.188 170.961 174.188C169.773 174.188 168.815 173.818 168.086 173.078C167.357 172.333 166.992 171.37 166.992 170.188C166.992 168.87 167.383 167.812 168.164 167.016C168.951 166.214 170 165.812 171.312 165.812C172.042 165.812 172.685 165.94 173.242 166.195V167.883C172.685 167.466 172.091 167.258 171.461 167.258C170.695 167.258 170.068 167.518 169.578 168.039C169.089 168.555 168.844 169.232 168.844 170.07C168.844 170.898 169.073 171.552 169.531 172.031C169.995 172.51 170.615 172.75 171.391 172.75C172.042 172.75 172.656 172.518 173.234 172.055V173.633ZM181.289 172.82H181.258V177.68H179.445V166H181.258V167.406H181.289C181.909 166.344 182.815 165.812 184.008 165.812C185.023 165.812 185.815 166.169 186.383 166.883C186.951 167.596 187.234 168.555 187.234 169.758C187.234 171.091 186.914 172.159 186.273 172.961C185.633 173.763 184.758 174.164 183.648 174.164C182.628 174.164 181.841 173.716 181.289 172.82ZM181.242 169.664V170.656C181.242 171.24 181.427 171.734 181.797 172.141C182.172 172.547 182.646 172.75 183.219 172.75C183.891 172.75 184.417 172.49 184.797 171.969C185.182 171.443 185.375 170.711 185.375 169.773C185.375 168.987 185.195 168.372 184.836 167.93C184.482 167.482 184 167.258 183.391 167.258C182.745 167.258 182.224 167.487 181.828 167.945C181.438 168.404 181.242 168.977 181.242 169.664ZM190.906 174H189.086V162.156H190.906V174ZM199.414 174H197.656V172.75H197.625C197.073 173.708 196.263 174.188 195.195 174.188C194.409 174.188 193.792 173.974 193.344 173.547C192.901 173.12 192.68 172.555 192.68 171.852C192.68 170.341 193.549 169.461 195.289 169.211L197.664 168.875C197.664 167.734 197.122 167.164 196.039 167.164C195.086 167.164 194.227 167.492 193.461 168.148V166.562C194.305 166.062 195.279 165.812 196.383 165.812C198.404 165.812 199.414 166.807 199.414 168.797V174ZM197.664 170.07L195.984 170.305C195.464 170.372 195.07 170.5 194.805 170.688C194.544 170.87 194.414 171.193 194.414 171.656C194.414 171.995 194.534 172.273 194.773 172.492C195.018 172.706 195.344 172.812 195.75 172.812C196.302 172.812 196.758 172.62 197.117 172.234C197.482 171.844 197.664 171.354 197.664 170.766V170.07ZM208.758 174H206.945V169.492C206.945 167.997 206.417 167.25 205.359 167.25C204.807 167.25 204.352 167.458 203.992 167.875C203.633 168.286 203.453 168.807 203.453 169.438V174H201.633V166H203.453V167.328H203.484C204.083 166.318 204.948 165.812 206.078 165.812C206.948 165.812 207.612 166.096 208.07 166.664C208.529 167.227 208.758 168.042 208.758 169.109V174ZM218.102 174H216.289V169.492C216.289 167.997 215.76 167.25 214.703 167.25C214.151 167.25 213.695 167.458 213.336 167.875C212.977 168.286 212.797 168.807 212.797 169.438V174H210.977V166H212.797V167.328H212.828C213.427 166.318 214.292 165.812 215.422 165.812C216.292 165.812 216.956 166.096 217.414 166.664C217.872 167.227 218.102 168.042 218.102 169.109V174ZM221.234 164.32C220.938 164.32 220.682 164.224 220.469 164.031C220.26 163.839 220.156 163.594 220.156 163.297C220.156 163 220.26 162.753 220.469 162.555C220.682 162.357 220.938 162.258 221.234 162.258C221.542 162.258 221.802 162.357 222.016 162.555C222.229 162.753 222.336 163 222.336 163.297C222.336 163.578 222.229 163.82 222.016 164.023C221.802 164.221 221.542 164.32 221.234 164.32ZM222.133 174H220.32V166H222.133V174ZM231.633 174H229.82V169.492C229.82 167.997 229.292 167.25 228.234 167.25C227.682 167.25 227.227 167.458 226.867 167.875C226.508 168.286 226.328 168.807 226.328 169.438V174H224.508V166H226.328V167.328H226.359C226.958 166.318 227.823 165.812 228.953 165.812C229.823 165.812 230.487 166.096 230.945 166.664C231.404 167.227 231.633 168.042 231.633 169.109V174ZM241.133 173.359C241.133 176.297 239.656 177.766 236.703 177.766C235.661 177.766 234.753 177.591 233.977 177.242V175.586C234.852 176.086 235.682 176.336 236.469 176.336C238.37 176.336 239.32 175.401 239.32 173.531V172.656H239.289C238.69 173.677 237.789 174.188 236.586 174.188C235.612 174.188 234.826 173.833 234.227 173.125C233.633 172.411 233.336 171.456 233.336 170.258C233.336 168.898 233.656 167.818 234.297 167.016C234.938 166.214 235.818 165.812 236.938 165.812C237.995 165.812 238.779 166.245 239.289 167.109H239.32V166H241.133V173.359ZM239.336 170.336V169.297C239.336 168.734 239.148 168.255 238.773 167.859C238.404 167.458 237.94 167.258 237.383 167.258C236.695 167.258 236.156 167.513 235.766 168.023C235.38 168.529 235.188 169.237 235.188 170.148C235.188 170.935 235.372 171.565 235.742 172.039C236.117 172.508 236.612 172.742 237.227 172.742C237.852 172.742 238.359 172.518 238.75 172.07C239.141 171.617 239.336 171.039 239.336 170.336Z" fill="#333333"/>
<g filter="url(#filter1_i_34_18630)">
<path d="M91.6197 156.38L91.2553 153.099L87.2447 157.109L87.4636 159.005L81.6303 164.839C81.1197 164.583 80.5364 164.401 79.9167 164.401C77.9114 164.401 76.2705 166.042 76.2705 168.047C76.2705 170.052 77.9114 171.692 79.9167 171.692C81.922 171.692 83.5622 170.052 83.5622 168.047C83.5622 167.427 83.4167 166.88 83.1614 166.37L88.9947 160.536L90.8909 160.755L94.9008 156.745L91.6197 156.38Z" fill="url(#paint2_linear_34_18630)"/>
<path d="M91.9118 161.776L91.4382 162.286L90.7451 162.214L89.9792 162.105C91.0004 163.855 91.6201 165.859 91.6201 168.047C91.6201 174.464 86.3701 179.714 79.9534 179.714C73.5368 179.714 68.2868 174.464 68.2868 168.047C68.2868 161.63 73.5368 156.38 79.9534 156.38C82.1042 156.38 84.1459 156.964 85.8966 158.021L85.8231 157.292L85.714 156.562L86.2246 156.052L86.4792 155.797C84.511 154.776 82.3231 154.192 79.9534 154.192C72.2974 154.192 66.0996 160.391 66.0996 168.047C66.0996 175.703 72.2974 181.901 79.9534 181.901C87.6095 181.901 93.8079 175.703 93.8079 168.047C93.8079 165.677 93.2246 163.489 92.1671 161.558L91.9118 161.776Z" fill="url(#paint3_linear_34_18630)"/>
<path d="M86.0417 165.567C86.3698 166.333 86.516 167.172 86.516 168.047C86.516 171.656 83.5622 174.609 79.9531 174.609C76.344 174.609 73.391 171.656 73.391 168.047C73.391 164.438 76.344 161.484 79.9531 161.484C80.8281 161.484 81.6667 161.667 82.4326 161.958L84.0728 160.317C82.8334 159.661 81.4478 159.297 79.9531 159.297C75.141 159.297 71.2031 163.234 71.2031 168.047C71.2031 172.859 75.141 176.797 79.9531 176.797C84.766 176.797 88.7031 172.859 88.7031 168.047C88.7031 166.552 88.3387 165.167 87.6826 163.927L86.0417 165.567Z" fill="url(#paint4_linear_34_18630)"/>
</g>
<g filter="url(#filter2_f_34_18630)">
<rect x="40" y="218" width="767" height="61" rx="16" fill="#CCCCCC" fill-opacity="0.8"/>
</g>
<rect x="40" y="218" width="767" height="61" rx="16" fill="white"/>
<rect x="40" y="218" width="767" height="61" rx="16" fill="url(#paint5_linear_34_18630)" fill-opacity="0.33"/>
<path d="M118.57 245.375H115.352V255H113.492V245.375H110.281V243.797H118.57V245.375ZM124.602 255H122.844V253.75H122.812C122.26 254.708 121.451 255.188 120.383 255.188C119.596 255.188 118.979 254.974 118.531 254.547C118.089 254.12 117.867 253.555 117.867 252.852C117.867 251.341 118.737 250.461 120.477 250.211L122.852 249.875C122.852 248.734 122.31 248.164 121.227 248.164C120.273 248.164 119.414 248.492 118.648 249.148V247.562C119.492 247.062 120.466 246.812 121.57 246.812C123.591 246.812 124.602 247.807 124.602 249.797V255ZM122.852 251.07L121.172 251.305C120.651 251.372 120.258 251.5 119.992 251.688C119.732 251.87 119.602 252.193 119.602 252.656C119.602 252.995 119.721 253.273 119.961 253.492C120.206 253.706 120.531 253.812 120.938 253.812C121.49 253.812 121.945 253.62 122.305 253.234C122.669 252.844 122.852 252.354 122.852 251.766V251.07ZM132.547 254.633C131.906 255.003 131.148 255.188 130.273 255.188C129.086 255.188 128.128 254.818 127.398 254.078C126.669 253.333 126.305 252.37 126.305 251.188C126.305 249.87 126.695 248.812 127.477 248.016C128.263 247.214 129.312 246.812 130.625 246.812C131.354 246.812 131.997 246.94 132.555 247.195V248.883C131.997 248.466 131.404 248.258 130.773 248.258C130.008 248.258 129.38 248.518 128.891 249.039C128.401 249.555 128.156 250.232 128.156 251.07C128.156 251.898 128.385 252.552 128.844 253.031C129.307 253.51 129.927 253.75 130.703 253.75C131.354 253.75 131.969 253.518 132.547 253.055V254.633ZM138.57 254.914C138.216 255.091 137.75 255.18 137.172 255.18C135.62 255.18 134.844 254.435 134.844 252.945V248.422H133.508V247H134.844V245.148L136.656 244.633V247H138.57V248.422H136.656V252.422C136.656 252.896 136.742 253.234 136.914 253.438C137.086 253.641 137.372 253.742 137.773 253.742C138.081 253.742 138.346 253.654 138.57 253.477V254.914ZM141.047 245.32C140.75 245.32 140.495 245.224 140.281 245.031C140.073 244.839 139.969 244.594 139.969 244.297C139.969 244 140.073 243.753 140.281 243.555C140.495 243.357 140.75 243.258 141.047 243.258C141.354 243.258 141.615 243.357 141.828 243.555C142.042 243.753 142.148 244 142.148 244.297C142.148 244.578 142.042 244.82 141.828 245.023C141.615 245.221 141.354 245.32 141.047 245.32ZM141.945 255H140.133V247H141.945V255ZM150.047 254.633C149.406 255.003 148.648 255.188 147.773 255.188C146.586 255.188 145.628 254.818 144.898 254.078C144.169 253.333 143.805 252.37 143.805 251.188C143.805 249.87 144.195 248.812 144.977 248.016C145.763 247.214 146.812 246.812 148.125 246.812C148.854 246.812 149.497 246.94 150.055 247.195V248.883C149.497 248.466 148.904 248.258 148.273 248.258C147.508 248.258 146.88 248.518 146.391 249.039C145.901 249.555 145.656 250.232 145.656 251.07C145.656 251.898 145.885 252.552 146.344 253.031C146.807 253.51 147.427 253.75 148.203 253.75C148.854 253.75 149.469 253.518 150.047 253.055V254.633ZM157.992 255H156.234V253.75H156.203C155.651 254.708 154.841 255.188 153.773 255.188C152.987 255.188 152.37 254.974 151.922 254.547C151.479 254.12 151.258 253.555 151.258 252.852C151.258 251.341 152.128 250.461 153.867 250.211L156.242 249.875C156.242 248.734 155.701 248.164 154.617 248.164C153.664 248.164 152.805 248.492 152.039 249.148V247.562C152.883 247.062 153.857 246.812 154.961 246.812C156.982 246.812 157.992 247.807 157.992 249.797V255ZM156.242 251.07L154.562 251.305C154.042 251.372 153.648 251.5 153.383 251.688C153.122 251.87 152.992 252.193 152.992 252.656C152.992 252.995 153.112 253.273 153.352 253.492C153.596 253.706 153.922 253.812 154.328 253.812C154.88 253.812 155.336 253.62 155.695 253.234C156.06 252.844 156.242 252.354 156.242 251.766V251.07ZM162.031 255H160.211V243.156H162.031V255ZM170.648 253.82H170.617V258.68H168.805V247H170.617V248.406H170.648C171.268 247.344 172.174 246.812 173.367 246.812C174.383 246.812 175.174 247.169 175.742 247.883C176.31 248.596 176.594 249.555 176.594 250.758C176.594 252.091 176.273 253.159 175.633 253.961C174.992 254.763 174.117 255.164 173.008 255.164C171.987 255.164 171.201 254.716 170.648 253.82ZM170.602 250.664V251.656C170.602 252.24 170.786 252.734 171.156 253.141C171.531 253.547 172.005 253.75 172.578 253.75C173.25 253.75 173.776 253.49 174.156 252.969C174.542 252.443 174.734 251.711 174.734 250.773C174.734 249.987 174.555 249.372 174.195 248.93C173.841 248.482 173.359 248.258 172.75 248.258C172.104 248.258 171.583 248.487 171.188 248.945C170.797 249.404 170.602 249.977 170.602 250.664ZM180.266 255H178.445V243.156H180.266V255ZM188.773 255H187.016V253.75H186.984C186.432 254.708 185.622 255.188 184.555 255.188C183.768 255.188 183.151 254.974 182.703 254.547C182.26 254.12 182.039 253.555 182.039 252.852C182.039 251.341 182.909 250.461 184.648 250.211L187.023 249.875C187.023 248.734 186.482 248.164 185.398 248.164C184.445 248.164 183.586 248.492 182.82 249.148V247.562C183.664 247.062 184.638 246.812 185.742 246.812C187.763 246.812 188.773 247.807 188.773 249.797V255ZM187.023 251.07L185.344 251.305C184.823 251.372 184.43 251.5 184.164 251.688C183.904 251.87 183.773 252.193 183.773 252.656C183.773 252.995 183.893 253.273 184.133 253.492C184.378 253.706 184.703 253.812 185.109 253.812C185.661 253.812 186.117 253.62 186.477 253.234C186.841 252.844 187.023 252.354 187.023 251.766V251.07ZM198.117 255H196.305V250.492C196.305 248.997 195.776 248.25 194.719 248.25C194.167 248.25 193.711 248.458 193.352 248.875C192.992 249.286 192.812 249.807 192.812 250.438V255H190.992V247H192.812V248.328H192.844C193.443 247.318 194.307 246.812 195.438 246.812C196.307 246.812 196.971 247.096 197.43 247.664C197.888 248.227 198.117 249.042 198.117 250.109V255ZM207.461 255H205.648V250.492C205.648 248.997 205.12 248.25 204.062 248.25C203.51 248.25 203.055 248.458 202.695 248.875C202.336 249.286 202.156 249.807 202.156 250.438V255H200.336V247H202.156V248.328H202.188C202.786 247.318 203.651 246.812 204.781 246.812C205.651 246.812 206.315 247.096 206.773 247.664C207.232 248.227 207.461 249.042 207.461 250.109V255ZM210.594 245.32C210.297 245.32 210.042 245.224 209.828 245.031C209.62 244.839 209.516 244.594 209.516 244.297C209.516 244 209.62 243.753 209.828 243.555C210.042 243.357 210.297 243.258 210.594 243.258C210.901 243.258 211.161 243.357 211.375 243.555C211.589 243.753 211.695 244 211.695 244.297C211.695 244.578 211.589 244.82 211.375 245.023C211.161 245.221 210.901 245.32 210.594 245.32ZM211.492 255H209.68V247H211.492V255ZM220.992 255H219.18V250.492C219.18 248.997 218.651 248.25 217.594 248.25C217.042 248.25 216.586 248.458 216.227 248.875C215.867 249.286 215.688 249.807 215.688 250.438V255H213.867V247H215.688V248.328H215.719C216.318 247.318 217.182 246.812 218.312 246.812C219.182 246.812 219.846 247.096 220.305 247.664C220.763 248.227 220.992 249.042 220.992 250.109V255ZM230.492 254.359C230.492 257.297 229.016 258.766 226.062 258.766C225.021 258.766 224.112 258.591 223.336 258.242V256.586C224.211 257.086 225.042 257.336 225.828 257.336C227.729 257.336 228.68 256.401 228.68 254.531V253.656H228.648C228.049 254.677 227.148 255.188 225.945 255.188C224.971 255.188 224.185 254.833 223.586 254.125C222.992 253.411 222.695 252.456 222.695 251.258C222.695 249.898 223.016 248.818 223.656 248.016C224.297 247.214 225.177 246.812 226.297 246.812C227.354 246.812 228.138 247.245 228.648 248.109H228.68V247H230.492V254.359ZM228.695 251.336V250.297C228.695 249.734 228.508 249.255 228.133 248.859C227.763 248.458 227.299 248.258 226.742 248.258C226.055 248.258 225.516 248.513 225.125 249.023C224.74 249.529 224.547 250.237 224.547 251.148C224.547 251.935 224.732 252.565 225.102 253.039C225.477 253.508 225.971 253.742 226.586 253.742C227.211 253.742 227.719 253.518 228.109 253.07C228.5 252.617 228.695 252.039 228.695 251.336Z" fill="#333333"/>
<g filter="url(#filter3_i_34_18630)">
<path d="M90.7078 258.708H72.4789V238.292H90.7078V258.708ZM70.2914 236.104V238.292H69.8174C69.234 238.328 68.833 238.802 68.833 239.385C68.7965 239.969 69.234 240.443 69.8174 240.479H70.2914V241.937H69.8174C69.1976 241.937 68.7236 242.411 68.7236 243.031C68.7236 243.651 69.1976 244.125 69.8174 244.125H70.2914V245.583H69.8174C69.1976 245.583 68.7236 246.057 68.7236 246.677C68.7236 247.297 69.1976 247.771 69.8174 247.771H70.2914V249.229H69.8174C69.1976 249.229 68.7236 249.703 68.7236 250.323C68.7236 250.943 69.1976 251.417 69.8174 251.417H70.2914V252.875H69.8174C69.1976 252.875 68.7236 253.349 68.7236 253.969C68.7236 254.589 69.1976 255.063 69.8174 255.063H70.2914V256.521H69.8174C69.1976 256.521 68.7236 256.995 68.7236 257.615C68.7236 258.235 69.1976 258.708 69.8174 258.708H70.2914V260.896H92.8956V236.104H70.2914Z" fill="url(#paint6_linear_34_18630)"/>
<path d="M77.583 252.146C78.3851 252.146 79.0414 252.802 79.0414 253.604C79.0414 254.406 78.3851 255.063 77.583 255.063C76.781 255.063 76.1247 254.406 76.1247 253.604C76.1247 252.802 76.781 252.146 77.583 252.146ZM77.583 256.521C79.0414 256.521 80.2811 255.427 80.4634 253.969C80.6456 252.51 79.734 251.161 78.3122 250.797V249.958C78.3122 249.557 78.6403 249.229 79.0414 249.229H84.1456C85.3488 249.229 86.3328 248.245 86.3328 247.042V242.958L87.2811 243.906C87.5723 244.198 88.0102 244.198 88.302 243.906C88.5933 243.615 88.5933 243.177 88.302 242.885L86.1142 240.698C85.9683 240.552 85.786 240.479 85.6037 240.479C85.4215 240.479 85.2392 240.552 85.0933 240.698L82.9061 242.885C82.6142 243.177 82.6142 243.615 82.9061 243.906C83.1973 244.198 83.6352 244.198 83.9271 243.906L84.8747 242.958V247.042C84.8747 247.443 84.5465 247.771 84.1456 247.771H79.0414C77.8382 247.771 76.8539 248.755 76.8539 249.958V250.797C75.432 251.161 74.5205 252.547 74.7028 253.969C74.8851 255.427 76.1247 256.521 77.583 256.521Z" fill="url(#paint7_linear_34_18630)"/>
<path d="M88.3024 250.906C88.1564 250.76 87.9742 250.687 87.7919 250.687C87.6096 250.687 87.4274 250.76 87.2814 250.906L85.6041 252.583L83.9274 250.906C83.6355 250.615 83.1976 250.615 82.9064 250.906C82.6145 251.198 82.6145 251.635 82.9064 251.927L84.5831 253.604L82.9064 255.281C82.6145 255.573 82.6145 256.01 82.9064 256.302C83.1976 256.594 83.6355 256.594 83.9274 256.302L85.6041 254.625L87.2814 256.302C87.5726 256.594 88.0105 256.594 88.3024 256.302C88.5936 256.01 88.5936 255.573 88.3024 255.281L86.625 253.604L88.3024 251.927C88.5936 251.635 88.5936 251.198 88.3024 250.906Z" fill="url(#paint8_linear_34_18630)"/>
<path d="M74.8847 246.094C75.0306 246.24 75.2129 246.313 75.3951 246.313C75.5775 246.313 75.7597 246.24 75.9055 246.094L77.5826 244.417L79.2597 246.094C79.5514 246.385 79.9889 246.385 80.2807 246.094C80.572 245.802 80.572 245.365 80.2807 245.073L78.6035 243.396L80.2807 241.719C80.572 241.427 80.572 240.99 80.2807 240.698C79.9889 240.406 79.5514 240.406 79.2597 240.698L77.5826 242.375L75.9055 240.698C75.6139 240.406 75.1764 240.406 74.8847 240.698C74.5931 240.99 74.5931 241.427 74.8847 241.719L76.5618 243.396L74.8847 245.073C74.5931 245.365 74.5931 245.802 74.8847 246.094Z" fill="url(#paint9_linear_34_18630)"/>
</g>
<circle cx="39.5" cy="168.5" r="12" fill="url(#paint10_linear_34_18630)" stroke="#FAFAFA"/>
<path d="M42.2231 173H36.5103V172.295C36.5103 172.008 36.5505 171.739 36.6309 171.489C36.7113 171.235 36.8192 170.998 36.9546 170.778C37.09 170.554 37.2487 170.345 37.4307 170.15C37.6126 169.951 37.8073 169.761 38.0146 169.579C38.222 169.392 38.4336 169.215 38.6494 169.045C38.8652 168.872 39.0768 168.698 39.2842 168.525C39.4788 168.36 39.6566 168.199 39.8174 168.042C39.9782 167.882 40.1157 167.717 40.23 167.547C40.3442 167.378 40.4331 167.2 40.4966 167.014C40.5601 166.824 40.5918 166.618 40.5918 166.398C40.5918 166.157 40.5537 165.948 40.4775 165.77C40.4056 165.588 40.3019 165.438 40.1665 165.319C40.0353 165.197 39.8787 165.106 39.6968 165.046C39.5148 164.983 39.3159 164.951 39.1001 164.951C38.7277 164.951 38.349 165.038 37.9639 165.211C37.5788 165.385 37.2085 165.645 36.853 165.992V164.577C37.0392 164.437 37.2275 164.316 37.418 164.215C37.6084 164.109 37.8052 164.022 38.0083 163.955C38.2114 163.883 38.4251 163.83 38.6494 163.796C38.8737 163.762 39.1128 163.745 39.3667 163.745C39.7772 163.745 40.1496 163.8 40.4839 163.91C40.8182 164.016 41.1038 164.175 41.3408 164.386C41.5778 164.594 41.7598 164.854 41.8867 165.167C42.0179 165.48 42.0835 165.84 42.0835 166.246C42.0835 166.614 42.0369 166.946 41.9438 167.243C41.855 167.535 41.7259 167.808 41.5566 168.062C41.3916 168.315 41.1906 168.557 40.9536 168.785C40.7166 169.014 40.4521 169.249 40.1602 169.49C39.9147 169.689 39.6693 169.883 39.4238 170.074C39.1826 170.26 38.9647 170.444 38.77 170.626C38.5754 170.804 38.4167 170.984 38.2939 171.166C38.1755 171.343 38.1162 171.523 38.1162 171.705V171.737H42.2231V173Z" fill="white"/>
<circle cx="39.5" cy="248.5" r="12" fill="url(#paint11_linear_34_18630)" stroke="#FAFAFA"/>
<path d="M36.6689 252.664V251.28C37.2614 251.75 37.93 251.984 38.6748 251.984C39.2799 251.984 39.7624 251.847 40.1221 251.572C40.486 251.297 40.668 250.924 40.668 250.455C40.668 249.422 39.8787 248.906 38.3003 248.906H37.5957V247.725H38.2686C39.6693 247.725 40.3696 247.238 40.3696 246.265C40.3696 245.368 39.8237 244.919 38.7319 244.919C38.1226 244.919 37.5492 245.137 37.0117 245.573V244.266C37.6296 243.919 38.3595 243.745 39.2017 243.745C40.0099 243.745 40.6574 243.948 41.144 244.354C41.6307 244.761 41.874 245.281 41.874 245.916C41.874 247.114 41.2646 247.884 40.0459 248.227V248.252C40.7018 248.315 41.2202 248.546 41.6011 248.944C41.9819 249.337 42.1724 249.83 42.1724 250.423C42.1724 251.24 41.8656 251.9 41.252 252.403C40.6383 252.903 39.8301 253.152 38.8271 253.152C37.9258 253.152 37.2064 252.989 36.6689 252.664Z" fill="white"/>
<path d="M414 279L414 77" stroke="#616161" stroke-opacity="0.66" stroke-width="2" stroke-linecap="round" stroke-linejoin="round" stroke-dasharray="6 6"/>
<path d="M538 279L538 77" stroke="#616161" stroke-opacity="0.66" stroke-width="2" stroke-linecap="round" stroke-linejoin="round" stroke-dasharray="6 6"/>
<path d="M662 279L662 77" stroke="#616161" stroke-opacity="0.66" stroke-width="2" stroke-linecap="round" stroke-linejoin="round" stroke-dasharray="6 6"/>
<path d="M781 279L781 77" stroke="#616161" stroke-opacity="0.66" stroke-width="2" stroke-linecap="round" stroke-linejoin="round" stroke-dasharray="6 6"/>
<path d="M290 279L290 99" stroke="#616161" stroke-opacity="0.66" stroke-width="2" stroke-linecap="round" stroke-linejoin="round"/>
<path d="M808.414 103.414C809.195 102.633 809.195 101.367 808.414 100.586L795.686 87.8579C794.905 87.0769 793.639 87.0769 792.858 87.8579C792.077 88.639 792.077 89.9053 792.858 90.6863L804.172 102L792.858 113.314C792.077 114.095 792.077 115.361 792.858 116.142C793.639 116.923 794.905 116.923 795.686 116.142L808.414 103.414ZM290 104L807 104L807 100L290 100L290 104Z" fill="#616161" fill-opacity="0.66"/>
<path d="M748.963 83.2363H746.133V92H744.984V83.2363H742.161V82.1973H748.963V83.2363ZM750.932 83.2227C750.731 83.2227 750.56 83.1543 750.419 83.0176C750.278 82.8809 750.207 82.7077 750.207 82.498C750.207 82.2884 750.278 82.1152 750.419 81.9785C750.56 81.8372 750.731 81.7666 750.932 81.7666C751.137 81.7666 751.31 81.8372 751.451 81.9785C751.597 82.1152 751.67 82.2884 751.67 82.498C751.67 82.6986 751.597 82.8695 751.451 83.0107C751.31 83.152 751.137 83.2227 750.932 83.2227ZM751.479 92H750.357V85H751.479V92ZM763.688 92H762.566V87.9805C762.566 87.2057 762.446 86.6452 762.204 86.2988C761.967 85.9525 761.566 85.7793 761.001 85.7793C760.522 85.7793 760.115 85.998 759.777 86.4355C759.445 86.873 759.278 87.3971 759.278 88.0078V92H758.157V87.8438C758.157 86.4674 757.626 85.7793 756.564 85.7793C756.072 85.7793 755.667 85.9867 755.348 86.4014C755.029 86.8115 754.869 87.347 754.869 88.0078V92H753.748V85H754.869V86.1074H754.896C755.393 85.2598 756.118 84.8359 757.07 84.8359C757.549 84.8359 757.966 84.9704 758.321 85.2393C758.677 85.5036 758.921 85.8522 759.053 86.2852C759.572 85.319 760.347 84.8359 761.377 84.8359C762.917 84.8359 763.688 85.7861 763.688 87.6865V92ZM771.433 88.7803H766.49C766.508 89.5596 766.718 90.1611 767.119 90.585C767.52 91.0088 768.072 91.2207 768.773 91.2207C769.562 91.2207 770.286 90.9609 770.947 90.4414V91.4941C770.332 91.9408 769.519 92.1641 768.507 92.1641C767.518 92.1641 766.741 91.8473 766.176 91.2139C765.611 90.5758 765.328 89.6803 765.328 88.5273C765.328 87.4382 765.636 86.5518 766.251 85.8682C766.871 85.18 767.639 84.8359 768.555 84.8359C769.471 84.8359 770.179 85.1322 770.681 85.7246C771.182 86.3171 771.433 87.1396 771.433 88.1924V88.7803ZM770.284 87.8301C770.28 87.1829 770.122 86.6794 769.812 86.3193C769.507 85.9593 769.081 85.7793 768.534 85.7793C768.006 85.7793 767.557 85.9684 767.188 86.3467C766.818 86.7249 766.59 87.2194 766.504 87.8301H770.284Z" fill="#616161"/>
<path d="M410.186 63.1641C408.8 63.1641 407.686 62.7061 406.843 61.79C406.009 60.874 405.592 59.6823 405.592 58.2148C405.592 56.6335 406.018 55.3757 406.87 54.4414C407.727 53.5026 408.887 53.0332 410.35 53.0332C411.699 53.0332 412.788 53.4889 413.617 54.4004C414.447 55.3118 414.861 56.5036 414.861 57.9756C414.861 59.5752 414.438 60.8398 413.59 61.7695C413.389 61.9928 413.175 62.1842 412.947 62.3438L415.702 64.3193H413.617L411.771 62.9385C411.288 63.0889 410.76 63.1641 410.186 63.1641ZM410.268 54.0723C409.238 54.0723 408.401 54.4437 407.759 55.1865C407.116 55.9294 406.795 56.9046 406.795 58.1123C406.795 59.3154 407.107 60.2884 407.731 61.0312C408.36 61.765 409.178 62.1318 410.186 62.1318C411.261 62.1318 412.109 61.7809 412.729 61.0791C413.348 60.3773 413.658 59.3952 413.658 58.1328C413.658 56.834 413.357 55.8337 412.756 55.1318C412.154 54.4255 411.325 54.0723 410.268 54.0723ZM420.453 63H419.332V54.5303C419.245 54.6169 419.118 54.7171 418.949 54.8311C418.785 54.9404 418.598 55.0498 418.389 55.1592C418.184 55.2686 417.965 55.3711 417.732 55.4668C417.505 55.5625 417.281 55.6377 417.062 55.6924V54.5576C417.309 54.4893 417.568 54.3981 417.842 54.2842C418.12 54.1657 418.391 54.0358 418.655 53.8945C418.924 53.7487 419.177 53.5983 419.414 53.4434C419.651 53.2839 419.856 53.1289 420.029 52.9785H420.453V63Z" fill="#616161"/>
<path d="M534.186 63.1641C532.8 63.1641 531.686 62.7061 530.843 61.79C530.009 60.874 529.592 59.6823 529.592 58.2148C529.592 56.6335 530.018 55.3757 530.87 54.4414C531.727 53.5026 532.887 53.0332 534.35 53.0332C535.699 53.0332 536.788 53.4889 537.617 54.4004C538.447 55.3118 538.861 56.5036 538.861 57.9756C538.861 59.5752 538.438 60.8398 537.59 61.7695C537.389 61.9928 537.175 62.1842 536.947 62.3438L539.702 64.3193H537.617L535.771 62.9385C535.288 63.0889 534.76 63.1641 534.186 63.1641ZM534.268 54.0723C533.238 54.0723 532.401 54.4437 531.759 55.1865C531.116 55.9294 530.795 56.9046 530.795 58.1123C530.795 59.3154 531.107 60.2884 531.731 61.0312C532.36 61.765 533.178 62.1318 534.186 62.1318C535.261 62.1318 536.109 61.7809 536.729 61.0791C537.348 60.3773 537.658 59.3952 537.658 58.1328C537.658 56.834 537.357 55.8337 536.756 55.1318C536.154 54.4255 535.325 54.0723 534.268 54.0723ZM544.781 55.7676C544.781 55.4668 544.733 55.2048 544.638 54.9814C544.547 54.7581 544.419 54.5736 544.255 54.4277C544.095 54.2773 543.906 54.1657 543.688 54.0928C543.469 54.0199 543.232 53.9834 542.977 53.9834C542.758 53.9834 542.544 54.013 542.334 54.0723C542.124 54.1315 541.919 54.2135 541.719 54.3184C541.523 54.4232 541.331 54.5485 541.145 54.6943C540.962 54.8402 540.791 55.002 540.632 55.1797V53.9766C540.946 53.6712 541.297 53.4388 541.685 53.2793C542.076 53.1152 542.553 53.0332 543.113 53.0332C543.514 53.0332 543.886 53.0924 544.228 53.2109C544.569 53.3249 544.866 53.4935 545.116 53.7168C545.367 53.9401 545.563 54.2158 545.704 54.5439C545.85 54.8721 545.923 55.248 545.923 55.6719C545.923 56.0592 545.877 56.4102 545.786 56.7246C545.7 57.0391 545.565 57.3353 545.383 57.6133C545.205 57.8913 544.979 58.1579 544.706 58.4131C544.433 58.6683 544.111 58.9281 543.742 59.1924C543.282 59.5205 542.901 59.8008 542.601 60.0332C542.304 60.2656 542.067 60.4844 541.89 60.6895C541.716 60.89 541.593 61.0928 541.521 61.2979C541.452 61.4984 541.418 61.7308 541.418 61.9951H546.299V63H540.249V62.5146C540.249 62.0954 540.295 61.7262 540.386 61.4072C540.477 61.0882 540.627 60.7852 540.837 60.498C541.047 60.2109 541.32 59.9238 541.657 59.6367C541.999 59.3496 542.416 59.026 542.908 58.666C543.264 58.4108 543.56 58.167 543.797 57.9346C544.038 57.7021 544.232 57.4697 544.378 57.2373C544.524 57.0049 544.626 56.7702 544.686 56.5332C544.749 56.2917 544.781 56.0365 544.781 55.7676Z" fill="#616161"/>
<path d="M658.186 63.1641C656.8 63.1641 655.686 62.7061 654.843 61.79C654.009 60.874 653.592 59.6823 653.592 58.2148C653.592 56.6335 654.018 55.3757 654.87 54.4414C655.727 53.5026 656.887 53.0332 658.35 53.0332C659.699 53.0332 660.788 53.4889 661.617 54.4004C662.447 55.3118 662.861 56.5036 662.861 57.9756C662.861 59.5752 662.438 60.8398 661.59 61.7695C661.389 61.9928 661.175 62.1842 660.947 62.3438L663.702 64.3193H661.617L659.771 62.9385C659.288 63.0889 658.76 63.1641 658.186 63.1641ZM658.268 54.0723C657.238 54.0723 656.401 54.4437 655.759 55.1865C655.116 55.9294 654.795 56.9046 654.795 58.1123C654.795 59.3154 655.107 60.2884 655.731 61.0312C656.36 61.765 657.178 62.1318 658.186 62.1318C659.261 62.1318 660.109 61.7809 660.729 61.0791C661.348 60.3773 661.658 59.3952 661.658 58.1328C661.658 56.834 661.357 55.8337 660.756 55.1318C660.154 54.4255 659.325 54.0723 658.268 54.0723ZM670.019 60.2246C670.019 60.6667 669.934 61.07 669.766 61.4346C669.602 61.7946 669.367 62.1045 669.062 62.3643C668.761 62.6195 668.398 62.8177 667.975 62.959C667.551 63.1003 667.084 63.1709 666.573 63.1709C665.639 63.1709 664.896 62.9932 664.345 62.6377V61.4346C665.006 61.9541 665.762 62.2139 666.614 62.2139C666.956 62.2139 667.264 62.1706 667.537 62.084C667.815 61.9974 668.052 61.8721 668.248 61.708C668.449 61.5439 668.601 61.3457 668.706 61.1133C668.815 60.8809 668.87 60.6188 668.87 60.3271C668.87 59.0465 667.959 58.4062 666.136 58.4062H665.322V57.4561H666.095C667.708 57.4561 668.515 56.8545 668.515 55.6514C668.515 54.5394 667.899 53.9834 666.669 53.9834C665.976 53.9834 665.327 54.2158 664.721 54.6807V53.5938C665.345 53.2201 666.088 53.0332 666.949 53.0332C667.359 53.0332 667.731 53.0902 668.063 53.2041C668.396 53.318 668.681 53.4775 668.918 53.6826C669.155 53.8877 669.337 54.1338 669.465 54.4209C669.597 54.708 669.663 55.0247 669.663 55.3711C669.663 56.6608 669.011 57.4902 667.708 57.8594V57.8867C668.041 57.9232 668.348 58.0052 668.631 58.1328C668.913 58.2559 669.157 58.4176 669.362 58.6182C669.567 58.8187 669.727 59.0557 669.841 59.3291C669.959 59.598 670.019 59.8965 670.019 60.2246Z" fill="#616161"/>
<path d="M767.205 43H766.084V34.5303C765.997 34.6169 765.87 34.7171 765.701 34.8311C765.537 34.9404 765.35 35.0498 765.141 35.1592C764.936 35.2686 764.717 35.3711 764.484 35.4668C764.257 35.5625 764.033 35.6377 763.814 35.6924V34.5576C764.061 34.4893 764.32 34.3981 764.594 34.2842C764.872 34.1657 765.143 34.0358 765.407 33.8945C765.676 33.7487 765.929 33.5983 766.166 33.4434C766.403 33.2839 766.608 33.1289 766.781 32.9785H767.205V43ZM780.351 36L777.131 44.1211C776.557 45.5703 775.75 46.2949 774.711 46.2949C774.419 46.2949 774.175 46.2653 773.979 46.2061V45.2012C774.221 45.2832 774.442 45.3242 774.643 45.3242C775.208 45.3242 775.632 44.987 775.914 44.3125L776.475 42.9863L773.74 36H774.984L776.878 41.3867C776.901 41.4551 776.949 41.6328 777.021 41.9199H777.062C777.085 41.8105 777.131 41.6374 777.199 41.4004L779.188 36H780.351ZM787.187 39.7803H782.244C782.262 40.5596 782.472 41.1611 782.873 41.585C783.274 42.0088 783.826 42.2207 784.527 42.2207C785.316 42.2207 786.04 41.9609 786.701 41.4414V42.4941C786.086 42.9408 785.272 43.1641 784.261 43.1641C783.272 43.1641 782.495 42.8473 781.93 42.2139C781.365 41.5758 781.082 40.6803 781.082 39.5273C781.082 38.4382 781.39 37.5518 782.005 36.8682C782.625 36.18 783.393 35.8359 784.309 35.8359C785.225 35.8359 785.933 36.1322 786.435 36.7246C786.936 37.3171 787.187 38.1396 787.187 39.1924V39.7803ZM786.038 38.8301C786.034 38.1829 785.876 37.6794 785.566 37.3193C785.261 36.9593 784.835 36.7793 784.288 36.7793C783.759 36.7793 783.311 36.9684 782.941 37.3467C782.572 37.7249 782.344 38.2194 782.258 38.8301H786.038ZM793.899 43H792.778V41.9062H792.751C792.263 42.7448 791.546 43.1641 790.598 43.1641C789.9 43.1641 789.354 42.9795 788.957 42.6104C788.565 42.2412 788.369 41.7513 788.369 41.1406C788.369 39.8327 789.139 39.0716 790.68 38.8574L792.778 38.5635C792.778 37.374 792.298 36.7793 791.336 36.7793C790.493 36.7793 789.732 37.0664 789.053 37.6406V36.4922C789.741 36.0547 790.534 35.8359 791.432 35.8359C793.077 35.8359 793.899 36.7064 793.899 38.4473V43ZM792.778 39.459L791.09 39.6914C790.57 39.7643 790.178 39.8942 789.914 40.0811C789.65 40.2633 789.518 40.5892 789.518 41.0586C789.518 41.4004 789.638 41.6807 789.88 41.8994C790.126 42.1136 790.452 42.2207 790.857 42.2207C791.413 42.2207 791.871 42.027 792.231 41.6396C792.596 41.2477 792.778 40.7533 792.778 40.1562V39.459ZM799.662 37.1348C799.466 36.9844 799.184 36.9092 798.814 36.9092C798.336 36.9092 797.935 37.1348 797.611 37.5859C797.292 38.0371 797.133 38.6523 797.133 39.4316V43H796.012V36H797.133V37.4424H797.16C797.32 36.9502 797.563 36.5674 797.892 36.2939C798.22 36.016 798.587 35.877 798.992 35.877C799.284 35.877 799.507 35.9089 799.662 35.9727V37.1348ZM777.186 62.1641C775.8 62.1641 774.686 61.7061 773.843 60.79C773.009 59.874 772.592 58.6823 772.592 57.2148C772.592 55.6335 773.018 54.3757 773.87 53.4414C774.727 52.5026 775.887 52.0332 777.35 52.0332C778.699 52.0332 779.788 52.4889 780.617 53.4004C781.447 54.3118 781.861 55.5036 781.861 56.9756C781.861 58.5752 781.438 59.8398 780.59 60.7695C780.389 60.9928 780.175 61.1842 779.947 61.3438L782.702 63.3193H780.617L778.771 61.9385C778.288 62.0889 777.76 62.1641 777.186 62.1641ZM777.268 53.0723C776.238 53.0723 775.401 53.4437 774.759 54.1865C774.116 54.9294 773.795 55.9046 773.795 57.1123C773.795 58.3154 774.107 59.2884 774.731 60.0312C775.36 60.765 776.178 61.1318 777.186 61.1318C778.261 61.1318 779.109 60.7809 779.729 60.0791C780.348 59.3773 780.658 58.3952 780.658 57.1328C780.658 55.834 780.357 54.8337 779.756 54.1318C779.154 53.4255 778.325 53.0723 777.268 53.0723ZM788.314 52.1973V58.6709H789.572V59.6963H788.314V62H787.207V59.6963H782.6V58.7256C783.028 58.2425 783.461 57.7275 783.898 57.1807C784.336 56.6292 784.753 56.071 785.149 55.5059C785.55 54.9408 785.92 54.3779 786.257 53.8174C786.599 53.2523 786.886 52.7122 787.118 52.1973H788.314ZM783.864 58.6709H787.207V53.8721C786.865 54.4691 786.542 55.0023 786.236 55.4717C785.931 55.9411 785.639 56.3672 785.361 56.75C785.088 57.1328 784.826 57.4792 784.575 57.7891C784.325 58.099 784.088 58.3929 783.864 58.6709Z" fill="#616161"/>
<path d="M331.16 164.819C330.891 164.493 331.122 164 331.546 164H771.581C771.712 164 771.837 164.051 771.93 164.142L782.19 174.142C782.391 174.338 782.391 174.662 782.19 174.858L771.93 184.858C771.837 184.949 771.712 185 771.581 185H331.546C331.122 185 330.891 184.507 331.16 184.181L337.849 176.093C338.614 175.169 338.614 173.831 337.849 172.907L331.16 164.819Z" fill="url(#paint12_linear_34_18630)" stroke="url(#paint13_linear_34_18630)" stroke-width="2"/>
<path d="M431.844 180H429.636V170.197H431.844V180ZM440.628 180H438.475V176.11C438.475 175.026 438.087 174.483 437.312 174.483C436.939 174.483 436.631 174.627 436.39 174.914C436.148 175.201 436.027 175.566 436.027 176.008V180H433.867V173H436.027V174.107H436.055C436.57 173.255 437.319 172.829 438.304 172.829C439.853 172.829 440.628 173.791 440.628 175.714V180ZM447.648 179.747C447.161 180.03 446.457 180.171 445.536 180.171C444.461 180.171 443.59 179.845 442.925 179.193C442.259 178.542 441.927 177.701 441.927 176.671C441.927 175.481 442.282 174.545 442.993 173.861C443.709 173.173 444.663 172.829 445.857 172.829C446.682 172.829 447.279 172.938 447.648 173.157V174.989C447.197 174.652 446.694 174.483 446.138 174.483C445.518 174.483 445.026 174.666 444.661 175.03C444.301 175.39 444.121 175.889 444.121 176.527C444.121 177.147 444.294 177.635 444.641 177.99C444.987 178.341 445.463 178.517 446.069 178.517C446.607 178.517 447.133 178.348 447.648 178.011V179.747ZM453.637 174.948C453.377 174.807 453.074 174.736 452.728 174.736C452.258 174.736 451.891 174.91 451.627 175.256C451.363 175.598 451.23 176.065 451.23 176.657V180H449.07V173H451.23V174.299H451.258C451.6 173.351 452.215 172.877 453.104 172.877C453.331 172.877 453.509 172.904 453.637 172.959V174.948ZM460.883 177.115H456.316C456.389 178.132 457.03 178.64 458.237 178.64C459.007 178.64 459.684 178.457 460.268 178.093V179.651C459.62 179.998 458.78 180.171 457.745 180.171C456.615 180.171 455.738 179.859 455.113 179.234C454.489 178.605 454.177 177.73 454.177 176.609C454.177 175.447 454.514 174.527 455.188 173.848C455.863 173.169 456.692 172.829 457.677 172.829C458.698 172.829 459.486 173.132 460.042 173.738C460.603 174.344 460.883 175.167 460.883 176.206V177.115ZM458.88 175.789C458.88 174.786 458.474 174.285 457.663 174.285C457.317 174.285 457.016 174.429 456.761 174.716C456.51 175.003 456.357 175.361 456.303 175.789H458.88ZM473.283 180H471.13V176.008C471.13 174.992 470.756 174.483 470.009 174.483C469.653 174.483 469.364 174.636 469.141 174.941C468.917 175.247 468.806 175.627 468.806 176.083V180H466.646V175.967C466.646 174.978 466.279 174.483 465.545 174.483C465.176 174.483 464.88 174.629 464.656 174.921C464.438 175.213 464.328 175.609 464.328 176.11V180H462.168V173H464.328V174.094H464.355C464.579 173.72 464.891 173.417 465.292 173.185C465.698 172.948 466.14 172.829 466.618 172.829C467.607 172.829 468.284 173.264 468.648 174.135C469.182 173.264 469.965 172.829 471 172.829C472.522 172.829 473.283 173.768 473.283 175.646V180ZM481.281 177.115H476.715C476.788 178.132 477.428 178.64 478.636 178.64C479.406 178.64 480.083 178.457 480.666 178.093V179.651C480.019 179.998 479.178 180.171 478.144 180.171C477.013 180.171 476.136 179.859 475.512 179.234C474.887 178.605 474.575 177.73 474.575 176.609C474.575 175.447 474.912 174.527 475.587 173.848C476.261 173.169 477.091 172.829 478.075 172.829C479.096 172.829 479.884 173.132 480.44 173.738C481.001 174.344 481.281 175.167 481.281 176.206V177.115ZM479.278 175.789C479.278 174.786 478.873 174.285 478.062 174.285C477.715 174.285 477.414 174.429 477.159 174.716C476.909 175.003 476.756 175.361 476.701 175.789H479.278ZM489.327 180H487.174V176.11C487.174 175.026 486.786 174.483 486.012 174.483C485.638 174.483 485.33 174.627 485.089 174.914C484.847 175.201 484.727 175.566 484.727 176.008V180H482.566V173H484.727V174.107H484.754C485.269 173.255 486.019 172.829 487.003 172.829C488.552 172.829 489.327 173.791 489.327 175.714V180ZM495.274 179.918C494.955 180.087 494.475 180.171 493.832 180.171C492.31 180.171 491.549 179.38 491.549 177.799V174.593H490.414V173H491.549V171.489L493.702 170.874V173H495.274V174.593H493.702V177.423C493.702 178.152 493.992 178.517 494.57 178.517C494.798 178.517 495.033 178.451 495.274 178.318V179.918ZM502.322 180H500.278V178.995H500.251C499.782 179.779 499.087 180.171 498.166 180.171C497.487 180.171 496.951 179.979 496.56 179.597C496.172 179.209 495.979 178.694 495.979 178.052C495.979 176.694 496.783 175.91 498.392 175.7L500.292 175.447C500.292 174.682 499.877 174.299 499.048 174.299C498.214 174.299 497.421 174.547 496.669 175.044V173.417C496.97 173.262 497.38 173.125 497.899 173.007C498.424 172.888 498.9 172.829 499.328 172.829C501.324 172.829 502.322 173.825 502.322 175.816V180ZM500.292 177.156V176.685L499.021 176.849C498.319 176.94 497.968 177.257 497.968 177.799C497.968 178.045 498.052 178.248 498.221 178.407C498.394 178.562 498.626 178.64 498.918 178.64C499.324 178.64 499.654 178.501 499.909 178.223C500.164 177.94 500.292 177.585 500.292 177.156ZM506.191 180H504.031V169.637H506.191V180ZM514.066 179.187H514.039V183.22H511.879V173H514.039V174.053H514.066C514.6 173.237 515.349 172.829 516.315 172.829C517.222 172.829 517.922 173.141 518.414 173.766C518.911 174.385 519.159 175.231 519.159 176.302C519.159 177.468 518.87 178.405 518.291 179.111C517.717 179.818 516.951 180.171 515.994 180.171C515.151 180.171 514.508 179.843 514.066 179.187ZM514.005 176.315V176.876C514.005 177.359 514.132 177.753 514.388 178.059C514.643 178.364 514.978 178.517 515.393 178.517C515.885 178.517 516.265 178.327 516.534 177.949C516.808 177.566 516.944 177.026 516.944 176.329C516.944 175.099 516.466 174.483 515.509 174.483C515.067 174.483 514.704 174.652 514.422 174.989C514.144 175.322 514.005 175.764 514.005 176.315ZM525.127 174.948C524.867 174.807 524.564 174.736 524.218 174.736C523.748 174.736 523.382 174.91 523.117 175.256C522.853 175.598 522.721 176.065 522.721 176.657V180H520.561V173H522.721V174.299H522.748C523.09 173.351 523.705 172.877 524.594 172.877C524.822 172.877 524.999 172.904 525.127 172.959V174.948ZM529.42 180.171C528.253 180.171 527.335 179.845 526.665 179.193C526 178.537 525.667 177.648 525.667 176.527C525.667 175.37 526.013 174.465 526.706 173.813C527.399 173.157 528.335 172.829 529.516 172.829C530.678 172.829 531.589 173.157 532.25 173.813C532.911 174.465 533.241 175.329 533.241 176.404C533.241 177.566 532.899 178.485 532.216 179.159C531.537 179.834 530.605 180.171 529.42 180.171ZM529.475 174.483C528.964 174.483 528.568 174.659 528.285 175.01C528.003 175.361 527.861 175.857 527.861 176.5C527.861 177.844 528.404 178.517 529.488 178.517C530.523 178.517 531.04 177.826 531.04 176.445C531.04 175.137 530.518 174.483 529.475 174.483ZM541.506 179.2C541.506 180.499 541.13 181.504 540.378 182.215C539.626 182.93 538.537 183.288 537.11 183.288C536.167 183.288 535.42 183.154 534.868 182.885V181.066C535.588 181.486 536.315 181.695 537.049 181.695C537.778 181.695 538.343 181.502 538.744 181.114C539.145 180.731 539.346 180.21 539.346 179.549V178.995H539.318C538.826 179.779 538.099 180.171 537.138 180.171C536.244 180.171 535.536 179.856 535.012 179.228C534.488 178.599 534.226 177.756 534.226 176.698C534.226 175.513 534.517 174.572 535.101 173.875C535.684 173.178 536.452 172.829 537.404 172.829C538.257 172.829 538.895 173.157 539.318 173.813H539.346V173H541.506V179.2ZM539.373 176.637V176.083C539.373 175.641 539.241 175.265 538.977 174.955C538.717 174.641 538.377 174.483 537.958 174.483C537.479 174.483 537.104 174.67 536.83 175.044C536.557 175.418 536.42 175.944 536.42 176.623C536.42 177.206 536.55 177.669 536.81 178.011C537.069 178.348 537.425 178.517 537.876 178.517C538.323 178.517 538.683 178.346 538.956 178.004C539.234 177.658 539.373 177.202 539.373 176.637ZM547.877 174.948C547.617 174.807 547.314 174.736 546.968 174.736C546.498 174.736 546.132 174.91 545.867 175.256C545.603 175.598 545.471 176.065 545.471 176.657V180H543.311V173H545.471V174.299H545.498C545.84 173.351 546.455 172.877 547.344 172.877C547.572 172.877 547.749 172.904 547.877 172.959V174.948ZM555.123 177.115H550.557C550.63 178.132 551.27 178.64 552.478 178.64C553.248 178.64 553.924 178.457 554.508 178.093V179.651C553.861 179.998 553.02 180.171 551.985 180.171C550.855 180.171 549.978 179.859 549.354 179.234C548.729 178.605 548.417 177.73 548.417 176.609C548.417 175.447 548.754 174.527 549.429 173.848C550.103 173.169 550.933 172.829 551.917 172.829C552.938 172.829 553.726 173.132 554.282 173.738C554.843 174.344 555.123 175.167 555.123 176.206V177.115ZM553.12 175.789C553.12 174.786 552.715 174.285 551.903 174.285C551.557 174.285 551.256 174.429 551.001 174.716C550.75 175.003 550.598 175.361 550.543 175.789H553.12ZM555.95 179.815V178.065C556.306 178.28 556.659 178.439 557.01 178.544C557.365 178.649 557.7 178.701 558.015 178.701C558.397 178.701 558.698 178.649 558.917 178.544C559.14 178.439 559.252 178.28 559.252 178.065C559.252 177.929 559.202 177.815 559.102 177.724C559.001 177.632 558.871 177.553 558.712 177.484C558.557 177.416 558.386 177.354 558.199 177.3C558.012 177.245 557.832 177.184 557.659 177.115C557.381 177.01 557.135 176.899 556.921 176.78C556.711 176.657 556.534 176.516 556.388 176.356C556.246 176.197 556.137 176.012 556.06 175.803C555.987 175.593 555.95 175.345 555.95 175.058C555.95 174.666 556.035 174.328 556.203 174.046C556.376 173.763 556.604 173.533 556.887 173.355C557.174 173.173 557.5 173.041 557.864 172.959C558.233 172.872 558.616 172.829 559.013 172.829C559.323 172.829 559.637 172.854 559.956 172.904C560.275 172.95 560.59 173.018 560.899 173.109V174.777C560.626 174.618 560.332 174.499 560.018 174.422C559.708 174.34 559.402 174.299 559.102 174.299C558.96 174.299 558.826 174.312 558.698 174.34C558.575 174.363 558.466 174.399 558.37 174.449C558.274 174.495 558.199 174.556 558.145 174.634C558.09 174.707 558.062 174.791 558.062 174.887C558.062 175.014 558.104 175.124 558.186 175.215C558.268 175.306 558.375 175.386 558.507 175.454C558.639 175.518 558.785 175.577 558.944 175.632C559.108 175.682 559.27 175.734 559.43 175.789C559.717 175.889 559.977 175.999 560.209 176.117C560.441 176.236 560.64 176.375 560.804 176.534C560.972 176.694 561.1 176.881 561.187 177.095C561.278 177.309 561.323 177.564 561.323 177.86C561.323 178.275 561.232 178.631 561.05 178.927C560.872 179.218 560.633 179.458 560.332 179.645C560.036 179.827 559.692 179.959 559.3 180.041C558.912 180.128 558.509 180.171 558.09 180.171C557.32 180.171 556.606 180.052 555.95 179.815ZM562.116 179.815V178.065C562.472 178.28 562.825 178.439 563.176 178.544C563.531 178.649 563.866 178.701 564.181 178.701C564.563 178.701 564.864 178.649 565.083 178.544C565.306 178.439 565.418 178.28 565.418 178.065C565.418 177.929 565.368 177.815 565.268 177.724C565.167 177.632 565.037 177.553 564.878 177.484C564.723 177.416 564.552 177.354 564.365 177.3C564.178 177.245 563.998 177.184 563.825 177.115C563.547 177.01 563.301 176.899 563.087 176.78C562.877 176.657 562.7 176.516 562.554 176.356C562.412 176.197 562.303 176.012 562.226 175.803C562.153 175.593 562.116 175.345 562.116 175.058C562.116 174.666 562.201 174.328 562.369 174.046C562.542 173.763 562.77 173.533 563.053 173.355C563.34 173.173 563.666 173.041 564.03 172.959C564.399 172.872 564.782 172.829 565.179 172.829C565.489 172.829 565.803 172.854 566.122 172.904C566.441 172.95 566.756 173.018 567.065 173.109V174.777C566.792 174.618 566.498 174.499 566.184 174.422C565.874 174.34 565.568 174.299 565.268 174.299C565.126 174.299 564.992 174.312 564.864 174.34C564.741 174.363 564.632 174.399 564.536 174.449C564.44 174.495 564.365 174.556 564.311 174.634C564.256 174.707 564.229 174.791 564.229 174.887C564.229 175.014 564.27 175.124 564.352 175.215C564.434 175.306 564.541 175.386 564.673 175.454C564.805 175.518 564.951 175.577 565.11 175.632C565.274 175.682 565.436 175.734 565.596 175.789C565.883 175.889 566.143 175.999 566.375 176.117C566.607 176.236 566.806 176.375 566.97 176.534C567.138 176.694 567.266 176.881 567.353 177.095C567.444 177.309 567.489 177.564 567.489 177.86C567.489 178.275 567.398 178.631 567.216 178.927C567.038 179.218 566.799 179.458 566.498 179.645C566.202 179.827 565.858 179.959 565.466 180.041C565.078 180.128 564.675 180.171 564.256 180.171C563.486 180.171 562.772 180.052 562.116 179.815ZM576.841 179.918C576.522 180.087 576.041 180.171 575.398 180.171C573.876 180.171 573.115 179.38 573.115 177.799V174.593H571.98V173H573.115V171.489L575.269 170.874V173H576.841V174.593H575.269V177.423C575.269 178.152 575.558 178.517 576.137 178.517C576.365 178.517 576.599 178.451 576.841 178.318V179.918ZM581.346 180.171C580.179 180.171 579.261 179.845 578.591 179.193C577.925 178.537 577.593 177.648 577.593 176.527C577.593 175.37 577.939 174.465 578.632 173.813C579.325 173.157 580.261 172.829 581.441 172.829C582.604 172.829 583.515 173.157 584.176 173.813C584.837 174.465 585.167 175.329 585.167 176.404C585.167 177.566 584.825 178.485 584.142 179.159C583.463 179.834 582.531 180.171 581.346 180.171ZM581.4 174.483C580.89 174.483 580.493 174.659 580.211 175.01C579.928 175.361 579.787 175.857 579.787 176.5C579.787 177.844 580.329 178.517 581.414 178.517C582.449 178.517 582.966 177.826 582.966 176.445C582.966 175.137 582.444 174.483 581.4 174.483ZM596.706 173L594.689 180H592.42L591.388 175.898C591.319 175.625 591.281 175.326 591.271 175.003H591.23C591.199 175.358 591.153 175.648 591.094 175.871L589.986 180H587.744L585.769 173H587.97L588.934 177.566C588.979 177.781 589.013 178.04 589.036 178.346H589.077C589.1 178.027 589.141 177.758 589.2 177.539L590.403 173H592.461L593.541 177.566C593.568 177.68 593.6 177.945 593.637 178.359H593.685C593.707 178.095 593.744 177.831 593.794 177.566L594.703 173H596.706ZM603.562 180H601.519V178.995H601.491C601.022 179.779 600.327 180.171 599.406 180.171C598.727 180.171 598.192 179.979 597.8 179.597C597.412 179.209 597.219 178.694 597.219 178.052C597.219 176.694 598.023 175.91 599.632 175.7L601.532 175.447C601.532 174.682 601.118 174.299 600.288 174.299C599.454 174.299 598.661 174.547 597.909 175.044V173.417C598.21 173.262 598.62 173.125 599.14 173.007C599.664 172.888 600.14 172.829 600.568 172.829C602.564 172.829 603.562 173.825 603.562 175.816V180ZM601.532 177.156V176.685L600.261 176.849C599.559 176.94 599.208 177.257 599.208 177.799C599.208 178.045 599.292 178.248 599.461 178.407C599.634 178.562 599.867 178.64 600.158 178.64C600.564 178.64 600.894 178.501 601.149 178.223C601.405 177.94 601.532 177.585 601.532 177.156ZM609.838 174.948C609.578 174.807 609.275 174.736 608.929 174.736C608.459 174.736 608.092 174.91 607.828 175.256C607.564 175.598 607.432 176.065 607.432 176.657V180H605.271V173H607.432V174.299H607.459C607.801 173.351 608.416 172.877 609.305 172.877C609.533 172.877 609.71 172.904 609.838 172.959V174.948ZM617.645 180H615.484V179.036H615.457C614.965 179.793 614.243 180.171 613.29 180.171C612.415 180.171 611.711 179.863 611.178 179.248C610.645 178.628 610.378 177.765 610.378 176.657C610.378 175.5 610.672 174.572 611.26 173.875C611.848 173.178 612.618 172.829 613.57 172.829C614.473 172.829 615.102 173.153 615.457 173.8H615.484V169.637H617.645V180ZM615.525 176.596V176.069C615.525 175.614 615.393 175.235 615.129 174.935C614.865 174.634 614.521 174.483 614.097 174.483C613.618 174.483 613.244 174.673 612.976 175.051C612.707 175.424 612.572 175.939 612.572 176.596C612.572 177.211 612.702 177.685 612.962 178.018C613.222 178.35 613.582 178.517 614.042 178.517C614.479 178.517 614.835 178.341 615.108 177.99C615.386 177.639 615.525 177.174 615.525 176.596ZM623.544 180V170.197H627.112C628.206 170.197 629.047 170.398 629.635 170.799C630.223 171.2 630.517 171.765 630.517 172.494C630.517 173.023 630.337 173.485 629.977 173.882C629.621 174.278 629.165 174.554 628.609 174.709V174.736C629.307 174.823 629.863 175.08 630.277 175.509C630.697 175.937 630.906 176.459 630.906 177.074C630.906 177.972 630.585 178.685 629.942 179.214C629.3 179.738 628.423 180 627.311 180H623.544ZM625.752 171.824V174.148H626.723C627.178 174.148 627.536 174.039 627.796 173.82C628.06 173.597 628.192 173.292 628.192 172.904C628.192 172.184 627.655 171.824 626.579 171.824H625.752ZM625.752 175.789V178.373H626.948C627.459 178.373 627.857 178.255 628.145 178.018C628.436 177.781 628.582 177.457 628.582 177.047C628.582 176.655 628.438 176.347 628.151 176.124C627.869 175.901 627.472 175.789 626.962 175.789H625.752ZM634.734 180H632.526V170.197H634.734V180ZM647.49 179.2C647.49 180.499 647.114 181.504 646.362 182.215C645.61 182.93 644.521 183.288 643.095 183.288C642.151 183.288 641.404 183.154 640.853 182.885V181.066C641.573 181.486 642.299 181.695 643.033 181.695C643.762 181.695 644.327 181.502 644.729 181.114C645.13 180.731 645.33 180.21 645.33 179.549V178.995H645.303C644.811 179.779 644.084 180.171 643.122 180.171C642.229 180.171 641.52 179.856 640.996 179.228C640.472 178.599 640.21 177.756 640.21 176.698C640.21 175.513 640.502 174.572 641.085 173.875C641.668 173.178 642.436 172.829 643.389 172.829C644.241 172.829 644.879 173.157 645.303 173.813H645.33V173H647.49V179.2ZM645.357 176.637V176.083C645.357 175.641 645.225 175.265 644.961 174.955C644.701 174.641 644.362 174.483 643.942 174.483C643.464 174.483 643.088 174.67 642.814 175.044C642.541 175.418 642.404 175.944 642.404 176.623C642.404 177.206 642.534 177.669 642.794 178.011C643.054 178.348 643.409 178.517 643.86 178.517C644.307 178.517 644.667 178.346 644.94 178.004C645.218 177.658 645.357 177.202 645.357 176.637ZM652.631 180.171C651.464 180.171 650.546 179.845 649.876 179.193C649.211 178.537 648.878 177.648 648.878 176.527C648.878 175.37 649.224 174.465 649.917 173.813C650.61 173.157 651.546 172.829 652.727 172.829C653.889 172.829 654.8 173.157 655.461 173.813C656.122 174.465 656.452 175.329 656.452 176.404C656.452 177.566 656.11 178.485 655.427 179.159C654.748 179.834 653.816 180.171 652.631 180.171ZM652.686 174.483C652.175 174.483 651.779 174.659 651.496 175.01C651.214 175.361 651.072 175.857 651.072 176.5C651.072 177.844 651.615 178.517 652.699 178.517C653.734 178.517 654.251 177.826 654.251 176.445C654.251 175.137 653.729 174.483 652.686 174.483ZM663.541 180H661.497V178.995H661.47C661 179.779 660.305 180.171 659.385 180.171C658.706 180.171 658.17 179.979 657.778 179.597C657.391 179.209 657.197 178.694 657.197 178.052C657.197 176.694 658.002 175.91 659.61 175.7L661.511 175.447C661.511 174.682 661.096 174.299 660.267 174.299C659.433 174.299 658.64 174.547 657.888 175.044V173.417C658.188 173.262 658.599 173.125 659.118 173.007C659.642 172.888 660.118 172.829 660.547 172.829C662.543 172.829 663.541 173.825 663.541 175.816V180ZM661.511 177.156V176.685L660.239 176.849C659.537 176.94 659.187 177.257 659.187 177.799C659.187 178.045 659.271 178.248 659.439 178.407C659.613 178.562 659.845 178.64 660.137 178.64C660.542 178.64 660.873 178.501 661.128 178.223C661.383 177.94 661.511 177.585 661.511 177.156ZM667.41 180H665.25V169.637H667.41V180ZM668.771 179.815V178.065C669.126 178.28 669.479 178.439 669.83 178.544C670.186 178.649 670.521 178.701 670.835 178.701C671.218 178.701 671.519 178.649 671.737 178.544C671.961 178.439 672.072 178.28 672.072 178.065C672.072 177.929 672.022 177.815 671.922 177.724C671.822 177.632 671.692 177.553 671.532 177.484C671.377 177.416 671.206 177.354 671.02 177.3C670.833 177.245 670.653 177.184 670.479 177.115C670.201 177.01 669.955 176.899 669.741 176.78C669.532 176.657 669.354 176.516 669.208 176.356C669.067 176.197 668.957 176.012 668.88 175.803C668.807 175.593 668.771 175.345 668.771 175.058C668.771 174.666 668.855 174.328 669.023 174.046C669.197 173.763 669.424 173.533 669.707 173.355C669.994 173.173 670.32 173.041 670.685 172.959C671.054 172.872 671.437 172.829 671.833 172.829C672.143 172.829 672.457 172.854 672.776 172.904C673.095 172.95 673.41 173.018 673.72 173.109V174.777C673.446 174.618 673.152 174.499 672.838 174.422C672.528 174.34 672.223 174.299 671.922 174.299C671.781 174.299 671.646 174.312 671.519 174.34C671.396 174.363 671.286 174.399 671.19 174.449C671.095 174.495 671.02 174.556 670.965 174.634C670.91 174.707 670.883 174.791 670.883 174.887C670.883 175.014 670.924 175.124 671.006 175.215C671.088 175.306 671.195 175.386 671.327 175.454C671.459 175.518 671.605 175.577 671.765 175.632C671.929 175.682 672.09 175.734 672.25 175.789C672.537 175.889 672.797 175.999 673.029 176.117C673.262 176.236 673.46 176.375 673.624 176.534C673.793 176.694 673.92 176.881 674.007 177.095C674.098 177.309 674.144 177.564 674.144 177.86C674.144 178.275 674.052 178.631 673.87 178.927C673.692 179.218 673.453 179.458 673.152 179.645C672.856 179.827 672.512 179.959 672.12 180.041C671.733 180.128 671.329 180.171 670.91 180.171C670.14 180.171 669.427 180.052 668.771 179.815Z" fill="url(#paint14_linear_34_18630)"/>
<path d="M277.407 149.784C277.178 149.452 277.416 149 277.819 149H333.347C333.502 149 333.648 149.071 333.742 149.194L341.497 159.194C341.636 159.374 341.636 159.626 341.497 159.806L333.742 169.806C333.648 169.929 333.502 170 333.347 170H277.819C277.416 170 277.178 169.548 277.407 169.216L283.126 160.919C283.715 160.065 283.715 158.935 283.126 158.081L277.407 149.784Z" fill="#E3EAF0" stroke="url(#paint15_linear_34_18630)" stroke-width="2"/>
<path d="M297.535 161.623V165H295.327V155.197H298.786C301.256 155.197 302.491 156.239 302.491 158.321C302.491 159.306 302.136 160.103 301.425 160.714C300.718 161.32 299.773 161.623 298.588 161.623H297.535ZM297.535 156.893V159.948H298.403C299.579 159.948 300.167 159.433 300.167 158.403C300.167 157.396 299.579 156.893 298.403 156.893H297.535ZM305.875 165H303.715V154.637H305.875V165ZM313.518 165H311.474V163.995H311.446C310.977 164.779 310.282 165.171 309.361 165.171C308.682 165.171 308.147 164.979 307.755 164.597C307.368 164.209 307.174 163.694 307.174 163.052C307.174 161.694 307.978 160.91 309.587 160.7L311.487 160.447C311.487 159.682 311.073 159.299 310.243 159.299C309.409 159.299 308.616 159.547 307.864 160.044V158.417C308.165 158.262 308.575 158.125 309.095 158.007C309.619 157.888 310.095 157.829 310.523 157.829C312.52 157.829 313.518 158.825 313.518 160.816V165ZM311.487 162.156V161.685L310.216 161.849C309.514 161.94 309.163 162.257 309.163 162.799C309.163 163.045 309.247 163.248 309.416 163.407C309.589 163.562 309.822 163.64 310.113 163.64C310.519 163.64 310.849 163.501 311.104 163.223C311.36 162.94 311.487 162.585 311.487 162.156ZM321.987 165H319.834V161.11C319.834 160.026 319.447 159.483 318.672 159.483C318.298 159.483 317.991 159.627 317.749 159.914C317.507 160.201 317.387 160.566 317.387 161.008V165H315.227V158H317.387V159.107H317.414C317.929 158.255 318.679 157.829 319.663 157.829C321.213 157.829 321.987 158.791 321.987 160.714V165Z" fill="url(#paint16_linear_34_18630)"/>
<path d="M327.136 248.746C326.947 248.413 327.188 248 327.571 248H412.823C412.993 248 413.152 248.087 413.244 248.231L419.641 258.231C419.746 258.395 419.746 258.605 419.641 258.769L413.244 268.769C413.152 268.913 412.993 269 412.823 269H327.571C327.188 269 326.947 268.587 327.136 268.254L331.953 259.73C332.385 258.967 332.385 258.033 331.953 257.27L327.136 248.746Z" fill="url(#paint17_linear_34_18630)" stroke="url(#paint18_linear_34_18630)" stroke-width="2"/>
<path d="M338.913 263H336.705V253.197H338.913V263ZM352.052 263H349.898V259.008C349.898 257.992 349.525 257.483 348.777 257.483C348.422 257.483 348.132 257.636 347.909 257.941C347.686 258.247 347.574 258.627 347.574 259.083V263H345.414V258.967C345.414 257.978 345.047 257.483 344.313 257.483C343.944 257.483 343.648 257.629 343.425 257.921C343.206 258.213 343.097 258.609 343.097 259.11V263H340.937V256H343.097V257.094H343.124C343.347 256.72 343.66 256.417 344.061 256.185C344.466 255.948 344.908 255.829 345.387 255.829C346.376 255.829 347.052 256.264 347.417 257.135C347.95 256.264 348.734 255.829 349.769 255.829C351.291 255.829 352.052 256.768 352.052 258.646V263ZM355.948 262.187H355.921V266.22H353.761V256H355.921V257.053H355.948C356.481 256.237 357.231 255.829 358.197 255.829C359.104 255.829 359.804 256.141 360.296 256.766C360.793 257.385 361.041 258.231 361.041 259.302C361.041 260.468 360.752 261.405 360.173 262.111C359.599 262.818 358.833 263.171 357.876 263.171C357.033 263.171 356.39 262.843 355.948 262.187ZM355.887 259.315V259.876C355.887 260.359 356.014 260.753 356.27 261.059C356.525 261.364 356.86 261.517 357.274 261.517C357.767 261.517 358.147 261.327 358.416 260.949C358.689 260.566 358.826 260.026 358.826 259.329C358.826 258.099 358.348 257.483 357.391 257.483C356.949 257.483 356.586 257.652 356.304 257.989C356.026 258.322 355.887 258.764 355.887 259.315ZM364.603 263H362.442V252.637H364.603V263ZM372.71 260.115H368.144C368.216 261.132 368.857 261.64 370.064 261.64C370.835 261.64 371.511 261.457 372.095 261.093V262.651C371.448 262.998 370.607 263.171 369.572 263.171C368.442 263.171 367.565 262.859 366.94 262.234C366.316 261.605 366.004 260.73 366.004 259.609C366.004 258.447 366.341 257.527 367.016 256.848C367.69 256.169 368.52 255.829 369.504 255.829C370.525 255.829 371.313 256.132 371.869 256.738C372.43 257.344 372.71 258.167 372.71 259.206V260.115ZM370.707 258.789C370.707 257.786 370.301 257.285 369.49 257.285C369.144 257.285 368.843 257.429 368.588 257.716C368.337 258.003 368.185 258.361 368.13 258.789H370.707ZM385.11 263H382.957V259.008C382.957 257.992 382.583 257.483 381.836 257.483C381.48 257.483 381.191 257.636 380.968 257.941C380.744 258.247 380.633 258.627 380.633 259.083V263H378.473V258.967C378.473 257.978 378.106 257.483 377.372 257.483C377.003 257.483 376.707 257.629 376.483 257.921C376.265 258.213 376.155 258.609 376.155 259.11V263H373.995V256H376.155V257.094H376.183C376.406 256.72 376.718 256.417 377.119 256.185C377.525 255.948 377.967 255.829 378.445 255.829C379.434 255.829 380.111 256.264 380.476 257.135C381.009 256.264 381.793 255.829 382.827 255.829C384.349 255.829 385.11 256.768 385.11 258.646V263ZM393.108 260.115H388.542C388.615 261.132 389.255 261.64 390.463 261.64C391.233 261.64 391.91 261.457 392.493 261.093V262.651C391.846 262.998 391.005 263.171 389.971 263.171C388.84 263.171 387.963 262.859 387.339 262.234C386.715 261.605 386.402 260.73 386.402 259.609C386.402 258.447 386.74 257.527 387.414 256.848C388.089 256.169 388.918 255.829 389.902 255.829C390.923 255.829 391.712 256.132 392.268 256.738C392.828 257.344 393.108 258.167 393.108 259.206V260.115ZM391.105 258.789C391.105 257.786 390.7 257.285 389.889 257.285C389.542 257.285 389.242 257.429 388.986 257.716C388.736 258.003 388.583 258.361 388.528 258.789H391.105ZM401.154 263H399.001V259.11C399.001 258.026 398.614 257.483 397.839 257.483C397.465 257.483 397.158 257.627 396.916 257.914C396.674 258.201 396.554 258.566 396.554 259.008V263H394.394V256H396.554V257.107H396.581C397.096 256.255 397.846 255.829 398.83 255.829C400.38 255.829 401.154 256.791 401.154 258.714V263ZM407.102 262.918C406.783 263.087 406.302 263.171 405.659 263.171C404.137 263.171 403.376 262.38 403.376 260.799V257.593H402.241V256H403.376V254.489L405.529 253.874V256H407.102V257.593H405.529V260.423C405.529 261.152 405.819 261.517 406.397 261.517C406.625 261.517 406.86 261.451 407.102 261.318V262.918Z" fill="url(#paint19_linear_34_18630)"/>
<path d="M277.407 230.784C277.178 230.452 277.416 230 277.819 230H333.347C333.502 230 333.648 230.071 333.742 230.194L341.497 240.194C341.636 240.374 341.636 240.626 341.497 240.806L333.742 250.806C333.648 250.929 333.502 251 333.347 251H277.819C277.416 251 277.178 250.548 277.407 250.216L283.126 241.919C283.715 241.065 283.715 239.935 283.126 239.081L277.407 230.784Z" fill="#E3EAF0" stroke="url(#paint20_linear_34_18630)" stroke-width="2"/>
<path d="M297.535 242.623V246H295.327V236.197H298.786C301.256 236.197 302.491 237.239 302.491 239.321C302.491 240.306 302.136 241.103 301.425 241.714C300.718 242.32 299.773 242.623 298.588 242.623H297.535ZM297.535 237.893V240.948H298.403C299.579 240.948 300.167 240.433 300.167 239.403C300.167 238.396 299.579 237.893 298.403 237.893H297.535ZM305.875 246H303.715V235.637H305.875V246ZM313.518 246H311.474V244.995H311.446C310.977 245.779 310.282 246.171 309.361 246.171C308.682 246.171 308.147 245.979 307.755 245.597C307.368 245.209 307.174 244.694 307.174 244.052C307.174 242.694 307.978 241.91 309.587 241.7L311.487 241.447C311.487 240.682 311.073 240.299 310.243 240.299C309.409 240.299 308.616 240.547 307.864 241.044V239.417C308.165 239.262 308.575 239.125 309.095 239.007C309.619 238.888 310.095 238.829 310.523 238.829C312.52 238.829 313.518 239.825 313.518 241.816V246ZM311.487 243.156V242.685L310.216 242.849C309.514 242.94 309.163 243.257 309.163 243.799C309.163 244.045 309.247 244.248 309.416 244.407C309.589 244.562 309.822 244.64 310.113 244.64C310.519 244.64 310.849 244.501 311.104 244.223C311.36 243.94 311.487 243.585 311.487 243.156ZM321.987 246H319.834V242.11C319.834 241.026 319.447 240.483 318.672 240.483C318.298 240.483 317.991 240.627 317.749 240.914C317.507 241.201 317.387 241.566 317.387 242.008V246H315.227V239H317.387V240.107H317.414C317.929 239.255 318.679 238.829 319.663 238.829C321.213 238.829 321.987 239.791 321.987 241.714V246Z" fill="url(#paint21_linear_34_18630)"/>
<path d="M447.136 248.746C446.947 248.413 447.188 248 447.571 248H532.823C532.993 248 533.152 248.087 533.244 248.231L539.641 258.231C539.746 258.395 539.746 258.605 539.641 258.769L533.244 268.769C533.152 268.913 532.993 269 532.823 269H447.571C447.188 269 446.947 268.587 447.136 268.254L451.953 259.73C452.385 258.967 452.385 258.033 451.953 257.27L447.136 248.746Z" fill="url(#paint22_linear_34_18630)" stroke="url(#paint23_linear_34_18630)" stroke-width="2"/>
<path d="M397.407 230.784C397.178 230.452 397.416 230 397.819 230H453.347C453.502 230 453.648 230.071 453.742 230.194L461.497 240.194C461.636 240.374 461.636 240.626 461.497 240.806L453.742 250.806C453.648 250.929 453.502 251 453.347 251H397.819C397.416 251 397.178 250.548 397.407 250.216L403.126 241.919C403.715 241.065 403.715 239.935 403.126 239.081L397.407 230.784Z" fill="#E3EAF0" stroke="url(#paint24_linear_34_18630)" stroke-width="2"/>
<path d="M572.136 248.746C571.947 248.413 572.188 248 572.571 248H657.823C657.993 248 658.152 248.087 658.244 248.231L664.641 258.231C664.746 258.395 664.746 258.605 664.641 258.769L658.244 268.769C658.152 268.913 657.993 269 657.823 269H572.571C572.188 269 571.947 268.587 572.136 268.254L576.953 259.73C577.385 258.967 577.385 258.033 576.953 257.27L572.136 248.746Z" fill="url(#paint25_linear_34_18630)" stroke="url(#paint26_linear_34_18630)" stroke-width="2"/>
<path d="M522.407 230.784C522.178 230.452 522.416 230 522.819 230H578.347C578.502 230 578.648 230.071 578.742 230.194L586.497 240.194C586.636 240.374 586.636 240.626 586.497 240.806L578.742 250.806C578.648 250.929 578.502 251 578.347 251H522.819C522.416 251 522.178 250.548 522.407 250.216L528.126 241.919C528.715 241.065 528.715 239.935 528.126 239.081L522.407 230.784Z" fill="#E3EAF0" stroke="url(#paint27_linear_34_18630)" stroke-width="2"/>
<path d="M692.136 248.746C691.947 248.413 692.188 248 692.571 248H777.823C777.993 248 778.152 248.087 778.244 248.231L784.641 258.231C784.746 258.395 784.746 258.605 784.641 258.769L778.244 268.769C778.152 268.913 777.993 269 777.823 269H692.571C692.188 269 691.947 268.587 692.136 268.254L696.953 259.73C697.385 258.967 697.385 258.033 696.953 257.27L692.136 248.746Z" fill="url(#paint28_linear_34_18630)" stroke="url(#paint29_linear_34_18630)" stroke-width="2"/>
<path d="M642.407 230.784C642.178 230.452 642.416 230 642.819 230H698.347C698.502 230 698.648 230.071 698.742 230.194L706.497 240.194C706.636 240.374 706.636 240.626 706.497 240.806L698.742 250.806C698.648 250.929 698.502 251 698.347 251H642.819C642.416 251 642.178 250.548 642.407 250.216L648.126 241.919C648.715 241.065 648.715 239.935 648.126 239.081L642.407 230.784Z" fill="#E3EAF0" stroke="url(#paint30_linear_34_18630)" stroke-width="2"/>
<defs>
<filter id="filter0_f_34_18630" x="35" y="132" width="777" height="71" filterUnits="userSpaceOnUse" color-interpolation-filters="sRGB">
<feFlood flood-opacity="0" result="BackgroundImageFix"/>
<feBlend mode="normal" in="SourceGraphic" in2="BackgroundImageFix" result="shape"/>
<feGaussianBlur stdDeviation="2.5" result="effect1_foregroundBlur_34_18630"/>
</filter>
<filter id="filter1_i_34_18630" x="63" y="150" width="35" height="39" filterUnits="userSpaceOnUse" color-interpolation-filters="sRGB">
<feFlood flood-opacity="0" result="BackgroundImageFix"/>
<feBlend mode="normal" in="SourceGraphic" in2="BackgroundImageFix" result="shape"/>
<feColorMatrix in="SourceAlpha" type="matrix" values="0 0 0 0 0 0 0 0 0 0 0 0 0 0 0 0 0 0 127 0" result="hardAlpha"/>
<feOffset dy="4"/>
<feGaussianBlur stdDeviation="2"/>
<feComposite in2="hardAlpha" operator="arithmetic" k2="-1" k3="1"/>
<feColorMatrix type="matrix" values="0 0 0 0 0 0 0 0 0 0 0 0 0 0 0 0 0 0 0.25 0"/>
<feBlend mode="normal" in2="shape" result="effect1_innerShadow_34_18630"/>
</filter>
<filter id="filter2_f_34_18630" x="35" y="213" width="777" height="71" filterUnits="userSpaceOnUse" color-interpolation-filters="sRGB">
<feFlood flood-opacity="0" result="BackgroundImageFix"/>
<feBlend mode="normal" in="SourceGraphic" in2="BackgroundImageFix" result="shape"/>
<feGaussianBlur stdDeviation="2.5" result="effect1_foregroundBlur_34_18630"/>
</filter>
<filter id="filter3_i_34_18630" x="63" y="231" width="35" height="39" filterUnits="userSpaceOnUse" color-interpolation-filters="sRGB">
<feFlood flood-opacity="0" result="BackgroundImageFix"/>
<feBlend mode="normal" in="SourceGraphic" in2="BackgroundImageFix" result="shape"/>
<feColorMatrix in="SourceAlpha" type="matrix" values="0 0 0 0 0 0 0 0 0 0 0 0 0 0 0 0 0 0 127 0" result="hardAlpha"/>
<feOffset dy="4"/>
<feGaussianBlur stdDeviation="2"/>
<feComposite in2="hardAlpha" operator="arithmetic" k2="-1" k3="1"/>
<feColorMatrix type="matrix" values="0 0 0 0 0 0 0 0 0 0 0 0 0 0 0 0 0 0 0.25 0"/>
<feBlend mode="normal" in2="shape" result="effect1_innerShadow_34_18630"/>
</filter>
<radialGradient id="paint0_radial_34_18630" cx="0" cy="0" r="1" gradientUnits="userSpaceOnUse" gradientTransform="translate(125.3 35.5863) rotate(17.6716) scale(840.192 383.561)">
<stop offset="0.198869" stop-color="#8EE3E8"/>
<stop offset="1" stop-color="#19177E"/>
</radialGradient>
<linearGradient id="paint1_linear_34_18630" x1="147.948" y1="167.256" x2="191.901" y2="281.218" gradientUnits="userSpaceOnUse">
<stop stop-color="white"/>
<stop offset="1" stop-color="#FAFAFA"/>
</linearGradient>
<linearGradient id="paint2_linear_34_18630" x1="76.2705" y1="153.099" x2="94.8637" y2="171.729" gradientUnits="userSpaceOnUse">
<stop stop-color="#416587"/>
<stop offset="1" stop-color="#1A3052"/>
</linearGradient>
<linearGradient id="paint3_linear_34_18630" x1="66.0996" y1="154.192" x2="93.8079" y2="181.901" gradientUnits="userSpaceOnUse">
<stop stop-color="#416587"/>
<stop offset="1" stop-color="#1A3052"/>
</linearGradient>
<linearGradient id="paint4_linear_34_18630" x1="71.2031" y1="159.297" x2="88.7031" y2="176.797" gradientUnits="userSpaceOnUse">
<stop stop-color="#416587"/>
<stop offset="1" stop-color="#1A3052"/>
</linearGradient>
<linearGradient id="paint5_linear_34_18630" x1="147.948" y1="248.256" x2="191.901" y2="362.218" gradientUnits="userSpaceOnUse">
<stop stop-color="white"/>
<stop offset="1" stop-color="#FAFAFA"/>
</linearGradient>
<linearGradient id="paint6_linear_34_18630" x1="68.7236" y1="236.104" x2="93.5076" y2="260.268" gradientUnits="userSpaceOnUse">
<stop stop-color="#22685C"/>
<stop offset="1" stop-color="#083831"/>
</linearGradient>
<linearGradient id="paint7_linear_34_18630" x1="74.6797" y1="240.479" x2="90.5484" y2="254.17" gradientUnits="userSpaceOnUse">
<stop stop-color="#22685C"/>
<stop offset="1" stop-color="#083831"/>
</linearGradient>
<linearGradient id="paint8_linear_34_18630" x1="82.6875" y1="250.687" x2="88.5211" y2="256.52" gradientUnits="userSpaceOnUse">
<stop stop-color="#22685C"/>
<stop offset="1" stop-color="#083831"/>
</linearGradient>
<linearGradient id="paint9_linear_34_18630" x1="74.666" y1="240.479" x2="80.4996" y2="246.312" gradientUnits="userSpaceOnUse">
<stop stop-color="#22685C"/>
<stop offset="1" stop-color="#083831"/>
</linearGradient>
<linearGradient id="paint10_linear_34_18630" x1="27" y1="156" x2="52" y2="181" gradientUnits="userSpaceOnUse">
<stop stop-color="#209782"/>
<stop offset="1" stop-color="#0C695A"/>
</linearGradient>
<linearGradient id="paint11_linear_34_18630" x1="27" y1="236" x2="52" y2="261" gradientUnits="userSpaceOnUse">
<stop stop-color="#209782"/>
<stop offset="1" stop-color="#0C695A"/>
</linearGradient>
<linearGradient id="paint12_linear_34_18630" x1="301.001" y1="163" x2="303.125" y2="208.902" gradientUnits="userSpaceOnUse">
<stop offset="0.0208333" stop-color="#EFF5F4"/>
<stop offset="1" stop-color="#F1F1F1"/>
</linearGradient>
<linearGradient id="paint13_linear_34_18630" x1="328.358" y1="163" x2="330.675" y2="208.883" gradientUnits="userSpaceOnUse">
<stop stop-color="#22685C"/>
<stop offset="1" stop-color="#083831"/>
</linearGradient>
<linearGradient id="paint14_linear_34_18630" x1="322" y1="165" x2="323.57" y2="202.935" gradientUnits="userSpaceOnUse">
<stop stop-color="#22685C"/>
<stop offset="1" stop-color="#083831"/>
</linearGradient>
<linearGradient id="paint15_linear_34_18630" x1="274.963" y1="148" x2="288.918" y2="189.282" gradientUnits="userSpaceOnUse">
<stop stop-color="#416587"/>
<stop offset="1" stop-color="#1A3052"/>
</linearGradient>
<linearGradient id="paint16_linear_34_18630" x1="284" y1="150" x2="296.809" y2="183.033" gradientUnits="userSpaceOnUse">
<stop stop-color="#416587"/>
<stop offset="1" stop-color="#1A3052"/>
</linearGradient>
<linearGradient id="paint17_linear_34_18630" x1="319.536" y1="247" x2="329.652" y2="290.656" gradientUnits="userSpaceOnUse">
<stop offset="0.0208333" stop-color="#EFF5F4"/>
<stop offset="1" stop-color="#F1F1F1"/>
</linearGradient>
<linearGradient id="paint18_linear_34_18630" x1="325" y1="247" x2="335.423" y2="290.503" gradientUnits="userSpaceOnUse">
<stop stop-color="#22685C"/>
<stop offset="1" stop-color="#083831"/>
</linearGradient>
<linearGradient id="paint19_linear_34_18630" x1="330" y1="248" x2="338.266" y2="284.108" gradientUnits="userSpaceOnUse">
<stop stop-color="#22685C"/>
<stop offset="1" stop-color="#083831"/>
</linearGradient>
<linearGradient id="paint20_linear_34_18630" x1="274.963" y1="229" x2="288.918" y2="270.282" gradientUnits="userSpaceOnUse">
<stop stop-color="#416587"/>
<stop offset="1" stop-color="#1A3052"/>
</linearGradient>
<linearGradient id="paint21_linear_34_18630" x1="284" y1="231" x2="296.809" y2="264.033" gradientUnits="userSpaceOnUse">
<stop stop-color="#416587"/>
<stop offset="1" stop-color="#1A3052"/>
</linearGradient>
<linearGradient id="paint22_linear_34_18630" x1="439.536" y1="247" x2="449.652" y2="290.656" gradientUnits="userSpaceOnUse">
<stop offset="0.0208333" stop-color="#EFF5F4"/>
<stop offset="1" stop-color="#F1F1F1"/>
</linearGradient>
<linearGradient id="paint23_linear_34_18630" x1="445" y1="247" x2="455.423" y2="290.503" gradientUnits="userSpaceOnUse">
<stop stop-color="#22685C"/>
<stop offset="1" stop-color="#083831"/>
</linearGradient>
<linearGradient id="paint24_linear_34_18630" x1="394.963" y1="229" x2="408.918" y2="270.282" gradientUnits="userSpaceOnUse">
<stop stop-color="#416587"/>
<stop offset="1" stop-color="#1A3052"/>
</linearGradient>
<linearGradient id="paint25_linear_34_18630" x1="564.536" y1="247" x2="574.652" y2="290.656" gradientUnits="userSpaceOnUse">
<stop offset="0.0208333" stop-color="#EFF5F4"/>
<stop offset="1" stop-color="#F1F1F1"/>
</linearGradient>
<linearGradient id="paint26_linear_34_18630" x1="570" y1="247" x2="580.423" y2="290.503" gradientUnits="userSpaceOnUse">
<stop stop-color="#22685C"/>
<stop offset="1" stop-color="#083831"/>
</linearGradient>
<linearGradient id="paint27_linear_34_18630" x1="519.963" y1="229" x2="533.918" y2="270.282" gradientUnits="userSpaceOnUse">
<stop stop-color="#416587"/>
<stop offset="1" stop-color="#1A3052"/>
</linearGradient>
<linearGradient id="paint28_linear_34_18630" x1="684.536" y1="247" x2="694.652" y2="290.656" gradientUnits="userSpaceOnUse">
<stop offset="0.0208333" stop-color="#EFF5F4"/>
<stop offset="1" stop-color="#F1F1F1"/>
</linearGradient>
<linearGradient id="paint29_linear_34_18630" x1="690" y1="247" x2="700.423" y2="290.503" gradientUnits="userSpaceOnUse">
<stop stop-color="#22685C"/>
<stop offset="1" stop-color="#083831"/>
</linearGradient>
<linearGradient id="paint30_linear_34_18630" x1="639.963" y1="229" x2="653.918" y2="270.282" gradientUnits="userSpaceOnUse">
<stop stop-color="#416587"/>
<stop offset="1" stop-color="#1A3052"/>
</linearGradient>
</defs>
</svg>
