<svg width="25" height="25" viewBox="0 0 25 25" fill="none" xmlns="http://www.w3.org/2000/svg">
<circle cx="12.5" cy="12.5" r="12" fill="url(#paint0_linear_28_2161)" stroke="#FAFAFA"/>
<path d="M15.6294 14.0737C15.6294 14.5308 15.5532 14.9476 15.4009 15.3242C15.2528 15.7008 15.0454 16.0267 14.7788 16.3018C14.5122 16.5726 14.1948 16.7842 13.8267 16.9365C13.4627 17.0846 13.0671 17.1587 12.6396 17.1587C12.1826 17.1587 11.7616 17.0698 11.3765 16.8921C10.9956 16.7144 10.6655 16.4499 10.3862 16.0986C10.1112 15.7474 9.89746 15.3115 9.74512 14.791C9.59277 14.2663 9.5166 13.659 9.5166 12.9692C9.5166 12.1271 9.61605 11.3802 9.81494 10.7285C10.0181 10.0768 10.2952 9.53092 10.6465 9.09082C10.9977 8.65072 11.4103 8.31641 11.8843 8.08789C12.3582 7.85938 12.8703 7.74512 13.4204 7.74512C13.7632 7.74512 14.0742 7.76839 14.3535 7.81494C14.637 7.86149 14.8634 7.92497 15.0327 8.00537V9.33203C14.8169 9.22201 14.5863 9.12891 14.3408 9.05273C14.0954 8.97656 13.814 8.93848 13.4966 8.93848C13.1411 8.93848 12.8132 9.01042 12.5127 9.1543C12.2122 9.29818 11.952 9.50977 11.7319 9.78906C11.5161 10.0641 11.3447 10.4069 11.2178 10.8174C11.0951 11.2236 11.0316 11.6934 11.0273 12.2266H11.0654C11.2601 11.9261 11.5225 11.6891 11.8525 11.5156C12.1868 11.3421 12.5783 11.2554 13.0269 11.2554C13.4246 11.2554 13.7822 11.321 14.0996 11.4521C14.4212 11.5791 14.6942 11.7653 14.9185 12.0107C15.147 12.252 15.3226 12.5482 15.4453 12.8994C15.568 13.2464 15.6294 13.6379 15.6294 14.0737ZM14.144 14.1943C14.144 13.932 14.1123 13.6929 14.0488 13.4771C13.9896 13.2612 13.8965 13.0771 13.7695 12.9248C13.6468 12.7682 13.4902 12.6476 13.2998 12.563C13.1136 12.4784 12.8936 12.436 12.6396 12.436C12.3857 12.436 12.1615 12.4826 11.9668 12.5757C11.7764 12.6646 11.6156 12.783 11.4844 12.9312C11.3532 13.0793 11.2537 13.2485 11.186 13.439C11.1226 13.6294 11.0908 13.8241 11.0908 14.0229C11.0908 14.2388 11.1204 14.4609 11.1797 14.6895C11.2432 14.9137 11.3384 15.119 11.4653 15.3052C11.5923 15.4914 11.7531 15.6458 11.9478 15.7686C12.1466 15.887 12.3815 15.9463 12.6523 15.9463C12.8936 15.9463 13.1073 15.9019 13.2935 15.813C13.4797 15.7241 13.6341 15.6014 13.7568 15.4448C13.8838 15.2882 13.979 15.1042 14.0425 14.8926C14.1102 14.6768 14.144 14.444 14.144 14.1943Z" fill="white"/>
<defs>
<linearGradient id="paint0_linear_28_2161" x1="0" y1="0" x2="25" y2="25" gradientUnits="userSpaceOnUse">
<stop stop-color="#209782"/>
<stop offset="1" stop-color="#0C695A"/>
</linearGradient>
</defs>
</svg>
