<svg width="25" height="25" viewBox="0 0 25 25" fill="none" xmlns="http://www.w3.org/2000/svg">
<circle cx="12.5" cy="12.5" r="12" fill="url(#paint0_linear_28_2413)" stroke="#FAFAFA"/>
<path d="M6.03809 16.6636V15.2798C6.63053 15.7495 7.29915 15.9844 8.04395 15.9844C8.64909 15.9844 9.13151 15.8468 9.49121 15.5718C9.85514 15.2967 10.0371 14.9243 10.0371 14.4546C10.0371 13.422 9.24788 12.9058 7.66943 12.9058H6.96484V11.7251H7.6377C9.03841 11.7251 9.73877 11.2384 9.73877 10.2651C9.73877 9.368 9.19287 8.91943 8.10107 8.91943C7.4917 8.91943 6.91829 9.13737 6.38086 9.57324V8.26562C6.9987 7.91862 7.72868 7.74512 8.5708 7.74512C9.37907 7.74512 10.0265 7.94824 10.5132 8.35449C10.9998 8.76074 11.2432 9.28125 11.2432 9.91602C11.2432 11.1136 10.6338 11.8838 9.41504 12.2266V12.252C10.071 12.3154 10.5894 12.5461 10.9702 12.9438C11.3511 13.3374 11.5415 13.8304 11.5415 14.4229C11.5415 15.2396 11.2347 15.8997 10.6211 16.4033C10.0075 16.9027 9.19922 17.1523 8.19629 17.1523C7.29492 17.1523 6.57552 16.9894 6.03809 16.6636ZM19.2412 14.0737C19.2412 14.5308 19.165 14.9476 19.0127 15.3242C18.8646 15.7008 18.6572 16.0267 18.3906 16.3018C18.124 16.5726 17.8066 16.7842 17.4385 16.9365C17.0745 17.0846 16.6789 17.1587 16.2515 17.1587C15.7944 17.1587 15.3734 17.0698 14.9883 16.8921C14.6074 16.7144 14.2773 16.4499 13.998 16.0986C13.723 15.7474 13.5093 15.3115 13.3569 14.791C13.2046 14.2663 13.1284 13.659 13.1284 12.9692C13.1284 12.1271 13.2279 11.3802 13.4268 10.7285C13.6299 10.0768 13.9071 9.53092 14.2583 9.09082C14.6095 8.65072 15.0221 8.31641 15.4961 8.08789C15.9701 7.85938 16.4821 7.74512 17.0322 7.74512C17.375 7.74512 17.686 7.76839 17.9653 7.81494C18.2489 7.86149 18.4753 7.92497 18.6445 8.00537V9.33203C18.4287 9.22201 18.1981 9.12891 17.9526 9.05273C17.7072 8.97656 17.4258 8.93848 17.1084 8.93848C16.7529 8.93848 16.425 9.01042 16.1245 9.1543C15.8241 9.29818 15.5638 9.50977 15.3438 9.78906C15.1279 10.0641 14.9565 10.4069 14.8296 10.8174C14.7069 11.2236 14.6434 11.6934 14.6392 12.2266H14.6772C14.8719 11.9261 15.1343 11.6891 15.4644 11.5156C15.7987 11.3421 16.1901 11.2554 16.6387 11.2554C17.0365 11.2554 17.394 11.321 17.7114 11.4521C18.033 11.5791 18.306 11.7653 18.5303 12.0107C18.7588 12.252 18.9344 12.5482 19.0571 12.8994C19.1799 13.2464 19.2412 13.6379 19.2412 14.0737ZM17.7559 14.1943C17.7559 13.932 17.7241 13.6929 17.6606 13.4771C17.6014 13.2612 17.5083 13.0771 17.3813 12.9248C17.2586 12.7682 17.1021 12.6476 16.9116 12.563C16.7254 12.4784 16.5054 12.436 16.2515 12.436C15.9976 12.436 15.7733 12.4826 15.5786 12.5757C15.3882 12.6646 15.2274 12.783 15.0962 12.9312C14.965 13.0793 14.8656 13.2485 14.7979 13.439C14.7344 13.6294 14.7026 13.8241 14.7026 14.0229C14.7026 14.2388 14.7323 14.4609 14.7915 14.6895C14.855 14.9137 14.9502 15.119 15.0771 15.3052C15.2041 15.4914 15.3649 15.6458 15.5596 15.7686C15.7585 15.887 15.9933 15.9463 16.2642 15.9463C16.5054 15.9463 16.7191 15.9019 16.9053 15.813C17.0915 15.7241 17.2459 15.6014 17.3687 15.4448C17.4956 15.2882 17.5908 15.1042 17.6543 14.8926C17.722 14.6768 17.7559 14.444 17.7559 14.1943Z" fill="white"/>
<defs>
<linearGradient id="paint0_linear_28_2413" x1="0" y1="0" x2="25" y2="25" gradientUnits="userSpaceOnUse">
<stop stop-color="#209782"/>
<stop offset="1" stop-color="#0C695A"/>
</linearGradient>
</defs>
</svg>
