<svg width="25" height="25" viewBox="0 0 25 25" fill="none" xmlns="http://www.w3.org/2000/svg">
<circle cx="12.5" cy="12.5" r="12" fill="url(#paint0_linear_28_2155)" stroke="#FAFAFA"/>
<path d="M9.66895 16.6636V15.2798C10.2614 15.7495 10.93 15.9844 11.6748 15.9844C12.2799 15.9844 12.7624 15.8468 13.1221 15.5718C13.486 15.2967 13.668 14.9243 13.668 14.4546C13.668 13.422 12.8787 12.9058 11.3003 12.9058H10.5957V11.7251H11.2686C12.6693 11.7251 13.3696 11.2384 13.3696 10.2651C13.3696 9.368 12.8237 8.91943 11.7319 8.91943C11.1226 8.91943 10.5492 9.13737 10.0117 9.57324V8.26562C10.6296 7.91862 11.3595 7.74512 12.2017 7.74512C13.0099 7.74512 13.6574 7.94824 14.144 8.35449C14.6307 8.76074 14.874 9.28125 14.874 9.91602C14.874 11.1136 14.2646 11.8838 13.0459 12.2266V12.252C13.7018 12.3154 14.2202 12.5461 14.6011 12.9438C14.9819 13.3374 15.1724 13.8304 15.1724 14.4229C15.1724 15.2396 14.8656 15.8997 14.252 16.4033C13.6383 16.9027 12.8301 17.1523 11.8271 17.1523C10.9258 17.1523 10.2064 16.9894 9.66895 16.6636Z" fill="white"/>
<defs>
<linearGradient id="paint0_linear_28_2155" x1="0" y1="0" x2="25" y2="25" gradientUnits="userSpaceOnUse">
<stop stop-color="#209782"/>
<stop offset="1" stop-color="#0C695A"/>
</linearGradient>
</defs>
</svg>
