<svg width="25" height="25" viewBox="0 0 25 25" fill="none" xmlns="http://www.w3.org/2000/svg">
<circle cx="12.5" cy="12.5" r="12" fill="url(#paint0_linear_28_2330)" stroke="#FAFAFA"/>
<path d="M10.1768 7.69434V17H8.7041V9.49707C8.4375 9.6875 8.14974 9.85042 7.84082 9.98584C7.53613 10.117 7.18701 10.2334 6.79346 10.335V9.07812C7.0389 8.99772 7.27588 8.91309 7.50439 8.82422C7.73291 8.73535 7.95719 8.6359 8.17725 8.52588C8.40153 8.41585 8.62581 8.29313 8.8501 8.15771C9.07861 8.0223 9.31348 7.86784 9.55469 7.69434H10.1768ZM17.8384 17H12.1255V16.2954C12.1255 16.0076 12.1657 15.7389 12.2461 15.4893C12.3265 15.2354 12.4344 14.9984 12.5698 14.7783C12.7052 14.554 12.8639 14.3446 13.0459 14.1499C13.2279 13.951 13.4225 13.7606 13.6299 13.5786C13.8372 13.3924 14.0488 13.2147 14.2646 13.0454C14.4805 12.8719 14.6921 12.6984 14.8994 12.5249C15.0941 12.3599 15.2718 12.1991 15.4326 12.0425C15.5934 11.8817 15.731 11.7166 15.8452 11.5474C15.9595 11.3781 16.0483 11.2004 16.1118 11.0142C16.1753 10.8237 16.207 10.6185 16.207 10.3984C16.207 10.1572 16.1689 9.94775 16.0928 9.77002C16.0208 9.58805 15.9172 9.43783 15.7817 9.31934C15.6506 9.19661 15.494 9.10563 15.312 9.04639C15.13 8.98291 14.9312 8.95117 14.7153 8.95117C14.3429 8.95117 13.9642 9.03792 13.5791 9.21143C13.194 9.38493 12.8237 9.64518 12.4683 9.99219V8.57666C12.6545 8.43701 12.8428 8.31641 13.0332 8.21484C13.2236 8.10905 13.4204 8.0223 13.6235 7.95459C13.8267 7.88265 14.0404 7.82975 14.2646 7.7959C14.4889 7.76204 14.728 7.74512 14.9819 7.74512C15.3924 7.74512 15.7648 7.80013 16.0991 7.91016C16.4334 8.01595 16.7191 8.17464 16.9561 8.38623C17.193 8.59359 17.375 8.85384 17.502 9.16699C17.6331 9.48014 17.6987 9.83984 17.6987 10.2461C17.6987 10.6143 17.6522 10.9465 17.5591 11.2427C17.4702 11.5347 17.3411 11.8076 17.1719 12.0615C17.0068 12.3154 16.8058 12.5566 16.5688 12.7852C16.3319 13.0137 16.0674 13.2485 15.7754 13.4897C15.5299 13.6886 15.2845 13.8833 15.0391 14.0737C14.7979 14.2599 14.5799 14.444 14.3853 14.626C14.1906 14.8037 14.0319 14.9836 13.9092 15.1655C13.7907 15.3433 13.7314 15.5231 13.7314 15.7051V15.7368H17.8384V17Z" fill="white"/>
<defs>
<linearGradient id="paint0_linear_28_2330" x1="0" y1="0" x2="25" y2="25" gradientUnits="userSpaceOnUse">
<stop stop-color="#209782"/>
<stop offset="1" stop-color="#0C695A"/>
</linearGradient>
</defs>
</svg>
