<svg width="25" height="25" viewBox="0 0 25 25" fill="none" xmlns="http://www.w3.org/2000/svg">
<circle cx="12.5" cy="12.5" r="12" fill="url(#paint0_linear_28_2409)" stroke="#FAFAFA"/>
<path d="M11.021 7.89746V13.7754H12.373V15.0005H11.021V17H9.59277V15.0005H5.47314V13.7627C5.84554 13.3438 6.2264 12.891 6.61572 12.4043C7.00928 11.9134 7.3859 11.4141 7.74561 10.9062C8.10954 10.3942 8.44596 9.88216 8.75488 9.37012C9.0638 8.85807 9.32406 8.36719 9.53564 7.89746H11.021ZM9.59277 13.7754V9.9541C9.13151 10.7835 8.67448 11.5072 8.22168 12.125C7.77311 12.7428 7.35205 13.293 6.9585 13.7754H9.59277ZM16.1436 17.1523C15.1956 17.1523 14.4551 16.7651 13.9219 15.9907C13.3929 15.2163 13.1284 14.097 13.1284 12.6328C13.1284 11.0247 13.4056 9.80811 13.96 8.98291C14.5143 8.15771 15.3141 7.74512 16.3594 7.74512C18.361 7.74512 19.3618 9.30029 19.3618 12.4106C19.3618 13.951 19.0783 15.1274 18.5112 15.9399C17.9484 16.7482 17.1592 17.1523 16.1436 17.1523ZM16.2896 8.91943C15.1851 8.91943 14.6328 10.1361 14.6328 12.5693C14.6328 14.846 15.1745 15.9844 16.2578 15.9844C17.3242 15.9844 17.8574 14.827 17.8574 12.5122C17.8574 10.117 17.3348 8.91943 16.2896 8.91943Z" fill="white"/>
<defs>
<linearGradient id="paint0_linear_28_2409" x1="0" y1="0" x2="25" y2="25" gradientUnits="userSpaceOnUse">
<stop stop-color="#209782"/>
<stop offset="1" stop-color="#0C695A"/>
</linearGradient>
</defs>
</svg>
