<svg width="25" height="25" viewBox="0 0 25 25" fill="none" xmlns="http://www.w3.org/2000/svg">
<circle cx="12.5" cy="12.5" r="12" fill="url(#paint0_linear_28_2345)" stroke="#FAFAFA"/>
<path d="M11.7383 17H6.02539V16.2954C6.02539 16.0076 6.06559 15.7389 6.146 15.4893C6.2264 15.2354 6.33431 14.9984 6.46973 14.7783C6.60514 14.554 6.76383 14.3446 6.9458 14.1499C7.12777 13.951 7.32243 13.7606 7.52979 13.5786C7.73714 13.3924 7.94873 13.2147 8.16455 13.0454C8.38037 12.8719 8.59196 12.6984 8.79932 12.5249C8.99398 12.3599 9.17171 12.1991 9.33252 12.0425C9.49333 11.8817 9.63086 11.7166 9.74512 11.5474C9.85938 11.3781 9.94824 11.2004 10.0117 11.0142C10.0752 10.8237 10.1069 10.6185 10.1069 10.3984C10.1069 10.1572 10.0688 9.94775 9.99268 9.77002C9.92074 9.58805 9.81706 9.43783 9.68164 9.31934C9.55046 9.19661 9.39388 9.10563 9.21191 9.04639C9.02995 8.98291 8.83105 8.95117 8.61523 8.95117C8.24284 8.95117 7.8641 9.03792 7.479 9.21143C7.09391 9.38493 6.72363 9.64518 6.36816 9.99219V8.57666C6.55436 8.43701 6.74268 8.31641 6.93311 8.21484C7.12354 8.10905 7.32031 8.0223 7.52344 7.95459C7.72656 7.88265 7.94027 7.82975 8.16455 7.7959C8.38883 7.76204 8.62793 7.74512 8.88184 7.74512C9.29232 7.74512 9.66471 7.80013 9.99902 7.91016C10.3333 8.01595 10.619 8.17464 10.856 8.38623C11.0929 8.59359 11.2749 8.85384 11.4019 9.16699C11.533 9.48014 11.5986 9.83984 11.5986 10.2461C11.5986 10.6143 11.5521 10.9465 11.459 11.2427C11.3701 11.5347 11.241 11.8076 11.0718 12.0615C10.9067 12.3154 10.7057 12.5566 10.4688 12.7852C10.2318 13.0137 9.96729 13.2485 9.67529 13.4897C9.42985 13.6886 9.18441 13.8833 8.93896 14.0737C8.69775 14.2599 8.47982 14.444 8.28516 14.626C8.09049 14.8037 7.9318 14.9836 7.80908 15.1655C7.69059 15.3433 7.63135 15.5231 7.63135 15.7051V15.7368H11.7383V17ZM19.1523 8.63379C18.7715 9.33203 18.4118 10.0239 18.0732 10.7095C17.7347 11.3908 17.4279 12.0763 17.1528 12.7661C16.8778 13.4559 16.6387 14.152 16.4355 14.8545C16.2324 15.5527 16.0758 16.2679 15.9658 17H14.4233C14.5249 16.3483 14.6688 15.6987 14.855 15.0513C15.0454 14.3996 15.2676 13.75 15.5215 13.1025C15.7754 12.4508 16.0589 11.797 16.3721 11.1411C16.6895 10.4852 17.0259 9.82292 17.3813 9.1543H13.0713V7.89746H19.1523V8.63379Z" fill="white"/>
<defs>
<linearGradient id="paint0_linear_28_2345" x1="0" y1="0" x2="25" y2="25" gradientUnits="userSpaceOnUse">
<stop stop-color="#209782"/>
<stop offset="1" stop-color="#0C695A"/>
</linearGradient>
</defs>
</svg>
