<svg width="25" height="25" viewBox="0 0 25 25" fill="none" xmlns="http://www.w3.org/2000/svg">
<circle cx="12.5" cy="12.5" r="12" fill="url(#paint0_linear_28_2404)" stroke="#FAFAFA"/>
<path d="M11.021 7.89746V13.7754H12.373V15.0005H11.021V17H9.59277V15.0005H5.47314V13.7627C5.84554 13.3438 6.2264 12.891 6.61572 12.4043C7.00928 11.9134 7.3859 11.4141 7.74561 10.9062C8.10954 10.3942 8.44596 9.88216 8.75488 9.37012C9.0638 8.85807 9.32406 8.36719 9.53564 7.89746H11.021ZM9.59277 13.7754V9.9541C9.13151 10.7835 8.67448 11.5072 8.22168 12.125C7.77311 12.7428 7.35205 13.293 6.9585 13.7754H9.59277ZM13.6172 16.7905V15.375C14.2139 15.777 14.819 15.978 15.4326 15.978C16.0505 15.978 16.5477 15.8215 16.9243 15.5083C17.3009 15.1909 17.4893 14.7699 17.4893 14.2451C17.4893 13.7288 17.2967 13.3268 16.9116 13.0391C16.5308 12.7513 15.9827 12.6074 15.2676 12.6074C15.0221 12.6074 14.5249 12.6328 13.7759 12.6836L14.0996 7.89746H18.5811V9.1543H15.3247L15.1724 11.4331C15.4644 11.4162 15.7288 11.4077 15.9658 11.4077C16.9307 11.4077 17.6755 11.6553 18.2002 12.1504C18.7292 12.6455 18.9937 13.3226 18.9937 14.1816C18.9937 15.083 18.6911 15.8066 18.0859 16.3525C17.485 16.8942 16.6577 17.165 15.604 17.165C14.7153 17.165 14.0531 17.0402 13.6172 16.7905Z" fill="white"/>
<defs>
<linearGradient id="paint0_linear_28_2404" x1="0" y1="0" x2="25" y2="25" gradientUnits="userSpaceOnUse">
<stop stop-color="#209782"/>
<stop offset="1" stop-color="#0C695A"/>
</linearGradient>
</defs>
</svg>
