<svg width="25" height="25" viewBox="0 0 25 25" fill="none" xmlns="http://www.w3.org/2000/svg">
<circle cx="12.5" cy="12.5" r="12" fill="url(#paint0_linear_28_2342)" stroke="#FAFAFA"/>
<path d="M11.478 17H5.76514V16.2954C5.76514 16.0076 5.80534 15.7389 5.88574 15.4893C5.96615 15.2354 6.07406 14.9984 6.20947 14.7783C6.34489 14.554 6.50358 14.3446 6.68555 14.1499C6.86751 13.951 7.06217 13.7606 7.26953 13.5786C7.47689 13.3924 7.68848 13.2147 7.9043 13.0454C8.12012 12.8719 8.33171 12.6984 8.53906 12.5249C8.73372 12.3599 8.91146 12.1991 9.07227 12.0425C9.23307 11.8817 9.37061 11.7166 9.48486 11.5474C9.59912 11.3781 9.68799 11.2004 9.75146 11.0142C9.81494 10.8237 9.84668 10.6185 9.84668 10.3984C9.84668 10.1572 9.80859 9.94775 9.73242 9.77002C9.66048 9.58805 9.5568 9.43783 9.42139 9.31934C9.2902 9.19661 9.13363 9.10563 8.95166 9.04639C8.76969 8.98291 8.5708 8.95117 8.35498 8.95117C7.98258 8.95117 7.60384 9.03792 7.21875 9.21143C6.83366 9.38493 6.46338 9.64518 6.10791 9.99219V8.57666C6.29411 8.43701 6.48242 8.31641 6.67285 8.21484C6.86328 8.10905 7.06006 8.0223 7.26318 7.95459C7.46631 7.88265 7.68001 7.82975 7.9043 7.7959C8.12858 7.76204 8.36768 7.74512 8.62158 7.74512C9.03206 7.74512 9.40446 7.80013 9.73877 7.91016C10.0731 8.01595 10.3587 8.17464 10.5957 8.38623C10.8327 8.59359 11.0146 8.85384 11.1416 9.16699C11.2728 9.48014 11.3384 9.83984 11.3384 10.2461C11.3384 10.6143 11.2918 10.9465 11.1987 11.2427C11.1099 11.5347 10.9808 11.8076 10.8115 12.0615C10.6465 12.3154 10.4455 12.5566 10.2085 12.7852C9.97152 13.0137 9.70703 13.2485 9.41504 13.4897C9.1696 13.6886 8.92415 13.8833 8.67871 14.0737C8.4375 14.2599 8.21956 14.444 8.0249 14.626C7.83024 14.8037 7.67155 14.9836 7.54883 15.1655C7.43034 15.3433 7.37109 15.5231 7.37109 15.7051V15.7368H11.478V17ZM18.2446 7.89746V13.7754H19.5967V15.0005H18.2446V17H16.8164V15.0005H12.6968V13.7627C13.0692 13.3438 13.45 12.891 13.8394 12.4043C14.2329 11.9134 14.6095 11.4141 14.9692 10.9062C15.3332 10.3942 15.6696 9.88216 15.9785 9.37012C16.2874 8.85807 16.5477 8.36719 16.7593 7.89746H18.2446ZM16.8164 13.7754V9.9541C16.3551 10.7835 15.8981 11.5072 15.4453 12.125C14.9967 12.7428 14.5757 13.293 14.1821 13.7754H16.8164Z" fill="white"/>
<defs>
<linearGradient id="paint0_linear_28_2342" x1="0" y1="0" x2="25" y2="25" gradientUnits="userSpaceOnUse">
<stop stop-color="#209782"/>
<stop offset="1" stop-color="#0C695A"/>
</linearGradient>
</defs>
</svg>
