<svg width="25" height="25" viewBox="0 0 25 25" fill="none" xmlns="http://www.w3.org/2000/svg">
<circle cx="12.5" cy="12.5" r="12" fill="url(#paint0_linear_28_2157)" stroke="#FAFAFA"/>
<path d="M15.2231 17H9.51025V16.2954C9.51025 16.0076 9.55046 15.7389 9.63086 15.4893C9.71126 15.2354 9.81917 14.9984 9.95459 14.7783C10.09 14.554 10.2487 14.3446 10.4307 14.1499C10.6126 13.951 10.8073 13.7606 11.0146 13.5786C11.222 13.3924 11.4336 13.2147 11.6494 13.0454C11.8652 12.8719 12.0768 12.6984 12.2842 12.5249C12.4788 12.3599 12.6566 12.1991 12.8174 12.0425C12.9782 11.8817 13.1157 11.7166 13.23 11.5474C13.3442 11.3781 13.4331 11.2004 13.4966 11.0142C13.5601 10.8237 13.5918 10.6185 13.5918 10.3984C13.5918 10.1572 13.5537 9.94775 13.4775 9.77002C13.4056 9.58805 13.3019 9.43783 13.1665 9.31934C13.0353 9.19661 12.8787 9.10563 12.6968 9.04639C12.5148 8.98291 12.3159 8.95117 12.1001 8.95117C11.7277 8.95117 11.349 9.03792 10.9639 9.21143C10.5788 9.38493 10.2085 9.64518 9.85303 9.99219V8.57666C10.0392 8.43701 10.2275 8.31641 10.418 8.21484C10.6084 8.10905 10.8052 8.0223 11.0083 7.95459C11.2114 7.88265 11.4251 7.82975 11.6494 7.7959C11.8737 7.76204 12.1128 7.74512 12.3667 7.74512C12.7772 7.74512 13.1496 7.80013 13.4839 7.91016C13.8182 8.01595 14.1038 8.17464 14.3408 8.38623C14.5778 8.59359 14.7598 8.85384 14.8867 9.16699C15.0179 9.48014 15.0835 9.83984 15.0835 10.2461C15.0835 10.6143 15.0369 10.9465 14.9438 11.2427C14.855 11.5347 14.7259 11.8076 14.5566 12.0615C14.3916 12.3154 14.1906 12.5566 13.9536 12.7852C13.7166 13.0137 13.4521 13.2485 13.1602 13.4897C12.9147 13.6886 12.6693 13.8833 12.4238 14.0737C12.1826 14.2599 11.9647 14.444 11.77 14.626C11.5754 14.8037 11.4167 14.9836 11.2939 15.1655C11.1755 15.3433 11.1162 15.5231 11.1162 15.7051V15.7368H15.2231V17Z" fill="white"/>
<defs>
<linearGradient id="paint0_linear_28_2157" x1="0" y1="0" x2="25" y2="25" gradientUnits="userSpaceOnUse">
<stop stop-color="#209782"/>
<stop offset="1" stop-color="#0C695A"/>
</linearGradient>
</defs>
</svg>
