<svg width="25" height="25" viewBox="0 0 25 25" fill="none" xmlns="http://www.w3.org/2000/svg">
<circle cx="12.5" cy="12.5" r="12" fill="url(#paint0_linear_28_2418)" stroke="#FAFAFA"/>
<path d="M7.05371 16.6636V15.2798C7.64616 15.7495 8.31478 15.9844 9.05957 15.9844C9.66471 15.9844 10.1471 15.8468 10.5068 15.5718C10.8708 15.2967 11.0527 14.9243 11.0527 14.4546C11.0527 13.422 10.2635 12.9058 8.68506 12.9058H7.98047V11.7251H8.65332C10.054 11.7251 10.7544 11.2384 10.7544 10.2651C10.7544 9.368 10.2085 8.91943 9.1167 8.91943C8.50732 8.91943 7.93392 9.13737 7.39648 9.57324V8.26562C8.01432 7.91862 8.7443 7.74512 9.58643 7.74512C10.3947 7.74512 11.0422 7.94824 11.5288 8.35449C12.0155 8.76074 12.2588 9.28125 12.2588 9.91602C12.2588 11.1136 11.6494 11.8838 10.4307 12.2266V12.252C11.0866 12.3154 11.605 12.5461 11.9858 12.9438C12.3667 13.3374 12.5571 13.8304 12.5571 14.4229C12.5571 15.2396 12.2503 15.8997 11.6367 16.4033C11.0231 16.9027 10.2148 17.1523 9.21191 17.1523C8.31055 17.1523 7.59115 16.9894 7.05371 16.6636ZM17.4004 7.69434V17H15.9277V9.49707C15.6611 9.6875 15.3734 9.85042 15.0645 9.98584C14.7598 10.117 14.4106 10.2334 14.0171 10.335V9.07812C14.2625 8.99772 14.4995 8.91309 14.728 8.82422C14.9565 8.73535 15.1808 8.6359 15.4009 8.52588C15.6252 8.41585 15.8494 8.29313 16.0737 8.15771C16.3022 8.0223 16.5371 7.86784 16.7783 7.69434H17.4004Z" fill="white"/>
<defs>
<linearGradient id="paint0_linear_28_2418" x1="0" y1="0" x2="25" y2="25" gradientUnits="userSpaceOnUse">
<stop stop-color="#209782"/>
<stop offset="1" stop-color="#0C695A"/>
</linearGradient>
</defs>
</svg>
