<svg width="25" height="25" viewBox="0 0 25 25" fill="none" xmlns="http://www.w3.org/2000/svg">
<circle cx="12.5" cy="12.5" r="12" fill="url(#paint0_linear_28_2332)" stroke="#FAFAFA"/>
<path d="M10.0435 7.69434V17H8.5708V9.49707C8.3042 9.6875 8.01644 9.85042 7.70752 9.98584C7.40283 10.117 7.05371 10.2334 6.66016 10.335V9.07812C6.9056 8.99772 7.14258 8.91309 7.37109 8.82422C7.59961 8.73535 7.82389 8.6359 8.04395 8.52588C8.26823 8.41585 8.49251 8.29313 8.7168 8.15771C8.94531 8.0223 9.18018 7.86784 9.42139 7.69434H10.0435ZM17.248 7.89746V13.7754H18.6001V15.0005H17.248V17H15.8198V15.0005H11.7002V13.7627C12.0726 13.3438 12.4535 12.891 12.8428 12.4043C13.2363 11.9134 13.613 11.4141 13.9727 10.9062C14.3366 10.3942 14.673 9.88216 14.9819 9.37012C15.2909 8.85807 15.5511 8.36719 15.7627 7.89746H17.248ZM15.8198 13.7754V9.9541C15.3586 10.7835 14.9015 11.5072 14.4487 12.125C14.0002 12.7428 13.5791 13.293 13.1855 13.7754H15.8198Z" fill="white"/>
<defs>
<linearGradient id="paint0_linear_28_2332" x1="0" y1="0" x2="25" y2="25" gradientUnits="userSpaceOnUse">
<stop stop-color="#209782"/>
<stop offset="1" stop-color="#0C695A"/>
</linearGradient>
</defs>
</svg>
