<svg width="25" height="25" viewBox="0 0 25 25" fill="none" xmlns="http://www.w3.org/2000/svg">
<circle cx="12.5" cy="12.5" r="12" fill="url(#paint0_linear_28_2340)" stroke="#FAFAFA"/>
<path d="M11.6113 17H5.89844V16.2954C5.89844 16.0076 5.93864 15.7389 6.01904 15.4893C6.09945 15.2354 6.20736 14.9984 6.34277 14.7783C6.47819 14.554 6.63688 14.3446 6.81885 14.1499C7.00081 13.951 7.19548 13.7606 7.40283 13.5786C7.61019 13.3924 7.82178 13.2147 8.0376 13.0454C8.25342 12.8719 8.46501 12.6984 8.67236 12.5249C8.86702 12.3599 9.04476 12.1991 9.20557 12.0425C9.36637 11.8817 9.50391 11.7166 9.61816 11.5474C9.73242 11.3781 9.82129 11.2004 9.88477 11.0142C9.94824 10.8237 9.97998 10.6185 9.97998 10.3984C9.97998 10.1572 9.94189 9.94775 9.86572 9.77002C9.79378 9.58805 9.6901 9.43783 9.55469 9.31934C9.4235 9.19661 9.26693 9.10563 9.08496 9.04639C8.90299 8.98291 8.7041 8.95117 8.48828 8.95117C8.11589 8.95117 7.73714 9.03792 7.35205 9.21143C6.96696 9.38493 6.59668 9.64518 6.24121 9.99219V8.57666C6.42741 8.43701 6.61572 8.31641 6.80615 8.21484C6.99658 8.10905 7.19336 8.0223 7.39648 7.95459C7.59961 7.88265 7.81331 7.82975 8.0376 7.7959C8.26188 7.76204 8.50098 7.74512 8.75488 7.74512C9.16536 7.74512 9.53776 7.80013 9.87207 7.91016C10.2064 8.01595 10.492 8.17464 10.729 8.38623C10.966 8.59359 11.1479 8.85384 11.2749 9.16699C11.4061 9.48014 11.4717 9.83984 11.4717 10.2461C11.4717 10.6143 11.4251 10.9465 11.332 11.2427C11.2432 11.5347 11.1141 11.8076 10.9448 12.0615C10.7798 12.3154 10.5788 12.5566 10.3418 12.7852C10.1048 13.0137 9.84033 13.2485 9.54834 13.4897C9.3029 13.6886 9.05745 13.8833 8.81201 14.0737C8.5708 14.2599 8.35286 14.444 8.1582 14.626C7.96354 14.8037 7.80485 14.9836 7.68213 15.1655C7.56364 15.3433 7.50439 15.5231 7.50439 15.7051V15.7368H11.6113V17ZM18.835 17H13.1221V16.2954C13.1221 16.0076 13.1623 15.7389 13.2427 15.4893C13.3231 15.2354 13.431 14.9984 13.5664 14.7783C13.7018 14.554 13.8605 14.3446 14.0425 14.1499C14.2244 13.951 14.4191 13.7606 14.6265 13.5786C14.8338 13.3924 15.0454 13.2147 15.2612 13.0454C15.4771 12.8719 15.6886 12.6984 15.896 12.5249C16.0907 12.3599 16.2684 12.1991 16.4292 12.0425C16.59 11.8817 16.7275 11.7166 16.8418 11.5474C16.9561 11.3781 17.0449 11.2004 17.1084 11.0142C17.1719 10.8237 17.2036 10.6185 17.2036 10.3984C17.2036 10.1572 17.1655 9.94775 17.0894 9.77002C17.0174 9.58805 16.9137 9.43783 16.7783 9.31934C16.6471 9.19661 16.4906 9.10563 16.3086 9.04639C16.1266 8.98291 15.9277 8.95117 15.7119 8.95117C15.3395 8.95117 14.9608 9.03792 14.5757 9.21143C14.1906 9.38493 13.8203 9.64518 13.4648 9.99219V8.57666C13.651 8.43701 13.8394 8.31641 14.0298 8.21484C14.2202 8.10905 14.417 8.0223 14.6201 7.95459C14.8232 7.88265 15.0369 7.82975 15.2612 7.7959C15.4855 7.76204 15.7246 7.74512 15.9785 7.74512C16.389 7.74512 16.7614 7.80013 17.0957 7.91016C17.43 8.01595 17.7157 8.17464 17.9526 8.38623C18.1896 8.59359 18.3716 8.85384 18.4985 9.16699C18.6297 9.48014 18.6953 9.83984 18.6953 10.2461C18.6953 10.6143 18.6488 10.9465 18.5557 11.2427C18.4668 11.5347 18.3377 11.8076 18.1685 12.0615C18.0034 12.3154 17.8024 12.5566 17.5654 12.7852C17.3285 13.0137 17.064 13.2485 16.772 13.4897C16.5265 13.6886 16.2811 13.8833 16.0356 14.0737C15.7944 14.2599 15.5765 14.444 15.3818 14.626C15.1872 14.8037 15.0285 14.9836 14.9058 15.1655C14.7873 15.3433 14.728 15.5231 14.728 15.7051V15.7368H18.835V17Z" fill="white"/>
<defs>
<linearGradient id="paint0_linear_28_2340" x1="0" y1="0" x2="25" y2="25" gradientUnits="userSpaceOnUse">
<stop stop-color="#209782"/>
<stop offset="1" stop-color="#0C695A"/>
</linearGradient>
</defs>
</svg>
