<svg width="25" height="25" viewBox="0 0 25 25" fill="none" xmlns="http://www.w3.org/2000/svg">
<circle cx="12.5" cy="12.5" r="12" fill="url(#paint0_linear_28_2160)" stroke="#FAFAFA"/>
<path d="M9.87207 16.7905V15.375C10.4688 15.777 11.0739 15.978 11.6875 15.978C12.3053 15.978 12.8026 15.8215 13.1792 15.5083C13.5558 15.1909 13.7441 14.7699 13.7441 14.2451C13.7441 13.7288 13.5516 13.3268 13.1665 13.0391C12.7856 12.7513 12.2376 12.6074 11.5225 12.6074C11.277 12.6074 10.7798 12.6328 10.0308 12.6836L10.3545 7.89746H14.8359V9.1543H11.5796L11.4272 11.4331C11.7192 11.4162 11.9837 11.4077 12.2207 11.4077C13.1855 11.4077 13.9303 11.6553 14.4551 12.1504C14.984 12.6455 15.2485 13.3226 15.2485 14.1816C15.2485 15.083 14.946 15.8066 14.3408 16.3525C13.7399 16.8942 12.9126 17.165 11.8589 17.165C10.9702 17.165 10.3079 17.0402 9.87207 16.7905Z" fill="white"/>
<defs>
<linearGradient id="paint0_linear_28_2160" x1="0" y1="0" x2="25" y2="25" gradientUnits="userSpaceOnUse">
<stop stop-color="#209782"/>
<stop offset="1" stop-color="#0C695A"/>
</linearGradient>
</defs>
</svg>
