<svg width="25" height="25" viewBox="0 0 25 25" fill="none" xmlns="http://www.w3.org/2000/svg">
<circle cx="12.5" cy="12.5" r="12" fill="url(#paint0_linear_28_2412)" stroke="#FAFAFA"/>
<path d="M6.18408 16.6636V15.2798C6.77653 15.7495 7.44515 15.9844 8.18994 15.9844C8.79508 15.9844 9.27751 15.8468 9.63721 15.5718C10.0011 15.2967 10.1831 14.9243 10.1831 14.4546C10.1831 13.422 9.39388 12.9058 7.81543 12.9058H7.11084V11.7251H7.78369C9.18441 11.7251 9.88477 11.2384 9.88477 10.2651C9.88477 9.368 9.33887 8.91943 8.24707 8.91943C7.6377 8.91943 7.06429 9.13737 6.52686 9.57324V8.26562C7.14469 7.91862 7.87467 7.74512 8.7168 7.74512C9.52507 7.74512 10.1725 7.94824 10.6592 8.35449C11.1458 8.76074 11.3892 9.28125 11.3892 9.91602C11.3892 11.1136 10.7798 11.8838 9.56104 12.2266V12.252C10.217 12.3154 10.7354 12.5461 11.1162 12.9438C11.4971 13.3374 11.6875 13.8304 11.6875 14.4229C11.6875 15.2396 11.3807 15.8997 10.7671 16.4033C10.1535 16.9027 9.34521 17.1523 8.34229 17.1523C7.44092 17.1523 6.72152 16.9894 6.18408 16.6636ZM19.1523 8.63379C18.7715 9.33203 18.4118 10.0239 18.0732 10.7095C17.7347 11.3908 17.4279 12.0763 17.1528 12.7661C16.8778 13.4559 16.6387 14.152 16.4355 14.8545C16.2324 15.5527 16.0758 16.2679 15.9658 17H14.4233C14.5249 16.3483 14.6688 15.6987 14.855 15.0513C15.0454 14.3996 15.2676 13.75 15.5215 13.1025C15.7754 12.4508 16.0589 11.797 16.3721 11.1411C16.6895 10.4852 17.0259 9.82292 17.3813 9.1543H13.0713V7.89746H19.1523V8.63379Z" fill="white"/>
<defs>
<linearGradient id="paint0_linear_28_2412" x1="0" y1="0" x2="25" y2="25" gradientUnits="userSpaceOnUse">
<stop stop-color="#209782"/>
<stop offset="1" stop-color="#0C695A"/>
</linearGradient>
</defs>
</svg>
