<svg width="25" height="25" viewBox="0 0 25 25" fill="none" xmlns="http://www.w3.org/2000/svg">
<circle cx="12.5" cy="12.5" r="12" fill="url(#paint0_linear_28_2414)" stroke="#FAFAFA"/>
<path d="M6.05713 16.6636V15.2798C6.64958 15.7495 7.3182 15.9844 8.06299 15.9844C8.66813 15.9844 9.15055 15.8468 9.51025 15.5718C9.87419 15.2967 10.0562 14.9243 10.0562 14.4546C10.0562 13.422 9.26693 12.9058 7.68848 12.9058H6.98389V11.7251H7.65674C9.05745 11.7251 9.75781 11.2384 9.75781 10.2651C9.75781 9.368 9.21191 8.91943 8.12012 8.91943C7.51074 8.91943 6.93734 9.13737 6.3999 9.57324V8.26562C7.01774 7.91862 7.74772 7.74512 8.58984 7.74512C9.39811 7.74512 10.0456 7.94824 10.5322 8.35449C11.0189 8.76074 11.2622 9.28125 11.2622 9.91602C11.2622 11.1136 10.6528 11.8838 9.43408 12.2266V12.252C10.09 12.3154 10.6084 12.5461 10.9893 12.9438C11.3701 13.3374 11.5605 13.8304 11.5605 14.4229C11.5605 15.2396 11.2537 15.8997 10.6401 16.4033C10.0265 16.9027 9.21826 17.1523 8.21533 17.1523C7.31396 17.1523 6.59456 16.9894 6.05713 16.6636ZM13.4839 16.7905V15.375C14.0806 15.777 14.6857 15.978 15.2993 15.978C15.9172 15.978 16.4144 15.8215 16.791 15.5083C17.1676 15.1909 17.356 14.7699 17.356 14.2451C17.356 13.7288 17.1634 13.3268 16.7783 13.0391C16.3975 12.7513 15.8494 12.6074 15.1343 12.6074C14.8888 12.6074 14.3916 12.6328 13.6426 12.6836L13.9663 7.89746H18.4478V9.1543H15.1914L15.0391 11.4331C15.3311 11.4162 15.5955 11.4077 15.8325 11.4077C16.7974 11.4077 17.5422 11.6553 18.0669 12.1504C18.5959 12.6455 18.8604 13.3226 18.8604 14.1816C18.8604 15.083 18.5578 15.8066 17.9526 16.3525C17.3517 16.8942 16.5244 17.165 15.4707 17.165C14.582 17.165 13.9198 17.0402 13.4839 16.7905Z" fill="white"/>
<defs>
<linearGradient id="paint0_linear_28_2414" x1="0" y1="0" x2="25" y2="25" gradientUnits="userSpaceOnUse">
<stop stop-color="#209782"/>
<stop offset="1" stop-color="#0C695A"/>
</linearGradient>
</defs>
</svg>
