<svg width="25" height="25" viewBox="0 0 25 25" fill="none" xmlns="http://www.w3.org/2000/svg">
<circle cx="12.5" cy="12.5" r="12" fill="url(#paint0_linear_28_2158)" stroke="#FAFAFA"/>
<path d="M15.5151 11.9536C15.5151 12.8634 15.4157 13.6463 15.2168 14.3022C15.0221 14.9582 14.7513 15.4977 14.4043 15.9209C14.0615 16.3441 13.6574 16.6572 13.1919 16.8604C12.7306 17.0592 12.2334 17.1587 11.7002 17.1587C11.5267 17.1587 11.3511 17.1481 11.1733 17.127C10.9998 17.1058 10.8327 17.0783 10.6719 17.0444C10.5153 17.0106 10.3714 16.9746 10.2402 16.9365C10.1133 16.8942 10.0075 16.854 9.92285 16.8159V15.4893C10.0117 15.5443 10.1217 15.6014 10.2529 15.6606C10.3841 15.7157 10.5259 15.7664 10.6782 15.813C10.8348 15.8553 10.9956 15.8913 11.1606 15.9209C11.3299 15.9463 11.4928 15.959 11.6494 15.959C12.0091 15.959 12.335 15.8892 12.627 15.7495C12.9232 15.6099 13.175 15.4025 13.3823 15.1274C13.5897 14.8524 13.7484 14.5117 13.8584 14.1055C13.9727 13.695 14.0298 13.221 14.0298 12.6836H14.0044C13.9282 12.819 13.8267 12.9481 13.6997 13.0708C13.577 13.1893 13.4352 13.2951 13.2744 13.3882C13.1136 13.4771 12.9338 13.549 12.7349 13.604C12.5402 13.659 12.3307 13.6865 12.1064 13.6865C11.7256 13.6865 11.3701 13.6209 11.04 13.4897C10.7142 13.3543 10.4307 13.1639 10.1895 12.9185C9.94824 12.673 9.75781 12.3747 9.61816 12.0234C9.48275 11.6722 9.41504 11.2808 9.41504 10.8491C9.41504 10.3752 9.49333 9.94775 9.6499 9.56689C9.80648 9.1818 10.0223 8.85596 10.2974 8.58936C10.5724 8.31852 10.8962 8.11117 11.2686 7.96729C11.641 7.81917 12.0451 7.74512 12.481 7.74512C12.8914 7.74512 13.2786 7.8234 13.6426 7.97998C14.0107 8.13232 14.3324 8.37777 14.6074 8.71631C14.8867 9.05062 15.1068 9.48438 15.2676 10.0176C15.4326 10.5508 15.5151 11.1961 15.5151 11.9536ZM13.979 10.9824C13.979 10.6777 13.9388 10.4006 13.8584 10.1509C13.7822 9.9012 13.6743 9.6875 13.5347 9.50977C13.395 9.33203 13.2279 9.1945 13.0332 9.09717C12.8428 8.99984 12.6333 8.95117 12.4048 8.95117C12.2017 8.95117 12.007 8.99349 11.8208 9.07812C11.6388 9.15853 11.478 9.2749 11.3384 9.42725C11.203 9.57959 11.0951 9.76367 11.0146 9.97949C10.9342 10.1953 10.894 10.4344 10.894 10.6968C10.894 10.9845 10.9321 11.2384 11.0083 11.4585C11.0887 11.6785 11.1987 11.8647 11.3384 12.0171C11.478 12.1652 11.6452 12.2795 11.8398 12.3599C12.0387 12.436 12.2567 12.4741 12.4937 12.4741C12.7052 12.4741 12.8999 12.436 13.0776 12.3599C13.2596 12.2795 13.4162 12.1737 13.5474 12.0425C13.6828 11.9071 13.7886 11.7484 13.8647 11.5664C13.9409 11.3844 13.979 11.1898 13.979 10.9824Z" fill="white"/>
<defs>
<linearGradient id="paint0_linear_28_2158" x1="0" y1="0" x2="25" y2="25" gradientUnits="userSpaceOnUse">
<stop stop-color="#209782"/>
<stop offset="1" stop-color="#0C695A"/>
</linearGradient>
</defs>
</svg>
