<svg width="25" height="25" viewBox="0 0 25 25" fill="none" xmlns="http://www.w3.org/2000/svg">
<circle cx="12.5" cy="12.5" r="12" fill="url(#paint0_linear_28_2339)" stroke="#FAFAFA"/>
<path d="M12.6079 17H6.89502V16.2954C6.89502 16.0076 6.93522 15.7389 7.01562 15.4893C7.09603 15.2354 7.20394 14.9984 7.33936 14.7783C7.47477 14.554 7.63346 14.3446 7.81543 14.1499C7.9974 13.951 8.19206 13.7606 8.39941 13.5786C8.60677 13.3924 8.81836 13.2147 9.03418 13.0454C9.25 12.8719 9.46159 12.6984 9.66895 12.5249C9.86361 12.3599 10.0413 12.1991 10.2021 12.0425C10.363 11.8817 10.5005 11.7166 10.6147 11.5474C10.729 11.3781 10.8179 11.2004 10.8813 11.0142C10.9448 10.8237 10.9766 10.6185 10.9766 10.3984C10.9766 10.1572 10.9385 9.94775 10.8623 9.77002C10.7904 9.58805 10.6867 9.43783 10.5513 9.31934C10.4201 9.19661 10.2635 9.10563 10.0815 9.04639C9.89958 8.98291 9.70068 8.95117 9.48486 8.95117C9.11247 8.95117 8.73372 9.03792 8.34863 9.21143C7.96354 9.38493 7.59326 9.64518 7.23779 9.99219V8.57666C7.42399 8.43701 7.6123 8.31641 7.80273 8.21484C7.99316 8.10905 8.18994 8.0223 8.39307 7.95459C8.59619 7.88265 8.8099 7.82975 9.03418 7.7959C9.25846 7.76204 9.49756 7.74512 9.75146 7.74512C10.1619 7.74512 10.5343 7.80013 10.8687 7.91016C11.203 8.01595 11.4886 8.17464 11.7256 8.38623C11.9626 8.59359 12.1445 8.85384 12.2715 9.16699C12.4027 9.48014 12.4683 9.83984 12.4683 10.2461C12.4683 10.6143 12.4217 10.9465 12.3286 11.2427C12.2397 11.5347 12.1107 11.8076 11.9414 12.0615C11.7764 12.3154 11.5754 12.5566 11.3384 12.7852C11.1014 13.0137 10.8369 13.2485 10.5449 13.4897C10.2995 13.6886 10.054 13.8833 9.80859 14.0737C9.56738 14.2599 9.34945 14.444 9.15479 14.626C8.96012 14.8037 8.80143 14.9836 8.67871 15.1655C8.56022 15.3433 8.50098 15.5231 8.50098 15.7051V15.7368H12.6079V17ZM17.4004 7.69434V17H15.9277V9.49707C15.6611 9.6875 15.3734 9.85042 15.0645 9.98584C14.7598 10.117 14.4106 10.2334 14.0171 10.335V9.07812C14.2625 8.99772 14.4995 8.91309 14.728 8.82422C14.9565 8.73535 15.1808 8.6359 15.4009 8.52588C15.6252 8.41585 15.8494 8.29313 16.0737 8.15771C16.3022 8.0223 16.5371 7.86784 16.7783 7.69434H17.4004Z" fill="white"/>
<defs>
<linearGradient id="paint0_linear_28_2339" x1="0" y1="0" x2="25" y2="25" gradientUnits="userSpaceOnUse">
<stop stop-color="#209782"/>
<stop offset="1" stop-color="#0C695A"/>
</linearGradient>
</defs>
</svg>
