<svg width="25" height="25" viewBox="0 0 25 25" fill="none" xmlns="http://www.w3.org/2000/svg">
<circle cx="12.5" cy="12.5" r="12" fill="url(#paint0_linear_28_2346)" stroke="#FAFAFA"/>
<path d="M11.6113 17H5.89844V16.2954C5.89844 16.0076 5.93864 15.7389 6.01904 15.4893C6.09945 15.2354 6.20736 14.9984 6.34277 14.7783C6.47819 14.554 6.63688 14.3446 6.81885 14.1499C7.00081 13.951 7.19548 13.7606 7.40283 13.5786C7.61019 13.3924 7.82178 13.2147 8.0376 13.0454C8.25342 12.8719 8.46501 12.6984 8.67236 12.5249C8.86702 12.3599 9.04476 12.1991 9.20557 12.0425C9.36637 11.8817 9.50391 11.7166 9.61816 11.5474C9.73242 11.3781 9.82129 11.2004 9.88477 11.0142C9.94824 10.8237 9.97998 10.6185 9.97998 10.3984C9.97998 10.1572 9.94189 9.94775 9.86572 9.77002C9.79378 9.58805 9.6901 9.43783 9.55469 9.31934C9.4235 9.19661 9.26693 9.10563 9.08496 9.04639C8.90299 8.98291 8.7041 8.95117 8.48828 8.95117C8.11589 8.95117 7.73714 9.03792 7.35205 9.21143C6.96696 9.38493 6.59668 9.64518 6.24121 9.99219V8.57666C6.42741 8.43701 6.61572 8.31641 6.80615 8.21484C6.99658 8.10905 7.19336 8.0223 7.39648 7.95459C7.59961 7.88265 7.81331 7.82975 8.0376 7.7959C8.26188 7.76204 8.50098 7.74512 8.75488 7.74512C9.16536 7.74512 9.53776 7.80013 9.87207 7.91016C10.2064 8.01595 10.492 8.17464 10.729 8.38623C10.966 8.59359 11.1479 8.85384 11.2749 9.16699C11.4061 9.48014 11.4717 9.83984 11.4717 10.2461C11.4717 10.6143 11.4251 10.9465 11.332 11.2427C11.2432 11.5347 11.1141 11.8076 10.9448 12.0615C10.7798 12.3154 10.5788 12.5566 10.3418 12.7852C10.1048 13.0137 9.84033 13.2485 9.54834 13.4897C9.3029 13.6886 9.05745 13.8833 8.81201 14.0737C8.5708 14.2599 8.35286 14.444 8.1582 14.626C7.96354 14.8037 7.80485 14.9836 7.68213 15.1655C7.56364 15.3433 7.50439 15.5231 7.50439 15.7051V15.7368H11.6113V17ZM13.0776 14.4609C13.0776 14.1986 13.1094 13.9447 13.1729 13.6992C13.2406 13.4538 13.34 13.2274 13.4712 13.02C13.6024 12.8127 13.7674 12.6265 13.9663 12.4614C14.1652 12.2964 14.3979 12.1631 14.6646 12.0615C14.271 11.8415 13.9578 11.5601 13.7251 11.2173C13.4924 10.8703 13.376 10.4873 13.376 10.0684C13.376 9.73405 13.4437 9.42513 13.5791 9.1416C13.7188 8.85807 13.9092 8.61263 14.1504 8.40527C14.3958 8.19792 14.6836 8.03711 15.0137 7.92285C15.3438 7.80436 15.7035 7.74512 16.0928 7.74512C16.4863 7.74512 16.8481 7.80436 17.1782 7.92285C17.5125 8.04134 17.8003 8.20426 18.0415 8.41162C18.2869 8.61898 18.4774 8.86442 18.6128 9.14795C18.7482 9.43148 18.8159 9.73828 18.8159 10.0684C18.8159 10.4873 18.6995 10.8703 18.4668 11.2173C18.234 11.5601 17.9251 11.8415 17.54 12.0615C17.8024 12.1631 18.033 12.2964 18.2319 12.4614C18.4351 12.6222 18.6043 12.8063 18.7397 13.0137C18.8752 13.221 18.9767 13.4474 19.0444 13.6929C19.1121 13.9383 19.146 14.1943 19.146 14.4609C19.146 14.8587 19.0719 15.2227 18.9238 15.5527C18.7757 15.8828 18.5684 16.1663 18.3018 16.4033C18.0352 16.6361 17.7157 16.818 17.3433 16.9492C16.9709 17.0804 16.5604 17.146 16.1118 17.146C15.6675 17.146 15.2591 17.0804 14.8867 16.9492C14.5186 16.818 14.1991 16.6361 13.9282 16.4033C13.6616 16.1663 13.4521 15.8828 13.2998 15.5527C13.1517 15.2227 13.0776 14.8587 13.0776 14.4609ZM14.5122 14.334C14.5122 14.5921 14.5503 14.8249 14.6265 15.0322C14.7026 15.2396 14.8105 15.4152 14.9502 15.5591C15.0898 15.703 15.257 15.813 15.4517 15.8892C15.6506 15.9653 15.8706 16.0034 16.1118 16.0034C16.3446 16.0034 16.5583 15.9653 16.7529 15.8892C16.9476 15.8088 17.1147 15.6966 17.2544 15.5527C17.3983 15.4046 17.5104 15.229 17.5908 15.0259C17.6712 14.8185 17.7114 14.5879 17.7114 14.334C17.7114 14.1012 17.6733 13.8833 17.5972 13.6802C17.521 13.4728 17.4131 13.293 17.2734 13.1406C17.1338 12.9883 16.9645 12.8677 16.7656 12.7788C16.571 12.6899 16.353 12.6455 16.1118 12.6455C15.8833 12.6455 15.6696 12.6878 15.4707 12.7725C15.276 12.8529 15.1068 12.9692 14.9629 13.1216C14.8232 13.2697 14.7132 13.4474 14.6328 13.6548C14.5524 13.8621 14.5122 14.0885 14.5122 14.334ZM14.8232 10.2207C14.8232 10.4111 14.8571 10.5889 14.9248 10.7539C14.9925 10.9147 15.0835 11.0565 15.1978 11.1792C15.312 11.2977 15.4453 11.3908 15.5977 11.4585C15.7542 11.5262 15.9214 11.5601 16.0991 11.5601C16.2769 11.5601 16.4419 11.5262 16.5942 11.4585C16.7508 11.3866 16.8862 11.2913 17.0005 11.1729C17.119 11.0501 17.2121 10.9084 17.2798 10.7476C17.3475 10.5825 17.3813 10.4069 17.3813 10.2207C17.3813 10.0303 17.3475 9.85254 17.2798 9.6875C17.2163 9.52246 17.1274 9.3807 17.0132 9.26221C16.8989 9.14372 16.7635 9.05062 16.6069 8.98291C16.4504 8.9152 16.2811 8.88135 16.0991 8.88135C15.9087 8.88135 15.7352 8.91732 15.5786 8.98926C15.422 9.05697 15.2866 9.15218 15.1724 9.2749C15.0623 9.39762 14.9756 9.5415 14.9121 9.70654C14.8529 9.86735 14.8232 10.0387 14.8232 10.2207Z" fill="white"/>
<defs>
<linearGradient id="paint0_linear_28_2346" x1="0" y1="0" x2="25" y2="25" gradientUnits="userSpaceOnUse">
<stop stop-color="#209782"/>
<stop offset="1" stop-color="#0C695A"/>
</linearGradient>
</defs>
</svg>
