<svg width="25" height="25" viewBox="0 0 25 25" fill="none" xmlns="http://www.w3.org/2000/svg">
<circle cx="12.5" cy="12.5" r="12" fill="url(#paint0_linear_28_2329)" stroke="#FAFAFA"/>
<path d="M11.1733 7.69434V17H9.70068V9.49707C9.43408 9.6875 9.14632 9.85042 8.8374 9.98584C8.53271 10.117 8.18359 10.2334 7.79004 10.335V9.07812C8.03548 8.99772 8.27246 8.91309 8.50098 8.82422C8.72949 8.73535 8.95378 8.6359 9.17383 8.52588C9.39811 8.41585 9.6224 8.29313 9.84668 8.15771C10.0752 8.0223 10.3101 7.86784 10.5513 7.69434H11.1733ZM16.4038 7.69434V17H14.9312V9.49707C14.6646 9.6875 14.3768 9.85042 14.0679 9.98584C13.7632 10.117 13.4141 10.2334 13.0205 10.335V9.07812C13.266 8.99772 13.5029 8.91309 13.7314 8.82422C13.96 8.73535 14.1842 8.6359 14.4043 8.52588C14.6286 8.41585 14.8529 8.29313 15.0771 8.15771C15.3057 8.0223 15.5405 7.86784 15.7817 7.69434H16.4038Z" fill="white"/>
<defs>
<linearGradient id="paint0_linear_28_2329" x1="0" y1="0" x2="25" y2="25" gradientUnits="userSpaceOnUse">
<stop stop-color="#209782"/>
<stop offset="1" stop-color="#0C695A"/>
</linearGradient>
</defs>
</svg>
