<svg width="25" height="25" viewBox="0 0 25 25" fill="none" xmlns="http://www.w3.org/2000/svg">
<circle cx="12.5" cy="12.5" r="12" fill="url(#paint0_linear_28_2402)" stroke="#FAFAFA"/>
<path d="M11.1479 7.89746V13.7754H12.5V15.0005H11.1479V17H9.71973V15.0005H5.6001V13.7627C5.97249 13.3438 6.35335 12.891 6.74268 12.4043C7.13623 11.9134 7.51286 11.4141 7.87256 10.9062C8.23649 10.3942 8.57292 9.88216 8.88184 9.37012C9.19076 8.85807 9.45101 8.36719 9.6626 7.89746H11.1479ZM9.71973 13.7754V9.9541C9.25846 10.7835 8.80143 11.5072 8.34863 12.125C7.90007 12.7428 7.479 13.293 7.08545 13.7754H9.71973ZM19.2856 8.63379C18.9048 9.33203 18.5451 10.0239 18.2065 10.7095C17.868 11.3908 17.5612 12.0763 17.2861 12.7661C17.0111 13.4559 16.772 14.152 16.5688 14.8545C16.3657 15.5527 16.2091 16.2679 16.0991 17H14.5566C14.6582 16.3483 14.8021 15.6987 14.9883 15.0513C15.1787 14.3996 15.4009 13.75 15.6548 13.1025C15.9087 12.4508 16.1922 11.797 16.5054 11.1411C16.8228 10.4852 17.1592 9.82292 17.5146 9.1543H13.2046V7.89746H19.2856V8.63379Z" fill="white"/>
<defs>
<linearGradient id="paint0_linear_28_2402" x1="0" y1="0" x2="25" y2="25" gradientUnits="userSpaceOnUse">
<stop stop-color="#209782"/>
<stop offset="1" stop-color="#0C695A"/>
</linearGradient>
</defs>
</svg>
