<svg width="25" height="25" viewBox="0 0 25 25" fill="none" xmlns="http://www.w3.org/2000/svg">
<circle cx="12.5" cy="12.5" r="12" fill="url(#paint0_linear_28_2401)" stroke="#FAFAFA"/>
<path d="M11.021 7.89746V13.7754H12.373V15.0005H11.021V17H9.59277V15.0005H5.47314V13.7627C5.84554 13.3438 6.2264 12.891 6.61572 12.4043C7.00928 11.9134 7.3859 11.4141 7.74561 10.9062C8.10954 10.3942 8.44596 9.88216 8.75488 9.37012C9.0638 8.85807 9.32406 8.36719 9.53564 7.89746H11.021ZM9.59277 13.7754V9.9541C9.13151 10.7835 8.67448 11.5072 8.22168 12.125C7.77311 12.7428 7.35205 13.293 6.9585 13.7754H9.59277ZM13.2109 14.4609C13.2109 14.1986 13.2427 13.9447 13.3062 13.6992C13.3739 13.4538 13.4733 13.2274 13.6045 13.02C13.7357 12.8127 13.9007 12.6265 14.0996 12.4614C14.2985 12.2964 14.5312 12.1631 14.7979 12.0615C14.4043 11.8415 14.0911 11.5601 13.8584 11.2173C13.6257 10.8703 13.5093 10.4873 13.5093 10.0684C13.5093 9.73405 13.577 9.42513 13.7124 9.1416C13.8521 8.85807 14.0425 8.61263 14.2837 8.40527C14.5291 8.19792 14.8169 8.03711 15.147 7.92285C15.4771 7.80436 15.8368 7.74512 16.2261 7.74512C16.6196 7.74512 16.9814 7.80436 17.3115 7.92285C17.6458 8.04134 17.9336 8.20426 18.1748 8.41162C18.4202 8.61898 18.6107 8.86442 18.7461 9.14795C18.8815 9.43148 18.9492 9.73828 18.9492 10.0684C18.9492 10.4873 18.8328 10.8703 18.6001 11.2173C18.3674 11.5601 18.0584 11.8415 17.6733 12.0615C17.9357 12.1631 18.1663 12.2964 18.3652 12.4614C18.5684 12.6222 18.7376 12.8063 18.873 13.0137C19.0085 13.221 19.11 13.4474 19.1777 13.6929C19.2454 13.9383 19.2793 14.1943 19.2793 14.4609C19.2793 14.8587 19.2052 15.2227 19.0571 15.5527C18.909 15.8828 18.7017 16.1663 18.4351 16.4033C18.1685 16.6361 17.849 16.818 17.4766 16.9492C17.1042 17.0804 16.6937 17.146 16.2451 17.146C15.8008 17.146 15.3924 17.0804 15.02 16.9492C14.6519 16.818 14.3324 16.6361 14.0615 16.4033C13.7949 16.1663 13.5854 15.8828 13.4331 15.5527C13.285 15.2227 13.2109 14.8587 13.2109 14.4609ZM14.6455 14.334C14.6455 14.5921 14.6836 14.8249 14.7598 15.0322C14.8359 15.2396 14.9438 15.4152 15.0835 15.5591C15.2231 15.703 15.3903 15.813 15.585 15.8892C15.7839 15.9653 16.0039 16.0034 16.2451 16.0034C16.4779 16.0034 16.6916 15.9653 16.8862 15.8892C17.0809 15.8088 17.248 15.6966 17.3877 15.5527C17.5316 15.4046 17.6437 15.229 17.7241 15.0259C17.8045 14.8185 17.8447 14.5879 17.8447 14.334C17.8447 14.1012 17.8066 13.8833 17.7305 13.6802C17.6543 13.4728 17.5464 13.293 17.4067 13.1406C17.2671 12.9883 17.0978 12.8677 16.8989 12.7788C16.7043 12.6899 16.4863 12.6455 16.2451 12.6455C16.0166 12.6455 15.8029 12.6878 15.604 12.7725C15.4093 12.8529 15.2401 12.9692 15.0962 13.1216C14.9565 13.2697 14.8465 13.4474 14.7661 13.6548C14.6857 13.8621 14.6455 14.0885 14.6455 14.334ZM14.9565 10.2207C14.9565 10.4111 14.9904 10.5889 15.0581 10.7539C15.1258 10.9147 15.2168 11.0565 15.3311 11.1792C15.4453 11.2977 15.5786 11.3908 15.731 11.4585C15.8875 11.5262 16.0547 11.5601 16.2324 11.5601C16.4102 11.5601 16.5752 11.5262 16.7275 11.4585C16.8841 11.3866 17.0195 11.2913 17.1338 11.1729C17.2523 11.0501 17.3454 10.9084 17.4131 10.7476C17.4808 10.5825 17.5146 10.4069 17.5146 10.2207C17.5146 10.0303 17.4808 9.85254 17.4131 9.6875C17.3496 9.52246 17.2607 9.3807 17.1465 9.26221C17.0322 9.14372 16.8968 9.05062 16.7402 8.98291C16.5837 8.9152 16.4144 8.88135 16.2324 8.88135C16.042 8.88135 15.8685 8.91732 15.7119 8.98926C15.5553 9.05697 15.4199 9.15218 15.3057 9.2749C15.1956 9.39762 15.1089 9.5415 15.0454 9.70654C14.9862 9.86735 14.9565 10.0387 14.9565 10.2207Z" fill="white"/>
<defs>
<linearGradient id="paint0_linear_28_2401" x1="0" y1="0" x2="25" y2="25" gradientUnits="userSpaceOnUse">
<stop stop-color="#209782"/>
<stop offset="1" stop-color="#0C695A"/>
</linearGradient>
</defs>
</svg>
