<svg width="25" height="25" viewBox="0 0 25 25" fill="none" xmlns="http://www.w3.org/2000/svg">
<circle cx="12.5" cy="12.5" r="12" fill="url(#paint0_linear_28_2159)" stroke="#FAFAFA"/>
<path d="M9.46582 14.4609C9.46582 14.1986 9.49756 13.9447 9.56104 13.6992C9.62874 13.4538 9.72819 13.2274 9.85938 13.02C9.99056 12.8127 10.1556 12.6265 10.3545 12.4614C10.5534 12.2964 10.7861 12.1631 11.0527 12.0615C10.6592 11.8415 10.346 11.5601 10.1133 11.2173C9.88053 10.8703 9.76416 10.4873 9.76416 10.0684C9.76416 9.73405 9.83187 9.42513 9.96729 9.1416C10.1069 8.85807 10.2974 8.61263 10.5386 8.40527C10.784 8.19792 11.0718 8.03711 11.4019 7.92285C11.7319 7.80436 12.0916 7.74512 12.481 7.74512C12.8745 7.74512 13.2363 7.80436 13.5664 7.92285C13.9007 8.04134 14.1885 8.20426 14.4297 8.41162C14.6751 8.61898 14.8656 8.86442 15.001 9.14795C15.1364 9.43148 15.2041 9.73828 15.2041 10.0684C15.2041 10.4873 15.0877 10.8703 14.855 11.2173C14.6222 11.5601 14.3133 11.8415 13.9282 12.0615C14.1906 12.1631 14.4212 12.2964 14.6201 12.4614C14.8232 12.6222 14.9925 12.8063 15.1279 13.0137C15.2633 13.221 15.3649 13.4474 15.4326 13.6929C15.5003 13.9383 15.5342 14.1943 15.5342 14.4609C15.5342 14.8587 15.4601 15.2227 15.312 15.5527C15.1639 15.8828 14.9565 16.1663 14.6899 16.4033C14.4233 16.6361 14.1038 16.818 13.7314 16.9492C13.359 17.0804 12.9486 17.146 12.5 17.146C12.0557 17.146 11.6473 17.0804 11.2749 16.9492C10.9067 16.818 10.5872 16.6361 10.3164 16.4033C10.0498 16.1663 9.84033 15.8828 9.68799 15.5527C9.53988 15.2227 9.46582 14.8587 9.46582 14.4609ZM10.9004 14.334C10.9004 14.5921 10.9385 14.8249 11.0146 15.0322C11.0908 15.2396 11.1987 15.4152 11.3384 15.5591C11.478 15.703 11.6452 15.813 11.8398 15.8892C12.0387 15.9653 12.2588 16.0034 12.5 16.0034C12.7327 16.0034 12.9465 15.9653 13.1411 15.8892C13.3358 15.8088 13.5029 15.6966 13.6426 15.5527C13.7865 15.4046 13.8986 15.229 13.979 15.0259C14.0594 14.8185 14.0996 14.5879 14.0996 14.334C14.0996 14.1012 14.0615 13.8833 13.9854 13.6802C13.9092 13.4728 13.8013 13.293 13.6616 13.1406C13.522 12.9883 13.3527 12.8677 13.1538 12.7788C12.9591 12.6899 12.7412 12.6455 12.5 12.6455C12.2715 12.6455 12.0578 12.6878 11.8589 12.7725C11.6642 12.8529 11.495 12.9692 11.3511 13.1216C11.2114 13.2697 11.1014 13.4474 11.021 13.6548C10.9406 13.8621 10.9004 14.0885 10.9004 14.334ZM11.2114 10.2207C11.2114 10.4111 11.2453 10.5889 11.313 10.7539C11.3807 10.9147 11.4717 11.0565 11.5859 11.1792C11.7002 11.2977 11.8335 11.3908 11.9858 11.4585C12.1424 11.5262 12.3096 11.5601 12.4873 11.5601C12.665 11.5601 12.8301 11.5262 12.9824 11.4585C13.139 11.3866 13.2744 11.2913 13.3887 11.1729C13.5072 11.0501 13.6003 10.9084 13.668 10.7476C13.7357 10.5825 13.7695 10.4069 13.7695 10.2207C13.7695 10.0303 13.7357 9.85254 13.668 9.6875C13.6045 9.52246 13.5156 9.3807 13.4014 9.26221C13.2871 9.14372 13.1517 9.05062 12.9951 8.98291C12.8385 8.9152 12.6693 8.88135 12.4873 8.88135C12.2969 8.88135 12.1234 8.91732 11.9668 8.98926C11.8102 9.05697 11.6748 9.15218 11.5605 9.2749C11.4505 9.39762 11.3638 9.5415 11.3003 9.70654C11.241 9.86735 11.2114 10.0387 11.2114 10.2207Z" fill="white"/>
<defs>
<linearGradient id="paint0_linear_28_2159" x1="0" y1="0" x2="25" y2="25" gradientUnits="userSpaceOnUse">
<stop stop-color="#209782"/>
<stop offset="1" stop-color="#0C695A"/>
</linearGradient>
</defs>
</svg>
