<svg width="25" height="25" viewBox="0 0 25 25" fill="none" xmlns="http://www.w3.org/2000/svg">
<circle cx="12.5" cy="12.5" r="12" fill="url(#paint0_linear_28_2338)" stroke="#FAFAFA"/>
<path d="M11.6113 17H5.89844V16.2954C5.89844 16.0076 5.93864 15.7389 6.01904 15.4893C6.09945 15.2354 6.20736 14.9984 6.34277 14.7783C6.47819 14.554 6.63688 14.3446 6.81885 14.1499C7.00081 13.951 7.19548 13.7606 7.40283 13.5786C7.61019 13.3924 7.82178 13.2147 8.0376 13.0454C8.25342 12.8719 8.46501 12.6984 8.67236 12.5249C8.86702 12.3599 9.04476 12.1991 9.20557 12.0425C9.36637 11.8817 9.50391 11.7166 9.61816 11.5474C9.73242 11.3781 9.82129 11.2004 9.88477 11.0142C9.94824 10.8237 9.97998 10.6185 9.97998 10.3984C9.97998 10.1572 9.94189 9.94775 9.86572 9.77002C9.79378 9.58805 9.6901 9.43783 9.55469 9.31934C9.4235 9.19661 9.26693 9.10563 9.08496 9.04639C8.90299 8.98291 8.7041 8.95117 8.48828 8.95117C8.11589 8.95117 7.73714 9.03792 7.35205 9.21143C6.96696 9.38493 6.59668 9.64518 6.24121 9.99219V8.57666C6.42741 8.43701 6.61572 8.31641 6.80615 8.21484C6.99658 8.10905 7.19336 8.0223 7.39648 7.95459C7.59961 7.88265 7.81331 7.82975 8.0376 7.7959C8.26188 7.76204 8.50098 7.74512 8.75488 7.74512C9.16536 7.74512 9.53776 7.80013 9.87207 7.91016C10.2064 8.01595 10.492 8.17464 10.729 8.38623C10.966 8.59359 11.1479 8.85384 11.2749 9.16699C11.4061 9.48014 11.4717 9.83984 11.4717 10.2461C11.4717 10.6143 11.4251 10.9465 11.332 11.2427C11.2432 11.5347 11.1141 11.8076 10.9448 12.0615C10.7798 12.3154 10.5788 12.5566 10.3418 12.7852C10.1048 13.0137 9.84033 13.2485 9.54834 13.4897C9.3029 13.6886 9.05745 13.8833 8.81201 14.0737C8.5708 14.2599 8.35286 14.444 8.1582 14.626C7.96354 14.8037 7.80485 14.9836 7.68213 15.1655C7.56364 15.3433 7.50439 15.5231 7.50439 15.7051V15.7368H11.6113V17ZM16.0103 17.1523C15.0623 17.1523 14.3218 16.7651 13.7886 15.9907C13.2596 15.2163 12.9951 14.097 12.9951 12.6328C12.9951 11.0247 13.2723 9.80811 13.8267 8.98291C14.381 8.15771 15.1808 7.74512 16.2261 7.74512C18.2277 7.74512 19.2285 9.30029 19.2285 12.4106C19.2285 13.951 18.945 15.1274 18.3779 15.9399C17.8151 16.7482 17.0259 17.1523 16.0103 17.1523ZM16.1562 8.91943C15.0518 8.91943 14.4995 10.1361 14.4995 12.5693C14.4995 14.846 15.0412 15.9844 16.1245 15.9844C17.1909 15.9844 17.7241 14.827 17.7241 12.5122C17.7241 10.117 17.2015 8.91943 16.1562 8.91943Z" fill="white"/>
<defs>
<linearGradient id="paint0_linear_28_2338" x1="0" y1="0" x2="25" y2="25" gradientUnits="userSpaceOnUse">
<stop stop-color="#209782"/>
<stop offset="1" stop-color="#0C695A"/>
</linearGradient>
</defs>
</svg>
