<svg width="25" height="25" viewBox="0 0 25 25" fill="none" xmlns="http://www.w3.org/2000/svg">
<circle cx="12.5" cy="12.5" r="12" fill="url(#paint0_linear_28_2410)" stroke="#FAFAFA"/>
<path d="M6.03809 16.6636V15.2798C6.63053 15.7495 7.29915 15.9844 8.04395 15.9844C8.64909 15.9844 9.13151 15.8468 9.49121 15.5718C9.85514 15.2967 10.0371 14.9243 10.0371 14.4546C10.0371 13.422 9.24788 12.9058 7.66943 12.9058H6.96484V11.7251H7.6377C9.03841 11.7251 9.73877 11.2384 9.73877 10.2651C9.73877 9.368 9.19287 8.91943 8.10107 8.91943C7.4917 8.91943 6.91829 9.13737 6.38086 9.57324V8.26562C6.9987 7.91862 7.72868 7.74512 8.5708 7.74512C9.37907 7.74512 10.0265 7.94824 10.5132 8.35449C10.9998 8.76074 11.2432 9.28125 11.2432 9.91602C11.2432 11.1136 10.6338 11.8838 9.41504 12.2266V12.252C10.071 12.3154 10.5894 12.5461 10.9702 12.9438C11.3511 13.3374 11.5415 13.8304 11.5415 14.4229C11.5415 15.2396 11.2347 15.8997 10.6211 16.4033C10.0075 16.9027 9.19922 17.1523 8.19629 17.1523C7.29492 17.1523 6.57552 16.9894 6.03809 16.6636ZM19.127 11.9536C19.127 12.8634 19.0275 13.6463 18.8286 14.3022C18.634 14.9582 18.3631 15.4977 18.0161 15.9209C17.6733 16.3441 17.2692 16.6572 16.8037 16.8604C16.3424 17.0592 15.8452 17.1587 15.312 17.1587C15.1385 17.1587 14.9629 17.1481 14.7852 17.127C14.6117 17.1058 14.4445 17.0783 14.2837 17.0444C14.1271 17.0106 13.9832 16.9746 13.8521 16.9365C13.7251 16.8942 13.6193 16.854 13.5347 16.8159V15.4893C13.6235 15.5443 13.7336 15.6014 13.8647 15.6606C13.9959 15.7157 14.1377 15.7664 14.29 15.813C14.4466 15.8553 14.6074 15.8913 14.7725 15.9209C14.9417 15.9463 15.1047 15.959 15.2612 15.959C15.6209 15.959 15.9468 15.8892 16.2388 15.7495C16.535 15.6099 16.7868 15.4025 16.9941 15.1274C17.2015 14.8524 17.3602 14.5117 17.4702 14.1055C17.5845 13.695 17.6416 13.221 17.6416 12.6836H17.6162C17.54 12.819 17.4385 12.9481 17.3115 13.0708C17.1888 13.1893 17.047 13.2951 16.8862 13.3882C16.7254 13.4771 16.5456 13.549 16.3467 13.604C16.152 13.659 15.9425 13.6865 15.7183 13.6865C15.3374 13.6865 14.9819 13.6209 14.6519 13.4897C14.326 13.3543 14.0425 13.1639 13.8013 12.9185C13.5601 12.673 13.3696 12.3747 13.23 12.0234C13.0946 11.6722 13.0269 11.2808 13.0269 10.8491C13.0269 10.3752 13.1051 9.94775 13.2617 9.56689C13.4183 9.1818 13.6341 8.85596 13.9092 8.58936C14.1842 8.31852 14.508 8.11117 14.8804 7.96729C15.2528 7.81917 15.6569 7.74512 16.0928 7.74512C16.5033 7.74512 16.8905 7.8234 17.2544 7.97998C17.6226 8.13232 17.9442 8.37777 18.2192 8.71631C18.4985 9.05062 18.7186 9.48438 18.8794 10.0176C19.0444 10.5508 19.127 11.1961 19.127 11.9536ZM17.5908 10.9824C17.5908 10.6777 17.5506 10.4006 17.4702 10.1509C17.394 9.9012 17.2861 9.6875 17.1465 9.50977C17.0068 9.33203 16.8397 9.1945 16.645 9.09717C16.4546 8.99984 16.2451 8.95117 16.0166 8.95117C15.8135 8.95117 15.6188 8.99349 15.4326 9.07812C15.2507 9.15853 15.0898 9.2749 14.9502 9.42725C14.8148 9.57959 14.7069 9.76367 14.6265 9.97949C14.5461 10.1953 14.5059 10.4344 14.5059 10.6968C14.5059 10.9845 14.5439 11.2384 14.6201 11.4585C14.7005 11.6785 14.8105 11.8647 14.9502 12.0171C15.0898 12.1652 15.257 12.2795 15.4517 12.3599C15.6506 12.436 15.8685 12.4741 16.1055 12.4741C16.3171 12.4741 16.5117 12.436 16.6895 12.3599C16.8714 12.2795 17.028 12.1737 17.1592 12.0425C17.2946 11.9071 17.4004 11.7484 17.4766 11.5664C17.5527 11.3844 17.5908 11.1898 17.5908 10.9824Z" fill="white"/>
<defs>
<linearGradient id="paint0_linear_28_2410" x1="0" y1="0" x2="25" y2="25" gradientUnits="userSpaceOnUse">
<stop stop-color="#209782"/>
<stop offset="1" stop-color="#0C695A"/>
</linearGradient>
</defs>
</svg>
