<svg width="25" height="25" viewBox="0 0 25 25" fill="none" xmlns="http://www.w3.org/2000/svg">
<circle cx="12.5" cy="12.5" r="12" fill="url(#paint0_linear_28_2348)" stroke="#FAFAFA"/>
<path d="M6.05713 16.6636V15.2798C6.64958 15.7495 7.3182 15.9844 8.06299 15.9844C8.66813 15.9844 9.15055 15.8468 9.51025 15.5718C9.87419 15.2967 10.0562 14.9243 10.0562 14.4546C10.0562 13.422 9.26693 12.9058 7.68848 12.9058H6.98389V11.7251H7.65674C9.05745 11.7251 9.75781 11.2384 9.75781 10.2651C9.75781 9.368 9.21191 8.91943 8.12012 8.91943C7.51074 8.91943 6.93734 9.13737 6.3999 9.57324V8.26562C7.01774 7.91862 7.74772 7.74512 8.58984 7.74512C9.39811 7.74512 10.0456 7.94824 10.5322 8.35449C11.0189 8.76074 11.2622 9.28125 11.2622 9.91602C11.2622 11.1136 10.6528 11.8838 9.43408 12.2266V12.252C10.09 12.3154 10.6084 12.5461 10.9893 12.9438C11.3701 13.3374 11.5605 13.8304 11.5605 14.4229C11.5605 15.2396 11.2537 15.8997 10.6401 16.4033C10.0265 16.9027 9.21826 17.1523 8.21533 17.1523C7.31396 17.1523 6.59456 16.9894 6.05713 16.6636ZM16.0103 17.1523C15.0623 17.1523 14.3218 16.7651 13.7886 15.9907C13.2596 15.2163 12.9951 14.097 12.9951 12.6328C12.9951 11.0247 13.2723 9.80811 13.8267 8.98291C14.381 8.15771 15.1808 7.74512 16.2261 7.74512C18.2277 7.74512 19.2285 9.30029 19.2285 12.4106C19.2285 13.951 18.945 15.1274 18.3779 15.9399C17.8151 16.7482 17.0259 17.1523 16.0103 17.1523ZM16.1562 8.91943C15.0518 8.91943 14.4995 10.1361 14.4995 12.5693C14.4995 14.846 15.0412 15.9844 16.1245 15.9844C17.1909 15.9844 17.7241 14.827 17.7241 12.5122C17.7241 10.117 17.2015 8.91943 16.1562 8.91943Z" fill="white"/>
<defs>
<linearGradient id="paint0_linear_28_2348" x1="0" y1="0" x2="25" y2="25" gradientUnits="userSpaceOnUse">
<stop stop-color="#209782"/>
<stop offset="1" stop-color="#0C695A"/>
</linearGradient>
</defs>
</svg>
