<svg width="25" height="25" viewBox="0 0 25 25" fill="none" xmlns="http://www.w3.org/2000/svg">
<circle cx="12.5" cy="12.5" r="12" fill="url(#paint0_linear_28_2335)" stroke="#FAFAFA"/>
<path d="M10.3037 7.69434V17H8.83105V9.49707C8.56445 9.6875 8.27669 9.85042 7.96777 9.98584C7.66309 10.117 7.31396 10.2334 6.92041 10.335V9.07812C7.16585 8.99772 7.40283 8.91309 7.63135 8.82422C7.85986 8.73535 8.08415 8.6359 8.3042 8.52588C8.52848 8.41585 8.75277 8.29313 8.97705 8.15771C9.20557 8.0223 9.44043 7.86784 9.68164 7.69434H10.3037ZM18.1558 8.63379C17.7749 9.33203 17.4152 10.0239 17.0767 10.7095C16.7381 11.3908 16.4313 12.0763 16.1562 12.7661C15.8812 13.4559 15.6421 14.152 15.439 14.8545C15.2358 15.5527 15.0793 16.2679 14.9692 17H13.4268C13.5283 16.3483 13.6722 15.6987 13.8584 15.0513C14.0488 14.3996 14.271 13.75 14.5249 13.1025C14.7788 12.4508 15.0623 11.797 15.3755 11.1411C15.6929 10.4852 16.0293 9.82292 16.3848 9.1543H12.0747V7.89746H18.1558V8.63379Z" fill="white"/>
<defs>
<linearGradient id="paint0_linear_28_2335" x1="0" y1="0" x2="25" y2="25" gradientUnits="userSpaceOnUse">
<stop stop-color="#209782"/>
<stop offset="1" stop-color="#0C695A"/>
</linearGradient>
</defs>
</svg>
