<svg width="25" height="25" viewBox="0 0 25 25" fill="none" xmlns="http://www.w3.org/2000/svg">
<circle cx="12.5" cy="12.5" r="12" fill="url(#paint0_linear_28_2336)" stroke="#FAFAFA"/>
<path d="M10.1768 7.69434V17H8.7041V9.49707C8.4375 9.6875 8.14974 9.85042 7.84082 9.98584C7.53613 10.117 7.18701 10.2334 6.79346 10.335V9.07812C7.0389 8.99772 7.27588 8.91309 7.50439 8.82422C7.73291 8.73535 7.95719 8.6359 8.17725 8.52588C8.40153 8.41585 8.62581 8.29313 8.8501 8.15771C9.07861 8.0223 9.31348 7.86784 9.55469 7.69434H10.1768ZM12.0811 14.4609C12.0811 14.1986 12.1128 13.9447 12.1763 13.6992C12.244 13.4538 12.3434 13.2274 12.4746 13.02C12.6058 12.8127 12.7708 12.6265 12.9697 12.4614C13.1686 12.2964 13.4014 12.1631 13.668 12.0615C13.2744 11.8415 12.9613 11.5601 12.7285 11.2173C12.4958 10.8703 12.3794 10.4873 12.3794 10.0684C12.3794 9.73405 12.4471 9.42513 12.5825 9.1416C12.7222 8.85807 12.9126 8.61263 13.1538 8.40527C13.3993 8.19792 13.687 8.03711 14.0171 7.92285C14.3472 7.80436 14.7069 7.74512 15.0962 7.74512C15.4897 7.74512 15.8516 7.80436 16.1816 7.92285C16.516 8.04134 16.8037 8.20426 17.0449 8.41162C17.2904 8.61898 17.4808 8.86442 17.6162 9.14795C17.7516 9.43148 17.8193 9.73828 17.8193 10.0684C17.8193 10.4873 17.703 10.8703 17.4702 11.2173C17.2375 11.5601 16.9285 11.8415 16.5435 12.0615C16.8058 12.1631 17.0365 12.2964 17.2354 12.4614C17.4385 12.6222 17.6077 12.8063 17.7432 13.0137C17.8786 13.221 17.9801 13.4474 18.0479 13.6929C18.1156 13.9383 18.1494 14.1943 18.1494 14.4609C18.1494 14.8587 18.0754 15.2227 17.9272 15.5527C17.7791 15.8828 17.5718 16.1663 17.3052 16.4033C17.0386 16.6361 16.7191 16.818 16.3467 16.9492C15.9743 17.0804 15.5638 17.146 15.1152 17.146C14.6709 17.146 14.2625 17.0804 13.8901 16.9492C13.522 16.818 13.2025 16.6361 12.9316 16.4033C12.665 16.1663 12.4556 15.8828 12.3032 15.5527C12.1551 15.2227 12.0811 14.8587 12.0811 14.4609ZM13.5156 14.334C13.5156 14.5921 13.5537 14.8249 13.6299 15.0322C13.7061 15.2396 13.814 15.4152 13.9536 15.5591C14.0933 15.703 14.2604 15.813 14.4551 15.8892C14.654 15.9653 14.874 16.0034 15.1152 16.0034C15.348 16.0034 15.5617 15.9653 15.7563 15.8892C15.951 15.8088 16.1182 15.6966 16.2578 15.5527C16.4017 15.4046 16.5138 15.229 16.5942 15.0259C16.6746 14.8185 16.7148 14.5879 16.7148 14.334C16.7148 14.1012 16.6768 13.8833 16.6006 13.6802C16.5244 13.4728 16.4165 13.293 16.2769 13.1406C16.1372 12.9883 15.9679 12.8677 15.769 12.7788C15.5744 12.6899 15.3564 12.6455 15.1152 12.6455C14.8867 12.6455 14.673 12.6878 14.4741 12.7725C14.2795 12.8529 14.1102 12.9692 13.9663 13.1216C13.8267 13.2697 13.7166 13.4474 13.6362 13.6548C13.5558 13.8621 13.5156 14.0885 13.5156 14.334ZM13.8267 10.2207C13.8267 10.4111 13.8605 10.5889 13.9282 10.7539C13.9959 10.9147 14.0869 11.0565 14.2012 11.1792C14.3154 11.2977 14.4487 11.3908 14.6011 11.4585C14.7576 11.5262 14.9248 11.5601 15.1025 11.5601C15.2803 11.5601 15.4453 11.5262 15.5977 11.4585C15.7542 11.3866 15.8896 11.2913 16.0039 11.1729C16.1224 11.0501 16.2155 10.9084 16.2832 10.7476C16.3509 10.5825 16.3848 10.4069 16.3848 10.2207C16.3848 10.0303 16.3509 9.85254 16.2832 9.6875C16.2197 9.52246 16.1309 9.3807 16.0166 9.26221C15.9023 9.14372 15.7669 9.05062 15.6104 8.98291C15.4538 8.9152 15.2845 8.88135 15.1025 8.88135C14.9121 8.88135 14.7386 8.91732 14.582 8.98926C14.4255 9.05697 14.29 9.15218 14.1758 9.2749C14.0658 9.39762 13.979 9.5415 13.9155 9.70654C13.8563 9.86735 13.8267 10.0387 13.8267 10.2207Z" fill="white"/>
<defs>
<linearGradient id="paint0_linear_28_2336" x1="0" y1="0" x2="25" y2="25" gradientUnits="userSpaceOnUse">
<stop stop-color="#209782"/>
<stop offset="1" stop-color="#0C695A"/>
</linearGradient>
</defs>
</svg>
