<svg width="25" height="25" viewBox="0 0 25 25" fill="none" xmlns="http://www.w3.org/2000/svg">
<circle cx="12.5" cy="12.5" r="12" fill="url(#paint0_linear_28_2334)" stroke="#FAFAFA"/>
<path d="M10.1577 7.69434V17H8.68506V9.49707C8.41846 9.6875 8.1307 9.85042 7.82178 9.98584C7.51709 10.117 7.16797 10.2334 6.77441 10.335V9.07812C7.01986 8.99772 7.25684 8.91309 7.48535 8.82422C7.71387 8.73535 7.93815 8.6359 8.1582 8.52588C8.38249 8.41585 8.60677 8.29313 8.83105 8.15771C9.05957 8.0223 9.29443 7.86784 9.53564 7.69434H10.1577ZM18.2446 14.0737C18.2446 14.5308 18.1685 14.9476 18.0161 15.3242C17.868 15.7008 17.6606 16.0267 17.394 16.3018C17.1274 16.5726 16.8101 16.7842 16.4419 16.9365C16.078 17.0846 15.6823 17.1587 15.2549 17.1587C14.7979 17.1587 14.3768 17.0698 13.9917 16.8921C13.6108 16.7144 13.2808 16.4499 13.0015 16.0986C12.7264 15.7474 12.5127 15.3115 12.3604 14.791C12.208 14.2663 12.1318 13.659 12.1318 12.9692C12.1318 12.1271 12.2313 11.3802 12.4302 10.7285C12.6333 10.0768 12.9105 9.53092 13.2617 9.09082C13.613 8.65072 14.0256 8.31641 14.4995 8.08789C14.9735 7.85938 15.4855 7.74512 16.0356 7.74512C16.3784 7.74512 16.6895 7.76839 16.9688 7.81494C17.2523 7.86149 17.4787 7.92497 17.6479 8.00537V9.33203C17.4321 9.22201 17.2015 9.12891 16.9561 9.05273C16.7106 8.97656 16.4292 8.93848 16.1118 8.93848C15.7563 8.93848 15.4284 9.01042 15.1279 9.1543C14.8275 9.29818 14.5672 9.50977 14.3472 9.78906C14.1313 10.0641 13.96 10.4069 13.833 10.8174C13.7103 11.2236 13.6468 11.6934 13.6426 12.2266H13.6807C13.8753 11.9261 14.1377 11.6891 14.4678 11.5156C14.8021 11.3421 15.1935 11.2554 15.6421 11.2554C16.0399 11.2554 16.3975 11.321 16.7148 11.4521C17.0365 11.5791 17.3094 11.7653 17.5337 12.0107C17.7622 12.252 17.9378 12.5482 18.0605 12.8994C18.1833 13.2464 18.2446 13.6379 18.2446 14.0737ZM16.7593 14.1943C16.7593 13.932 16.7275 13.6929 16.6641 13.4771C16.6048 13.2612 16.5117 13.0771 16.3848 12.9248C16.262 12.7682 16.1055 12.6476 15.915 12.563C15.7288 12.4784 15.5088 12.436 15.2549 12.436C15.001 12.436 14.7767 12.4826 14.582 12.5757C14.3916 12.6646 14.2308 12.783 14.0996 12.9312C13.9684 13.0793 13.869 13.2485 13.8013 13.439C13.7378 13.6294 13.7061 13.8241 13.7061 14.0229C13.7061 14.2388 13.7357 14.4609 13.7949 14.6895C13.8584 14.9137 13.9536 15.119 14.0806 15.3052C14.2075 15.4914 14.3683 15.6458 14.563 15.7686C14.7619 15.887 14.9967 15.9463 15.2676 15.9463C15.5088 15.9463 15.7225 15.9019 15.9087 15.813C16.0949 15.7241 16.2493 15.6014 16.3721 15.4448C16.499 15.2882 16.5942 15.1042 16.6577 14.8926C16.7254 14.6768 16.7593 14.444 16.7593 14.1943Z" fill="white"/>
<defs>
<linearGradient id="paint0_linear_28_2334" x1="0" y1="0" x2="25" y2="25" gradientUnits="userSpaceOnUse">
<stop stop-color="#209782"/>
<stop offset="1" stop-color="#0C695A"/>
</linearGradient>
</defs>
</svg>
