<svg width="25" height="25" viewBox="0 0 25 25" fill="none" xmlns="http://www.w3.org/2000/svg">
<circle cx="12.5" cy="12.5" r="12" fill="url(#paint0_linear_28_2162)" stroke="#FAFAFA"/>
<path d="M15.5405 8.63379C15.1597 9.33203 14.8 10.0239 14.4614 10.7095C14.1229 11.3908 13.8161 12.0763 13.541 12.7661C13.266 13.4559 13.0269 14.152 12.8237 14.8545C12.6206 15.5527 12.464 16.2679 12.354 17H10.8115C10.9131 16.3483 11.057 15.6987 11.2432 15.0513C11.4336 14.3996 11.6558 13.75 11.9097 13.1025C12.1636 12.4508 12.4471 11.797 12.7603 11.1411C13.0776 10.4852 13.4141 9.82292 13.7695 9.1543H9.45947V7.89746H15.5405V8.63379Z" fill="white"/>
<defs>
<linearGradient id="paint0_linear_28_2162" x1="0" y1="0" x2="25" y2="25" gradientUnits="userSpaceOnUse">
<stop stop-color="#209782"/>
<stop offset="1" stop-color="#0C695A"/>
</linearGradient>
</defs>
</svg>
