<svg width="25" height="25" viewBox="0 0 25 25" fill="none" xmlns="http://www.w3.org/2000/svg">
<circle cx="12.5" cy="12.5" r="12" fill="url(#paint0_linear_28_2403)" stroke="#FAFAFA"/>
<path d="M11.002 7.89746V13.7754H12.354V15.0005H11.002V17H9.57373V15.0005H5.4541V13.7627C5.8265 13.3438 6.20736 12.891 6.59668 12.4043C6.99023 11.9134 7.36686 11.4141 7.72656 10.9062C8.09049 10.3942 8.42692 9.88216 8.73584 9.37012C9.04476 8.85807 9.30501 8.36719 9.5166 7.89746H11.002ZM9.57373 13.7754V9.9541C9.11247 10.7835 8.65544 11.5072 8.20264 12.125C7.75407 12.7428 7.33301 13.293 6.93945 13.7754H9.57373ZM19.3745 14.0737C19.3745 14.5308 19.2983 14.9476 19.146 15.3242C18.9979 15.7008 18.7905 16.0267 18.5239 16.3018C18.2573 16.5726 17.9399 16.7842 17.5718 16.9365C17.2078 17.0846 16.8122 17.1587 16.3848 17.1587C15.9277 17.1587 15.5067 17.0698 15.1216 16.8921C14.7407 16.7144 14.4106 16.4499 14.1313 16.0986C13.8563 15.7474 13.6426 15.3115 13.4902 14.791C13.3379 14.2663 13.2617 13.659 13.2617 12.9692C13.2617 12.1271 13.3612 11.3802 13.5601 10.7285C13.7632 10.0768 14.0404 9.53092 14.3916 9.09082C14.7428 8.65072 15.1554 8.31641 15.6294 8.08789C16.1034 7.85938 16.6154 7.74512 17.1655 7.74512C17.5083 7.74512 17.8193 7.76839 18.0986 7.81494C18.3822 7.86149 18.6086 7.92497 18.7778 8.00537V9.33203C18.562 9.22201 18.3314 9.12891 18.0859 9.05273C17.8405 8.97656 17.5591 8.93848 17.2417 8.93848C16.8862 8.93848 16.5583 9.01042 16.2578 9.1543C15.9574 9.29818 15.6971 9.50977 15.4771 9.78906C15.2612 10.0641 15.0898 10.4069 14.9629 10.8174C14.8402 11.2236 14.7767 11.6934 14.7725 12.2266H14.8105C15.0052 11.9261 15.2676 11.6891 15.5977 11.5156C15.932 11.3421 16.3234 11.2554 16.772 11.2554C17.1698 11.2554 17.5273 11.321 17.8447 11.4521C18.1663 11.5791 18.4393 11.7653 18.6636 12.0107C18.8921 12.252 19.0677 12.5482 19.1904 12.8994C19.3132 13.2464 19.3745 13.6379 19.3745 14.0737ZM17.8892 14.1943C17.8892 13.932 17.8574 13.6929 17.7939 13.4771C17.7347 13.2612 17.6416 13.0771 17.5146 12.9248C17.3919 12.7682 17.2354 12.6476 17.0449 12.563C16.8587 12.4784 16.6387 12.436 16.3848 12.436C16.1309 12.436 15.9066 12.4826 15.7119 12.5757C15.5215 12.6646 15.3607 12.783 15.2295 12.9312C15.0983 13.0793 14.9989 13.2485 14.9312 13.439C14.8677 13.6294 14.8359 13.8241 14.8359 14.0229C14.8359 14.2388 14.8656 14.4609 14.9248 14.6895C14.9883 14.9137 15.0835 15.119 15.2104 15.3052C15.3374 15.4914 15.4982 15.6458 15.6929 15.7686C15.8918 15.887 16.1266 15.9463 16.3975 15.9463C16.6387 15.9463 16.8524 15.9019 17.0386 15.813C17.2248 15.7241 17.3792 15.6014 17.502 15.4448C17.6289 15.2882 17.7241 15.1042 17.7876 14.8926C17.8553 14.6768 17.8892 14.444 17.8892 14.1943Z" fill="white"/>
<defs>
<linearGradient id="paint0_linear_28_2403" x1="0" y1="0" x2="25" y2="25" gradientUnits="userSpaceOnUse">
<stop stop-color="#209782"/>
<stop offset="1" stop-color="#0C695A"/>
</linearGradient>
</defs>
</svg>
