<svg width="25" height="25" viewBox="0 0 25 25" fill="none" xmlns="http://www.w3.org/2000/svg">
<circle cx="12.5" cy="12.5" r="12" fill="url(#paint0_linear_28_2415)" stroke="#FAFAFA"/>
<path d="M5.92383 16.6636V15.2798C6.51628 15.7495 7.1849 15.9844 7.92969 15.9844C8.53483 15.9844 9.01725 15.8468 9.37695 15.5718C9.74089 15.2967 9.92285 14.9243 9.92285 14.4546C9.92285 13.422 9.13363 12.9058 7.55518 12.9058H6.85059V11.7251H7.52344C8.92415 11.7251 9.62451 11.2384 9.62451 10.2651C9.62451 9.368 9.07861 8.91943 7.98682 8.91943C7.37744 8.91943 6.80404 9.13737 6.2666 9.57324V8.26562C6.88444 7.91862 7.61442 7.74512 8.45654 7.74512C9.26481 7.74512 9.91227 7.94824 10.3989 8.35449C10.8856 8.76074 11.1289 9.28125 11.1289 9.91602C11.1289 11.1136 10.5195 11.8838 9.30078 12.2266V12.252C9.95671 12.3154 10.4751 12.5461 10.856 12.9438C11.2368 13.3374 11.4272 13.8304 11.4272 14.4229C11.4272 15.2396 11.1204 15.8997 10.5068 16.4033C9.89323 16.9027 9.08496 17.1523 8.08203 17.1523C7.18066 17.1523 6.46126 16.9894 5.92383 16.6636ZM18.2446 7.89746V13.7754H19.5967V15.0005H18.2446V17H16.8164V15.0005H12.6968V13.7627C13.0692 13.3438 13.45 12.891 13.8394 12.4043C14.2329 11.9134 14.6095 11.4141 14.9692 10.9062C15.3332 10.3942 15.6696 9.88216 15.9785 9.37012C16.2874 8.85807 16.5477 8.36719 16.7593 7.89746H18.2446ZM16.8164 13.7754V9.9541C16.3551 10.7835 15.8981 11.5072 15.4453 12.125C14.9967 12.7428 14.5757 13.293 14.1821 13.7754H16.8164Z" fill="white"/>
<defs>
<linearGradient id="paint0_linear_28_2415" x1="0" y1="0" x2="25" y2="25" gradientUnits="userSpaceOnUse">
<stop stop-color="#209782"/>
<stop offset="1" stop-color="#0C695A"/>
</linearGradient>
</defs>
</svg>
