<svg width="25" height="25" viewBox="0 0 25 25" fill="none" xmlns="http://www.w3.org/2000/svg">
<circle cx="12.5" cy="12.5" r="12" fill="url(#paint0_linear_28_2399)" stroke="#FAFAFA"/>
<path d="M6.26025 16.7905V15.375C6.85693 15.777 7.46208 15.978 8.07568 15.978C8.69352 15.978 9.19076 15.8215 9.56738 15.5083C9.94401 15.1909 10.1323 14.7699 10.1323 14.2451C10.1323 13.7288 9.93978 13.3268 9.55469 13.0391C9.17383 12.7513 8.62581 12.6074 7.91064 12.6074C7.6652 12.6074 7.16797 12.6328 6.41895 12.6836L6.74268 7.89746H11.2241V9.1543H7.96777L7.81543 11.4331C8.10742 11.4162 8.37191 11.4077 8.60889 11.4077C9.57373 11.4077 10.3185 11.6553 10.8433 12.1504C11.3722 12.6455 11.6367 13.3226 11.6367 14.1816C11.6367 15.083 11.3341 15.8066 10.729 16.3525C10.1281 16.8942 9.30078 17.165 8.24707 17.165C7.3584 17.165 6.69613 17.0402 6.26025 16.7905ZM16.0103 17.1523C15.0623 17.1523 14.3218 16.7651 13.7886 15.9907C13.2596 15.2163 12.9951 14.097 12.9951 12.6328C12.9951 11.0247 13.2723 9.80811 13.8267 8.98291C14.381 8.15771 15.1808 7.74512 16.2261 7.74512C18.2277 7.74512 19.2285 9.30029 19.2285 12.4106C19.2285 13.951 18.945 15.1274 18.3779 15.9399C17.8151 16.7482 17.0259 17.1523 16.0103 17.1523ZM16.1562 8.91943C15.0518 8.91943 14.4995 10.1361 14.4995 12.5693C14.4995 14.846 15.0412 15.9844 16.1245 15.9844C17.1909 15.9844 17.7241 14.827 17.7241 12.5122C17.7241 10.117 17.2015 8.91943 16.1562 8.91943Z" fill="white"/>
<defs>
<linearGradient id="paint0_linear_28_2399" x1="0" y1="0" x2="25" y2="25" gradientUnits="userSpaceOnUse">
<stop stop-color="#209782"/>
<stop offset="1" stop-color="#0C695A"/>
</linearGradient>
</defs>
</svg>
