<svg width="25" height="25" viewBox="0 0 25 25" fill="none" xmlns="http://www.w3.org/2000/svg">
<circle cx="12.5" cy="12.5" r="12" fill="url(#paint0_linear_28_2343)" stroke="#FAFAFA"/>
<path d="M11.6113 17H5.89844V16.2954C5.89844 16.0076 5.93864 15.7389 6.01904 15.4893C6.09945 15.2354 6.20736 14.9984 6.34277 14.7783C6.47819 14.554 6.63688 14.3446 6.81885 14.1499C7.00081 13.951 7.19548 13.7606 7.40283 13.5786C7.61019 13.3924 7.82178 13.2147 8.0376 13.0454C8.25342 12.8719 8.46501 12.6984 8.67236 12.5249C8.86702 12.3599 9.04476 12.1991 9.20557 12.0425C9.36637 11.8817 9.50391 11.7166 9.61816 11.5474C9.73242 11.3781 9.82129 11.2004 9.88477 11.0142C9.94824 10.8237 9.97998 10.6185 9.97998 10.3984C9.97998 10.1572 9.94189 9.94775 9.86572 9.77002C9.79378 9.58805 9.6901 9.43783 9.55469 9.31934C9.4235 9.19661 9.26693 9.10563 9.08496 9.04639C8.90299 8.98291 8.7041 8.95117 8.48828 8.95117C8.11589 8.95117 7.73714 9.03792 7.35205 9.21143C6.96696 9.38493 6.59668 9.64518 6.24121 9.99219V8.57666C6.42741 8.43701 6.61572 8.31641 6.80615 8.21484C6.99658 8.10905 7.19336 8.0223 7.39648 7.95459C7.59961 7.88265 7.81331 7.82975 8.0376 7.7959C8.26188 7.76204 8.50098 7.74512 8.75488 7.74512C9.16536 7.74512 9.53776 7.80013 9.87207 7.91016C10.2064 8.01595 10.492 8.17464 10.729 8.38623C10.966 8.59359 11.1479 8.85384 11.2749 9.16699C11.4061 9.48014 11.4717 9.83984 11.4717 10.2461C11.4717 10.6143 11.4251 10.9465 11.332 11.2427C11.2432 11.5347 11.1141 11.8076 10.9448 12.0615C10.7798 12.3154 10.5788 12.5566 10.3418 12.7852C10.1048 13.0137 9.84033 13.2485 9.54834 13.4897C9.3029 13.6886 9.05745 13.8833 8.81201 14.0737C8.5708 14.2599 8.35286 14.444 8.1582 14.626C7.96354 14.8037 7.80485 14.9836 7.68213 15.1655C7.56364 15.3433 7.50439 15.5231 7.50439 15.7051V15.7368H11.6113V17ZM13.4839 16.7905V15.375C14.0806 15.777 14.6857 15.978 15.2993 15.978C15.9172 15.978 16.4144 15.8215 16.791 15.5083C17.1676 15.1909 17.356 14.7699 17.356 14.2451C17.356 13.7288 17.1634 13.3268 16.7783 13.0391C16.3975 12.7513 15.8494 12.6074 15.1343 12.6074C14.8888 12.6074 14.3916 12.6328 13.6426 12.6836L13.9663 7.89746H18.4478V9.1543H15.1914L15.0391 11.4331C15.3311 11.4162 15.5955 11.4077 15.8325 11.4077C16.7974 11.4077 17.5422 11.6553 18.0669 12.1504C18.5959 12.6455 18.8604 13.3226 18.8604 14.1816C18.8604 15.083 18.5578 15.8066 17.9526 16.3525C17.3517 16.8942 16.5244 17.165 15.4707 17.165C14.582 17.165 13.9198 17.0402 13.4839 16.7905Z" fill="white"/>
<defs>
<linearGradient id="paint0_linear_28_2343" x1="0" y1="0" x2="25" y2="25" gradientUnits="userSpaceOnUse">
<stop stop-color="#209782"/>
<stop offset="1" stop-color="#0C695A"/>
</linearGradient>
</defs>
</svg>
