<svg width="25" height="25" viewBox="0 0 25 25" fill="none" xmlns="http://www.w3.org/2000/svg">
<circle cx="12.5" cy="12.5" r="12" fill="url(#paint0_linear_28_2405)" stroke="#FAFAFA"/>
<path d="M10.8877 7.89746V13.7754H12.2397V15.0005H10.8877V17H9.45947V15.0005H5.33984V13.7627C5.71224 13.3438 6.0931 12.891 6.48242 12.4043C6.87598 11.9134 7.2526 11.4141 7.6123 10.9062C7.97624 10.3942 8.31266 9.88216 8.62158 9.37012C8.9305 8.85807 9.19076 8.36719 9.40234 7.89746H10.8877ZM9.45947 13.7754V9.9541C8.99821 10.7835 8.54118 11.5072 8.08838 12.125C7.63981 12.7428 7.21875 13.293 6.8252 13.7754H9.45947ZM18.3779 7.89746V13.7754H19.73V15.0005H18.3779V17H16.9497V15.0005H12.8301V13.7627C13.2025 13.3438 13.5833 12.891 13.9727 12.4043C14.3662 11.9134 14.7428 11.4141 15.1025 10.9062C15.4665 10.3942 15.8029 9.88216 16.1118 9.37012C16.4207 8.85807 16.681 8.36719 16.8926 7.89746H18.3779ZM16.9497 13.7754V9.9541C16.4884 10.7835 16.0314 11.5072 15.5786 12.125C15.13 12.7428 14.709 13.293 14.3154 13.7754H16.9497Z" fill="white"/>
<defs>
<linearGradient id="paint0_linear_28_2405" x1="0" y1="0" x2="25" y2="25" gradientUnits="userSpaceOnUse">
<stop stop-color="#209782"/>
<stop offset="1" stop-color="#0C695A"/>
</linearGradient>
</defs>
</svg>
