<svg width="25" height="25" viewBox="0 0 25 25" fill="none" xmlns="http://www.w3.org/2000/svg">
<circle cx="12.5" cy="12.5" r="12" fill="url(#paint0_linear_28_2344)" stroke="#FAFAFA"/>
<path d="M11.5923 17H5.87939V16.2954C5.87939 16.0076 5.9196 15.7389 6 15.4893C6.0804 15.2354 6.18831 14.9984 6.32373 14.7783C6.45915 14.554 6.61784 14.3446 6.7998 14.1499C6.98177 13.951 7.17643 13.7606 7.38379 13.5786C7.59115 13.3924 7.80273 13.2147 8.01855 13.0454C8.23438 12.8719 8.44596 12.6984 8.65332 12.5249C8.84798 12.3599 9.02572 12.1991 9.18652 12.0425C9.34733 11.8817 9.48486 11.7166 9.59912 11.5474C9.71338 11.3781 9.80225 11.2004 9.86572 11.0142C9.9292 10.8237 9.96094 10.6185 9.96094 10.3984C9.96094 10.1572 9.92285 9.94775 9.84668 9.77002C9.77474 9.58805 9.67106 9.43783 9.53564 9.31934C9.40446 9.19661 9.24788 9.10563 9.06592 9.04639C8.88395 8.98291 8.68506 8.95117 8.46924 8.95117C8.09684 8.95117 7.7181 9.03792 7.33301 9.21143C6.94792 9.38493 6.57764 9.64518 6.22217 9.99219V8.57666C6.40837 8.43701 6.59668 8.31641 6.78711 8.21484C6.97754 8.10905 7.17432 8.0223 7.37744 7.95459C7.58057 7.88265 7.79427 7.82975 8.01855 7.7959C8.24284 7.76204 8.48193 7.74512 8.73584 7.74512C9.14632 7.74512 9.51872 7.80013 9.85303 7.91016C10.1873 8.01595 10.473 8.17464 10.71 8.38623C10.9469 8.59359 11.1289 8.85384 11.2559 9.16699C11.387 9.48014 11.4526 9.83984 11.4526 10.2461C11.4526 10.6143 11.4061 10.9465 11.313 11.2427C11.2241 11.5347 11.0951 11.8076 10.9258 12.0615C10.7607 12.3154 10.5597 12.5566 10.3228 12.7852C10.0858 13.0137 9.82129 13.2485 9.5293 13.4897C9.28385 13.6886 9.03841 13.8833 8.79297 14.0737C8.55176 14.2599 8.33382 14.444 8.13916 14.626C7.9445 14.8037 7.78581 14.9836 7.66309 15.1655C7.5446 15.3433 7.48535 15.5231 7.48535 15.7051V15.7368H11.5923V17ZM19.2412 14.0737C19.2412 14.5308 19.165 14.9476 19.0127 15.3242C18.8646 15.7008 18.6572 16.0267 18.3906 16.3018C18.124 16.5726 17.8066 16.7842 17.4385 16.9365C17.0745 17.0846 16.6789 17.1587 16.2515 17.1587C15.7944 17.1587 15.3734 17.0698 14.9883 16.8921C14.6074 16.7144 14.2773 16.4499 13.998 16.0986C13.723 15.7474 13.5093 15.3115 13.3569 14.791C13.2046 14.2663 13.1284 13.659 13.1284 12.9692C13.1284 12.1271 13.2279 11.3802 13.4268 10.7285C13.6299 10.0768 13.9071 9.53092 14.2583 9.09082C14.6095 8.65072 15.0221 8.31641 15.4961 8.08789C15.9701 7.85938 16.4821 7.74512 17.0322 7.74512C17.375 7.74512 17.686 7.76839 17.9653 7.81494C18.2489 7.86149 18.4753 7.92497 18.6445 8.00537V9.33203C18.4287 9.22201 18.1981 9.12891 17.9526 9.05273C17.7072 8.97656 17.4258 8.93848 17.1084 8.93848C16.7529 8.93848 16.425 9.01042 16.1245 9.1543C15.8241 9.29818 15.5638 9.50977 15.3438 9.78906C15.1279 10.0641 14.9565 10.4069 14.8296 10.8174C14.7069 11.2236 14.6434 11.6934 14.6392 12.2266H14.6772C14.8719 11.9261 15.1343 11.6891 15.4644 11.5156C15.7987 11.3421 16.1901 11.2554 16.6387 11.2554C17.0365 11.2554 17.394 11.321 17.7114 11.4521C18.033 11.5791 18.306 11.7653 18.5303 12.0107C18.7588 12.252 18.9344 12.5482 19.0571 12.8994C19.1799 13.2464 19.2412 13.6379 19.2412 14.0737ZM17.7559 14.1943C17.7559 13.932 17.7241 13.6929 17.6606 13.4771C17.6014 13.2612 17.5083 13.0771 17.3813 12.9248C17.2586 12.7682 17.1021 12.6476 16.9116 12.563C16.7254 12.4784 16.5054 12.436 16.2515 12.436C15.9976 12.436 15.7733 12.4826 15.5786 12.5757C15.3882 12.6646 15.2274 12.783 15.0962 12.9312C14.965 13.0793 14.8656 13.2485 14.7979 13.439C14.7344 13.6294 14.7026 13.8241 14.7026 14.0229C14.7026 14.2388 14.7323 14.4609 14.7915 14.6895C14.855 14.9137 14.9502 15.119 15.0771 15.3052C15.2041 15.4914 15.3649 15.6458 15.5596 15.7686C15.7585 15.887 15.9933 15.9463 16.2642 15.9463C16.5054 15.9463 16.7191 15.9019 16.9053 15.813C17.0915 15.7241 17.2459 15.6014 17.3687 15.4448C17.4956 15.2882 17.5908 15.1042 17.6543 14.8926C17.722 14.6768 17.7559 14.444 17.7559 14.1943Z" fill="white"/>
<defs>
<linearGradient id="paint0_linear_28_2344" x1="0" y1="0" x2="25" y2="25" gradientUnits="userSpaceOnUse">
<stop stop-color="#209782"/>
<stop offset="1" stop-color="#0C695A"/>
</linearGradient>
</defs>
</svg>
