<svg width="25" height="25" viewBox="0 0 25 25" fill="none" xmlns="http://www.w3.org/2000/svg">
<circle cx="12.5" cy="12.5" r="12" fill="url(#paint0_linear_28_2416)" stroke="#FAFAFA"/>
<path d="M6.05713 16.6636V15.2798C6.64958 15.7495 7.3182 15.9844 8.06299 15.9844C8.66813 15.9844 9.15055 15.8468 9.51025 15.5718C9.87419 15.2967 10.0562 14.9243 10.0562 14.4546C10.0562 13.422 9.26693 12.9058 7.68848 12.9058H6.98389V11.7251H7.65674C9.05745 11.7251 9.75781 11.2384 9.75781 10.2651C9.75781 9.368 9.21191 8.91943 8.12012 8.91943C7.51074 8.91943 6.93734 9.13737 6.3999 9.57324V8.26562C7.01774 7.91862 7.74772 7.74512 8.58984 7.74512C9.39811 7.74512 10.0456 7.94824 10.5322 8.35449C11.0189 8.76074 11.2622 9.28125 11.2622 9.91602C11.2622 11.1136 10.6528 11.8838 9.43408 12.2266V12.252C10.09 12.3154 10.6084 12.5461 10.9893 12.9438C11.3701 13.3374 11.5605 13.8304 11.5605 14.4229C11.5605 15.2396 11.2537 15.8997 10.6401 16.4033C10.0265 16.9027 9.21826 17.1523 8.21533 17.1523C7.31396 17.1523 6.59456 16.9894 6.05713 16.6636ZM13.2808 16.6636V15.2798C13.8732 15.7495 14.5418 15.9844 15.2866 15.9844C15.8918 15.9844 16.3742 15.8468 16.7339 15.5718C17.0978 15.2967 17.2798 14.9243 17.2798 14.4546C17.2798 13.422 16.4906 12.9058 14.9121 12.9058H14.2075V11.7251H14.8804C16.2811 11.7251 16.9814 11.2384 16.9814 10.2651C16.9814 9.368 16.4355 8.91943 15.3438 8.91943C14.7344 8.91943 14.161 9.13737 13.6235 9.57324V8.26562C14.2414 7.91862 14.9714 7.74512 15.8135 7.74512C16.6217 7.74512 17.2692 7.94824 17.7559 8.35449C18.2425 8.76074 18.4858 9.28125 18.4858 9.91602C18.4858 11.1136 17.8765 11.8838 16.6577 12.2266V12.252C17.3136 12.3154 17.832 12.5461 18.2129 12.9438C18.5938 13.3374 18.7842 13.8304 18.7842 14.4229C18.7842 15.2396 18.4774 15.8997 17.8638 16.4033C17.2502 16.9027 16.4419 17.1523 15.439 17.1523C14.5376 17.1523 13.8182 16.9894 13.2808 16.6636Z" fill="white"/>
<defs>
<linearGradient id="paint0_linear_28_2416" x1="0" y1="0" x2="25" y2="25" gradientUnits="userSpaceOnUse">
<stop stop-color="#209782"/>
<stop offset="1" stop-color="#0C695A"/>
</linearGradient>
</defs>
</svg>
