<svg width="25" height="25" viewBox="0 0 25 25" fill="none" xmlns="http://www.w3.org/2000/svg">
<circle cx="12.5" cy="12.5" r="12" fill="url(#paint0_linear_28_2400)" stroke="#FAFAFA"/>
<path d="M10.8779 7.89746V13.7754H12.23V15.0005H10.8779V17H9.44971V15.0005H5.33008V13.7627C5.70247 13.3438 6.08333 12.891 6.47266 12.4043C6.86621 11.9134 7.24284 11.4141 7.60254 10.9062C7.96647 10.3942 8.3029 9.88216 8.61182 9.37012C8.92074 8.85807 9.18099 8.36719 9.39258 7.89746H10.8779ZM9.44971 13.7754V9.9541C8.98844 10.7835 8.53141 11.5072 8.07861 12.125C7.63005 12.7428 7.20898 13.293 6.81543 13.7754H9.44971ZM19.1362 11.9536C19.1362 12.8634 19.0368 13.6463 18.8379 14.3022C18.6432 14.9582 18.3724 15.4977 18.0254 15.9209C17.6826 16.3441 17.2785 16.6572 16.813 16.8604C16.3517 17.0592 15.8545 17.1587 15.3213 17.1587C15.1478 17.1587 14.9722 17.1481 14.7944 17.127C14.6209 17.1058 14.4538 17.0783 14.293 17.0444C14.1364 17.0106 13.9925 16.9746 13.8613 16.9365C13.7344 16.8942 13.6286 16.854 13.5439 16.8159V15.4893C13.6328 15.5443 13.7428 15.6014 13.874 15.6606C14.0052 15.7157 14.147 15.7664 14.2993 15.813C14.4559 15.8553 14.6167 15.8913 14.7817 15.9209C14.951 15.9463 15.1139 15.959 15.2705 15.959C15.6302 15.959 15.9561 15.8892 16.248 15.7495C16.5443 15.6099 16.7961 15.4025 17.0034 15.1274C17.2108 14.8524 17.3695 14.5117 17.4795 14.1055C17.5938 13.695 17.6509 13.221 17.6509 12.6836H17.6255C17.5493 12.819 17.4478 12.9481 17.3208 13.0708C17.1981 13.1893 17.0563 13.2951 16.8955 13.3882C16.7347 13.4771 16.5549 13.549 16.356 13.604C16.1613 13.659 15.9518 13.6865 15.7275 13.6865C15.3467 13.6865 14.9912 13.6209 14.6611 13.4897C14.3353 13.3543 14.0518 13.1639 13.8105 12.9185C13.5693 12.673 13.3789 12.3747 13.2393 12.0234C13.1038 11.6722 13.0361 11.2808 13.0361 10.8491C13.0361 10.3752 13.1144 9.94775 13.271 9.56689C13.4276 9.1818 13.6434 8.85596 13.9185 8.58936C14.1935 8.31852 14.5173 8.11117 14.8896 7.96729C15.262 7.81917 15.6662 7.74512 16.1021 7.74512C16.5125 7.74512 16.8997 7.8234 17.2637 7.97998C17.6318 8.13232 17.9535 8.37777 18.2285 8.71631C18.5078 9.05062 18.7279 9.48438 18.8887 10.0176C19.0537 10.5508 19.1362 11.1961 19.1362 11.9536ZM17.6001 10.9824C17.6001 10.6777 17.5599 10.4006 17.4795 10.1509C17.4033 9.9012 17.2954 9.6875 17.1558 9.50977C17.0161 9.33203 16.849 9.1945 16.6543 9.09717C16.4639 8.99984 16.2544 8.95117 16.0259 8.95117C15.8228 8.95117 15.6281 8.99349 15.4419 9.07812C15.2599 9.15853 15.0991 9.2749 14.9595 9.42725C14.8241 9.57959 14.7161 9.76367 14.6357 9.97949C14.5553 10.1953 14.5151 10.4344 14.5151 10.6968C14.5151 10.9845 14.5532 11.2384 14.6294 11.4585C14.7098 11.6785 14.8198 11.8647 14.9595 12.0171C15.0991 12.1652 15.2663 12.2795 15.4609 12.3599C15.6598 12.436 15.8778 12.4741 16.1147 12.4741C16.3263 12.4741 16.521 12.436 16.6987 12.3599C16.8807 12.2795 17.0373 12.1737 17.1685 12.0425C17.3039 11.9071 17.4097 11.7484 17.4858 11.5664C17.562 11.3844 17.6001 11.1898 17.6001 10.9824Z" fill="white"/>
<defs>
<linearGradient id="paint0_linear_28_2400" x1="0" y1="0" x2="25" y2="25" gradientUnits="userSpaceOnUse">
<stop stop-color="#209782"/>
<stop offset="1" stop-color="#0C695A"/>
</linearGradient>
</defs>
</svg>
