<svg width="25" height="25" viewBox="0 0 25 25" fill="none" xmlns="http://www.w3.org/2000/svg">
<circle cx="12.5" cy="12.5" r="12" fill="url(#paint0_linear_28_2331)" stroke="#FAFAFA"/>
<path d="M10.1768 7.69434V17H8.7041V9.49707C8.4375 9.6875 8.14974 9.85042 7.84082 9.98584C7.53613 10.117 7.18701 10.2334 6.79346 10.335V9.07812C7.0389 8.99772 7.27588 8.91309 7.50439 8.82422C7.73291 8.73535 7.95719 8.6359 8.17725 8.52588C8.40153 8.41585 8.62581 8.29313 8.8501 8.15771C9.07861 8.0223 9.31348 7.86784 9.55469 7.69434H10.1768ZM12.2842 16.6636V15.2798C12.8766 15.7495 13.5452 15.9844 14.29 15.9844C14.8952 15.9844 15.3776 15.8468 15.7373 15.5718C16.1012 15.2967 16.2832 14.9243 16.2832 14.4546C16.2832 13.422 15.494 12.9058 13.9155 12.9058H13.2109V11.7251H13.8838C15.2845 11.7251 15.9849 11.2384 15.9849 10.2651C15.9849 9.368 15.439 8.91943 14.3472 8.91943C13.7378 8.91943 13.1644 9.13737 12.627 9.57324V8.26562C13.2448 7.91862 13.9748 7.74512 14.8169 7.74512C15.6252 7.74512 16.2726 7.94824 16.7593 8.35449C17.2459 8.76074 17.4893 9.28125 17.4893 9.91602C17.4893 11.1136 16.8799 11.8838 15.6611 12.2266V12.252C16.3171 12.3154 16.8354 12.5461 17.2163 12.9438C17.5972 13.3374 17.7876 13.8304 17.7876 14.4229C17.7876 15.2396 17.4808 15.8997 16.8672 16.4033C16.2536 16.9027 15.4453 17.1523 14.4424 17.1523C13.541 17.1523 12.8216 16.9894 12.2842 16.6636Z" fill="white"/>
<defs>
<linearGradient id="paint0_linear_28_2331" x1="0" y1="0" x2="25" y2="25" gradientUnits="userSpaceOnUse">
<stop stop-color="#209782"/>
<stop offset="1" stop-color="#0C695A"/>
</linearGradient>
</defs>
</svg>
