<svg width="25" height="25" viewBox="0 0 25 25" fill="none" xmlns="http://www.w3.org/2000/svg">
<circle cx="12.5" cy="12.5" r="12" fill="url(#paint0_linear_28_2407)" stroke="#FAFAFA"/>
<path d="M11.021 7.89746V13.7754H12.373V15.0005H11.021V17H9.59277V15.0005H5.47314V13.7627C5.84554 13.3438 6.2264 12.891 6.61572 12.4043C7.00928 11.9134 7.3859 11.4141 7.74561 10.9062C8.10954 10.3942 8.44596 9.88216 8.75488 9.37012C9.0638 8.85807 9.32406 8.36719 9.53564 7.89746H11.021ZM9.59277 13.7754V9.9541C9.13151 10.7835 8.67448 11.5072 8.22168 12.125C7.77311 12.7428 7.35205 13.293 6.9585 13.7754H9.59277ZM18.9683 17H13.2554V16.2954C13.2554 16.0076 13.2956 15.7389 13.376 15.4893C13.4564 15.2354 13.5643 14.9984 13.6997 14.7783C13.8351 14.554 13.9938 14.3446 14.1758 14.1499C14.3577 13.951 14.5524 13.7606 14.7598 13.5786C14.9671 13.3924 15.1787 13.2147 15.3945 13.0454C15.6104 12.8719 15.8219 12.6984 16.0293 12.5249C16.224 12.3599 16.4017 12.1991 16.5625 12.0425C16.7233 11.8817 16.8608 11.7166 16.9751 11.5474C17.0894 11.3781 17.1782 11.2004 17.2417 11.0142C17.3052 10.8237 17.3369 10.6185 17.3369 10.3984C17.3369 10.1572 17.2988 9.94775 17.2227 9.77002C17.1507 9.58805 17.047 9.43783 16.9116 9.31934C16.7804 9.19661 16.6239 9.10563 16.4419 9.04639C16.2599 8.98291 16.061 8.95117 15.8452 8.95117C15.4728 8.95117 15.0941 9.03792 14.709 9.21143C14.3239 9.38493 13.9536 9.64518 13.5981 9.99219V8.57666C13.7843 8.43701 13.9727 8.31641 14.1631 8.21484C14.3535 8.10905 14.5503 8.0223 14.7534 7.95459C14.9565 7.88265 15.1702 7.82975 15.3945 7.7959C15.6188 7.76204 15.8579 7.74512 16.1118 7.74512C16.5223 7.74512 16.8947 7.80013 17.229 7.91016C17.5633 8.01595 17.849 8.17464 18.0859 8.38623C18.3229 8.59359 18.5049 8.85384 18.6318 9.16699C18.763 9.48014 18.8286 9.83984 18.8286 10.2461C18.8286 10.6143 18.7821 10.9465 18.689 11.2427C18.6001 11.5347 18.471 11.8076 18.3018 12.0615C18.1367 12.3154 17.9357 12.5566 17.6987 12.7852C17.4618 13.0137 17.1973 13.2485 16.9053 13.4897C16.6598 13.6886 16.4144 13.8833 16.1689 14.0737C15.9277 14.2599 15.7098 14.444 15.5151 14.626C15.3205 14.8037 15.1618 14.9836 15.0391 15.1655C14.9206 15.3433 14.8613 15.5231 14.8613 15.7051V15.7368H18.9683V17Z" fill="white"/>
<defs>
<linearGradient id="paint0_linear_28_2407" x1="0" y1="0" x2="25" y2="25" gradientUnits="userSpaceOnUse">
<stop stop-color="#209782"/>
<stop offset="1" stop-color="#0C695A"/>
</linearGradient>
</defs>
</svg>
