<svg width="25" height="25" viewBox="0 0 25 25" fill="none" xmlns="http://www.w3.org/2000/svg">
<circle cx="12.5" cy="12.5" r="12" fill="url(#paint0_linear_28_2417)" stroke="#FAFAFA"/>
<path d="M6.05713 16.6636V15.2798C6.64958 15.7495 7.3182 15.9844 8.06299 15.9844C8.66813 15.9844 9.15055 15.8468 9.51025 15.5718C9.87419 15.2967 10.0562 14.9243 10.0562 14.4546C10.0562 13.422 9.26693 12.9058 7.68848 12.9058H6.98389V11.7251H7.65674C9.05745 11.7251 9.75781 11.2384 9.75781 10.2651C9.75781 9.368 9.21191 8.91943 8.12012 8.91943C7.51074 8.91943 6.93734 9.13737 6.3999 9.57324V8.26562C7.01774 7.91862 7.74772 7.74512 8.58984 7.74512C9.39811 7.74512 10.0456 7.94824 10.5322 8.35449C11.0189 8.76074 11.2622 9.28125 11.2622 9.91602C11.2622 11.1136 10.6528 11.8838 9.43408 12.2266V12.252C10.09 12.3154 10.6084 12.5461 10.9893 12.9438C11.3701 13.3374 11.5605 13.8304 11.5605 14.4229C11.5605 15.2396 11.2537 15.8997 10.6401 16.4033C10.0265 16.9027 9.21826 17.1523 8.21533 17.1523C7.31396 17.1523 6.59456 16.9894 6.05713 16.6636ZM18.835 17H13.1221V16.2954C13.1221 16.0076 13.1623 15.7389 13.2427 15.4893C13.3231 15.2354 13.431 14.9984 13.5664 14.7783C13.7018 14.554 13.8605 14.3446 14.0425 14.1499C14.2244 13.951 14.4191 13.7606 14.6265 13.5786C14.8338 13.3924 15.0454 13.2147 15.2612 13.0454C15.4771 12.8719 15.6886 12.6984 15.896 12.5249C16.0907 12.3599 16.2684 12.1991 16.4292 12.0425C16.59 11.8817 16.7275 11.7166 16.8418 11.5474C16.9561 11.3781 17.0449 11.2004 17.1084 11.0142C17.1719 10.8237 17.2036 10.6185 17.2036 10.3984C17.2036 10.1572 17.1655 9.94775 17.0894 9.77002C17.0174 9.58805 16.9137 9.43783 16.7783 9.31934C16.6471 9.19661 16.4906 9.10563 16.3086 9.04639C16.1266 8.98291 15.9277 8.95117 15.7119 8.95117C15.3395 8.95117 14.9608 9.03792 14.5757 9.21143C14.1906 9.38493 13.8203 9.64518 13.4648 9.99219V8.57666C13.651 8.43701 13.8394 8.31641 14.0298 8.21484C14.2202 8.10905 14.417 8.0223 14.6201 7.95459C14.8232 7.88265 15.0369 7.82975 15.2612 7.7959C15.4855 7.76204 15.7246 7.74512 15.9785 7.74512C16.389 7.74512 16.7614 7.80013 17.0957 7.91016C17.43 8.01595 17.7157 8.17464 17.9526 8.38623C18.1896 8.59359 18.3716 8.85384 18.4985 9.16699C18.6297 9.48014 18.6953 9.83984 18.6953 10.2461C18.6953 10.6143 18.6488 10.9465 18.5557 11.2427C18.4668 11.5347 18.3377 11.8076 18.1685 12.0615C18.0034 12.3154 17.8024 12.5566 17.5654 12.7852C17.3285 13.0137 17.064 13.2485 16.772 13.4897C16.5265 13.6886 16.2811 13.8833 16.0356 14.0737C15.7944 14.2599 15.5765 14.444 15.3818 14.626C15.1872 14.8037 15.0285 14.9836 14.9058 15.1655C14.7873 15.3433 14.728 15.5231 14.728 15.7051V15.7368H18.835V17Z" fill="white"/>
<defs>
<linearGradient id="paint0_linear_28_2417" x1="0" y1="0" x2="25" y2="25" gradientUnits="userSpaceOnUse">
<stop stop-color="#209782"/>
<stop offset="1" stop-color="#0C695A"/>
</linearGradient>
</defs>
</svg>
