<svg width="25" height="25" viewBox="0 0 25 25" fill="none" xmlns="http://www.w3.org/2000/svg">
<circle cx="12.5" cy="12.5" r="12" fill="url(#paint0_linear_28_2333)" stroke="#FAFAFA"/>
<path d="M10.1768 7.69434V17H8.7041V9.49707C8.4375 9.6875 8.14974 9.85042 7.84082 9.98584C7.53613 10.117 7.18701 10.2334 6.79346 10.335V9.07812C7.0389 8.99772 7.27588 8.91309 7.50439 8.82422C7.73291 8.73535 7.95719 8.6359 8.17725 8.52588C8.40153 8.41585 8.62581 8.29313 8.8501 8.15771C9.07861 8.0223 9.31348 7.86784 9.55469 7.69434H10.1768ZM12.4873 16.7905V15.375C13.084 15.777 13.6891 15.978 14.3027 15.978C14.9206 15.978 15.4178 15.8215 15.7944 15.5083C16.1711 15.1909 16.3594 14.7699 16.3594 14.2451C16.3594 13.7288 16.1668 13.3268 15.7817 13.0391C15.4009 12.7513 14.8529 12.6074 14.1377 12.6074C13.8923 12.6074 13.395 12.6328 12.646 12.6836L12.9697 7.89746H17.4512V9.1543H14.1948L14.0425 11.4331C14.3345 11.4162 14.599 11.4077 14.8359 11.4077C15.8008 11.4077 16.5456 11.6553 17.0703 12.1504C17.5993 12.6455 17.8638 13.3226 17.8638 14.1816C17.8638 15.083 17.5612 15.8066 16.9561 16.3525C16.3551 16.8942 15.5278 17.165 14.4741 17.165C13.5854 17.165 12.9232 17.0402 12.4873 16.7905Z" fill="white"/>
<defs>
<linearGradient id="paint0_linear_28_2333" x1="0" y1="0" x2="25" y2="25" gradientUnits="userSpaceOnUse">
<stop stop-color="#209782"/>
<stop offset="1" stop-color="#0C695A"/>
</linearGradient>
</defs>
</svg>
