<svg width="25" height="25" viewBox="0 0 25 25" fill="none" xmlns="http://www.w3.org/2000/svg">
<circle cx="12.5" cy="12.5" r="12" fill="url(#paint0_linear_28_2406)" stroke="#FAFAFA"/>
<path d="M11.021 7.89746V13.7754H12.373V15.0005H11.021V17H9.59277V15.0005H5.47314V13.7627C5.84554 13.3438 6.2264 12.891 6.61572 12.4043C7.00928 11.9134 7.3859 11.4141 7.74561 10.9062C8.10954 10.3942 8.44596 9.88216 8.75488 9.37012C9.0638 8.85807 9.32406 8.36719 9.53564 7.89746H11.021ZM9.59277 13.7754V9.9541C9.13151 10.7835 8.67448 11.5072 8.22168 12.125C7.77311 12.7428 7.35205 13.293 6.9585 13.7754H9.59277ZM13.4141 16.6636V15.2798C14.0065 15.7495 14.6751 15.9844 15.4199 15.9844C16.0251 15.9844 16.5075 15.8468 16.8672 15.5718C17.2311 15.2967 17.4131 14.9243 17.4131 14.4546C17.4131 13.422 16.6239 12.9058 15.0454 12.9058H14.3408V11.7251H15.0137C16.4144 11.7251 17.1147 11.2384 17.1147 10.2651C17.1147 9.368 16.5688 8.91943 15.4771 8.91943C14.8677 8.91943 14.2943 9.13737 13.7568 9.57324V8.26562C14.3747 7.91862 15.1047 7.74512 15.9468 7.74512C16.755 7.74512 17.4025 7.94824 17.8892 8.35449C18.3758 8.76074 18.6191 9.28125 18.6191 9.91602C18.6191 11.1136 18.0098 11.8838 16.791 12.2266V12.252C17.4469 12.3154 17.9653 12.5461 18.3462 12.9438C18.7271 13.3374 18.9175 13.8304 18.9175 14.4229C18.9175 15.2396 18.6107 15.8997 17.9971 16.4033C17.3835 16.9027 16.5752 17.1523 15.5723 17.1523C14.6709 17.1523 13.9515 16.9894 13.4141 16.6636Z" fill="white"/>
<defs>
<linearGradient id="paint0_linear_28_2406" x1="0" y1="0" x2="25" y2="25" gradientUnits="userSpaceOnUse">
<stop stop-color="#209782"/>
<stop offset="1" stop-color="#0C695A"/>
</linearGradient>
</defs>
</svg>
