<svg width="25" height="25" viewBox="0 0 25 25" fill="none" xmlns="http://www.w3.org/2000/svg">
<circle cx="12.5" cy="12.5" r="12" fill="url(#paint0_linear_28_2337)" stroke="#FAFAFA"/>
<path d="M10.1577 7.69434V17H8.68506V9.49707C8.41846 9.6875 8.1307 9.85042 7.82178 9.98584C7.51709 10.117 7.16797 10.2334 6.77441 10.335V9.07812C7.01986 8.99772 7.25684 8.91309 7.48535 8.82422C7.71387 8.73535 7.93815 8.6359 8.1582 8.52588C8.38249 8.41585 8.60677 8.29313 8.83105 8.15771C9.05957 8.0223 9.29443 7.86784 9.53564 7.69434H10.1577ZM18.1304 11.9536C18.1304 12.8634 18.0309 13.6463 17.832 14.3022C17.6374 14.9582 17.3665 15.4977 17.0195 15.9209C16.6768 16.3441 16.2726 16.6572 15.8071 16.8604C15.3459 17.0592 14.8486 17.1587 14.3154 17.1587C14.1419 17.1587 13.9663 17.1481 13.7886 17.127C13.6151 17.1058 13.4479 17.0783 13.2871 17.0444C13.1305 17.0106 12.9867 16.9746 12.8555 16.9365C12.7285 16.8942 12.6227 16.854 12.5381 16.8159V15.4893C12.627 15.5443 12.737 15.6014 12.8682 15.6606C12.9993 15.7157 13.1411 15.7664 13.2935 15.813C13.45 15.8553 13.6108 15.8913 13.7759 15.9209C13.9451 15.9463 14.1081 15.959 14.2646 15.959C14.6243 15.959 14.9502 15.8892 15.2422 15.7495C15.5384 15.6099 15.7902 15.4025 15.9976 15.1274C16.2049 14.8524 16.3636 14.5117 16.4736 14.1055C16.5879 13.695 16.645 13.221 16.645 12.6836H16.6196C16.5435 12.819 16.4419 12.9481 16.3149 13.0708C16.1922 13.1893 16.0505 13.2951 15.8896 13.3882C15.7288 13.4771 15.549 13.549 15.3501 13.604C15.1554 13.659 14.946 13.6865 14.7217 13.6865C14.3408 13.6865 13.9854 13.6209 13.6553 13.4897C13.3294 13.3543 13.0459 13.1639 12.8047 12.9185C12.5635 12.673 12.373 12.3747 12.2334 12.0234C12.098 11.6722 12.0303 11.2808 12.0303 10.8491C12.0303 10.3752 12.1086 9.94775 12.2651 9.56689C12.4217 9.1818 12.6375 8.85596 12.9126 8.58936C13.1877 8.31852 13.5114 8.11117 13.8838 7.96729C14.2562 7.81917 14.6603 7.74512 15.0962 7.74512C15.5067 7.74512 15.8939 7.8234 16.2578 7.97998C16.626 8.13232 16.9476 8.37777 17.2227 8.71631C17.502 9.05062 17.722 9.48438 17.8828 10.0176C18.0479 10.5508 18.1304 11.1961 18.1304 11.9536ZM16.5942 10.9824C16.5942 10.6777 16.554 10.4006 16.4736 10.1509C16.3975 9.9012 16.2896 9.6875 16.1499 9.50977C16.0103 9.33203 15.8431 9.1945 15.6484 9.09717C15.458 8.99984 15.2485 8.95117 15.02 8.95117C14.8169 8.95117 14.6222 8.99349 14.436 9.07812C14.2541 9.15853 14.0933 9.2749 13.9536 9.42725C13.8182 9.57959 13.7103 9.76367 13.6299 9.97949C13.5495 10.1953 13.5093 10.4344 13.5093 10.6968C13.5093 10.9845 13.5474 11.2384 13.6235 11.4585C13.7039 11.6785 13.814 11.8647 13.9536 12.0171C14.0933 12.1652 14.2604 12.2795 14.4551 12.3599C14.654 12.436 14.8719 12.4741 15.1089 12.4741C15.3205 12.4741 15.5151 12.436 15.6929 12.3599C15.8748 12.2795 16.0314 12.1737 16.1626 12.0425C16.298 11.9071 16.4038 11.7484 16.48 11.5664C16.5562 11.3844 16.5942 11.1898 16.5942 10.9824Z" fill="white"/>
<defs>
<linearGradient id="paint0_linear_28_2337" x1="0" y1="0" x2="25" y2="25" gradientUnits="userSpaceOnUse">
<stop stop-color="#209782"/>
<stop offset="1" stop-color="#0C695A"/>
</linearGradient>
</defs>
</svg>
