<svg width="25" height="25" viewBox="0 0 25 25" fill="none" xmlns="http://www.w3.org/2000/svg">
<circle cx="12.5" cy="12.5" r="12" fill="url(#paint0_linear_28_2163)" stroke="#FAFAFA"/>
<path d="M10.1768 7.69434V17H8.7041V9.49707C8.4375 9.6875 8.14974 9.85042 7.84082 9.98584C7.53613 10.117 7.18701 10.2334 6.79346 10.335V9.07812C7.0389 8.99772 7.27588 8.91309 7.50439 8.82422C7.73291 8.73535 7.95719 8.6359 8.17725 8.52588C8.40153 8.41585 8.62581 8.29313 8.8501 8.15771C9.07861 8.0223 9.31348 7.86784 9.55469 7.69434H10.1768ZM15.0137 17.1523C14.0658 17.1523 13.3252 16.7651 12.792 15.9907C12.263 15.2163 11.9985 14.097 11.9985 12.6328C11.9985 11.0247 12.2757 9.80811 12.8301 8.98291C13.3844 8.15771 14.1842 7.74512 15.2295 7.74512C17.2311 7.74512 18.2319 9.30029 18.2319 12.4106C18.2319 13.951 17.9484 15.1274 17.3813 15.9399C16.8185 16.7482 16.0293 17.1523 15.0137 17.1523ZM15.1597 8.91943C14.0552 8.91943 13.5029 10.1361 13.5029 12.5693C13.5029 14.846 14.0446 15.9844 15.1279 15.9844C16.1943 15.9844 16.7275 14.827 16.7275 12.5122C16.7275 10.117 16.2049 8.91943 15.1597 8.91943Z" fill="white"/>
<defs>
<linearGradient id="paint0_linear_28_2163" x1="0" y1="0" x2="25" y2="25" gradientUnits="userSpaceOnUse">
<stop stop-color="#209782"/>
<stop offset="1" stop-color="#0C695A"/>
</linearGradient>
</defs>
</svg>
